<?xml version="1.0" encoding="UTF-8"?>
<svg id="Layer_2" data-name="Layer 2" xmlns="http://www.w3.org/2000/svg" xmlns:xlink="http://www.w3.org/1999/xlink" viewBox="0 0 799 278">
  <defs>
    <style>
      .cls-1, .cls-2, .cls-3, .cls-4 {
        stroke-width: 0px;
      }

      .cls-2 {
        fill: #4698d3;
      }

      .cls-3 {
        fill: none;
      }

      .cls-4 {
        fill: #fff;
      }

      .cls-5 {
        clip-path: url(#clippath);
      }
    </style>
    <clipPath id="clippath">
      <rect class="cls-3" x="57.29" y="40" width="141.43" height="198"/>
    </clipPath>
  </defs>
  <g id="Layer_1-2" data-name="Layer 1">
    <g>
      <g>
        <rect class="cls-1" x=".5" y=".5" width="798" height="277" rx="52" ry="52"/>
        <path class="cls-1" d="m746.5,1c28.4,0,51.5,23.1,51.5,51.5v173c0,28.4-23.1,51.5-51.5,51.5H52.5c-28.4,0-51.5-23.1-51.5-51.5V52.5C1,24.1,24.1,1,52.5,1h694m0-1H52.5C23.51,0,0,23.51,0,52.5v173c0,28.99,23.51,52.5,52.5,52.5h694c28.99,0,52.5-23.51,52.5-52.5V52.5c0-28.99-23.51-52.5-52.5-52.5h0Z"/>
      </g>
      <g>
        <path class="cls-4" d="m252.91,44.33c4.12-.62,9.02-1.09,14.39-1.09,9.72,0,16.64,2.25,21.23,6.53,4.67,4.28,7.39,10.34,7.39,18.82s-2.64,15.55-7.54,20.37c-4.9,4.9-12.99,7.54-23.17,7.54-4.82,0-8.86-.23-12.29-.62v-51.55Zm6.77,46.34c1.71.31,4.2.39,6.84.39,14.46,0,22.32-8.09,22.32-22.24.08-12.36-6.92-20.22-21.23-20.22-3.5,0-6.14.31-7.93.7v41.37Z"/>
        <path class="cls-4" d="m338.83,76.91c0,13.92-9.64,19.98-18.74,19.98-10.19,0-18.04-7.46-18.04-19.36,0-12.6,8.24-19.98,18.66-19.98s18.12,7.85,18.12,19.36Zm-29.86.39c0,8.24,4.74,14.46,11.43,14.46s11.43-6.14,11.43-14.62c0-6.38-3.19-14.46-11.27-14.46s-11.59,7.46-11.59,14.62Z"/>
        <path class="cls-4" d="m349.64,58.4l4.98,19.13c1.09,4.2,2.1,8.09,2.8,11.97h.23c.86-3.81,2.1-7.85,3.34-11.9l6.14-19.21h5.75l5.83,18.82c1.4,4.51,2.49,8.48,3.34,12.29h.23c.62-3.81,1.63-7.78,2.88-12.21l5.37-18.9h6.77l-12.13,37.64h-6.22l-5.75-17.96c-1.32-4.2-2.41-7.93-3.34-12.36h-.16c-.93,4.51-2.1,8.4-3.42,12.44l-6.06,17.88h-6.22l-11.35-37.64h7Z"/>
        <path class="cls-4" d="m404.14,68.59c0-3.89-.08-7.08-.31-10.19h6.07l.39,6.22h.16c1.87-3.58,6.22-7.08,12.44-7.08,5.21,0,13.3,3.11,13.3,16.02v22.47h-6.84v-21.69c0-6.06-2.25-11.12-8.71-11.12-4.51,0-8.01,3.19-9.18,7-.31.86-.47,2.02-.47,3.19v22.63h-6.84v-27.45Z"/>
        <path class="cls-4" d="m447.3,40.83h6.84v55.21h-6.84v-55.21Z"/>
        <path class="cls-4" d="m499.71,76.91c0,13.92-9.64,19.98-18.74,19.98-10.19,0-18.04-7.46-18.04-19.36,0-12.6,8.24-19.98,18.66-19.98s18.12,7.85,18.12,19.36Zm-29.86.39c0,8.24,4.74,14.46,11.43,14.46s11.43-6.14,11.43-14.62c0-6.38-3.19-14.46-11.27-14.46s-11.59,7.46-11.59,14.62Z"/>
        <path class="cls-4" d="m529.17,96.04l-.54-4.74h-.23c-2.1,2.95-6.14,5.6-11.51,5.6-7.62,0-11.51-5.37-11.51-10.81,0-9.1,8.09-14.07,22.63-14v-.78c0-3.11-.86-8.71-8.55-8.71-3.5,0-7.15,1.09-9.8,2.8l-1.55-4.51c3.11-2.02,7.62-3.34,12.36-3.34,11.51,0,14.31,7.85,14.31,15.4v14.07c0,3.27.16,6.45.62,9.02h-6.22Zm-1.01-19.21c-7.46-.16-15.94,1.17-15.94,8.48,0,4.43,2.95,6.53,6.45,6.53,4.9,0,8.01-3.11,9.1-6.3.23-.7.39-1.48.39-2.18v-6.53Z"/>
        <path class="cls-4" d="m578.32,40.83v45.49c0,3.34.08,7.15.31,9.72h-6.14l-.31-6.53h-.16c-2.1,4.2-6.69,7.39-12.83,7.39-9.1,0-16.1-7.7-16.1-19.13-.08-12.52,7.7-20.22,16.87-20.22,5.75,0,9.64,2.72,11.35,5.75h.16v-22.47h6.84Zm-6.84,32.89c0-.86-.08-2.02-.31-2.88-1.01-4.35-4.74-7.93-9.88-7.93-7.08,0-11.27,6.22-11.27,14.54,0,7.62,3.73,13.92,11.12,13.92,4.59,0,8.79-3.03,10.03-8.16.23-.93.31-1.87.31-2.96v-6.53Z"/>
        <path class="cls-4" d="m606.15,68.59c0-3.89-.08-7.08-.31-10.19h6.07l.39,6.22h.16c1.87-3.58,6.22-7.08,12.44-7.08,5.21,0,13.3,3.11,13.3,16.02v22.47h-6.84v-21.69c0-6.06-2.25-11.12-8.71-11.12-4.51,0-8.01,3.19-9.18,7-.31.86-.47,2.02-.47,3.19v22.63h-6.84v-27.45Z"/>
        <path class="cls-4" d="m683.36,76.91c0,13.92-9.64,19.98-18.74,19.98-10.19,0-18.04-7.46-18.04-19.36,0-12.6,8.24-19.98,18.66-19.98s18.12,7.85,18.12,19.36Zm-29.86.39c0,8.24,4.74,14.46,11.43,14.46s11.43-6.14,11.43-14.62c0-6.38-3.19-14.46-11.27-14.46s-11.59,7.46-11.59,14.62Z"/>
        <path class="cls-4" d="m694.17,58.4l4.98,19.13c1.09,4.2,2.1,8.09,2.8,11.97h.23c.86-3.81,2.1-7.85,3.34-11.9l6.14-19.21h5.75l5.83,18.82c1.4,4.51,2.49,8.48,3.34,12.29h.23c.62-3.81,1.63-7.78,2.88-12.21l5.37-18.9h6.77l-12.13,37.64h-6.22l-5.75-17.96c-1.32-4.2-2.41-7.93-3.34-12.36h-.16c-.93,4.51-2.1,8.4-3.42,12.44l-6.06,17.88h-6.22l-11.35-37.64h7Z"/>
      </g>
      <g>
        <path class="cls-4" d="m253.28,226.1c0-6.6,4.46-11.24,10.71-11.24s10.53,4.64,10.53,11.24-4.1,11.24-10.71,11.24c-6.25,0-10.53-4.82-10.53-11.24Z"/>
        <path class="cls-4" d="m302.71,195.05c.36,21.24,13.92,29.98,29.63,29.98,11.24,0,18.03-1.96,23.91-4.46l2.68,11.24c-5.53,2.5-14.99,5.35-28.73,5.35-26.59,0-42.48-17.49-42.48-43.54s15.35-46.58,40.51-46.58c28.2,0,35.69,24.81,35.69,40.69,0,3.21-.36,5.71-.54,7.32h-60.68Zm46.04-11.24c.18-9.99-4.1-25.52-21.77-25.52-15.88,0-22.84,14.63-24.09,25.52h45.87Z"/>
        <path class="cls-4" d="m390.16,149l12.31,18.56c3.21,4.82,5.89,9.28,8.74,14.1h.54c2.86-5.18,5.71-9.64,8.57-14.28l12.14-18.38h16.95l-29.45,41.76,30.34,44.62h-17.85l-12.67-19.45c-3.39-5-6.25-9.82-9.28-14.99h-.36c-2.86,5.18-5.89,9.82-9.1,14.99l-12.49,19.45h-17.31l30.7-44.08-29.27-42.3h17.49Z"/>
        <path class="cls-4" d="m471.55,195.05c.36,21.24,13.92,29.98,29.63,29.98,11.24,0,18.02-1.96,23.91-4.46l2.68,11.24c-5.53,2.5-14.99,5.35-28.73,5.35-26.59,0-42.47-17.49-42.47-43.54s15.35-46.58,40.51-46.58c28.2,0,35.69,24.81,35.69,40.69,0,3.21-.36,5.71-.54,7.32h-60.68Zm46.04-11.24c.18-9.99-4.1-25.52-21.77-25.52-15.88,0-22.84,14.63-24.09,25.52h45.87Z"/>
      </g>
      <g class="cls-5">
        <path class="cls-4" d="m128,54.14c31.24,0,56.57,25.33,56.57,56.57v56.57l-16.57-16.57c-10.24,10.24-24.38,16.57-40,16.57-31.24,0-56.57-25.33-56.57-56.57s25.33-56.57,56.57-56.57m0-14.14c-38.99,0-70.71,31.72-70.71,70.71s31.72,70.71,70.71,70.71c14.09,0,27.54-4.09,39.01-11.7l7.57,7.56c2.7,2.71,6.32,4.14,10,4.14,1.82,0,3.66-.35,5.41-1.07,5.29-2.19,8.73-7.35,8.73-13.07v-56.57c0-38.99-31.72-70.71-70.71-70.71"/>
        <path class="cls-2" d="m85.57,223.86c0,7.81-6.33,14.14-14.14,14.14s-14.14-6.33-14.14-14.14,6.33-14.14,14.14-14.14,14.14,6.33,14.14,14.14m99-14.14c-7.81,0-14.14,6.33-14.14,14.14s6.33,14.14,14.14,14.14,14.14-6.33,14.14-14.14-6.33-14.14-14.14-14.14m-56.57,0c-7.81,0-14.14,6.33-14.14,14.14s6.33,14.14,14.14,14.14,14.14-6.33,14.14-14.14-6.33-14.14-14.14-14.14"/>
      </g>
    </g>
  </g>
</svg>