<svg xmlns="http://www.w3.org/2000/svg" viewBox="0 0 409.14 570.13">
  <title>Cloud computing</title>
  <g id="Layer_Cloud">
    <path d="M39.13,128.11a17.11,17.11,0,0,1-10.24-5.57,18,18,0,0,1-3.87-9c-1.29-10.94,9.35-18.94,10-19.39a8,8,0,0,1-1.87-3.78c-.6-3.36,1.23-7,4.59-9.37a44.53,44.53,0,0,1-3.67-7.43C32.74,70.13,28.68,59,32.68,45.82a41.65,41.65,0,0,1,12.7-19.29A45.41,45.41,0,0,1,70.25,15.77a51.7,51.7,0,0,1,21.07,2A54.46,54.46,0,0,1,113.23,31a59.45,59.45,0,0,1,8.39,10A19,19,0,0,1,125,27.06a17.55,17.55,0,0,1,7.27-5.62,19.26,19.26,0,0,1,12.81-.31,24.2,24.2,0,0,1,11.79,7.39,33.68,33.68,0,0,1,5.36-11.58c5.93-8.17,14-11.23,18.3-12.82,15.59-5.7,29.71-1.21,33.59.08a54.28,54.28,0,0,1,27.21,20.37c11.29,16.34,9.58,33.47,9,37.69a18.19,18.19,0,0,1,5.86-4.39,16.9,16.9,0,0,1,23.2,8.74A19.08,19.08,0,0,1,281,75.06a19.51,19.51,0,0,1-1.12,5.68A12.82,12.82,0,0,1,284,77.8a14.36,14.36,0,0,1,7.81-.87c4.1.42,6.94,1.84,10.31,3.53a31.6,31.6,0,0,1,8.91,6A19.13,19.13,0,0,1,315.79,93a18.71,18.71,0,0,1,1.22,7.79,21.7,21.7,0,0,1-4.21,11.23,27.63,27.63,0,0,1-7.28,7.34,2.81,2.81,0,0,1,1.34,1.83c.2,1.57-1.79,2.93-2.84,3.65-4.49,3.06-11.93,3.18-15.37,3.09,0,2.63-.09,5.26-.14,7.89l-29.94.74c-.42-2.76-.83-5.51-1.25-8.27l-22.59.53c-.26,1.7-.51,3.41-.77,5.11l-39.21,1.93-1.6-7.42-21.53.14-1.53,7.3a113.83,113.83,0,0,1-16.65,2,114.8,114.8,0,0,1-19.3-.73q-.84-4.38-1.66-8.74l-21.65.28-1.08,11.8-29.18-.8-2.22-11.28Z" fill="#fff"/>
    <path d="M282,128.38c0,.45-54.35.81-121.39.81s-121.38-.36-121.38-.81,54.34-.82,121.38-.82S282,127.93,282,128.38Z" stroke="#000" stroke-miterlimit="10" stroke-width="0.5"/>
    <path d="M37.7,81c.15.12-.87,1.29-2.29,3.44a10.28,10.28,0,0,0-1.65,4.16,7,7,0,0,0,.18,2.64,5.17,5.17,0,0,0,.56,1.27,3.47,3.47,0,0,0,.46.61c.33.33.68.65,1,1l-1.6,1.72-1.13,1.27c-.76.86-1.53,1.76-2.27,2.72a28.48,28.48,0,0,0-3.89,6.39,14.94,14.94,0,0,0-.62,10.73,17,17,0,0,0,5.05,7.4,16.51,16.51,0,0,0,5.34,3c.69.26,1.25.38,1.63.49s.58.2.58.25-.22.08-.62.07a7.35,7.35,0,0,1-1.76-.2,14.83,14.83,0,0,1-5.89-2.75,17.5,17.5,0,0,1-5.75-7.81,15.62,15.62,0,0,1-.88-5.78,17.22,17.22,0,0,1,1.42-6.07,28.48,28.48,0,0,1,4.16-6.74c.78-1,1.58-1.89,2.38-2.75.39-.44.79-.86,1.18-1.26l.41-.41a3.08,3.08,0,0,0,.25-.27,1.84,1.84,0,0,1-.19-.2,6,6,0,0,1-.48-.72,6.67,6.67,0,0,1-.65-1.64,8,8,0,0,1-.07-3.14A10.48,10.48,0,0,1,34.72,84C36.41,81.86,37.61,80.93,37.7,81Z" stroke="#000" stroke-miterlimit="10" stroke-width="0.5"/>
    <path d="M121.57,40.94a5.85,5.85,0,0,1-1-1.13c-.31-.38-.66-.87-1.11-1.42l-1.58-1.88A63.74,63.74,0,0,0,106.36,26a55.51,55.51,0,0,0-21-9,46.68,46.68,0,0,0-13.49-.63,50.21,50.21,0,0,0-14.07,3.53,46.77,46.77,0,0,0-12.31,7.59,39.17,39.17,0,0,0-8.58,10.36,41.9,41.9,0,0,0-5.35,22,39.88,39.88,0,0,0,3.52,15l1.1,2.19c.32.64.66,1.13.89,1.56A4.89,4.89,0,0,1,37.72,80a5.64,5.64,0,0,1-.95-1.16c-.28-.4-.67-.88-1-1.49l-1.24-2.16A37.82,37.82,0,0,1,30.38,60a42.29,42.29,0,0,1,5.19-22.82,40.52,40.52,0,0,1,8.84-10.82,47.68,47.68,0,0,1,12.74-7.9,51,51,0,0,1,14.54-3.61,47.49,47.49,0,0,1,13.93.75A55,55,0,0,1,107,25.11a57.86,57.86,0,0,1,11.35,11l1.47,2c.42.59.73,1.11,1,1.52A5.12,5.12,0,0,1,121.57,40.94Z" stroke="#000" stroke-miterlimit="10" stroke-width="0.5"/>
    <path d="M156.83,28.5c-.07.09-.7-.29-1.81-1s-2.67-1.84-4.68-3a25.68,25.68,0,0,0-7.44-3.15,17,17,0,0,0-9.59.65,16.77,16.77,0,0,0-7.77,5.66,18.16,18.16,0,0,0-3.22,7.27,19.67,19.67,0,0,0-.28,5.46c.11,1.3.25,2,.12,2.06s-.44-.64-.75-2a16.37,16.37,0,0,1-.23-5.74,18.14,18.14,0,0,1,3.15-8,17.66,17.66,0,0,1,8.42-6.31,18,18,0,0,1,10.5-.57A24.27,24.27,0,0,1,151,23.45,43.14,43.14,0,0,1,155.41,27C156.4,27.87,156.9,28.41,156.83,28.5Z" stroke="#000" stroke-miterlimit="10" stroke-width="0.5"/>
    <path d="M250.36,62.19a5.68,5.68,0,0,1,0-1.45c0-1,.13-2.34.07-4.13a58.58,58.58,0,0,0-2-14.92,55.56,55.56,0,0,0-3.58-9.75,53.74,53.74,0,0,0-6.16-10.16,52.88,52.88,0,0,0-9.16-9.37,47.48,47.48,0,0,0-12.18-7,52.84,52.84,0,0,0-26.75-3.08,46.78,46.78,0,0,0-11.45,3.11,47.66,47.66,0,0,0-4.87,2.3c-.76.41-1.47.89-2.18,1.31s-1.4.86-2,1.33a34.81,34.81,0,0,0-10.23,10.85c-1.76,3.09-2.23,5.05-2.38,5a4.62,4.62,0,0,1,.27-1.43A22.89,22.89,0,0,1,159.19,21a33.53,33.53,0,0,1,10.1-11.49c.65-.49,1.35-1,2.07-1.4s1.44-1,2.21-1.4a50,50,0,0,1,5-2.45A47.38,47.38,0,0,1,190.28.87a53.51,53.51,0,0,1,27.58,3,48.34,48.34,0,0,1,12.57,7.25,53.5,53.5,0,0,1,9.37,9.71A54.45,54.45,0,0,1,246,31.38a55.27,55.27,0,0,1,3.47,10A54,54,0,0,1,251,56.62a33.68,33.68,0,0,1-.38,4.15A4.42,4.42,0,0,1,250.36,62.19Z" stroke="#000" stroke-miterlimit="10" stroke-width="0.5"/>
    <path d="M280.4,80.17c-.11,0-.15-.68-.14-1.89s.08-3-.06-5.07a18,18,0,0,0-1.8-7,17.26,17.26,0,0,0-5.81-6.59,15.85,15.85,0,0,0-8.3-2.72,17.65,17.65,0,0,0-7.15,1.21c-3.92,1.56-5.72,3.67-5.92,3.45-.07-.06.27-.67,1.15-1.53a15.57,15.57,0,0,1,4.31-3,17.66,17.66,0,0,1,7.65-1.66,16.84,16.84,0,0,1,9.17,2.88,18,18,0,0,1,6.25,7.28,17.76,17.76,0,0,1,1.6,7.65,30.39,30.39,0,0,1-.46,5.16C280.69,79.53,280.51,80.18,280.4,80.17Z" stroke="#000" stroke-miterlimit="10" stroke-width="0.5"/>
    <path d="M304.38,119.42c-.07-.11.79-.67,2.22-1.8a29.28,29.28,0,0,0,5.38-5.44,20.94,20.94,0,0,0,4.17-10.25,16.86,16.86,0,0,0-3.54-12.68,25,25,0,0,0-5.27-4.72,62.9,62.9,0,0,0-5.76-3.5A27.89,27.89,0,0,0,291,77.43a16.72,16.72,0,0,0-7.46.92c-1.69.64-2.52,1.25-2.6,1.13s.65-.86,2.35-1.71A15.74,15.74,0,0,1,291,76.28a27.6,27.6,0,0,1,11.25,3.42,60.41,60.41,0,0,1,6,3.51,26.2,26.2,0,0,1,5.64,5,17,17,0,0,1,3.39,6.83,19.31,19.31,0,0,1,.37,7.06,21.36,21.36,0,0,1-4.75,10.78,25.1,25.1,0,0,1-5.92,5.25A7.46,7.46,0,0,1,304.38,119.42Z" stroke="#000" stroke-miterlimit="10" stroke-width="0.5"/>
    <path d="M305.53,119.39c0-.09.48-.19,1.07.33a2.77,2.77,0,0,1,.57,3,6.52,6.52,0,0,1-3.18,3,24.48,24.48,0,0,1-4.68,2,23.5,23.5,0,0,1-9.11.93c-2.34-.24-3.71-.78-3.67-1s1.47-.11,3.72-.17a32.42,32.42,0,0,0,8.59-1.34,31.27,31.27,0,0,0,4.45-1.75,5.91,5.91,0,0,0,2.83-2.15,2.21,2.21,0,0,0,0-2.12C305.84,119.66,305.49,119.51,305.53,119.39Z" stroke="#000" stroke-miterlimit="10" stroke-width="0.5"/>
    <path d="M110.84,128.41c.23,0,.28,2.94.18,7.67l0,1.86a9.45,9.45,0,0,1-.21,2.17,2.28,2.28,0,0,1-.85,1.21,3.11,3.11,0,0,1-1.35.48,21.15,21.15,0,0,1-2.39,0c-3.12-.1-6.56-.22-10.16-.38s-7-.32-10.17-.5c-1.57-.09-3-.16-4.46-.28a3.36,3.36,0,0,1-1.23-.36,1.88,1.88,0,0,1-.9-1.13,3.9,3.9,0,0,1-.1-1.13l0-.89c.07-4.66-.68-7.52-.42-7.58s1.34,2.73,1.58,7.56a8.07,8.07,0,0,0,.11,1.67.57.57,0,0,0,.33.35,2.18,2.18,0,0,0,.74.17l4.4.12c3.12.1,6.55.22,10.16.38s7,.32,10.15.5a21.12,21.12,0,0,0,2.17.07c.63-.07.91-.23,1.08-.68a9.19,9.19,0,0,0,.23-1.82l.15-1.85C110.26,131.31,110.62,128.4,110.84,128.41Z" stroke="#000" stroke-miterlimit="10" stroke-width="0.5"/>
    <path d="M88.89,177.94c-.46,0-.61-8.28-.73-18.47S88,141,88.49,141s1.2,8.24,1.3,18.46S89.33,178,88.89,177.94Z" stroke="#000" stroke-miterlimit="10" stroke-width="0.5"/>
    <path d="M.58,270.24c.1-.08.48.26,1.23.73a8.53,8.53,0,0,0,3.4,1.25,7.23,7.23,0,0,0,2.44-.08,2.26,2.26,0,0,0,1.85-1.27,8.4,8.4,0,0,0,.21-3A8.71,8.71,0,0,0,9,264.63a3.43,3.43,0,0,0-2.12-1.9,3.93,3.93,0,0,0-2.73.36,4.72,4.72,0,0,0-1.95,1.76,6,6,0,0,0-.78,2.26,10.49,10.49,0,0,0,.26,3.66c.2.87.35,1.36.25,1.41s-.44-.35-.85-1.2a8.6,8.6,0,0,1-.8-4A6.74,6.74,0,0,1,1,264.19a5.92,5.92,0,0,1,2.43-2.43,5.33,5.33,0,0,1,3.83-.58,5,5,0,0,1,3.19,2.74,9.77,9.77,0,0,1,.86,3.84,15.71,15.71,0,0,1,0,1.82,5.61,5.61,0,0,1-.4,1.87,3,3,0,0,1-1.36,1.49,4.82,4.82,0,0,1-1.64.53A8,8,0,0,1,5,273.35a7.47,7.47,0,0,1-3.6-1.88C.73,270.79.51,270.3.58,270.24Z" stroke="#000" stroke-miterlimit="10" stroke-width="0.5"/>
    <path d="M89.3,178.69a5.66,5.66,0,0,1-1.6.18c-1,.07-2.6.14-4.59.21-4,.14-9.76.29-16.89.44l-25,.45-14.79.21-7.83.09-4,0-2,0a3.88,3.88,0,0,0-1.58.17c-.44.09-.39,1.93-.5,3.16l-.26,4q-.22,4-.45,7.81c-.28,5.12-.52,10.06-.72,14.77-.39,9.41-.65,17.89-.82,25s-.26,12.89-.34,16.88c-.05,2-.08,3.54-.13,4.59a6.87,6.87,0,0,1-.15,1.61,5.66,5.66,0,0,1-.18-1.6c-.06-1.05-.13-2.6-.18-4.6-.11-4-.19-9.76-.17-16.9s.16-15.63.47-25.06c.16-4.72.37-9.66.62-14.79.15-2.57.29-5.18.44-7.82l.24-4,.13-2a4.74,4.74,0,0,1,.21-1.2,2.19,2.19,0,0,1,.95-1.24,3,3,0,0,1,1.34-.37c.4,0,.72,0,1.06,0l2,0,4,0,7.82-.07,14.79-.11,25.06-.1c7.13,0,12.9,0,16.89.07,2,0,3.54.06,4.59.11A6.63,6.63,0,0,1,89.3,178.69Z" stroke="#000" stroke-miterlimit="10" stroke-width="0.5"/>
    <path d="M171.18,127.13c.11,0,.18.77.2,2.14,0,.69,0,1.53,0,2.51l0,1.56a7.4,7.4,0,0,1-.22,1.88,2.77,2.77,0,0,1-1.57,1.77,8.34,8.34,0,0,1-2.2.49c-1.43.2-3,.4-4.59.57-3.24.35-6.81.62-10.57.75s-7.34.1-10.6,0c-1.63-.07-3.17-.15-4.62-.26l-1.06-.08a8.26,8.26,0,0,1-1.11-.13,1.86,1.86,0,0,1-1.2-.77,1.91,1.91,0,0,1-.23-.67l-.06-.49c-.53-4.88-.75-7.91-.53-7.95s.85,2.95,1.67,7.79l.08.43a.5.5,0,0,0,.09.22c.1.12.17.16.43.21s.58,0,.93.06l1.06,0,4.59.11c3.23,0,6.78,0,10.5-.11s7.27-.35,10.49-.61c1.61-.13,3.14-.28,4.57-.42a7.83,7.83,0,0,0,1.88-.31,1.54,1.54,0,0,0,1-1,6,6,0,0,0,.28-1.57l.15-1.55c.09-1,.18-1.81.27-2.49C170.92,127.87,171.07,127.12,171.18,127.13Z" stroke="#000" stroke-miterlimit="10" stroke-width="0.5"/>
    <path d="M152.45,191c-.23,0-.26-2.89-.21-7.52s.16-11,.27-18.1.16-13.45.21-18.09.19-7.51.41-7.51.52,2.85.74,7.49.36,11,.27,18.14-.4,13.49-.75,18.12S152.67,191,152.45,191Z" stroke="#000" stroke-miterlimit="10" stroke-width="0.5"/>
    <path d="M152.69,191c0,.23-3.79.43-9.9.75s-14.55.77-23.85,1.49l-6.77.55a2.11,2.11,0,0,0-.56.13.46.46,0,0,0-.22.18,2.36,2.36,0,0,0-.08,1.15c.07,1.06.14,2.1.2,3.11.26,4,.48,7.68.63,10.74.31,6.12.39,9.92.16,9.93s-.71-3.74-1.31-9.84c-.3-3.05-.63-6.68-1-10.72l-.26-3.1a3.54,3.54,0,0,1,.24-2,2,2,0,0,1,1-.9,3.5,3.5,0,0,1,1-.27c2.25-.21,4.49-.41,6.83-.59,9.34-.72,17.82-1,23.95-1S152.69,190.77,152.69,191Z" stroke="#000" stroke-miterlimit="10" stroke-width="0.5"/>
    <path d="M107.28,224.34c.12,0,.15.57.26,1.56a9.06,9.06,0,0,0,1.25,3.8,4.88,4.88,0,0,0,1.93,1.7,3.61,3.61,0,0,0,2.73.28,4.33,4.33,0,0,0,2.26-2.11,8.36,8.36,0,0,0,1-3.47,5.85,5.85,0,0,0-.7-3.38,3.27,3.27,0,0,0-2.46-1.57,4.44,4.44,0,0,0-2.77.69,4.94,4.94,0,0,0-1.79,1.88,8.91,8.91,0,0,0-1,3.87c-.07,1,0,1.54-.17,1.56s-.34-.51-.47-1.55a8.28,8.28,0,0,1,.65-4.41,6,6,0,0,1,5.72-3.54,4.8,4.8,0,0,1,3.68,2.21,7.28,7.28,0,0,1,1,4.35,9.57,9.57,0,0,1-1.28,4.15,5.69,5.69,0,0,1-3.19,2.75,5,5,0,0,1-3.81-.51,5.89,5.89,0,0,1-2.29-2.31,8.06,8.06,0,0,1-.89-4.38C107,224.87,107.18,224.33,107.28,224.34Z" stroke="#000" stroke-miterlimit="10" stroke-width="0.5"/>
    <path d="M115.94,319.33a14.88,14.88,0,0,1-.42-3.46c-.17-2.24-.36-5.47-.57-9.47-.41-8-.91-19-1.44-31.24s-1-23.25-1.26-31.25c-.13-4-.22-7.24-.25-9.48a14.37,14.37,0,0,1,.12-3.48,13.72,13.72,0,0,1,.51,3.45c.23,2.23.49,5.46.77,9.45.57,8,1.21,19,1.74,31.24s.84,23.27,1,31.27c.06,4,.07,7.25,0,9.49A13.36,13.36,0,0,1,115.94,319.33Z" stroke="#000" stroke-miterlimit="10" stroke-width="0.5"/>
    <path d="M115,319.83c0,.45-13,.82-29.1.82s-29.1-.37-29.1-.82,13-.81,29.1-.81S115,319.38,115,319.83Z" stroke="#000" stroke-miterlimit="10" stroke-width="0.5"/>
    <path d="M48.88,317.79c.12,0,0,.48.16,1.22a4.94,4.94,0,0,0,1.37,2.71,3.56,3.56,0,0,0,3.93.8A4,4,0,0,0,56.26,321a3.28,3.28,0,0,0,.44-2.47,4,4,0,0,0-1.3-2.24,3.22,3.22,0,0,0-2.23-.79,4,4,0,0,0-2.14.68,3.55,3.55,0,0,0-1.27,1.5,4.48,4.48,0,0,0-.18,3c.19.73.44,1.11.35,1.19s-.51-.18-.94-.94a4.69,4.69,0,0,1-.3-3.66A4.92,4.92,0,0,1,53.11,314a4.67,4.67,0,0,1,3.3,1.05,5.49,5.49,0,0,1,1.89,3.17,4.79,4.79,0,0,1-.71,3.66,5.39,5.39,0,0,1-2.74,2.05,5,5,0,0,1-3.09.06,4.73,4.73,0,0,1-2.21-1.5A5,5,0,0,1,48.4,319C48.5,318.16,48.78,317.75,48.88,317.79Z" stroke="#000" stroke-miterlimit="10" stroke-width="0.5"/>
    <path d="M234.73,128.88c.11,0,.13.73.08,2,0,.66-.06,1.42-.14,2.39a2.55,2.55,0,0,1-.25.84,1.89,1.89,0,0,1-.7.73,4.63,4.63,0,0,1-1.78.54,129.72,129.72,0,0,1-18.13,1.34c-3.55,0-6.93,0-10-.11l-4.35-.15-2-.09a7.9,7.9,0,0,1-2-.25,2.54,2.54,0,0,1-.95-.52,2.14,2.14,0,0,1-.59-.87,8.34,8.34,0,0,1-.3-1.55c-.12-.91-.22-1.7-.29-2.35-.13-1.29-.16-2,0-2s.35.66.68,1.92c.16.63.35,1.4.56,2.3a7.91,7.91,0,0,0,.36,1.32,1.17,1.17,0,0,0,.89.67,7,7,0,0,0,1.66.1h6.33c3.06,0,6.42,0,9.95,0,7.05-.06,13.41-.43,18-.86a3.93,3.93,0,0,0,1.4-.28,1.07,1.07,0,0,0,.57-.83c.16-.9.3-1.67.41-2.31C234.43,129.56,234.61,128.86,234.73,128.88Z" stroke="#000" stroke-miterlimit="10" stroke-width="0.5"/>
    <path d="M209.14,209.82c-.22,0-.66-4-1.12-10.6s-1-15.63-1.26-25.67-.41-19.12-.36-25.7.23-10.64.45-10.65.46,4.07.7,10.64.51,15.64.83,25.66.59,19.09.79,25.67S209.37,209.81,209.14,209.82Z" stroke="#000" stroke-miterlimit="10" stroke-width="0.5"/>
    <path d="M239.89,213.18c0,.45-6.84.22-15.18-.52s-15.09-1.71-15.05-2.15,6.84-.22,15.19.52S239.93,212.73,239.89,213.18Z" stroke="#000" stroke-miterlimit="10" stroke-width="0.5"/>
    <path d="M240.09,259.34c-.21,0-.66-2.45-1.07-6.49s-.75-9.62-.76-15.81.31-11.78.71-15.82.83-6.51,1.05-6.49c.47.05-.17,10-.13,22.31S240.57,259.29,240.09,259.34Z" stroke="#000" stroke-miterlimit="10" stroke-width="0.5"/>
    <ellipse cx="209.66" cy="261.13" rx="31.07" ry="0.82" stroke="#000" stroke-miterlimit="10" stroke-width="0.5"/>
    <path d="M170.87,261.86c.12,0,.25.36.62.9a4.45,4.45,0,0,0,2.07,1.64,3.32,3.32,0,0,0,3.46-.51,3.82,3.82,0,0,0,1.15-4,3.92,3.92,0,0,0-3.51-2.33,3.62,3.62,0,0,0-3.12,1.74,5,5,0,0,0-.8,2.55c0,.66.06,1.05-.06,1.09s-.38-.28-.57-1a4.73,4.73,0,0,1,.43-3.2,5.05,5.05,0,0,1,1.5-1.78,4.53,4.53,0,0,1,2.6-.88,5.33,5.33,0,0,1,2.91.77,4.74,4.74,0,0,1,2.15,5.78,5.24,5.24,0,0,1-1.74,2.46,4.36,4.36,0,0,1-2.6.95,4.8,4.8,0,0,1-2.28-.55,4.42,4.42,0,0,1-2.16-2.41C170.68,262.3,170.77,261.87,170.87,261.86Z" stroke="#000" stroke-miterlimit="10" stroke-width="0.5"/>
    <path d="M287.64,136.06c0,.21-1.89.76-5.07,1.21a86.19,86.19,0,0,1-12.52.69c-2.45,0-4.78-.12-6.89-.23l-3-.19-.69,0a3.07,3.07,0,0,1-.93-.18,1.29,1.29,0,0,1-.67-.69,2.54,2.54,0,0,1-.17-.82c-.29-3.18-.36-5.17-.13-5.2s.69,1.9,1.27,5a1.16,1.16,0,0,0,.09.36.29.29,0,0,0,.21.16,1.18,1.18,0,0,0,.38,0h.69l3,0,6.84.1c4.85.06,9.23-.05,12.4-.2S287.6,135.82,287.64,136.06Z" stroke="#000" stroke-miterlimit="10" stroke-width="0.5"/>
    <path d="M288.51,135.85c-.45,0-.93-1.71-1.08-3.88s.1-4,.55-4,.93,1.7,1.08,3.88S289,135.81,288.51,135.85Z" stroke="#000" stroke-miterlimit="10" stroke-width="0.5"/>
    <path d="M271.58,182.69c-.22,0-.52-2.54-.81-6.66s-.59-9.82-.81-16.12-.33-12-.33-16.14c0-2.06,0-3.7-.14-4.84s-.18-1.77-.07-1.8.41.55.7,1.7a28.34,28.34,0,0,1,.66,4.9c.29,4.12.59,9.82.81,16.12s.33,12,.33,16.14S271.81,182.68,271.58,182.69Z" stroke="#000" stroke-miterlimit="10" stroke-width="0.5"/>
    <path d="M338,184.47c0,.45-14.5.82-32.38.82s-32.38-.37-32.38-.82,14.49-.81,32.38-.81S338,184,338,184.47Z" stroke="#000" stroke-miterlimit="10" stroke-width="0.5"/>
    <path d="M338.88,186.51c.12,0,.36.4,1,1a5.7,5.7,0,0,0,3.08,1.55,4.33,4.33,0,0,0,4.3-1.65,5.08,5.08,0,0,0,0-5.59,4.35,4.35,0,0,0-5.24-1.29,4.52,4.52,0,0,0-3,3.58,5.68,5.68,0,0,0,.64,3.38c.4.75.76,1.11.67,1.21s-.57-.12-1.19-.85a5.6,5.6,0,0,1-1.27-3.84,5.36,5.36,0,0,1,.95-2.78,6.18,6.18,0,0,1,2.63-2.09,6.45,6.45,0,0,1,3.7-.45,5.24,5.24,0,0,1,3.45,2.2,6.48,6.48,0,0,1-.15,7.4,5.11,5.11,0,0,1-2.85,1.9,5.79,5.79,0,0,1-2.9,0,5.66,5.66,0,0,1-3.34-2.27C338.83,187.09,338.8,186.54,338.88,186.51Z" stroke="#000" stroke-miterlimit="10" stroke-width="0.5"/>
  </g>
  <g id="Layer_Character1">
    <g id="Leg_right" data-name="Leg right">
      <path d="M95,530.52q-2.46,5.73-4.87,11.79-2.75,6.86-5.13,13.46c-5.5-.53-9.92-1.12-12.92-1.55-3.79-.55-7.63-.79-11.38-1.55-3-.62-6.47-1.49-10.5-.23a14.68,14.68,0,0,0-2.15.88,62.79,62.79,0,0,0,8.77,5.25c4.64,2.28,8.88,3.65,19.68,6.18,5.3,1.24,12,2.7,19.76,4.2.66-2.22,1.6-5.28,2.83-8.92,2.44-7.22,4.64-12.67,6.62-17.57,1.23-3,2.86-7,4.87-11.52Z"/>
      <path d="M198.31,427.34a179.61,179.61,0,0,0-23.25-15.47c-6.58-3.68-11.78-6.55-19.49-9.07-8.24-2.69-14.4-3.38-21.55-4.17-9.44-1.05-12-.35-13.69.35-4.77,1.95-7.57,5.77-10.63,10.93a132.64,132.64,0,0,0-11.76,26.21c-10,29.42-9,25.9-10.9,32.09-3.45,11.55-6,20-8.07,31.92a215.8,215.8,0,0,0-2.67,21.51,44.06,44.06,0,0,0,26.12,13.83,45.1,45.1,0,0,0,18.7-1.17c1.35-4.66,2.32-8.37,2.87-10.52,5.5-21.53,5.86-31.41,11.43-50.77,1-3.54,1.9-6.33,2.35-7.73a27.62,27.62,0,0,1,5.64-2.33c7.49-2.14,13.26-.24,21.67,1.46a164.14,164.14,0,0,0,21.45,2.81c6.74.5,13.31.95,21.85-.26,5.11-.73,10.51-1.54,16.82-4.7a33.81,33.81,0,0,0,11.42-8.41c1-1.12,7.74-9,6.73-14.46C241.88,431.56,223.71,426.41,198.31,427.34Z" fill="#fff"/>
      <path d="M76.31,521.52a11.33,11.33,0,0,1,0-2.22c.06-1.45.16-3.59.45-6.34a187.93,187.93,0,0,1,3.76-23.07A345.54,345.54,0,0,1,90,456.54c2-6.19,4.32-12.65,6.68-19.33a183.89,183.89,0,0,1,8.16-20.47,67.29,67.29,0,0,1,5.79-9.66c1.09-1.5,2.27-2.92,3.49-4.3a20.39,20.39,0,0,1,4.18-3.66,12.22,12.22,0,0,1,5.29-1.77,27.64,27.64,0,0,1,5.31,0c3.41.3,6.74.6,10,1a81,81,0,0,1,18.13,4.22,101.73,101.73,0,0,1,14.73,6.75,192.58,192.58,0,0,1,19.63,12.71c2.24,1.61,4,2.9,5.1,3.78a11.7,11.7,0,0,1,1.71,1.42,11.68,11.68,0,0,1-1.9-1.15l-5.27-3.53a228.56,228.56,0,0,0-19.82-12.21,102.37,102.37,0,0,0-14.63-6.5,80.86,80.86,0,0,0-17.86-4c-3.22-.38-6.54-.65-9.93-.94s-6.83-.29-9.63,1.53a18.57,18.57,0,0,0-3.84,3.4A52.88,52.88,0,0,0,112,408a66,66,0,0,0-5.64,9.43,184.94,184.94,0,0,0-8.11,20.27c-2.39,6.68-4.68,13.12-6.77,19.28-4.19,12.33-7.54,23.56-9.8,33.13A218.49,218.49,0,0,0,77.39,513c-.38,2.73-.59,4.86-.75,6.3A11.6,11.6,0,0,1,76.31,521.52Z" stroke="#000" stroke-miterlimit="10" stroke-width="0.5"/>
      <path d="M121.75,534.9c0,.21-2.54.84-6.78,1.42a49.64,49.64,0,0,1-7.55.45,31.46,31.46,0,0,1-9.21-1.55A98.79,98.79,0,0,1,83,528.32c-3.73-2.1-5.88-3.65-5.77-3.83.24-.45,9.39,4.88,21.52,9.18,6,2,11.94,1.74,16.14,1.5S121.72,534.66,121.75,534.9Z" stroke="#000" stroke-miterlimit="10" stroke-width="0.5"/>
      <path d="M139,457.7a11.32,11.32,0,0,1-.33,3.09c-.31,2-.82,4.8-1.5,8.29-1.35,7-3.39,16.61-5.85,27.19s-4.91,20.1-6.79,27c-.94,3.43-1.74,6.2-2.33,8.1a11.46,11.46,0,0,1-1.08,2.92,11.79,11.79,0,0,1,.47-3.08c.4-1.95,1-4.76,1.82-8.22l6.32-27.06,6.32-27.06c.82-3.46,1.5-6.26,2-8.18A11.63,11.63,0,0,1,139,457.7Z" stroke="#000" stroke-miterlimit="10" stroke-width="0.5"/>
      <path d="M229.86,459.82c0,.05-.23.26-.76.62a24.86,24.86,0,0,1-2.41,1.45,48.58,48.58,0,0,1-9.59,3.89A69.39,69.39,0,0,1,202,468.31a111.45,111.45,0,0,1-18.75-.6c-6.62-.71-12.85-1.72-18.51-2.6s-10.79-1.66-15-2a25,25,0,0,0-5.72.2,12.18,12.18,0,0,0-4,1.36,15.8,15.8,0,0,0-2.85,2.33s.11-.33.45-.89a7.83,7.83,0,0,1,2.06-2,12.13,12.13,0,0,1,4.2-1.71,24.39,24.39,0,0,1,5.94-.47c4.41.22,9.51.91,15.21,1.69s11.9,1.76,18.46,2.46a119.56,119.56,0,0,0,18.5.72,74.15,74.15,0,0,0,14.91-2.14C225.15,462.52,229.72,459.53,229.86,459.82Z" stroke="#000" stroke-miterlimit="10" stroke-width="0.5"/>
      <path d="M84.88,557.16c-.43-.15,1-5.38,3.23-11.69s4.35-11.29,4.77-11.14-1,5.38-3.23,11.68S85.3,557.31,84.88,557.16Z" stroke="#000" stroke-miterlimit="10" stroke-width="0.5"/>
      <path d="M98.87,569.24a13.06,13.06,0,0,1-3.6-.1,90.76,90.76,0,0,1-9.7-1.49c-4.07-.82-8.85-2-14.1-3.58-2.63-.77-5.37-1.61-8.2-2.5s-5.8-1.77-8.76-3a30.49,30.49,0,0,1-4.26-2.18c-.34-.2-.67-.42-1-.66l-.49-.37-.24-.21-.34-.32a7.77,7.77,0,0,1-1.1-1.48c-.35-.31.13-.4.34-.56a6.84,6.84,0,0,1,.81-.44l.86-.38.57-.18c.38-.11.76-.22,1.14-.29a14.76,14.76,0,0,1,2.27-.26,27.37,27.37,0,0,1,4.3.23l14.37,2c4.08.6,7.38,1.11,9.66,1.5a15.13,15.13,0,0,1,3.52.78,15.53,15.53,0,0,1-3.59-.15c-2.3-.19-5.63-.53-9.74-1s-9-1-14.39-1.68a24.94,24.94,0,0,0-4.06-.17,12.65,12.65,0,0,0-2,.25,8.32,8.32,0,0,0-1,.26l-.48.16-.14,0-.12.06s-.11,0-.06.09a1.68,1.68,0,0,0,.18.21l.27.22.41.32c.29.2.6.4.92.59a30.62,30.62,0,0,0,4,2.06c2.85,1.2,5.78,2.08,8.61,3l8.15,2.58c5.2,1.62,9.92,2.94,13.92,3.9C93.81,568.46,98.9,569,98.87,569.24Z" stroke="#000" stroke-miterlimit="10" stroke-width="0.5"/>
      <path d="M107.71,537.72c.43.19-2.4,7.3-5.64,16.16S96.39,570,96,569.87s1.32-7.63,4.59-16.55S107.32,537.53,107.71,537.72Z" stroke="#000" stroke-miterlimit="10" stroke-width="0.5"/>
    </g>
    <g id="Leg_left" data-name="Leg left">
      <path d="M207.26,517l19.87,6.38c-.69,2.54-1.7,6.38-2.83,11.07-2.18,9.08-3.28,15.11-4,20.41-1.13,8-1.86,13.19-.46,13.69,2.16.79,8-10.18,8.49-11.19a74.66,74.66,0,0,0,5.27-12.8c2.09-6.43,4.58-14.39,7.28-23.63-4.75-2.6-8.52-4.86-11.12-6.46-5-3.1-7.82-5.09-12.58-6.52a34.29,34.29,0,0,0-5.81-1.21Z"/>
      <path d="M195.3,426.8a214.47,214.47,0,0,0-30.75-7c-14-2.08-22.39-1.9-26.64-1.69-10.83.54-16.25,2.34-18.71,3.26-4.4,1.64-9.93,3.78-14.74,9.17-1.85,2.07-6.11,6.83-6.78,13.86-.15,1.57-.32,5.25,3.83,14.95a101.93,101.93,0,0,0,9.43,17.38c2.43,3.53,8.67,12.2,20.57,23.4a195.21,195.21,0,0,0,31.83,24.4,182.22,182.22,0,0,0,38.5,17.56A64.47,64.47,0,0,1,203.12,531a68.54,68.54,0,0,1,15.09-30.45q-9.41-5.28-19.14-11.28-5.06-3.12-9.89-6.25a74.77,74.77,0,0,0,31.54-.75c5.79-1.4,15.54-3.87,24.92-11.47,4.79-3.88,23.7-19.21,18.73-36.17-3.53-12-18-21-35.12-20.29Z" fill="#fff"/>
      <path d="M201.71,542.07a16.75,16.75,0,0,1-2.55-.7c-1.65-.54-4.12-1.22-7.18-2.43a166.68,166.68,0,0,1-25.3-11.75,183.35,183.35,0,0,1-16.22-10.42c-2.87-2-5.64-4.24-8.57-6.49s-5.78-4.79-8.61-7.48-5.69-5.48-8.56-8.38l-4.19-4.57c-1.4-1.54-2.72-3.19-4.1-4.8s-2.68-3.32-4-5l-2-2.58-1.9-2.67a96.64,96.64,0,0,1-7.2-11.28A39.1,39.1,0,0,1,97,450.73a23.59,23.59,0,0,1,1.79-13.05,29.26,29.26,0,0,1,7.69-10.1,36.11,36.11,0,0,1,10.47-6.15c7.39-2.88,14.92-3.69,21.84-4a115,115,0,0,1,19.29.91c5.86.73,11.1,1.74,15.67,2.73s8.48,2,11.66,2.83,5.64,1.54,7.3,2a16.67,16.67,0,0,1,2.51.83,14.87,14.87,0,0,1-2.6-.51l-7.36-1.74c-3.2-.75-7.12-1.65-11.69-2.55s-9.81-1.82-15.63-2.48a117.22,117.22,0,0,0-19.09-.7c-6.83.36-14.22,1.23-21.35,4.05a34.93,34.93,0,0,0-10,5.93,27.71,27.71,0,0,0-7.25,9.57,21.93,21.93,0,0,0-1.64,12.18,37.83,37.83,0,0,0,4.23,12.22,96.31,96.31,0,0,0,7.08,11.1l1.88,2.65c.65.86,1.31,1.71,2,2.56,1.31,1.7,2.57,3.4,4,5s2.65,3.24,4,4.77,2.77,3.05,4.14,4.54c2.83,2.9,5.58,5.76,8.45,8.35s5.72,5.08,8.49,7.48c2.9,2.25,5.63,4.54,8.46,6.51a189.32,189.32,0,0,0,16,10.51,182.65,182.65,0,0,0,25,12.16c3,1.29,5.45,2.07,7.06,2.71A15.41,15.41,0,0,1,201.71,542.07Z" stroke="#000" stroke-miterlimit="10" stroke-width="0.5"/>
      <path d="M218.18,500.56c-.09.18-3.47-1.3-8.71-4.14a195.13,195.13,0,0,1-19.74-12.35,198.14,198.14,0,0,1-18.15-14.59c-4.4-4-6.91-6.73-6.77-6.88s2.95,2.23,7.53,6,11,8.88,18.34,14.13S205,492.35,210,495.42,218.3,500.34,218.18,500.56Z" stroke="#000" stroke-miterlimit="10" stroke-width="0.5"/>
      <path d="M215.23,503c.42.26-4.45,8-8.32,18.55s-5.29,19.57-5.79,19.49c-.21,0-.13-2.33.48-6a79.14,79.14,0,0,1,10.07-27.16C213.61,504.72,215.05,502.92,215.23,503Z" stroke="#000" stroke-miterlimit="10" stroke-width="0.5"/>
      <path d="M227.12,523.36c-.1.43-4.75-.34-10.27-2.11s-9.75-3.85-9.58-4.26,4.62,1,10.08,2.7S227.23,522.91,227.12,523.36Z" stroke="#000" stroke-miterlimit="10" stroke-width="0.5"/>
      <path d="M239.57,527.12a14.31,14.31,0,0,1-.76,3.48c-.61,2.21-1.57,5.38-2.88,9.25s-3,8.46-5.05,13.47a76.59,76.59,0,0,1-3.57,7.77,25.41,25.41,0,0,1-5.78,7.34,4.78,4.78,0,0,1-.51.41,3.28,3.28,0,0,1-.31.2,4,4,0,0,1-.46.21,1.71,1.71,0,0,1-1.81-.28,2,2,0,0,1-.53-1.77l.12-1.15c.15-1.52.33-3,.51-4.47.37-2.92.79-5.74,1.23-8.41.89-5.35,1.91-10.12,2.86-14.1s1.86-7.17,2.55-9.35a13.74,13.74,0,0,1,1.24-3.34,16.24,16.24,0,0,1-.63,3.5c-.49,2.23-1.23,5.45-2,9.44s-1.7,8.76-2.49,14.09c-.4,2.66-.79,5.46-1.13,8.36-.16,1.46-.32,2.94-.49,4.44l-.11,1.12c0,.17,0,.21.06.3a.21.21,0,0,0,.25,0l.07,0,.18-.12a3.08,3.08,0,0,0,.39-.32,24.22,24.22,0,0,0,5.43-6.87,78.13,78.13,0,0,0,3.58-7.57c2.12-5,3.9-9.47,5.35-13.28s2.57-6.91,3.36-9.06A15.31,15.31,0,0,1,239.57,527.12Z" stroke="#000" stroke-miterlimit="10" stroke-width="0.5"/>
      <path d="M241.55,521.21c-.08.19-1.72-.21-4.16-1.37a82.67,82.67,0,0,1-9-5.3c-1.71-1.1-3.33-2.12-4.83-3s-2.88-1.61-4.07-2.16c-2.37-1.12-3.94-1.64-3.88-1.89s1.74-.07,4.31.82a33.06,33.06,0,0,1,4.36,1.91c1.58.84,3.27,1.84,5,2.94,3.43,2.23,6.44,4.3,8.69,5.67S241.64,521,241.55,521.21Z" stroke="#000" stroke-miterlimit="10" stroke-width="0.5"/>
      <path d="M241.63,473.11c.11.19-1.6,1.5-4.57,3.32a57,57,0,0,1-12.41,5.69A35.12,35.12,0,0,1,211,483.66c-3.52-.37-5.55-1.25-5.5-1.43s2.16.22,5.57.28a42,42,0,0,0,13.07-1.95,82.63,82.63,0,0,0,12.33-5.14C239.59,473.88,241.51,472.91,241.63,473.11Z" stroke="#000" stroke-miterlimit="10" stroke-width="0.5"/>
    </g>
    <g id="Arm_right" data-name="Arm right">
      <path d="M334.69,338.5a14,14,0,0,0-2.72-.26c-5.09.13-8.76,3.6-10.75,5.43-8.64,7.95-4.17,2-17.43,14.34-6.78,6.32-10.18,9.46-12.08,11.6a47.93,47.93,0,0,1-10.52,9.65,40.39,40.39,0,0,1-4.44,2.49q-8-9.51-16.33-19.18-9.33-10.76-18.57-21l-3.32,2.3a49.33,49.33,0,0,0-2.94-6.26c-2.27-4.06-3.42-4.77-6.79-9.72-3.72-5.45-5.59-8.17-6.36-9.63-1.18-2.23-2.47-5-5.12-5.69-.43-.11-1.5-.38-2,.11-1.19,1.26,2.28,6.57,6.16,11.74-1.61-1.61-6.75-6.49-11.23-6.41-.38,0-2.94.05-3.33,1.17-.24.67.47,1.34.11,1.95s-1.59.25-1.94.84,1.11,1.61,1.25,3.39c.12,1.61-1.05,2-.91,3.53a5.37,5.37,0,0,0,2.1,3.23c1,.95,1.4.86,3.89,2.43a13.15,13.15,0,0,1,2.93,2.18A9.91,9.91,0,0,1,216.1,340c1.3,3.26,1.07,4.33,2.31,6a12.29,12.29,0,0,0,2,1.93c2.67,2.25,3.78,2.35,5.07,3.73a8.6,8.6,0,0,1,2.14,4.58c-.22,2.33-.43,4.65-.65,7,1.93,3,4.38,6.62,7.35,10.74,3.57,5,6.45,8.58,12.07,15.6,9.38,11.7,11.58,13.92,14.72,16.3,3.32,2.51,5.33,4,8.55,5,4.2,1.32,9.13,1.36,20.44-2.54a130.11,130.11,0,0,0,20.55-9.11c12.62-6.94,21.84-12,30.71-22,6.9-7.73,11.48-12.86,10.84-20C351.35,347.28,340.79,339.72,334.69,338.5Z" fill="#fff"/>
      <path d="M276.72,383c-.16-.2,3-2.88,7.89-7.48S296,364.24,303.46,357.2,318.4,344.41,324.27,341c2.84-1.78,5.48-2.95,7.46-3.07s3,.47,2.92.53a16.51,16.51,0,0,0-2.84.1c-1.8.3-4.18,1.52-6.94,3.42a147.45,147.45,0,0,0-20.29,16.38c-7.46,7-14.07,13.55-19.2,17.93-2.54,2.21-4.68,3.91-6.2,5A10,10,0,0,1,276.72,383Z" stroke="#000" stroke-miterlimit="10" stroke-width="0.5"/>
      <path d="M241.87,341.59c.16-.15,2.31,1.92,5.63,5.42s7.79,8.41,12.6,14,9.07,10.66,12.06,14.43,4.74,6.19,4.57,6.33-2.23-2-5.45-5.58-7.6-8.58-12.41-14.12-9.14-10.57-12.23-14.26S241.7,341.75,241.87,341.59Z" stroke="#000" stroke-miterlimit="10" stroke-width="0.5"/>
      <path d="M227.12,359c-.19,0-.47-1.3.13-3.3a17.17,17.17,0,0,1,4.24-6.65c1-1.11,2.1-2.08,3.08-3a19.91,19.91,0,0,1,2.81-2.15c1.76-1.08,3.08-1.21,3.13-1s-1,.73-2.46,1.95c-.73.61-1.55,1.39-2.45,2.3s-1.92,1.92-2.92,3a22.73,22.73,0,0,0-4.35,5.94C227.52,357.79,227.37,359,227.12,359Z" stroke="#000" stroke-miterlimit="10" stroke-width="0.5"/>
      <path d="M338.74,380.87s-.27.43-1,1.09a30.4,30.4,0,0,1-3.19,2.65c-2.92,2.12-7.2,5-12.57,8.54a167.48,167.48,0,0,1-19.61,11.19A95.07,95.07,0,0,1,290,409.25a70.49,70.49,0,0,1-6.87,1.8,47.5,47.5,0,0,1-7.27,1.08,22.53,22.53,0,0,1-7.45-.72,15.56,15.56,0,0,1-3.43-1.47,18.87,18.87,0,0,1-2.92-2.16c-1.77-1.6-3.27-3.28-4.81-4.89s-3-3.23-4.4-4.82c-5.65-6.34-10.43-12.33-14.26-17.48s-6.73-9.47-8.66-12.49c-1-1.51-1.7-2.7-2.17-3.52a4.74,4.74,0,0,1-.65-1.29,41.15,41.15,0,0,1,3.34,4.46c2.1,2.9,5.12,7.1,9.06,12.14s8.78,10.92,14.45,17.18c1.43,1.56,2.9,3.15,4.42,4.75s3.07,3.28,4.74,4.76a14.28,14.28,0,0,0,5.75,3.27,20.76,20.76,0,0,0,6.9.65,46,46,0,0,0,7-1c2.3-.47,4.55-1.06,6.73-1.73A98.15,98.15,0,0,0,301.77,403a184.67,184.67,0,0,0,19.63-10.8c5.43-3.38,9.83-6.16,12.83-8.09S338.66,380.78,338.74,380.87Z" stroke="#000" stroke-miterlimit="10" stroke-width="0.5"/>
      <path d="M230.29,342.37c0,.08-.62-.08-1.15-.93a13,13,0,0,1-1.09-3.72,4.13,4.13,0,0,0-1-2,23.63,23.63,0,0,0-2.36-1.69,4.15,4.15,0,0,1-1.26-1.49,3.51,3.51,0,0,1-.34-2.14,2.32,2.32,0,0,1,.61-1.18,2.19,2.19,0,0,1,1.21-.61,4.63,4.63,0,0,1,2.16.27,10,10,0,0,1,3.32,1.93,25,25,0,0,1,2.42,2.41,31.33,31.33,0,0,1,3.55,4.49,10.86,10.86,0,0,1,1.5,3.61c.17.92.11,1.44,0,1.45-.25,0-.57-1.94-2.46-4.41a43,43,0,0,0-3.69-4.11c-1.46-1.47-3.08-3.14-5.15-3.82a3.51,3.51,0,0,0-1.39-.22.57.57,0,0,0-.52.51,1.93,1.93,0,0,0,.17,1.15,2.54,2.54,0,0,0,.8,1A19.63,19.63,0,0,1,228,334.8a5.12,5.12,0,0,1,1.14,2.69,21.56,21.56,0,0,0,.53,3.67C230,341.94,230.38,342.26,230.29,342.37Z" stroke="#000" stroke-miterlimit="10" stroke-width="0.5"/>
      <path d="M222.51,327.2c-.12,0-.36-.59-.87-1.64a32.83,32.83,0,0,0-2.56-4.25,55,55,0,0,1-4.09-6.38,5.86,5.86,0,0,1-.46-1.13,2.29,2.29,0,0,1-.07-.86,1.77,1.77,0,0,1,.35-.85,1.82,1.82,0,0,1,1.69-.66,3.46,3.46,0,0,1,1.39.46,4.38,4.38,0,0,1,.59.4l.46.4c.31.28.6.57.89.87a22.56,22.56,0,0,1,1.62,1.9c3.83,5.36,6.89,10.36,9.06,14.06s3.31,6.07,3.12,6.18c-.41.26-6-8.71-13.48-19.25a21.91,21.91,0,0,0-1.49-1.78c-.26-.27-.52-.53-.8-.78l-.41-.36a2.31,2.31,0,0,0-.36-.25,1.93,1.93,0,0,0-.75-.28.27.27,0,0,0-.29.08.38.38,0,0,0-.06.13.74.74,0,0,0,0,.23,4.34,4.34,0,0,0,.34.84c1.15,2.47,2.62,4.55,3.7,6.41a21.6,21.6,0,0,1,2.18,4.63C222.58,326.5,222.61,327.18,222.51,327.2Z" stroke="#000" stroke-miterlimit="10" stroke-width="0.5"/>
      <path d="M219.24,330.82c-.18.15-1.49-1.26-3.74-3.37a27.18,27.18,0,0,0-4.09-3.35,7.66,7.66,0,0,0-1.3-.6l-1.56-.52a5.13,5.13,0,0,1-1.76-1,2.58,2.58,0,0,1-.89-2.27,3,3,0,0,1,1.25-2,3.51,3.51,0,0,1,2.06-.68,6.74,6.74,0,0,1,3.41,1.14,40.81,40.81,0,0,1,4.56,3.15c2.46,2,3.68,3.54,3.53,3.69s-1.65-1.06-4.21-2.76c-1.28-.84-2.85-1.81-4.62-2.78a5.45,5.45,0,0,0-2.65-.84,1.78,1.78,0,0,0-1.72,1.28,1,1,0,0,0,.37.86,3.88,3.88,0,0,0,1.22.66l1.55.56a8.23,8.23,0,0,1,1.54.78,22.45,22.45,0,0,1,4.14,3.82C218.41,329,219.41,330.69,219.24,330.82Z" stroke="#000" stroke-miterlimit="10" stroke-width="0.5"/>
      <path d="M214.6,332.71c-.22.11-.82-.76-2.13-1.77-.65-.52-1.48-1.08-2.43-1.7A33.12,33.12,0,0,1,207,327a11.21,11.21,0,0,1-2.13-2.34,4.54,4.54,0,0,1-.37-.73c0-.13-.09-.24-.14-.4a3.41,3.41,0,0,1-.1-.54,2.3,2.3,0,0,1,.53-1.72,12.15,12.15,0,0,1,1.4.08,5.4,5.4,0,0,1,.85.19,6.33,6.33,0,0,1,1.27.5c.66.37,1,.69.88.81s-.47,0-1.14-.09c-.34-.06-.74-.12-1.21-.16-.22,0-.49,0-.71,0l-.34,0c-.14.26-.1.42.38,1.19a11.79,11.79,0,0,0,1.88,2c1.95,1.59,4.06,2.92,5.26,4.31S214.79,332.63,214.6,332.71Z" stroke="#000" stroke-miterlimit="10" stroke-width="0.5"/>
      <path d="M227,354.67c-.05,0-.15-.1-.26-.32l-.21-.4-.31-.52a9.8,9.8,0,0,0-2.79-2.63,38.55,38.55,0,0,1-4.94-3.57,8.62,8.62,0,0,1-2.1-3.21c-.46-1.24-.7-2.52-1-3.71a7.27,7.27,0,0,0-1.54-3,11.88,11.88,0,0,0-2.61-2c-1.89-1.11-3.83-2.17-5-3.65a5.18,5.18,0,0,1-1.19-4.12c.21-1,.69-1.43.76-1.37s-.14.55-.13,1.43a4.94,4.94,0,0,0,1.43,3.3c1.07,1.17,2.82,2,4.85,3.11a12.35,12.35,0,0,1,3,2.22,8.55,8.55,0,0,1,1.93,3.65c.38,1.31.6,2.55,1,3.62a7.17,7.17,0,0,0,1.67,2.7,55.78,55.78,0,0,0,4.57,3.71,13,13,0,0,1,1.71,1.68,6.86,6.86,0,0,1,.94,1.58l.21.63a3.58,3.58,0,0,1,.06.49C227.07,354.52,227.06,354.66,227,354.67Z" stroke="#000" stroke-miterlimit="10" stroke-width="0.5"/>
    </g>
    <g id="Torso">
      <path d="M264.63,338.28c-3.33,5.55-6.65,11.48-9.87,17.8a294,294,0,0,0-17.71,42.78q-9.5,5.19-19.33,11-12.32,7.27-23.53,14.55A51.74,51.74,0,0,0,197,440.83a53.57,53.57,0,0,0,9.27,16.36,63.63,63.63,0,0,0,16.86,14.68,66.57,66.57,0,0,0,22.64,8.4,79.89,79.89,0,0,0,26.63.48c6-.89,14.6-2.25,24.08-7.78a57.15,57.15,0,0,0,9-6.54q1.35-12.72,2.71-25.45c3.45-3.29,8-7.79,13.12-13.34a196.88,196.88,0,0,0,13.21-15.41A131.06,131.06,0,0,0,345.53,396a106.29,106.29,0,0,0,8.9-19.9,100.93,100.93,0,0,0,4.66-23.77,147.22,147.22,0,0,0-94.46-14Z" fill="#fff"/>
      <path d="M359.05,352.29c-.14.26-5-2.25-13.24-5.4l-3.24-1.21c-1.13-.42-2.33-.78-3.55-1.2-2.44-.86-5.11-1.58-7.91-2.4a154.53,154.53,0,0,0-37.36-5.47c-2.91,0-5.68-.09-8.27,0-1.29,0-2.54.05-3.74.12l-3.45.24c-8.79.66-14.18,1.66-14.23,1.37a17.78,17.78,0,0,1,3.74-.95l2-.42c.74-.13,1.55-.24,2.43-.38,1.74-.25,3.72-.59,5.94-.77l3.47-.34c1.2-.11,2.47-.15,3.77-.22,2.61-.19,5.4-.17,8.34-.19a151.79,151.79,0,0,1,19.06,1.48,154.06,154.06,0,0,1,18.69,4c2.81.87,5.49,1.65,7.94,2.57,1.22.45,2.42.85,3.55,1.3l3.23,1.32c2.06.81,3.87,1.7,5.46,2.45.8.37,1.55.72,2.22,1.06l1.82,1A17.87,17.87,0,0,1,359.05,352.29Z" stroke="#000" stroke-miterlimit="10" stroke-width="0.5"/>
      <path d="M308.29,440.94a18.93,18.93,0,0,1,2.55-3l7.25-7.73a221.25,221.25,0,0,0,22-27,128.25,128.25,0,0,0,9.43-16.64,102.66,102.66,0,0,0,5.54-14.6c2.49-8.56,2.88-14.13,3.18-14.09a15.74,15.74,0,0,1-.14,3.91,71.88,71.88,0,0,1-1.93,10.48,90.72,90.72,0,0,1-5.29,14.92,117.14,117.14,0,0,1-9.44,16.92,186.14,186.14,0,0,1-22.51,26.92c-3.16,3.19-5.79,5.69-7.64,7.38A17.41,17.41,0,0,1,308.29,440.94Z" stroke="#000" stroke-miterlimit="10" stroke-width="0.5"/>
      <path d="M237.06,398.83c-.2-.06.55-3.32,2.17-8.46a194.78,194.78,0,0,1,17.12-38.43c2.74-4.65,4.66-7.38,4.84-7.27s-1.36,3.06-3.83,7.82-5.79,11.39-9.12,18.86-6,14.37-7.92,19.4S237.29,398.9,237.06,398.83Z" stroke="#000" stroke-miterlimit="10" stroke-width="0.5"/>
      <path d="M194.89,424.57c-.13-.1,1.67-2.53,5.46-5.53l1.5-1.15c.53-.39,1.11-.76,1.69-1.16,1.16-.82,2.47-1.57,3.83-2.4,2.75-1.57,5.85-3.17,9.12-4.78s6.35-3.13,9.11-4.6c1.37-.77,2.68-1.46,3.86-2.2.59-.36,1.17-.69,1.72-1l1.53-1c3.91-2.64,6-4.71,6.22-4.51s-1.72,2.49-5.54,5.45l-1.51,1.13c-.54.39-1.12.75-1.7,1.15-1.17.8-2.48,1.55-3.85,2.36-2.76,1.56-5.86,3.15-9.12,4.75s-6.35,3.15-9.1,4.63c-1.36.78-2.67,1.48-3.84,2.23-.59.36-1.17.7-1.71,1.05L201,420C197.16,422.66,195.09,424.77,194.89,424.57Z" stroke="#000" stroke-miterlimit="10" stroke-width="0.5"/>
      <path d="M305.48,466.48s-.29.42-1,1.09a36.4,36.4,0,0,1-3.19,2.71,52.84,52.84,0,0,1-13.52,7.28,79.59,79.59,0,0,1-22.3,4.64,77.81,77.81,0,0,1-27.71-3.06,64.91,64.91,0,0,1-24.41-13.46,61.17,61.17,0,0,1-14-18,53.12,53.12,0,0,1-4.89-14.55c-.14-.9-.28-1.69-.37-2.39L194,429a4.83,4.83,0,0,1,0-1.46,5.31,5.31,0,0,1,.33,1.42c.08.47.18,1.05.29,1.73s.32,1.45.52,2.33a57.6,57.6,0,0,0,5.29,14.15,61.83,61.83,0,0,0,13.92,17.41,64.74,64.74,0,0,0,23.89,13,78.15,78.15,0,0,0,27.15,3.12,81.38,81.38,0,0,0,22-4.23A57.07,57.07,0,0,0,301,469.76C303.91,467.73,305.39,466.38,305.48,466.48Z" stroke="#000" stroke-miterlimit="10" stroke-width="0.5"/>
      <path d="M303.79,445.06c-.07.18-2-.31-4.73-1.72a36.46,36.46,0,0,1-4.68-2.87,39.43,39.43,0,0,1-9.38-9.56,35.15,35.15,0,0,1-2.78-4.72c-1.35-2.81-1.81-4.7-1.63-4.77s1.07,1.62,2.65,4.21a49.83,49.83,0,0,0,12.05,13.64c1.58,1.23,3,2.26,4.34,3.07C302.19,444,303.89,444.83,303.79,445.06Z" stroke="#000" stroke-miterlimit="10" stroke-width="0.5"/>
      <path d="M305.19,465.41c-.45-.11.35-5,1.08-11.13s1.16-11.06,1.62-11,.76,5.06,0,11.25S305.62,465.52,305.19,465.41Z" stroke="#000" stroke-miterlimit="10" stroke-width="0.5"/>
    </g>
    <g id="Arm_left" data-name="Arm left">
      <path d="M264,338.39,212.2,385.68l-22.56-23.06c6.22-2.82,11.53-5.24,16.35-7.35a36.23,36.23,0,0,0,9.95-6,33.4,33.4,0,0,0,2.71-2.65,106.13,106.13,0,0,0-25.9-37,53.68,53.68,0,0,0-7.05.26,57.17,57.17,0,0,0-25.7,9.48,6.26,6.26,0,0,0-2.06,3.28,6.72,6.72,0,0,0,1.42,5.63c-.16,1-.42,2.61-.8,4.53-.74,3.65-1,4-1,5.38,0,2.57.81,2.81,1.14,6,.29,2.87-.32,3.32-.14,5.6.13,1.7.64,3.49,3,7.47a78.69,78.69,0,0,0,6.53,9.38c1.87,2.42,4.5,5.89,7.6,10.25q-.68,3.72-1.33,7.44a75.76,75.76,0,0,0,4.81,8.24A88.46,88.46,0,0,0,189,404.51c6.07,6.53,4.61,4,17.56,16.26,2.47,2.34,4.12,3.94,6.93,4.62,4.64,1.13,8.93-1.11,11.94-2.86A103.14,103.14,0,0,0,246.8,405.7c4.78-5.05,8.72-9.59,21.49-25.71,13.56-17.1,15.34-19.83,14.88-23.85C282.11,346.9,270.37,341,264,338.39Z" fill="#fff"/>
      <path d="M209.73,388c-.15-.16,2.78-3.19,7.67-7.92s11.77-11.15,19.49-18.1,14.83-13.11,20.05-17.48,8.54-7,8.68-6.8-2.9,3.08-7.92,7.67L238,363.18l-19.8,17.74C213.09,385.43,209.88,388.16,209.73,388Z" stroke="#000" stroke-miterlimit="10" stroke-width="0.5"/>
      <path d="M213.2,385.21c-.1.17-1.86-.61-4.44-2.34a61.53,61.53,0,0,1-9.24-7.78,105.08,105.08,0,0,1-7.94-9.06c-1.89-2.43-3-4-2.78-4.15s1.55,1.17,3.65,3.4,5,5.35,8.22,8.66a114.92,114.92,0,0,0,8.77,8C211.8,383.87,213.33,385,213.2,385.21Z" stroke="#000" stroke-miterlimit="10" stroke-width="0.5"/>
      <path d="M174.29,384.3c-.19,0-.68-1.49-.35-4a19.45,19.45,0,0,1,3.95-8.83,42.39,42.39,0,0,1,3.43-4c1.11-1.16,2.11-2.2,3.07-3A7.93,7.93,0,0,1,187,362.9c.69-.22,1.09-.2,1.12-.1s-1.33.73-2.9,2.47c-.79.85-1.7,2-2.75,3.18s-2.16,2.53-3.23,4a23.47,23.47,0,0,0-4.13,8.09C174.48,382.78,174.54,384.28,174.29,384.3Z" stroke="#000" stroke-miterlimit="10" stroke-width="0.5"/>
      <path d="M270.91,377.09a40,40,0,0,1-3.31,4.18c-2.17,2.65-5.23,6.54-9,11.37a195.22,195.22,0,0,1-14,16.44c-5.71,5.77-12.76,11.68-21.55,15.42a21.65,21.65,0,0,1-6.89,2,8.94,8.94,0,0,1-3.66-.55,13.84,13.84,0,0,1-3.09-1.73c-1.84-1.38-3.39-2.85-5-4.23l-4.67-4.14a154.89,154.89,0,0,1-15.19-15.35,77.42,77.42,0,0,1-8.38-11.93l-1.09-2-.7-1.52a4.38,4.38,0,0,1-.5-1.29s.32.37.79,1.14l.84,1.44,1.21,1.92a90.66,90.66,0,0,0,8.7,11.5,171.31,171.31,0,0,0,15.32,15l4.69,4.08c1.62,1.36,3.23,2.86,4.93,4.11a8.53,8.53,0,0,0,5.72,2A20.31,20.31,0,0,0,222.4,423c8.5-3.62,15.43-9.34,21.13-15s10.26-11.39,14.17-16.1,7.1-8.54,9.42-11.06c1.16-1.27,2.09-2.23,2.74-2.86A5,5,0,0,1,270.91,377.09Z" stroke="#000" stroke-miterlimit="10" stroke-width="0.5"/>
      <path d="M181.29,352.1c-.18-.13.52-1.51,2-3.51.37-.5.79-1,1.26-1.6a12.33,12.33,0,0,1,1.69-1.79,2.4,2.4,0,0,1,1.69-.52,2.25,2.25,0,0,1,1.63,1,5.33,5.33,0,0,1,.75,3.09,39.93,39.93,0,0,1-1.23,9.65c-.63,2.42-1.27,3.82-1.48,3.76-.46-.12,1-6,1.08-13.42a4.14,4.14,0,0,0-.44-2.18c-.17-.24-.3-.34-.48-.36a.84.84,0,0,0-.65.2,15,15,0,0,0-1.56,1.47l-1.38,1.43C182.5,351.1,181.48,352.23,181.29,352.1Z" stroke="#000" stroke-miterlimit="10" stroke-width="0.5"/>
      <path d="M167.42,344.7c-.17.09-1.67-2.23-3.85-6.27-1.09-2-2.35-4.47-3.67-7.27-.65-1.4-1.38-2.86-2-4.53a14,14,0,0,1-.68-2.66,9.81,9.81,0,0,1-.1-1.45,3,3,0,0,1,.11-.89,1.85,1.85,0,0,1,.62-1,1.71,1.71,0,0,1,1.21-.38,2.47,2.47,0,0,1,1.14.46,4.56,4.56,0,0,1,1.24,1.4c.53.89,1.07,1.79,1.61,2.71,4.51,7.52,8.86,14.16,12.06,19s5.2,7.74,5,7.88-2.5-2.58-6-7.22-8-11.21-12.51-18.78L160.07,323a3.07,3.07,0,0,0-.78-.91c-.17-.12-.17-.11-.25-.13a.22.22,0,0,0-.17,0,.23.23,0,0,0-.09.14,2,2,0,0,0-.05.44,10,10,0,0,0,.07,1.22,12.89,12.89,0,0,0,.57,2.38c.51,1.55,1.19,3,1.8,4.44,1.23,2.82,2.37,5.31,3.33,7.38C166.42,342.11,167.6,344.6,167.42,344.7Z" stroke="#000" stroke-miterlimit="10" stroke-width="0.5"/>
      <path d="M166,351.14c-.19.1-1.08-1.07-2.32-3.1a50,50,0,0,1-4.11-8.38,35.26,35.26,0,0,1-1.43-5,23.93,23.93,0,0,1-.43-4.23c0-2.43.41-3.89.6-3.86s.25,1.49.55,3.78a35.12,35.12,0,0,0,.75,4c.38,1.48.88,3.09,1.49,4.75,1.24,3.32,2.64,6.25,3.6,8.4S166.21,351,166,351.14Z" stroke="#000" stroke-miterlimit="10" stroke-width="0.5"/>
      <path d="M163.76,354.93c-.17.13-1-.64-2-2.12a26.71,26.71,0,0,1-4.58-13.2c-.1-1.81.07-2.92.29-2.93.47,0,.9,4.31,2.66,9.3S164.15,354.65,163.76,354.93Z" stroke="#000" stroke-miterlimit="10" stroke-width="0.5"/>
      <path d="M174.56,375.52c-.22.1-1.16-1.56-3.14-3.9-1-1.18-2.21-2.53-3.59-4.06a51.25,51.25,0,0,1-4.26-5.24,36.83,36.83,0,0,1-5.21-11.14c-.81-3.05-.89-5-.68-5.05s.72,1.82,1.78,4.7a48.32,48.32,0,0,0,5.45,10.56c1.32,1.91,2.75,3.61,4.06,5.19s2.49,3,3.37,4.34C174.15,373.53,174.75,375.44,174.56,375.52Z" stroke="#000" stroke-miterlimit="10" stroke-width="0.5"/>
      <path d="M190.85,309c0,.23-1.69.71-4.5,1.35s-6.7,1.46-10.92,2.57a82.45,82.45,0,0,0-10.55,3.57c-2.62,1.11-4.21,1.93-4.35,1.72s1.29-1.35,3.85-2.76a48.44,48.44,0,0,1,10.63-4.1,85.37,85.37,0,0,1,11.14-2.13C189,308.83,190.82,308.75,190.85,309Z" stroke="#000" stroke-miterlimit="10" stroke-width="0.5"/>
      <path d="M216.78,340.12c-.15.14-1.82-1.3-4.14-4a135.37,135.37,0,0,1-8.28-11c-3.06-4.4-5.89-8.31-8.09-11s-3.67-4.32-3.5-4.5,1.91,1.17,4.36,3.74a91.65,91.65,0,0,1,8.56,10.85c3.07,4.41,5.78,8.42,7.85,11.23S217,340,216.78,340.12Z" stroke="#000" stroke-miterlimit="10" stroke-width="0.5"/>
      <path d="M218.64,346.63c.14.12-.78,1.61-2.86,3.5a29.33,29.33,0,0,1-3.92,2.95,48.89,48.89,0,0,1-5.28,2.81c-3.84,1.76-7.41,3-10,4s-4.16,1.51-4.27,1.3,1.34-1.14,3.82-2.36,6-2.68,9.74-4.4c1.88-.88,3.63-1.76,5.18-2.63a42.94,42.94,0,0,0,4-2.56C217.23,347.65,218.44,346.46,218.64,346.63Z" stroke="#000" stroke-miterlimit="10" stroke-width="0.5"/>
      <path d="M201.13,352.82c.08-.1.31,0,.63-.05a2.48,2.48,0,0,0,1.25-.67,5.51,5.51,0,0,0,1.35-1.79,1.6,1.6,0,0,0,.17-1,.67.67,0,0,0-.52-.48,2.25,2.25,0,0,0-1.15.11,4.34,4.34,0,0,0-1.1.6,1.69,1.69,0,0,0-.81,1.51,1.39,1.39,0,0,0,.79.91c.29.12.54,0,.6.14s-.06.4-.62.49a1.88,1.88,0,0,1-1.84-1.12,2.71,2.71,0,0,1,.9-3.06,4.74,4.74,0,0,1,1.53-1,3.46,3.46,0,0,1,2.08-.21,2.28,2.28,0,0,1,1.7,1.72,3,3,0,0,1-.38,2,5.42,5.42,0,0,1-2.05,2.07,2.49,2.49,0,0,1-2,.35C201.15,353.2,201.06,352.88,201.13,352.82Z" stroke="#000" stroke-miterlimit="10" stroke-width="0.5"/>
    </g>
    <g id="Head">
      <path d="M292.42,275.27a25.37,25.37,0,0,1-3.92-9.88,23.1,23.1,0,0,1,9.71-22.54c4.5-3.11,8.73-3.61,14.43-4.27a60,60,0,0,1,21.14,1.4A50.37,50.37,0,0,1,352,247.86a40.73,40.73,0,0,1,11.35,11.61,42.12,42.12,0,0,1,5,11.59c1.39,5.22,1.41,9.16,1.41,15.5,0,9.73-.92,21.21-.92,21.21-.26,3.31-.54,6.11.63,9.61,1,2.94,2.56,5,5.4,8.15,4.41,4.83,7.67,7.54,14.62,13.66,6.67,5.88,8.28,7.45,10.22,9.87a39.58,39.58,0,0,1,5.58,8.53c3.18,6.92,3,13.25,2.79,17.73-.25,5.93-.56,13.18-5,20.31-7.53,12-21.3,14.78-25.05,15.53-13.33,2.66-23.94-1.92-28.13-3.8-12.45-5.58-19.13-14.74-23.31-20.47-4.43-6.08-6.82-11.48-11.58-22.27a188.13,188.13,0,0,1-7.81-21,89.75,89.75,0,0,1-3.4-13.35c-1.5-9.55.3-11.54-.25-19.9C302.8,299.45,298.59,285.26,292.42,275.27Z"/>
      <path d="M297.06,261.41a71.48,71.48,0,0,1-3,12,36.65,36.65,0,0,1-3.89,8.74,27.13,27.13,0,0,1-11.31,9.53l6.86,5.21c.65,4.21.95,7.68,1.1,10.12.49,7.68-.06,11.48,2.75,14.49a9.8,9.8,0,0,0,3.63,2.38,12.71,12.71,0,0,0,9.88-.6,41.78,41.78,0,0,1,.23-9,41,41,0,0,1,3.27-11.37,8.29,8.29,0,0,0,4.91.89,8.47,8.47,0,0,0,4.33-2,9,9,0,0,0,2.95-8,7.38,7.38,0,0,0-2.13-4.55c-2.87-2.7-7-1.63-7.35-1.54a25.82,25.82,0,0,1-4.76-4C297,275.77,296.91,265.1,297.06,261.41Z" fill="#fff"/>
      <path d="M278.84,291.66c-.1-.23,1.14-.93,3-2.24a34.16,34.16,0,0,0,3.06-2.48,34.87,34.87,0,0,0,3.29-3.49,35.63,35.63,0,0,0,2.72-4,36.22,36.22,0,0,0,1.77-3.52c.89-2.07,1.31-3.44,1.56-3.39s.17,1.51-.48,3.78a21.35,21.35,0,0,1-1.53,3.84,26,26,0,0,1-2.77,4.27,26.6,26.6,0,0,1-3.58,3.61,22.19,22.19,0,0,1-3.43,2.31C280.35,291.51,278.92,291.85,278.84,291.66Z" stroke="#000" stroke-miterlimit="10" stroke-width="0.5"/>
      <path d="M285.76,296.21c0,.21-.47.38-1.18.32a5.29,5.29,0,0,1-2.55-1,5.36,5.36,0,0,1-1.76-2.08c-.28-.66-.27-1.13-.08-1.22.42-.19,1.35,1,2.79,2S285.8,295.75,285.76,296.21Z" stroke="#000" stroke-miterlimit="10" stroke-width="0.5"/>
      <path d="M303.88,323.05c.06.17-2.05,1.19-5.77,1.58a22.9,22.9,0,0,1-3.05.1,10.9,10.9,0,0,1-3.61-.56,5.68,5.68,0,0,1-3-3,15.79,15.79,0,0,1-1.09-4.12c-1.73-11-2.11-20.09-1.68-20.12s1.57,8.9,3.29,19.87a14.92,14.92,0,0,0,.94,3.71,4.17,4.17,0,0,0,2.11,2.3,10,10,0,0,0,3.1.6,27,27,0,0,0,2.91.1C301.61,323.4,303.81,322.8,303.88,323.05Z" stroke="#000" stroke-miterlimit="10" stroke-width="0.5"/>
      <path d="M306.45,301.57c.09-.08.45.24,1.14.66a6.72,6.72,0,0,0,3.18,1,5.6,5.6,0,0,0,4.31-1.72,11,11,0,0,0,2.7-5.35,7.43,7.43,0,0,0,0-3,7,7,0,0,0-1.14-2.57,6.8,6.8,0,0,0-3.92-2.71,8.44,8.44,0,0,0-3.37-.14c-.81.13-1.27.27-1.32.16s.32-.43,1.15-.77a7.26,7.26,0,0,1,3.78-.38,7.74,7.74,0,0,1,4.89,2.94,8.37,8.37,0,0,1,1.49,3.12,8.75,8.75,0,0,1,0,3.71,11.68,11.68,0,0,1-3.26,6.11,7,7,0,0,1-2.73,1.59,6.44,6.44,0,0,1-2.72.2,6.28,6.28,0,0,1-3.46-1.6C306.56,302.1,306.37,301.63,306.45,301.57Z" stroke="#000" stroke-miterlimit="10" stroke-width="0.5"/>
      <path d="M293.37,284.92c-.43-.12-.1-2.66.74-5.67s1.87-5.36,2.3-5.24.11,2.66-.73,5.68S293.8,285,293.37,284.92Z" stroke="#000" stroke-miterlimit="10" stroke-width="0.5"/>
      <path d="M293.38,301.6c.26.34-1,1.68-3.09,2.24s-3.86,0-3.79-.42,1.59-.68,3.37-1.16S293.11,301.22,293.38,301.6Z" stroke="#000" stroke-miterlimit="10" stroke-width="0.5"/>
      <path d="M309.69,288.07c0,.09-.52.1-1.35-.17a9.36,9.36,0,0,1-3.19-1.87,17.14,17.14,0,0,1-3.42-4.26,36.48,36.48,0,0,1-2.72-6,38,38,0,0,1-2.42-11.66c-.08-3.06.33-4.92.53-4.91s.25,1.88.62,4.82a51.9,51.9,0,0,0,2.8,11.19A46.23,46.23,0,0,0,303,281a19.08,19.08,0,0,0,2.9,4.16C307.93,287.29,309.78,287.81,309.69,288.07Z" stroke="#000" stroke-miterlimit="10" stroke-width="0.5"/>
      <path d="M370.18,326.45a7.33,7.33,0,0,1-.46-1.74c-.23-1.15-.53-2.86-.79-5.08a119.63,119.63,0,0,1-.46-18.88c.17-4,.46-8.33.57-13a69.43,69.43,0,0,0-1-14.71,36.85,36.85,0,0,0-6.38-14.71,43.46,43.46,0,0,0-12.81-11.59,52.48,52.48,0,0,0-16.21-6.21,70.57,70.57,0,0,0-16.22-1.43A40.78,40.78,0,0,0,302,241.69a19.74,19.74,0,0,0-9.67,7.77,24.45,24.45,0,0,0-3.44,9.84,24.1,24.1,0,0,0,.26,7.93,21.14,21.14,0,0,0,1.58,4.8,12.24,12.24,0,0,1,.76,1.61,5.21,5.21,0,0,1-1.05-1.46,18.22,18.22,0,0,1-1.91-4.8,23.72,23.72,0,0,1-.54-8.18,24.83,24.83,0,0,1,3.36-10.35,20.86,20.86,0,0,1,10.13-8.41,41.82,41.82,0,0,1,14.84-2.82A71,71,0,0,1,332.92,239a53.78,53.78,0,0,1,16.73,6.38,44.85,44.85,0,0,1,13.27,12.05,38.18,38.18,0,0,1,6.55,15.36,69.34,69.34,0,0,1,.92,15c-.17,4.69-.53,9-.76,13a137.28,137.28,0,0,0-.06,18.76c.16,2.22.35,3.93.48,5.09A7.76,7.76,0,0,1,370.18,326.45Z" stroke="#000" stroke-miterlimit="10" stroke-width="0.5"/>
      <path d="M329.4,379.55a13.08,13.08,0,0,1-2.42-2.28c-1.47-1.56-3.51-3.89-5.87-6.9a96.85,96.85,0,0,1-14.57-26.09,73.35,73.35,0,0,1-3.82-16.08c-.1-1.27-.21-2.51-.3-3.71s-.06-2.38-.09-3.51a42.93,42.93,0,0,1,.33-6.29,32.76,32.76,0,0,1,2.23-8.84,8.86,8.86,0,0,1,1.64-2.91c.26.1-2.14,4.32-2.73,11.87a49.12,49.12,0,0,0-.12,6.15c.06,1.11.06,2.26.17,3.43s.24,2.38.36,3.62a78.17,78.17,0,0,0,3.86,15.72,108.31,108.31,0,0,0,14,25.95C326.48,375.83,329.6,379.37,329.4,379.55Z" stroke="#000" stroke-miterlimit="10" stroke-width="0.5"/>
      <path d="M368.63,315.49a12.56,12.56,0,0,1,1.12,2l.56,1.12.83,1.28.95,1.49c.33.54.78,1,1.21,1.61a57.09,57.09,0,0,0,7.06,7.59c3,2.77,6.57,5.68,10.48,9a68.71,68.71,0,0,1,11.75,12.12l1.33,1.91,1.15,2.07.58,1c.18.35.31.74.47,1.11.31.75.61,1.51.92,2.27a34.21,34.21,0,0,1,1.79,9.92,77.59,77.59,0,0,1-.36,10.51,40.08,40.08,0,0,1-2.31,10.8,19.82,19.82,0,0,1-1.22,2.6,22.39,22.39,0,0,1-1.5,2.48,26.68,26.68,0,0,1-3.86,4.37,30.73,30.73,0,0,1-4.7,3.56,38.73,38.73,0,0,1-5.25,2.79,61.18,61.18,0,0,1-22.51,4.89,42.46,42.46,0,0,1-20.69-5.62,59.07,59.07,0,0,1-15-12.28,79.1,79.1,0,0,1-9.63-13.87A152.24,152.24,0,0,1,312,358c-1-2.71-1.68-4.82-2.14-6.25a11,11,0,0,1-.63-2.23,13.17,13.17,0,0,1,.94,2.11c.55,1.41,1.37,3.48,2.42,6.14a172.29,172.29,0,0,0,10.15,22,79.08,79.08,0,0,0,9.63,13.53,58.2,58.2,0,0,0,14.75,11.87,41.18,41.18,0,0,0,19.95,5.33A60.21,60.21,0,0,0,389,405.69a37.84,37.84,0,0,0,5-2.67,29.29,29.29,0,0,0,4.47-3.38,25.22,25.22,0,0,0,3.64-4.11,21.94,21.94,0,0,0,1.41-2.31,19.83,19.83,0,0,0,1.15-2.42,39.17,39.17,0,0,0,2.24-10.37,78.28,78.28,0,0,0,.41-10.3,33.26,33.26,0,0,0-1.64-9.52l-.87-2.17c-.15-.36-.26-.73-.44-1.07l-.54-1-1.09-2-1.26-1.85c-3.4-4.88-7.59-8.65-11.41-12s-7.41-6.37-10.34-9.23a54.57,54.57,0,0,1-6.95-7.87c-.41-.6-.85-1.12-1.17-1.68l-.9-1.55-.77-1.34-.5-1.17A12.45,12.45,0,0,1,368.63,315.49Z" stroke="#000" stroke-miterlimit="10" stroke-width="0.5"/>
    </g>
  </g>
</svg>
