<svg xmlns="http://www.w3.org/2000/svg" viewBox="0 0 563.98 416.02">
  <title>discovery</title>
  <g id="CHARACTER1">
    <g id="PRIMARY_footright">
      <path d="M413.91,290.42a35.51,35.51,0,0,1,13.59-4.34l5.54-5.69a8.16,8.16,0,0,1,3.89-1c1.65,0,2.82.56,4.93,1.53,1.92.89,3.88,1.7,5.79,2.63a33.17,33.17,0,0,0,14.43,3c3.23-.05,3.61-.6,9.43-.83a32.15,32.15,0,0,1,6.26.16,23.29,23.29,0,0,1,7.94,2.7c-1.69,1.06-3.94,2.39-6.65,3.79a92.6,92.6,0,0,1-15.18,6.18c-8.39,2.57-15.16,3.25-23.63,4.1-8.69.87-10.15.42-15.13,1.64a52.48,52.48,0,0,0-14.74,6.18Q412.14,300.46,413.91,290.42Z" transform="translate(0 0)"/>
    </g>
    <g id="leg_right" data-name="leg right">
      <path d="M346.91,218c-.22,2.67-.43,5.34-.65,8a306.76,306.76,0,0,0-27.12,22.78c-12.75,12.05-20.21,19.2-27.37,31.24-5.78,9.73-7.92,16.82-11.43,28.5-1.71,5.69-3.12,11.5-1.66,18.34.56,2.59,1.55,6.94,5.12,10.46,3.38,3.33,7.6,4.46,12.75,5.16a81.85,81.85,0,0,0,26.69-.92c18.77-3.8,28.15-5.69,37.32-8.57,24-7.53,39.29-16.19,42.62-18.1,4.05-2.33,7.35-4.43,9.67-6a30.85,30.85,0,0,0,1.93-11A27.54,27.54,0,0,0,412.23,286a26.79,26.79,0,0,0-8.33-10.15,27.51,27.51,0,0,0-17.12-5.14,42.93,42.93,0,0,0,6.67-6.88,45.24,45.24,0,0,0,6.74-12.46,50,50,0,0,0,2.66-13.21c1.08-13.1-.94-25.93-2.44-33.41Z" transform="translate(0 0)" fill="#fff"/>
      <path d="M346.84,227c-.44,0-1-3.75-.78-8.43s1.05-8.39,1.49-8.33.33,3.81.14,8.4S347.29,226.93,346.84,227Z" transform="translate(0 0)" stroke="#000" stroke-miterlimit="10" stroke-width="0.5"/>
      <path d="M413.15,309.57a18.2,18.2,0,0,1-2.38,1.46c-1.59.91-3.94,2.25-7,3.86-6.14,3.25-15.13,7.82-26.64,12.56-5.74,2.41-12.14,4.77-19.11,7a194.38,194.38,0,0,1-22.65,5.85,169.25,169.25,0,0,1-25.67,3.11l-6.8.13a56.43,56.43,0,0,1-6.95-.37,27.71,27.71,0,0,1-7-1.68,17.21,17.21,0,0,1-6.14-4.05A17.6,17.6,0,0,1,279,331.2a25.84,25.84,0,0,1-1.42-7A45.17,45.17,0,0,1,279,310.41a101.09,101.09,0,0,1,9.45-24.1c7.91-14.57,17.88-25.84,26.73-34.55a264.84,264.84,0,0,1,22.26-19.3c2.74-2.13,4.9-3.75,6.37-4.84a17,17,0,0,1,2.31-1.57,19,19,0,0,1-2.11,1.83c-1.41,1.17-3.49,2.88-6.18,5.08-5.33,4.44-13.08,10.85-21.84,19.62s-18.49,20-26.21,34.44a100.35,100.35,0,0,0-9.23,23.77,43.34,43.34,0,0,0-1.4,13.26c.29,4.45,1.65,9,4.83,12.27a15.55,15.55,0,0,0,5.57,3.67,26.11,26.11,0,0,0,6.55,1.58,56.61,56.61,0,0,0,6.76.37l6.73-.11a172.36,172.36,0,0,0,25.45-3,198.39,198.39,0,0,0,22.52-5.67c7-2.17,13.35-4.46,19.09-6.78,11.52-4.6,20.56-9,26.78-12.06,3.12-1.53,5.51-2.77,7.15-3.59A18.49,18.49,0,0,1,413.15,309.57Z" transform="translate(0 0)" stroke="#000" stroke-miterlimit="10" stroke-width="0.5"/>
      <path d="M345.29,301.48a17.57,17.57,0,0,1,3-2.34c2-1.42,4.91-3.44,8.53-5.89s8-5.33,12.7-8.64A133.1,133.1,0,0,0,384.16,273a63.89,63.89,0,0,0,11.74-14.32,49,49,0,0,0,5.62-14,39.79,39.79,0,0,0,.89-10.16c0-1.22-.14-2.15-.19-2.79s-.05-1,0-1,.16.31.32.94a19.52,19.52,0,0,1,.5,2.8,34.91,34.91,0,0,1-.39,10.44,47.24,47.24,0,0,1-5.45,14.53,62.52,62.52,0,0,1-11.92,14.76,122.09,122.09,0,0,1-14.91,11.65c-4.8,3.26-9.22,6-12.92,8.36s-6.71,4.2-8.81,5.46A16.45,16.45,0,0,1,345.29,301.48Z" transform="translate(0 0)" stroke="#000" stroke-miterlimit="10" stroke-width="0.5"/>
      <path d="M412.86,308.87c-.27-.09.82-3,1.2-7.87a31.84,31.84,0,0,0-.53-8.47,26.75,26.75,0,0,0-3.91-9.52,25.87,25.87,0,0,0-7.24-7.28,24.49,24.49,0,0,0-7.74-3.33c-2.37-.59-4.36-.88-5.72-1.14a6,6,0,0,1-2.11-.53,5.6,5.6,0,0,1,2.18-.1,41,41,0,0,1,5.89.64,23.7,23.7,0,0,1,8.31,3.2,25.69,25.69,0,0,1,7.79,7.64,26.52,26.52,0,0,1,4,10.14,29.49,29.49,0,0,1,.21,8.87C414.51,306.14,413,308.94,412.86,308.87Z" transform="translate(0 0)" stroke="#000" stroke-miterlimit="10" stroke-width="0.5"/>
      <path d="M427.51,286.12c.14.43-2.8,1.73-6.55,2.92s-6.92,1.8-7,1.37,2.81-1.74,6.55-2.92S427.37,285.69,427.51,286.12Z" transform="translate(0 0)" stroke="#000" stroke-miterlimit="10" stroke-width="0.5"/>
      <path d="M427.5,286.08" transform="translate(0 0)" fill="none" stroke="#000" stroke-miterlimit="10" stroke-width="0.5"/>
      <path d="M434.54,279.11c.29.36-1.2,2-3.12,3.89s-3.6,3.33-3.95,3,.81-2.26,2.81-4.21S434.27,278.76,434.54,279.11Z" transform="translate(0 0)" stroke="#000" stroke-miterlimit="10" stroke-width="0.5"/>
      <path d="M480.19,286.45c-.08.26-2.58-.51-6.73-.22-2.07.11-4.53.45-7.3.79a34.52,34.52,0,0,1-9.23.09,37.19,37.19,0,0,1-8.85-2.59c-2.6-1.08-4.85-2.26-6.7-3.2a15.4,15.4,0,0,0-4.53-1.64c-1.13-.18-1.78-.09-1.8-.22s.6-.4,1.84-.41a13,13,0,0,1,5,1.22c2,.83,4.2,1.88,6.78,2.86a40.12,40.12,0,0,0,8.53,2.36,36.34,36.34,0,0,0,8.84,0,72.46,72.46,0,0,1,7.43-.44C477.76,285.08,480.28,286.29,480.19,286.45Z" transform="translate(0 0)" stroke="#000" stroke-miterlimit="10" stroke-width="0.5"/>
      <path d="M479.66,286.79c0-.09,1.14-.37,3.19.1.25.06.52.14.8.23s.52.18.94.37a12,12,0,0,1,1.15.63l.6.37.15.1-.14.1-.28.2c-1.86,1.26-3,1.93-4.64,2.89a87.78,87.78,0,0,1-26.59,9.91,109.6,109.6,0,0,1-15.55,1.8c-4.77.28-9.05.58-12.59,1.12-7.12,1-11.14,3.12-11.26,2.85,0,0,.21-.21.67-.48a16.31,16.31,0,0,1,2.11-1.05,39.7,39.7,0,0,1,8.28-2.45A114.08,114.08,0,0,1,439.19,302a124,124,0,0,0,15.33-1.89,99.26,99.26,0,0,0,14.84-4.2,105.75,105.75,0,0,0,11.52-5.13l2.26-1.22.91-.51.57-.3.14-.08.08,0-.06-.05-.23-.16c-.15-.11-.32-.21-.48-.31s-.43-.22-.68-.32-.49-.2-.72-.28C480.8,286.87,479.65,286.93,479.66,286.79Z" transform="translate(0 0)" stroke="#000" stroke-miterlimit="10" stroke-width="0.5"/>
    </g>
    <g id="PRIMARY_footleft">
      <path d="M437.81,303.19a87.87,87.87,0,0,1,10.81-3c2.1-.43,4.12-.76,6-1,0-.72.36-4.14,3.06-6.09,2.14-1.55,4.59-1.31,6.73-1.08,3.13.34,4,1.23,8.74,3.09a62,62,0,0,0,12.68,3.6,49.74,49.74,0,0,0,5.56.56,15.84,15.84,0,0,1,5.65-3.05,11.18,11.18,0,0,1,6.13-.45c1,.25,4.12,1,4.66,3.14s-1.64,4.08-2.08,4.5c-2.14,2-4.53,2.17-9.51,2.95-3.2.51-6.36,1.25-9.56,1.8-6.93,1.19-6.91,1.73-16.66,3.86-4.54,1-4.74.91-16.57,3.19-5.54,1.07-10.07,2-13.07,2.56Z" transform="translate(0 0)"/>
    </g>
    <g id="leg_left" data-name="leg left">
      <path d="M417.57,210.52c.42,2.65.2,3.8.26,7.12.18,9,2.05,12.92,4,22.32,1.53,7.52,3.24,15.92,2.47,25.67a62.69,62.69,0,0,1-4.54,18.88,27.28,27.28,0,0,1,7.38,3.8,28.64,28.64,0,0,1,8,9.18,40.79,40.79,0,0,1,5.32,21.11c-3.83,1.86-9.49,4.54-16.42,7.58C410.76,332,392.44,340,368.76,346a168.43,168.43,0,0,1-29.28,5c-9,.71-18.1.67-26.79-3.57-5.11-2.48-7.44-5.12-8.73-7A22,22,0,0,1,300.47,329a32.34,32.34,0,0,1,1.68-12.18,109.61,109.61,0,0,1,10.74-24.17c4.92-7.73,10-13.73,18.07-22a407.67,407.67,0,0,1,33.44-30.74l-9-3.24c-.34-5.2-.18-14.94,5.45-24.38,10.62-17.84,36.3-27.23,47.56-18.69C412.64,196.76,416.46,203.69,417.57,210.52Z" transform="translate(0 0)" fill="#fff"/>
      <path d="M365.08,240.34c-.26.39-2.34-.59-4.94-1.57s-4.78-1.66-4.72-2.12,2.52-.47,5.31.6S365.33,240,365.08,240.34Z" transform="translate(0 0)" stroke="#000" stroke-miterlimit="10" stroke-width="0.5"/>
      <path d="M435,321.32a16.63,16.63,0,0,1-2.37,1.25c-1.57.77-3.91,1.86-6.95,3.22-6.07,2.73-14.94,6.48-26.06,10.71-5.56,2.11-11.69,4.33-18.3,6.63-3.29,1.14-6.74,2.33-10.35,3.32s-7.35,1.91-11.21,2.7A133.69,133.69,0,0,1,335.17,352a72.45,72.45,0,0,1-13.14-.94,35,35,0,0,1-12.85-4.65,22.92,22.92,0,0,1-2.82-2.1c-.45-.37-.82-.83-1.24-1.24a9.54,9.54,0,0,1-1.15-1.32l-1-1.42a15.1,15.1,0,0,1-.85-1.52,13.34,13.34,0,0,1-.76-1.57l-.57-1.63a28.36,28.36,0,0,1-.59-13.27A73.3,73.3,0,0,1,308.65,299a128.64,128.64,0,0,1,12.6-18.54A173,173,0,0,1,334.32,266c8.47-8.4,15.91-14.53,21-18.77,2.58-2.1,4.6-3.71,6-4.78a15.69,15.69,0,0,1,2.17-1.57,17.27,17.27,0,0,1-2,1.82l-5.78,5c-5,4.38-12.31,10.63-20.63,19.09a179.57,179.57,0,0,0-12.83,14.5A129.22,129.22,0,0,0,310,299.76a72.23,72.23,0,0,0-8.22,22.84,26.83,26.83,0,0,0,.56,12.53,17.91,17.91,0,0,0,7.75,9.92,33.42,33.42,0,0,0,12.25,4.42,71.58,71.58,0,0,0,12.84.95,134.07,134.07,0,0,0,24.33-2.74q5.76-1.14,11.13-2.61c3.58-1,7-2.1,10.29-3.22,6.62-2.24,12.76-4.39,18.34-6.43,11.15-4.08,20.07-7.67,26.21-10.21l7.07-2.94A17.31,17.31,0,0,1,435,321.32Z" transform="translate(0 0)" stroke="#000" stroke-miterlimit="10" stroke-width="0.5"/>
      <path d="M376,314.4a30.93,30.93,0,0,1,4.48-2c2.9-1.22,7.1-3,12.08-5.58a74.09,74.09,0,0,0,16.11-11.11A45.93,45.93,0,0,0,421.56,276c2.51-8.1,2.32-16.39,1.52-23.71s-2.31-13.92-3.34-19.47-1.73-10.08-2-13.24a23.18,23.18,0,0,1-.16-4.91,36.6,36.6,0,0,1,.79,4.83c.47,3.12,1.31,7.59,2.51,13.09s2.75,12.06,3.7,19.52a75.37,75.37,0,0,1,.58,11.8,48.41,48.41,0,0,1-2,12.57,42,42,0,0,1-5.64,11.45,52.59,52.59,0,0,1-7.83,8.89,71.53,71.53,0,0,1-16.61,11A115.41,115.41,0,0,1,380.67,313,25.92,25.92,0,0,1,376,314.4Z" transform="translate(0 0)" stroke="#000" stroke-miterlimit="10" stroke-width="0.5"/>
      <path d="M419.25,284.82" transform="translate(0 0)" fill="none" stroke="#000" stroke-miterlimit="10" stroke-width="0.5"/>
      <path d="M439.79,314.68c-.27,0-.44-2.14-1.17-5.51-.19-.84-.4-1.75-.7-2.72s-.62-2-1-3.05a40.42,40.42,0,0,0-3.19-6.59,34.05,34.05,0,0,0-4.52-5.72,26.4,26.4,0,0,0-2.39-2.11,22.16,22.16,0,0,0-2.26-1.63c-2.88-1.84-4.93-2.56-4.83-2.83,0-.11.57,0,1.53.24a9.86,9.86,0,0,1,1.71.58,17.18,17.18,0,0,1,2.18,1,19.35,19.35,0,0,1,2.48,1.54,25.09,25.09,0,0,1,2.62,2.1,30.59,30.59,0,0,1,4.87,5.95,35.18,35.18,0,0,1,3.22,6.95c.34,1.13.68,2.19.88,3.22a26.74,26.74,0,0,1,.52,2.85C440.21,312.49,440,314.68,439.79,314.68Z" transform="translate(0 0)" stroke="#000" stroke-miterlimit="10" stroke-width="0.5"/>
      <path d="M455.11,298.42c.12.44-3.38,1.79-7.82,3s-8.13,1.89-8.25,1.46,3.37-1.79,7.81-3S455,298,455.11,298.42Z" transform="translate(0 0)" stroke="#000" stroke-miterlimit="10" stroke-width="0.5"/>
      <path d="M498.87,298.12c0,.08-.57.46-1.79.86a18.87,18.87,0,0,1-5.36.89,33.65,33.65,0,0,1-8-.81,75.81,75.81,0,0,1-9.37-2.72c-3.25-1.13-6.35-2.22-9.15-3.24a10.94,10.94,0,0,0-3.82-1,4.5,4.5,0,0,0-3,1.11,8.42,8.42,0,0,0-1.8,2.2c-.44.75-.77,1.43-1,2-.52,1.14-.8,1.78-.92,1.75s0-.74.33-2a14.68,14.68,0,0,1,.83-2.2,8.73,8.73,0,0,1,1.83-2.63,5.71,5.71,0,0,1,3.7-1.61,12,12,0,0,1,4.37.91l9.15,3.1c6.45,2.3,12.43,3.85,16.85,3.92S498.79,297.83,498.87,298.12Z" transform="translate(0 0)" stroke="#000" stroke-miterlimit="10" stroke-width="0.5"/>
      <path d="M492.07,306.81c.06.21-2.68,1.16-7.18,2.42s-10.79,2.82-17.78,4.25-13.38,2.47-18,3.07-7.53.81-7.56.6,2.79-.84,7.37-1.73,10.91-2.11,17.88-3.53,13.27-2.8,17.83-3.78S492,306.58,492.07,306.81Z" transform="translate(0 0)" stroke="#000" stroke-miterlimit="10" stroke-width="0.5"/>
      <path d="M489.38,308.1s-.07,0-.09-.12a.49.49,0,0,1,.16-.4,1.36,1.36,0,0,1,.55-.34l.73-.26a33,33,0,0,1,4.82-1.08,36.2,36.2,0,0,0,6.9-1.61,12.23,12.23,0,0,0,3.49-2,8.43,8.43,0,0,0,1.41-1.46c.33-.55.34-.67,0-1.26a7.7,7.7,0,0,0-3.13-2.62,7.8,7.8,0,0,0-1.89-.59,8.74,8.74,0,0,0-1.91-.09,27.68,27.68,0,0,0-6.78,1.82,16.88,16.88,0,0,1-4.87,1.09c-1.19,0-1.83-.17-1.82-.25s.64-.15,1.75-.38a23.93,23.93,0,0,0,4.53-1.53c.95-.4,2-.86,3.15-1.29a15.5,15.5,0,0,1,3.93-1,9.12,9.12,0,0,1,8.41,3.91,2.82,2.82,0,0,1,.52,1.54,2.77,2.77,0,0,1-.54,1.53,9.82,9.82,0,0,1-1.74,1.78,13.45,13.45,0,0,1-4,2.14A31,31,0,0,1,495.7,307c-2.05.19-3.69.37-4.82.55a6.06,6.06,0,0,0-1.22.24C489.43,307.94,489.43,308.08,489.38,308.1Z" transform="translate(0 0)" stroke="#000" stroke-miterlimit="10" stroke-width="0.5"/>
    </g>
    <g id="arm_right" data-name="arm right">
      <path d="M334.38,101a53.25,53.25,0,0,0-13.53,10.75c-7,7.8-9.92,15.77-12.33,22.65-3,8.44-2,9.21-5.69,25.21a241.24,241.24,0,0,1-8.34,29.52,190.08,190.08,0,0,1-8.58,20c-3.47,3.54-7,7.33-10.57,11.37-5.32,6-10.08,12-14.35,17.66-2.26,2.29-5.35,5.55-8.82,9.65-4.54,5.36-7.68,9.06-10.9,14.69a57.2,57.2,0,0,0-6.21,15.12c-1,4.28-1.58,8.92-1,9.07s1.43-3,3.66-7.21a55.52,55.52,0,0,1,5.77-8.84,64.65,64.65,0,0,0-1.3,12.16c0,2.84-.12,10.29,1.62,10.64.74.15,1.52-1,5.31-7.36,1.65-2.75,3.06-5.13,4.18-7a28.14,28.14,0,0,0-2.17,13.3c.06.63.37,4.05,1.11,4.1s1.12-3.26,2.92-8.26a67.1,67.1,0,0,1,4.57-9.76,72.44,72.44,0,0,1,5.16-8.33c3-4.13,4.43-5.08,7.15-8.42a57.35,57.35,0,0,0,7.3-11.59l2.48,5.81c1.48-1.18,3.55-2.92,5.88-5.17A92.12,92.12,0,0,0,297,240.31a161.38,161.38,0,0,0,15.76-23.86,164.92,164.92,0,0,0,8.5-18.77c4.88-12.68,6.62-21.36,8.71-29.65,9.63-38.19,22.51-51.59,15.16-61.27C343.63,104.85,340.73,102.22,334.38,101Z" transform="translate(0 0)" fill="#fff"/>
      <path d="M284.64,210.9a34,34,0,0,1,2-4.42c1.35-2.82,3.23-6.93,5.23-12.13S296,182.83,298,175.72s3.83-15,5.61-23.36,3.24-16.41,5.94-23.43A53.22,53.22,0,0,1,319.87,112,51.18,51.18,0,0,1,330,103.38a33.9,33.9,0,0,1,3.14-1.81c.74-.37,1.14-.54,1.17-.49s-1.43,1-3.95,2.83a57.81,57.81,0,0,0-9.64,8.89,54.1,54.1,0,0,0-9.79,16.65c-2.55,6.87-3.93,14.89-5.74,23.25s-3.71,16.3-5.77,23.43A175.48,175.48,0,0,1,293,194.77a118.71,118.71,0,0,1-5.73,12A24.36,24.36,0,0,1,284.64,210.9Z" transform="translate(0 0)" stroke="#000" stroke-miterlimit="10" stroke-width="0.5"/>
      <path d="M285,253.59c-.19-.19,3.1-3.54,7.95-9.34l1.89-2.29c.65-.8,1.29-1.66,2-2.54,1.39-1.73,2.76-3.67,4.24-5.68,2.87-4.08,5.88-8.68,8.76-13.67s5.31-9.92,7.39-14.46c1-2.29,2-4.45,2.77-6.52.41-1,.83-2,1.19-3l1-2.79c2.57-7.11,3.8-11.64,4.06-11.58a12.6,12.6,0,0,1-.56,3.27c-.22,1-.52,2.31-.95,3.76s-.85,3.12-1.46,4.93l-.94,2.84c-.33,1-.72,2-1.11,3-.75,2.12-1.69,4.32-2.66,6.65a155.34,155.34,0,0,1-7.34,14.66,158.29,158.29,0,0,1-9,13.74c-1.52,2-3,3.93-4.4,5.65-.71.86-1.38,1.71-2.07,2.49l-2,2.24c-1.25,1.44-2.47,2.66-3.52,3.75s-2,2-2.77,2.72A13.1,13.1,0,0,1,285,253.59Z" transform="translate(0 0)" stroke="#000" stroke-miterlimit="10" stroke-width="0.5"/>
      <path d="M261,238.22c-.35-.25,4.44-7.41,11.35-15.44s13.24-13.86,13.54-13.55-5.46,6.62-12.31,14.61S261.37,238.5,261,238.22Z" transform="translate(0 0)" stroke="#000" stroke-miterlimit="10" stroke-width="0.5"/>
      <path d="M281.81,256c-.25.07-.77-1.44-2-3.64a28.07,28.07,0,0,0-2.41-3.65,29.47,29.47,0,0,0-3.7-3.86,29.14,29.14,0,0,0-4.38-3,26.88,26.88,0,0,0-4-1.82c-2.36-.85-3.92-1.13-3.9-1.39s1.66-.32,4.23.29a20.94,20.94,0,0,1,4.36,1.59,24.68,24.68,0,0,1,4.74,3.13,25.17,25.17,0,0,1,3.84,4.2,21.06,21.06,0,0,1,2.25,4.05C281.87,254.29,282,255.94,281.81,256Z" transform="translate(0 0)" stroke="#000" stroke-miterlimit="10" stroke-width="0.5"/>
      <path d="M241.27,262.57c-.18-.08.31-1.8,1.73-4.3a50.74,50.74,0,0,1,6.69-8.89c5.84-6.35,10.86-11.19,11.19-10.89s-4.17,5.67-10,12a89.92,89.92,0,0,0-6.93,8.41C242.35,261.15,241.5,262.67,241.27,262.57Z" transform="translate(0 0)" stroke="#000" stroke-miterlimit="10" stroke-width="0.5"/>
      <path d="M246.91,263.67c.22,0,.15,2.4-.13,6.14a4.66,4.66,0,0,0,0,1.35c.07.43.27.84.44.89s.38.05.72-.29a11.47,11.47,0,0,0,1-1.36,32.34,32.34,0,0,0,3.57-7.08,21.82,21.82,0,0,1,1.68-4,15.58,15.58,0,0,1,2.63-3.18,40.76,40.76,0,0,0,4.66-4.59,8.94,8.94,0,0,0,1.83-3.81c.19-1,.1-1.59.23-1.61s.4.54.4,1.67a8.26,8.26,0,0,1-1.51,4.41,33.56,33.56,0,0,1-4.55,5,14.94,14.94,0,0,0-2.31,2.91,23.28,23.28,0,0,0-1.53,3.77,29.79,29.79,0,0,1-3.86,7.39,11.89,11.89,0,0,1-1.24,1.53,2.47,2.47,0,0,1-1.05.62,1.77,1.77,0,0,1-1.35-.19,2,2,0,0,1-.77-.94,3.14,3.14,0,0,1-.23-.94,5.23,5.23,0,0,1,.07-1.61C246.21,265.94,246.68,263.64,246.91,263.67Z" transform="translate(0 0)" stroke="#000" stroke-miterlimit="10" stroke-width="0.5"/>
      <path d="M243.14,269.8c.2.13-1.21,2.59-3.31,6.65-.52,1-1.08,2.13-1.68,3.33-.3.6-.6,1.22-.91,1.87-.39.82-.78,1.67-1.19,2.54-.27.61-.55,1.22-.83,1.84a2.67,2.67,0,0,1-.2.44l-.19.27-.37.55a1.86,1.86,0,0,1-.18.23l-.11,0-.2.05c-.05,0-.05,0-.13,0l-.29-.21a2.23,2.23,0,0,1-.43-.44,2.6,2.6,0,0,1-.43-1,3.78,3.78,0,0,1-.07-.62c0-.27.08-.63.12-.94.1-.66.18-1.29.3-2l.36-1.57a76.78,76.78,0,0,1,6.23-16.92c2.12-4.11,3.81-6.42,4-6.32.46.23-5.42,10.07-8.62,23.62l-.3,1.27a1.33,1.33,0,0,0-.05.63.35.35,0,0,0,.07.15l.06.07s0,0,0-.05l.12-.25.29-.56L236,281l1-1.86c.65-1.18,1.28-2.28,1.87-3.27C241.21,271.94,243,269.68,243.14,269.8Z" transform="translate(0 0)" stroke="#000" stroke-miterlimit="10" stroke-width="0.5"/>
      <path d="M257,274.59c.18.2-2,2-4.25,5.64a39.36,39.36,0,0,0-3.22,6.9c-.53,1.36-1.09,2.8-1.8,4.27a22.61,22.61,0,0,1-1.21,2.19,3.67,3.67,0,0,1-.45.63,1.82,1.82,0,0,1-.89.58,1.8,1.8,0,0,1-1.92-.67,5.37,5.37,0,0,1-1-2.69q-.24-1.23-.39-2.43a42.43,42.43,0,0,1-.38-4.63,45.66,45.66,0,0,1,.41-7.84c.66-4.43,1.69-7,1.87-7s-.38,2.72-.72,7.08a54.55,54.55,0,0,0-.06,7.64c.08,1.43.23,2.93.46,4.48.11.77.24,1.55.4,2.34a4.17,4.17,0,0,0,.65,1.95.24.24,0,0,0,.27.11.27.27,0,0,0,.12-.09,2.81,2.81,0,0,0,.26-.38c.42-.66.8-1.35,1.15-2,.69-1.38,1.27-2.78,1.84-4.13a34,34,0,0,1,3.65-7,22.07,22.07,0,0,1,3.57-3.93C256.31,274.85,256.92,274.51,257,274.59Z" transform="translate(0 0)" stroke="#000" stroke-miterlimit="10" stroke-width="0.5"/>
      <path d="M250.68,272.31c.4.28-2.19,4.3-3.82,9.85s-1.75,10.31-2.23,10.32c-.22,0-.48-1.19-.49-3.17a27.5,27.5,0,0,1,4.39-14.62C249.63,273.05,250.51,272.19,250.68,272.31Z" transform="translate(0 0)" stroke="#000" stroke-miterlimit="10" stroke-width="0.5"/>
      <path d="M265.65,269.47c.2.22-2.08,2.1-4.32,6.16a47.83,47.83,0,0,0-3.25,7.47c-1,2.92-2,6.19-3.1,9.63-.22.67-.47,1.34-.76,2l-.23.49c-.13.25-.27.53-.42.77a16,16,0,0,1-.94,1.35,2,2,0,0,1-.59,0,1.59,1.59,0,0,1-.68-.32,2.49,2.49,0,0,1-.77-1.4,7.24,7.24,0,0,1-.13-.95l0-.6c0-.38,0-.75,0-1.12a29.3,29.3,0,0,1,.21-4.26,28.29,28.29,0,0,1,1.76-6.88c1.49-3.73,3.12-5.58,3.24-5.49s-1.07,2.16-2.24,5.85a32.22,32.22,0,0,0-1.35,6.67,30,30,0,0,0-.08,4.05c0,.35,0,.71.06,1.07l.07.65a.63.63,0,0,0,.1.27.26.26,0,0,0,.11.07c.06,0,.07-.06.1-.08a2.53,2.53,0,0,0,.13-.22l.05-.11.21-.44c.26-.59.48-1.21.7-1.86,1.11-3.39,2.11-6.69,3.23-9.62a40.92,40.92,0,0,1,3.67-7.55C263,271,265.58,269.33,265.65,269.47Z" transform="translate(0 0)" stroke="#000" stroke-miterlimit="10" stroke-width="0.5"/>
      <path d="M279.91,248.89c.19.06-.11,1.69-1.18,4.13a33.49,33.49,0,0,1-2.21,4.1,46.53,46.53,0,0,1-3.37,4.6,66.2,66.2,0,0,1-7.21,7.32c-2,1.73-3.29,2.69-3.44,2.53s.87-1.43,2.63-3.35,4.24-4.52,6.76-7.54c1.26-1.52,2.39-3,3.38-4.39s1.79-2.68,2.43-3.8C279,250.27,279.68,248.8,279.91,248.89Z" transform="translate(0 0)" stroke="#000" stroke-miterlimit="10" stroke-width="0.5"/>
      <path d="M281.33,264.62" transform="translate(0 0)" fill="none" stroke="#000" stroke-miterlimit="10" stroke-width="0.5"/>
    </g>
    <g id="torso">
      <path d="M332.16,102.65a28.76,28.76,0,0,0-3.28,7.64,29.21,29.21,0,0,0-.41,13l3.17,5.34a60.11,60.11,0,0,0-5.65,9.95c-2.5,5.59-4.74,10.59-4.21,17.22a26.82,26.82,0,0,0,2.71,9.61,27.84,27.84,0,0,0,9.9,11q-.09,4.47-.05,9.12a274.59,274.59,0,0,0,2.36,33,24,24,0,0,1,5.76-.08c3.39.37,5.56,1.34,8.94,2.75a135.09,135.09,0,0,0,14.14,5.36,50.55,50.55,0,0,0,9.23,1.94,48.4,48.4,0,0,0,17.93-1.61,49.73,49.73,0,0,0,27.48-19.56q.45-17,.1-35.06c-.55-26.15-2.46-50.66-5.2-73.32A89,89,0,0,0,404,95.77c-4.08-.86-14.59-2.78-34.63-.64A207.5,207.5,0,0,0,332.16,102.65Z" transform="translate(0 0)" fill="#fff"/>
      <path d="M410.89,96.44c0,.24-4.48-.08-11.66-.46a267.68,267.68,0,0,0-28.06-.16c-5.46.31-10.64.86-15.34,1.52-2.33.39-4.57.71-6.63,1.15-1,.21-2,.38-3,.6l-2.74.63c-7,1.68-11.18,3.18-11.27,2.92a11.44,11.44,0,0,1,2.85-1.33l1.57-.62,1.89-.64c1.37-.45,2.92-1,4.67-1.44l2.75-.75c.95-.25,2-.45,3-.69,2.07-.51,4.31-.88,6.67-1.31a152.07,152.07,0,0,1,15.48-1.67,195.55,195.55,0,0,1,28.23.64c3.59.33,6.5.68,8.49,1A11.44,11.44,0,0,1,410.89,96.44Z" transform="translate(0 0)" stroke="#000" stroke-miterlimit="10" stroke-width="0.5"/>
      <path d="M332.08,129.64c-.43.16-1.31-1.22-2.28-2.92s-1.68-3.18-1.33-3.47,1.71.82,2.75,2.67S332.5,129.5,332.08,129.64Z" transform="translate(0 0)" stroke="#000" stroke-miterlimit="10" stroke-width="0.5"/>
      <path d="M336.4,177.62c-.08.16-3-1.2-6.88-4.76a31,31,0,0,1-5.71-7.17,22.65,22.65,0,0,1-2.09-5.08,22.94,22.94,0,0,1-.78-5.85,31.79,31.79,0,0,1,2-11.06,51.4,51.4,0,0,1,3.94-8.21c2.63-4.44,4.53-7,4.71-6.88s-1.35,2.91-3.7,7.44a63.25,63.25,0,0,0-3.54,8.15,32.44,32.44,0,0,0-1.82,10.55A21.66,21.66,0,0,0,325.13,165a32.41,32.41,0,0,0,5.21,7.07C333.84,175.7,336.55,177.4,336.4,177.62Z" transform="translate(0 0)" stroke="#000" stroke-miterlimit="10" stroke-width="0.5"/>
      <path d="M337,220.32c-.22,0-.78-2.39-1.39-6.34s-1.24-9.44-1.6-15.53-.37-11.62-.22-15.62.43-6.45.64-6.45c.48,0,.49,9.87,1.21,22S337.42,220.25,337,220.32Z" transform="translate(0 0)" stroke="#000" stroke-miterlimit="10" stroke-width="0.5"/>
      <path d="M419.35,208.1a15.4,15.4,0,0,1-1.9,3.08,43.77,43.77,0,0,1-6.87,7.1,49.23,49.23,0,0,1-30.22,11.17,21.16,21.16,0,0,1-2.39,0l-2.36-.11L373.3,229l-1.15-.14c-.37-.06-.74-.15-1.12-.23a49.49,49.49,0,0,1-8.37-2.36c-5.18-1.9-9.64-4-13.5-5.38-1.93-.72-3.69-1.29-5.26-1.74-.79-.2-1.52-.43-2.18-.55a8,8,0,0,0-1.84-.12,3.48,3.48,0,0,0-2.3.8c-.41.4-.52.72-.58.69s-.05-.37.34-.9a3.57,3.57,0,0,1,2.48-1.23,8.4,8.4,0,0,1,2,0c.74.08,1.48.27,2.29.43,1.62.38,3.44.88,5.42,1.54,4,1.29,8.51,3.26,13.63,5.06a49.76,49.76,0,0,0,8.16,2.2c.36.07.71.16,1.08.21l1.1.13,2.23.27,2.28.1a19.78,19.78,0,0,0,2.31,0,49.27,49.27,0,0,0,17.09-3.42,51.24,51.24,0,0,0,12.44-7,53.67,53.67,0,0,0,7.09-6.6A15.65,15.65,0,0,1,419.35,208.1Z" transform="translate(0 0)" stroke="#000" stroke-miterlimit="10" stroke-width="0.5"/>
      <path d="M420.18,207.2a12.32,12.32,0,0,1-.25-3.3c-.05-2.12-.1-5.2-.14-9-.07-7.59-.18-18.07-.48-29.65s-.72-22-1-29.63c-.15-3.79-.27-6.86-.33-9a13.45,13.45,0,0,1,.08-3.31,12.4,12.4,0,0,1,.56,3.27c.25,2.11.54,5.17.84,9,.61,7.58,1.21,18.06,1.51,29.66s.23,22.1,0,29.7c-.11,3.8-.25,6.87-.39,9A13.18,13.18,0,0,1,420.18,207.2Z" transform="translate(0 0)" stroke="#000" stroke-miterlimit="10" stroke-width="0.5"/>
    </g>
    <g id="arm_left" data-name="arm left">
      <path d="M381,120.86a17.6,17.6,0,0,1,.41-4.3c3.29-14.37,24.85-19.63,27.76-20.3a58.09,58.09,0,0,1,4.75,9.31A59.37,59.37,0,0,1,418,123.29c.54,7.5-.59,13.07-2,19.67-4.52,21.56-6.78,32.34-8.86,39.46-2.47,8.48-5.93,19.1-10.75,31.16-4.7,5.92-9.79,12-15.28,18.12-9.43,10.55-18.8,19.93-27.81,28.24L352,250.51c-1.1,2.05-2.75,5.19-4.68,9.06-4,8-4.17,9.16-7.46,15.77-5.33,10.73-8.41,14.87-11.61,18.21-1.19,1.24-5.2,5.42-6.18,4.73-1.21-.84,2.76-8.69,6.77-15.94q-4.61,4.55-9,8.51c-3.52,3.18-6.17,5.41-9.37,5.14-1.46-.12-1.83-.66-1.91-.78-1-1.6,2.08-5.07,4.29-8a53.36,53.36,0,0,0,7.24-13.59,63.86,63.86,0,0,1-8.95,9.76c-1.82,1.61-6,5.29-6.75,4.63-1-.84,4.24-8.45,6-11.07,3.42-5,5-6.52,8.16-10.84A105.5,105.5,0,0,0,326.15,254a26.79,26.79,0,0,1-11,4.31c-1.59.23-5,.72-5.48-.38-.55-1.28,3.19-4.06,6.26-6.3,5.34-3.92,8.3-5,12.48-7.74a57.92,57.92,0,0,0,9.79-8.06l-4.14-1.9c4.84-4.51,8.68-8.46,11.4-11.37A236.23,236.23,0,0,0,369,193c2.71-4,4.8-7.4,6.16-9.64q1.92-7.65,3.79-15.47,4.21-17.76,7.74-34.91Q383.85,126.91,381,120.86Z" transform="translate(0 0)" fill="#fff"/>
      <path d="M395.07,216.68a29.27,29.27,0,0,1,1.65-4.54c1.14-2.9,2.73-7.1,4.5-12.36s3.69-11.58,5.56-18.68,3.75-14.95,5.58-23.23a204.08,204.08,0,0,0,4-23.48c.75-7.27.84-13.89-.13-19.3a45.43,45.43,0,0,0-4.06-12.34c-1.38-2.77-2.33-4.21-2.22-4.28s.33.29.83,1a34.9,34.9,0,0,1,1.95,3,41.71,41.71,0,0,1,4.63,12.43c1.15,5.54,1.17,12.3.5,19.65A189.62,189.62,0,0,1,414,158.22c-1.85,8.3-3.74,16.17-5.73,23.27s-4,13.43-5.92,18.67-3.69,9.4-5,12.22A24.77,24.77,0,0,1,395.07,216.68Z" transform="translate(0 0)" stroke="#000" stroke-miterlimit="10" stroke-width="0.5"/>
      <path d="M382.64,124.94" transform="translate(0 0)" fill="none" stroke="#000" stroke-miterlimit="10" stroke-width="0.5"/>
      <path d="M387.31,134.21c-.46.1-1.44-3.05-3.16-6.66s-3.51-6.39-3.14-6.68,2.81,2.15,4.61,6S387.74,134.14,387.31,134.21Z" transform="translate(0 0)" stroke="#000" stroke-miterlimit="10" stroke-width="0.5"/>
      <path d="M374.46,185.31c-.22-.07.6-3.37,1.93-8.7s3.11-12.71,4.85-20.9,3.08-15.66,4-21.08,1.54-8.77,1.77-8.74,0,3.44-.63,8.91-1.83,13-3.57,21.24-3.72,15.6-5.33,20.87S374.67,185.38,374.46,185.31Z" transform="translate(0 0)" stroke="#000" stroke-miterlimit="10" stroke-width="0.5"/>
      <path d="M333.8,234.22c-.17-.17,2.28-2.8,6.17-7.08s9.21-10.25,14.79-17.09,10.35-13.25,13.75-17.93,5.48-7.61,5.68-7.48-1.56,3.26-4.73,8.13A223.68,223.68,0,0,1,356,211.08a221.08,221.08,0,0,1-15.21,16.86C336.68,232,333.94,234.37,333.8,234.22Z" transform="translate(0 0)" stroke="#000" stroke-miterlimit="10" stroke-width="0.5"/>
      <path d="M353.38,259.92c-.16-.17,2.38-2.75,6.47-6.9s9.73-9.91,15.78-16.44,11.36-12.57,15.19-17,6.2-7.13,6.39-7-1.89,3.11-5.51,7.71-8.81,10.8-14.88,17.35S365,249.9,360.65,253.85,353.53,260.08,353.38,259.92Z" transform="translate(0 0)" stroke="#000" stroke-miterlimit="10" stroke-width="0.5"/>
      <path d="M352.66,260.32c-.25,0-.28-2-.6-5.18a32.77,32.77,0,0,0-1-5.44,18.93,18.93,0,0,0-2.79-6,19.74,19.74,0,0,0-4.81-4.54,42,42,0,0,0-4.81-2.78c-2.86-1.42-4.68-2.28-4.59-2.5s2,.27,5.06,1.45a30.91,30.91,0,0,1,5.16,2.58,19.15,19.15,0,0,1,5.31,4.83,18.43,18.43,0,0,1,2.92,6.56,26.2,26.2,0,0,1,.69,5.75C353.24,258.34,352.86,260.33,352.66,260.32Z" transform="translate(0 0)" stroke="#000" stroke-miterlimit="10" stroke-width="0.5"/>
      <path d="M359.75,230.43" transform="translate(0 0)" fill="none" stroke="#000" stroke-miterlimit="10" stroke-width="0.5"/>
      <path d="M327,252.94c.05.1-.58.58-1.78,1.34a49.92,49.92,0,0,1-5.31,2.91,30.68,30.68,0,0,1-3.93,1.55c-.73.23-1.49.44-2.29.61a10.2,10.2,0,0,1-2.64.34,2.39,2.39,0,0,1-1.64-.78,2.56,2.56,0,0,1-.58-1.74,3.17,3.17,0,0,1,.54-1.64,5.63,5.63,0,0,1,1-1.18,53.51,53.51,0,0,1,4.52-3.54c3.19-2.27,6.39-4.14,9.28-5.85s5.48-3.23,7.6-4.59c4.24-2.72,6.61-4.78,6.78-4.59s-2,2.53-6.13,5.54c-2.07,1.5-4.62,3.16-7.47,4.92s-6,3.68-9.12,5.9c-1.56,1.09-3,2.26-4.39,3.4a2.61,2.61,0,0,0-1.07,1.69,1.09,1.09,0,0,0,.18.69.9.9,0,0,0,.62.27,10,10,0,0,0,2.21-.24c.76-.14,1.49-.31,2.2-.51a33.91,33.91,0,0,0,3.85-1.31c2.33-.93,4.17-1.83,5.46-2.41S326.9,252.84,327,252.94Z" transform="translate(0 0)" stroke="#000" stroke-miterlimit="10" stroke-width="0.5"/>
      <path d="M321.49,271.33c.14.09-1.19,2.39-3.94,5.89-1.39,1.74-3.12,3.78-5.23,5.95-1.05,1.08-2.19,2.2-3.42,3.33-.62.56-1.25,1.13-1.91,1.7-.06.05-.22.19-.37.3a2.74,2.74,0,0,1-.46.29,2.61,2.61,0,0,1-1,.31,1.67,1.67,0,0,1-.91-.15,1.37,1.37,0,0,1-.61-.71,2.08,2.08,0,0,1,.12-1.51L304,286c.07-.17.12-.34.19-.5.28-.67.57-1.34.9-2a37.41,37.41,0,0,1,2.23-3.86c2.61-3.91,5.56-7.2,8-10.33a104.62,104.62,0,0,0,6-8.65c3.18-5.1,4.8-8.47,5-8.37a7.65,7.65,0,0,1-.84,2.52,67.84,67.84,0,0,1-3.2,6.44,83,83,0,0,1-5.81,9c-2.39,3.25-5.3,6.55-7.81,10.33a37.42,37.42,0,0,0-2.15,3.68c-.31.62-.59,1.24-.85,1.87-.07.15-.13.31-.19.47l-.1.27a.72.72,0,0,0-.07.25.18.18,0,0,0,.26.15l.16-.07.08-.05L306,287l1.91-1.64c1.24-1.08,2.39-2.15,3.46-3.18,2.15-2.07,3.95-4,5.42-5.64C319.71,273.29,321.32,271.2,321.49,271.33Z" transform="translate(0 0)" stroke="#000" stroke-miterlimit="10" stroke-width="0.5"/>
      <path d="M323.15,298c-.17-.22,2.3-2,5.43-5.65a55.93,55.93,0,0,0,5-6.85,99.3,99.3,0,0,0,4.95-9.13c3.18-6.68,5.9-12.89,8.38-17.14s4.39-6.63,4.55-6.51-1.4,2.69-3.53,7.05-4.72,10.55-7.93,17.31a81.58,81.58,0,0,1-5.16,9.23,46.35,46.35,0,0,1-5.36,6.81C326,296.72,323.23,298.17,323.15,298Z" transform="translate(0 0)" stroke="#000" stroke-miterlimit="10" stroke-width="0.5"/>
      <path d="M330.08,279.92c.16.13-1.6,2.66-4.9,6.38-1.66,1.86-3.67,4-6.09,6.29a19.86,19.86,0,0,1-4.33,3.12,10.92,10.92,0,0,1-2.77,1,12.82,12.82,0,0,1-1.52.15,3.63,3.63,0,0,1-1.77-.39,2.09,2.09,0,0,1-1.09-1.88,3.7,3.7,0,0,1,.54-1.68c.48-.8,1-1.58,1.43-2.35l2.71-4.37c1.74-2.77,3.32-5.26,4.67-7.34s2.52-3.72,3.19-4.88a20,20,0,0,1,1-1.89c.1,0,.12.83-.41,2.16A57.7,57.7,0,0,1,318,279.4c-1.23,2.16-2.71,4.71-4.38,7.52-.83,1.41-1.71,2.89-2.63,4.42l-1.37,2.3a2.22,2.22,0,0,0-.33.93.42.42,0,0,0,.25.43,4.1,4.1,0,0,0,2.21.06,9.3,9.3,0,0,0,2.35-.79,18.64,18.64,0,0,0,4-2.8c2.4-2.14,4.51-4.23,6.25-6C327.82,282,329.9,279.76,330.08,279.92Z" transform="translate(0 0)" stroke="#000" stroke-miterlimit="10" stroke-width="0.5"/>
      <path d="M328.16,277.39c.32.32-3.44,4.62-8.4,9.6a51.48,51.48,0,0,1-6.87,5.92c-1.93,1.32-3.28,1.89-3.39,1.71s1-1.1,2.68-2.62,4-3.69,6.43-6.17C323.56,280.86,327.84,277.07,328.16,277.39Z" transform="translate(0 0)" stroke="#000" stroke-miterlimit="10" stroke-width="0.5"/>
      <path d="M322.1,298.27c-.1,0-.29-.22-.41-.75a5,5,0,0,1,.12-2.26,15.76,15.76,0,0,1,1.17-3c.52-1.06,1.1-2.22,1.74-3.42,2.55-4.82,4.93-8.54,5.32-8.31s-1.35,4.28-3.87,9.05c-1.23,2.39-2.6,4.51-3.27,6S322.33,298.21,322.1,298.27Z" transform="translate(0 0)" stroke="#000" stroke-miterlimit="10" stroke-width="0.5"/>
    </g>
    <g id="PRIMARY_hair">
      <path d="M321.35,66.63a27.94,27.94,0,0,1-8.22-2.29A28.64,28.64,0,0,1,301,53.56a28.35,28.35,0,0,1-3.57-18.93c1.62-9.48,7.81-15,11.25-18.09,1.94-1.73,12.11-10.47,27-10a38,38,0,0,1,11.94,2.32A22,22,0,0,1,355.16,3,22.49,22.49,0,0,1,369.6,1.6a24.34,24.34,0,0,1,12.59,7.61c3.23,3.75,4.41,7.61,6,12.74a55.76,55.76,0,0,1,2,9.09,15.76,15.76,0,0,1,6.49,1.39A16.25,16.25,0,0,1,403.17,38,17.26,17.26,0,0,1,405.48,51a34.17,34.17,0,0,1,7.27-1.18,34.77,34.77,0,0,1,15.35,2.72,31.61,31.61,0,0,1,12.52,9,32.1,32.1,0,0,1,6.75,15.35c1.78,11.79-3.67,20.92-5.92,24.7s-6.84,11.46-16.63,16c-2.4,1.1-14.92,6.89-27.59.59a30.25,30.25,0,0,1-13.09-13.09,18.81,18.81,0,0,1-5-1.23,20.85,20.85,0,0,1-10.48-10c-2.4-4.73-2.43-9-2.42-12.49,0-11.39,5-14.74,3-17.51C365.11,58,340.17,69,321.35,66.63Z" transform="translate(0 0)"/>
    </g>
    <g id="head">
      <path d="M339.3,30.75a44.43,44.43,0,0,0-21.43,20.82c1.23,5,2.15,9.15,2.74,11.86,2.13,9.75,2.61,13.27,5.23,18.17,1.41,2.62,2.64,4.87,5.21,7,1.4,1.15,6.25,5.16,11.72,4.39,2.27-.32,4.31-1.41,7.3-.54a8.59,8.59,0,0,1,2.33,1c3.72,2.45,4.08,7.6,4.13,8.54a13.14,13.14,0,0,0,15.12-4.23,20.22,20.22,0,0,1-4.56-7.16,22.43,22.43,0,0,1-1.1-9,41.85,41.85,0,0,1,4.71-17.08,12.69,12.69,0,0,0,4.1-.93A10.57,10.57,0,0,0,381.57,52c-.19-1.64-.54-4.63-3.09-6.47a7.86,7.86,0,0,0-5.56-1.25,36.43,36.43,0,0,1-5,2.92A22.45,22.45,0,0,1,360,49.79c-4.43.34-7.9-1.83-9.86-3.06C342.39,41.88,340,33.39,339.3,30.75Z" transform="translate(0 0)" fill="#fff"/>
      <path d="M356.42,101a14.3,14.3,0,0,1-1.15-2.58,15.75,15.75,0,0,0-1.56-2.82,6.2,6.2,0,0,0-3.12-2.45c-1.4-.46-3,0-5,.31a18.47,18.47,0,0,1-6.32-.11,19.18,19.18,0,0,1-6.51-2.53,18.72,18.72,0,0,1-5.46-5.16c-3-4.24-4.33-9-5.35-13.16s-1.76-8-2.43-11.19c-1.32-6.37-2-10.34-1.81-10.39s1.33,3.83,2.93,10.13l2.77,11.08c1.08,4.11,2.44,8.66,5.21,12.58a17.88,17.88,0,0,0,16.78,7.41c.91-.11,1.83-.3,2.77-.37a6.7,6.7,0,0,1,2.76.31,7,7,0,0,1,3.53,3,14.24,14.24,0,0,1,1.39,3.1A7.41,7.41,0,0,1,356.42,101Z" transform="translate(0 0)" stroke="#000" stroke-miterlimit="10" stroke-width="0.5"/>
      <path d="M351.92,78.43c-.09-.07.13-.5.56-1.22a11.47,11.47,0,0,0,1.41-3.08,4.39,4.39,0,0,0,0-2.13,2.78,2.78,0,0,0-1.25-1.79,2.71,2.71,0,0,0-2.35,0A5.1,5.1,0,0,0,348.06,72c-1.24,1.69-2,3.91-3.49,5.53a6.12,6.12,0,0,1-2.63,1.76,9.29,9.29,0,0,1-1.33.25,1,1,0,0,0-.67.34,1.73,1.73,0,0,0-.29,1.46,3.91,3.91,0,0,0,.58,1.25c.46.67.76,1.06.68,1.14s-.5-.13-1.16-.73a3.88,3.88,0,0,1-1-1.38,2.66,2.66,0,0,1,.24-2.43,2.14,2.14,0,0,1,1.3-.87A10.31,10.31,0,0,0,341.5,78a4.94,4.94,0,0,0,1.94-1.48c1.22-1.36,1.85-3.45,3.31-5.5a6.53,6.53,0,0,1,3-2.33,4.17,4.17,0,0,1,3.69.24,4.11,4.11,0,0,1,1.8,2.78,5.31,5.31,0,0,1-.2,2.75,8.64,8.64,0,0,1-2,3.14C352.39,78.21,352,78.5,351.92,78.43Z" transform="translate(0 0)" stroke="#000" stroke-miterlimit="10" stroke-width="0.5"/>
      <path d="M332.33,72.09c-.5,0-.13-4.6-1.11-10a29.92,29.92,0,0,0-2-6.64c-.72-1.63-1.28-2.62-1.09-2.77s1.07.63,2.11,2.23a17.28,17.28,0,0,1,1.5,3,23,23,0,0,1,1.11,3.92,25.28,25.28,0,0,1,.28,7.31C332.89,71,332.55,72.11,332.33,72.09Z" transform="translate(0 0)" stroke="#000" stroke-miterlimit="10" stroke-width="0.5"/>
      <path d="M339.7,72.09c.2.39-.93,1.33-2.65,1.35s-2.87-.88-2.67-1.28,1.33-.32,2.65-.35S339.5,71.68,339.7,72.09Z" transform="translate(0 0)" stroke="#000" stroke-miterlimit="10" stroke-width="0.5"/>
      <path d="M328.56,65.4c-.22.38-1.63,0-2.92-1.2s-1.85-2.54-1.49-2.79,1.42.54,2.58,1.58S328.8,65,328.56,65.4Z" transform="translate(0 0)" stroke="#000" stroke-miterlimit="10" stroke-width="0.5"/>
      <path d="M344.92,58.82c-.1.43-1.65.39-3.16-.65s-2.11-2.46-1.75-2.71,1.41.52,2.67,1.37S345.05,58.38,344.92,58.82Z" transform="translate(0 0)" stroke="#000" stroke-miterlimit="10" stroke-width="0.5"/>
      <path d="M325.32,54.72c-.22.1-.53-.16-1-.3a1.68,1.68,0,0,0-2.39,1.51c-.07.49,0,.88-.15,1s-.69-.05-1-.85a2.46,2.46,0,0,1-.05-1.44,2.51,2.51,0,0,1,2.94-1.86,2.51,2.51,0,0,1,1.28.66C325.57,54.08,325.51,54.66,325.32,54.72Z" transform="translate(0 0)" stroke="#000" stroke-miterlimit="10" stroke-width="0.5"/>
      <path d="M340.66,46.49c-.07.22-.6.24-1.39.17a11.15,11.15,0,0,0-2.8-.06,3.85,3.85,0,0,0-2.16,1.14c-.45.46-.6.93-.84.94s-.52-.57-.16-1.52A3.74,3.74,0,0,1,336.22,45a5.88,5.88,0,0,1,3.37.56C340.34,45.92,340.73,46.28,340.66,46.49Z" transform="translate(0 0)" stroke="#000" stroke-miterlimit="10" stroke-width="0.5"/>
      <path d="M347.52,8.79c0,.06-.39,0-1.06-.23l-1.23-.38-1.7-.41a32.61,32.61,0,0,0-4.73-.69,33.47,33.47,0,0,0-6.31.18A42.31,42.31,0,0,0,325,8.86a51.12,51.12,0,0,0-8.11,3.38,53.83,53.83,0,0,0-8.17,5.24,27.53,27.53,0,0,0-10.61,26.68A26.59,26.59,0,0,0,301,52.31a29.18,29.18,0,0,0,9.42,10,30.7,30.7,0,0,0,4.21,2.27c2.41,1,3.85,1.38,3.82,1.52s-.38,0-1.08-.1a10.17,10.17,0,0,1-1.27-.3,16,16,0,0,1-1.71-.53,27.25,27.25,0,0,1-9.64-6A29,29,0,0,1,299.83,53a27.38,27.38,0,0,1-3.19-8.56,28.7,28.7,0,0,1,11.1-28.2,53.64,53.64,0,0,1,8.48-5.32,50.4,50.4,0,0,1,8.4-3.34,41.45,41.45,0,0,1,7.76-1.45,32.5,32.5,0,0,1,6.51.06,29.34,29.34,0,0,1,4.8,1l1.7.57c.48.2.87.39,1.19.54C347.22,8.56,347.54,8.74,347.52,8.79Z" transform="translate(0 0)" stroke="#000" stroke-miterlimit="10" stroke-width="0.5"/>
      <path d="M371.77,44.82c.05.1-.42.5-1.32,1.13a32.48,32.48,0,0,1-4.06,2.4,18.43,18.43,0,0,1-6.84,2,15.75,15.75,0,0,1-8.55-2,23.18,23.18,0,0,1-6.66-5.6,23.52,23.52,0,0,1-3.67-6,12.46,12.46,0,0,1-1-4.68c0-1.14.2-1.75.3-1.74.26,0,0,2.51,1.74,5.95a25.86,25.86,0,0,0,3.77,5.55,23.61,23.61,0,0,0,6.29,5.14,15,15,0,0,0,7.69,1.91,19.1,19.1,0,0,0,6.45-1.54c1.79-.72,3.21-1.44,4.21-1.89S371.71,44.72,371.77,44.82Z" transform="translate(0 0)" stroke="#000" stroke-miterlimit="10" stroke-width="0.5"/>
      <path d="M370.29,64.31c0-.11.49-.26,1.36-.43a10.83,10.83,0,0,0,7.47-4.47,9.58,9.58,0,0,0,1.79-6,10.5,10.5,0,0,0-2.14-5.94,7.84,7.84,0,0,0-4.14-2.94,4.53,4.53,0,0,0-3.33.46c-.72.43-1,.85-1.12.78s0-.61.74-1.28a4.8,4.8,0,0,1,3.92-1.09A8.56,8.56,0,0,1,380,46.52a11.5,11.5,0,0,1,2.59,6.82,10.65,10.65,0,0,1-2.21,7,11.13,11.13,0,0,1-4.72,3.58,9.07,9.07,0,0,1-2.21.58,10,10,0,0,1-1.68.05C370.8,64.49,370.3,64.43,370.29,64.31Z" transform="translate(0 0)" stroke="#000" stroke-miterlimit="10" stroke-width="0.5"/>
      <path d="M383,105.35c0,.1-.72.05-1.93-.28a18.63,18.63,0,0,1-4.83-2.22,23.06,23.06,0,0,1-5.82-5.36,25.32,25.32,0,0,1-4.34-8.69,28.27,28.27,0,0,1-.79-9.66,30.49,30.49,0,0,1,1.73-7.69c1.55-4.21,3.29-6.41,3.43-6.32s-1.11,2.52-2.34,6.68a31.09,31.09,0,0,0-.45,16.56,25.28,25.28,0,0,0,4,8.21,24.39,24.39,0,0,0,5.27,5.32C380.41,104.44,383.13,105.07,383,105.35Z" transform="translate(0 0)" stroke="#000" stroke-miterlimit="10" stroke-width="0.5"/>
      <path d="M390.28,32.16a8.1,8.1,0,0,1-.65-2.47c-.33-1.6-.77-3.92-1.53-6.72a39.89,39.89,0,0,0-3.75-9.35,23,23,0,0,0-29.68-9.78,26.62,26.62,0,0,0-5.76,3.57c-1.25,1-1.89,1.67-2,1.59s.41-.85,1.56-2a21.82,21.82,0,0,1,5.7-4.15A23.25,23.25,0,0,1,364.36.25,23.86,23.86,0,0,1,376.77,3.6,23.18,23.18,0,0,1,382,7.81a25.55,25.55,0,0,1,3.64,5.07,37,37,0,0,1,3.56,9.81,53.76,53.76,0,0,1,1,6.91A7.48,7.48,0,0,1,390.28,32.16Z" transform="translate(0 0)" stroke="#000" stroke-miterlimit="10" stroke-width="0.5"/>
      <path d="M405.13,51.13c-.24-.05-.06-1.67-.21-4.22A18.42,18.42,0,0,0,402,37.67a13.1,13.1,0,0,0-7.8-5.3c-2.45-.54-4.06-.12-4.12-.39s1.52-1,4.3-.75a12.89,12.89,0,0,1,9,5.52,15.52,15.52,0,0,1,2.31,5.41,17.85,17.85,0,0,1,.4,4.74C405.93,49.6,405.32,51.17,405.13,51.13Z" transform="translate(0 0)" stroke="#000" stroke-miterlimit="10" stroke-width="0.5"/>
      <path d="M405.56,51a6,6,0,0,1,1.47-.53,15.73,15.73,0,0,1,1.84-.44l1.19-.23c.43-.07.89-.11,1.38-.17a31.44,31.44,0,0,1,7.11,0,35.74,35.74,0,0,1,19.08,8A31.94,31.94,0,0,1,445.76,68a25.32,25.32,0,0,1,2.17,6.89,31.29,31.29,0,0,1,.16,7.5,50,50,0,0,1-3.76,15.14,42.73,42.73,0,0,1-8.57,13,37.79,37.79,0,0,1-12,8.28,34.19,34.19,0,0,1-12.86,2.89,30,30,0,0,1-11.32-2,31,31,0,0,1-8.2-4.73,26.39,26.39,0,0,1-4.89-5.19,22.67,22.67,0,0,1-2.26-3.88,5,5,0,0,1-.52-1.48,58.23,58.23,0,0,0,3.29,5,27.23,27.23,0,0,0,5,4.85,30.4,30.4,0,0,0,8,4.37,29.34,29.34,0,0,0,10.88,1.69,33.41,33.41,0,0,0,12.3-2.91,36.72,36.72,0,0,0,11.43-8,41.71,41.71,0,0,0,8.22-12.58,49.05,49.05,0,0,0,3.67-14.64,30.25,30.25,0,0,0-.11-7.13,23.93,23.93,0,0,0-2-6.48,30.78,30.78,0,0,0-7.65-10,35.09,35.09,0,0,0-9.44-5.76,35.63,35.63,0,0,0-8.87-2.37,33.3,33.3,0,0,0-6.95-.25C407.66,50.55,405.6,51.18,405.56,51Z" transform="translate(0 0)" stroke="#000" stroke-miterlimit="10" stroke-width="0.5"/>
    </g>
  </g>
  <g id="SIMPLE_background">
    <g id="plants">
      <path d="M470,375.92a44.9,44.9,0,0,1-1-14,46.13,46.13,0,0,1,3.36-13.58c3-7.66,6.11-10.12,7.13-10.87,2.93-2.17,4.88-2.08,5.43-2,3.1.28,5,2.93,5.36,3.5a31.58,31.58,0,0,1,.43-9,30.53,30.53,0,0,1,4.13-10.34c2.33-4,3.78-4.7,4.86-5a6,6,0,0,1,3.62.36,49.29,49.29,0,0,1,.55-7.61A48.75,48.75,0,0,1,508,293.83c2.17-4.61,3.42-7.17,6.41-9.08a13.9,13.9,0,0,1,6.12-2.08c.83-3.06,2-7.05,3.76-11.64a135,135,0,0,1,10.26-21.43c4.88-8.25,4.5-5.6,9.4-13.83,2-3.38,4.22-7.43,8.82-10,3.32-1.84,4.82-1.2,5.27-1,1.44.78,1.83,2.7,2,4a34.63,34.63,0,0,1-1.1,16c-4,10.57-6.35,21.74-10.47,32.27-2.8,7.18-6.57,17.58-10.26,30.67a40.15,40.15,0,0,1,5.22-3.33c2.11-1.11,2.77-1.2,3.24-.94.88.49,1.06,2.21.59,4.3a21,21,0,0,1,5.53-7.76c1.74-1.5,3.47-3,5.82-2.82.22,0,2.93.2,4.07,2.13,1,1.66.23,3.65-1,6.81-.67,1.82-2.54,7.72-3.55,9.72-6.41,12.81-7.63,21.06-19.34,42.6-2,3.76-5,8.95-8.72,15Z" transform="translate(0 0)" fill="#fff"/>
      <path d="M44.44,379.58a65.34,65.34,0,0,1-8-5.52c-3.52-2.83-6-5.7-11.07-11.44A33,33,0,0,1,19.85,354c-.78-1.84-1.29-3.59-.44-4.8a3.06,3.06,0,0,1,1.85-1.11,45.93,45.93,0,0,1-5-7.57c-1.51-2.86-.58-1.84-3.43-8.51-1.22-2.84-2.14-4.8-1.28-5.83a2.22,2.22,0,0,1,1.67-.62c-2.72-5.24-4.88-9.84-6.54-13.53a55.19,55.19,0,0,1-5-16.59c-.62-5.12.09-6.4.87-6.84,1.56-.9,4.3,1.13,6.13,2.52a33.47,33.47,0,0,1,8.46,9.45C20,305.72,25,313,34.26,324.14a23.71,23.71,0,0,1-.88-3.3c-.51-2.71-.77-4.06-.06-5.17,1-1.61,3.61-2.07,5.55-1.5A6.11,6.11,0,0,1,43,319.06c-1.11-3.77-.92-6.78.44-7.52s4,1.22,5.06,2.09a24.18,24.18,0,0,1,7.1,10.29c2.87,6.87,3.83,4.91,10.35,16.19a148.66,148.66,0,0,1,10.58,22.58c-.62,1.66-4.77,12.2-16.08,16.31A26.89,26.89,0,0,1,44.44,379.58Z" transform="translate(0 0)" fill="#fff"/>
      <path d="M520.5,360.72a3.91,3.91,0,0,1,.2-.86c.17-.56.42-1.38.74-2.46.68-2.16,1.69-5.34,3-9.43,2.67-8.16,6.53-20,11.29-34.57s10.57-31.94,16.95-51.21c1.57-4.83,3.33-9.74,4.79-14.81a45.93,45.93,0,0,0,2.12-15.76c-.05-.67-.11-1.34-.22-2a11.69,11.69,0,0,0-.37-1.94,3.18,3.18,0,0,0-2.06-2.47,4.31,4.31,0,0,0-3.29,1A14.83,14.83,0,0,0,550.7,229a135.52,135.52,0,0,0-10.65,13.55c-2.17,3.18-4.22,6.41-6.07,9.72-1,1.63-1.8,3.31-2.69,5s-1.69,3.34-2.44,5c-1.58,3.37-3,6.78-4.21,10.19-.62,1.7-1.22,3.41-1.76,5.12-.27.85-.55,1.7-.79,2.56l-.87,3c0,.55-.51.31-.86.34l-.55,0a2.61,2.61,0,0,0-.35,0,7.49,7.49,0,0,0-1.17.16,8.64,8.64,0,0,0-2.22.93,14.42,14.42,0,0,0-3.64,3.34,27.26,27.26,0,0,0-2.7,4.22A48.12,48.12,0,0,0,504.85,306a44.74,44.74,0,0,0-.64,4.71c-.08.78-.12,1.56-.15,2.34v2.75c0,.14,0,.36,0,.44l-.08.25c-.26-.24-.69-.57-1-.85a5.43,5.43,0,0,0-1-.63,2.35,2.35,0,0,0-.84,0,4.68,4.68,0,0,0-1.75.65,8.19,8.19,0,0,0-1.55,1.21,8.88,8.88,0,0,0-.66.73l-.63.83a29.39,29.39,0,0,0-3.84,7.08,29.79,29.79,0,0,0-1.77,7.51c-.07.62-.11,1.25-.14,1.87l0,.93c0,.51,0,1,.06,1.54,0,1,.12,2,.2,3l0,.37,0,.19c0,.06,0,.14,0,.1l-.07-.14c0-.06,0,.05,0,.1l0,.18,0,.1a1.14,1.14,0,0,0,0,.19v.79l-.54-1.28-.27-.64-.18-.4-.66-1.44-.16-.36c-.06-.13-.08-.11-.12-.17l-.23-.25a4.08,4.08,0,0,0-.45-.47l-.34-.24a1.69,1.69,0,0,0-.29-.17,5.71,5.71,0,0,0-.61-.29,6.56,6.56,0,0,0-2.62-.46,7.76,7.76,0,0,0-4.74,2c-2.65,2.28-4.33,5.37-5.8,8.15a45,45,0,0,0-4.54,15.61,45.55,45.55,0,0,0,.09,10.35c.07.59.14,1.11.2,1.56l.18,1.12a3.81,3.81,0,0,1,.11.93,3.93,3.93,0,0,1-.27-.89l-.27-1.11-.29-1.56a42.45,42.45,0,0,1-.4-10.46,44.85,44.85,0,0,1,4.35-16c.38-.72.74-1.46,1.15-2.19s.84-1.47,1.31-2.2a18.88,18.88,0,0,1,3.5-4.16,10.58,10.58,0,0,1,2.43-1.58,7.37,7.37,0,0,1,2.95-.73,7.71,7.71,0,0,1,3.09.52,5.28,5.28,0,0,1,.73.33c.12.07.24.13.36.21l.27.18a2.11,2.11,0,0,1,.69.8l.07.19a1.31,1.31,0,0,0,0-.17c0-.28-.05-.56-.06-.83s0-.28,0-.4l0-1c0-.64.06-1.29.12-1.94a31.41,31.41,0,0,1,1.79-7.84,30.56,30.56,0,0,1,4-7.44l.65-.87a10.05,10.05,0,0,1,.76-.85,9.35,9.35,0,0,1,1.81-1.43,6.18,6.18,0,0,1,2.29-.85,3.75,3.75,0,0,1,1.33.05,1.08,1.08,0,0,1,.29.16l.08.06s0-.05,0-.07V313c0-.8.07-1.6.13-2.41a47.92,47.92,0,0,1,.64-4.86,50.12,50.12,0,0,1,2.79-9.65,50.84,50.84,0,0,1,2.19-4.68,28.58,28.58,0,0,1,2.83-4.46,15.65,15.65,0,0,1,4-3.71,10.06,10.06,0,0,1,2.65-1.12,8.89,8.89,0,0,1,1.45-.21l.32,0h.11c.06,0,.17,0,.16-.06.2-.71.41-1.43.62-2.14.23-.87.52-1.74.79-2.6.54-1.74,1.14-3.46,1.77-5.19,1.27-3.45,2.65-6.91,4.24-10.31.76-1.72,1.63-3.4,2.46-5.11s1.76-3.37,2.73-5c1.87-3.35,3.94-6.62,6.14-9.84a132.57,132.57,0,0,1,10.78-13.71,16.79,16.79,0,0,1,3.23-3,8.12,8.12,0,0,1,2.1-1.06,4.69,4.69,0,0,1,2.53-.12,4.12,4.12,0,0,1,2.14,1.43,6.46,6.46,0,0,1,1,2.15,14.67,14.67,0,0,1,.42,2.16c.11.7.18,1.41.22,2.12.4,5.68-.75,11.17-2.22,16.3s-3.26,10-4.85,14.85c-6.51,19.24-12.36,36.56-17.28,51.1s-9,26.29-11.79,34.41c-1.42,4.05-2.53,7.2-3.28,9.33l-.89,2.41A3.41,3.41,0,0,1,520.5,360.72Z" transform="translate(0 0)" stroke="#000" stroke-miterlimit="10" stroke-width="0.5"/>
      <path d="M531.91,370.92a24.6,24.6,0,0,1,2-4.12c1.35-2.61,3.35-6.35,5.7-11,4.74-9.35,10.94-22.45,16.73-37.36q2.2-5.64,4.12-11c.32-.9.63-1.78.95-2.66a15.45,15.45,0,0,0,.68-2.54c.3-1.67,0-3.35-1.18-4s-2.86-.28-4.25.34a15.67,15.67,0,0,0-3.92,2.4,16.6,16.6,0,0,0-2.91,3.16l-.29.43-.14.21a2.17,2.17,0,0,0-.17.28l-.4.72-.19.36-.19.43c-.47,1.07-1,2.44-1.36,3.41l-.07-.13,0-.06s0-.12,0-.18l-.09-.77c-.07-.5-.13-1-.19-1.5-.12-.93-.23-1.84-.35-2.72l0-.45c0-.12-.07-.09-.15-.08l-.21,0-.22,0-.35.07-.72.2a11.18,11.18,0,0,0-4.32,2.6,18.32,18.32,0,0,0-2.59,3.56,2.53,2.53,0,0,1,.31-1.14,10.15,10.15,0,0,1,1.82-2.86,11.46,11.46,0,0,1,4.49-3l.77-.25.44-.1a5.41,5.41,0,0,1,.58-.12l.6-.09.3-.05h.08V303l0,.15.2,1.24.14.84.06.36,0,.17s0,0,0,0l0-.06,0-.12a7.9,7.9,0,0,1,.37-.89c.06-.14.15-.29.22-.42l.55-.89a18.19,18.19,0,0,1,3.08-3.48,17.08,17.08,0,0,1,4.21-2.68,9,9,0,0,1,2.59-.8,4.73,4.73,0,0,1,3,.46,4,4,0,0,1,1.9,2.54,7.66,7.66,0,0,1,.08,3,16.93,16.93,0,0,1-.73,2.82l-.94,2.67c-1.25,3.6-2.63,7.31-4.1,11.08a337.45,337.45,0,0,1-17.22,37.31c-2.49,4.63-4.66,8.3-6.18,10.82A25.39,25.39,0,0,1,531.91,370.92Z" transform="translate(0 0)" stroke="#000" stroke-miterlimit="10" stroke-width="0.5"/>
      <path d="M494.54,375.47a6.39,6.39,0,0,1,.39-1.54c.31-1,.79-2.45,1.43-4.31,1.27-3.74,3.17-9.11,5.59-15.73,4.83-13.24,11.77-31.44,19.85-51.37s15.79-37.82,21.55-50.68c2.87-6.43,5.25-11.62,6.94-15.18.85-1.78,1.51-3.16,2-4.08a5.72,5.72,0,0,1,.79-1.38,5.55,5.55,0,0,1-.49,1.51c-.37,1-.94,2.39-1.7,4.21-1.53,3.63-3.74,8.89-6.46,15.38-5.49,13-13,30.92-21.1,50.83s-15.17,38-20.28,51.17c-2.56,6.56-4.64,11.86-6.08,15.54-.72,1.83-1.3,3.24-1.71,4.2A5.4,5.4,0,0,1,494.54,375.47Z" transform="translate(0 0)" stroke="#000" stroke-miterlimit="10" stroke-width="0.5"/>
      <path d="M506,343.44c-.43.06-1.7-6.71-2.05-15.18s.34-15.31.77-15.29.5,6.84.86,15.23S506.41,343.38,506,343.44Z" transform="translate(0 0)" stroke="#000" stroke-miterlimit="10" stroke-width="0.5"/>
      <path d="M516.41,316.7c-.45,0-.24-7.44.47-16.55s1.64-16.47,2.09-16.43.24,7.45-.47,16.55S516.86,316.74,516.41,316.7Z" transform="translate(0 0)" stroke="#000" stroke-miterlimit="10" stroke-width="0.5"/>
      <path d="M529.88,314.83c.33.3-4.59,6.1-11,12.94s-11.84,12.14-12.17,11.83,4.59-6.1,11-12.94S529.55,314.52,529.88,314.83Z" transform="translate(0 0)" stroke="#000" stroke-miterlimit="10" stroke-width="0.5"/>
      <path d="M548.48,268.64c.35.28-3.36,5.31-8.55,11s-9.86,9.81-10.17,9.5,3.81-5,9-10.6S548.13,268.35,548.48,268.64Z" transform="translate(0 0)" stroke="#000" stroke-miterlimit="10" stroke-width="0.5"/>
      <path d="M535.05,270.61c-.45-.08.2-5.54,1.13-12.24s1.79-12.12,2.25-12.08.3,5.57-.64,12.31S535.49,270.69,535.05,270.61Z" transform="translate(0 0)" stroke="#000" stroke-miterlimit="10" stroke-width="0.5"/>
      <path d="M495.75,372.68c-.16.13-1.63-1.33-3.64-4a65.17,65.17,0,0,1-10.94-23.5c-.75-3.25-.92-5.31-.72-5.35.49-.11,2.23,7.9,6.49,17S496.14,372.37,495.75,372.68Z" transform="translate(0 0)" stroke="#000" stroke-miterlimit="10" stroke-width="0.5"/>
      <path d="M524.24,364.62c-.2-.08.86-3.35,2.9-8.53s5.07-12.23,8.81-19.86,7.47-14.34,10.32-19.11,4.8-7.62,5-7.51-1.39,3.17-4,8.07-6.14,11.69-9.86,19.27-6.93,14.54-9.22,19.59S524.46,364.71,524.24,364.62Z" transform="translate(0 0)" stroke="#000" stroke-miterlimit="10" stroke-width="0.5"/>
      <path d="M535,338.51c-.44-.05.13-7.41,1.67-16.37s3.47-16.08,3.9-16-.76,7.35-2.29,16.27S535.49,338.57,535,338.51Z" transform="translate(0 0)" stroke="#000" stroke-miterlimit="10" stroke-width="0.5"/>
      <path d="M553.15,318.82c.3.37-4.24,4.33-9,9.95s-8,10.69-8.44,10.45,2.27-5.78,7.2-11.51S552.91,318.48,553.15,318.82Z" transform="translate(0 0)" stroke="#000" stroke-miterlimit="10" stroke-width="0.5"/>
      <path d="M56.94,360.22a10.25,10.25,0,0,1-1.21-1.7l-3.21-5c-2.78-4.36-6.8-10.68-11.93-18.36S29.23,318.39,22,308.52L16.45,301a59.65,59.65,0,0,0-6.18-7.41,21.93,21.93,0,0,0-3.82-3c-1.35-.76-3.1-1.72-3.87-1.08a2.06,2.06,0,0,0-.69,1.65,8.33,8.33,0,0,0,.24,2.38c.33,1.69.69,3.39,1.12,5.09a104.5,104.5,0,0,0,11.19,27.5L13,326.6a.53.53,0,0,0-.05-.18.35.35,0,0,0-.08-.1.5.5,0,0,0-.22-.13.39.39,0,0,0-.26,0c-.08,0,0,.2,0,.3l0,.17,0,.28.17.91c.1.61.26,1.21.38,1.81a45.54,45.54,0,0,0,2.2,6.84,44.29,44.29,0,0,0,3.09,6.16c.58,1,1.18,1.88,1.82,2.78l.48.67.24.33.41.52.82,1a3.5,3.5,0,0,1,.36.49c0,.1,0,.16.09.31l-.91,0c-.31,0-.51,0-.77,0a2.21,2.21,0,0,0-.32,0l-.09.07a.47.47,0,0,0-.16.15,1.89,1.89,0,0,0-.38.82,5.54,5.54,0,0,0,0,2.11,6,6,0,0,0,.7,2c.37.66.71,1.33,1.09,2a60.89,60.89,0,0,0,4.65,7,65.92,65.92,0,0,0,9.34,9.94,69.68,69.68,0,0,0,7,5.31A22.54,22.54,0,0,1,45.18,380a2.52,2.52,0,0,1-.74-.31c-.46-.24-1.16-.59-2-1.12a54.28,54.28,0,0,1-7.26-5.06,63.5,63.5,0,0,1-9.71-9.85,61.94,61.94,0,0,1-4.85-7.07c-.38-.64-.74-1.32-1.13-2a7.25,7.25,0,0,1-.86-2.36,6.71,6.71,0,0,1,0-2.64,3.31,3.31,0,0,1,.63-1.37,1.72,1.72,0,0,1,.27-.27,1.23,1.23,0,0,1,.22-.17.74.74,0,0,1,.21-.07h.15s0-.07-.06-.1l-.19-.23-.1-.13-.25-.33-.5-.68c-.66-.91-1.29-1.86-1.9-2.84A46.88,46.88,0,0,1,11.53,330c-.14-.62-.3-1.24-.41-1.87l-.18-.94a3.12,3.12,0,0,1,0-.6l0-.68,0-.68c0-.2-.12-.51.19-.56a2.22,2.22,0,0,1,1.35-.28,2.59,2.59,0,0,1,1.41.62,2.33,2.33,0,0,1,.51.65,2.14,2.14,0,0,1,.23.73l.6,3.94-2-3.45A103.81,103.81,0,0,1,1.67,299c-.44-1.72-.8-3.45-1.14-5.17A10.18,10.18,0,0,1,.27,291a4.92,4.92,0,0,1,.32-1.51,2.91,2.91,0,0,1,1.08-1.37,2.87,2.87,0,0,1,1.69-.49,4.71,4.71,0,0,1,1.51.33,16.29,16.29,0,0,1,2.4,1.2,23.14,23.14,0,0,1,4.11,3.21A60.86,60.86,0,0,1,17.7,300q2.86,3.87,5.55,7.6c7.15,9.93,13.3,19.09,18.31,26.87s8.88,14.2,11.5,18.67c1.31,2.23,2.3,4,2.95,5.18A9.47,9.47,0,0,1,56.94,360.22Z" transform="translate(0 0)" stroke="#000" stroke-miterlimit="10" stroke-width="0.5"/>
      <path d="M76,361.12a16.54,16.54,0,0,1-1.71-3.27c-1-2.13-2.49-5.22-4.4-9a228,228,0,0,0-17-28.22c-1.12-1.6-2.28-3.18-3.4-4.68a10.7,10.7,0,0,0-3.83-3.44c-.7-.34-1.63-.51-1.82-.29a1,1,0,0,0-.34.65,7.72,7.72,0,0,0-.1,1.16v.63l0,.89a22.25,22.25,0,0,0,.21,2.31l.84,5.15c-.89-1.59-1.89-3.38-2.81-4.93a12.69,12.69,0,0,0-1.33-1.9,7,7,0,0,0-.87-.86,4.37,4.37,0,0,0-1.91-1,4.12,4.12,0,0,0-2,.07,2.66,2.66,0,0,0-1.46,1,2.73,2.73,0,0,0-.43,1.65,25.78,25.78,0,0,0,.48,3.49c.87,4.26,1.9,6.59,1.72,6.66s-.4-.52-.89-1.6a31.34,31.34,0,0,1-1.66-4.87,23.15,23.15,0,0,1-.68-3.65,3.86,3.86,0,0,1,.52-2.28,3.81,3.81,0,0,1,2-1.54,5.27,5.27,0,0,1,2.62-.18,5.78,5.78,0,0,1,2.5,1.18,9.06,9.06,0,0,1,1,.93,3.2,3.2,0,0,1,.31.37,8.37,8.37,0,0,1,.46.7c-.06-.29-.1-.57-.13-.83l0-.39V314a7.71,7.71,0,0,1,.12-1.45,2.27,2.27,0,0,1,2.81-1.95,6.62,6.62,0,0,1,1.49.46,12.16,12.16,0,0,1,4.47,3.9c1.17,1.55,2.31,3.1,3.45,4.73a186.7,186.7,0,0,1,16.68,28.65c1.79,3.85,3.09,7,3.94,9.24A15.41,15.41,0,0,1,76,361.12Z" transform="translate(0 0)" stroke="#000" stroke-miterlimit="10" stroke-width="0.5"/>
      <path d="M55.15,371.45a16.32,16.32,0,0,1-2.59-2.67C51,367,48.76,364.34,46.09,361c-5.35-6.67-12.4-16.16-19.53-27.09s-12.95-21.22-16.9-28.8c-2-3.79-3.5-6.89-4.5-9.07a16.17,16.17,0,0,1-1.4-3.44,16,16,0,0,1,2,3.15l4.95,8.8C14.87,312,20.84,322.12,27.93,333s14,20.44,19.07,27.27l6.06,8.09A17.42,17.42,0,0,1,55.15,371.45Z" transform="translate(0 0)" stroke="#000" stroke-miterlimit="10" stroke-width="0.5"/>
      <path d="M50.17,363.91c-.11.41-6.72-1.15-14.22-4.78s-12.87-7.76-12.62-8.1,5.94,3.11,13.33,6.64S50.31,363.46,50.17,363.91Z" transform="translate(0 0)" stroke="#000" stroke-miterlimit="10" stroke-width="0.5"/>
      <path d="M32.07,339.74c-.38.2-3.33-5.09-5.18-12.28S25,314.22,25.43,314.21s1.2,5.83,3,12.84S32.5,339.54,32.07,339.74Z" transform="translate(0 0)" stroke="#000" stroke-miterlimit="10" stroke-width="0.5"/>
      <path d="M22.81,324.06c-.28.34-3.7-2.19-7.62-5.66s-6.86-6.56-6.55-6.88,3.72,2.2,7.63,5.66S23.1,323.71,22.81,324.06Z" transform="translate(0 0)" stroke="#000" stroke-miterlimit="10" stroke-width="0.5"/>
      <path d="M22,324.21c-.41.15-2.1-3.72-2.76-8.84s0-9.29.4-9.25.56,4.1,1.22,9S22.42,324.06,22,324.21Z" transform="translate(0 0)" stroke="#000" stroke-miterlimit="10" stroke-width="0.5"/>
      <path d="M64.9,361c-.19.11-1.73-2.15-4-5.92s-5.31-9.08-8.46-15-5.84-11.44-7.67-15.46-2.83-6.57-2.63-6.67,1.57,2.27,3.66,6.15l8.08,15.21c3.13,5.95,6,11.33,8,15.23S65.1,360.91,64.9,361Z" transform="translate(0 0)" stroke="#000" stroke-miterlimit="10" stroke-width="0.5"/>
      <path d="M57.1,345.84c-.3.35-4.07-2.42-8.73-5.78s-8.46-6.08-8.23-6.47,4.47,1.73,9.19,5.15S57.39,345.51,57.1,345.84Z" transform="translate(0 0)" stroke="#000" stroke-miterlimit="10" stroke-width="0.5"/>
      <path d="M53.37,337.23c-.41.12-1.88-3.81-2.17-8.94s.68-9.2,1.11-9.12.21,4.1.51,9S53.82,337.11,53.37,337.23Z" transform="translate(0 0)" stroke="#000" stroke-miterlimit="10" stroke-width="0.5"/>
    </g>
    <g id="chest">
      <path d="M26,203.25a48.48,48.48,0,0,0-12.39,13.86c-6.38,10.74-6.71,21-6.82,26.84a61.48,61.48,0,0,0,17.81,44.72,61.89,61.89,0,0,0,9.78,8l23.49,6q-.44,12.27-.66,24.86-.43,25,0,48.73c29.4,13.48,51,19.56,65.63,22.6,5,1,18.16,3.58,36.15,8.41,10.77,2.9,19.53,5.61,25.32,7.48,14.14-6,26.2-11.43,35.69-15.75,11.85-5.4,26.4-12.06,45.1-21.47,9.92-5,18.21-9.37,24.29-12.62q-.2-12.12-.47-24.34-.62-27.21-1.63-53.86l-3.12-1a23,23,0,0,0-3.89-6.88c-1.87-2.28-5.86-7.12-12.05-7.36a14.86,14.86,0,0,0-10.09,3.94,12.17,12.17,0,0,0-7.5-2.17,12.3,12.3,0,0,0-8.22,3.87,51.39,51.39,0,0,0-7.89-5.71,38.79,38.79,0,0,0-13-5.06c-3.41-.59-6.15-1-8.66.61a8.8,8.8,0,0,0-3.39,4.59c-3.5-2-6.17-2.18-8-1.93-2.74.38-3.73,1.72-8.71,3.14-2.58.74-3.86,1.11-5.08,1-3.46-.38-4-2.81-8.23-3.87a14.68,14.68,0,0,0-5.32-.24,14.88,14.88,0,0,0-5.56,1.93q-1.83-8.78-3.59-17.66-3.47-17.48-6.57-34.59l-10.65-1c-12.32-1.13-21.76-2-23.22-2.17-9.63-.93-21.38-2.34-54.19-6.78C58.77,207.79,43.69,205.73,26,203.25Z" transform="translate(0 0)" fill="#fff"/>
      <path d="M184.88,415.77a13.78,13.78,0,0,1-.55-3.34c-.25-2.16-.56-5.28-.89-9.15-.67-7.74-1.44-18.44-2.11-30.27s-1.12-22.55-1.33-30.31c-.11-3.89-.16-7-.16-9.2a13.13,13.13,0,0,1,.18-3.38,13.66,13.66,0,0,1,.46,3.35c.19,2.17.42,5.3.67,9.17.51,7.75,1.13,18.45,1.8,30.28s1.27,22.53,1.64,30.28c.19,3.88.31,7,.37,9.19A13.36,13.36,0,0,1,184.88,415.77Z" transform="translate(0 0)" stroke="#000" stroke-miterlimit="10" stroke-width="0.5"/>
      <path d="M288.8,364.9a24.55,24.55,0,0,1-3.83,2.49c-2.51,1.51-6.2,3.61-10.8,6.12-9.19,5-22.11,11.61-36.6,18.38s-27.77,12.52-37.42,16.61c-4.82,2-8.74,3.65-11.46,4.74a25.12,25.12,0,0,1-4.3,1.53,24.19,24.19,0,0,1,4-2.11c2.65-1.27,6.49-3,11.26-5.22,9.52-4.35,22.72-10.28,37.19-17s27.44-13.15,36.76-17.92l11-5.66A25.39,25.39,0,0,1,288.8,364.9Z" transform="translate(0 0)" stroke="#000" stroke-miterlimit="10" stroke-width="0.5"/>
      <path d="M282,288.09c.17.41-22.06,9.8-49.66,21s-50.1,19.88-50.27,19.46,22.07-9.8,49.66-21S281.81,287.67,282,288.09Z" transform="translate(0 0)" stroke="#000" stroke-miterlimit="10" stroke-width="0.5"/>
      <path d="M289.41,364.91c-.45,0-1.12-15.93-1.5-35.59s-.31-35.62.14-35.62,1.12,15.92,1.49,35.59S289.86,364.9,289.41,364.91Z" transform="translate(0 0)" stroke="#000" stroke-miterlimit="10" stroke-width="0.5"/>
      <path d="M183.72,414.6a43.77,43.77,0,0,1-5-1.5c-3.17-1-7.8-2.36-13.6-3.73s-12.76-2.78-20.5-4.37a257.27,257.27,0,0,1-25-6.2c-8.74-2.69-16.92-5.67-24.32-8.43L75.71,383c-5.58-2.13-10.08-3.88-13.18-5.13a31.75,31.75,0,0,1-4.76-2.09,30.57,30.57,0,0,1,5,1.5c3.16,1.06,7.73,2.65,13.36,4.64L95.86,389c7.42,2.68,15.59,5.61,24.27,8.28s17.11,4.63,24.83,6.29,14.68,3.17,20.47,4.72A133.75,133.75,0,0,1,179,412.5c1.57.58,2.76,1.1,3.57,1.46S183.74,414.54,183.72,414.6Z" transform="translate(0 0)" stroke="#000" stroke-miterlimit="10" stroke-width="0.5"/>
      <ellipse cx="57.23" cy="341.63" rx="0.82" ry="34.63" stroke="#000" stroke-miterlimit="10" stroke-width="0.5"/>
      <path d="M180.12,329.86a5.31,5.31,0,0,1-1.52-.09c-1-.11-2.44-.3-4.31-.56-3.74-.51-9.13-1.37-15.79-2.5-13.3-2.27-31.62-5.83-51.68-10.51s-38.06-9.62-51-13.48c-6.47-1.93-11.69-3.56-15.27-4.75-1.79-.6-3.18-1.07-4.11-1.41a4.91,4.91,0,0,1-1.4-.6,5.8,5.8,0,0,1,1.5.29c1,.23,2.38.61,4.2,1.11l15.39,4.25c13,3.57,31,8.32,51.05,13s38.28,8.39,51.52,10.95l15.69,3c1.85.36,3.28.65,4.25.87A4.9,4.9,0,0,1,180.12,329.86Z" transform="translate(0 0)" stroke="#000" stroke-miterlimit="10" stroke-width="0.5"/>
      <path d="M25.84,203.76c.06.13-1.33.77-3.41,2.51a31.64,31.64,0,0,0-7.09,8.91A61.18,61.18,0,0,0,9.26,231a62.46,62.46,0,0,0-1.33,20.69,60.72,60.72,0,0,0,5.61,20,59.65,59.65,0,0,0,4.5,7.9c.77,1.2,1.61,2.29,2.39,3.37S22,285,22.84,285.9a68.39,68.39,0,0,0,8.25,8c1,.88,1.89,1.52,2.45,2s.85.72.81.76-.37-.12-1-.49a28.92,28.92,0,0,1-2.66-1.74A56.59,56.59,0,0,1,22,286.66c-.86-.89-1.66-1.91-2.54-2.94s-1.71-2.17-2.52-3.38a59.18,59.18,0,0,1-4.74-8A60.21,60.21,0,0,1,6.31,251.9,62,62,0,0,1,7.8,230.69a64.08,64.08,0,0,1,2.9-8.84,61.15,61.15,0,0,1,3.64-7.25,29.62,29.62,0,0,1,7.7-8.83,17.94,17.94,0,0,1,2.74-1.65C25.45,203.83,25.81,203.71,25.84,203.76Z" transform="translate(0 0)" stroke="#000" stroke-miterlimit="10" stroke-width="0.5"/>
      <path d="M157.78,219a32,32,0,0,1-5.23-.11c-3.35-.16-8.2-.49-14.18-1-12-.93-28.5-2.48-46.69-4.65s-34.62-4.56-46.48-6.48c-5.92-.95-10.71-1.78-14-2.4a31.8,31.8,0,0,1-5.1-1.13,31.77,31.77,0,0,1,5.2.5l14.08,1.89c11.89,1.63,28.32,3.82,46.5,6s34.66,3.9,46.6,5.12l14.14,1.48A32.75,32.75,0,0,1,157.78,219Z" transform="translate(0 0)" stroke="#000" stroke-miterlimit="10" stroke-width="0.5"/>
      <path d="M180.2,329.36c-.44.09-5.79-24.74-11.95-55.46s-10.79-55.7-10.35-55.79,5.79,24.75,11.95,55.47S180.64,329.27,180.2,329.36Z" transform="translate(0 0)" stroke="#000" stroke-miterlimit="10" stroke-width="0.5"/>
      <path d="M179.34,329.7a4.07,4.07,0,0,1-1.35-.19,12.33,12.33,0,0,1-1.59-.42,20.21,20.21,0,0,1-2.14-.73,34.44,34.44,0,0,1-5.55-2.75,43.78,43.78,0,0,1-6.53-5,67.57,67.57,0,0,1-13-16.86,86.78,86.78,0,0,1-9.34-24.3,72.09,72.09,0,0,1-.91-26,64.39,64.39,0,0,1,6.61-20.22,55,55,0,0,1,8.18-11.77c.59-.61,1.1-1.16,1.55-1.63l1.22-1.11c.66-.6,1-.89,1.07-.85s-.25.41-.84,1.08l-1.09,1.21-1.43,1.72a62,62,0,0,0-7.64,11.87,66.05,66.05,0,0,0-6.14,19.92,72.34,72.34,0,0,0,1,25.47A88.17,88.17,0,0,0,150.52,303,69.21,69.21,0,0,0,163,319.79a45,45,0,0,0,6.23,5,39.23,39.23,0,0,0,5.3,2.94C177.55,329.13,179.38,329.55,179.34,329.7Z" transform="translate(0 0)" stroke="#000" stroke-miterlimit="10" stroke-width="0.5"/>
      <path d="M287.36,290.91a23.25,23.25,0,0,1-3.94,2.35c-2.6,1.41-6.41,3.36-11.19,5.6-9.55,4.54-23.05,10.1-38,16.06s-28.5,11.34-38.35,15.13c-4.93,1.89-8.91,3.41-11.7,4.4s-4.44,1.25-4.46,1.15,1.53-.59,4.23-1.74,6.63-2.86,11.5-4.88c9.74-4.07,23.23-9.58,38.18-15.57s28.48-11.34,38.12-15.6c4.83-2.1,8.7-3.89,11.38-5.12A26.75,26.75,0,0,1,287.36,290.91Z" transform="translate(0 0)" stroke="#000" stroke-miterlimit="10" stroke-width="0.5"/>
      <path d="M288.27,295.56c-.45.06-1-3.55-1.34-7.82,0-.12-.09-.27-.23-.24a.23.23,0,0,0-.11,0l-.37.09-.71.17c-.92.23-1.76.41-2.47.53-1.43.26-2.34.31-2.4.09s.74-.65,2.08-1.19c.67-.27,1.48-.57,2.38-.87l.69-.23.36-.11a3.15,3.15,0,0,1,.64-.14,1.45,1.45,0,0,1,1.21.41,2.07,2.07,0,0,1,.54,1.25C288.86,292,288.72,295.51,288.27,295.56Z" transform="translate(0 0)" stroke="#000" stroke-miterlimit="10" stroke-width="0.5"/>
      <path d="M177.16,328.61a21.61,21.61,0,0,1-1.57-4c-.92-2.61-2.14-6.41-3.57-11.14-2.87-9.45-6.44-22.63-9.65-37.36s-5.44-28.2-6.77-38c-.67-4.89-1.14-8.86-1.39-11.61a21.91,21.91,0,0,1-.24-4.29,21.71,21.71,0,0,1,.87,4.21l1.9,11.52c1.61,9.72,4,23.12,7.22,37.82s6.59,27.87,9.17,37.39c1.29,4.75,2.34,8.6,3.07,11.26A22.64,22.64,0,0,1,177.16,328.61Z" transform="translate(0 0)" stroke="#000" stroke-miterlimit="10" stroke-width="0.5"/>
      <path d="M61.78,213.09c-.05.44-9.09-.39-20.1-2.29S21.87,206.67,22,206.24s9,1.07,20,3S61.84,212.64,61.78,213.09Z" transform="translate(0 0)" stroke="#000" stroke-miterlimit="10" stroke-width="0.5"/>
      <path d="M75.85,216.11c.17.11-.29,1.32-1.52,3a11.34,11.34,0,0,1-2.69,2.67,6.76,6.76,0,0,1-4.71,1.2,7,7,0,0,1-4.26-2.33A7.23,7.23,0,0,1,61,217.15c-.33-2.21.3-3.48.48-3.43s.08,1.33.64,3.17a7,7,0,0,0,1.63,2.78,6,6,0,0,0,3.37,1.73,5.67,5.67,0,0,0,3.68-.84,13.27,13.27,0,0,0,2.62-2.15C74.83,217,75.65,216,75.85,216.11Z" transform="translate(0 0)" stroke="#000" stroke-miterlimit="10" stroke-width="0.5"/>
      <path d="M150.4,224.14a10.68,10.68,0,0,1-3,.1c-1.91,0-4.66-.16-8.06-.37-6.81-.4-16.2-1.14-26.54-2.24s-19.68-2.36-26.41-3.4c-3.37-.52-6.09-1-8-1.34a11.07,11.07,0,0,1-2.89-.73c0-.23,4.23.18,11,.93L113,220l26.46,2.72C146.23,223.42,150.42,223.91,150.4,224.14Z" transform="translate(0 0)" stroke="#000" stroke-miterlimit="10" stroke-width="0.5"/>
      <path d="M284.17,285.65c-.14.06-.84-1.64-2.61-4.4a26.33,26.33,0,0,0-3.75-4.59,16.58,16.58,0,0,0-6.52-4,13.42,13.42,0,0,0-9,.4,10,10,0,0,0-2.13,1.26,7.35,7.35,0,0,0-.94.83l-.24.24-.34.41c-.23.27-.45.57-.69.82a13.15,13.15,0,0,0-2.89-1.56,11.34,11.34,0,0,0-10.69,1.49,5.61,5.61,0,0,1-1.58.9,2.74,2.74,0,0,1-2.14-.19,6.36,6.36,0,0,1-1.46-1.11c-.4-.37-.76-.73-1.16-1.08-.78-.71-1.62-1.37-2.48-2a34,34,0,0,0-5.6-3.32,32,32,0,0,0-6.13-2.18,19.29,19.29,0,0,0-6.17-.47,11.76,11.76,0,0,0-5.5,1.84,7.23,7.23,0,0,0-1.92,1.94,7,7,0,0,0-.49.88l-.27.53-.14.26s0,.06,0,.05l-.07,0-.15-.06-1.17-.5-.7-.26a14.9,14.9,0,0,0-10.35.32,47.13,47.13,0,0,1-4.68,2,8.25,8.25,0,0,1-4.91-.18,23.25,23.25,0,0,1-3.91-1.81c-1.17-.64-2.26-1.25-3.31-1.69a10.83,10.83,0,0,0-5.69-.88,11.71,11.71,0,0,0-3.57,1,6.81,6.81,0,0,1-1.21.55s.3-.37,1.06-.84a10.4,10.4,0,0,1,3.63-1.34,11.22,11.22,0,0,1,6.12.66c2.26.83,4.53,2.41,7.22,3.25a7.06,7.06,0,0,0,4.22.07,46.27,46.27,0,0,0,4.5-2.07,16.21,16.21,0,0,1,11.36-.49l.68.24.19.08s.06,0,.08-.07l.07-.13a2.27,2.27,0,0,1,.25-.41,8.83,8.83,0,0,1,2.3-2.38,13.25,13.25,0,0,1,6.24-2.15,20.89,20.89,0,0,1,6.71.48,33.84,33.84,0,0,1,6.44,2.28,34.48,34.48,0,0,1,5.87,3.5,31.32,31.32,0,0,1,2.59,2.11,17.8,17.8,0,0,0,2.27,2,1.17,1.17,0,0,0,.94.1,4.3,4.3,0,0,0,1.13-.66,13.15,13.15,0,0,1,2.89-1.59,13.3,13.3,0,0,1,6.27-.74,13,13,0,0,1,3,.74,12.07,12.07,0,0,1,1.37.63l.33.18.14.07.05,0,.2.13.2-.23.1-.12.25-.24a8.83,8.83,0,0,1,1.1-.94,11.31,11.31,0,0,1,2.45-1.4,14.52,14.52,0,0,1,9.9-.25,17.31,17.31,0,0,1,6.83,4.46,24.81,24.81,0,0,1,3.64,4.91,27.27,27.27,0,0,1,1.67,3.45A4.3,4.3,0,0,1,284.17,285.65Z" transform="translate(0 0)" stroke="#000" stroke-miterlimit="10" stroke-width="0.5"/>
      <path d="M173.72,286c.2.11.17.62.69,1a.75.75,0,0,0,.76.15,1,1,0,0,0,.52-.8.94.94,0,0,0-.4-.9,1.57,1.57,0,0,0-.49-.27,2,2,0,0,0-.35-.11l-.18,0-.11.1c-.06.07-.13.12-.21.22s-.32.31-.43.28-.16-.2-.18-.47a3.6,3.6,0,0,1,.07-.64,1.64,1.64,0,0,1,.12-.4,2.81,2.81,0,0,1,.42-.17,2.75,2.75,0,0,1,1.09-.12,2.79,2.79,0,0,1,1.06.34,2.41,2.41,0,0,1,.93.92,2.28,2.28,0,0,1,.28,1.45,2.38,2.38,0,0,1-1.75,2,1.9,1.9,0,0,1-1.29-.17,2,2,0,0,1-.75-.69,1.58,1.58,0,0,1-.21-1.38C173.44,286,173.63,285.91,173.72,286Z" transform="translate(0 0)" stroke="#000" stroke-miterlimit="10" stroke-width="0.5"/>
      <path d="M176.6,290.24c.19-.14.68.24,1.46.09a1.53,1.53,0,0,0,1-.58,1.19,1.19,0,0,0,0-1.2,1.16,1.16,0,0,0-1-.68,1.54,1.54,0,0,0-1,.5c-.56.57-.53,1.19-.75,1.26s-.27-.08-.39-.42a2,2,0,0,1,.17-1.47,2.53,2.53,0,0,1,1.86-1.37,2.35,2.35,0,0,1,1.5.3,2.86,2.86,0,0,1,1.4,2.64,2.32,2.32,0,0,1-.6,1.4,2.56,2.56,0,0,1-2.18.78,2.06,2.06,0,0,1-1.31-.69C176.52,290.52,176.52,290.3,176.6,290.24Z" transform="translate(0 0)" stroke="#000" stroke-miterlimit="10" stroke-width="0.5"/>
      <path d="M180.77,292.49c.12,0,.21.19.39.35a1.39,1.39,0,0,0,.9.36,1,1,0,0,0,.55-.12.89.89,0,0,0,.35-.44,1.72,1.72,0,0,0-.2-1.55,1.84,1.84,0,0,0-1.41-.76,1.1,1.1,0,0,0-1,.6c-.44.76-.06,1.36-.19,1.53s-.31.06-.59-.25a1.88,1.88,0,0,1-.31-1.67,2.18,2.18,0,0,1,.64-1.09,2.41,2.41,0,0,1,1.37-.62,3.14,3.14,0,0,1,2.86,1.33,3,3,0,0,1,.19,3.17,2.15,2.15,0,0,1-1.19,1,2,2,0,0,1-1.3,0,1.76,1.76,0,0,1-1.22-1.21C180.51,292.68,180.68,292.48,180.77,292.49Z" transform="translate(0 0)" stroke="#000" stroke-miterlimit="10" stroke-width="0.5"/>
      <path d="M184.35,294.5c.22-.05.53.62,1.41.86a1.32,1.32,0,0,0,1.25-.25,1.45,1.45,0,0,0,.44-1.39,1.38,1.38,0,0,0-1.13-.88,1,1,0,0,0-1.09.45,1.39,1.39,0,0,0-.28.93c0,.24.12.42.06.52s-.31.1-.62-.22a1.77,1.77,0,0,1-.21-1.72,2.21,2.21,0,0,1,.78-1,2.48,2.48,0,0,1,1.44-.42,2.77,2.77,0,0,1,2.62,1.93,2.82,2.82,0,0,1-1.12,3.05,2.42,2.42,0,0,1-1.43.43,2.64,2.64,0,0,1-1.19-.34,2.18,2.18,0,0,1-1-1.29C184.16,294.73,184.25,294.52,184.35,294.5Z" transform="translate(0 0)" stroke="#000" stroke-miterlimit="10" stroke-width="0.5"/>
      <path d="M189,296.53c.14-.19.72,0,1.46-.26a1.73,1.73,0,0,0,.92-.76,1.21,1.21,0,0,0-.12-1.19,1.12,1.12,0,0,0-1-.58,1.38,1.38,0,0,0-.89.62c-.44.63-.25,1.2-.43,1.34s-.29,0-.49-.3a1.88,1.88,0,0,1-.15-1.48,2.39,2.39,0,0,1,1.64-1.64,2.49,2.49,0,0,1,2.68,1.16,2.85,2.85,0,0,1,.45,1.47,2.46,2.46,0,0,1-.44,1.42,2.57,2.57,0,0,1-2,1.07,2.14,2.14,0,0,1-1.39-.37C189,296.81,188.89,296.61,189,296.53Z" transform="translate(0 0)" stroke="#000" stroke-miterlimit="10" stroke-width="0.5"/>
      <path d="M193.18,293.61c.21-.09.61.31,1.31.11a1.09,1.09,0,0,0,.77-.6.93.93,0,0,0-.38-.94,1.07,1.07,0,0,0-1.09-.25,1.62,1.62,0,0,0-.8.83c-.35.7-.2,1.29-.41,1.4s-.28,0-.46-.31a2.12,2.12,0,0,1-.25-1.39,2.6,2.6,0,0,1,1.22-1.86,2.37,2.37,0,0,1,1.46-.29,2.64,2.64,0,0,1,1.39.63,2.34,2.34,0,0,1,.67,2.84,2.19,2.19,0,0,1-2.06,1.09,1.68,1.68,0,0,1-1.33-.69C193,293.87,193.09,293.65,193.18,293.61Z" transform="translate(0 0)" stroke="#000" stroke-miterlimit="10" stroke-width="0.5"/>
      <path d="M180,279.43c.11.09.09.31.23.49s.44.43.68.35a1.26,1.26,0,0,0,.63-.47,1.88,1.88,0,0,0,.38-1,.54.54,0,0,0-.13-.35.91.91,0,0,0-.44-.26,1.45,1.45,0,0,0-1.07.12c-.69.33-1.14.78-1.34.64s-.13-.78.67-1.58a2.82,2.82,0,0,1,.82-.52,2.38,2.38,0,0,1,1.2-.14,2.42,2.42,0,0,1,1.27.59,2,2,0,0,1,.65,1.5,3,3,0,0,1-.86,2,2.27,2.27,0,0,1-1.87.74,1.58,1.58,0,0,1-1.09-.68,1.36,1.36,0,0,1-.24-.89C179.55,279.44,179.91,279.34,180,279.43Z" transform="translate(0 0)" stroke="#000" stroke-miterlimit="10" stroke-width="0.5"/>
      <path d="M182.45,280.44c.24,0,.42.56,1.12.83a1.37,1.37,0,0,0,1.05,0,1.12,1.12,0,0,0-.07-1.86,1.3,1.3,0,0,0-1.05.09c-.67.32-.82.89-1.05.9s-.24-.15-.25-.5a1.85,1.85,0,0,1,.6-1.31A2.36,2.36,0,0,1,185,278a2.2,2.2,0,0,1,1.25.85,2.66,2.66,0,0,1,.49,1.45,2.75,2.75,0,0,1-.38,1.48,2.24,2.24,0,0,1-1.19.94,2.38,2.38,0,0,1-2.22-.47,1.91,1.91,0,0,1-.69-1.27C182.22,280.61,182.35,280.45,182.45,280.44Z" transform="translate(0 0)" stroke="#000" stroke-miterlimit="10" stroke-width="0.5"/>
      <path d="M186.5,283.28c.11,0,.25.13.46.36a2.34,2.34,0,0,0,.87.69c.35.08.53,0,.74-.49a2.36,2.36,0,0,0-.09-1.78,1.38,1.38,0,0,0-1.27-.82,1.16,1.16,0,0,0-.62.18.86.86,0,0,0-.33.43,1.52,1.52,0,0,0,0,1c.1.25.23.4.19.51s-.28.16-.65-.07a1.85,1.85,0,0,1-.71-1.62,2,2,0,0,1,.56-1.25,2.34,2.34,0,0,1,1.4-.67,2.79,2.79,0,0,1,2.86,1.59,3.58,3.58,0,0,1,0,3.16,2.15,2.15,0,0,1-1.23,1.07,1.66,1.66,0,0,1-1.44-.24,2.16,2.16,0,0,1-.88-1.43C186.32,283.52,186.4,283.3,186.5,283.28Z" transform="translate(0 0)" stroke="#000" stroke-miterlimit="10" stroke-width="0.5"/>
      <path d="M190.05,286.91c.16-.16.67,0,1.25-.32a1.32,1.32,0,0,0,.63-.77,1.24,1.24,0,0,0-.33-1,1.63,1.63,0,0,0-1.11-.56,1.05,1.05,0,0,0-.82.26.73.73,0,0,0-.13.63c0,.2.13.33.08.42s-.28.17-.58,0a1.31,1.31,0,0,1-.45-1.43,2,2,0,0,1,1.81-1.35,2.88,2.88,0,0,1,2.42,1,2.56,2.56,0,0,1,.52,2.65,2.3,2.3,0,0,1-1.7,1.34,1.67,1.67,0,0,1-1.36-.28C190,287.19,190,287,190.05,286.91Z" transform="translate(0 0)" stroke="#000" stroke-miterlimit="10" stroke-width="0.5"/>
      <path d="M193,290.26c-.05-.24.51-.5,1.15-.95a2.28,2.28,0,0,0,.77-.89.8.8,0,0,0,0-.88.92.92,0,0,0-.85-.25.73.73,0,0,0-.48.62c-.14.63.21,1,.1,1.25s-.25.13-.54,0a1.62,1.62,0,0,1-.71-1.17,2,2,0,0,1,.1-1,1.94,1.94,0,0,1,.87-1,2.29,2.29,0,0,1,2.71.49,2.07,2.07,0,0,1,.55,1.47,2.38,2.38,0,0,1-.4,1.26,2.86,2.86,0,0,1-1.57,1.19C193.66,290.63,193.08,290.45,193,290.26Z" transform="translate(0 0)" stroke="#000" stroke-miterlimit="10" stroke-width="0.5"/>
      <path d="M195.57,292.36c-.06-.08.14-.39.73-.64a3.44,3.44,0,0,1,2.66.11,4.47,4.47,0,0,1,1.56,1.1,4.32,4.32,0,0,1,1,2,5.91,5.91,0,0,1-1.28,4.7,5.46,5.46,0,0,1-4.39,2.2,3.44,3.44,0,0,1-2.14-.91,4.16,4.16,0,0,1-1.06-1.61,4.74,4.74,0,0,1-.19-2.59c.13-.6.33-.88.43-.86s.14.35.2.89a6,6,0,0,0,.62,2.09,2.53,2.53,0,0,0,2.2,1.49,4.22,4.22,0,0,0,3-1.72A4.73,4.73,0,0,0,200,295.2a3.2,3.2,0,0,0-1.58-2.34,3.46,3.46,0,0,0-2-.52C195.94,292.36,195.63,292.47,195.57,292.36Z" transform="translate(0 0)" stroke="#000" stroke-miterlimit="10" stroke-width="0.5"/>
      <path d="M218.58,284.69c.16-.18.8.26,1.84.49a2.55,2.55,0,0,0,1.61-.12,1.5,1.5,0,0,0,.77-1.35c0-.57-.25-.76-.87-.82a4.52,4.52,0,0,0-1.7.29.85.85,0,0,0-.38.29,1.08,1.08,0,0,0-.14.39c0,.26.09.42,0,.5s-.38.08-.61-.32a1.21,1.21,0,0,1-.13-.83,1.65,1.65,0,0,1,.59-1,3.12,3.12,0,0,1,1.06-.57,4.49,4.49,0,0,1,1.28-.28,2.5,2.5,0,0,1,1.7.49,2.34,2.34,0,0,1,.82,1.8,2.88,2.88,0,0,1-1.86,2.78,3.38,3.38,0,0,1-2.54-.19C218.78,285.62,218.43,284.82,218.58,284.69Z" transform="translate(0 0)" stroke="#000" stroke-miterlimit="10" stroke-width="0.5"/>
      <path d="M231.39,294.56c-.06.25-1.29.05-3.2.28a13.16,13.16,0,0,0-6.7,2.86,12.45,12.45,0,0,0-1.11,1.06l-.48.56a1.81,1.81,0,0,1-1,.75,1.55,1.55,0,0,1-.71,0,2.3,2.3,0,0,1-.34-.12l-.25-.12a5.24,5.24,0,0,0-.65-.27,6.49,6.49,0,0,0-1.31-.3,5.25,5.25,0,0,0-2.2.19c-1.21.38-1.68,1.11-1.87,1s-.05-.28.15-.65a3.31,3.31,0,0,1,1.32-1.23,5.47,5.47,0,0,1,2.68-.63,7,7,0,0,1,1.65.22,6.74,6.74,0,0,1,.86.3l.1,0h0l.06,0a.22.22,0,0,0,.11,0c.07,0,.1-.07.15-.14l.54-.66a12.32,12.32,0,0,1,1.26-1.24,11.91,11.91,0,0,1,7.69-2.76C230.26,293.75,231.45,294.38,231.39,294.56Z" transform="translate(0 0)" stroke="#000" stroke-miterlimit="10" stroke-width="0.5"/>
      <path d="M248.62,288.51c0,.47-2.25.6-4.51,1.88s-3.59,3-4,2.81c-.18-.1-.1-.73.41-1.59a7.79,7.79,0,0,1,6.55-3.61C248.06,288,248.64,288.3,248.62,288.51Z" transform="translate(0 0)" stroke="#000" stroke-miterlimit="10" stroke-width="0.5"/>
      <path d="M189.67,313.92c.18-.18,1,.63,2.47.62a3.47,3.47,0,0,0,2.26-.85,2.15,2.15,0,0,0,.65-1.1.94.94,0,0,0-.24-1,1.94,1.94,0,0,0-1.22-.38,6.84,6.84,0,0,0-1.56.17,3.42,3.42,0,0,0-2.18,1,1.29,1.29,0,0,0,.06,1.34c.2.29.49.33.49.45s-.31.35-.89,0a1.67,1.67,0,0,1-.69-.85,2,2,0,0,1,0-1.51,2.88,2.88,0,0,1,1.19-1.28,7.07,7.07,0,0,1,1.64-.67,6.93,6.93,0,0,1,2-.3,3.32,3.32,0,0,1,2.32.78,2.52,2.52,0,0,1,.71,1.23,2.74,2.74,0,0,1,0,1.31,3.55,3.55,0,0,1-1.22,1.84,4.24,4.24,0,0,1-3.34.86,3.5,3.5,0,0,1-2-1C189.66,314.28,189.6,314,189.67,313.92Z" transform="translate(0 0)" stroke="#000" stroke-miterlimit="10" stroke-width="0.5"/>
      <path d="M189,316.26c-.45,0-.81-.83-.81-1.86s.36-1.86.81-1.86.82.83.82,1.86S189.45,316.26,189,316.26Z" transform="translate(0 0)" stroke="#000" stroke-miterlimit="10" stroke-width="0.5"/>
      <path d="M196.26,315.15c.2.06.27.64-.14,1.44a4.11,4.11,0,0,1-6.13,1.23c-.69-.58-.85-1.14-.69-1.28s.61.08,1.26.28a4.47,4.47,0,0,0,4.64-.93C195.72,315.45,196,315.08,196.26,315.15Z" transform="translate(0 0)" stroke="#000" stroke-miterlimit="10" stroke-width="0.5"/>
      <path d="M196.45,315.4c-.44.06-.9-.6-1-1.46s.17-1.62.61-1.67.9.6,1,1.46S196.9,315.35,196.45,315.4Z" transform="translate(0 0)" stroke="#000" stroke-miterlimit="10" stroke-width="0.5"/>
      <path d="M207.69,278.37c.07-.19.53-.14,1.12-.11a1.82,1.82,0,0,0,.85-.13.81.81,0,0,0,.31-.23.29.29,0,0,0,.08-.2.31.31,0,0,0-.14-.26,1.25,1.25,0,0,0-.47-.25,1.1,1.1,0,0,0-.51,0,2.11,2.11,0,0,0-1,.52c-.52.46-.67,1-.91,1s-.53-.65,0-1.65a2.7,2.7,0,0,1,1.45-1.28,2.44,2.44,0,0,1,2.53.46,1.88,1.88,0,0,1,.63,1.73A1.9,1.9,0,0,1,211,279a2.19,2.19,0,0,1-.93.42,2.4,2.4,0,0,1-1.48-.22C207.87,278.89,207.62,278.54,207.69,278.37Z" transform="translate(0 0)" stroke="#000" stroke-miterlimit="10" stroke-width="0.5"/>
      <path d="M212.13,308c.12,0,.12.29.29.62a1.92,1.92,0,0,0,1.05,1,1.68,1.68,0,0,0,1.78-.52,2.31,2.31,0,0,0,.53-2.32,1.92,1.92,0,0,0-1.77-1.4,1.72,1.72,0,0,0-1.69.84,2.37,2.37,0,0,0-.3,1.47c0,.39.14.63,0,.71s-.36,0-.64-.48a2.54,2.54,0,0,1-.16-2.17,2.68,2.68,0,0,1,1-1.31,3.17,3.17,0,0,1,1.78-.57,3.36,3.36,0,0,1,3.3,2.42,3.72,3.72,0,0,1-1.06,3.92,2.86,2.86,0,0,1-3.33.44,2.33,2.33,0,0,1-1.15-1.89C211.8,308.19,212,308,212.13,308Z" transform="translate(0 0)" stroke="#000" stroke-miterlimit="10" stroke-width="0.5"/>
      <path d="M268,287.05c-.13-.2.3-.66.3-1.45a1.53,1.53,0,0,0-.39-1.09,1.56,1.56,0,0,0-1.26-.4,1.39,1.39,0,0,0-1,.79,4.32,4.32,0,0,0-.37,1.43c-.1.93-.09,1.58-.32,1.64s-.62-.5-.83-1.59a4,4,0,0,1,.14-2.06,2.74,2.74,0,0,1,2.19-1.82,2.83,2.83,0,0,1,2.65,1.06,2.47,2.47,0,0,1,.36,2.26,2.06,2.06,0,0,1-.87,1.16C268.27,287.15,268.06,287.14,268,287.05Z" transform="translate(0 0)" stroke="#000" stroke-miterlimit="10" stroke-width="0.5"/>
      <path d="M264.6,287.72" transform="translate(0 0)" fill="none" stroke="#000" stroke-miterlimit="10" stroke-width="0.5"/>
    </g>
    <g id="PRIMARY_shovel">
      <path d="M458.1,75.45,372.74,328.68a7.51,7.51,0,0,1,12.35,3.05q18.53-60.44,40.06-123.66,22.56-66,46-127.64a8.9,8.9,0,0,0-3.87-5.09A9.12,9.12,0,0,0,458.1,75.45Z" transform="translate(0 0)"/>
    </g>
    <g id="shovel">
      <path d="M372.74,328.68l-6.27,20.05a79.29,79.29,0,0,0-11.36-.6,58.11,58.11,0,0,0-10.38,1.08c-4.05.8-6.1,1.24-7.71,2.88s-1.91,3.66-2.63,7.31c-.59,3-1.54,7.21-3.13,12.42a22.91,22.91,0,0,1,5.46,1.53A24.28,24.28,0,0,1,347,381.7a40.6,40.6,0,0,0,16.66,5.85l8.89,1a15.6,15.6,0,0,1,5.66-5.2c8-4.23,16.66.6,17.46,1.06A20.41,20.41,0,0,1,407,376.28a59.32,59.32,0,0,0-.52-20.57,43.5,43.5,0,0,0-26-6.13q2.43-8.46,4.85-16.92a7.63,7.63,0,0,0-6.05-6.23A7.86,7.86,0,0,0,372.74,328.68Z" transform="translate(0 0)" fill="#fff"/>
      <path d="M458.51,74.32q2.33-6.46,4.66-12.94,4.38-12.09,8.77-24.11a17.68,17.68,0,0,1-4.4-5.28,15.64,15.64,0,0,1-2.17-8.08c.22-5.27,3.79-8.83,6.23-11.27A26.8,26.8,0,0,1,482.85,6c.57,2.57,1.15,5.13,1.72,7.69l-2.43,1.17a9.15,9.15,0,0,0-5.39,2.74,9.61,9.61,0,0,0-2.13,8.17A10,10,0,0,0,479,32.35a9.86,9.86,0,0,0,6.8,1.28,8.82,8.82,0,0,0,5.52-2.75c2.88-3.31,1.65-7.88,1.42-8.73a9.24,9.24,0,0,0-3.46-5.41c-3.92-2.79-8.75-.88-9.14-.72q1.35-5,2.72-10a16.35,16.35,0,0,1,8.93,1.81c5.89,3.15,7.68,9.07,8.27,11a17.47,17.47,0,0,1,.25,10.47,16.29,16.29,0,0,1-4.39,7.08,15.9,15.9,0,0,1-8.14,4q-4.59,10.68-9.09,22-3.89,9.74-7.4,19.19a10.31,10.31,0,0,0-5.56-6.92A9.93,9.93,0,0,0,458.51,74.32Z" transform="translate(0 0)" fill="#fff"/>
      <path d="M366.52,348.56a4.33,4.33,0,0,1,.18-.84l.67-2.41c.63-2.11,1.55-5.23,2.74-9.24,2.4-8,6-19.57,10.45-33.84,9-28.54,21.68-67.87,36.32-111.1s28.46-82.19,38.69-110.3c5.11-14.06,9.31-25.41,12.27-33.23,1.5-3.91,2.66-6.94,3.44-9l.94-2.33a3.18,3.18,0,0,1,.37-.77,3.92,3.92,0,0,1-.22.83l-.78,2.38-3.15,9.1c-2.78,7.89-6.81,19.3-11.79,33.41-9.95,28.2-23.58,67.21-38.23,110.43s-27.52,82.48-36.76,110.93c-4.62,14.22-8.36,25.73-11,33.68l-3,9.15c-.37,1-.64,1.83-.83,2.36A3.28,3.28,0,0,1,366.52,348.56Z" transform="translate(0 0)" stroke="#000" stroke-miterlimit="10" stroke-width="0.5"/>
      <path d="M379,354.74a3.44,3.44,0,0,1,.16-.86l.63-2.45c.59-2.14,1.47-5.31,2.59-9.38s2.55-9,4.24-14.8,3.58-12.33,5.78-19.56c4.33-14.48,9.66-31.67,15.74-50.7s13-39.89,20.54-61.69,15-42.48,21.89-61.22,13.35-35.56,18.88-49.63c2.73-7,5.29-13.38,7.51-19s4.18-10.36,5.8-14.26,2.89-6.93,3.75-9l1-2.32a3.31,3.31,0,0,1,.4-.77,4.22,4.22,0,0,1-.24.83c-.2.54-.49,1.33-.87,2.38l-3.46,9.09L477.8,65.83c-2.14,5.6-4.59,12-7.29,19-5.38,14.11-11.67,31-18.54,49.72S437.75,174,430.21,195.83s-14.45,42.63-20.65,61.62S398,293.59,393.49,308c-2.22,7.21-4.24,13.74-6,19.48s-3.27,10.68-4.5,14.72l-2.88,9.29-.79,2.41A4.8,4.8,0,0,1,379,354.74Z" transform="translate(0 0)" stroke="#000" stroke-miterlimit="10" stroke-width="0.5"/>
      <path d="M385.09,331.72c-.23.08-.62-.68-1.48-1.63a7.73,7.73,0,0,0-8.8-2.17c-1.2.44-1.9.93-2.07.75s.3-1,1.56-1.78a7.39,7.39,0,0,1,10.25,2.53C385.29,330.72,385.29,331.67,385.09,331.72Z" transform="translate(0 0)" stroke="#000" stroke-miterlimit="10" stroke-width="0.5"/>
      <path d="M366.23,349.32c-.05.25-2.84-.29-7.38-.48a55.92,55.92,0,0,0-17.45,2c-1.66.45-3.2,1-4,2a11.26,11.26,0,0,0-1.6,4.09c-.78,2.92-1.5,5.56-2.13,7.76-1.26,4.41-2.15,7.1-2.37,7.05s.27-2.85,1.25-7.33c.49-2.24,1.09-4.9,1.79-7.85a11.9,11.9,0,0,1,1.81-4.71,6.07,6.07,0,0,1,2.27-1.73,15.38,15.38,0,0,1,2.57-.89,48.39,48.39,0,0,1,18-1.6C363.55,348.18,366.28,349.13,366.23,349.32Z" transform="translate(0 0)" stroke="#000" stroke-miterlimit="10" stroke-width="0.5"/>
      <path d="M407.81,375c-.24,0-.37-2.6-.65-6.79-.14-2.09-.31-4.58-.57-7.34-.06-.69-.13-1.39-.2-2.11a10.59,10.59,0,0,0-.34-2,4.7,4.7,0,0,0-2.73-2.77A34.68,34.68,0,0,0,399,352.4c-1.43-.44-2.82-.79-4.16-1.1a63.5,63.5,0,0,0-7.2-1.16c-4.15-.43-6.75-.35-6.77-.61s2.59-.68,6.85-.54a47.14,47.14,0,0,1,7.43.84c1.38.27,2.82.61,4.3,1a33,33,0,0,1,4.54,1.6A8.27,8.27,0,0,1,406.2,354a5.21,5.21,0,0,1,1.38,2.3,11.78,11.78,0,0,1,.36,2.36l.15,2.14c.17,2.79.23,5.3.22,7.42C408.29,372.39,408,375,407.81,375Z" transform="translate(0 0)" stroke="#000" stroke-miterlimit="10" stroke-width="0.5"/>
      <path d="M362.82,385.59c-.44,0-.09-6.12,1.18-13.48s3-13.19,3.39-13.09-.53,6.05-1.79,13.37S363.27,385.64,362.82,385.59Z" transform="translate(0 0)" stroke="#000" stroke-miterlimit="10" stroke-width="0.5"/>
      <path d="M332.46,377.9c-.21.14-1-1-2.73-2.28a12.21,12.21,0,0,0-7.47-2.79,9.67,9.67,0,0,0-7,3.33c-1.36,1.59-1.64,3-1.9,2.92-.1,0-.16-.38-.07-1a6.8,6.8,0,0,1,1-2.58,9.33,9.33,0,0,1,3-2.85,10,10,0,0,1,4.92-1.42,11.15,11.15,0,0,1,4.95,1.16,12.14,12.14,0,0,1,3.31,2.4C332.12,376.43,332.62,377.81,332.46,377.9Z" transform="translate(0 0)" stroke="#000" stroke-miterlimit="10" stroke-width="0.5"/>
      <path d="M345,380.53c-.23.11-.83-.89-2.07-2.21a15.93,15.93,0,0,0-5.71-3.9,14.82,14.82,0,0,0-6.82-1,2.44,2.44,0,0,0-1.7.62c-.28.29-.16.61-.28.63s-.15,0-.24-.18a.81.81,0,0,1,0-.75,2.73,2.73,0,0,1,2.07-1.46,12.66,12.66,0,0,1,7.61.65,13.25,13.25,0,0,1,6,4.7C345,379.24,345.21,380.45,345,380.53Z" transform="translate(0 0)" stroke="#000" stroke-miterlimit="10" stroke-width="0.5"/>
      <path d="M376.37,390.79c-.15.19-1.1-.4-2.69-1.08a19.38,19.38,0,0,0-2.86-1,20.5,20.5,0,0,0-3.62-.56,20.76,20.76,0,0,0-3.67.15,20,20,0,0,0-2.94.65c-1.66.5-2.66,1-2.8.77s.7-1,2.38-1.84a13.49,13.49,0,0,1,3.1-1.06,16.72,16.72,0,0,1,4-.3,16.38,16.38,0,0,1,4,.75,13.73,13.73,0,0,1,3,1.39C375.79,389.7,376.5,390.64,376.37,390.79Z" transform="translate(0 0)" stroke="#000" stroke-miterlimit="10" stroke-width="0.5"/>
      <path d="M400,385.82c-.11.21-1.59-.43-4-1.39a23.68,23.68,0,0,0-19,.1,4.21,4.21,0,0,0-2.18,1.58c-.3.52-.11.92-.23,1s-.16,0-.27-.23a1.29,1.29,0,0,1-.1-1,4.18,4.18,0,0,1,2.26-2.4,20.26,20.26,0,0,1,10-2.63,20.52,20.52,0,0,1,10,2.51C398.81,384.65,400.07,385.63,400,385.82Z" transform="translate(0 0)" stroke="#000" stroke-miterlimit="10" stroke-width="0.5"/>
      <path d="M420.94,377.45c-.11.23-1.6-.36-4.07-.79a21.39,21.39,0,0,0-18.1,5c-1.9,1.64-2.88,2.91-3.09,2.77s.48-1.64,2.29-3.6a19.12,19.12,0,0,1,19.16-5.27C419.68,376.3,421,377.28,420.94,377.45Z" transform="translate(0 0)" stroke="#000" stroke-miterlimit="10" stroke-width="0.5"/>
      <path d="M471.14,80.43c-.22.09-.71-.74-1.63-1.89a11.09,11.09,0,0,0-4.29-3.42,7.85,7.85,0,0,0-5.3-.17c-1.34.44-2.05,1.09-2.23.92s.28-1.13,1.76-2a7.53,7.53,0,0,1,6.38-.29,9.48,9.48,0,0,1,4.65,4.3C471.22,79.35,471.33,80.35,471.14,80.43Z" transform="translate(0 0)" stroke="#000" stroke-miterlimit="10" stroke-width="0.5"/>
      <path d="M488.41,40a27.62,27.62,0,0,1,3.26-1.52,21.77,21.77,0,0,0,3.54-2.13,11.69,11.69,0,0,0,3.46-4A16.38,16.38,0,0,0,500.06,26a22.85,22.85,0,0,0-.87-7.45,17.52,17.52,0,0,0-4-7.1,15.67,15.67,0,0,0-7.47-4.37,12.8,12.8,0,0,0-8.48.82,27.53,27.53,0,0,0-6.82,4.75,23.54,23.54,0,0,0-4.73,5.84,14,14,0,0,0-1.77,6.18,12.81,12.81,0,0,0,1,5.23A13.79,13.79,0,0,0,469,33.41c1.48,1.73,2.62,2.37,2.54,2.5s-1.3-.39-3-2.07a13.38,13.38,0,0,1-2.48-3.55,13.19,13.19,0,0,1-1.32-5.62,14.88,14.88,0,0,1,1.73-6.79,24.15,24.15,0,0,1,4.89-6.3,28.22,28.22,0,0,1,7.18-5.11,14.27,14.27,0,0,1,9.54-1,17,17,0,0,1,8.24,4.85,18.64,18.64,0,0,1,4.28,7.78,23.47,23.47,0,0,1,.78,8,17,17,0,0,1-1.72,6.77,12.3,12.3,0,0,1-3.95,4.23,19.42,19.42,0,0,1-3.82,2A10.42,10.42,0,0,1,488.41,40Z" transform="translate(0 0)" stroke="#000" stroke-miterlimit="10" stroke-width="0.5"/>
      <path d="M474.57,22.62c.14,0-.11.9.05,2.43a9,9,0,0,0,2.9,5.54,10.67,10.67,0,0,0,8.81,2.21,6.12,6.12,0,0,0,4.42-2.5,12.45,12.45,0,0,0,1.36-5.69,8.25,8.25,0,0,0-1.6-5.44,9.24,9.24,0,0,0-4.25-3.25,7.8,7.8,0,0,0-4.81-.18,9.36,9.36,0,0,0-3.78,2.07,9,9,0,0,0-3,5.53,10.1,10.1,0,0,1-.39,2.44,5.72,5.72,0,0,1-.24-2.49,8.83,8.83,0,0,1,.58-3A9.85,9.85,0,0,1,476.88,17a10.19,10.19,0,0,1,4.19-2.54,9.16,9.16,0,0,1,5.69.06,10.7,10.7,0,0,1,5,3.72,10.08,10.08,0,0,1,1.54,3,10.36,10.36,0,0,1,.4,3.45,21.37,21.37,0,0,1-.42,3.32,9.26,9.26,0,0,1-1.22,3.16,6.16,6.16,0,0,1-2.55,2.24,10,10,0,0,1-3,.88,11.67,11.67,0,0,1-9.84-2.85A9.07,9.07,0,0,1,474,25.09,4,4,0,0,1,474.57,22.62Z" transform="translate(0 0)" stroke="#000" stroke-miterlimit="10" stroke-width="0.5"/>
    </g>
  </g>
</svg>
