<svg xmlns="http://www.w3.org/2000/svg" viewBox="0 0 514.77 512">
	<defs>
		<style>
			.cls-1{fill:#fff}.cls-2,.cls-3{stroke:#000;stroke-miterlimit:10}.cls-2{stroke-width:.5px}
		</style>
	</defs>
	<g id="Layer_plants">
		<path class="cls-1" d="M49.49 484.91A61 61 0 0 1 37.88 474c-4.71-5.76-5.48-8.92-5.7-11a15.44 15.44 0 0 1 .43-5.53 122.43 122.43 0 0 1-9-16.64 71.16 71.16 0 0 1-4-10.63c-1.54-5.53-1.05-6.85-2.72-11.73-1.35-3.94-2.19-4.62-4.51-9.82a107.46 107.46 0 0 1-4.5-12.12 131.35 131.35 0 0 1-5-22.18 29.13 29.13 0 0 1-2.16-10.18c-.08-3.22-.15-6.72 2.19-9 .36-.37 1.8-1.79 3.41-1.54s2.6 2.18 3.6 4c1.73 3.15 4.42 5.69 6.2 8.82 2.13 3.75 1.32 1.72 6.67 10.17.94 1.5 4.18 6.64 8.47 14.09 3.24 5.61 7.28 12.88 11.74 21.61a7.57 7.57 0 0 1 4 1.31c.62.44 1 .9 2.47 3.15s3 4.68 4.49 7c.58.94.88 1.4 1.07 1.35.69-.18-.09-5.51-.89-10.15a65.36 65.36 0 0 1-4.14-7.43 95.22 95.22 0 0 1-4-10.71c-1-2.84-2.19-6.08-4.64-12.55-1.21-3.2-5-13.23-8.75-24a31.16 31.16 0 0 1-1.52-8.29c-.11-2.08-.46-8.36 1.81-9.27 1.85-.73 4.74 2.36 7 4.93A117 117 0 0 1 57 374.91c4.62 9.88 8.13 17.5 9.94 21.43l1.31-2.61a35.61 35.61 0 0 1 10.64 13.59 33.74 33.74 0 0 1 4.8 3.68 35.73 35.73 0 0 1 6.1 7.35c6.27 9.56 9.41 14.36 12.21 19.65 1.5 2.87 3.45 6.77 5.52 11.52ZM363.58 451.61a68.15 68.15 0 0 1 .9-7.19 61.48 61.48 0 0 1 2.67-10.29 53 53 0 0 1 7.38-13.62 27.62 27.62 0 0 1 1-4.19 29.41 29.41 0 0 1 7.52-12 52 52 0 0 1 1.54-9.57c.47-1.82 1.14-3.8 2.48-7.67.92-2.66 1.51-4.26 3.44-9.57 3.07-8.44 2.94-8.1 3.4-9.35 1.2-3.2 2.5-6.66 4.16-10.67 1.51-3.67 3.3-8 6-13.35a83.15 83.15 0 0 1 8.1-13.62 53.18 53.18 0 0 1 7.19-8c2.7-2.36 8.94-7.85 11.67-6.17 1.43.88 1.37 3.39 1.26 7.68a46.2 46.2 0 0 1-1.3 9.59c-1.1 5-2.13 8.5-3.6 13.62-1 3.56-2 7.13-3 10.68-1.83 6.29-4.62 16-9.09 31.67 2.87-3.68 4.06-4.21 4.6-4 .91.43.34 3.27-.88 10.39-.75 4.42-1.33 8-1.7 10.37 3.6-8 7-14.91 10-20.65 4.75-9.1 8.68-15.77 11.42-20.42 7.93-13.43 6.49-9.59 10.91-17.53 3.14-5.63 5.7-10.86 11.59-15.4 1.61-1.25 5.41-4.13 7.6-2.87.42.24 1.25.9 1.87 5.08a33.65 33.65 0 0 1 .28 8.7 120.84 120.84 0 0 1-3.88 16.73c-2.1 7.67-1.45 7-4 16.9a346.89 346.89 0 0 1-4.13 14.53c2.29 0 3.13.76 3.48 1.28.75 1.12.11 2.53-.76 5.86-.7 2.72.33-.56-1.2 5.63-1.3 5.23-2.13 8.6-3.63 13.39-1.15 3.7-2.57 7.84-4.32 12.3 1.28-.86 2.77-1.63 3.49-1.1 1 .74 0 3.69-1.76 9-1.18 3.55-2.13 7.18-3.48 10.67-1.8 4.64-4.35 11.6-7.76 22a71.17 71.17 0 0 1-24.44 4.58c-29.25.31-49.47-18.03-55.02-23.42Z"/>
		<path class="cls-2" d="M32.6 457.48c.28.08-.4 1.93.08 4.86s2.27 6.72 5.15 10.31c5.81 7.27 12 11.86 11.65 12.25-.13.17-1.82-.76-4.29-2.67a53.73 53.73 0 0 1-8.64-8.57c-3-3.74-4.86-7.94-5-11.19a10.22 10.22 0 0 1 .41-3.76c.28-.85.55-1.26.64-1.23Z"/>
		<path class="cls-2" d="M2.89 374.39c.27 0 1 5 3 12.87 1 3.94 2.39 8.6 4.24 13.65.93 2.52 2 5.14 3.14 7.82s2.51 5.38 3.84 8.25a33.79 33.79 0 0 1 1.69 4.42 28.81 28.81 0 0 1 .88 4.52 37.37 37.37 0 0 0 .69 4.19 33.78 33.78 0 0 0 1.14 3.89c.9 2.5 2 4.83 2.95 7s1.87 4.25 2.7 6.12c1.64 3.74 3 6.73 4 8.79a17.1 17.1 0 0 1 1.43 3.26 13.09 13.09 0 0 1-2-3c-1.17-2-2.71-4.92-4.49-8.61-.89-1.85-1.85-3.87-2.89-6s-2.15-4.5-3.13-7.07a34.84 34.84 0 0 1-1.27-4 41.87 41.87 0 0 1-.76-4.34 25.62 25.62 0 0 0-.85-4.27 32.43 32.43 0 0 0-1.61-4.21c-1.3-2.79-2.69-5.55-3.83-8.28s-2.18-5.39-3.08-8a121.6 121.6 0 0 1-3.95-13.88c-.89-4-1.38-7.3-1.65-9.58a13.33 13.33 0 0 1-.19-3.54ZM45.36 417.92a17.56 17.56 0 0 1-1.94-3.36c-1.16-2.21-2.84-5.4-4.92-9.33-4.19-7.85-10.22-18.58-17.54-30-3.66-5.72-7.3-11.07-10.69-15.87l-2.49-3.49c-.76-1-1.8-2-2.68-1.93s-1.45 1.06-1.95 2.15A19.21 19.21 0 0 0 2 359.27a21.9 21.9 0 0 0-.35 10.23c.48 2.41 1.08 3.67.94 3.73s-.23-.27-.54-.86a16.1 16.1 0 0 1-1-2.72A21.13 21.13 0 0 1 .86 359 19.85 19.85 0 0 1 2 355.57a9.48 9.48 0 0 1 .93-1.77 2.78 2.78 0 0 1 2.11-1.21 3.58 3.58 0 0 1 2.28.82A8.49 8.49 0 0 1 8.91 355l2.58 3.48c3.47 4.78 7.17 10.12 10.84 15.87a317.75 317.75 0 0 1 17.2 30.35c2 4 3.47 7.29 4.46 9.58a17.86 17.86 0 0 1 1.37 3.64Z"/>
		<path class="cls-2" d="M82.14 463.27s-.07-.13-.07-.37v-1l-.19-.28-.25-.38-.59-.91-1.44-2.23c-1.1-1.7-2.44-3.78-4-6.12s-3.39-5-5.41-7.7c-1-1.38-2.07-2.8-3.18-4.24a10.79 10.79 0 0 0-.82-1 7.1 7.1 0 0 0-.94-.8 2.7 2.7 0 0 0-2-.66 2.24 2.24 0 0 0-.25.17 2 2 0 0 0-.31.27l-.71.73c-1.27-2.26-2.5-4.47-3.7-6.6a292.05 292.05 0 0 0-3.12-5.3c-2-3.35-3.93-6.32-5.55-8.8-.81-1.23-1.54-2.39-2.19-3.3a3.73 3.73 0 0 0-2.13-1.63 2.21 2.21 0 0 0-1.64.28c-.34.21-.45.43-.51.39s0-.28.3-.64a2.39 2.39 0 0 1 1.93-.65 4.3 4.3 0 0 1 2.75 1.68c.78.95 1.54 2 2.43 3.22 1.75 2.41 3.76 5.33 5.87 8.67 1.06 1.66 2.14 3.43 3.24 5.28l1.63 2.85.82 1.46.23.42v.09s0 .07.06 0 .05-.07.37-.18a3.21 3.21 0 0 1 1.89.13 5.74 5.74 0 0 1 1.43.77 8.17 8.17 0 0 1 1.17 1 10.28 10.28 0 0 1 .94 1.14q1.67 2.19 3.15 4.31c2 2.81 3.75 5.48 5.25 7.89s2.75 4.57 3.73 6.36c.49.89.92 1.69 1.28 2.39l.9 1.83a9.27 9.27 0 0 1-.28 1.09c0 .26-.05.38-.09.37Z"/>
		<path class="cls-2" d="M54.09 415c.24 0 .21 1.31.37 3.31a29 29 0 0 0 1.63 7.59 29.27 29.27 0 0 0 3.67 6.84c1.18 1.63 2 2.58 1.87 2.76s-1.28-.5-2.75-2a18.93 18.93 0 0 1-2.29-2.93 21 21 0 0 1-3.13-8.57 18.61 18.61 0 0 1-.15-3.71c.13-2.09.58-3.29.78-3.29ZM70.43 403.44a46.49 46.49 0 0 1-2.54-5.29c-1.56-3.43-3.85-8.39-6.93-14.37s-6.94-13-11.64-20.57a279.89 279.89 0 0 0-7.69-11.65c-1.37-2-2.83-4-4.28-6a7 7 0 0 0-2.54-2.14 1.76 1.76 0 0 0-2.32.76 7.14 7.14 0 0 0-.68 3.32 35.29 35.29 0 0 0 0 3.71 37.44 37.44 0 0 0 1.19 7.16 70.35 70.35 0 0 0 2.19 6.72l2.35 6.44 8 22.29c2.25 6.36 4.07 11.51 5.32 15.06s2.08 5.48 2 5.53a5.3 5.3 0 0 1-.77-1.32c-.44-.9-1.05-2.23-1.79-4-1.46-3.5-3.4-8.6-5.81-14.9s-5.23-13.83-8.38-22.17l-2.4-6.42a71.4 71.4 0 0 1-2.28-6.85 39 39 0 0 1-1.2-7.46 38.17 38.17 0 0 1 0-3.86 8.49 8.49 0 0 1 .9-4.1A3.49 3.49 0 0 1 33 341.8a3.6 3.6 0 0 1 2.43.12 8.55 8.55 0 0 1 3.21 2.65c1.53 2.08 2.94 4.06 4.33 6.08 2.76 4 5.31 8 7.64 11.77 4.66 7.64 8.45 14.76 11.4 20.84s5.1 11.12 6.48 14.64c.71 1.75 1.21 3.13 1.54 4.07a5.71 5.71 0 0 1 .4 1.47Z"/>
		<path class="cls-2" d="M107.77 450.15c-.23.1-1.94-3.59-5-9.37a192.53 192.53 0 0 0-13.43-21.71c-1.47-2-2.88-4-4.39-5.75a18.52 18.52 0 0 0-2.4-2.32c-.83-.67-1.79-1.19-2.72-1.86a7.7 7.7 0 0 1-2.35-2.54c-.55-1-.91-1.88-1.34-2.71a30 30 0 0 0-5.66-7.72c-.45-.45-.89-.86-1.3-1.22l-.45-.4a3.61 3.61 0 0 0-.39-.33l-.92 1.49c-.27.4-.43.61-.48.58s0-.28.18-.73l.34-.84.65-1.45a15.17 15.17 0 0 1 1.56 1.07c.45.34.93.73 1.43 1.16a28 28 0 0 1 6.23 7.76c.49.87.89 1.8 1.39 2.61a6.18 6.18 0 0 0 2 2c.84.58 1.86 1.12 2.81 1.86a20.58 20.58 0 0 1 2.64 2.48c1.62 1.82 3 3.82 4.51 5.86a147.57 147.57 0 0 1 13.14 22.14c1.42 3 2.45 5.43 3.12 7.15a9.62 9.62 0 0 1 .83 2.79ZM383.42 403.88c.2.2-2.17 2.24-4.6 6.48a29.51 29.51 0 0 0-3.09 7.89c-.17.78-.32 1.59-.44 2.41a13.5 13.5 0 0 1-.23 1.37 5.1 5.1 0 0 1-.62 1.44c-.57.87-1.19 1.49-1.71 2.22s-1.07 1.46-1.59 2.22a39.38 39.38 0 0 0-4.29 9.49 70.38 70.38 0 0 0-2 8.38c-.85 4.86-1.2 7.92-1.45 7.9s-.26-3.1.31-8.07a56.29 56.29 0 0 1 1.7-8.64 37.6 37.6 0 0 1 4.36-9.94c.55-.81 1.07-1.61 1.68-2.34s1.23-1.45 1.64-2.08a4.87 4.87 0 0 0 .66-2.17c.14-.88.32-1.72.52-2.54a27.32 27.32 0 0 1 3.57-8.14 24.09 24.09 0 0 1 3.81-4.59c1.03-.96 1.7-1.37 1.77-1.29Z"/>
		<path class="cls-2" d="M412.4 423.93a24.5 24.5 0 0 1 .88-3.2c.61-2.08 1.5-5.13 2.42-9.08a138.45 138.45 0 0 0 2.6-14.43c.35-2.82.64-5.84.82-9l.06-1.41v-.07h-.06l-.12.06a1.67 1.67 0 0 0-.23.12l-.23.14-.11.08-.24.17a8 8 0 0 0-2.7 3.87l-1.26-.38 8.49-30.1 4.8-16.86c1.62-5.78 3.31-11.71 3.84-17.89a40.8 40.8 0 0 0 .1-5.74 12.31 12.31 0 0 0-.35-2.61c-.14-.33-.27-.44-.43-.49a1.85 1.85 0 0 0-.95.17 30.79 30.79 0 0 0-9.45 5.54c-5.57 4.71-9.56 10.72-12.88 16.59-6.59 11.87-10.88 23.41-14.5 33-1.79 4.84-3.41 9.21-4.83 13.06s-2.62 7.14-3.38 9.91a47.63 47.63 0 0 0-1.36 6.46 17.25 17.25 0 0 1-.32 2.29s-.05-.2-.05-.59v-1.73a38.92 38.92 0 0 1 1.08-6.59c.67-2.82 1.78-6.2 3.13-10.06s2.9-8.27 4.6-13.14c3.5-9.7 7.69-21.33 14.28-33.38 3.33-6 7.37-12.14 13.16-17.08a32.18 32.18 0 0 1 9.95-5.85 3.2 3.2 0 0 1 1.87-.21 2.31 2.31 0 0 1 1.55 1.45 5.59 5.59 0 0 1 .34 1.64l.12 1.48a41.18 41.18 0 0 1-.1 6c-.55 6.39-2.28 12.41-3.91 18.19s-3.29 11.41-4.86 16.85c-3.15 10.87-6.09 21-8.72 30l-1.26-.38a9.26 9.26 0 0 1 3.2-4.48l.27-.19a2.9 2.9 0 0 1 .41-.27 7 7 0 0 1 .84-.46c.28-.14.56-.25.83-.37l.43-.18.21-.09v.2c0 1.12-.08 2.23-.11 3.33-.23 3.21-.57 6.25-1 9.09a127.16 127.16 0 0 1-2.92 14.47c-1 3.95-2.05 7-2.78 9-.36 1-.67 1.79-.88 2.31a2.77 2.77 0 0 1-.29.84ZM409.4 451.94c-.44-.2 2.62-7.29 4.82-16.43a43.22 43.22 0 0 0 1.31-11.83c-.13-3.05-.63-4.92-.38-5s1.08 1.71 1.53 4.88a27.62 27.62 0 0 1 .17 5.58 42.14 42.14 0 0 1-1 6.73c-2.31 9.38-6.08 16.26-6.45 16.07ZM412.61 466.6c-.44-.17 1.19-5.25 2.09-11.7.45-3.23.78-6.15.28-8.11s-1.51-2.84-1.34-3 .42 0 .92.43a5.21 5.21 0 0 1 1.53 2.28 11.44 11.44 0 0 1 .61 3.94 36.44 36.44 0 0 1-.39 4.73c-.93 6.63-3.31 11.6-3.7 11.43Z"/>
		<path class="cls-2" d="M458.2 392.45s-.09.11.09.3a.25.25 0 0 0 .11.07s0-.06 0-.17.12-.42.18-.68c.3-1 .72-2.53 1.28-4.47 1.1-3.88 2.66-9.5 4.27-16.52s3.24-15.45 4.49-24.89q.47-3.54.86-7.26c.12-1.24.26-2.49.36-3.75.06-.64.11-1.27.17-1.91a2.74 2.74 0 0 0-.1-1.53 3.39 3.39 0 0 0-2.48-1.72 3.5 3.5 0 0 0-1.61.07 5.88 5.88 0 0 0-1.59.74c-2 1.34-3.57 3.68-5.31 5.79a218.43 218.43 0 0 0-17.39 25.57l-6.8 11.71-5.84 10.26c-3.6 6.26-6.4 11.37-8.19 15-.9 1.8-1.57 3.22-2 4.17a6.55 6.55 0 0 1-.76 1.44 5.38 5.38 0 0 1 .46-1.56c.37-1 .94-2.47 1.76-4.32 1.62-3.71 4.28-8.94 7.76-15.27 1.73-3.17 3.63-6.63 5.66-10.36l6.69-11.81a206.41 206.41 0 0 1 17.4-25.81c.86-1.09 1.7-2.16 2.59-3.23a14.51 14.51 0 0 1 3.12-2.92 7.67 7.67 0 0 1 2-.94 5.29 5.29 0 0 1 2.34-.1 5 5 0 0 1 3.66 2.68 4.36 4.36 0 0 1 .21 2.29l-.18 1.92c-.11 1.28-.25 2.53-.39 3.78q-.41 3.74-.92 7.29a242.71 242.71 0 0 1-4.85 24.95c-1.76 7-3.49 12.62-4.79 16.45-.63 1.92-1.19 3.39-1.56 4.38l-.26.66c-.05.07 0 .22-.23.29a.31.31 0 0 1-.28-.16.41.41 0 0 1-.07-.35c.08-.11.14-.09.14-.08ZM451.31 432.93c-.44-.18 3.21-9.48 6.46-21.33 1.64-5.91 2.88-11.33 3.75-15.27a11.35 11.35 0 0 0 .42-4.55c-.2-1-.62-1.54-.51-1.62s.68.3 1.12 1.45a10.13 10.13 0 0 1 .11 4.93 132.55 132.55 0 0 1-3.32 15.5 131 131 0 0 1-5.1 15c-1.56 3.75-2.73 5.96-2.93 5.89ZM443 470.51c-.21-.07.46-2.58 1.71-6.57s3.08-9.46 5.19-15.47a141.21 141.21 0 0 0 4.9-15.47c.94-4 1.14-6.6 1.4-6.59s.4 2.63-.27 6.82a90.26 90.26 0 0 1-4.47 15.77c-2.12 6-4.12 11.42-5.65 15.31s-2.58 6.28-2.81 6.2Z"/>
	</g>
	<g id="Layer_circle">
		<circle class="cls-1" cx="254.21" cy="392.11" r="116.77"/>
		<path class="cls-3" d="M371 391.72a8 8 0 0 1-.22-1.89c0-.62-.08-1.4-.14-2.32l-.08-1.5-.17-1.7c-.12-1.22-.24-2.57-.39-4.07l-.69-4.87c-.24-1.76-.68-3.63-1-5.64s-1-4.11-1.49-6.35A116.83 116.83 0 0 0 324 300a114.3 114.3 0 0 0-22.13-13.06 112.82 112.82 0 0 0-26.57-8.25l-3.57-.62-3.63-.45c-2.43-.36-4.9-.44-7.38-.65-1.24-.08-2.49-.07-3.74-.11s-2.52-.1-3.78 0c-2.53.08-5.07.1-7.63.35a114.71 114.71 0 0 0-15.43 2.22 122.45 122.45 0 0 0-15.39 4.43 115.84 115.84 0 0 0-29.12 15.75 126.71 126.71 0 0 0-13 11.22 124 124 0 0 0-11.3 13.17 112.47 112.47 0 0 0-9.33 15.15c-.66 1.34-1.41 2.64-2 4l-1.86 4.11c-.55 1.4-1.1 2.81-1.66 4.22s-1 2.85-1.5 4.28a112.29 112.29 0 0 0-4.37 17.8 115.08 115.08 0 0 0 0 37 112.17 112.17 0 0 0 4.39 17.86c.51 1.43.92 2.9 1.5 4.29s1.11 2.82 1.66 4.22L150 441c.59 1.38 1.34 2.68 2 4a112.47 112.47 0 0 0 9.36 15.11 124 124 0 0 0 11.35 13.29 125.38 125.38 0 0 0 13 11.21 123.76 123.76 0 0 0 14.16 9 125.27 125.27 0 0 0 15 6.74 122.45 122.45 0 0 0 15.39 4.43 114.71 114.71 0 0 0 15.43 2.22c2.56.25 5.1.27 7.63.34 1.26.07 2.52 0 3.78 0s2.5 0 3.74-.11c2.48-.22 4.95-.29 7.38-.65l3.63-.45 3.57-.63a112.81 112.81 0 0 0 26.57-8.24 114.3 114.3 0 0 0 22.01-13 116.83 116.83 0 0 0 42.74-63.42c.52-2.24 1.11-4.35 1.49-6.35s.8-3.88 1-5.65L370 404c.15-1.49.27-2.85.39-4.06l.17-1.71.08-1.49c.06-.93.11-1.7.14-2.33a8 8 0 0 1 .22-1.88 9.15 9.15 0 0 1 .12 1.89v3.84L371 400c-.07 1.22-.15 2.59-.24 4.1s-.35 3.14-.54 4.92-.58 3.68-.9 5.72-.88 4.17-1.36 6.45a117.08 117.08 0 0 1-12.79 31.39 118.63 118.63 0 0 1-29.78 33.56 115.92 115.92 0 0 1-22.49 13.51 114.37 114.37 0 0 1-27.12 8.61l-3.65.66-3.72.49c-2.48.38-5 .47-7.54.7-1.27.1-2.56.09-3.84.14s-2.57.11-3.86.05c-2.59-.06-5.2-.07-7.82-.32a117.36 117.36 0 0 1-15.83-2.19 125.42 125.42 0 0 1-15.81-4.49 128.59 128.59 0 0 1-15.38-6.86 125.41 125.41 0 0 1-14.57-9.22 117.29 117.29 0 0 1-25-25.11 114.87 114.87 0 0 1-9.65-15.52c-.68-1.38-1.46-2.71-2.06-4.13l-1.92-4.23-1.71-4.33c-.6-1.44-1-2.94-1.55-4.41a116 116 0 0 1-4.51-18.31 118.41 118.41 0 0 1 0-38.07 116.19 116.19 0 0 1 4.51-18.3c.52-1.47.95-3 1.55-4.41l1.71-4.33 1.92-4.23c.6-1.42 1.38-2.75 2.06-4.13a114.87 114.87 0 0 1 9.65-15.52 126.62 126.62 0 0 1 11.68-13.63A130 130 0 0 1 183.78 297a118.3 118.3 0 0 1 29.95-16 125.42 125.42 0 0 1 15.81-4.49 119 119 0 0 1 15.83-2.2c2.62-.25 5.23-.25 7.82-.31 1.29-.07 2.58 0 3.86.05s2.57 0 3.84.14c2.53.23 5.06.32 7.54.7l3.72.49 3.65.66a114.37 114.37 0 0 1 27.12 8.61 115.92 115.92 0 0 1 22.49 13.51 118.63 118.63 0 0 1 29.78 33.56A117 117 0 0 1 368 363.06c.48 2.29 1 4.42 1.36 6.46s.71 3.93.9 5.72.38 3.42.54 4.92.17 2.88.24 4.1l.09 1.73v3.84a9.15 9.15 0 0 1-.13 1.89Z"/>
		<path class="cls-3" d="M249.61 511.5c-.9 0-1.63-52.54-1.63-117.36s.73-117.35 1.63-117.35 1.63 52.54 1.63 117.35-.73 117.36-1.63 117.36Z"/>
		<path class="cls-3" d="M371 391.54c0 .9-51.69 1.63-115.46 1.63s-115.47-.73-115.47-1.63 51.69-1.63 115.47-1.63 115.46.73 115.46 1.63Z"/>
		<path class="cls-3" d="M209.75 500.8c-.13.13-2.49-2.17-5.05-7.4a84.5 84.5 0 0 1-3.94-9.73q-1-2.9-2.16-6.18l-1.17-3.37-1.05-3.62q-1.06-3.71-2.23-7.76c-.41-1.34-.68-2.75-1-4.17l-1-4.34c-.33-1.48-.68-3-1-4.5s-.58-3.1-.88-4.68c-.55-3.18-1.15-6.45-1.69-9.81a269.9 269.9 0 0 1-2.63-44.17 253 253 0 0 1 4.74-44 243.53 243.53 0 0 1 9.31-34.86c.85-2.43 1.65-4.74 2.45-6.92s1.72-4.15 2.5-6 1.53-3.63 2.2-5.24 1.45-3 2.07-4.31c2.55-5.15 4.05-7.95 4.25-7.85s-.91 3.08-3.09 8.36c-.53 1.33-1.18 2.77-1.79 4.4s-1.25 3.4-1.94 5.31-1.46 3.93-2.25 6.08-1.44 4.51-2.22 6.93a272.87 272.87 0 0 0-8.64 34.7 268 268 0 0 0-4.43 43.52 289.56 289.56 0 0 0 2.34 43.68q.8 5 1.54 9.71c.28 1.57.45 3.14.8 4.65s.63 3 .94 4.47.6 2.9.9 4.32.54 2.81.92 4.15l2 7.74.93 3.62 1.05 3.38 1.91 6.2c1.13 3.9 2.31 7.18 3.36 9.81 2.2 5.21 4.2 7.72 3.95 7.88ZM299.34 500.8c-.21-.08.76-3.15 2.68-8.6.5-1.35 1-2.89 1.5-4.57l1.73-5.45c.66-1.94 1.22-4.06 1.85-6.3s1.32-4.6 2-7.09a313.93 313.93 0 0 0 6.9-35.54 317.85 317.85 0 0 0 2.81-44.2 344.11 344.11 0 0 0-3.13-44.21c-1.93-13.48-3.88-25.7-7.12-35.38a73.09 73.09 0 0 0-5.55-12.6c-2-3.56-3.88-6.53-5.45-9-3.17-4.83-5-7.51-4.75-7.65s2.28 2.29 5.79 6.93c1.74 2.32 3.82 5.22 6 8.77a69.89 69.89 0 0 1 6.16 12.75 121.63 121.63 0 0 1 4.52 16.49c.65 3 1.16 6.11 1.78 9.31s1.11 6.52 1.62 9.92a318 318 0 0 1 3.37 44.62 295 295 0 0 1-3.1 44.64 277.59 277.59 0 0 1-7.66 35.73c-.73 2.49-1.51 4.84-2.21 7.08s-1.35 4.34-2.1 6.27-1.38 3.74-2 5.4-1.18 3.17-1.78 4.5c-2.29 5.38-3.66 8.27-3.86 8.18Z"/>
		<path class="cls-3" d="M332.19 305.26c.08.08-.25.56-.95 1.43a31 31 0 0 1-3.31 3.55 59.92 59.92 0 0 1-14.7 10.21 91.12 91.12 0 0 1-25.23 8.13 127.49 127.49 0 0 1-15.58 1.8c-5.43.31-11.05.3-16.81.07a142.76 142.76 0 0 1-32-5.15 108.64 108.64 0 0 1-24.47-10.2 86.37 86.37 0 0 1-14.47-10.46c-3.06-2.9-4.58-4.66-4.44-4.81s2 1.27 5.25 3.84a112.48 112.48 0 0 0 14.77 9.41 116.19 116.19 0 0 0 24.16 9.32 150.61 150.61 0 0 0 31.39 4.79c5.64.23 11.17.26 16.48 0a132.79 132.79 0 0 0 15.24-1.57 95.21 95.21 0 0 0 24.77-7.25 70.28 70.28 0 0 0 14.87-9.08c1.66-1.25 2.82-2.36 3.67-3.06s1.27-1.04 1.36-.97ZM335.23 476.53c-.19.18-1.86-1.57-5.35-4.07a66 66 0 0 0-16.16-8.19A122.06 122.06 0 0 0 287.5 458c-5.05-.62-10.39-1-15.93-1.19s-11.3 0-17.19.3c-11.77.68-23 2.09-33.12 3.55s-19.21 3.17-26.73 5c-15.07 3.6-23.88 7.56-24.09 7.06-.08-.18 2-1.42 6-3.18a135.69 135.69 0 0 1 17.56-6.16 244.84 244.84 0 0 1 26.86-5.71 331.67 331.67 0 0 1 33.39-3.83c6-.32 11.82-.4 17.46-.24a160.69 160.69 0 0 1 16.19 1.4 113.81 113.81 0 0 1 26.66 7.11 57.83 57.83 0 0 1 16.1 9.34c3.34 2.9 4.72 4.97 4.57 5.08Z"/>
	</g>
	<g id="Layer_CHARACTER1">
		<path d="M123.14 398.08q3.39 10.46 6.76 20.93c-4 4.42-7.5 8.35-10.41 11.66a103 103 0 0 0-8.43 10.49c-2.41 3.5-5.8 8.41-4.86 9.36.4.4 2 .5 10.37-5.72a187.58 187.58 0 0 0 27.36-25.1 122.81 122.81 0 0 1-7.36-12.38 126.21 126.21 0 0 1-5.72-12.67Z" id="foot_right" data-name="foot right"/>
		<g id="leg_right" data-name="leg right">
			<path class="cls-1" d="M187.49 255.58q-6.45 7.5-12.89 15c-8.76 2.39-16 4.67-21.23 6.42a287.1 287.1 0 0 0-33.75 13.51 80.1 80.1 0 0 0-17.66 11c-4.81 4-7.14 7-8.78 9.95A32.84 32.84 0 0 0 89.51 322a37.44 37.44 0 0 0 .19 12.81c1.45 9.24 1.66 18.63 2.65 27.94 1.53 14.37 1.76 17.55 2.88 25.31.69 4.8 1.35 8.76 1.82 11.46a30 30 0 0 0 8.48 2c6.14.54 10.8-1 16-2.81a66.59 66.59 0 0 0 14.58-7.1q-1-9.18-1.62-19c-.72-11.31-1-22.1-.91-32.3a33.14 33.14 0 0 1 5.19-4.43c4.88-3.36 9.29-4.47 12.74-5.46a155.8 155.8 0 0 0 18.13-6.67A147.36 147.36 0 0 0 189 314c7.38-4.32 11.08-6.48 15.14-10.27a59.89 59.89 0 0 0 10.94-14c6.75-11.22 11.91-19.79 9.36-26.06-3.19-8-18.53-11.67-36.95-8.09Z"/>
			<path class="cls-2" d="M175 270.44c-.33-.32 2.36-3.73 5.8-7.82s6.36-7.31 6.72-7-2 4-5.48 8.09-6.76 7.03-7.04 6.73ZM96.6 398.08a8.65 8.65 0 0 1-.42-1.79c-.22-1.18-.51-2.93-.87-5.19-.7-4.51-1.61-11.06-2.57-19.17s-2-17.78-3-28.52q-.39-4-.79-8.25c-.26-2.82-.52-5.72-.51-8.7a30.19 30.19 0 0 1 1.23-9.07 29.73 29.73 0 0 1 4.18-8.47 49.84 49.84 0 0 1 13.54-12.42c2.48-1.62 5-3.08 7.51-4.41s5-2.59 7.43-3.75a228.85 228.85 0 0 1 26.74-10.52c7.77-2.56 14.13-4.35 18.54-5.55 2.2-.6 3.92-1 5.09-1.32a8.23 8.23 0 0 1 1.81-.35 8.36 8.36 0 0 1-1.72.66l-5 1.62c-4.35 1.39-10.66 3.34-18.35 6A246.38 246.38 0 0 0 123 289.7a131.74 131.74 0 0 0-14.71 8.14 48.59 48.59 0 0 0-13.08 12 27.66 27.66 0 0 0-4 8 29 29 0 0 0-1.2 8.6c0 2.89.23 5.75.47 8.56s.5 5.56.73 8.25c1 10.75 1.84 20.42 2.66 28.54s1.54 14.68 2 19.21l.57 5.23a7 7 0 0 1 .16 1.85ZM135.8 391.58c.11.16-1.61 1.74-4.85 3.67a50.64 50.64 0 0 1-13.58 5.55c-5.59 1.35-10.88 1.8-14.67 1.1s-5.75-2.25-5.63-2.39 2.16.92 5.78 1.25 8.69-.22 14.12-1.54a66.61 66.61 0 0 0 13.43-5c3.3-1.62 5.25-2.85 5.4-2.64ZM208.37 298.2s-.25.43-.84 1.13-1.47 1.75-2.73 3a78.54 78.54 0 0 1-11.38 9.52 120.74 120.74 0 0 1-19.18 10.79c-3.78 1.72-7.8 3.39-12 5s-8.67 3-13.13 4.58a45.53 45.53 0 0 0-12.2 6 5.54 5.54 0 0 0-2 2.07 8 8 0 0 0-.32 2.93v6.32c0 8.24.26 15.66.55 21.88s.62 11.26.85 14.75a36.75 36.75 0 0 1 .21 5.42 4.51 4.51 0 0 1-.31-1.38c-.14-.91-.33-2.25-.54-4-.41-3.46-.93-8.5-1.36-14.73s-.79-13.67-.9-21.94v-6.35a9.24 9.24 0 0 1 .43-3.53 6.93 6.93 0 0 1 2.5-2.73 46.35 46.35 0 0 1 12.61-6.28c4.53-1.57 8.93-3 13.13-4.54s8.19-3.17 12-4.83a130.12 130.12 0 0 0 19.15-10.38 92.25 92.25 0 0 0 11.59-9c1.32-1.14 2.25-2.12 2.93-2.74s.9-1 .94-.96Z"/>
			<path class="cls-2" d="M143.89 419.74a20.3 20.3 0 0 1-2.74 3.45c-1.87 2.13-4.66 5.13-8.3 8.66a176.46 176.46 0 0 1-13.42 11.7c-2.64 2.07-5.46 4.18-8.45 6.27l-1.13.78a7 7 0 0 1-1.33.78 3.25 3.25 0 0 1-1.82.28 2.06 2.06 0 0 1-1.6-1.51 3 3 0 0 1 .23-1.88 7.2 7.2 0 0 1 .77-1.38l1.61-2.4a144.93 144.93 0 0 1 13.65-17c2.28-2.45 4.58-4.7 6.71-6.73a4.31 4.31 0 0 0 1.11-1.52 2.82 2.82 0 0 0 0-1.7c-.37-1.24-.83-2.55-1.21-3.73-1.58-4.8-2.83-8.69-3.66-11.4a22.13 22.13 0 0 1-1.13-4.25 22.17 22.17 0 0 1 1.73 4.05c1 2.63 2.43 6.47 4.15 11.22.43 1.21.89 2.39 1.33 3.78a4 4 0 0 1 0 2.45 5.77 5.77 0 0 1-1.37 2.05c-2.13 2.11-4.34 4.33-6.57 6.8a155.62 155.62 0 0 0-13.42 16.93l-1.59 2.38a5.71 5.71 0 0 0-.63 1.09 1.54 1.54 0 0 0-.15.87.42.42 0 0 0 .33.32 1.79 1.79 0 0 0 .88-.17 17.44 17.44 0 0 0 2.18-1.4c3-2.05 5.8-4.11 8.44-6.14 5.27-4.05 9.83-8 13.55-11.35s6.62-6.27 8.63-8.26a25.91 25.91 0 0 1 3.22-3.04Z"/>
			<path class="cls-2" d="M143.54 423c-.41.18-3.47-5.81-6.84-13.38s-5.76-13.86-5.35-14 3.48 5.8 6.84 13.38 5.81 13.83 5.35 14Z"/>
		</g>
		<path d="M140.57 415q5.52 9.69 11.05 19.38a45.62 45.62 0 0 0-6.07 6.69c-3.14 4.25-2.9 5.46-8.43 17.7-2.54 5.62-4 8.54-2.75 10 .82.93 2.5.88 3.6.57 3.33-.92 4.43-5 6.35-9.31.71-1.59-.1.44 9.88-15.15 2.29-3.58 5.25-8.25 8.69-13.78q-2.22-4.42-4.48-8.88-5-9.76-9.95-19.27Z" id="foot_left" data-name="foot left"/>
		<g id="leg_left" data-name="leg left">
			<path class="cls-1" d="M242.08 284.55a58.55 58.55 0 0 1-.24 10.68 43 43 0 0 1-3.66 14.71A38.86 38.86 0 0 1 230 321c-2.74 2.62-9.89 8.8-29.15 13.85-8 2.09-12.23 2.47-26.18 4.49-13 1.89-23.54 3.62-30.37 4.78.35 4.2.86 10.79 1.33 18.94.5 8.78.5 11.62.9 16.67a185.7 185.7 0 0 0 3.47 23.74 35.21 35.21 0 0 1-2.9 5.33 35.74 35.74 0 0 1-8.38 8.94 34.2 34.2 0 0 1-12.43 5.74 34.68 34.68 0 0 1-18.46-.83c-1.22-9.38-2-17.26-2.42-23a304.85 304.85 0 0 1-1.19-37.13c.26-7.68.78-12.7 1-14.33a194.6 194.6 0 0 1 3.64-21.32c1.78-8.5 2.75-11.54 4.73-14.93a31 31 0 0 1 5.42-7c4.93-4.61 10.23-5.76 18.18-7.65 22.41-5.32 19.78-5.57 31.28-7.61 7.47-1.33 13.71-2.13 18-2.62l-7.14-6.85c3.78-18.47 20.12-30.27 35.3-28.42 18.1 2.21 26.61 22.91 27.45 32.76Z"/>
			<path class="cls-2" d="M144.31 344.12a30.68 30.68 0 0 1 5-1.1c3.22-.61 7.89-1.43 13.65-2.41l20.28-3.37c7.63-1.26 16-2.48 24.52-5a65.11 65.11 0 0 0 11.91-4.85 48.37 48.37 0 0 0 9.74-6.84 41 41 0 0 0 3.83-4 36.4 36.4 0 0 0 3-4.27 32.85 32.85 0 0 0 3.6-8.65 66.26 66.26 0 0 0 1.49-7.68c.3-2.3.57-4.28.78-5.9a25.7 25.7 0 0 1 .9-5 37.46 37.46 0 0 1-.27 5.08c-.12 1.63-.26 3.63-.51 5.95a59.82 59.82 0 0 1-1.28 7.86 32.77 32.77 0 0 1-3.54 9 36 36 0 0 1-3.06 4.49 41.63 41.63 0 0 1-3.92 4.21 48.58 48.58 0 0 1-10 7.15 65.6 65.6 0 0 1-12.19 5c-8.64 2.61-17.13 3.78-24.77 5l-20.33 3c-5.79.83-10.48 1.48-13.73 1.89a29.77 29.77 0 0 1-5.1.44ZM186.42 287.05c-.33.31-1.87-.8-3.62-2.29s-3.08-2.85-2.82-3.22 2.06.42 3.88 2 2.89 3.2 2.56 3.51Z"/>
			<path class="cls-2" d="M107.43 421.58a7.87 7.87 0 0 1-.35-1.88c-.18-1.23-.42-3.06-.7-5.41-.55-4.71-1.31-11.52-2-20s-1.22-18.56-1-29.79a175 175 0 0 1 4.22-36.28c.4-1.58.79-3.14 1.19-4.7s.9-3.07 1.35-4.59a47.17 47.17 0 0 1 3.33-8.82 17.6 17.6 0 0 1 2.72-3.86 18 18 0 0 1 3.6-2.9 49.24 49.24 0 0 1 7.89-3.76 112.38 112.38 0 0 1 15.32-4.53c4.87-1.12 9.43-2 13.58-2.82 8.31-1.64 15-2.94 19.7-3.8 2.33-.44 4.14-.76 5.37-1a7.87 7.87 0 0 1 1.89-.22 8.28 8.28 0 0 1-1.82.54c-1.21.31-3 .73-5.31 1.26-4.62 1.05-11.32 2.52-19.6 4.31-4.13.9-8.68 1.84-13.5 3a111.58 111.58 0 0 0-15.08 4.67 48 48 0 0 0-7.61 3.67 17.18 17.18 0 0 0-3.28 2.67 16.78 16.78 0 0 0-2.47 3.53 47.94 47.94 0 0 0-3.19 8.55c-.43 1.5-1 3-1.32 4.53s-.78 3.09-1.17 4.65a180.19 180.19 0 0 0-4.31 35.95c-.29 11.16.15 21.22.66 29.67s1.11 15.27 1.47 20c.18 2.36.32 4.19.39 5.44a7.73 7.73 0 0 1 .03 1.92Z"/>
			<path class="cls-2" d="M149.61 400.69c-.21 0-1.08-3-2-8a162.28 162.28 0 0 1-2.45-39.76c.34-5.09.83-8.22 1-8.2s.16 3.17.11 8.25 0 12.08.48 19.8 1.29 14.69 2 19.72 1.09 8.14.86 8.19ZM149.06 405.26c.16.06-.69 2.75-3.34 6.41a32.79 32.79 0 0 1-31 13.07c-4.47-.65-7-1.92-6.92-2.08s2.7.59 7 .93a34.92 34.92 0 0 0 30-12.64c2.8-3.34 4.01-5.82 4.26-5.69Z"/>
			<path class="cls-2" d="M151.61 434.33c-.37.24-3.37-3.79-6.43-9.16s-5-10-4.61-10.2 3 4.07 6 9.39 5.43 9.73 5.04 9.97Z"/>
			<path class="cls-2" d="M162.86 431.06a14.07 14.07 0 0 1-1.58 3.14c-1.11 2-2.77 4.77-4.87 8.21-4.2 6.87-10.18 16.25-17.08 26.45a4.13 4.13 0 0 1-2.12 1.81 2.4 2.4 0 0 1-1.67-.13 2.84 2.84 0 0 1-1.16-1 3.26 3.26 0 0 1-.57-1.34 4.65 4.65 0 0 1 0-1.34 12.56 12.56 0 0 1 .56-2.27c.86-2.78 1.77-5.44 2.74-7.94a85.8 85.8 0 0 1 6.12-12.85 57.81 57.81 0 0 1 5.52-7.85 12 12 0 0 1 2.46-2.51c.23.19-3.14 3.91-7 10.93a97 97 0 0 0-5.73 12.81c-.91 2.48-1.78 5.12-2.61 7.88a10.78 10.78 0 0 0-.49 2 2.79 2.79 0 0 0 0 .87 1.66 1.66 0 0 0 .29.7 1 1 0 0 0 1.06.5 2.81 2.81 0 0 0 1.23-1.17c6.87-10.16 13-19.45 17.45-26.15 2.22-3.36 4-6.07 5.3-7.93a15.58 15.58 0 0 1 2.15-2.82ZM163 430.9c-.39.21-3.8-5.25-7.37-12.33s-5.92-13.07-5.52-13.26 3.42 5.48 7 12.53 6.33 12.84 5.89 13.06Z"/>
		</g>
		<g id="torso">
			<path class="cls-1" d="M236.46 178.55A196.15 196.15 0 0 1 219.18 190a74.1 74.1 0 0 0-12 8.64c-2.9 2.58-4.56 4.49-5.76 7-.62 1.31-1.27 3.11-1.83 8.4a96.07 96.07 0 0 0-.47 12.63 584.1 584.1 0 0 0-8.71 11.26 604.204 604.204 0 0 0-14.73 20.29 32.1 32.1 0 0 1 11.59-2.42c1.29 0 6.53-.05 14.22 3 2.3.91 5.87 2.5 18.25 11.39 10.27 7.39 10 7.88 14.77 10.57 9.28 5.28 15.56 6.42 17.74 6.76a43.53 43.53 0 0 0 10.36.34c.56-2.78 2.43-12.14 3-15 1.37-6.8 2.84-14.18 4.08-20.37 3.35-16.76 3.81-19.21 4.41-22.88 1.08-6.53 1.81-11 2.33-17.19a120.71 120.71 0 0 0 .45-17.59c-.53-10.05-.8-15.08-3.06-17.92-5.32-6.66-20.59-5.28-37.36 1.64Z"/>
			<path class="cls-2" d="M199 229.22a11.58 11.58 0 0 1-.07-2.7c0-1.72 0-4.2-.11-7.3a37.56 37.56 0 0 1 1.09-11 20.13 20.13 0 0 1 2.91-6 28.67 28.67 0 0 1 4.85-5.14 114.27 114.27 0 0 1 11-7.67c3.42-2.22 6.52-4.21 9.14-5.86 5.23-3.29 8.53-5.24 8.66-5.05s-3 2.47-8 6c-2.54 1.77-5.57 3.86-8.95 6.15s-7.21 4.69-10.75 7.66a27.82 27.82 0 0 0-4.6 4.83 18.7 18.7 0 0 0-2.77 5.47 39.73 39.73 0 0 0-1.4 10.62c-.09 3.08-.19 5.6-.41 7.33a7.39 7.39 0 0 1-.59 2.66Z"/>
			<path class="cls-2" d="M175.69 258.26c-.36-.25 4.33-7.71 10.81-16.42s12.26-15.37 12.6-15.09-4.84 7.37-11.29 16.06-11.74 15.71-12.12 15.45ZM264 288.19a13.13 13.13 0 0 1-3.79.35 49.9 49.9 0 0 1-10.38-.85 46 46 0 0 1-14.44-5.52 140.78 140.78 0 0 1-15.46-10.8A104.91 104.91 0 0 0 204.42 261a40 40 0 0 0-14.3-4.47 28.77 28.77 0 0 0-10.09.64c-2.34.6-3.57 1.17-3.63 1a10.5 10.5 0 0 1 3.45-1.65 26.59 26.59 0 0 1 10.37-1.18 39.42 39.42 0 0 1 14.88 4.28A99.57 99.57 0 0 1 220.87 270a153.88 153.88 0 0 0 15.22 10.8 47 47 0 0 0 13.91 5.76 62.78 62.78 0 0 0 10.15 1.35 23.32 23.32 0 0 1 3.85.28Z"/>
			<path class="cls-2" d="M262.62 287.85a20.64 20.64 0 0 1 .5-4.09c.42-2.6 1.09-6.37 1.94-11 1.69-9.3 4.22-22.11 7-36.24 1.36-7.07 2.48-13.82 3.23-20a152.44 152.44 0 0 0 1.18-16.46c.06-4.7-.19-8.5-.35-11.13a20.7 20.7 0 0 1-.22-4.1 18.79 18.79 0 0 1 .85 4 95.07 95.07 0 0 1 .87 11.2 132.7 132.7 0 0 1-.84 16.63c-.67 6.24-1.76 13-3.12 20.13-2.75 14.17-5.46 26.92-7.44 36.16-1 4.62-1.83 8.35-2.45 10.92a18.72 18.72 0 0 1-1.15 3.98Z"/>
		</g>
		<path d="M210.79 135.36a13 13 0 0 1-6.86-3.39 12.71 12.71 0 0 1-3.29-6.49c-.23-1.1-.84-4.7 1.39-10.09 2.5-6 6.55-9.48 11.5-13.67 6.83-5.77 12.63-8.41 18.12-10.9a26.35 26.35 0 0 1 7.74-2.4 19.91 19.91 0 0 1 9.24.6 18.75 18.75 0 0 1 6.5 3.64 27.19 27.19 0 0 1 8.68-.58A20.73 20.73 0 0 1 282.08 104a34.24 34.24 0 0 1 3.1 8.07c1.08 3.76 1.2 5.58 2.07 10.49a119.9 119.9 0 0 0 2.61 12.31 71.11 71.11 0 0 0 5.79 13.5c5.09 9.59 6.6 9.3 10.82 17 1 1.85.66 1.38 9.22 24.6 1.93 5.25 3.34 9 3.34 14.45 0 1.18-.07 4-1.6 10.11-2.48 9.94-3.72 14.91-6.85 18.66a25.15 25.15 0 0 1-23 8.09c-10.14-1.9-15.54-10.43-19.51-16.7-12.07-19.16-10.43-40.52-8.87-50.58-31.79-29.37-44-37.75-48.41-38.64Z" id="hair"/>
		<g id="head">
			<path class="cls-1" d="M244.36 105.94a56.92 56.92 0 0 0-13.64 2.48 41.88 41.88 0 0 0-7.67 3 39.33 39.33 0 0 0-11.76 9.61 89.16 89.16 0 0 0-.38 8.13 90.54 90.54 0 0 0 .79 12.12c.69 5.2 1.27 9.6 3.42 15a34.39 34.39 0 0 0 4 7.85 31.12 31.12 0 0 0 10.4 9.23l12.38-1.23c3.18 2.31 3.34 2.44 3.34 2.44 1.12.93 2.83 2.87 3.65 7.08a5.22 5.22 0 0 0 2.51.92c2.71.2 5.53-2 7.08-5.48a70 70 0 0 1 8.08-26.55 8 8 0 0 0 5.14-2 8.59 8.59 0 0 0 2.43-6.15c.1-1.64.23-3.94-1.36-5.69-2.39-2.61-6.54-1.66-6.76-1.61a51.14 51.14 0 0 1-8.53-6.53s-1.93-1.83-3.57-3.74c-5.54-6.46-8.62-15.82-9.55-18.88Z"/>
			<path class="cls-2" d="M228.9 173.62a5.36 5.36 0 0 1-2.07-1 23.8 23.8 0 0 1-4.83-3.89 33.94 33.94 0 0 1-5.43-7.44 43.78 43.78 0 0 1-4-10.52 69.82 69.82 0 0 1-1.75-11.07c-.28-3.43-.36-6.51-.39-9.1v-3.49a12 12 0 0 1 .22-2.69c.36-1.52 1.18-2 1.22-2a9.07 9.07 0 0 0-.59 2.07 14.16 14.16 0 0 0 .06 2.55c.07 1 .15 2.19.25 3.48.39 5.13.71 12.27 2.57 19.82a42 42 0 0 0 8.68 17.66 32.4 32.4 0 0 0 4.35 4.15c1.12.85 1.81 1.36 1.71 1.47ZM257.45 162.94c.14.13-.86 1.58-3 3.48a30.13 30.13 0 0 1-4 3 34.22 34.22 0 0 1-5.49 2.69 35.12 35.12 0 0 1-5.9 1.61 29.23 29.23 0 0 1-5 .41c-2.84 0-4.55-.45-4.53-.65s1.75-.23 4.47-.5a40.91 40.91 0 0 0 4.74-.74 45.1 45.1 0 0 0 5.62-1.65 41.18 41.18 0 0 0 9.35-5c2.29-1.67 3.55-2.83 3.74-2.65ZM265.62 149.58c.07-.1.43.11 1.09.24a4.55 4.55 0 0 0 2.73-.32 5.76 5.76 0 0 0 2.78-2.89 12 12 0 0 0 1.19-5.05 7.18 7.18 0 0 0-1.49-4.69 5.42 5.42 0 0 0-3.53-1.78 4.12 4.12 0 0 0-2.65.6.93.93 0 0 0-.49.47c-.05.16 0 .23-.05.23s-.22 0-.27-.29a1.13 1.13 0 0 1 .4-.9 4.35 4.35 0 0 1 3.09-1.27 6.34 6.34 0 0 1 4.6 1.93 8.21 8.21 0 0 1 2 5.71 12.34 12.34 0 0 1-1.49 5.74 6.66 6.66 0 0 1-3.72 3.28 4.61 4.61 0 0 1-3.33-.17c-.7-.36-.93-.77-.86-.84Z"/>
			<path class="cls-2" d="M225.58 125.83c-.2.13-.77-.53-1.84-1.28a8.21 8.21 0 0 0-9.33-.33c-1.12.67-1.73 1.29-1.93 1.15s.13-1 1.23-2.06a7.73 7.73 0 0 1 10.79.37c1.03 1.12 1.26 2.05 1.08 2.15ZM250.16 129.11c-.22.12-.79-.75-2-1.78a9.75 9.75 0 0 0-11.16-1.45c-1.41.7-2.18 1.39-2.37 1.22s.33-1.14 1.77-2.2a9.28 9.28 0 0 1 12.6 1.63c1.13 1.4 1.35 2.47 1.16 2.58ZM225.25 145.33c-.43-.23 1.91-4.41 2.22-10.1s-1.41-10.12-.95-10.3c.18-.08.9.92 1.57 2.78a20.06 20.06 0 0 1-.94 15.06c-.89 1.76-1.73 2.67-1.9 2.56ZM229.28 153.8c-.27.35-1.93-.51-3.29-2.3s-1.76-3.61-1.35-3.78 1.41 1.19 2.64 2.79 2.29 2.93 2 3.29ZM222.84 137.61c-.43.14-1.32-1.48-1.72-3.68s-.16-4 .29-4.06.92 1.67 1.31 3.76.55 3.85.12 3.98ZM239.61 139.58c-.43.11-1.31-1.84-1.58-4.42s.17-4.67.61-4.65.74 2 1 4.48.41 4.48-.03 4.59ZM243.83 151.58c.16.11-.35 1.24-1.69 2.69a15.59 15.59 0 0 1-2.65 2.24 17.79 17.79 0 0 1-3.8 1.93 18.72 18.72 0 0 1-4.15 1 15.75 15.75 0 0 1-3.46 0c-2-.26-3.08-.8-3-1s1.23-.11 3.08-.16a24 24 0 0 0 3.21-.31 24.67 24.67 0 0 0 3.8-1 23.41 23.41 0 0 0 3.55-1.67 22.51 22.51 0 0 0 2.66-1.82c1.42-1.2 2.25-2.05 2.45-1.9ZM240.9 107.08c0 .26-2.08.34-5.32.93-.82.15-1.7.32-2.64.57s-1.92.54-3 .85a44.73 44.73 0 0 0-6.5 2.74 45.68 45.68 0 0 0-5.94 3.79c-.84.68-1.67 1.31-2.38 2s-1.38 1.26-2 1.84c-2.33 2.34-3.57 4-3.79 3.86s.76-2 2.94-4.64a26.29 26.29 0 0 1 1.89-2 31.94 31.94 0 0 1 2.37-2.15 35.56 35.56 0 0 1 12.93-6.8c1.09-.28 2.12-.57 3.12-.73a25.72 25.72 0 0 1 2.76-.39c3.47-.39 5.57-.06 5.56.13ZM265.87 134.45c-.06.19-2-.29-4.67-2a30.84 30.84 0 0 1-8.69-8.62 52 52 0 0 1-5.57-10.83c-1.1-2.9-1.6-4.76-1.4-4.84s1.09 1.62 2.45 4.38a84.77 84.77 0 0 0 5.86 10.36 38.33 38.33 0 0 0 8 8.6c2.41 1.88 4.15 2.72 4.02 2.95Z"/>
			<path class="cls-2" d="M254.79 93.47c-.12.09-.83-1-2.66-2.26a15.48 15.48 0 0 0-8.86-2.54c-4 0-8.58 1.46-13.39 3.74a74.22 74.22 0 0 0-14.72 9c-4.78 3.84-9 8-11.6 12.57a19.41 19.41 0 0 0-2.44 6.9 13.19 13.19 0 0 0 .62 6.27 12.35 12.35 0 0 0 5.73 7 23.76 23.76 0 0 0 3.27 1.13c0 .06-.32.08-.93.07a8.31 8.31 0 0 1-2.61-.63 12.52 12.52 0 0 1-6.55-7.2 14.23 14.23 0 0 1-.87-6.84 20.38 20.38 0 0 1 2.47-7.46c2.67-4.89 7-9.19 11.9-13.11A70.65 70.65 0 0 1 229.26 91c4.92-2.24 9.8-3.69 14-3.53a15.23 15.23 0 0 1 9.22 3.2c1.84 1.54 2.38 2.77 2.31 2.8ZM290.4 136.46c-.18.09-1.75-3.31-2.93-9.15-.62-2.9-1.16-6.38-1.91-10.18a47.77 47.77 0 0 0-3.75-11.88 20.46 20.46 0 0 0-17.2-12.52 34.87 34.87 0 0 0-6.88-.19 10.09 10.09 0 0 1-2.57.11 6.48 6.48 0 0 1 2.49-.74 27.35 27.35 0 0 1 7.08-.33 22.36 22.36 0 0 1 10.12 3.11 23.19 23.19 0 0 1 8.43 9.84 46 46 0 0 1 3.72 12.32c.68 3.87 1.11 7.35 1.58 10.26.9 5.81 2.05 9.26 1.82 9.35Z"/>
			<ellipse class="cls-2" cx="245.36" cy="175.18" rx=".82" ry="4.04" transform="rotate(-34.57 245.33 175.158)"/>
			<path class="cls-2" d="M275.1 234.82a19.33 19.33 0 0 0 4.2 3.6 16.42 16.42 0 0 0 6.05 2.11 22 22 0 0 0 8.48-.54 33.8 33.8 0 0 0 9.54-4.05 26 26 0 0 0 8.34-8.27 35.46 35.46 0 0 0 4.72-12.21 50.67 50.67 0 0 0 .59-14.14 69.06 69.06 0 0 0-2.92-13.95 99.48 99.48 0 0 0-4.84-12.43c-3.59-7.73-7.47-14.41-10.6-20.08s-5.6-10.33-7.16-13.61c-.77-1.65-1.35-2.94-1.7-3.83a4.91 4.91 0 0 1-.47-1.38 46.48 46.48 0 0 1 2.74 4.92c1.72 3.18 4.31 7.74 7.59 13.32s7.26 12.24 11 20a99.89 99.89 0 0 1 5 12.58 70.15 70.15 0 0 1 3 14.27 51.4 51.4 0 0 1-.65 14.61 36.23 36.23 0 0 1-5 12.71 27.16 27.16 0 0 1-8.89 8.61 34.32 34.32 0 0 1-10 4 22.38 22.38 0 0 1-8.89.32A16.52 16.52 0 0 1 279 239a13 13 0 0 1-3.11-2.87 3.77 3.77 0 0 1-.79-1.31ZM259.4 178.17c.13.16-.59 1.12-2.13 2.3a18.91 18.91 0 0 1-2.89 1.78 21 21 0 0 1-1.85.8 10.24 10.24 0 0 1-1.07.36 2.38 2.38 0 0 1-1.56-.09 2.51 2.51 0 0 1-1.06-1.06l-.55-.88c-.36-.59-.68-1.16-1-1.72-.6-1.1-1.08-2.13-1.45-3-.74-1.76-1-2.91-.82-3s.86.88 1.84 2.47l1.72 2.78 1 1.62a6.73 6.73 0 0 0 .94 1.31c.1.11.79-.06 1.41-.29s1.21-.44 1.76-.67c1.11-.46 2.08-.95 2.89-1.38 1.68-.87 2.66-1.5 2.82-1.33Z"/>
			<path class="cls-2" d="M264.55 204c-.2.07-1.42-2.79-3-7.57a81.48 81.48 0 0 1-2.33-8.56A50.82 50.82 0 0 1 258 177a40.1 40.1 0 0 1 1.62-10.84 62.14 62.14 0 0 1 3.11-8.33c2.1-4.59 3.64-7.28 3.83-7.2s-1 3-2.76 7.64-4.16 11.2-4.17 18.74a56.14 56.14 0 0 0 1 10.56c.6 3.23 1.33 6.11 2 8.52 1.37 4.91 2.15 7.91 1.92 7.91Z"/>
		</g>
		<g id="arm">
			<path class="cls-1" d="M248 184.84c0-2.35 1.17-4.62 3.48-9.16a52.13 52.13 0 0 1 6.08-9.45c3.47-4.21 5.2-6.31 8.34-7.94 1.9-1 5.52-2.86 9.83-1.86 4.1.94 6.46 3.93 7.69 5.49.83 1.05 2.55 3.47 4 9.54a61.53 61.53 0 0 1 1.48 12.77c.08 1.85-.76-17.85 1.36 17.43 1.47 24.28 2.2 36.43 2.54 44.94.59 14.44 1 30.37 1.16 47.61l-5.32 4.51q1.83 4.74 3.64 9.48c1.81.47 4.57 1.16 8 1.85s6.1 1.09 15.38 2.56c6.59 1 9.94 1.61 12.92 3.92a16.61 16.61 0 0 1 3.22 3.47c-.79 1.23-1.72 2.59-2.8 4-.47.62-1.55 2-3 3.69a68.64 68.64 0 0 1-6.81 6.78q-3.88-1.77-8.05-3.48c-6.9-2.82-13.56-5.14-19.86-7 2.14 3.26 2.22 4.35 1.86 4.72-.67.7-3-.95-6.61-2.22a29.27 29.27 0 0 0-9.15-1.67c-.63-3.15-1.22-6.46-1.73-9.91s-.91-6.68-1.23-9.83a16.78 16.78 0 0 1-4.57.1 17.12 17.12 0 0 1-7.22-2.6 83.36 83.36 0 0 1-2.54-11.5 100.68 100.68 0 0 1-.94-12.67c-.41-12.62-1-11.89-1.22-20.7-.24-10.9.75-10 .87-25.62.07-7.59-.15-9.68 0-18.42.12-6.35.35-11.58.53-15.09-1.61-.88-11.43-6.24-11.33-13.74Z"/>
			<path class="cls-2" d="M293.91 294.11a8.12 8.12 0 0 1-.19-1.9c-.06-1.25-.13-3.09-.21-5.46-.15-4.75-.38-11.61-.65-20.09-.6-17-1.66-40.36-3.55-66.17-.47-6.46-1-12.75-1.49-18.83-.25-3-.48-6-1-8.86a28 28 0 0 0-2.51-8 16.3 16.3 0 0 0-5.06-5.89 11.45 11.45 0 0 0-6.8-2.25 12.16 12.16 0 0 0-6.39 2.21 33.78 33.78 0 0 0-5 4.2 51.67 51.67 0 0 0-11 16.43c-1.8 4.36-2.36 6.94-2.5 6.91a7.16 7.16 0 0 1 .31-1.89 42.92 42.92 0 0 1 1.6-5.26 49.71 49.71 0 0 1 10.8-17 34 34 0 0 1 5.12-4.44 13.47 13.47 0 0 1 7-2.52 12.87 12.87 0 0 1 7.66 2.43 17.7 17.7 0 0 1 5.58 6.38 29.27 29.27 0 0 1 2.7 8.38c.53 2.95.78 6 1.05 9 .53 6.08 1 12.39 1.52 18.85 1.89 25.84 2.77 49.29 3.07 66.26.16 8.49.16 15.36.14 20.11 0 2.37-.06 4.21-.1 5.46a9.22 9.22 0 0 1-.1 1.94Z"/>
			<path class="cls-2" d="M259.8 198.71c-.21.4-2.17-.24-4.27-1.58s-3.5-2.86-3.23-3.21 2.07.53 4.11 1.83 3.59 2.56 3.39 2.96Z"/>
			<path class="cls-2" d="M262.88 303.23a14.54 14.54 0 0 1-1.55-3.89 61.12 61.12 0 0 1-2.13-11.22c-.52-4.8-.79-10.5-1.06-16.84s-.41-13.32-.44-20.65c-.07-14.64.32-27.89.68-37.48.19-4.79.38-8.67.55-11.34a20.52 20.52 0 0 1 .42-4.16 21 21 0 0 1 .21 4.17v11.36c-.07 9.59-.28 22.83-.21 37.45 0 7.31.14 14.27.31 20.6s.33 12 .7 16.78a76 76 0 0 0 1.64 11.16 37.07 37.07 0 0 1 .88 4.06ZM293.88 294.22c.15.12-.92 1.79-3.36 3.81a38.13 38.13 0 0 1-10.73 5.85 30.78 30.78 0 0 1-6.53 1.84 13.29 13.29 0 0 1-5.65-.31 8.9 8.9 0 0 1-3.37-1.78c-.67-.61-.91-1.05-.84-1.12s1.57 1.22 4.49 1.78a14.08 14.08 0 0 0 5.13-.05 35.3 35.3 0 0 0 6.19-1.89 49.85 49.85 0 0 0 10.62-5.25c2.51-1.69 3.86-3.05 4.05-2.88Z"/>
			<path class="cls-2" d="M286.53 321.75c.13-.17 2.46 1.09 6.19 3.4a3.71 3.71 0 0 1 1.37 1.47 2.48 2.48 0 0 1 .21 1.19 2 2 0 0 1-.56 1.27 2.07 2.07 0 0 1-1.34.54 4.77 4.77 0 0 1-1.18-.14l-2-.49c-2.79-.68-5.84-1.44-9.05-2.26a12.31 12.31 0 0 1-2.49-.8 3.74 3.74 0 0 1-1.88-2.24 8.1 8.1 0 0 1-.31-2.51v-2.2a61.21 61.21 0 0 0-.4-7.51c-.49-4.26-1.15-6.86-.91-6.93s1.25 2.45 2.05 6.76a47.78 47.78 0 0 1 .77 7.7 16 16 0 0 0 .28 4.22 2.15 2.15 0 0 0 1.09 1.3 13.43 13.43 0 0 0 2.17.66c3.2.82 6.25 1.63 9 2.38 1.32.33 3 1 3.26.57a1 1 0 0 0 .12-1 2.78 2.78 0 0 0-.88-1c-3.48-2.54-5.64-4.19-5.51-4.38ZM331.29 317.92c-.12.23-2.64-1.09-7-2.42a122.39 122.39 0 0 0-17.43-3.58c-3.45-.54-6.74-1.08-9.73-1.6L295 310a8.55 8.55 0 0 1-2.19-.61 3.69 3.69 0 0 1-1.69-1.57 8.27 8.27 0 0 1-.71-1.8c-1.3-4.4-2-7.16-1.78-7.23s1.3 2.56 2.88 6.87c.39 1.07.82 2.12 1.86 2.5a23.39 23.39 0 0 0 4 .73c3 .43 6.3.93 9.76 1.47 6.92 1.05 13.21 2.4 17.54 4.1s6.72 3.3 6.62 3.46Z"/>
			<path class="cls-2" d="M319.19 334.48c-.2.42-7.06-2.41-15.64-5.56S287.91 323.46 288 323s7.42 1.19 16.07 4.38 15.31 6.71 15.12 7.1ZM320.76 333.56c-.36.33-3.69-3-8.59-5.88s-9.36-4.32-9.24-4.79c.05-.2 1.26-.13 3.13.38a29.14 29.14 0 0 1 12.88 7.7c1.34 1.42 1.97 2.44 1.82 2.59ZM325.11 329.36c0 .05 0 .14-.18.22a1 1 0 0 1-.75 0 3.63 3.63 0 0 1-.92-.53l-1-.72a35.45 35.45 0 0 0-6.23-3.52c-5.13-2.27-9.81-2.47-9.79-2.95 0-.21 1.18-.45 3.12-.34a22.51 22.51 0 0 1 13.64 5.92c.7.66 1.18 1.31 1.5 1.57s.55.25.61.35ZM327.18 327.23c-.21.14-.93-.7-2.28-1.77a21.7 21.7 0 0 0-5.83-3.25 64.72 64.72 0 0 0-6.57-1.93c-1.73-.45-2.79-.81-2.76-1s1.16-.26 3-.09a27.29 27.29 0 0 1 6.95 1.54 15.73 15.73 0 0 1 6 3.93c1.31 1.34 1.66 2.47 1.49 2.57ZM329.88 323.47c-.35.33-3.06-2.24-7.26-3.73s-7.91-1.35-7.95-1.83c0-.2.9-.55 2.47-.65a15.82 15.82 0 0 1 11.27 4.12c1.13 1.09 1.59 1.95 1.47 2.09Z"/>
		</g>
	</g>
</svg>
