<svg id="illustration" xmlns="http://www.w3.org/2000/svg" viewBox="0 0 520.41 383.5">
  <title>meditation</title>
  <g id="SIMPLE_BACKGROUND">
    <g id="mountains_sun" data-name="mountains&amp;sun">
      <path d="M309.84,217.06a3,3,0,0,1-.78-.12l-2.24-.53c-2-.48-4.87-1.22-8.59-2.2-7.43-2-18.17-4.93-31.36-8.85s-28.84-8.8-46.09-14.61c-8.62-2.9-17.64-6.06-27-9.39s-19-6.63-29.2-8.84a98.19,98.19,0,0,0-15.25-2.15,106.81,106.81,0,0,0-15,0,141,141,0,0,0-27.86,5.14A245,245,0,0,0,82.23,184c-7.49,3-14.38,6-20.64,8.88L31.91,206.28l-8.1,3.58-2.12.9a2.77,2.77,0,0,1-.75.25,3.25,3.25,0,0,1,.68-.4l2.05-1,8-3.87c6.94-3.31,17-8.09,29.46-13.91,6.24-2.91,13.11-6,20.61-9.08a236.4,236.4,0,0,1,24.41-8.62,140.84,140.84,0,0,1,28.15-5.29A107.26,107.26,0,0,1,165,170.93c10.33,2.24,20.07,5.61,29.39,8.93s18.3,6.53,26.91,9.47c17.2,5.88,32.79,10.87,45.93,14.93s23.82,7.17,31.2,9.33l8.5,2.5,2.2.68A2.86,2.86,0,0,1,309.84,217.06Z" stroke="#000" stroke-miterlimit="10" stroke-width="0.5"/>
      <path d="M492.44,199.49a16.81,16.81,0,0,1-2.53-.75l-7.12-2.47-26.11-9.33c-11-3.95-24.11-8.73-39-12.88s-31.66-7.47-49.44-7a145.82,145.82,0,0,0-25.72,3c-8.24,1.63-16.1,3.64-23.6,5.54l-39.87,10.07c-11.36,2.84-20.56,5.11-26.92,6.65L244.81,194a14.31,14.31,0,0,1-2.59.49,17,17,0,0,1,2.51-.81l7.26-2c6.32-1.73,15.47-4.17,26.79-7.16l39.78-10.41c7.5-1.94,15.38-4,23.67-5.64a144.38,144.38,0,0,1,26-3.09c18-.43,35,3,49.88,7.22s28,9.16,39,13.25,19.82,7.47,25.93,9.82l7,2.75A15.69,15.69,0,0,1,492.44,199.49Z" stroke="#000" stroke-miterlimit="10" stroke-width="0.5"/>
      <g>
        <circle cx="376.99" cy="52.73" r="51.79" fill="#fff"/>
        <path d="M428.77,52.55a3.24,3.24,0,0,1-.13-.83c0-.56-.11-1.38-.2-2.45l-.13-1.8c-.11-.66-.24-1.38-.37-2.15l-.42-2.51c-.15-.89-.46-1.81-.71-2.8A49.7,49.7,0,0,0,421,26.39,51.46,51.46,0,0,0,407.88,12l-2.22-1.64-2.41-1.46L402,8.11l-.62-.37-.66-.31-2.65-1.27c-.45-.21-.89-.44-1.36-.63L395.31,5l-2.87-1c-1-.3-2-.52-3-.79a24.64,24.64,0,0,0-3.09-.68,45.6,45.6,0,0,0-6.46-.73c-1.1,0-2.21-.15-3.32-.11l-3.38.18c-.57,0-1.14,0-1.7.12l-1.7.27c-1.14.19-2.3.31-3.43.56a56.62,56.62,0,0,0-13.44,5c-1.07.6-2.1,1.27-3.17,1.91a17.32,17.32,0,0,0-1.57,1l-1.5,1.12a57,57,0,0,0-5.77,4.93l-2.59,2.85-.65.72-.58.78-1.16,1.56-1.17,1.57-1,1.67-1,1.69-.51.85-.43.89c-.58,1.19-1.15,2.39-1.73,3.59l-1.38,3.78A54.29,54.29,0,0,0,326,52.73a54.28,54.28,0,0,0,2.62,16.06L330,72.57c.58,1.2,1.15,2.4,1.73,3.59l.43.89.51.85,1,1.69,1,1.68,1.17,1.56,1.16,1.57.58.77.65.72,2.59,2.85a55.71,55.71,0,0,0,5.77,4.93l1.5,1.12c.49.39,1,.67,1.57,1,1.07.63,2.1,1.3,3.17,1.9a55.49,55.49,0,0,0,13.44,5c1.13.25,2.29.37,3.43.57l1.7.26c.56.09,1.13.08,1.7.12l3.38.18c1.11,0,2.22-.08,3.32-.11a45.6,45.6,0,0,0,6.46-.73,23,23,0,0,0,3.09-.68c1-.27,2-.49,3-.79l2.87-1,1.42-.51c.47-.18.91-.42,1.36-.63L400.74,98l.66-.32.62-.37,1.23-.74,2.41-1.46,2.22-1.64A51.46,51.46,0,0,0,421,79.06a49.58,49.58,0,0,0,5.82-13.62c.25-1,.56-1.9.71-2.8l.42-2.5c.13-.78.26-1.5.37-2.15l.13-1.81c.09-1.07.16-1.89.2-2.45a3.24,3.24,0,0,1,.13-.83,3.15,3.15,0,0,1,0,.84c0,.55,0,1.38-.05,2.46,0,.55,0,1.16-.05,1.83s-.18,1.39-.29,2.18-.22,1.63-.35,2.54-.42,1.84-.65,2.85a48.76,48.76,0,0,1-5.65,13.93,51.9,51.9,0,0,1-13.2,14.89l-2.25,1.7-2.45,1.52-1.25.76-.64.39-.66.33-2.71,1.32c-.46.21-.91.46-1.39.65l-1.45.54-2.94,1.09c-1,.31-2.05.55-3.08.83a26,26,0,0,1-3.17.72,48,48,0,0,1-6.63.79c-1.13,0-2.27.17-3.42.14l-3.47-.17c-.58,0-1.17,0-1.75-.11l-1.75-.27c-1.17-.19-2.36-.31-3.53-.57a54,54,0,0,1-7-2,55.81,55.81,0,0,1-6.85-3c-1.11-.61-2.18-1.3-3.28-2-.53-.35-1.11-.63-1.62-1l-1.55-1.15a58.89,58.89,0,0,1-6-5.06l-2.67-2.94-.67-.73-.61-.8-1.2-1.61-1.21-1.62-1.06-1.73-1.06-1.73-.53-.88-.45-.92-1.78-3.7c-.48-1.29-.95-2.59-1.43-3.89a55.78,55.78,0,0,1-2.71-16.58,55.73,55.73,0,0,1,2.71-16.58l1.43-3.9,1.78-3.7.45-.92.53-.87L332.35,25l1.06-1.73,1.21-1.62,1.2-1.6.61-.8.67-.74c.89-1,1.79-2,2.67-2.94a58.89,58.89,0,0,1,6-5.06l1.55-1.15c.51-.4,1.09-.68,1.62-1C350,7.7,351.07,7,352.18,6.4a55.81,55.81,0,0,1,6.85-3,54,54,0,0,1,7-2c1.17-.26,2.36-.38,3.53-.57l1.75-.26c.58-.09,1.17-.08,1.75-.12l3.47-.17c1.15,0,2.29.1,3.42.14a48,48,0,0,1,6.63.79,26,26,0,0,1,3.17.72c1,.28,2.08.52,3.08.83l2.94,1.09,1.45.54c.48.19.93.44,1.39.65l2.71,1.32.66.33.64.39,1.25.77,2.45,1.51,2.25,1.7a51.8,51.8,0,0,1,13.2,14.9,48.6,48.6,0,0,1,5.65,13.92c.23,1,.53,1.94.65,2.85s.24,1.76.35,2.55.2,1.51.29,2.17,0,1.28.05,1.83c0,1.08,0,1.91.05,2.46A3.15,3.15,0,0,1,428.77,52.55Z" stroke="#000" stroke-miterlimit="10" stroke-width="0.5"/>
      </g>
    </g>
    <g id="plants">
      <path d="M439,355.61a28.8,28.8,0,0,1-10.1-10,281,281,0,0,1,2.34-28.52,21.4,21.4,0,0,1,2.52-7.6,20.61,20.61,0,0,1,4.51-5.43,45.87,45.87,0,0,1,12.11-24.35,49.41,49.41,0,0,1,10.23-24.33,60.86,60.86,0,0,1,9-19.7c4.72-7.22,6.6-7.88,7.74-8.06.28,0,3.29-.58,4.94,1.15,1.49,1.58.92,4-.21,10.15-.59,3.22-.95,6.47-1.68,9.66-4,17.31-3,15.1-4.65,20.94a177.31,177.31,0,0,1-6.19,18.26,9.39,9.39,0,0,1,3.1,2.41,9.58,9.58,0,0,1,1.45,2.36,31.49,31.49,0,0,1,2.64-6.33,32.1,32.1,0,0,1,5.94-7.7A83.68,83.68,0,0,1,488,264.08,66.32,66.32,0,0,1,493.67,254a54.19,54.19,0,0,1,16.51-15.25,5.89,5.89,0,0,1,3.76-3.51,5.12,5.12,0,0,1,5,1.12c.63.72,1.05,1.81.43,6.64a47.11,47.11,0,0,1-1.27,6.9,241.87,241.87,0,0,1-9.34,24.95c-1.69,3.76-4.56,10.19-8.27,18.63,1.3.14,3.06.56,3.87,1.9,1.26,2.06-.45,5.15-1.28,6.75-2.74,5.27-3.47,11.39-5.93,16.79-3.5,7.7-7.65,17.18-12.68,28.69C469.35,359.42,451.48,362.75,439,355.61Z" fill="#fff"/>
      <path d="M35.79,365.51a66.09,66.09,0,0,1-6.39-8,80,80,0,0,1-7.8-14.24,45.23,45.23,0,0,1-3.5-10.59c-.46-2.56-1.19-5.15-.6-8.35a16.31,16.31,0,0,1,.73-2.65c-2.27-7.35-5.32-17.38-8.88-29.36C2,267.56,9.31,291,1.29,255.8a38.33,38.33,0,0,1,.36-15.24c.9-4.17,2-5.6,3.27-6.05,2.54-.88,5.63,2.09,6.52,3A19.12,19.12,0,0,1,16.23,246c1.44,4.32.66.38,7.53,15.5,2.4,5.28,5.39,12.13,8.64,20.31.55-1.22,1.49-2.8,2.86-3s3,1.34,6.08,6c1.7,2.57,4,6.18,6.37,10.73l1.92-2.4a25.52,25.52,0,0,0-.07-4.89,63.46,63.46,0,0,0-1.72-8.13c-.81-3.26-1.08-4.17-.8-5.61a8.27,8.27,0,0,1,1.9-3.81,130.29,130.29,0,0,1-4.88-17.29A74.5,74.5,0,0,1,42.15,238c0-3.54,0-14.18,2.94-14.86,2.44-.55,5.92,5.87,9,11.5,3.24,6,4.86,9,6.83,15.4,2.35,7.7,7.62,21.07,20.35,46,.47-.74,1.81-2.65,3.62-2.65s3.18,2,4.09,3.44c3.82,6.15,7.48,15.19,9.11,19.38a14.39,14.39,0,0,1,6.06,2.79c5.07,4,5.51,10.19,5.57,11.34C73.92,357.07,43.08,372.3,35.79,365.51Z" fill="#fff"/>
      <path d="M18.72,323.33c.07.13-.66.34-1,1.39A8.26,8.26,0,0,0,18,329.5a85.35,85.35,0,0,0,13.78,30.27c2.49,3.5,4.22,5.55,4,5.72s-2.18-1.64-5-5A67.13,67.13,0,0,1,21.88,346a66.07,66.07,0,0,1-5-16.26c-.47-2.11-.41-4.11.27-5.28a2.31,2.31,0,0,1,1.09-1.05C18.52,323.27,18.71,323.29,18.72,323.33Z" stroke="#000" stroke-miterlimit="10" stroke-width="0.5"/>
      <path d="M36.91,293.88a6.46,6.46,0,0,1-.7-1.47c-.4-1-1-2.46-1.75-4.33-1.52-3.76-3.69-9.21-6.59-15.85s-6.51-14.46-10.85-23c-1.08-2.13-2.21-4.31-3.39-6.52-.59-1.09-1.17-2.26-1.8-3.29a14,14,0,0,0-2.26-2.87,5.16,5.16,0,0,0-3-1.53,3.16,3.16,0,0,0-2.75,1.36,8.44,8.44,0,0,0-1.27,3.43c-.22,1.29-.32,2.68-.48,4-.89,10.93.88,21.39,3.07,30.66S10,292,11.93,299s3.66,12.59,4.75,16.5c.54,2,.95,3.47,1.21,4.51a6.56,6.56,0,0,1,.32,1.61,5.71,5.71,0,0,1-.63-1.51c-.37-1-.87-2.5-1.51-4.42-1.27-3.85-3.07-9.44-5.25-16.37s-4.77-15.15-7.1-24.5A128.48,128.48,0,0,1,.9,260,81.37,81.37,0,0,1,.48,243.7c.17-1.41.26-2.76.5-4.18a10.12,10.12,0,0,1,1.58-4.11,4.8,4.8,0,0,1,4.16-2,6.71,6.71,0,0,1,3.94,2,15.9,15.9,0,0,1,2.52,3.21c.7,1.16,1.23,2.27,1.83,3.39,1.17,2.22,2.29,4.42,3.36,6.57,4.27,8.6,7.8,16.51,10.56,23.22s4.79,12.24,6.12,16.07c.67,1.92,1.16,3.42,1.47,4.44A5.76,5.76,0,0,1,36.91,293.88Z" stroke="#000" stroke-miterlimit="10" stroke-width="0.5"/>
      <path d="M77.18,344.5a16.49,16.49,0,0,1-1.78-3.2c-1.06-2.1-2.53-5.16-4.32-9S67.19,324,64.84,319a141.47,141.47,0,0,0-8.5-15.81A72.24,72.24,0,0,0,51,295.91c-.44-.56-1-1.12-1.39-1.6l-.1-.11,0-.05-.07,0-.12.07-.18.17a2.55,2.55,0,0,0-.42,2.93l-1.34.69a90.72,90.72,0,0,0-5-10.37q-1.29-2.27-2.51-4.18a15.49,15.49,0,0,0-2.45-3.22,4.14,4.14,0,0,0-1.38-.87,2.35,2.35,0,0,0-1.34-.12,2.6,2.6,0,0,0-1.61,1.47,1.57,1.57,0,0,0,0,1.36c.15.3.32.41.28.46s-.23,0-.49-.32a1.78,1.78,0,0,1-.21-1.67,3.11,3.11,0,0,1,1.86-2,3.9,3.9,0,0,1,3.53,1,15.74,15.74,0,0,1,2.77,3.31c.87,1.26,1.77,2.65,2.68,4.15a83.42,83.42,0,0,1,5.33,10.43l-1.34.69a4.07,4.07,0,0,1,.56-4.8l.25-.25c.12-.1.25-.18.37-.27a4,4,0,0,1,.78-.43,1.92,1.92,0,0,1,.41-.16l.32.29c.22.18.42.45.64.67.54.6,1,1.1,1.49,1.69a67.59,67.59,0,0,1,5.47,7.41,126.37,126.37,0,0,1,8.49,16c2.3,5.07,4.26,9.67,5.93,13.52s3,7,3.85,9.18A15.2,15.2,0,0,1,77.18,344.5Z" stroke="#000" stroke-miterlimit="10" stroke-width="0.5"/>
      <path d="M81,298.77a6.7,6.7,0,0,1-.76-1.48c-.44-1-1.07-2.46-1.87-4.35-1.59-3.8-3.9-9.29-6.74-16.08S65.3,262,61.39,253.1c-2-4.44-4-9.11-6.19-13.95l-3.33-7.36c-.58-1.23-1.12-2.53-1.73-3.69a10.83,10.83,0,0,0-2.31-3.1,4.11,4.11,0,0,0-1.34-.82,3.1,3.1,0,0,0-.73-.17c-.1,0-.17,0-.22,0l-.26.47-.38.8c-.24.53-.47,1.08-.66,1.64A25.78,25.78,0,0,0,43,233.83a74.41,74.41,0,0,0,.85,13.63,114,114,0,0,0,2.43,12.4c.5,1.94,1,3.82,1.6,5.62.28.9.56,1.79.86,2.65l.44,1.29.36,1c.1.31.31.73.23.88-.25,0-.58,0-.84,0l-.4,0-.14.08a1.25,1.25,0,0,0-.36.42,3.79,3.79,0,0,0-.37,1.3,5.54,5.54,0,0,0,0,1.41l.17,1.49c.23,2,.51,3.81.81,5.54.6,3.45,1.28,6.4,1.89,8.81S51.66,294.71,52,296a10,10,0,0,1,.49,2,7.64,7.64,0,0,1-.84-1.84c-.48-1.24-1.13-3.07-1.85-5.47s-1.5-5.35-2.2-8.81c-.34-1.73-.67-3.59-1-5.57l-.2-1.5a7.23,7.23,0,0,1,0-1.68,4.86,4.86,0,0,1,.49-1.75,2.62,2.62,0,0,1,.66-.81l.2-.14.08,0a.45.45,0,0,1,.16,0c.15,0,0-.11,0-.19l-.1-.26-.47-1.29c-.31-.87-.61-1.76-.91-2.66-.59-1.82-1.16-3.71-1.69-5.67a111,111,0,0,1-2.58-12.54,74.21,74.21,0,0,1-.94-13.94,26.49,26.49,0,0,1,1.34-7.33c.2-.61.45-1.2.71-1.79l.42-.87.64-1.15c.08-.34.42-.21.68-.24a4.05,4.05,0,0,1,.79,0,5.16,5.16,0,0,1,1.1.25,6,6,0,0,1,1.84,1.12c2.37,2.12,3.3,4.94,4.46,7.36s2.22,5,3.31,7.38c2.15,4.84,4.19,9.53,6.11,14,3.83,8.95,7.15,17.07,9.88,23.91s4.85,12.42,6.27,16.28c.71,1.94,1.24,3.45,1.59,4.48A6.79,6.79,0,0,1,81,298.77Z" stroke="#000" stroke-miterlimit="10" stroke-width="0.5"/>
      <path d="M102.16,325.37c0,.05-.19,0-.35.17a.54.54,0,0,0-.16.35c0,.11.09.15.18.12s.28-.26.21-.23l-.51-.93-1.27-2.45c-1.85-3.64-4.32-8.72-6.94-14.37-1.32-2.83-2.55-5.53-3.65-8a33.77,33.77,0,0,0-1.62-3.39,6.34,6.34,0,0,0-2-2.25,3.17,3.17,0,0,0-2.27-.48,3.31,3.31,0,0,0-1.67.73c-.78.69-.72,1.41-.87,1.39s-.12-.16-.12-.49a2.12,2.12,0,0,1,.53-1.33A3.62,3.62,0,0,1,83.6,293a4,4,0,0,1,3,.38,7.28,7.28,0,0,1,2.56,2.53A31.41,31.41,0,0,1,91,299.4c1.18,2.43,2.45,5.11,3.77,7.94,2.62,5.66,4.92,10.81,6.51,14.58l1,2.55.22.55.1.25a1.75,1.75,0,0,1,.11.33.81.81,0,0,1-.29.79,1,1,0,0,1-.62.25.68.68,0,0,1-.6-.28.67.67,0,0,1-.11-.55.87.87,0,0,1,.46-.55C102,325.11,102.2,325.34,102.16,325.37Z" stroke="#000" stroke-miterlimit="10" stroke-width="0.5"/>
      <path d="M113.42,341.35c-.45.12-2.23-5.56-5.14-12.25-1.45-3.36-2.88-6.33-3.92-8.5l-.68-1.43a2.22,2.22,0,0,0-.7-.7,1.09,1.09,0,0,0-.31-.13.38.38,0,0,0-.25,0c-.11.08-.14.14-.17.11a.42.42,0,0,1,0-.4.55.55,0,0,1,.33-.23,1.37,1.37,0,0,1,.57,0,2.4,2.4,0,0,1,1.23.77c.33.46.6.87.94,1.4a61.85,61.85,0,0,1,4.42,8.41C112.74,335.29,113.84,341.26,113.42,341.35Z" stroke="#000" stroke-miterlimit="10" stroke-width="0.5"/>
      <path d="M49.59,353.47a28.22,28.22,0,0,1-2.46-4.2c-.75-1.38-1.64-3.07-2.64-5s-2.16-4.24-3.36-6.76c-2.46-5-5.25-11.08-8.22-17.86s-6-14.32-9.07-22.3-5.7-15.68-8-22.71-4.21-13.42-5.71-18.82c-.77-2.69-1.4-5.14-2-7.29s-1-4-1.38-5.53a29.69,29.69,0,0,1-1-4.77,27.28,27.28,0,0,1,1.56,4.61l1.65,5.45c.64,2.12,1.35,4.55,2.19,7.21,1.63,5.34,3.67,11.67,6,18.66s5.09,14.64,8.1,22.61S31.44,312.2,34.29,319s5.56,12.89,7.88,18c1.14,2.55,2.22,4.83,3.14,6.85s1.74,3.75,2.39,5.17A27.83,27.83,0,0,1,49.59,353.47Z" stroke="#000" stroke-miterlimit="10" stroke-width="0.5"/>
      <path d="M37.65,329.27c-.41.25-5.15-7-11.73-15.41s-12.45-14.79-12.11-15.12,6.77,5.6,13.39,14.11S38,329.06,37.65,329.27Z" stroke="#000" stroke-miterlimit="10" stroke-width="0.5"/>
      <path d="M32.38,314.94C32,315,30,306.5,28.85,295.77s-.9-19.48-.47-19.49,1,8.67,2.09,19.32S32.84,314.85,32.38,314.94Z" stroke="#000" stroke-miterlimit="10" stroke-width="0.5"/>
      <path d="M21.24,287.07c-.42.22-3.85-5.67-8.55-12.6S3.84,262.13,4.2,261.83s5.11,4.68,9.84,11.72S21.62,286.88,21.24,287.07Z" stroke="#000" stroke-miterlimit="10" stroke-width="0.5"/>
      <path d="M46.34,343.92c-.2,0-1-2.48-1.78-6.71-.39-2.11-.71-4.65-.94-7.48a92.3,92.3,0,0,1-.17-9.24,88.19,88.19,0,0,1,.86-9.2c.43-2.8.94-5.31,1.48-7.39,1.07-4.16,2.08-6.62,2.28-6.56.5.14-2.56,10.29-3,23.21S46.85,343.82,46.34,343.92Z" stroke="#000" stroke-miterlimit="10" stroke-width="0.5"/>
      <path d="M83.75,331a22,22,0,0,1-2.15-3.72c-1.29-2.44-3.07-6-5.19-10.47-4.23-8.91-9.7-21.41-15-35.5S52,254.17,49.28,244.68c-1.34-4.75-2.36-8.61-3-11.29a21.37,21.37,0,0,1-.83-4.21,21.11,21.11,0,0,1,1.44,4l3.5,11.13c3,9.38,7.25,22.29,12.53,36.35s10.58,26.59,14.54,35.6c2,4.51,3.6,8.15,4.71,10.68A22,22,0,0,1,83.75,331Z" stroke="#000" stroke-miterlimit="10" stroke-width="0.5"/>
      <path d="M79.66,322.76c-.2.12-2.18-2.77-5.23-7.53s-7.18-11.4-11.64-18.79-8.44-14.11-11.23-19-4.09-8.24-3.88-8.33,1.85,3,4.88,7.74,7.16,11.4,11.62,18.79,8.43,14.12,11.23,19S79.85,322.65,79.66,322.76Z" stroke="#000" stroke-miterlimit="10" stroke-width="0.5"/>
      <path d="M76.21,311.85c-.43.11-3.18-8.77-5.69-20s-3.84-20.38-3.41-20.46,2.49,9,5,20.1S76.65,311.73,76.21,311.85Z" stroke="#000" stroke-miterlimit="10" stroke-width="0.5"/>
      <path d="M438.3,304.11c.15.2-.91,1.14-2.18,2.94a24.33,24.33,0,0,0-3.51,7.8,64,64,0,0,0-1.43,8.63c-.27,2.25-.51,3.66-.74,3.65s-.39-1.42-.42-3.72a35,35,0,0,1,1-9,19.29,19.29,0,0,1,4.2-8.1C436.83,304.58,438.19,304,438.3,304.11Z" stroke="#000" stroke-miterlimit="10" stroke-width="0.5"/>
      <path d="M450.41,279.76c.37.34-4.31,5.2-7.68,12.64s-4.1,14.12-4.6,14.06c-.2,0-.31-1.72.06-4.45a37.93,37.93,0,0,1,8.88-19.31C448.9,280.64,450.27,279.61,450.41,279.76Z" stroke="#000" stroke-miterlimit="10" stroke-width="0.5"/>
      <path d="M464.14,303.85a36.29,36.29,0,0,1,1.51-5.36l4.57-14.42c1.9-6.1,4.13-13.37,6.22-21.53a221.76,221.76,0,0,0,5.3-26.86c.23-2.36,1-5-.12-6.46a3,3,0,0,0-2.46-1.08,4.84,4.84,0,0,0-2.78,1,25.21,25.21,0,0,0-4.42,4.77,61.72,61.72,0,0,0-8.86,15.9c-.64,1.74-1.2,3.45-1.67,5.11l-.32,1.24-.08.31c-.07.16,0,.35-.18.47l-.47.55c-.54.62-1,1.26-1.52,1.88a40.55,40.55,0,0,0-6.6,13.33c-1,3.42-1.16,5.4-1.3,5.38a4.75,4.75,0,0,1,0-1.45,34.21,34.21,0,0,1,.67-4.09,38.45,38.45,0,0,1,6.29-13.86c.49-.65,1-1.32,1.53-2l.33-.41s0-.08,0-.12l.08-.31.31-1.27c.45-1.71,1-3.46,1.61-5.25A62,62,0,0,1,467,238.36a62.69,62.69,0,0,1,3.68-5.44c.68-.89,1.4-1.76,2.13-2.64a14.49,14.49,0,0,1,2.62-2.49,7.26,7.26,0,0,1,1.7-.9,5.88,5.88,0,0,1,2-.36,4.63,4.63,0,0,1,3.76,1.72,5.84,5.84,0,0,1,.87,4c-.1,1.27-.29,2.43-.43,3.66a207,207,0,0,1-5.47,27c-2.18,8.19-4.53,15.44-6.57,21.51s-3.82,10.92-5.07,14.27A36.62,36.62,0,0,1,464.14,303.85Z" stroke="#000" stroke-miterlimit="10" stroke-width="0.5"/>
      <path d="M469.29,303.44" fill="none" stroke="#000" stroke-miterlimit="10" stroke-width="0.5"/>
      <path d="M469.89,322.76" fill="none" stroke="#000" stroke-miterlimit="10" stroke-width="0.5"/>
      <path d="M460.21,338.44c-.21-.09.73-2.91,2.26-7.44s3.66-10.78,5.8-17.75c1.08-3.48,2.06-6.81,2.94-9.85.43-1.52.86-3,1.19-4.3a23.48,23.48,0,0,0,.63-3.75,9.73,9.73,0,0,0-.8-5.29c-.58-1.14-1.14-1.65-1.05-1.76s.77.28,1.6,1.43a9.4,9.4,0,0,1,1.4,5.67,22.53,22.53,0,0,1-.46,4c-.28,1.42-.67,2.87-1.06,4.41-.8,3.07-1.75,6.43-2.83,9.93-2.16,7-4.46,13.24-6.28,17.68S460.41,338.52,460.21,338.44Z" stroke="#000" stroke-miterlimit="10" stroke-width="0.5"/>
      <path d="M510.15,238.73c.15.24-3.07,2.12-7.47,6.12a60.37,60.37,0,0,0-7,7.67,58.73,58.73,0,0,0-6.5,10.89,55.23,55.23,0,0,0-2.33,6.14c-.66,2-1.11,4.06-1.83,6a15.69,15.69,0,0,1-2.94,5.05c-1.19,1.37-2.34,2.49-3.23,3.65a27.53,27.53,0,0,0-3.59,6,11,11,0,0,1-1.1,2.36,6.51,6.51,0,0,1,.51-2.59,23.27,23.27,0,0,1,3.25-6.42c.88-1.27,2-2.49,3.12-3.82a14.56,14.56,0,0,0,2.56-4.7c.64-1.81,1.07-3.84,1.72-5.94a52.57,52.57,0,0,1,9.18-17.48,52.52,52.52,0,0,1,7.44-7.61,44.39,44.39,0,0,1,5.84-4.14A8.34,8.34,0,0,1,510.15,238.73Z" stroke="#000" stroke-miterlimit="10" stroke-width="0.5"/>
      <path d="M495.44,305.27a13.42,13.42,0,0,1,1-3.18c.75-2,1.89-4.9,3.32-8.46,2.87-7.1,6.94-16.88,11.52-27.64a130.52,130.52,0,0,0,5.8-15.31,49.57,49.57,0,0,0,1.49-6.92c.16-1.1.25-2.17.31-3.19a13.5,13.5,0,0,0,0-2.86,2.69,2.69,0,0,0-1.18-1.88,3.76,3.76,0,0,0-2-.54,5.71,5.71,0,0,0-3.34,1.3,21.16,21.16,0,0,0-1.82,1.61c-.42.38-.65.58-.69.54s.1-.3.44-.76a11.94,11.94,0,0,1,1.67-1.87,6.16,6.16,0,0,1,3.7-1.73,4.64,4.64,0,0,1,2.63.56,3.74,3.74,0,0,1,1.76,2.54,13.77,13.77,0,0,1,.17,3.14c0,1.06-.1,2.17-.23,3.3a48.62,48.62,0,0,1-1.38,7.16,117.94,117.94,0,0,1-5.75,15.55c-4.58,10.76-8.82,20.46-12,27.46-1.57,3.49-2.86,6.31-3.79,8.24A13,13,0,0,1,495.44,305.27Z" stroke="#000" stroke-miterlimit="10" stroke-width="0.5"/>
      <path d="M484.47,347.54c-.21-.1,1.1-3.1,3.22-8s5-11.54,7.93-19,5.39-14.37,7.13-19.36c.43-1.26.87-2.36,1.09-3.34a6.94,6.94,0,0,0,.19-2.52c-.21-1.38-1-1.81-.94-1.92s.25,0,.58.25a2.91,2.91,0,0,1,1,1.53,6.89,6.89,0,0,1,.09,2.83,30.8,30.8,0,0,1-.89,3.52c-1.47,5.1-3.76,12.07-6.71,19.61s-6,14.2-8.41,18.93S484.66,347.64,484.47,347.54Z" stroke="#000" stroke-miterlimit="10" stroke-width="0.5"/>
      <path d="M438.12,343.92c-.42-.15,8-24.91,18.79-55.3s19.9-54.9,20.33-54.75-8,24.91-18.79,55.3S438.55,344.07,438.12,343.92Z" stroke="#000" stroke-miterlimit="10" stroke-width="0.5"/>
      <path d="M445.66,317.9c-.45-.06.48-9,2.06-20s3.23-19.84,3.68-19.77-.48,9-2.06,20S446.1,318,445.66,317.9Z" stroke="#000" stroke-miterlimit="10" stroke-width="0.5"/>
      <path d="M465.34,295.24c.37.3-4.55,6.72-10.17,14.93s-9.85,15.09-10.26,14.86,3.23-7.51,8.92-15.78S465,295,465.34,295.24Z" stroke="#000" stroke-miterlimit="10" stroke-width="0.5"/>
      <path d="M460.59,281.66c-.45,0-.21-6.52.14-14.49s.68-14.45,1.14-14.45.85,6.5.49,14.52S461,281.7,460.59,281.66Z" stroke="#000" stroke-miterlimit="10" stroke-width="0.5"/>
      <path d="M476.53,252.72c.31.35-2.51,3.22-5.63,7s-5.41,7.09-5.81,6.86,1.32-4,4.56-7.9S476.26,252.38,476.53,252.72Z" stroke="#000" stroke-miterlimit="10" stroke-width="0.5"/>
      <path d="M470.64,336.85a19.21,19.21,0,0,1,1-3.93c.75-2.5,1.93-6.09,3.48-10.49,3.09-8.8,7.8-20.81,13.77-33.74s12.08-24.3,16.78-32.36c2.34-4,4.31-7.25,5.73-9.44a19.54,19.54,0,0,1,2.34-3.32,19.41,19.41,0,0,1-1.79,3.64l-5.28,9.68c-4.42,8.19-10.34,19.6-16.3,32.48s-10.81,24.79-14.17,33.46c-1.67,4.35-3,7.86-4,10.29A18.84,18.84,0,0,1,470.64,336.85Z" stroke="#000" stroke-miterlimit="10" stroke-width="0.5"/>
      <path d="M480.46,308.2c-.45-.09.56-7.35,1.72-16.3s2-16.24,2.5-16.2.29,7.4-.88,16.41S480.89,308.28,480.46,308.2Z" stroke="#000" stroke-miterlimit="10" stroke-width="0.5"/>
      <path d="M509,268.81c.25.37-3.05,3.09-7.37,6.06s-8,5.09-8.3,4.71,3.05-3.08,7.37-6.05S508.78,268.44,509,268.81Z" stroke="#000" stroke-miterlimit="10" stroke-width="0.5"/>
    </g>
  </g>
  <g id="CHARACTER1">
    <g id="legs">
      <path d="M211.49,266V283q-12.41,5.09-24.88,10.31-16.22,6.78-32.18,13.59a102.29,102.29,0,0,0-11.6-9.32c-6.41-4.41-8.79-4.94-10.88-4.38a8.62,8.62,0,0,0-4.87,4.15l12.53,15.07A152.32,152.32,0,0,0,122.36,317c-8.86,2.9-14.44,4.77-20.85,9.18-9,6.15-12.63,12.5-13.54,14.15-1.46,2.65-3.19,5.87-3.27,10.38A19.92,19.92,0,0,0,88,361.89c1.17,1.81,4.49,6.3,15.07,10.19a69.74,69.74,0,0,0,21.62,4c11.23.65,22.4,2.29,33.64,2.52,58.33,1.22,45.22,1.36,63,1.4,17.56,0,40.16-.07,66.69-.64,17.91,2.09,33.11,2.85,44.71,3.1A334.06,334.06,0,0,0,369,381.2c12.17-1.07,18.72-2.33,25.7-4.85a61.82,61.82,0,0,0,18.07-9.55c4-3.1,9.88-7.79,14-16.11,1.68-3.4,4.48-9.07,4.06-16.77A31.38,31.38,0,0,0,423.6,316c-5.67-7.07-12.51-9.85-20.25-12.86-2.78-1.08-6.3-2.28-34.29-7-13.51-2.29-16.6-2.68-19.26-3-2.09-.22-10.68-1.12-22.48-1.48-11-.33-14.38.13-21.24-1.23a68.52,68.52,0,0,1-12.35-3.71l-2-23.46A87,87,0,0,0,211.49,266Z" fill="#fff"/>
      <path d="M211.49,283c-.45,0-.82-3.82-.82-8.52s.37-8.52.82-8.52.81,3.82.81,8.52S211.94,283,211.49,283Z" stroke="#000" stroke-miterlimit="10" stroke-width="0.5"/>
      <path d="M213.66,365.29a12.06,12.06,0,0,1-3-1.09c-1.91-.81-4.65-2.05-8-3.71A212.69,212.69,0,0,1,155,327.57c-2.72-2.53-4.86-4.64-6.29-6.14a12.27,12.27,0,0,1-2.1-2.46c.17-.18,3.54,2.93,9.16,7.74s13.57,11.21,22.86,17.61a286.14,286.14,0,0,0,24.56,15.15C209.66,363,213.76,365.07,213.66,365.29Z" stroke="#000" stroke-miterlimit="10" stroke-width="0.5"/>
      <path d="M141.24,313.56c-.32.31-4-2.9-7.87-7.39s-6.63-8.51-6.28-8.78,3.61,3.26,7.5,7.71S141.57,313.24,141.24,313.56Z" stroke="#000" stroke-miterlimit="10" stroke-width="0.5"/>
      <path d="M147.56,303" fill="none" stroke="#000" stroke-miterlimit="10" stroke-width="0.5"/>
      <path d="M172,316.68c-.09.19-2.9-.82-7.3-2.85a68.62,68.62,0,0,1-7.51-4,69.76,69.76,0,0,1-8.33-6.33,76.63,76.63,0,0,0-8.08-6.29,23.15,23.15,0,0,0-7.47-3.28,6.23,6.23,0,0,0-3,.08,4.6,4.6,0,0,0-1.9,1.16c-.87.92-.9,1.73-1,1.7s-.11-.2-.07-.57a3.23,3.23,0,0,1,.62-1.53,4.82,4.82,0,0,1,2.08-1.62,6.91,6.91,0,0,1,3.45-.36,22.17,22.17,0,0,1,8.09,3.14,67.22,67.22,0,0,1,8.35,6.32,80.21,80.21,0,0,0,8.08,6.32c2.62,1.74,5.11,3.13,7.22,4.28C169.47,315.08,172.12,316.47,172,316.68Z" stroke="#000" stroke-miterlimit="10" stroke-width="0.5"/>
      <path d="M204.46,334c-.2.1-1.58-2.26-3.65-6.15-1-1.95-2.24-4.28-3.56-6.88a43.29,43.29,0,0,0-2.1-3.93,5.37,5.37,0,0,0-3.53-2.26,18.2,18.2,0,0,0-4.67-.21c-1.57.07-3.07.2-4.5.36-2.85.3-5.42.9-7.69,1a10,10,0,0,1-5.32-.87c-1.14-.64-1.54-1.26-1.47-1.32s.62.34,1.73.74a10.69,10.69,0,0,0,5,.3c2.12-.25,4.67-1,7.61-1.37,1.46-.21,3-.37,4.6-.46a18.55,18.55,0,0,1,5.11.21,7.9,7.9,0,0,1,2.57,1,6.66,6.66,0,0,1,1.92,1.93,39.55,39.55,0,0,1,2.14,4.17c1.24,2.63,2.34,5,3.24,7C203.65,331.38,204.66,333.92,204.46,334Z" stroke="#000" stroke-miterlimit="10" stroke-width="0.5"/>
      <path d="M354,345.66a6,6,0,0,1-1.56-.24l-1.85-.41-1.17-.27-1.36-.22A91.93,91.93,0,0,0,331.79,343a207.5,207.5,0,0,0-24.32,1.52c-9.14,1-19.2,2.31-29.88,2.61a151,151,0,0,1-15.58-.32c-5-.34-9.85-.89-14.41-1.65a155.6,155.6,0,0,1-23.85-5.74,143.43,143.43,0,0,1-15.42-6c-1.78-.79-3.12-1.51-4-2a5.84,5.84,0,0,1-1.35-.79,48.36,48.36,0,0,1,5.64,2.18c3.61,1.45,8.87,3.43,15.51,5.44a168.72,168.72,0,0,0,53.45,7.18c10.57-.3,20.61-1.6,29.78-2.48a191.11,191.11,0,0,1,24.49-1.17,80.91,80.91,0,0,1,16.42,2l1.35.31c.42.11.81.23,1.17.34l1.82.56A6.32,6.32,0,0,1,354,345.66Z" stroke="#000" stroke-miterlimit="10" stroke-width="0.5"/>
      <path d="M175.21,298.78c-.2-.39,7.48-4.64,17.35-9s18.17-7.27,18.33-6.86-7.83,4-17.66,8.35S175.41,299.19,175.21,298.78Z" stroke="#000" stroke-miterlimit="10" stroke-width="0.5"/>
      <path d="M289,379.32a2.56,2.56,0,0,1-.74.1c-.49,0-1.23.08-2.19.13-1.93.09-4.77.2-8.43.32-7.32.23-17.92.48-31,.64s-28.7.24-46,0-36.37-.64-56.34-1.95c-10-.7-19.72-1.54-29.07-3a80.84,80.84,0,0,1-13.62-3.19,30.92,30.92,0,0,1-11.58-7,20.86,20.86,0,0,1-5.82-11.51,18,18,0,0,1,.21-6.26,21.67,21.67,0,0,1,2-5.69,39.31,39.31,0,0,1,6.58-9.17c.62-.66,1.25-1.31,1.89-1.93l2-1.71c.66-.58,1.37-1.06,2-1.58l1-.75,1-.69a70.84,70.84,0,0,1,16-7.75c4.94-1.71,9.28-2.87,12.82-3.82l8.16-2.1,2.13-.53a2.56,2.56,0,0,1,.74-.13,2.31,2.31,0,0,1-.69.29l-2.09.68c-1.84.58-4.57,1.38-8.08,2.4s-7.81,2.29-12.68,4.07a70.91,70.91,0,0,0-15.63,7.84l-1,.69-1,.75c-.64.51-1.34,1-2,1.55l-1.92,1.68c-.62.61-1.22,1.24-1.81,1.89a38,38,0,0,0-6.29,8.91,20.8,20.8,0,0,0-1.84,5.37,16.78,16.78,0,0,0-.15,5.79,17.94,17.94,0,0,0,1.85,5.68,18.54,18.54,0,0,0,3.61,5,29.6,29.6,0,0,0,11,6.58A80.82,80.82,0,0,0,115.45,374c9.26,1.45,19,2.29,28.92,3,19.92,1.31,38.95,1.78,56.25,2.08s32.89.32,46,.31l31-.13H286l2.2,0A2.51,2.51,0,0,1,289,379.32Z" stroke="#000" stroke-miterlimit="10" stroke-width="0.5"/>
      <path d="M390.22,378.45a6.17,6.17,0,0,1-1.59.43c-1.05.21-2.6.55-4.61.87-4,.71-9.87,1.52-17.13,2.21a341.43,341.43,0,0,1-56.95.22,496.64,496.64,0,0,1-56.42-7.75c-7.15-1.39-12.92-2.63-16.88-3.55-2-.45-3.53-.84-4.57-1.1a6.38,6.38,0,0,1-1.56-.5,6.86,6.86,0,0,1,1.63.17c1.06.17,2.62.45,4.62.81l17,3c14.33,2.46,34.21,5.61,56.33,7.26a383.17,383.17,0,0,0,56.73.26c7.25-.54,13.1-1.18,17.13-1.69l4.66-.57A7.23,7.23,0,0,1,390.22,378.45Z" stroke="#000" stroke-miterlimit="10" stroke-width="0.5"/>
      <path d="M293.67,284.82c-.45.05-1.19-3.84-1.67-8.68s-.49-8.81,0-8.85,1.19,3.85,1.67,8.69S294.12,284.78,293.67,284.82Z" stroke="#000" stroke-miterlimit="10" stroke-width="0.5"/>
      <path d="M335.59,323.73c-.07.22-3.46-.57-8.91-2l-4.44-1.19c-1.6-.42-3.32-1-5.07-1.36a8.74,8.74,0,0,0-5.28.19,15.53,15.53,0,0,0-4.78,3.47c-6,6.12-11.43,11.68-15.45,15.61s-6.58,6.31-6.75,6.16,2.11-2.8,5.91-7,9.13-9.83,15.15-16a16.67,16.67,0,0,1,5.34-3.79,8.74,8.74,0,0,1,3.21-.57,13,13,0,0,1,3,.41c1.87.47,3.51,1,5.11,1.52l4.39,1.39C332.37,322.34,335.65,323.51,335.59,323.73Z" stroke="#000" stroke-miterlimit="10" stroke-width="0.5"/>
      <path d="M387,309.93c-.09.29-3.2-1-8.47-1.11a39.49,39.49,0,0,0-9.14,1,64.62,64.62,0,0,0-10.77,3.5c-3.73,1.56-7.21,3.26-10.41,4.76s-6.11,2.81-8.62,3.78c-5,2-8.33,2.53-8.37,2.34s3.09-1.2,7.92-3.4c2.42-1.09,5.26-2.49,8.42-4.07s6.64-3.32,10.43-4.92A58.79,58.79,0,0,1,369,308.34a36.4,36.4,0,0,1,9.5-.67,24.36,24.36,0,0,1,6.3,1.24C386.27,309.42,387,309.84,387,309.93Z" stroke="#000" stroke-miterlimit="10" stroke-width="0.5"/>
      <path d="M338.94,342.84c-.1-.21,3-1.86,8-4.44l19.56-10,10.75-5.5c3.22-1.7,6-3.61,7.54-5.76a8,8,0,0,0,1.66-5.9,11.41,11.41,0,0,0-.89-2.18c0-.06.94.4,1.5,2a8.24,8.24,0,0,1-1.31,6.7c-1.65,2.52-4.5,4.6-7.78,6.44s-6.9,3.67-10.73,5.63c-7.65,3.9-14.67,7.25-19.8,9.56S339,343,338.94,342.84Z" stroke="#000" stroke-miterlimit="10" stroke-width="0.5"/>
      <path d="M376.36,382.46a13.43,13.43,0,0,1,2.22-.84l6.42-2.17c2.78-.95,6.18-2.14,10-3.71a89.46,89.46,0,0,0,12.65-6.27,56.54,56.54,0,0,0,6.69-4.69,44.09,44.09,0,0,0,6.3-6.17,41.09,41.09,0,0,0,8.68-17.16,29.69,29.69,0,0,0,.48-10.36A26.41,26.41,0,0,0,426.2,321c-3.82-6.35-10.11-11.33-17.26-14.65s-14.85-5.11-22.23-6.66-14.58-2.82-21.45-3.87c-13.74-2.09-26.22-3.22-36.71-3.83-5.25-.3-10-.46-14.18-.57a83.63,83.63,0,0,1-10.75-.7,27.87,27.87,0,0,1-6.58-1.77,15.21,15.21,0,0,1-1.6-.78,2,2,0,0,1-.5-.34c0-.06.76.3,2.21.81a30.91,30.91,0,0,0,6.56,1.45,92,92,0,0,0,10.67.42c4.19,0,9,.1,14.22.33a368.86,368.86,0,0,1,36.88,3.49c6.9,1,14.12,2.27,21.55,3.8s15.19,3.31,22.6,6.74,13.93,8.6,17.94,15.31a27.81,27.81,0,0,1,3.8,10.74,31.17,31.17,0,0,1-.55,10.89,42.14,42.14,0,0,1-9.12,17.71,44.81,44.81,0,0,1-6.54,6.28,58.91,58.91,0,0,1-6.89,4.7,85.63,85.63,0,0,1-12.9,6.12c-3.92,1.51-7.36,2.61-10.18,3.47s-5,1.48-6.52,1.88A12.17,12.17,0,0,1,376.36,382.46Z" stroke="#000" stroke-miterlimit="10" stroke-width="0.5"/>
      <path d="M241.21,335.77c-.23.13-1.4-1.75-3.57-4.54a58.48,58.48,0,0,0-4-4.67,61.92,61.92,0,0,0-5.61-5.07,60.84,60.84,0,0,0-6.25-4.25,55.37,55.37,0,0,0-5.5-2.84C213,313,210.91,312.26,211,312s2.27.11,5.68,1.32a41.36,41.36,0,0,1,5.81,2.6,48.43,48.43,0,0,1,6.52,4.28,49.22,49.22,0,0,1,5.7,5.32,42.32,42.32,0,0,1,3.89,5C240.56,333.59,241.38,335.69,241.21,335.77Z" stroke="#000" stroke-miterlimit="10" stroke-width="0.5"/>
      <path d="M290.3,318.47c.3.35-2.65,3.23-6,7s-5.8,7.1-6.19,6.85,1.53-4,5-7.92S290,318.12,290.3,318.47Z" stroke="#000" stroke-miterlimit="10" stroke-width="0.5"/>
    </g>
    <g id="torso">
      <path d="M197,157.76q5.16,10.14,10.31,20.28A48.52,48.52,0,0,0,201,189.57,50.19,50.19,0,0,0,197.69,206a56,56,0,0,0,8.75,32.67q-2.15,14.26-4.28,28.53a46.63,46.63,0,0,1,9.33.46c6.27.95,9.46,2.77,14.53,4.45,6.11,2,10.69,2.45,18.8,3.2a129.28,129.28,0,0,0,21.21.13,131.43,131.43,0,0,0,42-10.89q-1.47-4.63-2.86-9.51-2.86-10.05-5-19.5A57.23,57.23,0,0,0,304.3,226a61.27,61.27,0,0,0,2.57-12.64,68.33,68.33,0,0,0,.3-17.24c-.64-5.37-1.3-10.38-4.9-15.29a23.39,23.39,0,0,0-3.4-3.72q2-6,4-12.1l9.12-5.88a136.77,136.77,0,0,0-18.08-7A139.66,139.66,0,0,0,197,157.76Z" fill="#fff"/>
      <path d="M311.93,159.09a26,26,0,0,1-4.38-1.58l-2.3-.94-2.79-1c-2-.69-4.25-1.58-6.83-2.29l-4-1.2c-1.39-.4-2.88-.72-4.4-1.1-3-.82-6.33-1.39-9.78-2.06a143.92,143.92,0,0,0-45.63-.54c-3.47.59-6.79,1.08-9.83,1.83-1.53.35-3,.62-4.42,1l-4,1.1c-2.59.65-4.86,1.48-6.88,2.12l-2.81.92-2.32.89a26.1,26.1,0,0,1-4.42,1.48,23.82,23.82,0,0,1,4.18-2.07l2.28-1c.85-.35,1.79-.68,2.79-1.05,2-.73,4.26-1.65,6.85-2.37l4.05-1.22c1.41-.41,2.9-.72,4.44-1.1,3.06-.81,6.4-1.35,9.9-2a136,136,0,0,1,46.12.54c3.49.72,6.81,1.34,9.86,2.23,1.52.42,3,.76,4.41,1.2l4,1.32c2.58.78,4.82,1.75,6.8,2.52,1,.4,1.92.76,2.76,1.12l2.26,1.08A25.79,25.79,0,0,1,311.93,159.09Z" stroke="#000" stroke-miterlimit="10" stroke-width="0.5"/>
      <path d="M207.34,178c-.44.14-1.74-2.9-3.61-6.47s-3.59-6.39-3.22-6.67,2.74,2.19,4.67,5.92S207.76,177.91,207.34,178Z" stroke="#000" stroke-miterlimit="10" stroke-width="0.5"/>
      <path d="M208.94,241.12c-.08.07-.78-.57-1.89-1.87a38.85,38.85,0,0,1-4.08-6,49.94,49.94,0,0,1-6.16-23,57.78,57.78,0,0,1,4.51-23.37,51.8,51.8,0,0,1,3.21-6.48,7.89,7.89,0,0,1,1.53-2.17c.24.14-1.61,3.42-3.67,9.06a63.52,63.52,0,0,0-3.95,22.92A53.6,53.6,0,0,0,204,232.73C206.68,238.09,209.17,240.94,208.94,241.12Z" stroke="#000" stroke-miterlimit="10" stroke-width="0.5"/>
      <path d="M202.16,267.16c-.44-.08.35-6.51,1.78-14.36.68-3.92,1.51-7.49,2-10s.28-4.1.51-4.15.82,1.58.63,4.28c-.08,1.35-.32,2.9-.59,4.6s-.58,3.58-.94,5.55C204.12,260.94,202.6,267.24,202.16,267.16Z" stroke="#000" stroke-miterlimit="10" stroke-width="0.5"/>
      <path d="M304.55,266a19.22,19.22,0,0,1-3.73,1.84c-1.21.57-2.76,1.12-4.54,1.79s-3.84,1.34-6.13,2.05a120,120,0,0,1-37,4.89,124.2,124.2,0,0,1-20.51-2.23,126.85,126.85,0,0,1-16.23-4.49c-2.25-.81-4.26-1.56-6.06-2a20.1,20.1,0,0,0-4.7-.75,23.86,23.86,0,0,0-4,.46s.3-.25,1-.5a10.42,10.42,0,0,1,3.07-.59,18.19,18.19,0,0,1,4.92.49c1.88.41,4,1.1,6.22,1.83a143.07,143.07,0,0,0,16.14,4.1,130,130,0,0,0,56.94-2.29c2.28-.64,4.36-1.18,6.15-1.8s3.36-1,4.6-1.52A20.87,20.87,0,0,1,304.55,266Z" stroke="#000" stroke-miterlimit="10" stroke-width="0.5"/>
      <path d="M298,178.62c-.43-.11-.15-2.61.64-5.58s1.78-5.28,2.21-5.16.15,2.61-.63,5.58S298.48,178.74,298,178.62Z" stroke="#000" stroke-miterlimit="10" stroke-width="0.5"/>
      <path d="M300.23,235.5c-.24-.13,1.46-3.17,3.11-8.45a69.66,69.66,0,0,0,2.18-9.46,95.91,95.91,0,0,0,1.06-11.87,75.56,75.56,0,0,0-.43-11.87,46,46,0,0,0-1-5.06,31.61,31.61,0,0,0-1.45-4.23A22.28,22.28,0,0,0,300.4,179c-.46-.62-.9-1-1.16-1.36s-.39-.5-.35-.54.23.06.57.3a9.65,9.65,0,0,1,1.41,1.17,18.89,18.89,0,0,1,3.91,5.48,29.3,29.3,0,0,1,1.71,4.34,43.33,43.33,0,0,1,1.15,5.22,67.72,67.72,0,0,1,.57,12.13A81.88,81.88,0,0,1,307,217.84a58,58,0,0,1-2.57,9.58,41.55,41.55,0,0,1-2.78,6.07C300.84,234.85,300.32,235.55,300.23,235.5Z" stroke="#000" stroke-miterlimit="10" stroke-width="0.5"/>
      <path d="M307.5,261.68c-.41.16-3-5.49-5-12.86s-2.65-13.55-2.22-13.61,1.81,5.9,3.8,13.18S307.93,261.51,307.5,261.68Z" stroke="#000" stroke-miterlimit="10" stroke-width="0.5"/>
    </g>
    <g id="arm_right" data-name="arm right">
      <path d="M197,157.76c-3.15,1.9-4.12,5.15-5.37,8.56-3.74,10.2-3.48,4.34-13.64,25.82-4,8.38-8.43,20.09-17.34,43.51a131.42,131.42,0,0,0-3.93,13c-2.2,8.65-2.66,13.7-1.63,18.89.93,4.68,2.48,6.45,3.34,7.26,1.92,1.82,4.38,2.61,8.36,3,6.91.65,12-.53,17-1.48,8.15-1.52,5.61-.43,17.59-2.36,10.76-1.74,18.83-3.59,26.17-5.29,4.91-1.14,10.85-2.59,17.58-4.4a90.89,90.89,0,0,0,2.5-11.78c.83-5.83.63-8.63.55-22.3-.07-14.15.1-18.27-1.38-18.65-1.13-.28-2.81,2.22-6.14,7.21-3.5,5.25-5.25,7.88-6.7,11.16a46.14,46.14,0,0,0-3.62,21.19,25,25,0,0,1-7.81,2.23c-6.33.7-10.6-1.42-16.73-3.07A67.43,67.43,0,0,0,188.8,248c.62-1.7,1.52-4.09,2.63-6.93,4.88-12.47,9.63-22.58,13.1-29.55,3.93-7.88,8.69-16.74,14.45-26.24,3.94-7.63,3.27-16.48-1.68-22.3C212.16,156.91,202.6,154.39,197,157.76Z" fill="#fff"/>
      <path d="M156.43,249.77a17.5,17.5,0,0,1,.76-3.78c.29-1.21.67-2.67,1.15-4.36s1-3.63,1.67-5.74c1.27-4.24,2.94-9.25,4.93-14.76s4.37-11.5,7.05-17.71,5.47-12,8.1-17.25,5.19-9.85,7.41-13.68c1.09-1.93,2.14-3.64,3.05-5.15s1.71-2.78,2.39-3.82a18.4,18.4,0,0,1,2.24-3.13,17.68,17.68,0,0,1-1.69,3.46l-2.15,4c-.84,1.54-1.81,3.29-2.83,5.24-2.09,3.89-4.49,8.57-7.07,13.8s-5.27,11.06-8,17.23-5,12.13-7.13,17.58-3.83,10.41-5.24,14.59c-.74,2.08-1.34,4-1.9,5.65l-1.41,4.28A17.68,17.68,0,0,1,156.43,249.77Z" stroke="#000" stroke-miterlimit="10" stroke-width="0.5"/>
      <path d="M246.32,263.6c.05.08-1,1-3.29,2a54.12,54.12,0,0,1-10,3c-8.56,2.05-20.49,4.5-33.8,6.46-6.65,1-13,1.75-18.8,2.34-2.9.29-5.66.54-8.24.75a33.75,33.75,0,0,1-7.31,0,11.65,11.65,0,0,1-5.71-2.24,8.9,8.9,0,0,1-2.8-3.68,6,6,0,0,1-.4-2.89,1.86,1.86,0,0,1,.29-1c.07,0,0,.35,0,1a6.7,6.7,0,0,0,.65,2.62,8.58,8.58,0,0,0,2.77,3.2,10.8,10.8,0,0,0,5.3,1.82,34.18,34.18,0,0,0,7-.23l8.2-.89c5.76-.67,12.09-1.49,18.72-2.46,13.26-2,25.19-4.22,33.8-6a69.66,69.66,0,0,0,10-2.49C245.08,264.19,246.25,263.49,246.32,263.6Z" stroke="#000" stroke-miterlimit="10" stroke-width="0.5"/>
      <path d="M243.06,239.62c-.23,0-.35-1.63-.35-4.24a87.05,87.05,0,0,1,.62-10.2,54.63,54.63,0,0,1,2.11-10c.82-2.51,1.58-4,1.77-3.89s-.14,1.65-.65,4.18-1.14,6-1.61,9.95-.79,7.48-1.09,10.07S243.28,239.63,243.06,239.62Z" stroke="#000" stroke-miterlimit="10" stroke-width="0.5"/>
      <path d="M239.21,237c-.22,0-.29-1.54-.17-4a53.07,53.07,0,0,1,1.34-9.55,36.61,36.61,0,0,1,1.67-5.09,24.61,24.61,0,0,1,2.07-3.88c1.39-2.08,2.59-3.09,2.74-3s-.66,1.41-1.74,3.54a35.85,35.85,0,0,0-1.67,3.85c-.53,1.49-1,3.15-1.49,4.93-.86,3.57-1.36,6.89-1.78,9.29S239.44,237,239.21,237Z" stroke="#000" stroke-miterlimit="10" stroke-width="0.5"/>
      <path d="M234.48,241.09c-.21,0-.17-1.65.12-4.22a64.89,64.89,0,0,1,1.91-10,45,45,0,0,1,1.85-5.31,30.91,30.91,0,0,1,2.11-4.1c1.38-2.24,2.54-3.39,2.7-3.27s-.61,1.52-1.69,3.82c-.55,1.14-1.13,2.54-1.73,4.11s-1.15,3.33-1.68,5.2c-1,3.74-1.75,7.21-2.34,9.72S234.71,241.12,234.48,241.09Z" stroke="#000" stroke-miterlimit="10" stroke-width="0.5"/>
      <path d="M230.5,247.52c-.22,0-.16-1.81.17-4.64a69.63,69.63,0,0,1,2.17-10.95,47.53,47.53,0,0,1,2.15-5.81,31.43,31.43,0,0,1,2.48-4.43c1.62-2.4,3-3.59,3.12-3.47s-.82,1.6-2.14,4.06c-.67,1.22-1.36,2.74-2.08,4.43s-1.35,3.63-2,5.68c-1.2,4.1-2,7.92-2.61,10.69S230.73,247.55,230.5,247.52Z" stroke="#000" stroke-miterlimit="10" stroke-width="0.5"/>
      <path d="M188.5,248.8c-.2-.08.67-3.12,2.39-7.94s4.33-11.39,7.56-18.49,6.49-13.38,9-17.84,4.24-7.12,4.42-7-1.16,3-3.4,7.54-5.31,10.91-8.53,18-6,13.55-8,18.24S188.72,248.88,188.5,248.8Z" stroke="#000" stroke-miterlimit="10" stroke-width="0.5"/>
      <path d="M175.19,251.09" fill="none" stroke="#000" stroke-miterlimit="10" stroke-width="0.5"/>
      <path d="M231.67,251.86c.08.15-2.73,1.46-7.63,1.78a45.73,45.73,0,0,1-8.52-.35c-3.18-.39-6.62-1.06-10.21-1.79s-7-1.33-10.09-1.65a44.34,44.34,0,0,0-8.28-.17c-4.71.39-7.45,1.64-7.55,1.37s2.55-1.8,7.42-2.51a38.19,38.19,0,0,1,8.55-.19,88.43,88.43,0,0,1,10.27,1.55c3.6.73,7,1.44,10.1,1.9a52.29,52.29,0,0,0,8.28.68C228.74,252.48,231.6,251.59,231.67,251.86Z" stroke="#000" stroke-miterlimit="10" stroke-width="0.5"/>
    </g>
    <g id="arm_left" data-name="arm left">
      <path d="M312,159.12a24.06,24.06,0,0,0-12.81,6c-6.78,6.37-9.12,16.7-6.37,26.79q10.57,27.61,21.14,55.21c-2.47.07-6.25.24-10.82.77-8.54,1-12.46,2.35-18.46,3.23a75.39,75.39,0,0,1-19.46.23c-.08-2.14-.26-4.42-.58-6.82a71.22,71.22,0,0,0-4-15.78,17.7,17.7,0,0,0-11.32-20c.24,3.24.43,6.55.56,9.91a323,323,0,0,1-1,41.66,15.16,15.16,0,0,0,3.4,4.76c3,2.81,6.5,3.68,10.44,4.36a91.25,91.25,0,0,0,15.63,1.35c5.39-.05-3.52.2,28.47,1,12,.29,15.43.31,20.62-.35A92,92,0,0,0,339.78,269a9,9,0,0,0,2.57-3.38c1.28-3.05.31-6.09-.06-7.37-1.69-5.77.41-3.93-2.19-19.43-.8-4.73-2-10.68-3.71-17.51-2.06-7.54-4.54-15.5-7.53-23.78A315.67,315.67,0,0,0,312,159.12Z" fill="#fff"/>
      <path d="M338.81,231c-.24.06-1.35-4.1-3.31-10.76s-4.87-15.79-8.62-25.69-7.66-18.65-10.62-24.93-4.87-10.13-4.66-10.25a10.8,10.8,0,0,1,1.7,2.52c1,1.66,2.38,4.13,4,7.22A235.58,235.58,0,0,1,328.4,194a238.22,238.22,0,0,1,8.21,26c.84,3.38,1.46,6.13,1.81,8.05A10.65,10.65,0,0,1,338.81,231Z" stroke="#000" stroke-miterlimit="10" stroke-width="0.5"/>
      <path d="M313.94,247.14c-.22.07-1.36-3-3.16-8.07s-4.3-12-7.21-19.57-5.69-14.44-7.71-19.39-3.24-8-3-8.12,1.79,2.82,4.08,7.66,5.26,11.63,8.18,19.26,5.26,14.67,6.78,19.8S314.15,247.08,313.94,247.14Z" stroke="#000" stroke-miterlimit="10" stroke-width="0.5"/>
      <path d="M264,251.26c0-.26,2.88,0,7.47-.12,2.3,0,5-.23,8.05-.51s6.33-.75,9.81-1.27c6.95-1.08,13.28-2.1,17.9-2.53s7.51-.41,7.52-.21-2.82.61-7.37,1.35-10.81,1.92-17.81,3c-3.5.53-6.86.92-9.92,1.16a75.4,75.4,0,0,1-8.19.16C266.77,252.1,263.94,251.44,264,251.26Z" stroke="#000" stroke-miterlimit="10" stroke-width="0.5"/>
      <path d="M263.13,230.8c.4-.13,2.1,4.33,2.31,10.15s-1.11,10.39-1.52,10.29.13-4.64-.11-10.23S262.67,230.93,263.13,230.8Z" stroke="#000" stroke-miterlimit="10" stroke-width="0.5"/>
      <path d="M338.92,233.2a20.4,20.4,0,0,1,1.24,4.3,112.51,112.51,0,0,1,2.07,12c.3,2.56.56,5.37.72,8.4.08,1.51.13,3.08.16,4.7,0,.81,0,1.6,0,2.47a5.32,5.32,0,0,1-.71,2.79,5.76,5.76,0,0,1-2.28,1.85,19.68,19.68,0,0,1-2.54,1.06,26.92,26.92,0,0,1-5.46,1.16c-3.75.41-7.56.43-11.48.56-15.68.39-29.88-.18-40.13-.94-5.12-.38-9.25-.79-12.11-1.12a23.57,23.57,0,0,1-4.41-.71,22.82,22.82,0,0,1,4.47.07l12.12.61c10.24.47,24.39.85,40,.46,3.9-.13,7.75-.14,11.34-.52a25,25,0,0,0,5.15-1.05,18.47,18.47,0,0,0,2.34-.95,4.35,4.35,0,0,0,1.71-1.3c.7-1,.47-2.86.53-4.43s0-3.15-.08-4.65c-.1-3-.29-5.79-.52-8.34-.46-5.09-1.09-9.18-1.54-12A27.49,27.49,0,0,1,338.92,233.2Z" stroke="#000" stroke-miterlimit="10" stroke-width="0.5"/>
      <path d="M249.31,208.84c.2,0,.76,3.88,1.14,10.23a220.3,220.3,0,0,1,0,24.83q-.19,3.65-.49,7.07c-.17,2.27-.47,4.51-.58,6.51a7.69,7.69,0,0,0,1.27,5.19,21.83,21.83,0,0,0,3.71,3.35,15.53,15.53,0,0,0,6.5,3.14c1.7.3,2.68.06,2.71.21a4.45,4.45,0,0,1-2.78.42,14.6,14.6,0,0,1-7.1-2.83c-.68-.45-1.35-1-2-1.5a13.31,13.31,0,0,1-2.06-1.95,7.21,7.21,0,0,1-1.4-2.84,12.47,12.47,0,0,1-.31-3.23c.08-2.18.34-4.32.49-6.6s.32-4.62.45-7c.53-9.64.54-18.38.45-24.71S249.07,208.86,249.31,208.84Z" stroke="#000" stroke-miterlimit="10" stroke-width="0.5"/>
      <path d="M255.91,237.17c-.48,0-.64-6.44-2.22-14.17s-3.86-13.74-3.41-13.92,3.44,5.66,5,13.6S256.33,237.2,255.91,237.17Z" stroke="#000" stroke-miterlimit="10" stroke-width="0.5"/>
      <path d="M258.26,238c-.23,0-.37-1.62-.48-4.2s-.21-6.14-.68-10a49.57,49.57,0,0,0-1-5.38,39.3,39.3,0,0,0-1.33-4.24c-.92-2.36-1.71-3.76-1.5-3.9s1.31,1.07,2.55,3.43a25.83,25.83,0,0,1,1.73,4.32,36.12,36.12,0,0,1,1.14,5.56,55.61,55.61,0,0,1,.21,10.22C258.74,236.4,258.48,238,258.26,238Z" stroke="#000" stroke-miterlimit="10" stroke-width="0.5"/>
      <path d="M260.71,236.77c-.47,0-.49-5.77-1.33-12.77a35.31,35.31,0,0,0-1.75-8.7c-.83-2.07-1.85-3.1-1.68-3.28s1.51.62,2.72,2.79,1.92,5.46,2.33,9C261.86,231,261.14,236.81,260.71,236.77Z" stroke="#000" stroke-miterlimit="10" stroke-width="0.5"/>
    </g>
    <g id="head">
      <path d="M249.09,148.82c-2.54,2.46-5.24,5.72-10.28,7.33a17.12,17.12,0,0,1-9.5.47c-7.56-2-11-9.31-12-11.32-2.51-5.33-2.25-10-1.91-16.16a62.73,62.73,0,0,1,3.94-18.59A126.82,126.82,0,0,0,212.14,88c-1.66-3.83-4-8.73-3.53-15.25a26.37,26.37,0,0,1,1.75-7.42c1.19-3.16,3.34-7.21,9-12.81,9.46-9.4,19.28-13.77,25.81-16.6s10-3.53,12.56-3.82c3.59-.42,8.91-1,14.68,1.64a23.46,23.46,0,0,1,9.89,8.91,16.88,16.88,0,0,1,5,.92c4.39,1.54,6.93,4.54,9,7a38.37,38.37,0,0,1,6.35,11.36c1.52,4.13,2.15,8,3.41,15.81,1.13,7,1,8.12,2.2,11s2.34,4,6.19,9.21c4,5.51,6,8.27,7.15,10.4,2,3.86,3.63,10,1.36,19.76a32.54,32.54,0,0,1,6.14,5.62c5.79,6.85,7.14,14.28,8,19.2A53.09,53.09,0,0,1,336,175.12,57,57,0,0,1,327.51,194a46.07,46.07,0,0,1-9.41,10.28c-3.82,3-11.42,9-21.92,9-14.75,0-24-11.95-25.23-13.6-5.09-6.78-5.49-13.63-6.4-27.27-.72-10.77.9-16,4-19.77A17.82,17.82,0,0,1,272,149.4a16.05,16.05,0,0,1-2.57-3.61,16.21,16.21,0,0,1-1.77-7.9C258.33,141.11,252.62,145.41,249.09,148.82Z"/>
      <path d="M263.69,53.25A46,46,0,0,0,220.4,77.83l1.37,15.33a11.14,11.14,0,0,0-6,2.69,11.73,11.73,0,0,0-2.85,12.43c1.89,5.18,7.7,8.57,14,7.77A43.08,43.08,0,0,0,243.64,136q2.58,8.31,5.17,16.61a9.23,9.23,0,0,0,4.44,3.58c4.06,1.45,9.18-.46,12.63-4.88l2.77-14.22a61.87,61.87,0,0,0,5.86-5.41,63.45,63.45,0,0,0,10.74-15.25,15.26,15.26,0,0,0,6.29-1c1.5-.57,5.29-2,7.23-6,.44-.9,2.63-5.37.08-9.39a9.17,9.17,0,0,0-8.73-4q-.09-4.06-.19-8.15a40.6,40.6,0,0,1-9.81-7.28c-1.17-1.18-3.7-3.89-8.85-12.85C269.16,64.19,266.5,59.27,263.69,53.25Z" fill="#fff"/>
      <path d="M257.65,140.53c0,.05-.29.08-.85.07l-1,0a9.59,9.59,0,0,1-1.4-.14,27.75,27.75,0,0,1-8.57-2.6A37.47,37.47,0,0,1,235.08,130a46.09,46.09,0,0,1-4.92-6.17,49,49,0,0,1-4-7.45,65,65,0,0,1-4.25-15.68,98.83,98.83,0,0,1-1-13.18c0-3.76,0-6.79.16-8.89a12.34,12.34,0,0,1,.36-3.24c.25,0,.26,4.64.63,12.09a117.75,117.75,0,0,0,1.34,13,68.17,68.17,0,0,0,4.27,15.27,48.45,48.45,0,0,0,3.86,7.21,46.68,46.68,0,0,0,4.68,6,38.37,38.37,0,0,0,10.14,7.89,31.68,31.68,0,0,0,8.16,3,10.89,10.89,0,0,0,1.35.28l1,.18C257.37,140.39,257.65,140.47,257.65,140.53Z" stroke="#000" stroke-miterlimit="10" stroke-width="0.5"/>
      <path d="M289.94,88a8.87,8.87,0,0,1,.68,2.74,37.66,37.66,0,0,1,.29,7.69,47.35,47.35,0,0,1-2.13,11.23,55.82,55.82,0,0,1-5.89,12.7A48.67,48.67,0,0,1,274,133.2a31.59,31.59,0,0,1-9.73,6.09,19.87,19.87,0,0,1-7.61,1.39,11,11,0,0,1-2.09-.19c-.48-.09-.72-.16-.71-.21s.26-.1.73-.12,1.16,0,2.05-.11a22.51,22.51,0,0,0,7.2-1.83,32.74,32.74,0,0,0,9.15-6.13,50.78,50.78,0,0,0,8.53-10.57,58.48,58.48,0,0,0,5.85-12.3,51.72,51.72,0,0,0,2.42-10.87C290.42,92,289.64,88.06,289.94,88Z" stroke="#000" stroke-miterlimit="10" stroke-width="0.5"/>
      <path d="M223.54,115.25c0,.09-.44.25-1.29.26a9.68,9.68,0,0,1-3.52-.64,11.7,11.7,0,0,1-4.46-3,11,11,0,0,1-2.84-6,12.05,12.05,0,0,1,1-6.54,10.92,10.92,0,0,1,3.33-4.23,6.81,6.81,0,0,1,3.35-1.41c.88-.06,1.34.13,1.32.23s-.46.16-1.19.4A7.7,7.7,0,0,0,216.45,96a10.81,10.81,0,0,0-2.68,3.93,11.42,11.42,0,0,0-.73,5.73,10.11,10.11,0,0,0,2.36,5.21,11.71,11.71,0,0,0,3.78,2.94C221.69,115,223.55,115,223.54,115.25Z" stroke="#000" stroke-miterlimit="10" stroke-width="0.5"/>
      <path d="M289.3,115.68c0-.12.44-.25,1.24-.41a15.79,15.79,0,0,0,3.2-.92,7.6,7.6,0,0,0,3.39-3.15,13,13,0,0,0,1.62-5.63,12.64,12.64,0,0,0-.84-5.78,7.07,7.07,0,0,0-3-3.46,6.38,6.38,0,0,0-3.06-.86c-.77,0-1.22.09-1.26,0s.34-.4,1.2-.6a6,6,0,0,1,3.64.46,7.8,7.8,0,0,1,3.87,3.87,13,13,0,0,1,1.1,6.51,13.23,13.23,0,0,1-2,6.3,8.16,8.16,0,0,1-4.24,3.44,10.46,10.46,0,0,1-3.56.48C289.77,115.87,289.31,115.79,289.3,115.68Z" stroke="#000" stroke-miterlimit="10" stroke-width="0.5"/>
      <path d="M248.41,150.81c-.42.16-2.09-3.16-3.73-7.42-.81-2.13-1.47-4.09-1.87-5.54s-.6-2.33-.4-2.44.77.67,1.48,2,1.5,3.24,2.32,5.37C247.84,147.06,248.83,150.64,248.41,150.81Z" stroke="#000" stroke-miterlimit="10" stroke-width="0.5"/>
      <path d="M265.89,151.29c-.44-.12.05-3.32.81-7.21s1.5-7,1.95-7,.42,3.34-.35,7.3S266.31,151.41,265.89,151.29Z" stroke="#000" stroke-miterlimit="10" stroke-width="0.5"/>
      <path d="M263.14,153.84c.16.12-.28,1-1.56,2a8.77,8.77,0,0,1-11.57-1c-1.09-1.18-1.37-2.16-1.19-2.26s.81.57,2,1.4a9.55,9.55,0,0,0,10.19.88C262.24,154.27,263,153.67,263.14,153.84Z" stroke="#000" stroke-miterlimit="10" stroke-width="0.5"/>
      <path d="M250,81.41c-.24.11-.85-1.25-2.6-2.66a10.82,10.82,0,0,0-8-2.32A12.88,12.88,0,0,0,232,80.49c-1.56,1.66-2.22,3-2.46,2.86s.12-1.59,1.57-3.6a12.91,12.91,0,0,1,3.13-3,11.89,11.89,0,0,1,5-1.94,11.06,11.06,0,0,1,5.36.68,10.31,10.31,0,0,1,3.65,2.41C250,79.74,250.21,81.37,250,81.41Z" stroke="#000" stroke-miterlimit="10" stroke-width="0.5"/>
      <path d="M255.12,117.6c-.15.09-1.32-1.64-2.18-4.86l-.31-1.26c-.09-.45-.16-.91-.24-1.39-.18-1-.25-2-.36-3.08-.14-2.17-.16-4.55-.12-7s.1-4.81.08-6.94a51.14,51.14,0,0,0-.36-5.59c-.4-3.16-1-5.06-.79-5.16s1.21,1.72,1.93,5a35.29,35.29,0,0,1,.72,5.74c.1,2.17.1,4.55,0,7s-.07,4.81,0,6.92c.07,1,.08,2.06.2,3,.05.46.1.91.14,1.35l.2,1.23C254.6,115.63,255.37,117.49,255.12,117.6Z" stroke="#000" stroke-miterlimit="10" stroke-width="0.5"/>
      <path d="M277.94,80.93c-.2.15-1-.72-2.58-1.77a13.18,13.18,0,0,0-6.64-2.37,10.85,10.85,0,0,0-6.65,2c-1.51,1-2.2,2-2.42,1.92s.18-1.37,1.69-2.82a10.31,10.31,0,0,1,7.46-2.69,11.81,11.81,0,0,1,7.28,3.09C277.57,79.65,278.1,80.81,277.94,80.93Z" stroke="#000" stroke-miterlimit="10" stroke-width="0.5"/>
      <path d="M248.85,96.26c.18.07,0,1.24-1.25,2.63a8.26,8.26,0,0,1-12.77-.59c-1.1-1.5-1.19-2.68-1-2.73s.72.86,1.88,2a8.12,8.12,0,0,0,11.1.51C248.06,97.06,248.63,96.15,248.85,96.26Z" stroke="#000" stroke-miterlimit="10" stroke-width="0.5"/>
      <path d="M279,92.37c.16.13-.4,1.27-1.66,2.9a14.57,14.57,0,0,1-2.61,2.61,10.09,10.09,0,0,1-4.21,2,7.44,7.44,0,0,1-4.71-.55,10.21,10.21,0,0,1-3-2.24c-1.42-1.53-2-2.64-1.89-2.78s1.13.69,2.66,1.92a11.72,11.72,0,0,0,2.84,1.73,6.57,6.57,0,0,0,3.79.32,13.22,13.22,0,0,0,6.28-3.75C277.87,93.12,278.78,92.22,279,92.37Z" stroke="#000" stroke-miterlimit="10" stroke-width="0.5"/>
      <path d="M268.8,116.6c.14.15-.76,1.34-2.6,2.88a22.62,22.62,0,0,1-8.32,4.36,17.47,17.47,0,0,1-9.43,0c-2.34-.72-3.53-1.71-3.42-1.88s1.45.37,3.69.75a20.26,20.26,0,0,0,8.74-.44,29.69,29.69,0,0,0,8.06-3.71C267.47,117.3,268.63,116.42,268.8,116.6Z" stroke="#000" stroke-miterlimit="10" stroke-width="0.5"/>
      <path d="M259.59,53.82c0,.27-2.74,0-7,.68a39,39,0,0,0-15.38,6.35A61.27,61.27,0,0,0,225,72.38c-2.77,3.35-4.35,5.56-4.55,5.43s1.06-2.55,3.64-6.14A51.07,51.07,0,0,1,236.3,59.5a35.35,35.35,0,0,1,16.14-6.14C256.91,52.92,259.63,53.65,259.59,53.82Z" stroke="#000" stroke-miterlimit="10" stroke-width="0.5"/>
      <path d="M293.86,93.22c-.13.06-.47-.57-1.26-1.56A20,20,0,0,0,288.7,88c-1.82-1.35-4.19-2.72-6.74-4.49a29.73,29.73,0,0,1-3.77-3.14,33.39,33.39,0,0,1-3.4-4,58.86,58.86,0,0,1-5-8.71c-1.33-2.77-2.43-5.28-3.36-7.4-1.86-4.23-2.9-6.9-2.7-7s1.62,2.4,3.74,6.51L271.11,67a67,67,0,0,0,5,8.42,30.41,30.41,0,0,0,6.74,6.91c2.41,1.78,4.76,3.28,6.56,4.8a16,16,0,0,1,3.71,4.17A3.87,3.87,0,0,1,293.86,93.22Z" stroke="#000" stroke-miterlimit="10" stroke-width="0.5"/>
      <path d="M282.26,42.59c-.15.08-.82-1.5-2.88-3.65A21.83,21.83,0,0,0,268.52,33a26.53,26.53,0,0,0-8.57-.53,40.33,40.33,0,0,0-9.69,2.21,82.79,82.79,0,0,0-10.16,4.46,108.08,108.08,0,0,0-10.33,6c-6.8,4.49-12.55,9.9-16.28,15.86-.46.74-.87,1.5-1.3,2.24s-.76,1.51-1.12,2.26A21.38,21.38,0,0,0,209.52,70a19.92,19.92,0,0,0,.55,8.48c1.2,5.24,2.44,9.42,3.33,12.3a32.31,32.31,0,0,1,1.3,4.52A21.86,21.86,0,0,1,212.8,91,114.93,114.93,0,0,1,209,78.75a20.57,20.57,0,0,1-.75-9,21.35,21.35,0,0,1,1.56-4.82c.37-.78.73-1.58,1.13-2.37s.86-1.57,1.33-2.35c3.8-6.23,9.72-11.84,16.65-16.42a100.56,100.56,0,0,1,10.51-6,80.83,80.83,0,0,1,10.39-4.46,41.12,41.12,0,0,1,10.06-2.14,27.3,27.3,0,0,1,9,.76,21.45,21.45,0,0,1,11.05,6.6,15.45,15.45,0,0,1,2,2.92C282.16,42.17,282.31,42.56,282.26,42.59Z" stroke="#000" stroke-miterlimit="10" stroke-width="0.5"/>
      <path d="M323,128.07c-.14,0,.21-1.41.46-3.92a31.3,31.3,0,0,0-.76-10.53,30.67,30.67,0,0,0-2.54-6.81A32.36,32.36,0,0,0,315.3,100a52.83,52.83,0,0,1-6.06-7.4,27,27,0,0,1-3.3-9.84c-.56-3.48-.84-6.83-1.39-10a65,65,0,0,0-2.1-9.08A42.23,42.23,0,0,0,299.21,56,32.31,32.31,0,0,0,295,50a27.19,27.19,0,0,0-8.36-6.39c-2.28-1.07-3.66-1.39-3.62-1.53a10.32,10.32,0,0,1,3.87,1,25.46,25.46,0,0,1,8.95,6.19,31.64,31.64,0,0,1,4.52,6.07,41.75,41.75,0,0,1,3.49,7.94,64.43,64.43,0,0,1,2.24,9.27c.58,3.26.88,6.66,1.43,10a26,26,0,0,0,3.05,9.27A53,53,0,0,0,316.43,99a32.52,32.52,0,0,1,4.92,7.17,30.66,30.66,0,0,1,2.47,7.16,29.11,29.11,0,0,1,.26,10.88A12,12,0,0,1,323,128.07Z" stroke="#000" stroke-miterlimit="10" stroke-width="0.5"/>
      <path d="M271.37,148.48a40.28,40.28,0,0,0-3.7,6.64,36.81,36.81,0,0,0-2.28,8.57,64.81,64.81,0,0,0-.56,11.78,55.91,55.91,0,0,0,2.07,14.07,30.19,30.19,0,0,0,8.21,13.72,34,34,0,0,0,15.47,8.54,24.51,24.51,0,0,0,9.32.31,32.12,32.12,0,0,0,9.2-3,37.47,37.47,0,0,0,4.27-2.45c1.4-.83,2.65-1.88,3.95-2.83a50.7,50.7,0,0,0,12-14.23,55.21,55.21,0,0,0,3.81-8,60.24,60.24,0,0,0,3.68-15.88,55,55,0,0,0-.55-14.22,43.48,43.48,0,0,0-3.49-11.19,33.85,33.85,0,0,0-4.8-7.44,19.53,19.53,0,0,0-4.21-3.68c-1.08-.69-1.71-1-1.68-1a5.83,5.83,0,0,1,1.85.74,18,18,0,0,1,4.51,3.54,32.78,32.78,0,0,1,5.14,7.47,43.34,43.34,0,0,1,3.82,11.39,55.16,55.16,0,0,1,.75,14.53,60.51,60.51,0,0,1-3.62,16.31,56.37,56.37,0,0,1-3.86,8.2,51.88,51.88,0,0,1-12.33,14.73c-1.34,1-2.63,2.06-4.09,2.93a38.54,38.54,0,0,1-4.43,2.54,33.32,33.32,0,0,1-9.67,3.15,25.8,25.8,0,0,1-9.92-.36,35.24,35.24,0,0,1-16.16-9,30,30,0,0,1-5.34-6.87,33.48,33.48,0,0,1-3.12-7.56,56.09,56.09,0,0,1-1.94-14.42,63.53,63.53,0,0,1,.82-12,35.49,35.49,0,0,1,2.6-8.68A24.37,24.37,0,0,1,270,150,7.49,7.49,0,0,1,271.37,148.48Z" stroke="#000" stroke-miterlimit="10" stroke-width="0.5"/>
      <path d="M272,149.39c-.14.16-.85-.19-1.72-1.1a10.39,10.39,0,0,1-2.38-4.23,10.53,10.53,0,0,1-.3-4.85c.24-1.23.65-1.91.86-1.86.46.11,0,3,1,6.25S272.31,149.05,272,149.39Z" stroke="#000" stroke-miterlimit="10" stroke-width="0.5"/>
      <path d="M245.81,151.82c.07.09-.57.75-1.87,1.8a21.15,21.15,0,0,1-6.17,3.51,14.87,14.87,0,0,1-10.58-.48,19.1,19.1,0,0,1-5.35-3.4,20,20,0,0,1-2.29-2.48,23.6,23.6,0,0,1-1.88-2.9,28.66,28.66,0,0,1-3.17-12.53,46.78,46.78,0,0,1,.93-10.44c.56-2.91,1.18-5.23,1.63-6.82a7.8,7.8,0,0,1,.88-2.42,8,8,0,0,1-.26,2.56c-.26,1.63-.71,4-1.12,6.87a52.43,52.43,0,0,0-.56,10.18,28.43,28.43,0,0,0,3.1,11.82,18.16,18.16,0,0,0,8.68,8.17,14,14,0,0,0,9.65.77,24.94,24.94,0,0,0,6.15-2.93A9.8,9.8,0,0,1,245.81,151.82Z" stroke="#000" stroke-miterlimit="10" stroke-width="0.5"/>
    </g>
  </g>
</svg>
