<svg xmlns="http://www.w3.org/2000/svg" viewBox="0 0 477.13 560.15"><defs><style>.cls-1{fill:#fff;}.cls-2{stroke:#000;stroke-miterlimit:10;stroke-width:0.5px;}</style></defs><title>public speaker</title><g id="Layer_AUDIENCE"><path class="cls-1" d="M6.23,408.76c-.43-5.27-.86-9.54-1.16-12.43-.73-6.89-1.32-11.16-.79-17.22.35-4,.93-5.86,1.7-7.41,1.5-3.05,3.7-5,6-7,3.71-3.26,5.16-3.35,7.14-6a16.07,16.07,0,0,0,2.65-5.6,14.1,14.1,0,0,1-1.13-7.93,9.39,9.39,0,0,1,1.39-3.95c1.42-2.18,4.44-4.55,7.82-4,3.08.51,4.79,3.18,5.3,4s1.21,2.08,1.8,8.24c.24,2.6.34,4.78.37,6.31,2.64,2.51,4.85,4.67,6.53,6.33,2.64,2.6,3.27,3.27,4,4.39a18.78,18.78,0,0,1,2.54,7.63,41.58,41.58,0,0,1,.34,10.38c-.5,4.71-.83,12.16-.18,24.39Z"/><path class="cls-1" d="M105.33,408.76c-.43-5.27-.86-9.54-1.16-12.43-.73-6.89-1.32-11.16-.79-17.22.35-4,.93-5.86,1.69-7.41,1.51-3.05,3.71-5,6.05-7,3.71-3.26,5.15-3.35,7.14-6a16,16,0,0,0,2.64-5.6,14.12,14.12,0,0,1-1.12-7.93,9.49,9.49,0,0,1,1.38-3.95c1.43-2.18,4.45-4.55,7.82-4,3.09.51,4.79,3.18,5.31,4s1.21,2.08,1.79,8.24c.25,2.6.34,4.78.38,6.31,2.64,2.51,4.85,4.67,6.53,6.33,2.64,2.6,3.26,3.27,4,4.39a18.93,18.93,0,0,1,2.54,7.63,40.8,40.8,0,0,1,.33,10.38c-.49,4.71-.83,12.16-.18,24.39Z"/><path class="cls-1" d="M151.42,408.76c-.43-5.27-.86-9.54-1.16-12.43-.73-6.89-1.32-11.16-.79-17.22.35-4,.93-5.86,1.69-7.41,1.51-3.05,3.71-5,6.05-7,3.71-3.26,5.15-3.35,7.14-6a16,16,0,0,0,2.64-5.6,14.12,14.12,0,0,1-1.12-7.93,9.49,9.49,0,0,1,1.38-3.95c1.43-2.18,4.45-4.55,7.82-4,3.09.51,4.79,3.18,5.31,4s1.2,2.08,1.79,8.24c.25,2.6.34,4.78.38,6.31,2.64,2.51,4.85,4.67,6.53,6.33,2.64,2.6,3.26,3.27,4,4.39a18.93,18.93,0,0,1,2.54,7.63,41.33,41.33,0,0,1,.33,10.38c-.49,4.71-.83,12.16-.18,24.39Z"/><path class="cls-1" d="M426.94,421.09c-.6-6.51-1.18-11.68-1.57-15-.63-5.3-1.38-10.46-.79-17.23.35-4,.93-5.86,1.69-7.4,1.51-3.05,3.71-5,6.05-7,3.71-3.26,5.15-3.34,7.14-6a16,16,0,0,0,2.64-5.6,14.1,14.1,0,0,1-1.12-7.92,9.58,9.58,0,0,1,1.38-4c1.43-2.18,4.45-4.54,7.83-4,3.08.5,4.78,3.18,5.3,4s1.21,2.08,1.79,8.25c.25,2.6.35,4.77.38,6.3,2.64,2.52,4.85,4.67,6.53,6.33,2.64,2.6,3.26,3.28,4,4.39a18.93,18.93,0,0,1,2.54,7.63,40.54,40.54,0,0,1,.33,10.38c-.55,4.95-.84,13.6,0,29.93Z"/><path class="cls-1" d="M379.67,418.22c-.17-6.15-.59-11.12-1-14.55-.56-5.33-1.39-10.31-.79-17.22.36-4,.94-5.87,1.7-7.41,1.51-3.05,3.7-5,6.05-7,3.7-3.26,5.15-3.34,7.14-6a16,16,0,0,0,2.64-5.59,14.14,14.14,0,0,1-1.12-7.93,9.58,9.58,0,0,1,1.38-4c1.42-2.17,4.45-4.54,7.82-4,3.09.51,4.79,3.18,5.31,4s1.2,2.08,1.79,8.25c.25,2.6.34,4.77.38,6.31,2.64,2.51,4.85,4.66,6.53,6.32,2.64,2.61,3.26,3.28,4,4.39a19.22,19.22,0,0,1,2.54,7.64,41,41,0,0,1,.33,10.37c-.53,4.71-.77,13.08.55,29.16Z"/><path class="cls-2" d="M476.88,424.53a6.56,6.56,0,0,1-1.24,0l-3.61-.17-13.87-.83-22-1.36-29.07-1.74c-10.77-.62-22.57-1.3-35.24-1.95s-26.21-1.34-40.46-2c-28.5-1.32-59.84-2.61-92.75-3.69s-64.26-1.8-92.79-2.34c-14.26-.22-27.82-.47-40.5-.59s-24.51-.26-35.3-.33L41,409.34l-22-.06L5.1,409.2l-3.62-.06a6.86,6.86,0,0,1-1.23-.07A6.53,6.53,0,0,1,1.48,409l3.61-.1,13.9-.24c6-.09,13.42-.17,22-.21s18.34-.12,29.13-.09,22.61,0,35.3.14,26.25.26,40.51.44c28.54.45,59.91,1.15,92.83,2.21S303,413.55,331.52,415c14.25.74,27.79,1.42,40.46,2.18s24.46,1.45,35.23,2.15,20.51,1.38,29.06,2,15.92,1.15,21.93,1.63L472.05,424l3.6.33A9.41,9.41,0,0,1,476.88,424.53Z"/><path class="cls-2" d="M21.64,354c.05,0,.06.23,0,.65a7.25,7.25,0,0,1-.45,1.78A14.54,14.54,0,0,1,17,361.68c-2.11,1.87-4.93,3.67-7.39,6.22a16.62,16.62,0,0,0-4.29,10.33,42.59,42.59,0,0,0-.15,6.06c0,2,.2,3.89.35,5.72.27,3.65.49,6.95.65,9.72.33,5.53.42,9,.2,9s-.72-3.38-1.34-8.9c-.31-2.76-.66-6.06-1-9.71-.19-1.83-.37-3.75-.45-5.77a43,43,0,0,1,.12-6.29,21.8,21.8,0,0,1,1.5-6.21,15.18,15.18,0,0,1,3.34-5c2.72-2.68,5.61-4.35,7.73-6.06a15.7,15.7,0,0,0,4.32-4.65,12.76,12.76,0,0,0,.71-1.59C21.48,354.17,21.58,354,21.64,354Z"/><path class="cls-2" d="M37.56,356.39c-.23,0-.42-2.45-.92-6.37a41.72,41.72,0,0,0-1.25-6.71A9.6,9.6,0,0,0,33.64,340a5.49,5.49,0,0,0-3.27-1.89,7.76,7.76,0,0,0-6.89,2.69,10.17,10.17,0,0,0-2.17,6,18.38,18.38,0,0,0,.4,4.54c.22,1.07.38,1.67.27,1.72s-.45-.48-.88-1.54a14.12,14.12,0,0,1-.94-4.74,10.85,10.85,0,0,1,2.16-7,9.48,9.48,0,0,1,3.54-2.69,8.36,8.36,0,0,1,4.78-.65,7,7,0,0,1,4.22,2.46,10.85,10.85,0,0,1,2,3.95,34.12,34.12,0,0,1,1,7.05C38,353.92,37.78,356.39,37.56,356.39Z"/><path class="cls-2" d="M50.9,407.46c-.22,0-.43-3.27-.57-8.56s-.2-12.63-.26-20.65c-.1-4-.63-7.75-2.24-10.68s-4.07-4.91-6-6.7a26.26,26.26,0,0,1-4.31-4.65c-.84-1.27-1.08-2.08-1-2.12s.55.64,1.5,1.74A36.45,36.45,0,0,0,42.57,360c2,1.67,4.68,3.62,6.57,6.84s2.46,7.3,2.56,11.36c.07,8.12-.08,15.4-.22,20.7S51.13,407.46,50.9,407.46Z"/><path class="cls-2" d="M71.63,354.41c.05,0,.06.23,0,.64a7.25,7.25,0,0,1-.45,1.78A14.38,14.38,0,0,1,67,362.1c-2.11,1.87-4.93,3.67-7.39,6.22s-3.92,6.23-4.3,10.33a45.76,45.76,0,0,0-.15,6.06c.06,2,.21,3.89.35,5.72.28,3.66.5,6.95.66,9.72.33,5.54.42,9,.2,9s-.72-3.38-1.34-8.9c-.32-2.76-.66-6.05-1-9.71-.19-1.83-.37-3.75-.45-5.77a41.68,41.68,0,0,1,.12-6.29,21.8,21.8,0,0,1,1.5-6.21,15,15,0,0,1,3.34-5c2.72-2.69,5.61-4.36,7.73-6.07a15.72,15.72,0,0,0,4.32-4.65,12.76,12.76,0,0,0,.71-1.59C71.47,354.6,71.57,354.4,71.63,354.41Z"/><path class="cls-2" d="M87.55,356.82c-.24,0-.42-2.45-.92-6.37a41.83,41.83,0,0,0-1.25-6.72,9.6,9.6,0,0,0-1.75-3.35,5.49,5.49,0,0,0-3.27-1.89,7.78,7.78,0,0,0-6.89,2.69,10.1,10.1,0,0,0-2.17,6,18.33,18.33,0,0,0,.4,4.54c.22,1.08.38,1.68.27,1.72s-.46-.48-.88-1.54a13.87,13.87,0,0,1-.94-4.74,10.81,10.81,0,0,1,2.16-7,9.4,9.4,0,0,1,3.54-2.7,8.53,8.53,0,0,1,4.78-.65,7,7,0,0,1,4.22,2.47,10.89,10.89,0,0,1,2,3.94,34.81,34.81,0,0,1,1,7C88,354.34,87.76,356.82,87.55,356.82Z"/><path class="cls-2" d="M100.89,407.89c-.22,0-.43-3.28-.57-8.57s-.2-12.62-.26-20.65c-.1-4-.64-7.74-2.24-10.67s-4.07-4.91-6-6.7a26.22,26.22,0,0,1-4.31-4.66c-.84-1.26-1.08-2.07-1-2.11s.55.63,1.5,1.73a35.69,35.69,0,0,0,4.56,4.16c2,1.68,4.68,3.63,6.57,6.85s2.46,7.29,2.56,11.35c.06,8.12-.08,15.4-.22,20.7S101.12,407.89,100.89,407.89Z"/><path class="cls-2" d="M120.27,353.93c.06,0,.06.23,0,.65a7.36,7.36,0,0,1-.45,1.78,14.44,14.44,0,0,1-4.16,5.26c-2.11,1.88-4.93,3.68-7.39,6.23A16.62,16.62,0,0,0,104,378.18a42.59,42.59,0,0,0-.15,6.06c0,2,.2,3.89.35,5.72.27,3.65.49,7,.66,9.72.32,5.53.41,9,.19,9s-.72-3.38-1.34-8.9c-.31-2.76-.66-6.06-1-9.71-.19-1.83-.37-3.75-.45-5.77a41.69,41.69,0,0,1,.13-6.29,21.46,21.46,0,0,1,1.49-6.21,15.33,15.33,0,0,1,3.34-5c2.72-2.68,5.61-4.35,7.74-6.06a15.78,15.78,0,0,0,4.31-4.65,12.76,12.76,0,0,0,.71-1.59C120.11,354.12,120.21,353.92,120.27,353.93Z"/><path class="cls-2" d="M136.19,356.34c-.23,0-.41-2.45-.92-6.37a40.94,40.94,0,0,0-1.25-6.72,9.78,9.78,0,0,0-1.75-3.35A5.48,5.48,0,0,0,129,338a7.76,7.76,0,0,0-6.89,2.69,10.23,10.23,0,0,0-2.17,6,18.38,18.38,0,0,0,.4,4.54c.23,1.07.38,1.67.27,1.72s-.45-.48-.88-1.54a14.12,14.12,0,0,1-.94-4.74,10.85,10.85,0,0,1,2.16-7,9.33,9.33,0,0,1,3.55-2.69,8.32,8.32,0,0,1,4.77-.65,7,7,0,0,1,4.22,2.46,10.85,10.85,0,0,1,2,3.95,34.12,34.12,0,0,1,1,7.05C136.63,353.87,136.41,356.34,136.19,356.34Z"/><path class="cls-2" d="M149.53,407.41c-.22,0-.42-3.27-.57-8.56s-.19-12.63-.26-20.66c-.09-4-.63-7.74-2.24-10.67s-4.07-4.91-6-6.7a26.61,26.61,0,0,1-4.31-4.65c-.83-1.27-1.08-2.08-1-2.12s.55.64,1.5,1.73a35.84,35.84,0,0,0,4.57,4.17c2,1.67,4.67,3.62,6.56,6.84s2.46,7.3,2.56,11.36c.07,8.12-.08,15.4-.22,20.7S149.76,407.41,149.53,407.41Z"/><path class="cls-2" d="M166.55,353.52s.06.23,0,.65a7,7,0,0,1-.46,1.78,14.5,14.5,0,0,1-4.15,5.27c-2.11,1.87-4.93,3.67-7.39,6.22s-3.92,6.22-4.3,10.33a45.76,45.76,0,0,0-.15,6.06c.06,2,.21,3.89.35,5.72.28,3.65.5,6.95.66,9.72.33,5.53.42,9,.2,9s-.72-3.38-1.35-8.9c-.31-2.76-.65-6.06-1-9.71-.19-1.83-.37-3.75-.45-5.77a41.65,41.65,0,0,1,.12-6.29,21.8,21.8,0,0,1,1.5-6.21,15.18,15.18,0,0,1,3.34-5c2.72-2.68,5.61-4.35,7.73-6.06a15.84,15.84,0,0,0,4.32-4.65,12.76,12.76,0,0,0,.71-1.59C166.39,353.71,166.49,353.51,166.55,353.52Z"/><path class="cls-2" d="M182.47,355.93c-.24,0-.42-2.45-.92-6.37a41.72,41.72,0,0,0-1.25-6.71,9.74,9.74,0,0,0-1.75-3.36,5.52,5.52,0,0,0-3.28-1.88,7.74,7.74,0,0,0-6.88,2.69,10.1,10.1,0,0,0-2.17,6,18.38,18.38,0,0,0,.4,4.54c.22,1.07.38,1.67.27,1.72s-.46-.48-.88-1.54a13.87,13.87,0,0,1-.94-4.74,10.85,10.85,0,0,1,2.16-7,9.4,9.4,0,0,1,3.54-2.69,8.36,8.36,0,0,1,4.78-.65,7,7,0,0,1,4.22,2.46,10.85,10.85,0,0,1,2,4,34.81,34.81,0,0,1,1,7C182.91,353.46,182.68,355.93,182.47,355.93Z"/><path class="cls-2" d="M195.81,407c-.23,0-.43-3.27-.57-8.56s-.2-12.63-.27-20.66c-.09-4-.63-7.74-2.23-10.67s-4.07-4.91-6-6.7a25.88,25.88,0,0,1-4.31-4.65c-.84-1.27-1.08-2.08-1-2.12s.55.64,1.5,1.73a35.62,35.62,0,0,0,4.56,4.17c2,1.67,4.68,3.62,6.57,6.84s2.46,7.3,2.55,11.36c.07,8.12-.08,15.4-.21,20.7S196,407,195.81,407Z"/><path class="cls-2" d="M348.24,361.35c.05,0,.06.23,0,.64a7.42,7.42,0,0,1-.45,1.79,14.44,14.44,0,0,1-4.16,5.26c-2.11,1.88-4.93,3.67-7.39,6.22A16.67,16.67,0,0,0,332,385.59a42.59,42.59,0,0,0-.15,6.06c.05,2,.2,3.9.35,5.72.27,3.66.49,6.95.65,9.72.33,5.54.42,9,.2,9s-.72-3.37-1.34-8.9c-.31-2.76-.66-6.05-1-9.71-.19-1.83-.37-3.74-.45-5.76a43,43,0,0,1,.12-6.29,21.86,21.86,0,0,1,1.5-6.22,15.13,15.13,0,0,1,3.34-5c2.72-2.69,5.61-4.36,7.73-6.07a15.57,15.57,0,0,0,4.32-4.64,14.22,14.22,0,0,0,.71-1.59C348.08,361.54,348.18,361.34,348.24,361.35Z"/><path class="cls-2" d="M364.16,363.76c-.23,0-.42-2.45-.92-6.37a41.83,41.83,0,0,0-1.25-6.72,9.6,9.6,0,0,0-1.75-3.35,5.54,5.54,0,0,0-3.27-1.89,7.78,7.78,0,0,0-6.89,2.69,10.19,10.19,0,0,0-2.17,6,18.33,18.33,0,0,0,.4,4.54c.22,1.08.38,1.68.27,1.72s-.45-.48-.88-1.53a14.23,14.23,0,0,1-.94-4.74,10.84,10.84,0,0,1,2.16-7,9.28,9.28,0,0,1,3.54-2.69,8.36,8.36,0,0,1,4.78-.65,7,7,0,0,1,4.22,2.46,10.85,10.85,0,0,1,2,3.95,33.94,33.94,0,0,1,1,7C364.6,361.29,364.38,363.76,364.16,363.76Z"/><path class="cls-2" d="M377.5,414.83c-.22,0-.43-3.27-.57-8.57s-.2-12.62-.26-20.65c-.1-4-.63-7.74-2.24-10.67s-4.07-4.91-6-6.7a26.61,26.61,0,0,1-4.31-4.65c-.84-1.27-1.08-2.08-1-2.12s.55.63,1.5,1.73a36.38,36.38,0,0,0,4.56,4.17c2,1.67,4.68,3.62,6.57,6.84s2.46,7.29,2.56,11.35c.07,8.13-.08,15.4-.22,20.7S377.73,414.83,377.5,414.83Z"/><path class="cls-2" d="M442.05,364c.05,0,.06.22,0,.64a7.25,7.25,0,0,1-.45,1.78,14.38,14.38,0,0,1-4.16,5.27c-2.11,1.87-4.93,3.67-7.39,6.22s-3.92,6.23-4.29,10.33a42.59,42.59,0,0,0-.15,6.06c.05,2,.2,3.89.35,5.72.27,3.66.49,6.95.65,9.72.33,5.54.42,9,.2,9s-.72-3.38-1.34-8.9c-.31-2.76-.66-6.05-1-9.71-.19-1.83-.37-3.75-.45-5.77a43,43,0,0,1,.12-6.29,21.8,21.8,0,0,1,1.5-6.21,15,15,0,0,1,3.34-5c2.72-2.69,5.61-4.36,7.73-6.07a15.7,15.7,0,0,0,4.32-4.65,12.76,12.76,0,0,0,.71-1.59C441.89,364.23,442,364,442.05,364Z"/><path class="cls-2" d="M458,366.45c-.23,0-.42-2.46-.92-6.37a41.83,41.83,0,0,0-1.25-6.72,9.6,9.6,0,0,0-1.75-3.35,5.49,5.49,0,0,0-3.27-1.89,7.78,7.78,0,0,0-6.89,2.69,10.17,10.17,0,0,0-2.17,6,18.33,18.33,0,0,0,.4,4.54c.22,1.07.38,1.68.27,1.72s-.45-.48-.88-1.54a14.12,14.12,0,0,1-.94-4.74,10.81,10.81,0,0,1,2.16-7,9.4,9.4,0,0,1,3.54-2.7,8.53,8.53,0,0,1,4.78-.65,7,7,0,0,1,4.22,2.47,10.89,10.89,0,0,1,2,3.94,34.12,34.12,0,0,1,1,7.05C458.41,364,458.19,366.45,458,366.45Z"/><path class="cls-2" d="M471.31,417.52c-.22,0-.43-3.28-.57-8.57s-.2-12.63-.26-20.65c-.1-4-.63-7.75-2.24-10.67s-4.07-4.91-6-6.7a26.61,26.61,0,0,1-4.31-4.66c-.84-1.26-1.08-2.07-1-2.11s.55.63,1.5,1.73a36.45,36.45,0,0,0,4.56,4.16c2,1.68,4.68,3.63,6.57,6.85s2.46,7.29,2.56,11.35c.07,8.12-.08,15.4-.22,20.7S471.54,417.52,471.31,417.52Z"/><path class="cls-2" d="M395.1,361.35s.06.23,0,.64a7.42,7.42,0,0,1-.45,1.79A14.44,14.44,0,0,1,390.5,369c-2.11,1.88-4.93,3.67-7.39,6.22a16.67,16.67,0,0,0-4.29,10.33,42.59,42.59,0,0,0-.15,6.06c.05,2,.2,3.9.35,5.72.27,3.66.49,6.95.65,9.72.33,5.54.42,9,.2,9s-.72-3.37-1.34-8.9c-.31-2.76-.66-6.05-1-9.71-.19-1.83-.37-3.74-.45-5.76a43,43,0,0,1,.12-6.29,21.86,21.86,0,0,1,1.5-6.22,15.13,15.13,0,0,1,3.34-5c2.72-2.69,5.61-4.36,7.73-6.07a15.57,15.57,0,0,0,4.32-4.64,14.22,14.22,0,0,0,.71-1.59C394.94,361.54,395,361.34,395.1,361.35Z"/><path class="cls-2" d="M411,363.76c-.23,0-.42-2.45-.92-6.37a41.83,41.83,0,0,0-1.25-6.72,9.6,9.6,0,0,0-1.75-3.35,5.54,5.54,0,0,0-3.27-1.89,7.78,7.78,0,0,0-6.89,2.69,10.19,10.19,0,0,0-2.17,6,18.33,18.33,0,0,0,.4,4.54c.22,1.08.38,1.68.27,1.72s-.45-.48-.88-1.53a14.23,14.23,0,0,1-.94-4.74,10.84,10.84,0,0,1,2.16-7,9.28,9.28,0,0,1,3.54-2.69,8.36,8.36,0,0,1,4.78-.65,7,7,0,0,1,4.22,2.46,10.85,10.85,0,0,1,2,3.95,33.94,33.94,0,0,1,1,7C411.46,361.29,411.24,363.76,411,363.76Z"/><path class="cls-2" d="M424.36,414.83c-.22,0-.43-3.27-.57-8.57s-.2-12.62-.26-20.65c-.1-4-.63-7.74-2.24-10.67s-4.07-4.91-6-6.7a26.61,26.61,0,0,1-4.31-4.65c-.84-1.27-1.08-2.08-1-2.12s.55.63,1.5,1.73a36.38,36.38,0,0,0,4.56,4.17c2,1.67,4.68,3.62,6.57,6.84s2.46,7.29,2.56,11.35c.07,8.13-.08,15.4-.22,20.7S424.59,414.83,424.36,414.83Z"/></g><g id="Layer_LIGHT"><path class="cls-2" d="M435.7.3a2.3,2.3,0,0,1-.72.12l-2.15.17-8.24.49-5.95.31-7.08.48c-5.08.37-10.87.69-17.25,1.28l-10,.83c-3.48.3-7.1.7-10.85,1.06-7.5.7-15.49,1.66-23.91,2.62-16.81,2.05-35.27,4.6-54.58,7.67s-37.64,6.39-54.3,9.51S209,31,196.47,33.52l-29.75,6.07-8.1,1.6-2.12.37a2.38,2.38,0,0,1-.73.08,2.28,2.28,0,0,1,.7-.24l2.08-.53,8-1.9c7-1.62,17.12-3.88,29.65-6.58s27.49-5.78,44.14-9,35-6.54,54.32-9.65,37.82-5.58,54.67-7.55c8.43-.92,16.44-1.84,23.95-2.47,3.76-.34,7.38-.7,10.87-1L394.23,2c6.39-.52,12.19-.76,17.28-1L418.6.61l6-.17,8.26-.18H435A3.18,3.18,0,0,1,435.7.3Z"/><path class="cls-2" d="M434,224.66a10.64,10.64,0,0,1,.12-2.16c.13-1.42.36-3.49.66-6.17.6-5.35,1.57-13.07,2.86-22.61,2.57-19.07,6.54-45.37,11.68-74.28s10.51-55,14.68-73.75c2.08-9.4,3.83-17,5.12-22.21.64-2.61,1.15-4.64,1.51-6a11.32,11.32,0,0,1,.63-2.07,10,10,0,0,1-.31,2.14c-.26,1.4-.67,3.44-1.21,6.08-1.09,5.27-2.67,12.89-4.61,22.31-3.89,18.84-9.06,44.9-14.21,73.79s-9.28,55.15-12.14,74.17c-1.42,9.51-2.58,17.2-3.37,22.53-.4,2.66-.73,4.72-1,6.12A10.69,10.69,0,0,1,434,224.66Z"/><path class="cls-2" d="M335.84,42.17a5.59,5.59,0,0,1-1.49.39c-1,.2-2.43.47-4.31.81s-4.17.73-6.83,1.23-5.69,1-9,1.7-7,1.36-10.91,2.2-8.09,1.76-12.48,2.74c-8.76,2-18.36,4.45-28.36,7.23S243,64.22,234.44,67c-4.26,1.44-8.32,2.78-12.08,4.14s-7.28,2.6-10.47,3.78-6.07,2.28-8.6,3.24-4.7,1.79-6.48,2.49-3.16,1.21-4.1,1.55a5.6,5.6,0,0,1-1.48.44,5.76,5.76,0,0,1,1.35-.74c.9-.44,2.25-1.05,4-1.83s3.87-1.73,6.38-2.76,5.34-2.24,8.52-3.47,6.66-2.61,10.43-4,7.8-2.81,12.06-4.3c8.55-2.89,18-5.87,28-8.69s19.67-5.16,28.47-7.13c4.41-.94,8.6-1.86,12.54-2.6s7.61-1.44,11-2,6.41-1,9.08-1.46,5-.73,6.88-1,3.37-.41,4.37-.51A5.38,5.38,0,0,1,335.84,42.17Z"/><path class="cls-2" d="M361.51,53.9c.09.21-3.6,1.93-9.61,4.58s-14.34,6.22-23.56,10.15-17.57,7.46-23.64,10-9.86,4-10,3.76,3.54-2,9.5-4.81,14.24-6.48,23.46-10.41,17.64-7.34,23.76-9.72S361.43,53.69,361.51,53.9Z"/><path class="cls-2" d="M330.83,158.87a24.5,24.5,0,0,1,2.6-3.8c1.75-2.39,4.34-5.79,7.6-10,6.51-8.34,15.71-19.71,26.18-32s20.24-23.18,27.45-30.93c3.6-3.87,6.55-7,8.63-9.09a24.33,24.33,0,0,1,3.34-3.16,25,25,0,0,1-2.88,3.59L395.51,83c-7,7.94-16.6,18.93-27.06,31.2s-19.79,23.52-26.52,31.68l-8,9.63A24.41,24.41,0,0,1,330.83,158.87Z"/><path class="cls-2" d="M384.68,229.53c-.42-.16,6.59-19.66,15.65-43.55s16.76-43.13,17.18-43-6.59,19.66-15.65,43.55S385.1,229.69,384.68,229.53Z"/></g><g id="Layer_STAND"><path class="cls-1" d="M273.33,153.36a8.47,8.47,0,0,0-4.54-8.31c-.9-.48-4.52-2.41-7.61-.42a6.29,6.29,0,0,0-2.81,5.69,6.65,6.65,0,0,0,2.89,4.79c2.64,1.84,6.53,1.64,9.82-.5a46.54,46.54,0,0,1,5.27,6.22,49.1,49.1,0,0,1,6.39,12.77c6.28,18.16,7.47,38.4,7.47,38.4a179.77,179.77,0,0,1-1.41,35.1l-41.93,4.34c-9.23,6.78-19.32,13.71-30.28,20.59-12.22,7.68-24,14.37-35.21,20.2q-.25,4.95-.39,10.14-.18,7.86,0,15.23l2.12,2q3.35,22.88,6.43,46.16,9.47,71.45,15.74,139.93,10.06,2,20.64,3.7a527.56,527.56,0,0,0,77,6.44c1.19-1.17,3-3,5.16-5.35,4.46-4.9,7.41-8.88,8.23-10,3.13-4.18,9.67-12.25,24.42-29.2q2.28-59.77,6-121.53,2.18-35.81,4.77-70.88,2.38-4.12,4.78-8.25-.27-11.12-.53-22.21l-63.4-1.25a215.75,215.75,0,0,0,.31-41.37c-.66-7.31-1.23-13.24-3.3-20.77A91.72,91.72,0,0,0,273.33,153.36Z"/><path class="cls-2" d="M180.39,318.05c-.45,0-.59-5.81-.32-12.93s.86-12.9,1.31-12.88.6,5.81.32,12.94S180.84,318.07,180.39,318.05Z"/><path class="cls-2" d="M307.61,327.4a29,29,0,0,1-5,.94c-3.23.48-7.91,1.07-13.72,1.61s-12.75,1-20.46,1.18-16.21.13-25.1-.32a323.58,323.58,0,0,1-45.25-5.46,60.45,60.45,0,0,1-7.65-2.06,32.16,32.16,0,0,1-5.45-2.5,22.16,22.16,0,0,1-3.09-2.19c-.63-.59-.95-.92-.91-1s1.44,1.12,4.31,2.59a34.76,34.76,0,0,0,5.43,2.19,65.49,65.49,0,0,0,7.58,1.8,386.67,386.67,0,0,0,45.11,5c8.85.45,17.3.56,25,.45s14.6-.47,20.4-.83,10.49-.81,13.73-1.09A31.18,31.18,0,0,1,307.61,327.4Z"/><path class="cls-2" d="M354.22,273.22a9.42,9.42,0,0,1-.9,2.67c-.7,1.67-1.82,4-3.37,6.89s-3.6,6.12-6.06,9.63-5.34,7.24-8.51,11-6.32,7.27-9.22,10.39-5.5,5.93-7.86,8.2a20.89,20.89,0,0,1-6.35,4.42,5.69,5.69,0,0,1-2.77.65c0-.14.94-.38,2.5-1.22a24.06,24.06,0,0,0,5.81-4.67c2.19-2.31,4.71-5.23,7.56-8.39s5.93-6.67,9.08-10.42,6-7.42,8.54-10.84,4.59-6.62,6.28-9.34C352.29,276.72,354,273.11,354.22,273.22Z"/><path class="cls-2" d="M306.6,304.09a28.75,28.75,0,0,1-4.8.81c-1.55.22-3.45.45-5.66.64s-4.73.48-7.52.64l-4.38.28c-1.52.09-3.11.12-4.76.19-3.28.15-6.8.16-10.5.19-7.4,0-15.53-.33-24.05-1s-16.58-1.8-23.88-3c-3.64-.65-7.11-1.24-10.32-1.94-1.61-.34-3.17-.64-4.66-1l-4.28-1c-2.72-.61-5.16-1.3-7.31-1.87s-4-1.11-5.47-1.58a27.59,27.59,0,0,1-4.59-1.6,28.11,28.11,0,0,1,4.76,1c1.51.38,3.36.84,5.53,1.31s4.61,1.1,7.34,1.64l4.28.9c1.49.31,3,.58,4.66.89,3.21.64,6.67,1.17,10.3,1.78,7.28,1.11,15.31,2.13,23.78,2.86s16.56,1,23.92,1.14c3.68,0,7.18.05,10.46,0,1.64,0,3.22,0,4.74-.1l4.37-.18c2.78-.07,5.3-.27,7.51-.39s4.12-.24,5.67-.36A28.3,28.3,0,0,1,306.6,304.09Z"/><path class="cls-2" d="M354.12,249.44c.18.11-1.68,3.48-5.11,8.67A209.46,209.46,0,0,1,317.56,295c-4.57,4.21-7.61,6.58-7.74,6.42s2.59-2.85,6.94-7.25,10.24-10.6,16.36-17.77,11.29-14,14.95-19S353.92,249.31,354.12,249.44Z"/><path class="cls-2" d="M356.15,273.48c-.46,0-.61-5.34-.83-11.89s-.41-11.87,0-11.92,1.37,5.25,1.59,11.87S356.59,273.5,356.15,273.48Z"/><path class="cls-2" d="M244.78,252.74c.13.18-3.1,2.79-8.52,6.75s-13,9.25-21.65,14.8-16.6,10.28-22.45,13.56a38.23,38.23,0,0,1-7.2,3.51c-1.85.55-2.94.43-2.94.34s1-.24,2.73-.94a51.83,51.83,0,0,0,6.82-3.9c5.7-3.53,13.56-8.42,22.15-13.94s16.3-10.66,21.88-14.37S244.65,252.55,244.78,252.74Z"/><path class="cls-2" d="M352.19,247.92a18.94,18.94,0,0,1-4,.18H337.35c-9.16,0-21.82,0-35.78.47s-26.61,1.16-35.75,1.75L255,251a19.16,19.16,0,0,1-4,.07,17.85,17.85,0,0,1,3.94-.7c2.54-.35,6.23-.76,10.8-1.2,9.13-.89,21.78-1.79,35.78-2.23s26.69-.31,35.86,0c4.59.15,8.3.34,10.86.53A18.49,18.49,0,0,1,352.19,247.92Z"/><path class="cls-2" d="M225.22,287.43c-.13-.22,2-1.61,5.25-4.18,1.62-1.27,3.47-2.88,5.49-4.7s4.17-3.93,6.42-6.15c4.48-4.46,8.6-8.49,11.81-11.17s5.39-4.08,5.51-3.91-1.77,1.89-4.74,4.77-6.93,7-11.43,11.47c-2.26,2.23-4.48,4.3-6.57,6.11a72.17,72.17,0,0,1-5.8,4.51C227.7,286.55,225.31,287.6,225.22,287.43Z"/><path class="cls-2" d="M291.44,290.36a8,8,0,0,1-2.45.94c-.81.26-1.8.55-3,.82s-2.49.63-4,.9-3.11.6-4.88.83-3.64.46-5.63.67a103.13,103.13,0,0,1-26-1c-2-.36-3.84-.68-5.57-1.11s-3.34-.8-4.79-1.22-2.76-.83-3.9-1.2-2.11-.73-2.89-1.05a8,8,0,0,1-2.37-1.13c.08-.25,3.62.91,9.44,2.27,1.46.33,3.06.7,4.79,1s3.57.63,5.52.94c3.91.55,8.22,1,12.77,1.2s8.89.05,12.83-.19c2-.16,3.84-.28,5.58-.51s3.37-.41,4.85-.63C287.76,291,291.38,290.11,291.44,290.36Z"/><path class="cls-2" d="M321.75,259.24c0,.23-3.49,0-9.06-.45s-13.26-.94-21.77-1.25-16.23-.31-21.81-.29-9.05.05-9.07-.18,3.43-.65,9-1,13.35-.48,21.9-.19,16.28,1,21.84,1.73S321.78,259,321.75,259.24Z"/><path class="cls-2" d="M288.51,291.32c-.29-.38,7.57-6.74,16.52-15.39S320.66,259.7,321,260c.17.13-1.29,2.22-3.91,5.38a151.84,151.84,0,0,1-11,11.71A150.2,150.2,0,0,1,294,287.61C290.78,290.12,288.64,291.49,288.51,291.32Z"/><path class="cls-2" d="M282.73,263.23c-.07.45-3,.36-6.44-.2s-6.26-1.36-6.19-1.81,2.95-.35,6.44.2S282.81,262.79,282.73,263.23Z"/><path class="cls-2" d="M290.9,269c-.09.45-7-.56-15.43-1.9s-15.32-2.51-15.26-3,7,0,15.51,1.35S291,268.6,290.9,269Z"/><path class="cls-2" d="M271.73,270.39c0,.44-3.27.95-7.33.47s-7.14-1.72-7-2.14,3.3.08,7.21.52S271.71,269.93,271.73,270.39Z"/><path class="cls-2" d="M279.26,277c0,.43-6.28.55-13.93-.44s-13.69-2.67-13.59-3.1,6.23.52,13.8,1.49S279.28,276.53,279.26,277Z"/><path class="cls-2" d="M272.18,283.2c-.06.45-4.51.28-9.94-.37s-9.81-1.55-9.75-2,4.5-.28,9.94.37S272.23,282.75,272.18,283.2Z"/><path class="cls-2" d="M288.8,247.05a17.82,17.82,0,0,1,0-3.75c.12-2.41.29-5.89.49-10.19a202.52,202.52,0,0,0-.9-33.48,118.13,118.13,0,0,0-3.68-18,95.35,95.35,0,0,0-5.3-14c-3.68-7.74-7-12-6.74-12.14a14.89,14.89,0,0,1,2.42,2.88,66.38,66.38,0,0,1,5.35,8.75,85.83,85.83,0,0,1,5.71,14.12A110.09,110.09,0,0,1,290,199.42a170.44,170.44,0,0,1,.43,33.76c-.33,4.3-.7,7.78-1,10.17A16.68,16.68,0,0,1,288.8,247.05Z"/><path class="cls-2" d="M273.82,153.59c-.05,0-.11-.15-.17-.43s-.13-.69-.25-1.2a9.85,9.85,0,0,0-2-3.86,9.51,9.51,0,0,0-5.3-3.3,7.42,7.42,0,0,0-3.59.13,4.51,4.51,0,0,0-2.74,2.3,5.66,5.66,0,0,0-.52,3.66,6,6,0,0,0,1.74,3,7.73,7.73,0,0,0,5.72,2.11,11.76,11.76,0,0,0,4.25-1c1-.43,1.5-.74,1.57-.64s-.33.57-1.26,1.19a10.12,10.12,0,0,1-4.47,1.65A8.74,8.74,0,0,1,260,155a7.34,7.34,0,0,1-2.27-3.8,7.06,7.06,0,0,1,.64-4.75,6.06,6.06,0,0,1,3.72-3.08,8.81,8.81,0,0,1,4.38-.07,10.22,10.22,0,0,1,5.88,4.07,8.94,8.94,0,0,1,1.7,4.46,5,5,0,0,1,0,1.29C273.93,153.45,273.88,153.59,273.82,153.59Z"/><path class="cls-2" d="M292.15,248.13a18.11,18.11,0,0,1-.1-3.88c.07-2.5.16-6.11.27-10.57.19-8.91.48-21.26-1.28-34.7A114.23,114.23,0,0,0,287,180.37,87.3,87.3,0,0,0,281.11,166c-4.1-7.88-7.83-12-7.57-12.23a15.44,15.44,0,0,1,2.66,2.85,62.86,62.86,0,0,1,5.93,8.83,80.86,80.86,0,0,1,6.29,14.47,106.89,106.89,0,0,1,4.24,18.85c1.78,13.62,1.29,26.05.81,35-.26,4.47-.55,8.07-.78,10.56A17.79,17.79,0,0,1,292.15,248.13Z"/><path class="cls-2" d="M205.23,505.62a9.28,9.28,0,0,1-.34-1.88c-.17-1.24-.39-3.07-.66-5.42-.52-4.71-1.28-11.52-2.21-19.94-1.83-16.84-4.4-40.1-7.45-65.76s-6-48.88-8.21-65.67c-1.07-8.41-1.94-15.2-2.54-19.9-.29-2.36-.5-4.18-.62-5.43a7.79,7.79,0,0,1-.11-1.9,8.91,8.91,0,0,1,.43,1.86c.23,1.22.54,3,.93,5.37.78,4.68,1.82,11.46,3.06,19.84,2.46,16.76,5.62,40,8.68,65.64s5.44,49,7,65.84c.77,8.43,1.34,15.27,1.69,20,.17,2.36.29,4.2.36,5.45A8.24,8.24,0,0,1,205.23,505.62Z"/><path class="cls-2" d="M304,515.71a18.35,18.35,0,0,1-3.92.26c-2.52.06-6.18.06-10.69,0-9-.16-21.49-.77-35.2-2.14s-26.05-3.24-34.92-4.86c-4.44-.81-8-1.53-10.48-2.09a18.38,18.38,0,0,1-3.8-1,18.4,18.4,0,0,1,3.91.4l10.55,1.58c8.91,1.33,21.24,3,34.91,4.38s26.08,2.15,35.07,2.61l10.66.54A18.59,18.59,0,0,1,304,515.71Z"/><path class="cls-2" d="M341.17,470.14a7.91,7.91,0,0,1-.11-1.94c0-1.27,0-3.14,0-5.55,0-4.81.17-11.78.4-20.39.47-17.22,1.39-41,2.86-67.25s3.25-50,4.72-67.14c.74-8.58,1.39-15.52,1.89-20.31.25-2.4.46-4.26.62-5.52a9.38,9.38,0,0,1,.32-1.91,8,8,0,0,1,0,1.94c-.05,1.27-.15,3.13-.31,5.54-.32,4.81-.79,11.76-1.37,20.35-1.18,17.18-2.76,40.91-4.24,67.14s-2.58,50-3.33,67.2c-.39,8.6-.71,15.56-.93,20.37-.12,2.41-.22,4.27-.31,5.54A9.37,9.37,0,0,1,341.17,470.14Z"/><path class="cls-2" d="M340.65,471.34c.35.29-7.54,10.32-17.62,22.41s-18.53,21.64-18.87,21.36,7.54-10.32,17.62-22.41S340.31,471.06,340.65,471.34Z"/><path class="cls-2" d="M307.53,483.16a6.69,6.69,0,0,1-.06-1.6c0-1,.07-2.57.15-4.55.17-3.94.43-9.65.74-16.71.65-14.11,1.44-33.6,2-55.14s.69-41.06.74-55.18c0-7.06.06-12.77.08-16.73,0-2,0-3.51.08-4.55a5.4,5.4,0,0,1,.14-1.59,6.35,6.35,0,0,1,.19,1.59c.07,1,.14,2.57.22,4.54.17,3.95.32,9.67.44,16.73.24,14.13.26,33.66-.26,55.23s-1.52,41.06-2.46,55.17c-.46,7.05-.9,12.75-1.26,16.69-.18,2-.33,3.49-.45,4.53A5.66,5.66,0,0,1,307.53,483.16Z"/><path class="cls-2" d="M305.63,498.46c.44,0,.5,4-.28,8.87s-2.06,8.62-2.49,8.51.13-4,.88-8.77S305.17,498.42,305.63,498.46Z"/><path class="cls-2" d="M310.42,326.1c-.45,0-1-4.88-1.29-10.94s-.1-11,.35-11,1,4.88,1.28,10.94S310.87,326.08,310.42,326.1Z"/></g><g id="Layer_CHARACTER1"><g id="foot_left" data-name="foot left"><path d="M57,526.33c.11.89.26,2.23.34,3.86.18,3.68-.14,5.49-.12,8.23a35.65,35.65,0,0,0,.83,7.4,17.47,17.47,0,0,0-.57,2.74,12.21,12.21,0,0,0-.06,3.26,12.94,12.94,0,0,0,.27,1.36c3.23.12,7.67.19,13,0,1.86-.06,5-.18,12-.73,13.45-1.05,18.18-.27,18.51-1.73s-5-4-5.74-4.36c-4.87-2.19-9.54-2-13-1.94a33.59,33.59,0,0,0-6.3.55c-2.53.51-3.64,1.11-5.35.82a7.58,7.58,0,0,1-4.38-2.74q.23-5.21.55-10.55c.14-2.42.3-4.81.46-7.19Z"/></g><g id="leg_left" data-name="leg left"><path class="cls-1" d="M54.6,284.36c-.59,2.25-1.32,5.27-2.06,8.86-1.17,5.6-2.1,11.39-2.89,18.39-1.47,13-1.69,23.54-1.73,25.89-.5,26.88.36,37.23,0,59-.34,22.09-1.76,45.3-2.34,54.92-.11,1.75-.63,10.22-1.11,21.45-.17,4.15-.33,7.88-.45,13s-.3,12.29-.15,21.44c.09,5,.25,9.29.4,12.53a21,21,0,0,0,6.63,4.27c3.11,1.24,5.62,1.35,9.05,1.47A47.81,47.81,0,0,0,74.17,524a44.56,44.56,0,0,0,10.27-4.35Q85.25,508,86.32,496c1-10.78,1.82-18.84,3-29.29,2.39-22.18,3.58-33.28,4.31-39.79C99,378.37,99.34,373,104,332.08c1.39-12.16,3.47-30.27,6.14-52.5Z"/><path class="cls-2" d="M44.27,519.71a14.5,14.5,0,0,1-.25-2.42c-.1-1.59-.3-3.94-.38-7-.27-6.05-.37-14.82-.15-25.65s.83-23.71,1.62-38,1.68-30,2-46.47S46.9,368,47,353.67a376.67,376.67,0,0,1,1.7-38c.56-5.39,1.25-10.25,2-14.5.39-2.11.76-4.09,1.09-5.9l1.13-4.92.48-2.09.51-1.81.82-2.84a14.82,14.82,0,0,1,.76-2.31,12.74,12.74,0,0,1-.45,2.4c-.18.77-.4,1.73-.66,2.86l-.43,1.83-.41,2.1-1,4.93q-.45,2.72-1,5.9c-.64,4.24-1.25,9.09-1.74,14.46-1,10.75-1.37,23.62-1.34,37.91s.49,30,.23,46.57-1.24,32.25-2.08,46.53-1.61,27.13-2,37.94-.44,19.56-.37,25.6c0,3,.08,5.37.08,7A13.38,13.38,0,0,1,44.27,519.71Z"/><path class="cls-2" d="M84.42,519.66c.1.16-1.83,1.68-5.45,3.32a41.2,41.2,0,0,1-15,3.44,40.63,40.63,0,0,1-8.51-.56,24.34,24.34,0,0,1-6.73-2,8.61,8.61,0,0,1-3.66-3.1c-.58-1-.63-1.65-.54-1.68s.37.52,1,1.31a9.42,9.42,0,0,0,3.63,2.42,27.19,27.19,0,0,0,6.48,1.54,47.09,47.09,0,0,0,8.22.41,49,49,0,0,0,14.66-2.88C82.16,520.59,84.29,519.43,84.42,519.66Z"/><path class="cls-2" d="M85.19,521.34a9.2,9.2,0,0,1-.15-1.89C85,518.2,85,516.37,85,514c0-4.73.27-11.57.92-20s1.69-18.44,2.85-29.55,2.49-23.31,3.86-36.12c2.78-25.62,5.39-48.81,7.36-65.59,1-8.39,1.81-15.17,2.42-19.86.3-2.34.55-4.15.73-5.39a8.72,8.72,0,0,1,.37-1.86,8.06,8.06,0,0,1,0,1.9c-.08,1.24-.23,3.07-.43,5.42-.42,4.71-1.07,11.51-1.9,19.92-1.68,16.8-4.11,40-6.89,65.63-1.41,12.81-2.76,25-4,36.12s-2.42,21.08-3.2,29.48S85.83,509.31,85.61,514c-.1,2.36-.19,4.19-.24,5.43A7.83,7.83,0,0,1,85.19,521.34Z"/><path class="cls-2" d="M58.08,548c-.46,0-.8-5-1.11-11.15s-.48-11.16,0-11.21,1.33,4.93,1.64,11.13S58.52,548,58.08,548Z"/><path class="cls-2" d="M66.92,543.18c-.45,0-.83-3.75-.85-8.35s.33-8.34.78-8.36.83,3.73.85,8.35S67.37,543.19,66.92,543.18Z"/><path class="cls-2" d="M98.7,548c-.13.22-1.81-.67-4.68-1.6a33.2,33.2,0,0,0-11.54-1.66,35.32,35.32,0,0,0-6.4.86,13.63,13.63,0,0,1-5.6.23A6.09,6.09,0,0,1,67.12,544c-.6-.71-.67-1.24-.59-1.28s.38.34,1,.82a6.42,6.42,0,0,0,3.12,1.21,14.44,14.44,0,0,0,5.09-.57,30.72,30.72,0,0,1,6.66-1,27.88,27.88,0,0,1,12,2.21C97.31,546.6,98.81,547.87,98.7,548Z"/><path class="cls-2" d="M97.9,551.56c0,.22-2.61.59-6.85,1s-10.12.86-16.62,1.25c-3.25.19-6.33.39-9.17.46-1.43,0-2.79,0-4.06-.06-.64-.05-1.25-.1-1.84-.18l-.87-.12-1.17-.2c-.13,0-.09-.15-.13-.23l-.07-.29c0-.2-.07-.37-.11-.55-.06-.36-.08-.55-.11-.82a10.77,10.77,0,0,1,.33-3.64c.35-1.18.74-1.75.83-1.71s-.06.68-.2,1.84a11.33,11.33,0,0,0-.07,2.09,10.15,10.15,0,0,0,.14,1.29c0,.2.1.5.13.64s.06.28.14.35l1.28.1c.57,0,1.16.06,1.78.08,1.23,0,2.55,0,3.94-.09l9.13-.59c6.5-.39,12.38-.66,16.65-.77S97.88,551.33,97.9,551.56Z"/></g><g id="foot_right" data-name="foot right"><path d="M117.72,528.85q.41,2.16.78,4.38c1.38,8.07,2.32,15.9,2.92,23.42A75.49,75.49,0,0,0,136.71,559a94.23,94.23,0,0,0,11.3-.26c7.89-.46,10.59-1.22,11.59-1.52,2.25-.67,7.48-1.8,7.45-3.29,0-.74-1.34-1.29-3.08-2a20.75,20.75,0,0,0-5.69-1.51,77.11,77.11,0,0,0-13.07.33,70.45,70.45,0,0,1-13.91,0c-.22-3.1-.38-6.34-.43-9.71a175.91,175.91,0,0,1,.6-17.93Z"/></g><g id="leg_right" data-name="leg right"><path class="cls-1" d="M124,286.62c.14,2.67.42,7.75.85,14.12.93,13.55,1.94,23.63,2.2,26.31,3.38,34.43,10.3,137.27,10.84,145.29.72,10.81,1.77,26.63,3,45.89a23.35,23.35,0,0,1-5.1,5.18c-4,2.92-7.79,3.73-11.61,4.49a45.49,45.49,0,0,1-33.7-5.82c-1.33-7.86-3.07-18.93-4.66-32.26-1.39-11.71-2.44-23.18-3.58-41.06-2.74-43-1.76-55.86-4.58-92.85-.89-11.64-1.8-21-2.38-26.68L63.9,318.63c-.58-2.59-3.22-15.73,4.86-26.53,8.59-11.47,23-12,29.26-12.16A49,49,0,0,1,124,286.62Z"/><path class="cls-2" d="M140.89,518.11a13.33,13.33,0,0,1-.31-2.29c-.15-1.5-.34-3.72-.57-6.58-.43-5.71-1-14-1.82-24.2-1.49-20.44-3.55-48.68-5.82-79.88s-4.47-59.42-6-79.86c-.74-10.22-1.34-18.49-1.76-24.21-.19-2.86-.33-5.08-.4-6.59a11.14,11.14,0,0,1,0-2.3,13.37,13.37,0,0,1,.35,2.27c.18,1.5.42,3.72.71,6.57.59,5.7,1.37,14,2.28,24.17,1.83,20.41,4.17,48.64,6.49,79.83s4.15,59.46,5.34,79.92c.6,10.24,1,18.52,1.31,24.24.13,2.87.22,5.09.26,6.6A12,12,0,0,1,140.89,518.11Z"/><path class="cls-2" d="M76.34,330.74c-.4.24-2.42-2.37-5.29-5.18s-5.5-4.79-5.26-5.19,3.39,1.05,6.4,4S76.71,330.52,76.34,330.74Z"/><path class="cls-2" d="M90.48,522a8.34,8.34,0,0,1-.48-1.9c-.26-1.25-.62-3.1-1.06-5.49-.22-1.19-.46-2.52-.73-4s-.47-3-.74-4.75c-.51-3.41-1.15-7.29-1.67-11.6l-.86-6.76c-.29-2.36-.53-4.81-.81-7.35-.57-5.08-1-10.52-1.54-16.24-.93-11.44-1.74-24.05-2.39-37.28-1.25-26.47-2-50.43-2.85-67.76-.21-4.34-.4-8.26-.57-11.7s-.33-6.41-.47-8.83-.22-4.3-.26-5.58a9.54,9.54,0,0,1,0-2,8.67,8.67,0,0,1,.31,1.93c.15,1.27.34,3.15.57,5.57s.49,5.37.74,8.81.56,7.36.81,11.69c1.14,17.33,2.08,41.3,3.33,67.75.65,13.22,1.41,25.81,2.26,37.24.47,5.72.87,11.15,1.39,16.22.25,2.54.46,5,.71,7.35l.76,6.76c.44,4.31,1,8.2,1.42,11.61L89,510.5c.22,1.46.41,2.79.59,4,.34,2.4.6,4.27.75,5.54A9.18,9.18,0,0,1,90.48,522Z"/><path class="cls-2" d="M140.91,520.05c.12.13-2.06,2.31-6.39,4.7A41.5,41.5,0,0,1,97.24,526c-4.48-2.09-6.8-4.12-6.7-4.26s2.68,1.43,7.15,3.2A44.86,44.86,0,0,0,134,523.72C138.34,521.66,140.75,519.83,140.91,520.05Z"/><path class="cls-2" d="M121.41,554.32c-.45,0-1.37-5.64-2.39-12.65s-1.75-12.72-1.3-12.81,1.89,5.52,2.91,12.58S121.86,554.28,121.41,554.32Z"/><path class="cls-2" d="M131.42,550.92c-.45,0-1.27-5.38-1.44-12.12s.35-12.2.79-12.18.66,5.45.84,12.14S131.87,550.89,131.42,550.92Z"/><path class="cls-2" d="M167,554c-.12,0-.27-.47-1-.91a19.06,19.06,0,0,0-3.58-1.27,35.78,35.78,0,0,0-12.56-1.32c-2.46.2-4.82.64-7,1A39.58,39.58,0,0,1,137,552c-3.43,0-5.44-.87-5.37-1s2.07.2,5.32-.11c1.62-.14,3.54-.47,5.68-.88a62.85,62.85,0,0,1,7.14-1.11,30.33,30.33,0,0,1,13,1.84c.79.3,1.49.62,2.09.91a6,6,0,0,1,1.51,1C167.2,553.27,167.14,554,167,554Z"/><path class="cls-2" d="M166.72,555.68c.06.19-2.4,1.1-6.52,2.05a89.67,89.67,0,0,1-32.87,1.18c-4.18-.65-6.69-1.38-6.65-1.58.08-.51,10.34,1.38,23.08.88S166.6,555.18,166.72,555.68Z"/></g><g id="torso"><path class="cls-1" d="M77.66,152.7c-1.58,1.11-3.08,3.49-6.09,8.26a91.22,91.22,0,0,0-8.14,16.81,105,105,0,0,0-5.84,19.17,110.84,110.84,0,0,0-1.84,17.16c-.32,7.48.22,9.35-.41,17.64A104.76,104.76,0,0,1,54,243.09c-.62,3.32-1.4,6.11-2.93,11.55-2.19,7.8-2.87,9.25-4,14.15-1,4.08-1.54,7.44-1.86,9.57a23.68,23.68,0,0,0,3.36,4.3,26.6,26.6,0,0,0,10.34,6.2,126.82,126.82,0,0,0,19.91,5.63,90.87,90.87,0,0,0,20.08,1.71,68,68,0,0,0,15-1.9,64.87,64.87,0,0,0,13.72-5.11c.23-2.54.49-6.27.46-10.78,0-3.54-.22-7.92-1.8-20-.59-4.56-1.42-10.51-2.53-17.5,1.65-5.9,3.07-10.64,4-13.8,2.62-8.6,3.5-10.78,4.21-15.36a49.53,49.53,0,0,0,.63-12.37,51.41,51.41,0,0,0-3.58-14.64,70.27,70.27,0,0,0-7.24-14.37C111.3,155.54,87.9,145.49,77.66,152.7Z"/><path class="cls-2" d="M45.14,278.29c-.06,0,0-.43,0-1.24s.21-2,.45-3.52a118.56,118.56,0,0,1,3-12.7c1.46-5.3,3.46-11.53,4.78-18.61s1.4-15,1.47-23.41c.06-4.19.17-8.31.55-12.28A89.73,89.73,0,0,1,57.2,195.2a106.06,106.06,0,0,1,6-18.43A122,122,0,0,1,69,165.07a22.77,22.77,0,0,1,2.55-4,31.91,31.91,0,0,1-2,4.34c-1.33,2.76-3.24,6.77-5.27,11.85a115.19,115.19,0,0,0-5.61,18.31A93.92,93.92,0,0,0,57,206.68c-.35,3.9-.45,8-.51,12.15-.07,8.36-.18,16.45-1.63,23.67a183.09,183.09,0,0,1-5.14,18.66c-1.63,5.23-2.81,9.5-3.48,12.49A40.38,40.38,0,0,1,45.14,278.29Z"/><path class="cls-2" d="M119.84,253.91a12.33,12.33,0,0,1,.61-3.22c.49-2,1.26-5,2.24-8.6s2.18-7.93,3.53-12.71l2.14-7.48c.75-2.6,1.55-5.27,2.22-8a43.86,43.86,0,0,0,1-15.74,59,59,0,0,0-1.25-6.83c-.56-2.1-1.14-4.06-1.78-5.8a79.11,79.11,0,0,0-3.46-8.12,15.8,15.8,0,0,1-1.34-3,10.91,10.91,0,0,1,1.89,2.68,54.68,54.68,0,0,1,4,8,57.11,57.11,0,0,1,2,5.87,55.59,55.59,0,0,1,1.43,7,43.51,43.51,0,0,1-1,16.3c-.68,2.82-1.5,5.5-2.26,8.09s-1.52,5.08-2.23,7.46c-1.44,4.75-2.75,9-3.87,12.6s-2.06,6.47-2.75,8.46A13.27,13.27,0,0,1,119.84,253.91Z"/><path class="cls-2" d="M127.51,289.16c-.25,0,0-3-.11-7.69-.05-2.37-.17-5.18-.41-8.3s-.62-6.55-1.06-10.14c-.88-7.2-1.74-13.73-2.05-18.51a23,23,0,0,1,.25-5.72c.26-1.34.59-2,.69-2s-.43,2.92.21,7.61,1.64,11.18,2.52,18.41c.44,3.62.77,7.08.93,10.24s.17,6,.07,8.41C128.33,286.28,127.71,289.19,127.51,289.16Z"/><path class="cls-2" d="M127.75,289.14a13.3,13.3,0,0,1-3,1.76c-1,.53-2.24,1-3.68,1.65-.72.33-1.53.57-2.37.87s-1.73.63-2.69.88a67.7,67.7,0,0,1-13.71,2.46,85.85,85.85,0,0,1-17-.44,106.05,106.05,0,0,1-16.67-3.44,76.61,76.61,0,0,1-13-4.82,26.91,26.91,0,0,1-7.65-5.5,8.73,8.73,0,0,1-2-2.81c.11-.08.85.89,2.46,2.35a29.63,29.63,0,0,0,7.7,4.92,85.31,85.31,0,0,0,13,4.42,116.09,116.09,0,0,0,16.46,3.26,90.55,90.55,0,0,0,16.74.56,74.06,74.06,0,0,0,13.51-2.07C123.32,291.24,127.61,288.84,127.75,289.14Z"/></g><g id="arm_left" data-name="arm left"><path class="cls-1" d="M95.36,187.87c2.78-.89,6.43-2.14,10.65-3.8a179,179,0,0,0,22.69-10.79,179.2,179.2,0,0,0,16.86-10.78l2.8.68A99.62,99.62,0,0,1,145,130.33l6.34-11a25.18,25.18,0,0,0-.59,7.11c.18,2.84.83,5.39,4,13,1.15,2.75,2.66,6.25,4.54,10.29q2.24-4.38,4.48-8.77a46.64,46.64,0,0,1,.58,7.31,55.17,55.17,0,0,1-.83,8.9c-.57,3.84-.85,5.76-1.61,7.62a19.37,19.37,0,0,1-4.59,6.66l1,5.17a67,67,0,0,1-3,6.46,59.24,59.24,0,0,1-9.15,13c-4.32,4.58-8.27,7.08-12.7,9.88a95.14,95.14,0,0,1-17.76,8.77Z"/><path class="cls-2" d="M145.53,162.52c.12.16-2.29,2.22-6.5,5.15a147.29,147.29,0,0,1-35.64,18c-4.85,1.65-7.94,2.38-8,2.18s2.88-1.35,7.6-3.26,11.17-4.68,18.1-8.17,13-7.05,17.31-9.72S145.39,162.32,145.53,162.52Z"/><path class="cls-2" d="M158.3,176.55c-.22.08-.74-.9-1.55-2.45a37,37,0,0,0-3.52-5.69,21.36,21.36,0,0,0-4.79-4.53c-1.41-1-2.4-1.42-2.33-1.65s1.22-.13,2.9.65a15.29,15.29,0,0,1,5.5,4.53,20.48,20.48,0,0,1,3.3,6.25C158.37,175.37,158.5,176.48,158.3,176.55Z"/><path class="cls-2" d="M116.85,214.19c-.09-.22,2.82-1.63,7.44-4.06,2.3-1.22,5-2.69,8-4.44a64.84,64.84,0,0,0,9.11-6.34,56.09,56.09,0,0,0,7.71-7.94,59.75,59.75,0,0,0,5.06-7.52c2.55-4.51,3.63-7.57,3.88-7.48s-.52,3.27-2.86,8a50.21,50.21,0,0,1-4.9,7.9,51,51,0,0,1-7.84,8.26A58.86,58.86,0,0,1,133,207c-3,1.7-5.85,3.07-8.24,4.17C120,213.35,116.93,214.38,116.85,214.19Z"/><path class="cls-2" d="M160,152.19c-.14,0-.32-1.22-.05-3.32a19.22,19.22,0,0,1,.88-3.7,20.25,20.25,0,0,1,2.73-5.3,3.74,3.74,0,0,1,1.83,2.79,4.64,4.64,0,0,1,.07.82c0,.23,0,.47,0,.7,0,.48-.06.93-.1,1.37l-.5,5.62c-.31,3.11-.54,6-.92,8.76a21.7,21.7,0,0,1-2.37,6.94,39.61,39.61,0,0,1-2.55,4.2,1.66,1.66,0,0,1-1.29.68c-.37-.06-.44-.31-.42-.34s.13.06.39,0a1.63,1.63,0,0,0,.82-.74c.45-.95,1.2-2.5,2-4.32a22.92,22.92,0,0,0,1.92-6.65c.28-2.62.48-5.62.79-8.7.19-1.94.37-3.82.55-5.62,0-.45.1-.89.12-1.29,0-.21,0-.41,0-.6s0-.46,0-.47a1.36,1.36,0,0,0-.08-.38,1,1,0,0,0-.11-.17l-.06-.08s0,0-.06.06a16.17,16.17,0,0,0-1.67,3.12,23.43,23.43,0,0,0-1.15,3.44C160.32,151,160.2,152.19,160,152.19Z"/><path class="cls-2" d="M145.71,128.21c.49.08-.77,7.64.08,16.95s3.32,16.54,2.85,16.7c-.19.07-1.09-1.65-2.07-4.61a54.83,54.83,0,0,1-2.1-24.14C144.92,130,145.5,128.17,145.71,128.21Z"/><path class="cls-2" d="M151.36,119.33c.5,0,.64,7.09,2.86,15.45s5.5,14.64,5.06,14.88c-.18.1-1.25-1.34-2.6-3.9A51.85,51.85,0,0,1,151,124C150.92,121.11,151.15,119.33,151.36,119.33Z"/><path class="cls-2" d="M153,144.2c-.4.14-2.38-4.93-2.89-11.56s.62-11.95,1-11.87.06,5.31.59,11.74S153.48,144.06,153,144.2Z"/><path class="cls-2" d="M151,143.64c-.37.22-2.65-3.39-3.65-8.49s-.3-9.3.12-9.24.5,4.09,1.48,8.92S151.43,143.44,151,143.64Z"/><path class="cls-2" d="M149.68,149c-.41.16-2.61-4.51-4.07-10.67-.37-1.54-.66-3-.87-4.37a17.22,17.22,0,0,1-.3-3.71,6.54,6.54,0,0,1,.57-2.5c.28-.55.53-.79.63-.74s-.25,1.28,0,3.23a28,28,0,0,0,.62,3.44c.3,1.31.63,2.76,1,4.27C148.62,144,150.11,148.87,149.68,149Z"/></g><g id="arm_right" data-name="arm right"><path class="cls-1" d="M105.58,162.11a73.7,73.7,0,0,1,7,5.56,83.77,83.77,0,0,1,11.62,13.18c8.73,11.54,13.1,17.31,15.57,20.83,4.26,6.06,6.55,9.63,11.35,13.95a57.21,57.21,0,0,0,8.37,6.24,24.49,24.49,0,0,0,6.61-.51c6.3-1.35,10.4-4.88,14.34-8.37,1.28-1.13,2.55-2.35,11.84-13.1l5.74-6.67,4.73,2.95a46,46,0,0,1,6.18-14.24c.61-.91,2.22-3.23,3.08-2.91,1.24.46-.71,5.78,1,6.91.71.45,2.46.5,10.74-6.66,4.12-3.57,7.28-6.7,9.32-8.79.42.81,1,2.06,1.75,3.61,1.72,3.82,2.57,5.78,2.41,7.83a8.84,8.84,0,0,1-2.06,4.85,24.13,24.13,0,0,1-2.46,6.36,25.08,25.08,0,0,1-5.7,6.73c-4.42,3.9-9.66,8.43-15.68,13.43a5.7,5.7,0,0,1,1.82,4.79,5,5,0,0,1-1.41,2.68C206,226,201,230.33,197.21,233.52c-21.55,18.16-17,11.25-24.74,18.78-2,1.94-5.05,5-9.58,5.45-3.44.31-6.15-1.08-8.84-2.56-10-5.42-14.94-8.14-22.15-14A119.78,119.78,0,0,1,118.77,229a116.45,116.45,0,0,1-12.15-15.58A17.2,17.2,0,0,0,99,208.64c-3.25-.94-4.61-.14-6.36-.95-4.76-2.2-4.84-12.82-4-18.7C90.6,175.24,100.59,166.06,105.58,162.11Z"/><path class="cls-2" d="M166.56,225.77a12.36,12.36,0,0,1-3.32-1.18,44.47,44.47,0,0,1-8.26-5,69.25,69.25,0,0,1-10.43-9.74,145.81,145.81,0,0,1-10.63-13.81c-3.5-5.07-6.75-9.94-9.89-14.22A113.94,113.94,0,0,0,115.14,171c-5.47-5.86-9.7-8.58-9.52-8.82a12.73,12.73,0,0,1,3,1.8,55.68,55.68,0,0,1,7.33,6.22A100,100,0,0,1,125.24,181c3.23,4.27,6.53,9.14,10,14.19a166.28,166.28,0,0,0,10.42,13.75,75.89,75.89,0,0,0,10,9.82C161.93,223.75,166.7,225.47,166.56,225.77Z"/><path class="cls-2" d="M198,193.24c.17.14-1.5,2.39-4.33,5.91-1.41,1.76-3.12,3.83-5,6.12s-4.05,4.81-6.54,7.26a40.69,40.69,0,0,1-7.72,6.13,26.78,26.78,0,0,1-7.48,3.09,18.16,18.16,0,0,1-5.42.51c-1.29-.08-2-.3-2-.39,0-.29,2.85.06,7.08-1.23a28.91,28.91,0,0,0,7-3.26,44.23,44.23,0,0,0,7.37-6c2.42-2.39,4.56-4.85,6.54-7.08s3.77-4.23,5.3-5.89C195.86,195.07,197.84,193.09,198,193.24Z"/><path class="cls-2" d="M211.8,220.74c-.26-.08.41-1.84,0-4.7s-1.92-6.64-3.66-10.81a26.29,26.29,0,0,0-3-5.43,22,22,0,0,0-3.46-3.7c-2.22-1.88-3.9-2.69-3.79-2.92s2,.26,4.49,2a19,19,0,0,1,3.95,3.69,24.09,24.09,0,0,1,3.31,5.7c.89,2.14,1.67,4.14,2.29,6.07a21,21,0,0,1,1,5.29,10.2,10.2,0,0,1-.49,3.64C212.19,220.4,211.88,220.78,211.8,220.74Z"/><path class="cls-2" d="M106.61,213.45c-.24.38-3-1-6.19-3.09a12.77,12.77,0,0,0-4.09-1.9c-1.09-.23-1.84-.05-1.93-.28s.59-.81,2-.87a9.08,9.08,0,0,1,4.88,1.66C104.51,211.07,106.85,213.07,106.61,213.45Z"/><path class="cls-2" d="M211.33,221.19s-.27.4-.9,1.05-1.58,1.58-2.83,2.75c-2.48,2.36-6.15,5.69-10.83,9.65s-10.38,8.51-16.9,13.33c-3.27,2.4-6.74,4.86-10.39,7.34-.91.62-1.81,1.26-2.83,1.85a10.47,10.47,0,0,1-3.39,1.35,8.88,8.88,0,0,1-3.74-.19,19.92,19.92,0,0,1-3.4-1.24,125.61,125.61,0,0,1-12.1-6.46,122.53,122.53,0,0,1-10.52-7.23,117.1,117.1,0,0,1-15.8-14.69,105.28,105.28,0,0,1-8.94-11.46c-1-1.41-1.64-2.57-2.11-3.34a4.36,4.36,0,0,1-.63-1.23,40.39,40.39,0,0,1,3.25,4.2,132,132,0,0,0,9.28,11,124.59,124.59,0,0,0,15.86,14.27c3.23,2.4,6.69,4.82,10.44,7.07a129.27,129.27,0,0,0,11.94,6.33c2.07,1,4.2,1.69,6.19,1.32s3.78-1.7,5.61-2.92c3.64-2.45,7.12-4.88,10.39-7.24,6.54-4.72,12.3-9.17,17.05-13s8.54-7,11.15-9.23A37,37,0,0,1,211.33,221.19Z"/><path class="cls-2" d="M213.24,187.06c-.22,0-.35-1.62-.36-4.22a9.29,9.29,0,0,0-.12-2,2.4,2.4,0,0,0-.33-.83.5.5,0,0,0-.45-.26c-.31-.05-.89.52-1.43,1.28a25,25,0,0,0-1.54,2.31,90.51,90.51,0,0,0-4.22,9.07c-1,2.37-1.81,3.8-2,3.73s.16-1.66.94-4.14a47.12,47.12,0,0,1,3.9-9.49,21,21,0,0,1,1.68-2.47,9.33,9.33,0,0,1,1-1.12,2.43,2.43,0,0,1,1.73-.67,2,2,0,0,1,1,.31,2.37,2.37,0,0,1,.63.68,3.61,3.61,0,0,1,.45,1.37,6.56,6.56,0,0,1,0,1.24l-.1,1C213.75,185.48,213.47,187.07,213.24,187.06Z"/><path class="cls-2" d="M233.31,169.92c.33.27-3.23,5.06-8.81,9.82a59.74,59.74,0,0,1-7.54,5.54,5.94,5.94,0,0,1-2.82,1c-.74,0-1.09-.25-1.07-.34s.4-.11,1-.29a7.39,7.39,0,0,0,2.27-1.32c1.84-1.45,4.4-3.48,7.12-5.82C228.91,173.84,233,169.61,233.31,169.92Z"/><path class="cls-2" d="M224.41,185.64c-.33-.35,2.32-3.24,4.68-7.39s3.56-7.87,4-7.76-.08,4.2-2.61,8.58S224.67,186,224.41,185.64Z"/><path class="cls-2" d="M225.44,187.33c-.29-.37,2.4-2.83,4.95-6.44s4-6.94,4.47-6.79-.4,3.9-3.14,7.73S225.68,187.69,225.44,187.33Z"/><path class="cls-2" d="M228.08,189c-.14-.2.47-.81,1.32-1.83a26.71,26.71,0,0,0,2.92-4.28c1-1.78,1.78-3.49,2.42-4.71s1.12-1.95,1.34-1.87.1,1-.27,2.3a23.78,23.78,0,0,1-2.07,5.08A14.19,14.19,0,0,1,230.2,188C229.05,188.93,228.19,189.22,228.08,189Z"/><path class="cls-2" d="M228.15,194.05c-.28-.39,2.59-2.74,5.17-6.39s3.92-7.09,4.38-6.95c.2.06.14,1-.32,2.51a19.35,19.35,0,0,1-2.73,5.39,19.83,19.83,0,0,1-4.22,4.33C229.18,193.85,228.28,194.22,228.15,194.05Z"/><path class="cls-2" d="M211.39,213.28c-.3-.35,5.72-5.86,13.31-12.36a39,39,0,0,0,8.3-9.38c1.59-2.78,1.95-4.8,2.21-4.75s.23,2.17-1.19,5.28-4.43,6.76-8.24,10.07C218.13,208.69,211.68,213.61,211.39,213.28Z"/></g><g id="hair"><path d="M128.52,79.92a29.14,29.14,0,0,1-1.67,11.49,23,23,0,0,1-4.54,8c-2,2.27-5,5.57-9,5.87s-5.15-2.71-9.53-2.2a9.62,9.62,0,0,0-6.31,3.38,9.13,9.13,0,0,0-1.35,9A9.26,9.26,0,0,0,100.2,120a80,80,0,0,1,5,16.38c1.07,5.65,2.68,14.63.42,25.72A54.64,54.64,0,0,1,101,175.65a51.39,51.39,0,0,1-10.08,13.7c-2.94,2.84-6.6,6.38-12.6,8.75a25.6,25.6,0,0,1-9.68,2.14c-9,0-15.27-5.33-16.91-6.78a27.11,27.11,0,0,1-8.53-14.32c-1.44-6.61.18-11.88,1.63-16.61,1.31-4.28,3.14-7.55,6.8-14.1,3.84-6.87,5.06-8,7.72-13a86.13,86.13,0,0,0,5.86-14,93.83,93.83,0,0,1,1.6-19.84C68.72,91.32,69.9,85.1,75,79.29c7.32-8.35,17.54-9.94,21.37-10.53a35.09,35.09,0,0,1,21.16,2.6A33.4,33.4,0,0,1,128.52,79.92Z"/></g><g id="head"><path class="cls-1" d="M128.52,79.92A26.38,26.38,0,0,1,132,86.19,32.64,32.64,0,0,1,134,94.28c.4,3.63-.06,4.74.86,7.62a9.05,9.05,0,0,0,2.37,4.16,8.11,8.11,0,0,0,4.15,2l-3.69,4.35-.63,4.33a6.59,6.59,0,0,0-6.86-1.49c-2.16.84-4,3-3.94,5.33.07,1.76,1.23,2.94,2.39,4.11a15.26,15.26,0,0,0,7.37,4q-1.07,3.32-2.3,6.78c-.95,2.63-1.91,5.18-2.89,7.63a27.14,27.14,0,0,1-16-2.06L107.31,149c-.39-3.2-.93-6.59-1.66-10.15A124.77,124.77,0,0,0,100.2,120a9.18,9.18,0,0,1-4.13-4.54,9.51,9.51,0,0,1,.41-7.7c1.13-2.11,3.81-5,7.25-4.7a6.67,6.67,0,0,1,3.91,2,13.2,13.2,0,0,0,5.62.24c4.63-.82,7.41-4,9-5.87C128.53,92.31,128.61,82.91,128.52,79.92Z"/><path class="cls-2" d="M141.31,108c0,.09-.49.24-1.39.1a6.31,6.31,0,0,1-3.35-1.86,10.32,10.32,0,0,1-2.69-5,37.54,37.54,0,0,1-.72-6.67,23.51,23.51,0,0,0-3.22-11,7.76,7.76,0,0,0-2.36-2.44c-.69-.42-1.15-.56-1.13-.68s.53-.18,1.4.11a7,7,0,0,1,3,2.33,17.87,17.87,0,0,1,2.6,4.92,23,23,0,0,1,1.3,6.66,49.7,49.7,0,0,0,.56,6.45,10.13,10.13,0,0,0,2.08,4.54,6.85,6.85,0,0,0,2.67,2C140.84,107.8,141.32,107.88,141.31,108Z"/><path class="cls-2" d="M137.23,112.73c-.13-.44.86-1.15,1.55-2.36s.88-2.41,1.33-2.5c.21,0,.49.29.59.93a3.7,3.7,0,0,1-.52,2.39,3.75,3.75,0,0,1-1.85,1.62C137.72,113,137.3,112.94,137.23,112.73Z"/><path class="cls-2" d="M137.25,117.06c-.44-.11-.56-1.17-.46-2.4s.4-2.27.85-2.3.89,1.06.78,2.43S137.68,117.17,137.25,117.06Z"/><path class="cls-2" d="M136,128.67c0,.19-1.69.25-4.1-.84a13.31,13.31,0,0,1-3.78-2.63,13.09,13.09,0,0,1-1.75-2.15,5.69,5.69,0,0,1-1-3,5.18,5.18,0,0,1,1-3.07,6.32,6.32,0,0,1,2.22-1.92,6.84,6.84,0,0,1,4.76-.46,8.52,8.52,0,0,1,2.84,1.29c.59.44.84.76.78.84-.13.24-1.49-.66-3.83-1a6.18,6.18,0,0,0-3.83.65A4.51,4.51,0,0,0,127,120c0,1.52,1.15,3,2.17,4.16a14.65,14.65,0,0,0,3.24,2.65C134.48,128.06,136,128.42,136,128.67Z"/><path class="cls-2" d="M129.14,143.86c-.07-.23.73-.66,1.34-1.94a24.83,24.83,0,0,0,1-2.41c.34-.95.7-2,1.07-3.08,1.48-4.38,2.35-8.06,2.81-8s.27,4-1.26,8.51a32.25,32.25,0,0,1-1.23,3.12,13,13,0,0,1-1.37,2.47,3.94,3.94,0,0,1-1.54,1.28C129.45,144,129.17,144,129.14,143.86Z"/><path class="cls-2" d="M130.77,143.09c.07.07-.08.44-.67.8a5,5,0,0,1-2.72.59,36.43,36.43,0,0,1-8.61-1.31,19.53,19.53,0,0,1-7.76-4.12c-1.68-1.55-2.3-2.84-2.14-3s1.12.84,2.87,2.05a25.12,25.12,0,0,0,7.49,3.46,80.77,80.77,0,0,0,8.23,1.73,6.34,6.34,0,0,0,2.39,0C130.39,143.18,130.69,143,130.77,143.09Z"/><path class="cls-2" d="M106.32,117.68c.08,0-.06.57-.75,1.24a5.4,5.4,0,0,1-3.71,1.42,7.08,7.08,0,0,1-5.31-2.65,8.91,8.91,0,0,1-1.91-7,9.19,9.19,0,0,1,1.29-3.6,8.4,8.4,0,0,1,2.52-2.55,9.12,9.12,0,0,1,5.69-1.43,7.57,7.57,0,0,1,3.71,1.29c.78.56,1,1.11.88,1.16s-.43-.29-1.2-.61a8.57,8.57,0,0,0-8.24.83,7.47,7.47,0,0,0-2,2.14,8.11,8.11,0,0,0-1,3,7.66,7.66,0,0,0,1.46,5.8,6.12,6.12,0,0,0,4.18,2.45,5.48,5.48,0,0,0,3.28-.77C105.89,118,106.22,117.61,106.32,117.68Z"/><path class="cls-2" d="M126.92,80.7c0-.08.65.11,1.14,1a7.45,7.45,0,0,1,.49,4,26,26,0,0,1-4.34,12.36,24.58,24.58,0,0,1-4.91,5.41,11.85,11.85,0,0,1-5.49,2.57,7.72,7.72,0,0,1-4.07-.4c-.9-.37-1.28-.78-1.22-.86s.53.09,1.41.25a8.56,8.56,0,0,0,3.66-.12,11.66,11.66,0,0,0,4.76-2.6,26.35,26.35,0,0,0,4.5-5.15,29.14,29.14,0,0,0,4.55-11.6,8.28,8.28,0,0,0,.07-3.67C127.24,81.15,126.84,80.81,126.92,80.7Z"/><path class="cls-2" d="M130.09,104.66c-.42-.18-.18-1.69,0-3.5s.34-3.33.79-3.41,1.08,1.54.83,3.6S130.49,104.84,130.09,104.66Z"/><path class="cls-2" d="M133,94.57c-.21.09-.5-.1-.89-.25a2.19,2.19,0,0,0-2.59.44c-.32.27-.53.54-.76.52s-.44-.41-.25-1.07a2.47,2.47,0,0,1,2-1.7,2.49,2.49,0,0,1,2.42,1C133.28,94,133.2,94.49,133,94.57Z"/><path class="cls-2" d="M107.31,149c-.4-.16.34-2.73,2.54-5.07s4.69-3.26,4.88-2.87-1.72,1.85-3.69,4S107.73,149.16,107.31,149Z"/><path class="cls-2" d="M101.53,173.91c-.24-.12,1.25-2.88,2.59-7.67A57,57,0,0,0,105.9,147a95.87,95.87,0,0,0-3.6-19.12c-1.36-4.82-2.32-7.79-2.09-7.87s1.54,2.75,3.19,7.53a77,77,0,0,1,4.13,19.34,50.22,50.22,0,0,1-2.31,19.67C103.55,171.42,101.68,174,101.53,173.91Z"/><path class="cls-2" d="M60.46,140.25c-.12-.06.63-1.62,1.55-4.59a65.33,65.33,0,0,0,2.45-12.9c.59-5.53.65-12.19,1.37-19.6a65,65,0,0,1,2.11-11.53,38.39,38.39,0,0,1,5.38-11.47,26.15,26.15,0,0,1,9.54-8.4,37.69,37.69,0,0,1,11.29-3.43,55,55,0,0,1,10.59-.75,32.22,32.22,0,0,1,9.14,1.7,31.72,31.72,0,0,1,11.44,6.86,26,26,0,0,1,2.46,2.67,4,4,0,0,1,.7,1.06c-.11.1-1.21-1.26-3.58-3.25a33.21,33.21,0,0,0-11.38-6.24,31.85,31.85,0,0,0-8.82-1.45,55.38,55.38,0,0,0-10.31.88,37,37,0,0,0-10.8,3.37,24.74,24.74,0,0,0-8.94,7.92,37.6,37.6,0,0,0-5.18,11,65.29,65.29,0,0,0-2.14,11.24c-.8,7.3-1,14-1.73,19.57a56.84,56.84,0,0,1-3,13,31.44,31.44,0,0,1-1.47,3.31C60.75,139.91,60.51,140.28,60.46,140.25Z"/><path class="cls-2" d="M103,170.84a4.52,4.52,0,0,1-.37,1.42c-.15.46-.35,1-.62,1.66s-.57,1.41-1,2.23A48.39,48.39,0,0,1,84,195.67a46.42,46.42,0,0,1-5.2,3,23.89,23.89,0,0,1-6.07,2.18,15.33,15.33,0,0,1-6.86-.31,61.68,61.68,0,0,1-6.62-2.18,37.52,37.52,0,0,1-6.52-3.21,22.63,22.63,0,0,1-5.68-5,24.8,24.8,0,0,1-5-13.85,32.7,32.7,0,0,1,.3-7,39.58,39.58,0,0,1,1.61-6.52A65.25,65.25,0,0,1,49,151.55c1.88-3.35,3.79-6.36,5.5-9.12a120.13,120.13,0,0,0,7.53-13.33c1.53-3.27,2.14-5.19,2.27-5.15a5.13,5.13,0,0,1-.3,1.44,40,40,0,0,1-1.38,4A101.11,101.11,0,0,1,55.53,143c-1.65,2.8-3.5,5.83-5.3,9.17a66.06,66.06,0,0,0-4.87,11,39.93,39.93,0,0,0-1.49,6.28,31.57,31.57,0,0,0-.25,6.68,23.41,23.41,0,0,0,4.68,12.94c3,3.75,7.26,6.07,11.51,7.74s8.61,3.33,12.62,2.51a23,23,0,0,0,5.72-2,47.65,47.65,0,0,0,5.1-2.82A49.19,49.19,0,0,0,91.43,188a51,51,0,0,0,9.08-12.16C102.21,172.68,102.91,170.78,103,170.84Z"/></g></g></svg>