<svg xmlns="http://www.w3.org/2000/svg" viewBox="0 0 522.79 574.68">
  <title>settings</title>
  <g id="cogs">
    <g>
      <path d="M126.38,305.76a33.7,33.7,0,0,1,.63,9.39c-.05.62-.11,1.22-.19,1.81a29.44,29.44,0,0,0,.15-3,28.72,28.72,0,0,0-11.89-23.29l1,.39,5-12.87L105.22,272l-5,12.87,1.25.49a29.31,29.31,0,0,0-3.27-.19,28.63,28.63,0,0,0-17.93,6.28l2.56-3-10.46-9L61.24,292.4l10.46,9,1.63-1.88A28.67,28.67,0,0,0,70.89,323L59.2,329.76l8.51,14.75L81,337.06h0a28.6,28.6,0,0,0,17.18,5.7,29.66,29.66,0,0,0,4.14-.3c-1,.24-2.06.45-3,.61l4.31,13.12,16.18-5.31q-2.2-6.58-4.42-13.19c-1.22.63-2.56,1.26-4,1.86a28.87,28.87,0,0,0,13.26-14.23l0,0,13.15,1.27,3.15-16.74ZM75.82,332.05l0-.06.12.15Zm.27.33A28.85,28.85,0,0,0,81,337,26.71,26.71,0,0,1,76.09,332.38Zm23.71-5.76a12.36,12.36,0,1,1,10.58-13.91A12.36,12.36,0,0,1,99.8,326.62Z" fill="#fff"/>
      <g>
        <path d="M126.38,305.76a33.7,33.7,0,0,1,.63,9.39c-.05.62-.11,1.22-.19,1.81a29.44,29.44,0,0,0,.15-3,28.72,28.72,0,0,0-11.89-23.29l1,.39,5-12.87L105.22,272l-5,12.87,1.25.49a29.31,29.31,0,0,0-3.27-.19,28.63,28.63,0,0,0-17.93,6.28l2.56-3-10.46-9L61.24,292.4l10.46,9,1.63-1.88A28.67,28.67,0,0,0,70.89,323L59.2,329.76l8.51,14.75L81,337.06h0a28.6,28.6,0,0,0,17.18,5.7,29.66,29.66,0,0,0,4.14-.3c-1,.24-2.06.45-3,.61l4.31,13.12,16.18-5.31q-2.2-6.58-4.42-13.19c-1.22.63-2.56,1.26-4,1.86a28.87,28.87,0,0,0,13.26-14.23l0,0,13.15,1.27,3.15-16.74ZM75.82,332.05l0-.06.12.15Zm.27.33A28.85,28.85,0,0,0,81,337,26.71,26.71,0,0,1,76.09,332.38Zm23.71-5.76a12.36,12.36,0,1,1,10.58-13.91A12.36,12.36,0,0,1,99.8,326.62Z" fill="none"/>
        <path d="M99.84,326.62c0-.15,1.07-.31,2.82-1.1a12.28,12.28,0,0,0,5.73-5.37,11.67,11.67,0,0,0,1.41-5.21,11.82,11.82,0,0,0-1.4-6,10.76,10.76,0,0,0-2-2.67,11,11,0,0,0-2.77-2.08,11.56,11.56,0,0,0-13.53,1.84A10.85,10.85,0,0,0,88,308.8a11.18,11.18,0,0,0-1.2,3.11,11.81,11.81,0,0,0,.25,6.13,11.63,11.63,0,0,0,2.75,4.64,12.35,12.35,0,0,0,7,3.65c1.89.29,3,.15,3,.3a6.25,6.25,0,0,1-3.07.33A12.34,12.34,0,0,1,89,323.5a12.81,12.81,0,0,1-3.64-11.91,12.09,12.09,0,0,1,1.29-3.54A12.36,12.36,0,0,1,89,304.92a13,13,0,0,1,15.4-2.1,12.55,12.55,0,0,1,3.12,2.39,12.42,12.42,0,0,1,2.2,3.06,13,13,0,0,1,1.42,6.74,12.67,12.67,0,0,1-1.75,5.71,12.28,12.28,0,0,1-6.51,5.39A6.28,6.28,0,0,1,99.84,326.62Z" stroke="#000" stroke-miterlimit="10" stroke-width="0.5"/>
        <path d="M76.1,332.39c.36-.29,2.43,1.85,5.34,4l-1,1.31h0l0,0-.07-.05-.14-.11-.27-.22-.53-.44c-.34-.3-.66-.59-1-.88A16.29,16.29,0,0,1,77,334.26c-.75-1-1.06-1.73-.89-1.87s.8.31,1.73,1.07l1.62,1.33,1,.77.51.4.26.2.14.1.06.05,0,0,0,0h0l-1,1.31C77.35,335.39,75.74,332.64,76.1,332.39Z" stroke="#000" stroke-miterlimit="10" stroke-width="0.5"/>
        <path d="M75.82,332.05a1.71,1.71,0,0,1,.5-.28,2.92,2.92,0,0,1-.43.37l0-.06-.07-.09h0c.36-.22.27-.12,0,.06s-.41.3-.53.39h0c-.07.07-.11.12-.1.12s.1,0,.2-.13S75.65,332.19,75.82,332.05Z" stroke="#000" stroke-miterlimit="10" stroke-width="0.5"/>
        <path d="M126.57,305.81a5.4,5.4,0,0,1,1,.19l2.79.7,11,2.94c-.87,4.82-1.93,10.68-3.15,17.47L125.53,326l-.39,0c-.06,0-.17,0-.17,0l-.08.18c0,.09-.23.54-.4.86s-.34.7-.53,1c-.37.68-.77,1.36-1.2,2a29.21,29.21,0,0,1-3,3.84,29.52,29.52,0,0,1-8.1,6.24l-.53-1.12,4.62-2.17,1.68,5q1.58,4.65,3.22,9.54l-17.51,5.79c-.93-2.83-1.88-5.69-2.83-8.59-.45-1.34-.89-2.69-1.34-4l-.56-1.71-.07-.21c0-.05,0-.06,0-.07l.11,0,.45-.09.9-.19,2.29-.47.28,1.49a29.69,29.69,0,0,1-11.17-.5,29,29,0,0,1-5.42-1.87,28.41,28.41,0,0,1-2.57-1.33c-.42-.26-.84-.5-1.24-.77l-.61-.4-.39-.28L81,338h0l-.26.15L67.41,345.6l-9.32-16.14,6.65-3.84,3-1.73,1.51-.87.55-.32c.06,0,.15-.06.09-.14s-.19-.63-.31-1.11-.25-1-.36-1.52c-.2-1-.36-2.05-.46-3.08a29.77,29.77,0,0,1,0-6.19,29.44,29.44,0,0,1,3.82-11.53l1.31.94-2.16,2.49L60.12,292.49l12.17-14.08,11.6,10L80.83,292l-1-1.07a29.57,29.57,0,0,1,10.49-5.34,29.08,29.08,0,0,1,5.65-1,36.15,36.15,0,0,1,5.61.12l-.33,1.34-1.9-.74q2.85-7.29,5.53-14.11l17,6.68c-1,2.49-1.94,4.92-2.86,7.28l-1.27,3.22L117.1,290l-.31.78-.1.25c0,.1-.08.06-.15,0l-.41-.15.32.25a10.2,10.2,0,0,1,.83.7,26.71,26.71,0,0,1,2.29,2.21,28.91,28.91,0,0,1,3.6,4.8,30.7,30.7,0,0,1,2.37,5,31.35,31.35,0,0,1,1.3,4.83,29.7,29.7,0,0,1,.43,4.44,17.1,17.1,0,0,1,0,2c0,.65-.08,1.28-.12,1.89l-.55-.07a35.89,35.89,0,0,0,.18-8.14c-.09-.93-.19-1.63-.25-2.11a2.6,2.6,0,0,1-.06-.72,2.79,2.79,0,0,1,.21.7c.1.47.25,1.17.38,2.1a32.64,32.64,0,0,1,.09,8.24l-.56-.06.08-1.86a18.8,18.8,0,0,0,0-2,31.46,31.46,0,0,0-.5-4.33,31.12,31.12,0,0,0-1.34-4.68,29.62,29.62,0,0,0-2.38-4.79,27.85,27.85,0,0,0-3.54-4.6,26.62,26.62,0,0,0-2.24-2.12c-.29-.27-1-.86-1.66-1.32l-.49-.37-.24-.19-.12-.09-.06,0,0,0,1,.17h0l0,.33v.08s0,0,0,0l.13-.08.27-.15c.24-.1.2-.19.25-.29l.09-.24.3-.78.6-1.58,1.24-3.23,2.38-6.22-14.75-5.66-4.48,11.64.61.23,5.18,2-5.5-.64a28,28,0,0,0-20.66,6l-1-1.07,2.06-2.39-9.31-8L62.37,292.32l9.24,8,1.1-1.28,1.31.93a28,28,0,0,0-3.2,19.66c.1.48.21,1,.34,1.44s.21.8.53,1.82l.12.37s.06.13,0,.17l-.16.1-.67.38-1,.55-1.5.87-3,1.73-5.25,3L68,343.42l11.71-6,.2-.43c.08-.13.08-.32.27-.37l.22-.13c.08,0,.16-.15.22,0l.4.55h0l0-.78h0l.07,0,.13.06.27.11.77.55.57.38c.38.26.78.49,1.17.73.8.46,1.61.89,2.44,1.27a27.84,27.84,0,0,0,15.71,2.29l.28,1.49-1.94.39-.15,0s-.14,0-.1.07l.11.32,1.31,4c.8,2.45,1.58,4.86,2.36,7.23L119,350.44l-2.73-8.26q-.62-1.83-1.2-3.63l-3.39,1.56-.52-1.12a28.41,28.41,0,0,0,10.71-9.59c.41-.64.81-1.29,1.17-1.94.19-.33.35-.67.52-1s.29-.6.56-1.18l.55,0c0,.05.05-.12.09-.17l.13-.25c0-.06.07-.05.12,0l.15,0,.29,0a3.38,3.38,0,0,1,.4.44l6.22.4,2.95.21c.94.06,2.08.13,2.44.19,1.22-6.23,2.28-11.61,3.15-16L130.24,307l-2.75-.86A3.77,3.77,0,0,1,126.57,305.81Z" stroke="#000" stroke-miterlimit="10" stroke-width="0.5"/>
      </g>
    </g>
    <g>
      <path d="M74.17,141.67a44.66,44.66,0,0,1,10,7.45c.59.58,1.14,1.16,1.67,1.74C85,149.92,84,149,83,148.14a38.14,38.14,0,0,0-33.77-8l1.27-.69-8.7-16.13L21.9,134l8.69,16.13,1.58-.85a37.33,37.33,0,0,0-3,3.14A38,38,0,0,0,20.07,176l-.79-5.14-18.11,2.8L4.62,196l18.11-2.79-.51-3.27a38.12,38.12,0,0,0,21.62,22.66l-3.25,17.62,22.24,4.1q2-9.93,3.94-19.87h0a38.12,38.12,0,0,0,23.8-16.89c-.66,1.26-1.31,2.46-2,3.56l17,7,8.57-20.93L97,180.23c-.41,1.77-.93,3.67-1.56,5.65a38.34,38.34,0,0,0-3-25.64l0,0,12.6-12.19L90.85,130.5Zm-17,73.7h0Zm.57,0a38.33,38.33,0,0,0,8.86-.93A35.26,35.26,0,0,1,57.79,215.38Zm14.58-28.9a16.4,16.4,0,1,1-4.94-22.67A16.4,16.4,0,0,1,72.37,186.48Z" fill="#fff"/>
      <g>
        <path d="M74.17,141.67a44.66,44.66,0,0,1,10,7.45c.59.58,1.14,1.16,1.67,1.74C85,149.92,84,149,83,148.14a38.14,38.14,0,0,0-33.77-8l1.27-.69-8.7-16.13L21.9,134l8.69,16.13,1.58-.85a37.33,37.33,0,0,0-3,3.14A38,38,0,0,0,20.07,176l-.79-5.14-18.11,2.8L4.62,196l18.11-2.79-.51-3.27a38.12,38.12,0,0,0,21.62,22.66l-3.25,17.62,22.24,4.1q2-9.93,3.94-19.87h0a38.12,38.12,0,0,0,23.8-16.89c-.66,1.26-1.31,2.46-2,3.56l17,7,8.57-20.93L97,180.23c-.41,1.77-.93,3.67-1.56,5.65a38.34,38.34,0,0,0-3-25.64l0,0,12.6-12.19L90.85,130.5Zm-17,73.7h0Zm.57,0a38.33,38.33,0,0,0,8.86-.93A35.26,35.26,0,0,1,57.79,215.38Zm14.58-28.9a16.4,16.4,0,1,1-4.94-22.67A16.4,16.4,0,0,1,72.37,186.48Z" fill="none"/>
        <path d="M72.4,186.43c-.14-.08.68-1.3,1.42-3.75a16.48,16.48,0,0,0-.41-10.52A15.82,15.82,0,0,0,62,162.36a14.83,14.83,0,0,0-4.48-.32,15,15,0,0,0-4.56,1,15.6,15.6,0,0,0-10,15.51,14.55,14.55,0,0,0,1,4.57,14.74,14.74,0,0,0,2.16,3.94,15.83,15.83,0,0,0,13.66,6.29,16,16,0,0,0,5.86-1.5,15.41,15.41,0,0,0,3.87-2.51c1.92-1.69,2.69-2.94,2.82-2.85s-.12.35-.48.95l-.3.49-.44.56A10.82,10.82,0,0,1,70,189.83a15.16,15.16,0,0,1-3.9,2.87,16.58,16.58,0,0,1-6.18,1.83,16.8,16.8,0,0,1-7.75-1.1,17.07,17.07,0,0,1-7.2-5.43,15.94,15.94,0,0,1-2.41-4.29,16.28,16.28,0,0,1-1.11-5,17,17,0,0,1,11-17.1,17.15,17.15,0,0,1,9.94-.69,17,17,0,0,1,7.93,4.29,16.7,16.7,0,0,1,4.23,6.59,16.42,16.42,0,0,1,.91,6.37,15.35,15.35,0,0,1-1,4.74,11.32,11.32,0,0,1-.71,1.61l-.32.62-.33.49C72.67,186.18,72.45,186.46,72.4,186.43Z" stroke="#000" stroke-miterlimit="10" stroke-width="0.5"/>
        <path d="M57.8,215.38c0-.47,4-.59,8.66-1.72-.33-1.42.45,1.93.37,1.58h-.11l-.12,0-.23.05-.45.09-.89.16c-.59.09-1.16.16-1.7.21a23,23,0,0,1-2.89.1c-1.64-.06-2.65-.3-2.64-.52s1-.4,2.58-.63l2.75-.44,1.62-.3.85-.17.43-.09.22-.05.11,0,.06,0h0l.37,1.59C61.89,216.43,57.75,215.81,57.8,215.38Z" stroke="#000" stroke-miterlimit="10" stroke-width="0.5"/>
        <path d="M57.22,215.37a1.23,1.23,0,0,1,.14-.57,3.13,3.13,0,0,1,0,.57h-.26c.08-.41.12-.28.11,0a6.39,6.39,0,0,1-.07.66h0a.7.7,0,0,0,.05.16s0-.1,0-.25S57.21,215.59,57.22,215.37Z" stroke="#000" stroke-miterlimit="10" stroke-width="0.5"/>
        <path d="M74.39,141.53a6.58,6.58,0,0,1,1-.8l3.13-2.19,12.36-8.47,14.76,18.06L93.5,160l-.28.27s-.12.14-.13.11l.09.18.24.5c.11.23.22.46.31.7l.6,1.42.54,1.47.48,1.49a39.47,39.47,0,0,1,1.33,6.31A39,39,0,0,1,96,186l-1.19-.33q.84-3.12,1.73-6.31l6.24,2.49,12.2,4.88q-4.38,10.73-9.06,22.24L95,204.55l-5.22-2.13-2-.8-.28-.12s-.06,0-.06,0l0-.07.07-.13.3-.53.58-1.07,1.37-2.48,1.31.75a38.82,38.82,0,0,1-16.64,14.65A35.78,35.78,0,0,1,71,214c-.61.2-1.21.41-1.83.58-.31.09-.62.19-.94.26l-.68.18-.09,0h0l-.06.29q-1.92,9.79-3.92,19.86l-23.81-4.37c.59-3.25,1.19-6.5,1.79-9.78l.83-4.52.42-2.26.19-1c0-.09.07-.2-.05-.21l-.64-.28-.94-.44c-.62-.29-1.22-.61-1.83-.94a36.91,36.91,0,0,1-3.49-2.17,39.09,39.09,0,0,1-14.47-19l1.56-.39.63,4.06-19.7,3Q2.09,184.7.29,173l19.62-3q.45,3,.9,5.88l-1.48.09a38.71,38.71,0,0,1,3.6-15.09,37.43,37.43,0,0,1,3.85-6.51,27.4,27.4,0,0,1,2.36-2.88l2.55-2.66.81,1.12-2.19,1.17q-4.8-8.94-9.29-17.33L42,122.5l4.81,9,2.17,4,1.05,2,.53,1c.16.38.4.54.12.6l-.5.28.52-.11.55-.11,1-.15c.71-.11,1.41-.21,2.11-.26s1.39-.14,2.08-.14a37.88,37.88,0,0,1,7.91.47,41.3,41.3,0,0,1,7,1.87,42.38,42.38,0,0,1,6,2.81,40.48,40.48,0,0,1,4.85,3.38c.36.3.72.57,1,.88l1,.91,1.8,1.74-.4.38a46.32,46.32,0,0,0-8.11-7.17c-1-.7-1.82-1.21-2.35-1.55a6.26,6.26,0,0,1-.8-.53,4.25,4.25,0,0,1,.87.41c.56.3,1.39.76,2.43,1.43a43.1,43.1,0,0,1,8.37,7l-.41.37-1.81-1.68-.95-.88c-.33-.3-.7-.56-1.05-.85A39.66,39.66,0,0,0,77,144.39a42.1,42.1,0,0,0-5.89-2.69,40.71,40.71,0,0,0-6.9-1.74,37.1,37.1,0,0,0-7.74-.39c-.67,0-1.34.09-2,.16s-1.37.16-2,.27l-.52.08-.26,0-.13,0-.2,0-1.55.33-.78.17-.39.08-.2.05-.1,0h0c-.89.65,1.18-.89,1-.73h0l.33.17.08,0s0,.05,0,0l.13-.28.12-.28.07-.13s0,0,0-.06l-.3-.54-.53-1-1.07-2c-.72-1.32-1.46-2.67-2.2-4-1.4-2.56-2.83-5.21-4.31-7.92l-18.79,10.2q3.91,7.22,8.1,14.93l1-.52,3.88-2.11-3.08,3.22-2.45,2.58a27.77,27.77,0,0,0-2.27,2.78,36,36,0,0,0-3.68,6.28A37.45,37.45,0,0,0,20.82,176l-1.48.09c-.23-1.45-.46-2.91-.69-4.39l-16.6,2.59q1.59,10.18,3.23,20.78l16.53-2.56L21.42,190l1.57-.39a37.28,37.28,0,0,0,13.87,18.22,35.2,35.2,0,0,0,3.35,2.08c.58.32,1.16.62,1.75.91l.9.42,1.22.52.47.2c.06,0,.19,0,.2.11l0,.26-.18,1-.23,1.22-.41,2.27-.83,4.52q-.77,4.11-1.51,8.17l20.65,3.81q2-9,4-17.69l-.2-.43c0-.15-.19-.27-.11-.45l0-.25c0-.07,0-.22.13-.17l.68,0h0l-.58-.54h0l0,0,.06,0,.14-.07.26-.14,1.15-.28c.3-.07.6-.17.89-.25.6-.16,1.19-.37,1.77-.56,1.16-.4,2.31-.86,3.42-1.37a37.29,37.29,0,0,0,16-14l1.31.76-1.4,2.53-.1.18c0,.05-.12.14,0,.15l.68.28,5.21,2.14,9.55,3.93,8.07-19.6-10.91-4.42-4.91-2c-.47,1.69-.94,3.35-1.39,5l-1.2-.33a37.82,37.82,0,0,0,.73-13.13,37.11,37.11,0,0,0-1.25-6.14L93.82,165l-.51-1.42-.57-1.39c-.09-.23-.2-.46-.3-.68l-.4-.86.37-.41c0,.05,0-.06-.07-.15l-.09-.27,0-.06.06-.06.11-.1.21-.2a2.05,2.05,0,0,1,.61,0l6-6L102,150.5l1.38-1.39.67-.68.4-.37L90.79,130.93l-12.05,7.88-3.22,2.06A7.71,7.71,0,0,1,74.39,141.53Z" stroke="#000" stroke-miterlimit="10" stroke-width="0.5"/>
      </g>
    </g>
    <g>
      <path d="M208.32,297.24a19.24,19.24,0,0,1,.36,5.36c0,.36-.06.7-.1,1,0-.56.08-1.13.08-1.7a16.44,16.44,0,0,0-6.79-13.32l.58.23,2.85-7.36L196.23,278l-2.86,7.35.72.28A16.36,16.36,0,0,0,182,289.08l1.46-1.69-6-5.16-6.36,7.38,6,5.15.93-1.08a16.47,16.47,0,0,0-1.39,13.42L169.93,311l4.87,8.43,7.61-4.26h0a16.33,16.33,0,0,0,9.82,3.26,16.7,16.7,0,0,0,2.36-.17c-.59.13-1.17.26-1.71.35l2.46,7.5,9.25-3c-.85-2.51-1.69-5-2.53-7.54-.7.36-1.46.72-2.29,1.07a16.54,16.54,0,0,0,7.58-8.14v0l7.51.73,1.8-9.57Zm-28.89,15,0,0,.07.09Zm.16.19a16.56,16.56,0,0,0,2.78,2.64A15,15,0,0,1,179.59,312.46Zm13.54-3.3a7.06,7.06,0,1,1,6.05-8A7.06,7.06,0,0,1,193.13,309.16Z" fill="#fff"/>
      <g>
        <path d="M208.32,297.24a19.24,19.24,0,0,1,.36,5.36c0,.36-.06.7-.1,1,0-.56.08-1.13.08-1.7a16.44,16.44,0,0,0-6.79-13.32l.58.23,2.85-7.36L196.23,278l-2.86,7.35.72.28A16.36,16.36,0,0,0,182,289.08l1.46-1.69-6-5.16-6.36,7.38,6,5.15.93-1.08a16.47,16.47,0,0,0-1.39,13.42L169.93,311l4.87,8.43,7.61-4.26h0a16.33,16.33,0,0,0,9.82,3.26,16.7,16.7,0,0,0,2.36-.17c-.59.13-1.17.26-1.71.35l2.46,7.5,9.25-3c-.85-2.51-1.69-5-2.53-7.54-.7.36-1.46.72-2.29,1.07a16.54,16.54,0,0,0,7.58-8.14v0l7.51.73,1.8-9.57Zm-28.89,15,0,0,.07.09Zm.16.19a16.56,16.56,0,0,0,2.78,2.64A15,15,0,0,1,179.59,312.46Zm13.54-3.3a7.06,7.06,0,1,1,6.05-8A7.06,7.06,0,0,1,193.13,309.16Z" fill="none"/>
        <path d="M193.16,309.16c0-.13.59-.27,1.55-.75a7,7,0,0,0,3.12-3.07,6.51,6.51,0,0,0-.07-6.11A6.33,6.33,0,0,0,186,300.82a6.54,6.54,0,0,0,1.57,5.92,7.14,7.14,0,0,0,3.82,2.12c1.06.21,1.69.17,1.7.3s-.59.35-1.77.33a7,7,0,0,1-4.56-1.94,7.39,7.39,0,0,1-1.94-3,7.68,7.68,0,0,1,1.89-8.08,7.77,7.77,0,0,1,9.2-1.25,7.73,7.73,0,0,1,4,7.28,7.42,7.42,0,0,1-1.08,3.37A7,7,0,0,1,195,309C193.82,309.33,193.17,309.25,193.16,309.16Z" stroke="#000" stroke-miterlimit="10" stroke-width="0.5"/>
        <path d="M179.59,312.46c.36-.28,1.64.81,3.26,2l-1,1.31h0l0,0,0,0-.09-.06-.16-.13-.3-.26-.54-.53a7.63,7.63,0,0,1-.79-1c-.39-.63-.5-1.1-.33-1.24s.6.06,1.16.44c.29.19.61.43,1,.69l.55.42.29.21.15.11.07.06,0,0h0l-1,1.31C180.05,314.42,179.23,312.72,179.59,312.46Z" stroke="#000" stroke-miterlimit="10" stroke-width="0.5"/>
        <path d="M179.43,312.27a2.34,2.34,0,0,1,.47-.31c-.06.05-.15.14-.43.36l0,0,0,0h0c.35-.24.26-.15,0,0l-.53.39h0l-.11.11s.09,0,.21-.14Z" stroke="#000" stroke-miterlimit="10" stroke-width="0.5"/>
        <path d="M208.43,297.27a11.78,11.78,0,0,1,2.17.44l2.6.65,3.81,1c-.49,2.83-1.1,6.29-1.79,10.29l-7-.61-.39,0-.17,0-.08.18-.06.15-.14.28-.31.59c-.21.39-.44.77-.69,1.15a17.62,17.62,0,0,1-1.7,2.19,17.39,17.39,0,0,1-4.63,3.57l-.53-1.13,2.91-1.36c.35,1,.7,2.06,1.06,3.12q.94,2.79,1.95,5.72L194.86,327l-1.93-5.83-.44-1.31-.17-.54,0-.1s.06,0,.08,0l.4-.07-.39,0h-.53c-.48,0-1,0-1.43-.09a17.58,17.58,0,0,1-2.86-.54,16.73,16.73,0,0,1-2.76-1c-.44-.21-.88-.44-1.31-.7-.21-.12-.43-.25-.63-.39l-.42-.28-.07-.05-.27.15-7.59,4.27-5.68-9.82,6.82-4v0l-.11-.37c-.07-.3-.14-.6-.2-.89a16,16,0,0,1-.27-1.8,16.75,16.75,0,0,1,0-3.61,17.11,17.11,0,0,1,2.22-6.72l1.31.93-1.45,1.69L170,289.69l7.4-8.55,5.31,4.61,1.13,1c0,.11-.18.23-.26.34l-.15.18.15-.11a3,3,0,0,1,.38-.24l.2-.12.28-.14.34-.17a13.4,13.4,0,0,1,1.42-.6,16.24,16.24,0,0,1,2.92-.8,17.54,17.54,0,0,1,3-.28h.42l.33,0h.24s.06,0,0,0l-.23-.08h0l3-7.63,10.2,4-1.74,4.39-.73,1.84-.36.9-.13.32c0,.06,0,.21-.14.14l-.23-.09.18.14c.12.1.25.2.36.31a15.86,15.86,0,0,1,1.31,1.28,17,17,0,0,1,2.07,2.78,16.68,16.68,0,0,1,2.09,5.67,17.67,17.67,0,0,1,.11,4.83l-.55-.07a20.76,20.76,0,0,0,.16-4.63,11.45,11.45,0,0,1-.11-1.62,5.19,5.19,0,0,1,.39,1.59,17.7,17.7,0,0,1,.11,4.73l-.55-.06A18,18,0,0,0,208,299a15.9,15.9,0,0,0-4.15-7.93,14.57,14.57,0,0,0-1.27-1.2c-.34-.29-.71-.56-1.08-.84l-.53-.41.46.28.12.07s.1-.09.15-.13a2,2,0,0,0,.31-.35l.21-.56.34-.91.7-1.85c.41-1.07.83-2.18,1.26-3.32l-8-3-1.15,3c-.24.61-.47,1.23-.71,1.86l-.36.94-.19.48a3.73,3.73,0,0,0-.14.4l.14.71h0l.8.12h-.06l-.26,0-.54,0-1.07-.06-.54,0h-.45a15.56,15.56,0,0,0-2.71.27,15,15,0,0,0-2.67.76,12.26,12.26,0,0,0-1.29.56l-.32.15-.37.21c-.37.19-.74.45-1.11.69-.76.51-1.59,1.16-2.4,1.77l-.57.44-.29.22-.14.11,0,0h0c-.41.51,3.46-4.43,1.82-2.33h0v0l-.06.31-.07.31,0,.16,0,.08v0h0l.05-.09.68-1.23.34-.62a.42.42,0,0,0,.07-.13h0v0l-1.2-1-4.16-3.57-5.32,6.19,4.77,4.1.4-.46,1.31.93a15.57,15.57,0,0,0-2,9.36,14.89,14.89,0,0,0,.24,1.63c.06.27.12.54.19.8l.16.56.23.74.1.29L171,311.25l4.06,7.05.2-.11.78-.37,1.68-.78,3.33-1.54.2-.43c.09-.13.09-.32.27-.37l.23-.13c.07,0,.15-.16.22,0l.4.55h0l0-.78h0l0,0,.07,0,.13.06.26.11.47.33.29.19c.18.13.38.24.57.36.39.23.79.44,1.19.64a16.46,16.46,0,0,0,2.5.95,15.3,15.3,0,0,0,2.6.5c.43.05.87.08,1.31.09h.44l.59,0,1.18-.09.27.37.13.19.07.09,0,0s0,0,0,0l0,0-.63-.5-.08-.07,0,0h0l0,.13-.11.5c0,.07-.06.18,0,.22l0,.14.26.79.42,1.31c.49,1.52,1,3,1.45,4.47l7.92-2.55c-.49-1.52-1-3-1.45-4.45l-.59-1.78-1.67.76-.52-1.12a16.21,16.21,0,0,0,4.35-3.26,15.58,15.58,0,0,0,1.62-2c.24-.35.46-.7.67-1.07.1-.18.2-.36.29-.54l.15-.29.2-.44.56,0,.23-.45a1.79,1.79,0,0,1,.56,0,3.28,3.28,0,0,1,.4.43l3.29.1c1,0,2.3.07,2.67.15.7-3.44,1.31-6.41,1.8-8.84L210.51,298A12.31,12.31,0,0,1,208.43,297.27Z" stroke="#000" stroke-miterlimit="10" stroke-width="0.5"/>
      </g>
    </g>
  </g>
  <g id="CHARACTER1">
    <g id="PRIMARY_footright">
      <path d="M331.35,510.61q2.07,5.67,4.12,11.47,2.55,7.24,5,14.39c-7.31,4.25-13.31,8.3-17.91,11.61-10.4,7.47-7.65,6.87-15.78,12.76a25.16,25.16,0,0,0-7.64,8.08,22.2,22.2,0,0,0-1.8,4,24.57,24.57,0,0,0,8,1.05c5.4-.19,9.22-2.17,14.37-4.91,12.12-6.46,18.18-9.69,18.61-9.95a186.65,186.65,0,0,0,19-13.31c2.73-2.18,5-4.11,6.66-5.58q-2.74-6.86-5.39-14.21c-3-8.35-5.56-16.43-7.79-24.19a59.92,59.92,0,0,1-11.67,6.28A61.19,61.19,0,0,1,331.35,510.61Z"/>
    </g>
    <g id="leg_right" data-name="leg right">
      <path d="M353.84,254.11c-6.44,12.67-12,23.25-16.18,31.07-38.17,71.53-41.16,77-41.16,77s-3.84,7-13.63,31a49.55,49.55,0,0,0-3.07,10.14,51.74,51.74,0,0,0,.27,19.21c5,28.15,6.85,34.78,6.85,34.78,3.93,14.12,8.75,30.59,14.55,49a18.45,18.45,0,0,0,6.89,5.57c4.29,1.94,8.17,1.55,12.71,1,6.13-.7,10.51-2.37,15.89-4.45,6.09-2.37,9.61-3.73,13.81-6.63a46.82,46.82,0,0,0,12.1-12.23A117.12,117.12,0,0,1,353,472.29c-7.3-15.8-9.19-29.18-10.95-41.7a153.52,153.52,0,0,1-1.68-33.27A143.75,143.75,0,0,1,343,377.59c4.16-5.45,10.65-13.68,19.15-23.3,7.37-8.35,11.61-12.49,17.28-18.6,10.48-11.32,21.33-24.5,27.91-34,7.81-11.26,18.14-29.6,24.43-56.86Z" fill="#fff"/>
      <path d="M280.93,397.9a36.92,36.92,0,0,1,1.81-5.21c1.26-3.32,3.18-8.08,5.65-13.92s5.52-12.75,9.05-20.36,7.58-15.9,12-24.51,8.84-16.71,12.95-24,8-13.81,11.3-19.21,6.07-9.74,8-12.69a36.06,36.06,0,0,1,3.18-4.5,34.66,34.66,0,0,1-2.64,4.83c-1.8,3.06-4.39,7.49-7.59,12.95s-6.92,12-11,19.35-8.39,15.44-12.81,24-8.47,16.86-12.09,24.41-6.76,14.4-9.35,20.18-4.68,10.46-6.12,13.7A34.25,34.25,0,0,1,280.93,397.9Z" stroke="#000" stroke-miterlimit="10" stroke-width="0.5"/>
      <path d="M301.45,506.23a24.08,24.08,0,0,1-1.79-4.16c-1-2.72-2.47-6.67-4.1-11.61-3.28-9.86-7.37-23.65-10.88-39.13-1.76-7.74-3.27-15.15-4.38-21.95a103.77,103.77,0,0,1-1.52-18.26,55.47,55.47,0,0,1,1.44-12.29l.48-1.87.45-1.36a3.5,3.5,0,0,1,.46-1.08c.33.07-1.83,6.25-1.68,16.6a113.13,113.13,0,0,0,1.85,18c1.19,6.74,2.74,14.12,4.49,21.83,3.5,15.43,7.39,29.23,10.39,39.16,1.52,4.95,2.75,9,3.6,11.75A24.23,24.23,0,0,1,301.45,506.23Z" stroke="#000" stroke-miterlimit="10" stroke-width="0.5"/>
      <path d="M330.62,398.33a25,25,0,0,1,1.83-4.25l1.06-2.24c.43-.8.92-1.65,1.43-2.58,1-1.84,2.17-4,3.66-6.19l2.25-3.52c.81-1.21,1.71-2.43,2.61-3.71,1.77-2.59,3.87-5.2,6-8,4.42-5.49,9.49-11.33,15-17.3s10.82-11.55,15.61-16.67c2.38-2.58,4.66-5,6.73-7.33s4-4.49,5.75-6.49,3.27-3.85,4.62-5.46l1.88-2.25,1.53-1.94a25.22,25.22,0,0,1,3-3.5,25.64,25.64,0,0,1-2.5,3.89l-1.42,2-1.78,2.35c-1.3,1.67-2.74,3.6-4.45,5.63s-3.55,4.3-5.62,6.65-4.29,4.84-6.65,7.45l-15.51,16.76c-5.48,6-10.57,11.73-15,17.14-2.16,2.74-4.28,5.31-6.09,7.84-.92,1.26-1.83,2.45-2.66,3.63l-2.33,3.44c-1.53,2.16-2.72,4.23-3.83,6l-1.54,2.5L333,394.37A23.89,23.89,0,0,1,330.62,398.33Z" stroke="#000" stroke-miterlimit="10" stroke-width="0.5"/>
      <path d="M362.11,488.65a22.58,22.58,0,0,1-2.52-3.63l-1.26-2c-.44-.75-.89-1.58-1.38-2.46-1-1.77-2.14-3.76-3.2-6.07q-.83-1.73-1.74-3.6c-.59-1.26-1.12-2.61-1.71-4-1.22-2.74-2.26-5.77-3.41-8.93a144.08,144.08,0,0,1-7.72-43c0-3.37-.1-6.57.09-9.56.08-1.5.1-2.94.22-4.33s.26-2.71.38-4c.19-2.53.59-4.8.88-6.8.16-1,.29-1.93.44-2.78s.34-1.62.49-2.32a23.17,23.17,0,0,1,1.09-4.28,22.07,22.07,0,0,1-.46,4.39c-.11.7-.22,1.48-.35,2.33s-.2,1.78-.3,2.78c-.21,2-.53,4.26-.65,6.79-.08,1.26-.17,2.57-.26,3.95s-.08,2.81-.13,4.29c-.13,3,0,6.14.06,9.47a154.27,154.27,0,0,0,7.64,42.57c1.1,3.15,2.09,6.16,3.24,8.9.56,1.37,1.06,2.72,1.61,4l1.63,3.61c1,2.33,2.08,4.34,3,6.14l1.25,2.51,1.14,2.06A23.1,23.1,0,0,1,362.11,488.65Z" stroke="#000" stroke-miterlimit="10" stroke-width="0.5"/>
      <path d="M362.85,489.61a8.76,8.76,0,0,1-1.26,2.53,31.64,31.64,0,0,1-4.93,5.9,44.57,44.57,0,0,1-9.29,6.63,76.39,76.39,0,0,1-12.82,5.47,89.65,89.65,0,0,1-13.48,3.51,23.77,23.77,0,0,1-11.46-.73,15.09,15.09,0,0,1-6.5-4.21c-1.2-1.41-1.55-2.39-1.47-2.43s.65.78,1.92,2a15.91,15.91,0,0,0,6.41,3.55,23.58,23.58,0,0,0,10.87.35,101.93,101.93,0,0,0,13.2-3.58,83.88,83.88,0,0,0,12.62-5.24,48.74,48.74,0,0,0,9.23-6.16,41.05,41.05,0,0,0,5.18-5.42C362.14,490.35,362.74,489.55,362.85,489.61Z" stroke="#000" stroke-miterlimit="10" stroke-width="0.5"/>
      <path d="M340.12,536.05c-.43.13-2.74-5.44-5.15-12.45s-4-12.82-3.61-13,2.73,5.42,5.15,12.45S340.55,535.91,340.12,536.05Z" stroke="#000" stroke-miterlimit="10" stroke-width="0.5"/>
      <path d="M297.33,572.88c-.1,0-.05-.85.47-2.24a18.26,18.26,0,0,1,3.36-5.25,84.36,84.36,0,0,1,6.55-6.4c2.55-2.29,5.42-4.74,8.54-7.19A159.59,159.59,0,0,1,333,540.31c4.47-2.63,7.37-4,7.48-3.83s-2.58,1.94-6.87,4.81-10.13,6.93-16.3,11.8c-3.09,2.42-6,4.81-8.56,7s-4.92,4.24-6.69,6a21.33,21.33,0,0,0-3.63,4.74C297.71,572.15,297.45,572.92,297.33,572.88Z" stroke="#000" stroke-miterlimit="10" stroke-width="0.5"/>
      <path d="M363.92,540.24c.08.08-.64.85-2,2.15s-3.44,3.12-6.06,5.27A164.13,164.13,0,0,1,334,562.58c-4.5,2.57-8.9,4.8-13,6.67a80.23,80.23,0,0,1-11.12,4.4,17.41,17.41,0,0,1-8.11.51A5.68,5.68,0,0,1,299,573c.06-.13,1,.3,2.85.53a18.76,18.76,0,0,0,7.69-1,93.3,93.3,0,0,0,10.8-4.65c4-1.93,8.35-4.18,12.8-6.73a217.19,217.19,0,0,0,22-14.41C360.54,542.72,363.76,540.05,363.92,540.24Z" stroke="#000" stroke-miterlimit="10" stroke-width="0.5"/>
      <path d="M364.67,540.33c-.39.19-4.53-7.67-8.36-17.92s-5.9-18.88-5.48-19,3.18,8.26,7,18.42S365.09,540.13,364.67,540.33Z" stroke="#000" stroke-miterlimit="10" stroke-width="0.5"/>
    </g>
    <g id="PRIMARY_footleft">
      <path d="M450.56,474.3l23.8,8.82c1.13,2.09,2.82,5.26,4.83,9.16,5.73,11.13,6.29,13.23,10.42,20.63A138.84,138.84,0,0,0,498,526.32c3.18,4.44,3.06,3.58,5,6.59,2.18,3.38,2.83,5.22,4.87,5.87a5.46,5.46,0,0,0,4.92-1c1.16-1,2.43-3.08,1.31-10.35-1.1-7.1-3.28-11.45-6.61-19.76-2.23-5.57-3.79-10-4.37-11.64-.87-2.47-4.57-13.15-8.42-22.28a18.36,18.36,0,0,0-5.06-7.22,16.62,16.62,0,0,0-4.27-2.6q-3.73-.81-7.6-1.81a206.79,206.79,0,0,1-24.86-8.1Q451.73,464.17,450.56,474.3Z"/>
    </g>
    <g id="leg_left" data-name="leg left">
      <path d="M436,278.52a61,61,0,0,1,3.6,11.85,65.13,65.13,0,0,1,.51,20.92,103,103,0,0,1-7.2,27.26c-6.19,14.78-14.29,38.27-25.4,74.25a93.83,93.83,0,0,0,13.36,10.56c6.16,4,11.49,6.42,18.91,9.78,5,2.27,9.28,4,12.36,5.2a99.43,99.43,0,0,1,1,12,107.06,107.06,0,0,1-5.12,33c-3.93,12.61-7.85,17.68-9.05,19.17a43.54,43.54,0,0,1-6.6,6.6c-3.84-1.64-9.27-4-15.72-7.08a382.23,382.23,0,0,1-39.08-21c-18.9-11.83-24.09-17.82-25.92-20-4.39-5.32-7.88-10.15-10-16.13A47.21,47.21,0,0,1,339,433.08c-.5-5.57.11-9.62,1-15.42,2.66-16.77,4-25.21,4.56-28,1.78-8.93,3.44-16,4.41-20,3.86-15.94,7.18-29.39,13.87-45.57,2-4.76,3.75-8.57,4.87-10.91a24.27,24.27,0,0,1-11.33-8.66c-7.82-11.49-2.56-28.64,4.18-36.09C372.73,255,404.36,256.9,436,278.52Z" fill="#fff"/>
      <path d="M407.51,412.73a33,33,0,0,1,1.54-5.1c1.1-3.24,2.7-7.92,4.67-13.71,4-11.57,9.4-27.57,15.11-45.34,1.42-4.45,2.8-8.79,4.14-13s2.6-8.23,3.67-12.12c2.14-7.75,3.5-14.9,3.65-21a43.53,43.53,0,0,0-1.67-14.18c-.25-.81-.48-1.53-.67-2.15l-.61-1.54a4.74,4.74,0,0,1-.42-1.32c.05,0,.3.38.72,1.18.2.41.46.91.76,1.5s.52,1.33.83,2.14a41,41,0,0,1,2.21,14.39c0,6.2-1.27,13.49-3.35,21.34-1,3.93-2.3,8-3.6,12.2s-2.67,8.55-4.11,13c-5.72,17.79-11.33,33.74-15.57,45.23-2.12,5.74-3.9,10.36-5.17,13.54A33.7,33.7,0,0,1,407.51,412.73Z" stroke="#000" stroke-miterlimit="10" stroke-width="0.5"/>
      <path d="M367.72,313.16c-.33.32-2.77-1.72-5.86-4.07s-5.68-4.18-5.46-4.59,3.26.85,6.45,3.3S368,312.86,367.72,313.16Z" stroke="#000" stroke-miterlimit="10" stroke-width="0.5"/>
      <path d="M432,509a14.93,14.93,0,0,1-2.39-.85c-1.54-.6-3.81-1.53-6.7-2.78-5.78-2.5-14.07-6.3-24.06-11.51-5-2.6-10.42-5.56-16.14-8.9s-11.82-7-17.91-11.31a77.59,77.59,0,0,1-17.1-16.11,52.12,52.12,0,0,1-6.3-10.81,41.08,41.08,0,0,1-3.16-12.53,65.13,65.13,0,0,1,.49-12.84c.53-4.16,1.05-8.25,1.67-12.26,1.22-8,2.59-15.72,4.11-23s3.16-14.19,4.81-20.6,3.36-12.35,5.05-17.73c3.31-10.77,6.44-19.34,8.72-25.21,1.11-2.94,2.07-5.2,2.71-6.72a15.65,15.65,0,0,1,1.06-2.3,14.87,14.87,0,0,1-.76,2.41c-.55,1.57-1.37,3.87-2.42,6.83-2.09,5.93-5.05,14.54-8.21,25.32-1.61,5.39-3.2,11.33-4.84,17.73s-3.17,13.29-4.65,20.57-2.81,15-4,23c-.61,4-1.12,8.07-1.64,12.21a64.62,64.62,0,0,0-.48,12.52c.69,8.41,4.36,16.15,9.12,22.51a77,77,0,0,0,16.69,15.85c6,4.34,12.06,8,17.72,11.37s11.05,6.38,16,9.05c9.89,5.32,18.09,9.27,23.79,11.94l6.56,3.06A13.79,13.79,0,0,1,432,509Z" stroke="#000" stroke-miterlimit="10" stroke-width="0.5"/>
      <path d="M454.82,437.8c0,.2-3.25-.22-8.28-1.63a89.87,89.87,0,0,1-18.81-7.8,149.6,149.6,0,0,1-17-11.11c-4.16-3.1-6.64-5.15-6.51-5.33s2.85,1.53,7.17,4.39,10.26,6.84,17.15,10.62a115.39,115.39,0,0,0,18.38,8.13C451.77,436.75,454.87,437.56,454.82,437.8Z" stroke="#000" stroke-miterlimit="10" stroke-width="0.5"/>
      <path d="M432.36,509.17c-.06-.12.95-.54,2.35-1.8a23.76,23.76,0,0,0,4.7-6.47,114.82,114.82,0,0,0,5.24-10.84,103.35,103.35,0,0,0,4.62-14,104.9,104.9,0,0,0,3.21-26.53c-.07-6.87-.64-11.12-.37-11.16a11,11,0,0,1,.69,2.95c.19.95.31,2.13.46,3.5s.27,2.94.37,4.68a92.07,92.07,0,0,1-2.78,27A93.24,93.24,0,0,1,446,490.64a96.38,96.38,0,0,1-5.63,10.84,21.17,21.17,0,0,1-5.3,6.38C433.5,509,432.38,509.25,432.36,509.17Z" stroke="#000" stroke-miterlimit="10" stroke-width="0.5"/>
      <path d="M474.35,483.12c-.15.42-5.65-1.11-12.29-3.43s-11.9-4.54-11.75-5,5.65,1.11,12.29,3.43S474.49,482.69,474.35,483.12Z" stroke="#000" stroke-miterlimit="10" stroke-width="0.5"/>
      <path d="M486,464.6c-.12.43-7.71-1.37-16.86-4.29s-16.38-5.84-16.23-6.26,7.6,1.8,16.73,4.71S486.11,464.16,486,464.6Z" stroke="#000" stroke-miterlimit="10" stroke-width="0.5"/>
      <path d="M514.57,526.61c-.21.08-1.81-3.6-4.23-9.63s-5.66-14.38-9.15-23.65l-4.85-13.09c-1.5-4-2.64-7.72-4.3-10.4a13.14,13.14,0,0,0-5.26-5.09c-1.59-.77-2.62-.84-2.6-1s1.07-.23,2.85.41a12.75,12.75,0,0,1,6,5.05c1.9,2.79,3.17,6.52,4.74,10.49s3.2,8.42,5,13.05c3.48,9.27,6.55,17.69,8.7,23.82S514.78,526.54,514.57,526.61Z" stroke="#000" stroke-miterlimit="10" stroke-width="0.5"/>
      <path d="M513.88,529.11a8.74,8.74,0,0,1,.76,3.07,9.15,9.15,0,0,1-.26,3.79,6.28,6.28,0,0,1-1.21,2.15,5.11,5.11,0,0,1-2.35,1.58,4.23,4.23,0,0,1-3.18-.31,8,8,0,0,1-2.5-2.17c-.7-.86-1.29-1.77-1.94-2.7s-1.31-1.88-2-2.87c-2.66-3.95-5.47-8.38-8.28-13.1-5.63-9.45-10.27-18.24-13.55-24.64-1.63-3.2-2.92-5.81-3.78-7.63a11.7,11.7,0,0,1-1.19-2.91,11.69,11.69,0,0,1,1.75,2.61c1,1.73,2.47,4.25,4.24,7.38,3.53,6.26,8.33,14.95,13.93,24.35,2.8,4.71,5.55,9.13,8.13,13.11l1.9,2.9c.62.93,1.2,1.87,1.81,2.66a6.67,6.67,0,0,0,2,1.89,3,3,0,0,0,2.28.32,4.8,4.8,0,0,0,3-2.92,9.29,9.29,0,0,0,.49-3.45A17,17,0,0,1,513.88,529.11Z" stroke="#000" stroke-miterlimit="10" stroke-width="0.5"/>
    </g>
    <g id="arm_left" data-name="arm left">
      <path d="M313.58,131l-5.16,1.11A124.53,124.53,0,0,0,299.61,159c-2.43,11.84-2.48,21-2.54,32.76a279,279,0,0,0,1.86,33.74l-13.74,7.11a49.33,49.33,0,0,1,15.71,21,28.6,28.6,0,0,0,9.4.13,30.13,30.13,0,0,0,14.09-6.34,33.71,33.71,0,0,0,6.28-6.36c1.1-3.16,2.64-7.8,4.22-13.48,5.15-18.57,10.05-36.24,7.16-53.07C341,168.36,336.63,149.16,313.58,131Z" fill="#fff"/>
      <path d="M298.92,225.45a17,17,0,0,1-.61-3.7c-.29-2.39-.65-5.85-1-10.14a249.07,249.07,0,0,1-.75-33.65,151.63,151.63,0,0,1,2.19-18.45c.61-2.8,1.1-5.47,1.83-7.91.34-1.23.63-2.42,1-3.55s.73-2.19,1.08-3.21c.64-2.07,1.44-3.86,2.08-5.45.34-.79.63-1.53.93-2.2s.63-1.26.91-1.8a16.44,16.44,0,0,1,1.84-3.26,16.93,16.93,0,0,1-1.27,3.52l-.76,1.84-.8,2.23c-.56,1.61-1.27,3.41-1.84,5.47l-1,3.21c-.31,1.13-.58,2.31-.88,3.53-.66,2.43-1.1,5.08-1.66,7.85a170.08,170.08,0,0,0-2,18.27,323.21,323.21,0,0,0,.27,33.49c.2,4.29.37,7.76.48,10.16A16.26,16.26,0,0,1,298.92,225.45Z" stroke="#000" stroke-miterlimit="10" stroke-width="0.5"/>
      <path d="M307.1,221.39c.19.41-4,2.72-9.13,5.47s-9.39,4.91-9.63,4.52,3.65-3.19,8.86-6S306.92,221,307.1,221.39Z" stroke="#000" stroke-miterlimit="10" stroke-width="0.5"/>
      <path d="M330.67,241c-.47-.11,1-7.39,1.63-16.48s.33-16.51.81-16.55,1.52,7.42.82,16.67S331.08,241.13,330.67,241Z" stroke="#000" stroke-miterlimit="10" stroke-width="0.5"/>
      <path d="M331.05,243c.27.32-5.47,5.17-13.81,9.11a29.61,29.61,0,0,1-6.18,2.19,20.08,20.08,0,0,1-5.37.43c-3.07-.19-4.83-1-4.77-1.16s1.87.11,4.78,0a23.81,23.81,0,0,0,5-.74,35.81,35.81,0,0,0,5.84-2.21C324.7,246.83,330.78,242.65,331.05,243Z" stroke="#000" stroke-miterlimit="10" stroke-width="0.5"/>
    </g>
    <g id="torso">
      <path d="M308.86,132.19q2.26,5.15,4.55,10.29c.49,6,1.28,13.62,2.61,22.49a337.69,337.69,0,0,0,8.14,38.94A317.65,317.65,0,0,0,340,248.3a63.11,63.11,0,0,0,1.87,22.46c4.19,1.36,10,3.1,16.92,4.79a233.87,233.87,0,0,0,55.27,6.54,233.15,233.15,0,0,0,32.08-2.26c7.16-1,13.28-2.22,18.05-3.28A104.84,104.84,0,0,0,457,258.73c-4.5-8.75-7.39-11.31-13.86-22.09a155.61,155.61,0,0,1-10.77-20.59c-4.67-11.26-6-20.08-7.41-28.41-2-11.61-5.18-28.38-10.49-50.22A71.59,71.59,0,0,0,399,128.84c-7.61-3-16-4.81-28.28-5.1C345.1,123.15,319.32,129.4,308.86,132.19Z" fill="#fff"/>
      <path d="M340.57,249.57a21.2,21.2,0,0,1-2-3.76c-.6-1.22-1.3-2.74-2.07-4.52s-1.68-3.8-2.57-6.08-1.92-4.75-2.9-7.45-2-5.59-3.08-8.64c-2-6.14-4.1-13-6-20.17s-3.32-14.19-4.49-20.55c-.55-3.18-1.09-6.21-1.49-9.05s-.77-5.5-1.05-7.93-.5-4.63-.68-6.56-.31-3.6-.38-5a21.59,21.59,0,0,1-.07-4.25,21.33,21.33,0,0,1,.71,4.19c.16,1.35.37,3,.65,4.92s.53,4.1.91,6.51.75,5,1.25,7.86,1,5.83,1.62,9c1.25,6.31,2.77,13.22,4.6,20.41s3.88,14,5.83,20.11c1,3,2,6,2.92,8.65s1.85,5.21,2.7,7.49,1.65,4.34,2.34,6.15,1.3,3.36,1.81,4.62A20.7,20.7,0,0,1,340.57,249.57Z" stroke="#000" stroke-miterlimit="10" stroke-width="0.5"/>
      <path d="M411,134.07c-.14.29-5.26-2.65-14.27-5.34a100.76,100.76,0,0,0-16.14-3.36,126.76,126.76,0,0,0-20.17-.86c-14.35.53-27.21,3-36.46,4.79l-11,2.23a20.49,20.49,0,0,1-4.07.64,19.15,19.15,0,0,1,3.92-1.26c2.55-.71,6.26-1.67,10.88-2.74a195.92,195.92,0,0,1,36.65-5.29,119.3,119.3,0,0,1,20.42,1,91.68,91.68,0,0,1,16.28,3.75A69.42,69.42,0,0,1,407.45,132,17.37,17.37,0,0,1,411,134.07Z" stroke="#000" stroke-miterlimit="10" stroke-width="0.5"/>
      <path d="M463.93,272.89a4.6,4.6,0,0,1-.71-1.27c-.43-.85-1-2.14-1.8-3.73a141.37,141.37,0,0,0-7.49-13.23c-3.4-5.46-7.75-11.78-12.27-19-2.25-3.63-4.53-7.51-6.63-11.68a90.62,90.62,0,0,1-5.42-13.42c-1.49-4.73-2.59-9.43-3.57-14s-1.84-8.92-2.7-13.1l-4.46-22.19c-1.25-6.33-2.23-11.45-2.87-15a36.77,36.77,0,0,1-.83-5.54,36.35,36.35,0,0,1,1.45,5.41c.83,3.51,2,8.6,3.38,14.89s3,13.8,4.8,22.12c.89,4.17,1.82,8.54,2.79,13.07s2.1,9.17,3.56,13.83a92.7,92.7,0,0,0,5.3,13.18c2.05,4.13,4.28,8,6.48,11.62,4.42,7.24,8.69,13.64,12,19.21A113.09,113.09,0,0,1,462,267.62c.75,1.65,1.19,3,1.52,3.88A5,5,0,0,1,463.93,272.89Z" stroke="#000" stroke-miterlimit="10" stroke-width="0.5"/>
      <path d="M341.86,269.7c-.4.14-2.17-3.95-2.81-9.37s.11-9.82.53-9.77.46,4.35,1.09,9.57S342.31,269.55,341.86,269.7Z" stroke="#000" stroke-miterlimit="10" stroke-width="0.5"/>
      <path d="M464.14,276.56a27.22,27.22,0,0,1-4.7,1.29l-2.55.6-3,.6c-2.2.4-4.68.92-7.47,1.3L442,281c-1.52.21-3.11.36-4.75.55-3.28.42-6.8.64-10.5.92a240.5,240.5,0,0,1-24.16.18,240,240,0,0,1-24-2.46c-3.66-.63-7.14-1.18-10.37-1.9-1.61-.35-3.18-.65-4.67-1l-4.28-1.06c-2.73-.64-5.16-1.39-7.3-2l-3-.88-2.47-.84a27,27,0,0,1-4.56-1.73,28.86,28.86,0,0,1,4.74,1.13l2.51.69,3,.75c2.16.52,4.59,1.2,7.33,1.76l4.28.95c1.49.32,3.06.58,4.67.9,3.21.66,6.68,1.16,10.33,1.75,7.31,1,15.38,1.88,23.88,2.31s16.63.29,24,0c3.69-.24,7.19-.41,10.45-.76,1.64-.16,3.22-.28,4.73-.46l4.35-.54c2.78-.3,5.27-.74,7.47-1.06l3.06-.46,2.56-.46A28.52,28.52,0,0,1,464.14,276.56Z" stroke="#000" stroke-miterlimit="10" stroke-width="0.5"/>
    </g>
    <g id="tool">
      <path d="M192.39,103.34a72.2,72.2,0,0,1,.34,13,71.46,71.46,0,0,1-1.63,11.23,47.77,47.77,0,0,1,9.91,4.84,49.91,49.91,0,0,1,12.85,12c4.23,5.42,6.34,8.12,6.74,12.1.47,4.87-1.72,8.62-4.72,13.75A43.26,43.26,0,0,1,205,183.32c-8.4,6.53-17.12,7.71-24.3,8.68a65,65,0,0,1-26.13-1.68c-5.59-1.61-14-4-21.36-11.63a39.71,39.71,0,0,1-7.31-10.6,122.3,122.3,0,0,0-.92,16.75c.06,4.72.38,7.42,1.21,19.53.33,4.78.58,8.66.73,11.1a59.86,59.86,0,0,0,6.77,10.5c10.47,13,23.58,17.94,28.5,19.74a66.88,66.88,0,0,0,42.46,1.34,69.31,69.31,0,0,0,28-16.41c3.19,1.74,8,4.41,13.83,7.76,22.74,13.1,38.94,24.14,43.85,27.46l78.83,49.37,31,19.39L499.5,396.9c2.08-4.31,4.35-8.74,6.84-13.25a275.61,275.61,0,0,1,16.2-25.94q-.56-9.45-1.12-18.91a251.15,251.15,0,0,0-24.14-17.87c-15.7-10.21-24.57-13.44-43.93-24.94-11.32-6.73-10.09-6.68-23.12-14.75-24.94-15.44-35.86-19.7-66.14-36.66-2.4-1.34-18.17-10.19-35.46-20.72-17-10.35-40.71-25.51-68.54-45.82a65.43,65.43,0,0,0,2.38-15.56A66.48,66.48,0,0,0,250.1,122,68.06,68.06,0,0,0,232,104.66a57.39,57.39,0,0,0-39.64-1.32Z" fill="#fff"/>
      <path d="M521.54,337.59a3.57,3.57,0,0,1-.7-.38l-2-1.24-7.46-4.85c-6.49-4.2-15.9-10.23-27.71-17.41s-26-15.5-41.88-24.51S408.38,270.45,390,260.15s-35.87-20.25-51.55-29.66-29.59-18.24-41.07-26-20.53-14.3-26.71-18.95c-3.09-2.32-5.46-4.17-7-5.45l-1.8-1.46c-.4-.33-.6-.52-.58-.54a3,3,0,0,1,.68.41l1.89,1.33,7.23,5.2c6.28,4.49,15.43,10.92,27,18.5s25.48,16.33,41.2,25.63,33.17,19.23,51.58,29.53,36,20.06,51.82,29.16,30,17.52,41.74,24.84,21.07,13.49,27.45,17.86c3.19,2.19,5.64,3.92,7.29,5.11l1.87,1.37C521.35,337.39,521.56,337.56,521.54,337.59Z" stroke="#000" stroke-miterlimit="10" stroke-width="0.5"/>
      <path d="M498.75,377.54a3.23,3.23,0,0,1-.74-.35L495.93,376,488,371.4l-29-17.28c-24.43-14.65-58.11-35-95.26-57.52s-70.74-43-95-57.93L240.08,221l-7.76-4.89-2-1.3a3.48,3.48,0,0,1-.66-.49s.27.09.74.35l2.08,1.16,7.92,4.63,29,17.27c24.42,14.65,58.1,35,95.26,57.53s70.74,43,95,57.93l28.7,17.71,7.75,4.89,2,1.31A2.81,2.81,0,0,1,498.75,377.54Z" stroke="#000" stroke-miterlimit="10" stroke-width="0.5"/>
      <path d="M499.27,378.86c-.39-.25,4.83-9.06,10.93-20.1s10.79-20.14,11.21-19.94c.2.09-.72,2.5-2.44,6.27s-4.28,8.91-7.35,14.46-6.05,10.44-8.33,13.9S499.46,379,499.27,378.86Z" stroke="#000" stroke-miterlimit="10" stroke-width="0.5"/>
      <path d="M521.86,359.77c-.45,0-1-4.47-1.28-10s-.11-10.08.34-10.1,1,4.47,1.28,10S522.31,359.75,521.86,359.77Z" stroke="#000" stroke-miterlimit="10" stroke-width="0.5"/>
      <path d="M500.34,397c-.44.06-1.45-4.27-1.89-9.72s-.13-9.89.31-9.9.88,4.38,1.32,9.77S500.79,396.9,500.34,397Z" stroke="#000" stroke-miterlimit="10" stroke-width="0.5"/>
      <path d="M522.52,357.73c.39.28-5.26,8.46-11.41,19s-10.52,19.51-10.95,19.31c-.2-.09.63-2.44,2.29-6.13a155.16,155.16,0,0,1,7.25-14,153.09,153.09,0,0,1,8.62-13.21C520.71,359.49,522.35,357.6,522.52,357.73Z" stroke="#000" stroke-miterlimit="10" stroke-width="0.5"/>
      <path d="M230.67,214.23a14.19,14.19,0,0,1-2.86,2.74,56.1,56.1,0,0,1-9,6A71.39,71.39,0,0,1,204,229a76.44,76.44,0,0,1-19.42,2.91A70.68,70.68,0,0,1,165,229.67a61.8,61.8,0,0,1-14.9-5.93c-1-.59-1.95-1.08-2.8-1.67l-2.4-1.64c-1.47-1.07-2.65-2.1-3.64-2.9a18.53,18.53,0,0,1-2.74-2.86A18.17,18.17,0,0,1,141.7,217c1,.71,2.27,1.65,3.75,2.64l2.43,1.51c.86.54,1.83,1,2.81,1.54a64.92,64.92,0,0,0,14.72,5.48,72.78,72.78,0,0,0,19.11,2,79.2,79.2,0,0,0,19.06-2.72A76.25,76.25,0,0,0,218.3,222a72,72,0,0,0,9.13-5.49A26.35,26.35,0,0,1,230.67,214.23Z" stroke="#000" stroke-miterlimit="10" stroke-width="0.5"/>
      <path d="M260,178.87c-.29-.07,1.09-4.65,1.62-12.25a68.36,68.36,0,0,0-20.28-53.8c-5.42-5.36-9.49-7.89-9.31-8.13a11.55,11.55,0,0,1,2.92,1.64,55.49,55.49,0,0,1,7.18,5.66,64.1,64.1,0,0,1,9,10.22,64.88,64.88,0,0,1,11.66,30.91,64.73,64.73,0,0,1,0,13.59,56.34,56.34,0,0,1-1.65,9A11.49,11.49,0,0,1,260,178.87Z" stroke="#000" stroke-miterlimit="10" stroke-width="0.5"/>
      <path d="M140,215.28c-.11.14-2.54-1.53-5.37-5.28a40.61,40.61,0,0,1-4.19-7.06,57.39,57.39,0,0,1-3.41-9.43,60.8,60.8,0,0,1-2.39-18c.18-4.68,1.07-7.46,1.25-7.42s-.21,2.87-.09,7.43a74.29,74.29,0,0,0,2.8,17.54,67.27,67.27,0,0,0,3.21,9.24,47.3,47.3,0,0,0,3.77,7C138,213.14,140.15,215.08,140,215.28Z" stroke="#000" stroke-miterlimit="10" stroke-width="0.5"/>
      <path d="M232.1,104.69c-.12.24-2.18-.71-5.64-1.67l-1.36-.37-1.5-.32c-1-.25-2.15-.38-3.31-.58a61.6,61.6,0,0,0-7.71-.46,90.14,90.14,0,0,0-14,1.4c-3.58.61-5.8,1-5.86.82s2.06-1,5.62-2a61.61,61.61,0,0,1,14.25-1.9,49.15,49.15,0,0,1,7.94.61c1.21.24,2.36.43,3.4.75.53.14,1,.27,1.52.42l1.38.48C230.3,103.2,232.19,104.53,232.1,104.69Z" stroke="#000" stroke-miterlimit="10" stroke-width="0.5"/>
      <path d="M192.47,103.39a7.82,7.82,0,0,1,1.7.82c.54.29,1.22.66,2,1.16s1.67,1,2.6,1.72a58.6,58.6,0,0,1,6.62,5.45,59.84,59.84,0,0,1,7.39,8.64,53.75,53.75,0,0,1,6.39,12.24A45.52,45.52,0,0,1,222,149a46.08,46.08,0,0,1-3.33,17.22,49,49,0,0,1-4.37,8.24,43.59,43.59,0,0,1-6.26,7.3,38.72,38.72,0,0,1-7.87,5.56,42.73,42.73,0,0,1-8.69,3.39,67,67,0,0,1-8.78,1.78,76.51,76.51,0,0,1-8.54.73,67.85,67.85,0,0,1-15.78-1.32,55.86,55.86,0,0,1-13.07-4.42,48.16,48.16,0,0,1-15.75-12.09,38.12,38.12,0,0,1-3.2-4.37,8.4,8.4,0,0,1-.88-1.67c.14-.09,1.41,2.19,4.56,5.62a49.83,49.83,0,0,0,15.77,11.47,61.53,61.53,0,0,0,28.3,5.28,78.91,78.91,0,0,0,8.37-.77A66,66,0,0,0,191,189.2a41,41,0,0,0,8.36-3.29,37.33,37.33,0,0,0,7.52-5.32,41.58,41.58,0,0,0,6-7,47,47,0,0,0,4.24-7.93,44.29,44.29,0,0,0,.7-31.78,53.78,53.78,0,0,0-6.06-12,61.27,61.27,0,0,0-7.08-8.64,66,66,0,0,0-6.35-5.59C194.66,104.78,192.39,103.52,192.47,103.39Z" stroke="#000" stroke-miterlimit="10" stroke-width="0.5"/>
      <path d="M191.11,127.53c-.46-.09.29-5.43.88-12s.82-12,1.29-12,.95,5.43.33,12.13S191.53,127.62,191.11,127.53Z" stroke="#000" stroke-miterlimit="10" stroke-width="0.5"/>
      <path d="M219.33,159.21c-.13,0-.11-.65-.21-1.76a15.89,15.89,0,0,0-1-4.57,25.42,25.42,0,0,0-3.38-6.07,72.79,72.79,0,0,0-12-12.36,31,31,0,0,0-5.95-3.68c-3.62-1.69-6.18-1.83-6.15-2.11s2.65-.45,6.6,1.05a27.26,27.26,0,0,1,6.39,3.54A59.75,59.75,0,0,1,216,146a23.65,23.65,0,0,1,3.25,6.57,12.94,12.94,0,0,1,.56,4.93C219.66,158.62,219.42,159.23,219.33,159.21Z" stroke="#000" stroke-miterlimit="10" stroke-width="0.5"/>
      <path d="M126.87,215.45c-.23,0-.59-2.36-1-6.22s-.86-9.18-1.15-15.09c-.64-11.81-.78-21.4-.33-21.41s1.32,9.53,1.95,21.32c.29,5.89.59,11.24.68,15.11S127.09,215.44,126.87,215.45Z" stroke="#000" stroke-miterlimit="10" stroke-width="0.5"/>
      <path d="M232.3,231.33s-.24.37-.81.95-1.41,1.46-2.61,2.44A61.79,61.79,0,0,1,218,242.18c-1.19.72-2.54,1.3-3.9,2s-2.84,1.24-4.36,1.86a73.13,73.13,0,0,1-10,3,66.2,66.2,0,0,1-46.6-6.58,71.87,71.87,0,0,1-8.81-5.66c-1.28-1-2.54-2-3.68-3s-2.24-2-3.2-3a61.33,61.33,0,0,1-8.34-10.17,33.14,33.14,0,0,1-1.83-3.07,4,4,0,0,1-.53-1.13,34.9,34.9,0,0,1,2.88,3.84,72.26,72.26,0,0,0,8.63,9.71c1,1,2.09,1.86,3.21,2.85s2.39,1.89,3.67,2.87a73.39,73.39,0,0,0,8.71,5.43,66.56,66.56,0,0,0,45.58,6.43,74.16,74.16,0,0,0,9.87-2.81c1.49-.58,2.95-1.13,4.31-1.74s2.69-1.18,3.88-1.85a72.47,72.47,0,0,0,11-6.94A36.5,36.5,0,0,1,232.3,231.33Z" stroke="#000" stroke-miterlimit="10" stroke-width="0.5"/>
      <path d="M499.36,396.81a3.34,3.34,0,0,1-.72-.36l-2.05-1.19-7.79-4.69L460.32,373c-24-14.87-57.12-35.5-93.64-58.37S297.14,271,273.28,255.9l-28.2-18-7.63-5-2-1.32a3.45,3.45,0,0,1-.64-.5,3.25,3.25,0,0,1,.73.36l2,1.18,7.78,4.7,28.48,17.53c24,14.87,57.13,35.5,93.65,58.37s69.54,43.66,93.39,58.77l28.21,18,7.62,5,2,1.32C499.16,396.62,499.38,396.78,499.36,396.81Z" stroke="#000" stroke-miterlimit="10" stroke-width="0.5"/>
    </g>
    <g id="hand_right" data-name="hand right">
      <path d="M258.13,231.43a39.88,39.88,0,0,0,1.49,8,37.86,37.86,0,0,0,4.7,10.2c2.05,3,3.77,5.61,7,7.58,2.35,1.42,3.53,1.35,6.3,3.12A24.06,24.06,0,0,1,283,265a20.89,20.89,0,0,0,1.31-4.35,23.18,23.18,0,0,0-.71-10.64,24,24,0,0,0-2.7-5.85q-.69,6.23-1.39,12.45c-.89-3.85-1.74-7-2.41-9.35a56.06,56.06,0,0,0-3-8.67c-1.41-3-3.89-7.36-4.75-7-.37.14-.57,1.16.19,5.05a9,9,0,0,0-2.73-5c-.73-.65-1.76-1.57-2.44-1.29s-1.22,2.13,0,8.67Z" fill="#fff"/>
      <path d="M258.12,230.19c.25,0,.32,1.69.9,4.32a50.27,50.27,0,0,0,3.42,9.93c3.44,7.5,8.25,12.37,7.89,12.7-.14.15-1.55-.86-3.42-2.93a36.72,36.72,0,0,1-6-9.08,34.77,34.77,0,0,1-3.07-10.43C257.58,231.9,257.92,230.17,258.12,230.19Z" stroke="#000" stroke-miterlimit="10" stroke-width="0.5"/>
      <path d="M263.77,229.08c.49,0,.5,6.27,2.73,13.54s5.59,12.53,5.17,12.8c-.17.12-1.26-1-2.63-3.21a38.45,38.45,0,0,1-5.71-19C263.29,230.65,263.56,229.08,263.77,229.08Z" stroke="#000" stroke-miterlimit="10" stroke-width="0.5"/>
      <path d="M275.51,259.33c-.37.18-3.43-5.75-5.14-13.74s-1.45-14.63-1-14.62.9,6.49,2.62,14.28S276,259.14,275.51,259.33Z" stroke="#000" stroke-miterlimit="10" stroke-width="0.5"/>
      <path d="M281.89,263.71c-.2.08-.85-1-1.5-2.89a28,28,0,0,1-1.41-7.69,27.58,27.58,0,0,1,.74-7.78c.49-1.94,1-3.07,1.24-3,.47.12-.63,4.85-.35,10.72S282.34,263.55,281.89,263.71Z" stroke="#000" stroke-miterlimit="10" stroke-width="0.5"/>
      <path d="M283.94,265.67c-.23,0-.32-1.28-.33-3.28s.05-4.76-.16-7.76a40.21,40.21,0,0,0-.52-4.17,30.09,30.09,0,0,0-.84-3.32c-.6-1.86-1.13-3-.92-3.12s1.07.82,2,2.69a18.66,18.66,0,0,1,1.23,3.42,26.91,26.91,0,0,1,.69,4.39,38.3,38.3,0,0,1-.32,7.94C284.48,264.47,284.16,265.69,283.94,265.67Z" stroke="#000" stroke-miterlimit="10" stroke-width="0.5"/>
      <path d="M277.49,252.42c-.49,0-.49-5-2.78-10.67s-5.67-9.32-5.31-9.66c.15-.15,1.22.58,2.61,2.13a24.18,24.18,0,0,1,5.91,14.86C278,251.16,277.7,252.43,277.49,252.42Z" stroke="#000" stroke-miterlimit="10" stroke-width="0.5"/>
      <path d="M270,239.25c-.47,0-.92-2.55-2.48-5.24s-3.49-4.43-3.22-4.82c.12-.18.81,0,1.73.69A10.61,10.61,0,0,1,269,233.2a10.74,10.74,0,0,1,1.35,4.2C270.4,238.54,270.22,239.23,270,239.25Z" stroke="#000" stroke-miterlimit="10" stroke-width="0.5"/>
      <path d="M272,257.38c-.07.44-1.15.63-2.24,0s-1.47-1.66-1.12-1.93,1.13.06,1.94.52S272.1,256.93,272,257.38Z" stroke="#000" stroke-miterlimit="10" stroke-width="0.5"/>
      <path d="M278.43,260.43c0,.22-.41.41-1.08.4a4.71,4.71,0,0,1-2.42-.81,4.64,4.64,0,0,1-1.67-1.93c-.26-.62-.24-1.06,0-1.15.42-.19,1.29.86,2.62,1.72S278.44,260,278.43,260.43Z" stroke="#000" stroke-miterlimit="10" stroke-width="0.5"/>
    </g>
    <g id="arm_left-2" data-name="arm left">
      <path d="M411,133.65c-1.72.73-12.24,5.38-16.5,17.43-4.68,13.26,2.13,24.45,3,25.82q5.4,6.39,10.81,12.77l8.71,37.94c-6.32,3.15-11.73,6-16.1,8.37-4.85,2.63-8.8,4.87-11.14,6.22-1.87,1.08-3.46,2-4.68,2.73l5.68-.16a146.45,146.45,0,0,1-20.28,12.68,49.71,49.71,0,0,0-14.25,10.3c-1.25,1.32-4.78,5.06-4,6.12.64.9,4.39-.08,15.64-6.09a114.2,114.2,0,0,0-6.57,14.54c-3.72,10.1-3.77,14.67-3.69,16.71.18,5.06,1.63,10,2.63,9.92s.86-5.18,3.46-12.29A46.08,46.08,0,0,1,368,288a101.16,101.16,0,0,0,.62,16.07c.12,1,2.55,15.81,5.8,15.8.77,0,1.4-.84,1.83-1.58.47.95,1.11,1.95,1.81,1.91,1.34-.08,2.68-3.88,3.3-10.35.38-4.1,1.07-10,2.37-17.27a41.2,41.2,0,0,1,3.15,4,44.09,44.09,0,0,1,4.43,8.42c3,6.54,8.47,13,10,12.34s-.64-9-1.52-12.29a82.34,82.34,0,0,0-6-15.77c1.1-1.8,2.43-4.08,3.83-6.77.7-1.35,2-3.86,3.39-7.1,2.85-6.67,2.47-8,4.57-11.55a25.62,25.62,0,0,1,5.25-6.21,15,15,0,0,1,2.61,3.54,14.78,14.78,0,0,1,1.65,5.3,80.58,80.58,0,0,0,9.25-1.67,88.21,88.21,0,0,0,21.16-8.3,54.1,54.1,0,0,0,11.14-7.41,15.61,15.61,0,0,0,4.79-6.14,14,14,0,0,0,.88-6.46c-1.15-4.9-2.73-11-4.88-17.91-1.84-5.93-3.47-10.42-4.1-12.13a255.79,255.79,0,0,0-11.76-26.87c-1-2-4.72-8.47-12.17-21.51-4.61-8.08-7.66-13.33-13.26-19.4C414.11,136.5,412.32,134.8,411,133.65Z" fill="#fff"/>
      <path d="M462.76,238.48a25.24,25.24,0,0,1-1.39-4.44c-.81-2.87-2-7-3.56-12.12a262.23,262.23,0,0,0-15.32-38.66c-3.61-7.28-7.46-14-11-20.12s-6.68-11.64-9.61-16.07a78.46,78.46,0,0,0-7.64-10,46,46,0,0,1-3.15-3.4s.38.19,1,.67a32.05,32.05,0,0,1,2.59,2.29,65,65,0,0,1,8.14,9.77c3.09,4.4,6.33,9.9,10,16s7.52,12.82,11.16,20.15a228.18,228.18,0,0,1,15,39.06c1.45,5.16,2.45,9.37,3.07,12.3A25.42,25.42,0,0,1,462.76,238.48Z" stroke="#000" stroke-miterlimit="10" stroke-width="0.5"/>
      <path d="M400.24,179.55" fill="none" stroke="#000" stroke-miterlimit="10" stroke-width="0.5"/>
      <path d="M396.66,176.69" fill="none" stroke="#000" stroke-miterlimit="10" stroke-width="0.5"/>
      <path d="M408.34,189.67c-.34.29-3-2.33-6-5.86s-5.12-6.61-4.77-6.9,3,2.33,6,5.85S408.68,189.38,408.34,189.67Z" stroke="#000" stroke-miterlimit="10" stroke-width="0.5"/>
      <path d="M416.27,225c-.22.05-.94-2.68-2-7.11s-2.44-10.55-4-17.31-3-12.87-4-17.3-1.58-7.2-1.36-7.27,1.17,2.6,2.47,7,2.94,10.45,4.51,17.23,2.79,13,3.54,17.45S416.49,224.94,416.27,225Z" stroke="#000" stroke-miterlimit="10" stroke-width="0.5"/>
      <path d="M385.16,244.92c-.11-.19,2-1.69,5.57-3.9s8.58-5.12,14.23-8.11,10.87-5.51,14.69-7.21,6.27-2.62,6.36-2.42c.2.42-9,5.09-20.29,11.07S385.4,245.32,385.16,244.92Z" stroke="#000" stroke-miterlimit="10" stroke-width="0.5"/>
      <path d="M426,223c-.11-.22.56-.66,1.4-1.37a3,3,0,0,0,1-1.36,1.32,1.32,0,0,0-.29-1.45,6.16,6.16,0,0,0-2.06-.58c-.78-.16-1.47-.33-2.05-.49-1.16-.33-1.87-.65-1.83-.87s.8-.31,2-.27c.6,0,1.32.06,2.11.14.4.05.79.08,1.26.16a3.47,3.47,0,0,1,1.58.63,2.48,2.48,0,0,1,.92,1.66,3.2,3.2,0,0,1-.23,1.6,3.67,3.67,0,0,1-1.73,1.79C426.83,223.2,426.07,223.22,426,223Z" stroke="#000" stroke-miterlimit="10" stroke-width="0.5"/>
      <path d="M415.07,266.46c-.26.06-.74-2.19-2.34-5.42a27.21,27.21,0,0,0-22-15.29c-3.58-.37-5.85,0-5.89-.3s2.2-.93,6-.85a25.56,25.56,0,0,1,22.93,16C415.18,264.07,415.25,266.44,415.07,266.46Z" stroke="#000" stroke-miterlimit="10" stroke-width="0.5"/>
      <path d="M462.15,241.13c.09,0,0,.82-.55,2.15a17.2,17.2,0,0,1-3.36,5.06,36,36,0,0,1-6.95,5.65,85.48,85.48,0,0,1-9.51,5.32,82.88,82.88,0,0,1-18.68,6.39c-5,1.05-8.09,1.2-8.12,1s3-.81,7.85-2.13a106.17,106.17,0,0,0,18.25-6.74,104.29,104.29,0,0,0,9.41-5.12,40.5,40.5,0,0,0,6.93-5.19A21.1,21.1,0,0,0,461,243C461.72,241.81,462,241.08,462.15,241.13Z" stroke="#000" stroke-miterlimit="10" stroke-width="0.5"/>
      <path d="M368.64,267.44c.09.2-3.27,2-8.8,4.62l-4.52,2.17c-.42.18-.78.39-1.32.59a2.53,2.53,0,0,1-.95.15,1.86,1.86,0,0,1-1.05-.37,2.48,2.48,0,0,1-.95-1.78,2.7,2.7,0,0,1,.1-1,3.14,3.14,0,0,1,.4-.87,11.1,11.1,0,0,1,2.4-2.32c.83-.68,1.67-1.36,2.54-2,1.74-1.38,3.57-2.75,5.46-4.15a179.86,179.86,0,0,1,20.28-12.86c5.41-2.93,8.91-4.41,9-4.23s-3.21,2.06-8.44,5.23-12.36,7.68-19.89,13.18c-1.87,1.38-3.7,2.74-5.43,4.09l-2.55,2a10.73,10.73,0,0,0-2.12,1.92,1.85,1.85,0,0,0-.24.49,1.17,1.17,0,0,0-.05.46,1.1,1.1,0,0,0,.33.75c.16.12.35.15.71,0s.8-.32,1.2-.49l4.61-2C365,268.62,368.55,267.23,368.64,267.44Z" stroke="#000" stroke-miterlimit="10" stroke-width="0.5"/>
      <path d="M367.88,286.88c.18.08-.78,2.33-2.15,6.23-.69,1.95-1.46,4.32-2.21,7-.38,1.36-.74,2.81-1.09,4.33-.18.76-.34,1.54-.5,2.34l-.26,1.25a2.92,2.92,0,0,1-.29.8,1.87,1.87,0,0,1-.74.76,1.64,1.64,0,0,1-1.15.16,2.09,2.09,0,0,1-1-.59,4.11,4.11,0,0,1-.91-1.55,21.74,21.74,0,0,1-.58-3.07,31.23,31.23,0,0,1-.1-6.35,62.39,62.39,0,0,1,2.93-13.64A79.18,79.18,0,0,1,364,274a66.56,66.56,0,0,1,3.74-6.67,8.55,8.55,0,0,1,1.7-2.24c.22.14-1.83,3.55-4.39,9.39a95.61,95.61,0,0,0-3.84,10.5,68.45,68.45,0,0,0-2.74,13.33,31,31,0,0,0,.07,6,21.47,21.47,0,0,0,.49,2.77,2.55,2.55,0,0,0,.52,1c.12.13.24.17.37.1s.14-.11.26-.51l.26-1.19c.19-.81.37-1.6.57-2.37.39-1.54.81-3,1.24-4.36.86-2.72,1.75-5.08,2.57-7C366.48,288.93,367.74,286.81,367.88,286.88Z" stroke="#000" stroke-miterlimit="10" stroke-width="0.5"/>
      <path d="M394,288.79c-.41-.25,3.68-7.12,7.29-16.23.92-2.27,1.66-4.45,2.45-6.49a19,19,0,0,1,2.92-5.06c2.15-2.57,4-3.51,4.13-3.36s-1.43,1.46-3.2,4.05a20.41,20.41,0,0,0-2.44,4.91c-.69,2-1.42,4.26-2.35,6.56C399.12,282.44,394.34,289,394,288.79Z" stroke="#000" stroke-miterlimit="10" stroke-width="0.5"/>
      <path d="M401.33,317.31c-.49,0-.45-6.88-2.8-14.88a71.65,71.65,0,0,0-3.77-10c-1.16-2.57-1.37-4.38-1.14-4.41s.79,1.53,2.17,3.9A43.93,43.93,0,0,1,400.1,302a42.47,42.47,0,0,1,1.68,10.81C401.82,315.6,401.54,317.32,401.33,317.31Z" stroke="#000" stroke-miterlimit="10" stroke-width="0.5"/>
      <path d="M374.39,319.87c-.16.13-1.52-1.23-2.91-4a44.38,44.38,0,0,1-3.61-11.26,48.06,48.06,0,0,1-.75-11.78c.2-3,.65-4.85.86-4.83.49,0-.2,7.44,1.5,16.31a65.26,65.26,0,0,0,3,11.09C373.6,318.17,374.59,319.73,374.39,319.87Z" stroke="#000" stroke-miterlimit="10" stroke-width="0.5"/>
      <path d="M376.74,291.6c.23,0,.08,1.66-.07,4.24s-.21,6.15-.15,10.12.14,7.57,0,10.24a8.18,8.18,0,0,1-.77,3.13c-.36.69-.7,1-.79.91s.56-1.53.41-4.08-.4-6.18-.45-10.18a59.8,59.8,0,0,1,.64-10.27C376,293.1,376.53,291.55,376.74,291.6Z" stroke="#000" stroke-miterlimit="10" stroke-width="0.5"/>
      <path d="M383.39,293.37c.44.07-.28,6.79-1.6,15-.42,2.51-.79,4.86-1.26,6.95a18.81,18.81,0,0,1-.88,2.88,10.76,10.76,0,0,1-.55,1.18c-.25.48-.56,1-.8,1.33a2.42,2.42,0,0,1-2-1.5c-.18-.5-.1-.79,0-.8s.19.23.46.56a1.76,1.76,0,0,0,.51.44,1,1,0,0,0,.3.13l.16,0c.05,0,.13,0,.14-.05a6,6,0,0,0,.23-.61c.14-.34.27-.73.39-1.13a23.56,23.56,0,0,0,.62-2.75c.32-2.07.68-4.43,1.06-6.93C381.51,299.9,382.94,293.3,383.39,293.37Z" stroke="#000" stroke-miterlimit="10" stroke-width="0.5"/>
      <path d="M401.19,317.07c-.25.33-5.44-3.76-9.85-10.5s-6.16-13.1-5.76-13.21,2.79,5.8,7.12,12.31S401.53,316.72,401.19,317.07Z" stroke="#000" stroke-miterlimit="10" stroke-width="0.5"/>
    </g>
    <g id="PRIMARY_hair">
      <path d="M319.77,66.89c-5.55-1.73-8.52-6.17-12.07-11.47-2.66-4-7.63-11.42-7.09-21.65a32.65,32.65,0,0,1,4.64-14.63c2.3-4.17,6.39-11.75,15.41-15.71a29.87,29.87,0,0,1,17.85-1.7,33.1,33.1,0,0,1,13.18,6,43.42,43.42,0,0,1,9.5,9.68c1.43,1.84,4.15,6.28,9.54,15.09a75.42,75.42,0,0,0,5.36,8.09,85.68,85.68,0,0,0,6.28,7c3.05,3.07,3.45,3,4.69,4.57a20.39,20.39,0,0,1,4.12,9.55,17.84,17.84,0,0,1,4.58,3.49,19.4,19.4,0,0,1,4.14,7.17c1.3,4.23.17,6.6-1.27,15.5-1.12,6.91-1.68,10.37-1.77,14.68-.14,7.42,1.05,10.18-1.15,14.14a15.3,15.3,0,0,1-5.73,5.63,16.61,16.61,0,0,1-9.84,2.22c-7.3-.73-11.45-6.46-12.24-7.55-4.17-5.76-4-12.48-4-14.43,0-8.53-4.26-21.79-22.7-42.61C340.37,60.78,330.24,70.16,319.77,66.89Z"/>
    </g>
    <g id="head">
      <path d="M374.19,53.89q-1.76,9.78-3.53,19.55l6.64.64a6.7,6.7,0,0,1,3.38-4.38c2.76-1.31,5.8,0,7.41,1.63,2.69,2.67,2.61,7.26.56,10.31A9.14,9.14,0,0,1,378.35,85a36.31,36.31,0,0,0-6.66,6.41c-2.69,3.34-7.22,9-6.95,15.92.09,2.48.69,2.36,2.23,10.11.61,3.11,1,5.66,1.26,7.32l-4.93,3.58a13.91,13.91,0,0,1-8,3.08c-6.75.31-11.05-4.75-11.57-5.37a15.49,15.49,0,0,0-4-12.9,23.61,23.61,0,0,1-12.57-4.27,20.86,20.86,0,0,1-6.56-7.37,21.48,21.48,0,0,1-2.25-9,129.84,129.84,0,0,1,1.37-25.66q2.57-8.18,5.14-16.36l4.55-4c4-1.75,8.1-3.74,12.4-6,4.05-2.15,7.82-4.32,11.3-6.47a62.86,62.86,0,0,0,6.74,8.53A63.2,63.2,0,0,0,374.19,53.89Z" fill="#fff"/>
      <path d="M340.72,113.41a28,28,0,0,1-2.87-.84c-.92-.26-2.06-.51-3.41-.79a46.11,46.11,0,0,1-4.57-1.12,15.09,15.09,0,0,1-5.19-2.71,17.41,17.41,0,0,1-4.25-5.2,23.07,23.07,0,0,1-2.41-7,38.9,38.9,0,0,1-.56-7.83c.39-10.6,1.49-20.16,3.31-26.92a51.6,51.6,0,0,1,2.68-7.8,9.44,9.44,0,0,1,1.44-2.66c.26.11-1.54,4-3,10.73S319.47,77.5,319.09,88c-.12,5.19.57,10.16,2.66,14.07a16.29,16.29,0,0,0,3.8,4.87,14.33,14.33,0,0,0,4.69,2.66c1.58.58,3.1,1,4.42,1.32s2.47.72,3.39,1.08A6.64,6.64,0,0,1,340.72,113.41Z" stroke="#000" stroke-miterlimit="10" stroke-width="0.5"/>
      <path d="M343.74,126.05c-.47-.08-.18-3.16-1.29-6.66s-3-5.9-2.67-6.22c.15-.15.88.26,1.76,1.25a12.66,12.66,0,0,1,2.95,9.61C344.31,125.34,343.94,126.09,343.74,126.05Z" stroke="#000" stroke-miterlimit="10" stroke-width="0.5"/>
      <path d="M336.66,80.06c-.43-.12,1-6.61,3.31-14.49s4.44-14.17,4.88-14S343.8,58.14,341.54,66,337.09,80.19,336.66,80.06Z" stroke="#000" stroke-miterlimit="10" stroke-width="0.5"/>
      <path d="M346.39,85.87c0,.2-.54.55-1.58.67a7.61,7.61,0,0,1-7-3.46c-.54-.9-.61-1.57-.43-1.66.42-.21,1.72,1.73,4.18,2.9S346.3,85.41,346.39,85.87Z" stroke="#000" stroke-miterlimit="10" stroke-width="0.5"/>
      <path d="M358.51,87c.17.07-.19,1.44-1.54,3.25a11.4,11.4,0,0,1-1.22,1.38,14.78,14.78,0,0,1-1.59,1.39,17.82,17.82,0,0,1-4.27,2.29,17.64,17.64,0,0,1-4.74,1,14.63,14.63,0,0,1-2.12-.06,10.39,10.39,0,0,1-1.81-.29c-2.2-.53-3.35-1.35-3.26-1.52s1.37.18,3.44.39a15.15,15.15,0,0,0,1.7.07A16.23,16.23,0,0,0,345,94.8a20.11,20.11,0,0,0,4.31-1,20.53,20.53,0,0,0,4-2,18.39,18.39,0,0,0,1.55-1.16,14.49,14.49,0,0,0,1.26-1.14C357.56,88.05,358.28,86.91,358.51,87Z" stroke="#000" stroke-miterlimit="10" stroke-width="0.5"/>
      <path d="M360.54,88.57c-.44.15-1.14-.65-2.16-1.29s-2-1-2.05-1.46c0-.22.31-.44.87-.49a3.57,3.57,0,0,1,3.43,2.24C360.81,88.1,360.74,88.48,360.54,88.57Z" stroke="#000" stroke-miterlimit="10" stroke-width="0.5"/>
      <path d="M378.17,84.25c.1-.08.47.29,1.27.66a5.55,5.55,0,0,0,3.54.36,7.85,7.85,0,0,0,4.33-3,9.29,9.29,0,0,0,2-6.13,7.07,7.07,0,0,0-3.07-5.4,5.86,5.86,0,0,0-2.57-1,5.76,5.76,0,0,0-2.41.31,6,6,0,0,0-2.89,2.14c-.51.72-.68,1.22-.8,1.19s-.14-.58.25-1.5a6,6,0,0,1,3-2.9,6.55,6.55,0,0,1,2.93-.59,6.94,6.94,0,0,1,3.29,1A8.34,8.34,0,0,1,390.92,76a10.4,10.4,0,0,1-2.44,7.18,8.61,8.61,0,0,1-5.29,3.22,5.61,5.61,0,0,1-4.08-1C378.31,84.84,378.1,84.3,378.17,84.25Z" stroke="#000" stroke-miterlimit="10" stroke-width="0.5"/>
      <ellipse cx="333.49" cy="68.06" rx="4.74" ry="0.82" transform="translate(204.23 382.93) rotate(-79.22)" stroke="#000" stroke-miterlimit="10" stroke-width="0.5"/>
      <path d="M338,56.41c-.22.09-.6-.43-1.33-1a4.31,4.31,0,0,0-6.06.59c-.62.66-.89,1.25-1.12,1.2s-.36-.78.16-1.84a4.67,4.67,0,0,1,7.84-.76C338.24,55.58,338.23,56.35,338,56.41Z" stroke="#000" stroke-miterlimit="10" stroke-width="0.5"/>
      <path d="M355.91,72.39c-.45-.07-.47-2.28-.2-4.94s.76-4.82,1.21-4.8.7,2.25.42,5S356.35,72.46,355.91,72.39Z" stroke="#000" stroke-miterlimit="10" stroke-width="0.5"/>
      <path d="M364.43,61.56c-.23,0-.45-1-.64-2.61s-.3-3.87-1.91-5.2a4.52,4.52,0,0,0-2.68-1.08,4.77,4.77,0,0,0-2.37.55c-1.29.69-1.82,1.58-2,1.46s0-1.25,1.41-2.42a5.15,5.15,0,0,1,3-1.09,5.53,5.53,0,0,1,3.72,1.34,5.71,5.71,0,0,1,1.9,3.43,12.44,12.44,0,0,1,.11,3C364.83,60.55,364.65,61.56,364.43,61.56Z" stroke="#000" stroke-miterlimit="10" stroke-width="0.5"/>
      <path d="M391.18,61.63a1.47,1.47,0,0,1-.06-.47V60.6l-.11-.77a10.91,10.91,0,0,0-2-4.66,35.31,35.31,0,0,0-5.59-5.93,56.18,56.18,0,0,1-7.56-8,114.1,114.1,0,0,1-7.35-11.09,143.73,143.73,0,0,0-8.24-12.68A41.62,41.62,0,0,0,348.23,6.39a31.9,31.9,0,0,0-16.78-4.5,27,27,0,0,0-16.22,5.75c-4.42,3.56-7.5,8.32-9.91,13a41.53,41.53,0,0,0-2.87,7.13,25.61,25.61,0,0,0-.81,3.58l-.28,1.76-.12,1.76a32.38,32.38,0,0,0,1.92,12.76,35.42,35.42,0,0,0,5.1,9.44,37.57,37.57,0,0,0,2.87,3.36,36.76,36.76,0,0,0,2.77,2.5c3.51,2.81,5.87,3.77,5.78,3.93a8.07,8.07,0,0,1-1.69-.69A14.64,14.64,0,0,1,316,65.1l-1.22-.73-1.31-1A33.68,33.68,0,0,1,310.59,61a36.72,36.72,0,0,1-3-3.36,35.66,35.66,0,0,1-5.46-9.6,33.07,33.07,0,0,1-2.19-13.22L300,33c.09-.62.18-1.23.27-1.86a26.36,26.36,0,0,1,.82-3.74A42.43,42.43,0,0,1,304,20a52.45,52.45,0,0,1,4.29-7.15,32.84,32.84,0,0,1,6-6.42A28.5,28.5,0,0,1,331.41.26,33.18,33.18,0,0,1,349,5,42.78,42.78,0,0,1,361.5,16.56a140,140,0,0,1,8.2,12.89,119.19,119.19,0,0,0,7.11,11.1,57.71,57.71,0,0,0,7.27,8,34.37,34.37,0,0,1,5.49,6.25,10.58,10.58,0,0,1,1.76,5l0,.8-.06.58C391.25,61.48,391.21,61.63,391.18,61.63Z" stroke="#000" stroke-miterlimit="10" stroke-width="0.5"/>
      <path d="M323.86,49.67" fill="none" stroke="#000" stroke-miterlimit="10" stroke-width="0.5"/>
      <path d="M352.87,33.77c.26.35-4.94,4.43-12.11,8.24s-13.46,5.86-13.61,5.46,5.77-3.12,12.84-6.9S352.61,33.38,352.87,33.77Z" stroke="#000" stroke-miterlimit="10" stroke-width="0.5"/>
      <path d="M374.78,54.22c-.1.19-1.68-.41-4.11-1.67a37.47,37.47,0,0,1-8.74-6.24,59,59,0,0,1-6.57-8.43c-1.52-2.25-2.37-3.71-2.19-3.85s1.35,1.08,3.11,3.15,4,5.12,6.8,8a55.52,55.52,0,0,0,8.19,6.41C373.5,53.06,374.9,54,374.78,54.22Z" stroke="#000" stroke-miterlimit="10" stroke-width="0.5"/>
      <path d="M370.13,73.78c-.44-.07,0-4.82,1.14-10.56S374,53,374.39,53.06s-.35,4.78-1.52,10.49S370.58,73.86,370.13,73.78Z" stroke="#000" stroke-miterlimit="10" stroke-width="0.5"/>
      <path d="M377.43,73.72c.14.42-1.38,1.27-3.44,1.18s-3.5-1.06-3.32-1.46,1.64-.23,3.39-.16S377.29,73.28,377.43,73.72Z" stroke="#000" stroke-miterlimit="10" stroke-width="0.5"/>
      <path d="M397.1,108.85c-.19,0-.82-2.82-.77-7.49A66.38,66.38,0,0,1,397,93.2c.42-3,1-6.37,1.75-9.82a42.65,42.65,0,0,0,.87-5,19.28,19.28,0,0,0-.13-4.58,15.69,15.69,0,0,0-3-7.06A23,23,0,0,0,392.63,63c-1-.8-1.57-1.24-1.51-1.35s.73.17,1.87.83a17.65,17.65,0,0,1,4.3,3.55,16.05,16.05,0,0,1,3.63,7.53,19.41,19.41,0,0,1,.24,5,39.85,39.85,0,0,1-.87,5.17c-.71,3.44-1.36,6.72-1.85,9.71s-.8,5.7-1,8C397.14,106,397.36,108.82,397.1,108.85Z" stroke="#000" stroke-miterlimit="10" stroke-width="0.5"/>
      <path d="M394.5,117.15c.08,0,.05,1.06-.95,2.61a11.59,11.59,0,0,1-6.23,4.26,18.9,18.9,0,0,1-11.19-.13A17.42,17.42,0,0,1,365.74,115a16.71,16.71,0,0,1-1.79-7,18.44,18.44,0,0,1,1.11-6.62,33,33,0,0,1,5.63-9.62A34.68,34.68,0,0,1,376,86.5,7.75,7.75,0,0,1,378.32,85c.19.22-3,2.5-6.73,7.42a34.81,34.81,0,0,0-5.11,9.39,17.5,17.5,0,0,0-.93,6.09,15.32,15.32,0,0,0,1.65,6.34,16.38,16.38,0,0,0,4.05,5.18,16.61,16.61,0,0,0,5.35,3,18.47,18.47,0,0,0,10.41.45,11.62,11.62,0,0,0,6-3.54C394.12,118.07,394.36,117.11,394.5,117.15Z" stroke="#000" stroke-miterlimit="10" stroke-width="0.5"/>
      <path d="M364.16,127.37c.08.06,0,.41-.34.93a6.34,6.34,0,0,1-2,1.69,20.84,20.84,0,0,1-3.44,1.52,16,16,0,0,1-4.59.88,10.74,10.74,0,0,1-4.7-.85,9,9,0,0,1-3.16-2.3c-1.46-1.76-1.48-3.26-1.3-3.27s.67,1.17,2.13,2.46a9.85,9.85,0,0,0,7,2.33,24.23,24.23,0,0,0,7.57-1.81C363.18,128.24,364,127.25,364.16,127.37Z" stroke="#000" stroke-miterlimit="10" stroke-width="0.5"/>
    </g>
  </g>
</svg>
