<?xml version="1.0" encoding="utf-8"?>
<!-- Generator: Adobe Illustrator 23.0.3, SVG Export Plug-In . SVG Version: 6.00 Build 0)  -->
<svg version="1.1" xmlns="http://www.w3.org/2000/svg" xmlns:xlink="http://www.w3.org/1999/xlink" x="0px" y="0px"
	 viewBox="0 0 1600 1200" style="enable-background:new 0 0 1600 1200;" xml:space="preserve">
<style type="text/css">
	.st0{stroke:#000000;stroke-width:2;stroke-miterlimit:10;}
	.st1{stroke:#000000;stroke-miterlimit:10;}
	.st2{fill:none;stroke:#000000;stroke-miterlimit:10;}
</style>
<g id="mountain">
	<g>
		<g>
			<g>
				<path class="st0" d="M401.8,1003c0.2,0.4-2.1,1.9-6.6,3.9c-4.5,2-11.2,4.3-19.9,5.9c-4.3,0.8-9.2,1.3-14.4,1.5
					c-2.6,0.1-5.3,0.1-8.1-0.1c-1.4-0.1-2.8-0.2-4.2-0.3c-1.4-0.1-2.8-0.3-4.2-0.4c-2.7-0.2-5.2-0.2-7,0.7c-1.9,0.9-3.6,2.7-5.2,5.1
					c-0.8,1.2-1.6,2.5-2.4,3.9c-0.8,1.4-1.6,2.7-2.5,4.1c-1.7,2.7-3.3,5.5-5,8.3c-13.6,22.5-26.3,42.7-35.8,57.1
					s-15.7,23.1-16.4,22.7c-0.8-0.5,4.1-10,12.5-25.1c8.4-15.1,20.5-35.6,34.1-58.1c1.7-2.8,3.4-5.6,5.1-8.3
					c0.8-1.4,1.7-2.7,2.5-4.1c0.8-1.3,1.7-2.7,2.6-4.1c0.9-1.4,2-2.8,3.3-4c1.3-1.3,2.8-2.4,4.6-3.2c1.8-0.8,3.7-1.1,5.4-1.2
					c1.7-0.1,3.3,0,4.8,0.2c1.5,0.2,2.9,0.4,4.2,0.5c1.3,0.2,2.7,0.3,4,0.4c2.6,0.2,5.2,0.3,7.6,0.4c4.9,0.1,9.6-0.2,13.8-0.6
					c8.4-0.9,15.1-2.5,19.7-3.7C399,1003.3,401.6,1002.5,401.8,1003z"/>
			</g>
		</g>
	</g>
	<g>
		<g>
			<g>
				<path class="st0" d="M715.7,678c0.1,0.4-6.1,2.9-17.5,7.1c-5.7,2.1-12.7,4.6-20.8,7.4c-4.1,1.4-8.4,2.9-13,4.6
					c-4.6,1.6-9.4,3.3-14.2,5.5c-4.8,2.1-9.7,4.7-14.2,8.2c-4.5,3.4-8.8,7.6-13.2,12.2c-8.7,9.2-18.1,19.1-28.1,29.4
					c-20,20.5-42.6,42.7-68.9,63.1c-6.6,5.1-13,9.9-18.9,15.2c-5.9,5.2-11,10.9-15.8,16.9c-4.7,6-9.1,12.3-13.4,18.4
					c-4.3,6.1-8.4,12.2-12.3,18.1c-7.9,11.9-15.2,23.3-21.8,34.1c-6.6,10.8-12.6,21-18.1,30.4c-5.5,9.3-10.7,17.7-15.4,24.9
					c-4.8,7.2-9.1,13.2-12.9,18c-1.9,2.4-3.6,4.5-5.1,6.2c-1.6,1.8-2.9,3.2-4,4.4c-2.2,2.3-3.5,3.4-3.7,3.3
					c-0.4-0.3,3.9-5.5,10.7-15.4c3.4-5,7.5-11.1,11.9-18.5c4.4-7.3,9.2-15.8,14.5-25.3c5.2-9.4,11-19.9,17.5-30.9
					c6.5-11,13.6-22.6,21.4-34.7c3.9-6,8-12.1,12.2-18.3c4.3-6.2,8.6-12.5,13.5-18.8c2.4-3.1,5-6.2,7.7-9.2c2.7-3,5.7-5.9,8.8-8.6
					c6.1-5.5,12.7-10.4,19.2-15.5c25.9-20.1,48.5-42,68.6-62.2c10.1-10.1,19.6-19.8,28.5-28.9c4.5-4.5,9.1-8.9,14.1-12.5
					c5-3.6,10.3-6.3,15.4-8.4c5.1-2.1,10.1-3.7,14.7-5.2c4.7-1.4,9.1-2.8,13.2-4.1c8.2-2.5,15.3-4.7,21.1-6.4
					C709,679.2,715.5,677.5,715.7,678z"/>
			</g>
		</g>
	</g>
	<g>
		<g>
			<g>
				<path class="st0" d="M882.6,759c-0.2,0.4-1.9-0.1-4.7-1.2c-2.8-1.1-6.8-2.7-11.8-4.3c-2.5-0.8-5.3-1.6-8.3-2.4
					c-1.5-0.4-3.1-0.7-4.7-1.1c-1.6-0.3-3.4-0.6-5.4-1.3c-1-0.3-2-0.8-3-1.4c-1-0.6-1.9-1.3-2.7-2c-1.6-1.4-2.9-3-4.2-4.4
					c-2.5-2.9-5.2-6-7.9-9.1c-10.7-12.5-20.2-24-26.8-32.6c-3.3-4.3-5.9-7.8-7.5-10.4c-0.2-0.3-0.3-0.5-0.5-0.7
					c-0.1-0.2-0.3-0.3-0.5-0.4c-0.4-0.3-0.7-0.4-1-0.5c-0.2,0-0.3-0.2-0.4-0.1c-0.1,0.1-0.2,0.2-0.3,0.3c-0.1,0-0.3,0-0.4-0.3
					c0-0.1,0-0.4,0.1-0.6c0.2-0.2,0.4-0.4,0.7-0.5c0.5-0.2,1.2-0.2,1.9,0c0.4,0.1,0.7,0.2,1.2,0.5c0.2,0.1,0.4,0.3,0.6,0.5
					c0.1,0.1,0.3,0.2,0.4,0.4c2.3,2,5.4,5.1,9.1,9c7.5,7.8,17.5,18.9,28.2,31.3c2.7,3.1,5.3,6.2,7.8,9.2c1.3,1.5,2.4,2.9,3.5,4
					c0.6,0.5,1.1,1,1.7,1.4c0.6,0.4,1.2,0.7,1.8,1c1.4,0.5,3,0.9,4.7,1.4c1.7,0.5,3.3,0.9,4.8,1.5c3.1,1,5.9,2.1,8.4,3.3
					c5,2.3,8.9,4.6,11.4,6.4C881.6,757.4,882.8,758.6,882.6,759z"/>
			</g>
		</g>
	</g>
	<g>
		<g>
			<g>
				<path class="st0" d="M1052.5,841.9c-0.7,0.5-5.6-5.3-12.9-15.2c-3.6-4.9-7.9-10.9-12.5-17.5c-1.2-1.7-2.3-3.4-3.5-5.1
					c-1.2-1.7-2.4-3.5-3.6-5.2c-1.2-1.6-2.5-3.2-4-4.4c-1.4-1.2-3.1-2.1-5.1-3c-2-0.8-4.2-1.6-6.3-2.4c-2.1-0.7-4.2-1.5-6.3-2.1
					c-4.1-1.4-8.1-2.6-12-3.7c-7.7-2.2-14.7-3.8-20.6-5.1c-11.9-2.5-19.3-3.7-19.3-4.7c0.1-0.8,7.7-1.3,20,0.1
					c6.1,0.7,13.4,1.9,21.4,3.8c4,0.9,8.1,2.1,12.4,3.4c2.1,0.6,4.3,1.4,6.5,2.1c2.2,0.8,4.4,1.5,6.7,2.5c2.3,1,4.7,2.3,6.7,4
					c2,1.7,3.6,3.7,5,5.6c1.4,1.9,2.5,3.7,3.7,5.5c1.1,1.8,2.3,3.5,3.4,5.2c4.3,6.8,8.2,13,11.3,18.3
					C1049.8,834.7,1053.3,841.4,1052.5,841.9z"/>
			</g>
		</g>
	</g>
	<g>
		<g>
			<g>
				<path class="st0" d="M1272,1120.3c-0.4,0.2-3.3-4.5-8.1-13.1c-4.9-8.6-11.7-21.2-20-36.9c-2.1-3.9-4.2-8-6.5-12.3
					c-2.3-4.3-4.6-8.8-7.1-13.2c-2.5-4.4-5.3-8.8-8.8-12.8c-1.7-2-3.6-3.8-5.7-5.5c-2.1-1.7-4.4-3.3-6.8-4.8c-2.5-1.6-5-3.2-7.5-4.8
					c-0.6-0.4-1.3-0.8-1.9-1.3c-0.6-0.5-1.3-0.9-1.9-1.4c-1.3-0.9-2.5-1.8-3.8-2.7c-0.6-0.4-1.3-0.9-1.9-1.4l-1.8-1.5
					c-1.2-1-2.5-2-3.7-3.1c-1.2-1.1-2.3-2.2-3.5-3.3l-1.8-1.7c-0.6-0.6-1.1-1.2-1.7-1.7c-9.1-9.3-17.3-20.1-24.4-31.8
					c-7.1-11.7-13.1-23.6-18.5-35.2c-5.4-11.6-10.1-23-14.7-33.7c-4.5-10.8-8.8-21-12.9-30.6c-1-2.4-2-4.8-2.9-7
					c-1-2.1-2.1-3.9-3.5-5c-1.4-1.1-3.3-1.7-5.5-2.2c-1.1-0.2-2.3-0.4-3.4-0.7c-1.2-0.3-2.3-0.6-3.4-0.9c-4.5-1.4-8.4-3.3-12-5.4
					c-3.5-2.1-6.6-4.2-9.5-6.3c-5.7-4.1-10.6-7.6-14.8-10c-4.2-2.5-7.7-3.9-10.1-4.8c-2.4-0.8-3.7-1.2-3.7-1.5
					c0-0.2,1.4-0.2,4.1,0.2c2.6,0.5,6.4,1.6,10.9,3.8c4.6,2.2,9.7,5.5,15.6,9.3c5.9,3.7,12.6,8,20.7,10.2c1,0.2,2,0.5,3.1,0.7
					c1.1,0.2,2.2,0.4,3.4,0.6c1.2,0.2,2.5,0.5,3.8,0.9c1.3,0.4,2.6,1.1,3.9,2c2.4,1.8,4,4.4,5.1,6.8c1.2,2.4,2.1,4.7,3.2,7.1
					c4.2,9.5,8.7,19.7,13.4,30.4c4.7,10.7,9.6,22,15,33.4c5.4,11.5,11.3,23.1,18.3,34.5c6.9,11.4,14.8,21.8,23.4,30.7
					c0.5,0.6,1,1.2,1.6,1.7l1.7,1.6c1.1,1.1,2.2,2.1,3.3,3.2c1.1,1,2.3,2,3.5,2.9l1.7,1.5c0.6,0.5,1.1,1,1.8,1.4
					c1.2,0.9,2.4,1.8,3.6,2.6l1.8,1.3c0.6,0.4,1.2,0.8,1.8,1.2c2.5,1.6,5,3.3,7.4,4.9c2.5,1.7,4.9,3.4,7.2,5.3
					c2.3,1.9,4.5,4.1,6.3,6.3c3.8,4.5,6.7,9.3,9.2,13.9c2.5,4.7,4.7,9.2,6.8,13.5c2.1,4.3,4.2,8.5,6.1,12.5
					c7.8,15.9,14,28.8,18.2,37.8C1270.3,1115,1272.4,1120.1,1272,1120.3z"/>
			</g>
		</g>
	</g>
	<g>
		<g>
			<g>
				<path class="st0" d="M614.1,916.5c-0.1,0.2-0.9,0.2-2.5,0.1c-1.6-0.1-3.8-0.5-6.7-0.9c-5.8-0.8-14.2-1.9-24.6-2.1
					c-1.3,0-2.6-0.1-4-0.1c-1.4,0-2.8,0-4.2,0c-2.8,0-5.8,0.2-8.8,0.3c-6.1,0.4-12.6,1.1-19.3,2.2c-6.8,1.2-13.8,2.8-20.9,4.9
					c-1.1,0.3-2.2,0.7-3.3,1c-1.6,0.5-3.3,1.1-4.8,1.6c-1.6,0.5-3.2,1.1-4.8,1.6l-2.4,0.8l-1.2,0.4l-0.2,0.1l-0.1,0c0,0,0,0,0,0
					l0.1-0.3l0.2-0.6c2.2-5.6,4.5-11.3,6.8-17.1c11.9-29.9,23-56.9,31.3-76.3c8.3-19.4,13.9-31.2,14.7-30.9
					c0.8,0.3-3.2,12.8-10.5,32.6c-7.2,19.8-17.6,47-29.5,77c-0.7,1.7-1.4,3.4-2,5l0,0.1c0,0,0,0.1,0,0l0.2-0.1l0.3-0.1l0.7-0.2
					c0.2-0.1,0.4-0.1,0.7-0.2c0.7-0.2,1.4-0.4,2.2-0.6c7.4-2.1,14.7-3.6,21.8-4.7c7-1,13.8-1.5,20-1.7c3.2,0,6.2-0.1,9.1,0.1
					c1.5,0.1,2.9,0.1,4.3,0.2c1.4,0.1,2.8,0.2,4.1,0.3c10.7,0.9,19.1,2.7,24.9,4.3c2.9,0.7,5.1,1.5,6.5,2.1
					C613.4,915.9,614.2,916.3,614.1,916.5z"/>
			</g>
		</g>
	</g>
	<g>
		<g>
			<g>
				<path class="st0" d="M890.3,1024.4c0.2,0.4-5.4,3.7-15.7,9.3c-10.2,5.7-25.2,13.6-43,24.5c-8.9,5.5-18.4,11.7-28.2,18.9
					c-9.8,7.2-19.9,15.5-29.6,25.1c-0.6,0.6-1.2,1.2-1.8,1.8l-1,1l-1.5,1.6c-2,2.1-4,4.3-6,6.4c-1,1.1-2,2.2-3,3.2l-0.2,0.2
					l-0.1,0.1c0,0-0.1,0.1-0.1,0l-0.1-0.6l-0.1-1.1l-0.3-2.3c-0.4-3.1-0.8-6.1-1.2-9.2c-0.3-2.1-0.6-4.1-0.9-6.2
					c-0.3-1.8-0.6-3.6-0.8-5.4c-0.6-3.6-1.2-7.3-1.9-11c-1.4-7.4-2.9-14.8-4.6-22.3c-1.7-7.5-3.7-15.1-5.8-22.8
					c-2.5-8.9-5.1-17.7-8-26.2c-1.4-4.3-2.9-8.5-4.4-12.6c-1.5-4.2-3-8.2-4.9-11.8c-1.9-3.6-4.1-6.9-7-9.2c-2.8-2.4-6.3-3.9-10-5
					c-3.7-1.1-7.7-1.8-11.6-2.6c-3.9-0.8-7.8-1.4-11.6-2c-15.3-2.4-29.8-3.4-43-3.6c-6.6-0.1-12.9,0-18.9,0.2
					c-3,0.1-5.9,0.3-8.7,0.5c-0.7,0-1.4,0.1-2.1,0.1c-0.7,0-1.5,0.1-2.3,0.1c-1.9,0-4-0.7-5.2-2.2c-0.8-1.1-1.1-2.4-1-3.8
					c0-0.3,0-0.7,0.1-1c0-0.3,0.1-0.5,0.1-0.8c0.1-0.5,0.2-1,0.3-1.4c0.4-1.7,0.9-3.4,1.3-5c0.8-3.3,1.6-6.3,2.3-9.2
					c1.5-5.7,2.7-10.6,3.8-14.6c2.2-7.9,3.5-12.2,3.9-12.1c0.4,0.1-0.3,4.5-1.8,12.6c-0.8,4-1.7,9-2.9,14.8c-0.6,2.9-1.2,6-1.9,9.3
					c-0.3,1.6-0.7,3.3-1.1,5.1c-0.1,0.4-0.2,0.9-0.2,1.2c0,0.2-0.1,0.4-0.1,0.5c0,0.1,0,0.2,0,0.4c0,0.5,0.1,1,0.4,1.4
					c0.5,0.6,1.2,0.7,2,0.7c0.6,0,1.2-0.1,1.8-0.1c0.7-0.1,1.4-0.1,2.1-0.2c2.8-0.3,5.8-0.5,8.8-0.8c6-0.4,12.4-0.7,19.2-0.7
					c13.4-0.1,28.2,0.7,43.8,2.9c3.9,0.6,7.9,1.2,11.9,1.9c4,0.8,8,1.4,12.3,2.6c4.2,1.2,8.6,3,12.3,6.1c3.7,3.1,6.5,7,8.6,11.1
					c2.1,4.1,3.7,8.3,5.2,12.5c1.6,4.2,3,8.4,4.5,12.8c2.9,8.6,5.6,17.5,8.2,26.5c2.1,7.7,4.1,15.4,5.8,23.1
					c1.7,7.6,3.2,15.2,4.6,22.7c0.6,3.7,1.3,7.4,1.8,11.1c0.3,1.8,0.6,3.7,0.8,5.5c0.2,1.5,0.4,3.1,0.6,4.6c0.1,0.5,0.1,1,0.2,1.5
					l0,0.4l0,0.2l0,0.1c0,0,0,0,0.1-0.1l0.6-0.6c0.4-0.4,0.8-0.9,1.2-1.3l0.3-0.3l0.9-0.9c0.6-0.6,1.3-1.2,1.9-1.8
					c10.1-9.7,20.5-18,30.6-25.2c10.1-7.2,20-13.2,29.1-18.5c18.3-10.4,33.6-17.8,44.2-22.8C884.1,1026.4,890.1,1024,890.3,1024.4z"
					/>
			</g>
		</g>
	</g>
	<g>
		<g>
			<g>
				<path class="st0" d="M1169.1,993.1c-0.1,0.4-4.6-0.1-12.8-1.2c-4.1-0.6-9.1-1.3-15-2.2c-2.9-0.5-6.1-1-9.4-1.5
					c-1.7-0.3-3.4-0.5-5.1-0.8c-0.4-0.1-0.7-0.1-1.1-0.2l-0.7-0.1c-0.5-0.1-0.9-0.1-1.4-0.2c-0.1,1.7-0.1,3.5-0.2,5.4
					c0,1.3-0.1,2.6-0.1,4c0,1.4,0,2.7-0.1,4.1c0,5.6,0,11.4,0.3,17.5c0.6,12.2,2,25.5,4.7,39.5c0.3,1.8,0.7,3.5,1.1,5.3
					c0.4,1.8,0.8,3.5,1.2,5.3c0.4,1.8,0.8,3.6,1.3,5.4c0.2,0.9,0.4,1.8,0.7,2.7c0.2,0.9,0.5,2,0.7,3c0.2,1.1,0.3,2.3,0.2,3.6
					c-0.1,1.3-0.5,2.8-1.4,4.1c-0.9,1.3-2.2,2.3-3.5,2.9c-1.3,0.6-2.6,0.8-3.8,1c-1.2,0.1-2.3,0.1-3.4,0c-1.1-0.1-2-0.2-3.1-0.3
					c-1-0.1-2-0.2-3-0.4c-1-0.1-2-0.3-3-0.5c-8-1.3-16-3.3-24-5c-8-1.6-16.1-2.9-24.2-2.5c-14.2,0.7-27.8,6.3-38.2,14.8
					c-1.3,1-2.5,2.2-3.8,3.3l-1.8,1.8c-0.6,0.6-1.2,1.2-1.7,1.8l-1.6,1.9c-0.5,0.6-1,1.3-1.5,1.9c-1,1.2-2,2.8-3.2,4.2
					c-1.2,1.4-2.6,2.9-4.7,4c-1,0.5-2.3,1-3.6,1.1c-1.3,0.1-2.6-0.1-3.8-0.6c-2.3-0.9-3.7-2.3-4.9-3.3c-1.3-1-2.5-2.1-3.8-3.1
					c-20-16.6-37.9-31.6-52.9-44.3c-15-12.7-27.1-23-35.3-30.3c-8.2-7.3-12.7-11.5-12.4-11.8c0.3-0.3,5.3,3.2,14,9.8
					c8.7,6.7,21.3,16.5,36.6,28.7c15.4,12.2,33.6,26.9,53.8,43.2c1.3,1,2.5,2,3.8,3.1c1.3,1.1,2.4,2,3.3,2.3
					c0.8,0.3,1.4,0.2,2.3-0.2c0.9-0.5,1.9-1.5,2.9-2.6c1-1.2,1.8-2.5,3-4c0.5-0.7,1.1-1.4,1.6-2.2c0.6-0.7,1.2-1.4,1.8-2.1
					c0.6-0.7,1.2-1.4,1.8-2l1.9-2c1.4-1.2,2.7-2.5,4.1-3.7c11.4-9.5,26.2-15.6,42-16.4c9-0.5,17.6,1,25.8,2.7
					c8.2,1.7,16,3.8,23.7,5.1c1,0.2,1.9,0.3,2.9,0.5c1,0.1,1.9,0.3,2.9,0.4c0.9,0.1,1.9,0.2,2.8,0.3c0.9,0.1,1.7,0.1,2.4,0
					c0.7-0.1,1.4-0.2,1.8-0.4c0.5-0.2,0.7-0.4,0.9-0.7c0.2-0.3,0.3-0.7,0.4-1.2c0.1-0.6,0-1.3-0.1-2.1c-0.1-0.8-0.3-1.6-0.5-2.5
					c-0.2-0.9-0.4-1.9-0.7-2.8c-0.4-1.8-0.9-3.7-1.2-5.5c-0.4-1.8-0.8-3.6-1.1-5.5c-0.3-1.8-0.7-3.6-1-5.4
					c-2.5-14.3-3.7-27.9-4-40.4c-0.2-6.2-0.1-12.2,0.1-17.9c0.1-1.4,0.1-2.8,0.2-4.2c0.1-1.4,0.2-2.7,0.3-4.1c0-0.7,0.1-1.4,0.1-2
					c0.1-0.9,0.2-1.8,0.2-2.7c0.2-1.8,0.3-3.5,0.5-5.2c2.6,0.5,5.2,1,7.6,1.5c1.8,0.4,3.5,0.7,5.1,1c3.3,0.7,6.4,1.3,9.3,1.9
					c5.8,1.2,10.8,2.3,14.8,3.2C1164.8,991.5,1169.1,992.7,1169.1,993.1z"/>
			</g>
		</g>
	</g>
	<g>
		<g>
			<g>
				<path class="st0" d="M603.2,1129.2c-0.4,0.8-10.4-3.1-26.5-9.5c-16.1-6.4-38.3-15.4-62.9-24.6c-6.1-2.2-12.1-4.1-18-5.2
					c-5.9-1.1-11.5-1.3-16.9-0.6c-5.4,0.7-10.6,2-15.4,3.4c-4.8,1.4-9.4,2.8-13.5,4c-16.6,4.9-27.1,7.6-27.3,6.7
					c-0.3-0.9,9.6-5,25.9-11.1c4.1-1.5,8.5-3.2,13.4-4.8c4.9-1.6,10.3-3.3,16.2-4.1c5.9-0.9,12.5-0.8,18.9,0.3
					c6.4,1.1,12.8,3.1,19.1,5.3c24.9,9.3,46.9,19,62.5,26.5C594.3,1123.1,603.6,1128.5,603.2,1129.2z"/>
			</g>
		</g>
	</g>
</g>
<g id="girl">
	<g id="body">
		<path d="M719.4,667.6c2.7,9.2,5.4,18.4,8.1,27.7c-10.9,4.7-19.8,9.5-26.8,13.7c-11.7,7.1-27.1,16.4-25.5,22.9
			c0.5,2.1,2.7,3.4,5.9,4.6c22,8.2,46.1-6.8,73.8-14.4c0.9-0.2,6.6-1.8,13.1-5.9c4.3-2.7,7.5-4.7,9.1-8.5c1.3-3,1.1-5.7-1.3-15.7
			c-2.2-9.2-3.1-11.6-4.6-17.5c-3.8-15.4-2.5-19.3-5.8-21c-4.3-2.2-7.5,4-19.6,5.2c-6.9,0.7-8.9-1-14.4,0.7
			C725.8,661.1,721.9,664.7,719.4,667.6z"/>
		<path d="M880.3,720.8c-0.4,1-0.6,2-0.7,2.6c0.4,15.2,0.9,30.5,1.3,45.7c-11.2,12.5-21.1,21.8-28.1,28.1
			c-13,11.7-21.7,17.4-20.9,25.5c0.5,5.5,5.3,10.3,9.9,12.5c10.5,5,17.5-4.5,50.8-18.4c0,0,32.9-13.7,35.3-23.5
			c0.4-1.8,0.7-3.8,0.7-3.8c0.8-5.1,0.6-8.9,0.6-9.9c-0.4-9.3,3.2-23.8,3.3-41.8c0-5.1-0.3-12.5-1.7-21.5
			c-8.8,5.4-15.1,5.5-19.2,4.6c-8.2-1.8-9.8-8-17.6-7.8C888.9,713,882.4,715.7,880.3,720.8z"/>
		<path d="M907,289.4c7.4,0.1,18.1,1.5,27.5,8.3c9.1,6.5,12.1,14.5,16,13.4c4.5-1.2,7.5-13.6,3.2-20.5
			C948.1,281.9,929.4,281.1,907,289.4z"/>
		<g>
			<g>
				<g>
					<path class="st1" d="M797,320.5c-0.3,0.3-2.7-1.6-5.3-5.5c-1.3-2-2.7-4.5-3.7-7.6c-1-3-1.7-6.5-1.7-10.2
						c0-3.7,0.5-7.2,1.4-10.2c0.4-1.5,0.9-3,1.4-4.3c0.3-0.7,0.6-1.3,0.9-1.9c0.3-0.6,0.6-1.2,1.2-1.8c0.2-0.2,0.2-0.3,0.7-0.6
						c0.2-0.1,0.4-0.1,0.5-0.2l0.1,0c0.5,0,0.2,0,0.3,0l0,0l0.1,0c0.1,0,0.1,0,0.2,0.1c0.1,0.1,0.2,0.1,0.2,0.2
						c0.2,0.1,0.2,0.2,0.3,0.3c0.2,0.4,0.2,0.6,0.3,0.7c0,0.2,0.1,0.3,0.1,0.5c0,0.6,0,1.1,0,1.6c-0.1,1-0.2,1.8-0.3,2.4
						c-0.2,1.3-0.5,2-0.7,2c-0.2,0-0.4-0.7-0.5-2c-0.1-0.6-0.2-1.4-0.2-2.3c-0.1-0.4-0.1-0.9-0.2-1.3c0-0.1-0.1-0.2-0.1-0.3
						c0-0.1,0-0.1,0-0.1c0,0-0.1,0,0.1-0.1l0.3-0.2c0.1-0.1,0.2-0.1,0.2-0.2c0.1-0.1,0-0.1,0.1-0.1l-0.1,0.1c0,0.1,0.1,0.2,0.2,0.3
						c0.1,0,0.2,0.2,0.3,0.3c0.1,0.1,0.1,0.1,0.1,0.1l0,0l-0.1,0.1c-0.2,0.3-0.5,0.8-0.7,1.4c-0.2,0.5-0.4,1.1-0.6,1.8
						c-0.4,1.2-0.8,2.6-1.1,4c-0.6,2.9-1,6.1-1,9.5c0,6.8,2.1,12.7,4.1,16.7C795.6,317.8,797.3,320.1,797,320.5z"/>
				</g>
			</g>
		</g>
		<g>
			<g>
				<g>
					<path class="st1" d="M975,247c-0.2,0.2-1.9-2.1-6-4.7c-2.1-1.3-4.8-2.6-8.1-3.6c-3.3-1-7.2-1.6-11.6-1.5
						c-4.3,0.1-9.1,0.8-14.1,2.2c-5,1.3-10.2,3.2-15.7,5.4c-11,4.2-23.1,8.8-35.9,13.6c-12.7,4.8-24.9,9.3-36,13.4
						c-5.5,2-10.8,3.9-15.7,5.8c-4.9,1.8-9.5,3.5-13.9,4.8c-4.4,1.2-8.5,1.9-12.2,1.7c-3.7-0.2-6.8-1.1-9.1-2.2
						c-2.3-1.1-3.9-2.5-4.8-3.5c-0.9-1-1.2-1.6-1.2-1.7c0.1-0.1,0.6,0.4,1.6,1.2c1,0.8,2.6,1.9,4.8,2.8c2.2,0.9,5.2,1.6,8.6,1.6
						c3.4,0,7.3-0.7,11.5-2.1c4.2-1.3,8.7-3.2,13.6-5.1c4.9-1.9,10.1-3.9,15.6-6c11-4.2,23.1-8.8,35.9-13.6
						c12.7-4.8,24.9-9.3,36-13.4c5.5-2,10.9-3.9,16.1-5.2c5.2-1.3,10.2-1.9,14.7-1.9c4.6,0.1,8.7,0.9,12.1,2.1
						c3.4,1.2,6.2,2.7,8.2,4.3c2.1,1.5,3.4,3,4.2,4C974.7,246.3,975.1,246.9,975,247z"/>
				</g>
			</g>
		</g>
		<g>
			<g>
				<g>
					<path class="st1" d="M970.2,301.5c-0.2,0.2-2.3-1.4-6.1-4.2c-1.9-1.4-4.3-3.1-7.1-4.9c-2.8-1.8-6.2-3.6-10.1-4.9
						c-1.9-0.7-4-1.2-6.3-1.5c-2.2-0.3-4.6-0.4-7-0.3c-4.9,0.1-10.2,0.9-15.7,1.7c-5.5,0.8-11.3,1.8-17.3,3.1
						c-5.9,1.3-12.1,2.8-18.3,4.5c-6.2,1.8-12.2,3.7-17.9,5.7c-5.7,2.1-11.2,4.2-16.3,6.4c-2.6,1.1-5.1,2.2-7.5,3.3
						c-2.4,1.1-4.7,2.2-6.9,3.3c-4.5,2.2-8.5,4.4-12.5,6.2c-3.9,1.8-7.7,3-11.2,3.5c-3.5,0.5-6.5,0.2-8.9-0.4
						c-2.4-0.6-4.1-1.5-5.2-2.2c-1.1-0.7-1.5-1.2-1.5-1.3c0.1-0.1,0.6,0.2,1.8,0.7c1.1,0.5,2.8,1.2,5.1,1.5c2.3,0.4,5.1,0.4,8.4-0.2
						c3.2-0.6,6.8-1.9,10.5-3.8c3.8-1.8,7.8-4.2,12.2-6.5c2.2-1.2,4.6-2.3,6.9-3.5c2.4-1.1,4.9-2.3,7.5-3.5
						c5.2-2.3,10.7-4.5,16.4-6.7c5.8-2.1,11.9-4.1,18.1-5.9c6.3-1.8,12.5-3.2,18.5-4.5c6-1.2,11.9-2.2,17.5-2.9
						c5.6-0.7,10.9-1.4,16.1-1.4c2.6,0,5.1,0.2,7.4,0.6c2.4,0.4,4.6,1,6.6,1.8c4.1,1.6,7.5,3.6,10.3,5.6c2.8,2,5.1,3.8,6.9,5.4
						C968.5,299.5,970.4,301.4,970.2,301.5z"/>
				</g>
			</g>
		</g>
		<g>
			<g>
				<g>
					<path class="st1" d="M971,291.3c-0.4-0.2,0.5-2.4,1.5-5.8c0.1-0.4,0.3-0.9,0.4-1.4c0.1-0.5,0.2-1,0.4-1.5
						c0.3-1,0.5-2.1,0.7-3.3c0.4-2.3,0.7-4.9,1-7.6c0.4-5.5,0.3-10.5,0.3-14.2c0-3.7,0.2-6,0.6-6c0.4,0,1.1,2.2,1.7,5.9
						c0.6,3.7,1,8.8,0.6,14.6c-0.2,2.9-0.7,5.6-1.3,8c-0.3,1.2-0.6,2.4-1.1,3.4c-0.2,0.5-0.4,1-0.6,1.5c-0.2,0.5-0.4,0.9-0.6,1.4
						C973,289.7,971.4,291.5,971,291.3z"/>
				</g>
			</g>
		</g>
		<g>
			<g>
				<g>
					<path class="st1" d="M949.2,315.9c-0.5,0.2-1.6-2.8-5.2-6.3c-3.5-3.4-9.4-7.3-16.3-10.6c-6.9-3.3-13.6-5.2-18.6-6.3
						c-4.9-1.1-8.1-1.5-8.1-2c0-0.4,3.2-0.8,8.4-0.3c5.2,0.5,12.4,2.2,19.6,5.6c3.6,1.7,6.9,3.7,9.7,5.7c2.8,2,5.2,4.2,6.9,6.3
						c1.7,2.1,2.7,4.1,3.2,5.5C949.4,315,949.4,315.8,949.2,315.9z"/>
				</g>
			</g>
		</g>
		<g>
			<g>
				<g>
					<path class="st1" d="M948.7,314.6c-0.8-0.5,1.7-5.6,2.7-12.3c1.1-6.7,0.4-12.3,1.3-12.5c0.4-0.1,1.2,1.2,1.7,3.6
						c0.6,2.4,0.8,5.8,0.2,9.4c-0.6,3.7-1.9,6.8-3.1,8.9C950.2,313.7,949.1,314.8,948.7,314.6z"/>
				</g>
			</g>
		</g>
		<g>
			<g>
				<g>
					<path class="st1" d="M712.4,364.9c-0.2,0-0.5-1.5-0.3-4.3c0.1-2.8,0.8-6.8,2.5-11.6c1.7-4.7,4.6-10,8.7-15.3
						c4.1-5.2,9.3-10.3,15.1-15.2c5.8-4.8,11.6-9.2,17.2-12.6c5.6-3.5,11-6,15.7-7.7c4.7-1.7,8.7-2.5,11.5-2.7
						c1.4-0.2,2.5-0.2,3.2-0.2c0.7,0,1.1,0.1,1.1,0.2c0,0.1-0.4,0.3-1.1,0.5c-0.7,0.2-1.7,0.4-3,0.8c-2.6,0.7-6.4,1.7-10.9,3.6
						c-4.4,1.9-9.6,4.6-14.9,8.1c-5.4,3.5-11,7.8-16.7,12.6c-5.7,4.8-10.8,9.6-14.8,14.6c-4,4.9-7,9.9-8.9,14.3
						c-1.9,4.4-2.9,8.2-3.4,10.9C712.8,363.4,712.7,364.9,712.4,364.9z"/>
				</g>
			</g>
		</g>
		<g>
			<g>
				<g>
					<path class="st1" d="M776.2,345c-0.9,0-1.6-2.6-2.9-5.3c-1.3-2.8-2.8-4.9-2.2-5.6c0.3-0.3,1.1-0.2,2.1,0.5c1,0.7,2.2,2,3,3.7
						c0.8,1.7,1.1,3.5,0.9,4.7C777.1,344.3,776.7,345,776.2,345z"/>
				</g>
			</g>
		</g>
		<g>
			<g>
				<g>
					<path class="st1" d="M772,413.3c-0.8,0.1-2.3-16.5-0.1-36.8c2.1-20.3,7.1-36.2,7.9-36c0.9,0.2-2.5,16.3-4.6,36.3
						C773,396.9,773,413.3,772,413.3z"/>
				</g>
			</g>
		</g>
		<g>
			<g>
				<g>
					<path class="st1" d="M756.2,456.1c-0.1,0.2-1.5,0-4-0.8c-2.5-0.8-6-2.3-10-4.7c-4-2.4-8.4-5.9-12.7-10.5
						c-4.2-4.5-8.2-10.1-11.4-16.6c-3.2-6.4-5.3-12.9-6.6-18.9c-1.3-6-1.9-11.5-2.2-16.2c-0.4-9.3,0.5-15,0.8-14.9
						c0.5,0,0.5,5.7,1.5,14.8c1,9,3.3,21.5,9.4,33.9c3.1,6.1,6.8,11.5,10.8,16c3.9,4.5,8,8,11.7,10.6c3.7,2.6,6.9,4.4,9.2,5.5
						C755,455.2,756.3,455.9,756.2,456.1z"/>
				</g>
			</g>
		</g>
		<g>
			<g>
				<g>
					<path class="st1" d="M769,424.7c-0.9,0.3-4.6-8.1-9.4-18.3c-4.8-10.2-9.1-18.4-8.3-18.9c0.7-0.5,6.3,7.1,11.2,17.5
						C767.5,415.3,769.8,424.4,769,424.7z"/>
				</g>
			</g>
		</g>
		<g>
			<g>
				<g>
					<path class="st1" d="M769.9,369.8c0.4,0.2,0.2,1.7-0.6,4c-0.8,2.3-2.4,5.3-4.8,8.2c-2.3,2.9-4.9,5.2-7,6.5
						c-0.3,0.2-0.5,0.3-0.7,0.5c-0.2,0.1-0.6,0.4-0.9,0.4c-0.7,0.2-1.2,0.1-1.7,0c-0.4-0.2-0.7-0.5-0.6-0.7c0-0.3,0.2-0.5,0.2-0.6
						c0.1-0.1,0-0.1,0.1,0c0,0.1,0.3,0.1,0.5,0.1c0.2-0.1,0.5-0.2,0.7-0.4c0.1-0.1,0.1-0.2,0.3-0.4c0.2-0.2,0.4-0.4,0.6-0.6
						c1.6-1.7,3.7-4,5.9-6.8C766.3,374.6,769,369.5,769.9,369.8z"/>
				</g>
			</g>
		</g>
		<g>
			<g>
				<g>
					<path class="st1" d="M784.3,432.6c-0.5,0.1-1.1-0.8-2.1-2c-0.5-0.6-1.2-1.2-2-1.9c-0.8-0.6-1.7-1.3-2.8-1.8
						c-1.1-0.5-2.1-0.9-3.1-1.1c-1-0.2-1.9-0.4-2.7-0.4c-1.6-0.1-2.7,0-2.9-0.5c-0.2-0.4,0.7-1.3,2.7-1.8c1-0.3,2.1-0.4,3.5-0.2
						c1.3,0.1,2.7,0.5,4.1,1.2c1.4,0.7,2.5,1.6,3.4,2.5c0.9,1,1.5,2,1.9,2.9C784.9,431.2,784.7,432.5,784.3,432.6z"/>
				</g>
			</g>
		</g>
		<g>
			<g>
				<g>
					<path class="st1" d="M785.1,437.6c0.2,0.1,0.3,0.4,0.2,0.9c-0.1,0.5-0.5,1.2-1.1,1.8c-0.7,0.6-1.7,1.2-2.8,1.4
						c-1.2,0.3-2.6,0.2-3.9-0.2c-2.6-0.9-4.2-2.5-5.2-3.7c-0.2-0.3-0.2-0.4-0.4-0.5c-0.1-0.1-0.3-0.1-0.3,0c0,0.1,0,0.1,0.1,0.1
						c0.1,0,0.2-0.1,0.2-0.1c0-0.1,0-0.1,0-0.2c0,0,0-0.3-0.1-0.3c-0.1-0.2-0.2-0.5-0.1-0.7c0.1-0.3,0.4-0.5,0.9-0.4
						c0.4,0,1,0.3,1.3,0.5c1.3,0.7,2.9,1.8,4.6,2.3c1.7,0.6,3.3,0.4,4.5,0C784,438.1,784.7,437.4,785.1,437.6z"/>
				</g>
			</g>
		</g>
		<g>
			<g>
				<g>
					<path class="st1" d="M780.7,467.5c0.1,0.4-1,1.2-3.1,1.5c-1,0.2-2.3,0.1-3.7-0.2c-1.4-0.3-2.8-0.9-4.2-1.7
						c-1.4-0.9-2.5-2-3.4-3.1c-0.8-1.1-1.4-2.3-1.8-3.3c-0.6-2-0.4-3.4,0-3.4c0.5-0.1,1,1,2,2.4c0.5,0.7,1.2,1.5,2,2.3
						c0.8,0.8,1.8,1.6,2.9,2.3c1.1,0.7,2.2,1.2,3.3,1.6c1.1,0.4,2.1,0.6,2.9,0.8C779.3,467,780.6,467,780.7,467.5z"/>
				</g>
			</g>
		</g>
		<g>
			<g>
				<g>
					<path class="st1" d="M784.8,455.6c0.2,0.4-0.6,1.3-2.5,2.1c-1.8,0.8-4.6,1.2-7.6,0.6c-3-0.6-5.4-2.2-6.7-3.7
						c-0.1-0.2-0.3-0.3-0.4-0.5l-0.1-0.1c-0.1-0.1-0.1-0.1-0.2-0.2c-0.1-0.1-0.2-0.3-0.2-0.4c-0.2-0.5-0.2-0.9-0.1-1.3
						c0.1-0.4,0.4-0.8,0.7-0.8c0.2,0,0.2,0,0.3,0.1c0,0.1,0.1,0.1,0.1,0.2c0,0.1,0,0.1,0,0.2c0,0,0,0.1-0.1,0.1c0,0,0,0.1,0,0.1
						c0,0,0,0,0,0c0,0,0,0,0.1,0c0.1,0.1,0.1,0.1,0.2,0.1c0.1,0.1,0.2,0.3,0.4,0.4c0,0,0.1,0,0.1,0c0,0,0,0,0,0l0.1,0.1
						c0.2,0.1,0.4,0.2,0.6,0.3c1.4,0.8,3.5,1.7,5.9,2.2c2.4,0.5,4.7,0.5,6.3,0.4C783.5,455.3,784.6,455.1,784.8,455.6z"/>
				</g>
			</g>
		</g>
		<g>
			<g>
				<g>
					<path class="st1" d="M784.8,453.1c-0.5,0.1-0.9-0.8-1.7-2.1c-0.7-1.2-1.8-2.8-3.2-4.3c-1.5-1.5-3.1-2.5-4.3-3.3
						c-1.2-0.7-2.1-1.2-2-1.7c0-0.4,1.1-0.8,2.8-0.5c0.9,0.1,1.8,0.5,2.9,1c1,0.5,2,1.3,3,2.2c0.9,0.9,1.6,2,2.2,3
						c0.5,1,0.8,2,0.9,2.9C785.6,452,785.2,453.1,784.8,453.1z"/>
				</g>
			</g>
		</g>
		<g>
			<g>
				<g>
					<path class="st1" d="M783,452c0,0.4-0.8,0.9-2.2,1c-1.4,0.1-3.4-0.1-5.4-0.9c-2-0.8-3.6-2.1-4.5-3.2c-0.9-1.1-1.2-2-0.9-2.3
						c0.7-0.6,3.2,1.1,6.6,2.5C779.9,450.5,783,451.1,783,452z"/>
				</g>
			</g>
		</g>
		<g>
			<g>
				<g>
					<path class="st1" d="M777.6,468.5c-0.9,0.2-2.1-2.4-3.2-5.5c-1.1-3.2-1.7-5.9-0.8-6.3c0.8-0.4,2.8,1.9,3.9,5.3
						C778.7,465.3,778.5,468.3,777.6,468.5z"/>
				</g>
			</g>
		</g>
		<g>
			<g>
				<g>
					<path class="st1" d="M760.2,460.8c-0.4,0.1-1.3-1.8-1.9-5.2c-0.3-1.7-0.5-3.7-0.5-6c0-2.3,0.2-4.7,0.7-7.3
						c0.5-2.6,1.2-4.9,2.1-7.1c0.9-2.1,1.8-3.9,2.7-5.3c1.8-2.9,3.4-4.3,3.7-4.1c0.8,0.5-3.5,7.5-5.3,17.1
						C759.7,452.6,761.1,460.6,760.2,460.8z"/>
				</g>
			</g>
		</g>
		<g>
			<g>
				<g>
					<path class="st1" d="M926.2,469.2c-1-0.2,1.3-13,1-28.9c-0.2-15.9-3-28.6-2-28.8c0.4-0.1,1.6,3,2.8,8.1
						c0.6,2.6,1.2,5.7,1.6,9.2c0.4,3.5,0.7,7.4,0.8,11.4c0.1,4.1-0.1,7.9-0.4,11.4c-0.3,3.5-0.8,6.6-1.3,9.3
						C927.7,466.2,926.6,469.3,926.2,469.2z"/>
				</g>
			</g>
		</g>
		<g>
			<g>
				<g>
					<path class="st1" d="M822.7,467.7c0.1,0.4-2.9,1.7-7.8,3.4c-2.5,0.9-5.4,1.8-8.7,2.8c-3.3,1-6.9,2.2-10.9,3
						c-4,0.8-8.1,1.1-11.7,0.3c-3.6-0.8-6.6-2.5-8.6-4.5c-1-1-1.8-2-2.3-3c-0.2-0.5-0.5-1-0.6-1.4c-0.1-0.2-0.2-0.4-0.2-0.6
						c-0.1-0.2-0.1-0.5-0.2-0.7c-0.1-0.8,0.1-1.6,0.4-1.9c0.3-0.3,0.7-0.3,0.8-0.2c0.1,0.1-0.1,0.2-0.2,0.5c-0.1,0.3,0,0.8,0.2,1.3
						c0.1,0.1,0.1,0.3,0.2,0.4c0.1,0.2,0.2,0.3,0.3,0.5c0.2,0.4,0.5,0.7,0.8,1.1c0.6,0.7,1.4,1.5,2.3,2.3c1.9,1.5,4.6,2.7,7.7,3.2
						c3.1,0.5,6.7,0.3,10.5-0.5c3.8-0.8,7.4-1.9,10.7-2.7c3.3-0.9,6.3-1.6,8.9-2.2C819.4,467.7,822.6,467.2,822.7,467.7z"/>
				</g>
			</g>
		</g>
		<g>
			<g>
				<g>
					<path class="st1" d="M927.9,471.2c0.1,0,0.2,0.4,0.3,1.3c0,0.4-0.1,1-0.1,1.6c-0.2,0.6-0.3,1.4-0.6,2.1
						c-1.2,3.1-4.8,6.8-10.3,8.9c-1.4,0.5-2.9,0.9-4.4,1.2c-1.6,0.3-3.2,0.4-4.9,0.5c-3.4,0.2-6.9,0-10.5,0.1
						c-3.6,0.1-7.3,0.5-10.8,2c-3.6,1.4-7.1,3.8-11.4,5.3c-2.1,0.8-4.5,1.2-6.8,1c-2.3-0.1-4.4-0.6-6.4-1.2c-4-1.2-7.6-2.8-11-4.5
						c-6.8-3.4-12.3-7.2-16.9-10.6c-4.5-3.4-8-6.3-10.3-8.4c-2.4-2.1-3.6-3.3-3.4-3.5c0.1-0.2,1.6,0.7,4.2,2.5
						c2.6,1.8,6.3,4.4,10.9,7.5c4.6,3.1,10.2,6.7,16.8,9.8c3.3,1.5,6.9,3,10.6,4.1c1.9,0.5,3.8,0.9,5.7,1c1.9,0.1,3.7-0.2,5.6-0.9
						c3.8-1.3,7.3-3.6,11.3-5.2c4-1.6,8.2-2,12-2c7.5,0,14.1,0.8,19.2-1c5.1-1.6,8.5-4.7,9.9-7.3c0.4-0.6,0.6-1.3,0.8-1.8
						c0.1-0.6,0.3-1,0.4-1.4C927.6,471.6,927.8,471.2,927.9,471.2z"/>
				</g>
			</g>
		</g>
		<g>
			<g>
				<g>
					<path class="st1" d="M683.6,587.3c-0.2-0.1,0.3-2,1.4-5.4c0.3-0.9,0.6-1.8,0.9-2.9c0.4-1,0.8-2.1,1.3-3.3c1-2.4,2-5.1,3.4-8
						c0.7-1.5,1.4-3,2.2-4.6c0.8-1.6,1.7-3.2,2.6-4.8c1.8-3.4,4-6.8,6.2-10.4c4.7-7.1,10.3-14.7,16.6-22.3
						c12.7-15,25.6-27.3,35.1-36c9.5-8.6,15.6-13.7,15.9-13.4c0.3,0.3-5.2,6-14.3,15.1c-9,9.1-21.6,21.5-34.2,36.4
						c-6.2,7.5-11.8,14.9-16.6,21.8c-2.3,3.5-4.5,6.8-6.4,10.1c-0.9,1.6-1.9,3.2-2.7,4.7c-0.8,1.5-1.6,3-2.3,4.4
						c-1.6,2.8-2.7,5.4-3.8,7.7c-0.6,1.1-1.1,2.2-1.5,3.2c-0.4,1-0.8,1.9-1.2,2.7C684.7,585.6,683.8,587.4,683.6,587.3z"/>
				</g>
			</g>
		</g>
		<g>
			<g>
				<g>
					<path class="st1" d="M829.9,541.8c0.3,0.3-3.3,3.8-9.3,8.9c-6,5.2-14.6,12-24.3,19.2c-9.7,7.2-18.8,13.4-25.4,17.7
						c-6.7,4.3-11,6.7-11.2,6.3c-0.5-0.8,15.3-12.2,34.7-26.6C813.7,553,829.3,541.1,829.9,541.8z"/>
				</g>
			</g>
		</g>
		<g>
			<g>
				<g>
					<path class="st1" d="M846.4,555.1c-0.6,0.7-7.9-4.7-15.7-12.6c-7.8-8-13-15.4-12.3-16c0.7-0.6,6.9,5.9,14.6,13.7
						C840.7,548.1,847,554.4,846.4,555.1z"/>
				</g>
			</g>
		</g>
		<g>
			<g>
				<g>
					<path class="st1" d="M910.3,524.5c-0.2,0.4-2-0.4-4.5-2.1c-2.5-1.7-5.6-4.6-8.4-8.4c-2.8-3.7-4.6-7.6-5.6-10.5
						c-1-2.9-1.1-4.8-0.7-4.9c0.9-0.3,3.6,6.4,8.9,13.4C905.2,519.1,910.8,523.7,910.3,524.5z"/>
				</g>
			</g>
		</g>
		<g>
			<g>
				<g>
					<path class="st1" d="M880.6,717.8c-0.1,0.2-2.4-0.7-5.8-3.5c-1.7-1.4-3.7-3.3-5.5-5.8c-1-1.3-1.9-2.7-2.8-4.2
						c-0.9-1.6-1.7-3.3-2.3-5.2c-1.4-3.8-2.1-8.2-2.2-12.8c-0.2-4.7,0.2-9.6,0.4-14.7c0.5-10.2,0.6-21.4,0.3-33.2
						c-0.7-23.6-3.6-44.8-6.3-60c-2.7-15.2-5-24.5-4.5-24.7c0.2-0.1,1,2.2,2.3,6.4c0.6,2.1,1.3,4.7,2.1,7.6c0.7,3,1.6,6.4,2.4,10.2
						c3.3,15.2,6.6,36.5,7.3,60.3c0.4,11.9,0.1,23.2-0.5,33.5c-0.3,5.1-0.8,10-0.7,14.4c0,4.5,0.6,8.6,1.7,12.1c0.6,1.8,1.3,3.4,2,5
						c0.8,1.5,1.6,2.9,2.4,4.2c1.7,2.5,3.4,4.5,4.9,6C878.7,716.3,880.7,717.6,880.6,717.8z"/>
				</g>
			</g>
		</g>
		<g>
			<g>
				<g>
					<path class="st1" d="M929.6,717.1c0-0.1,0.1-0.2,0.4-0.4c0.2-0.1,0.4-0.3,0.6-0.4c0.2-0.2,0.5-0.4,0.8-0.7
						c1.1-1,2.6-2.8,3.6-5.5c1-2.7,1.6-6.2,1.6-10.4c0-2.1-0.1-4.3-0.2-6.7c-0.1-2.4-0.2-4.9-0.3-7.6c-0.9-21.2-2-50.5-3.6-82.8
						c-1.6-32.3-3.8-61.5-5.8-82.6c-0.2-2.6-0.5-5.2-0.7-7.5c-0.2-2.4-0.5-4.6-0.7-6.7c-0.4-4.2-0.8-7.8-1.1-10.8
						c-0.6-5.9-0.8-9.2-0.6-9.2c0.2,0,0.9,3.2,1.8,9.1c0.5,2.9,1,6.5,1.6,10.7c0.3,2.1,0.6,4.3,0.9,6.7c0.3,2.4,0.6,4.9,0.9,7.5
						c2.6,21.1,5.1,50.3,6.8,82.7c1.6,32.4,2.3,61.7,2.6,82.9c0,2.7,0.1,5.2,0.1,7.6c0,2.4,0.1,4.7-0.1,6.8c-0.2,4.3-1,8-2.3,10.8
						c-1.2,2.8-3,4.6-4.3,5.5c-0.3,0.2-0.6,0.4-0.9,0.6c-0.3,0.1-0.5,0.2-0.7,0.3C929.8,717.1,929.6,717.1,929.6,717.1z"/>
				</g>
			</g>
		</g>
		<g>
			<g>
				<g>
					<path class="st1" d="M930.4,716.8c0.1,0.2-0.3,0.8-1.4,1.6c-1.1,0.8-2.7,1.8-5,2.6c-2.3,0.8-5.1,1.5-8.3,1.5
						c-1.6,0-3.3-0.1-5-0.5c-1.7-0.3-3.5-0.9-5.2-1.6c-3.3-1.4-6.1-2.9-8.9-3.4c-2.8-0.6-5.4-0.4-7.5-0.1c-4.3,0.7-6.8,2.2-7,1.8
						c-0.1-0.2,0.3-0.8,1.4-1.6c1.1-0.8,2.8-1.8,5.1-2.5c2.3-0.7,5.3-1.1,8.5-0.6c1.6,0.2,3.3,0.7,4.9,1.3c1.6,0.6,3.2,1.3,4.7,2
						c6.1,2.7,12.3,2.4,16.6,1.4c2.2-0.5,3.8-1.1,5-1.5C929.6,716.9,930.3,716.6,930.4,716.8z"/>
				</g>
			</g>
		</g>
		<g>
			<g>
				<g>
					<path class="st1" d="M880.9,774.6c-0.9,0-1.9-12.2-2.3-27.3c-0.4-15.1,0-27.4,0.9-27.4c0.9,0,1.9,12.2,2.3,27.3
						C882.2,762.3,881.8,774.6,880.9,774.6z"/>
				</g>
			</g>
		</g>
		<g>
			<g>
				<g>
					<path class="st1" d="M831.4,825.4c-0.2-0.1-0.1-1.1,0.4-2.9c0.5-1.8,1.6-4.3,3.2-7.2c1.7-2.9,4.1-6,7-9.3
						c2.9-3.2,6.4-6.5,10.1-9.8c7.3-6.6,14.1-12.5,19.1-16.7c1.3-1,2.4-2,3.4-2.8c1-0.8,1.9-1.4,2.5-2c1.2-1.2,1.1-2.2,1.3-2.2
						c0.1,0,0.3,0.2,0.4,0.8c0.1,0.6-0.1,1.4-0.7,2.2c-0.5,0.9-1.4,1.7-2.2,2.6c-0.9,0.9-1.9,2-3.1,3.1
						c-4.6,4.6-11.1,10.7-18.5,17.4c-3.7,3.3-7.1,6.5-10.1,9.5c-3,3-5.4,5.9-7.3,8.5C833.2,821.8,831.9,825.6,831.4,825.4z"/>
				</g>
			</g>
		</g>
		<g>
			<g>
				<g>
					<path class="st1" d="M926.7,797.1c-1-0.2,2.4-17.9,3.6-40.1c1.2-22.1-0.2-40.1,0.8-40.2c0.4,0,1.3,4.4,2,11.7
						c0.4,3.7,0.6,8,0.7,12.9c0.1,4.9,0,10.2-0.3,15.8c-0.3,5.6-0.8,10.9-1.4,15.7c-0.6,4.8-1.4,9.1-2.1,12.7
						C928.5,792.9,927.1,797.2,926.7,797.1z"/>
				</g>
			</g>
		</g>
		<g>
			<g>
				<g>
					<path class="st1" d="M920.7,796.2c0.3,0.3-3.5,4.5-10.6,10c-3.6,2.7-8,5.8-13.1,8.9c-5.1,3.1-10.9,6.1-17.2,9
						c-3.1,1.4-6.2,2.8-9.2,4c-3,1.2-5.9,2.4-8.8,3.3c-5.7,1.9-11.3,2.7-16,2.3c-4.6-0.4-8.2-1.8-10.4-3.2c-2.2-1.4-3.1-2.5-3-2.7
						c0.2-0.2,1.3,0.6,3.6,1.5c2.2,1,5.6,1.9,10,2c4.3,0.1,9.4-0.9,14.9-2.8c2.7-1,5.6-2.1,8.5-3.4c2.9-1.3,6-2.6,9-4
						c6.2-2.9,11.9-5.8,17-8.7c5.1-2.9,9.6-5.7,13.3-8.1C916.1,799.3,920.4,795.8,920.7,796.2z"/>
				</g>
			</g>
		</g>
		<g>
			<g>
				<g>
					<path class="st1" d="M923.8,794.3c0.3,0.2-2.9,5.3-10.1,11.6c-3.6,3.2-8.1,6.6-13.5,9.9c-5.4,3.3-11.5,6.5-18.1,9.6
						c-6.6,3-13,5.6-18.8,7.8c-2.9,1.1-5.8,2.2-8.5,2.9c-2.8,0.7-5.5,1.1-8,1c-5-0.2-8.8-2.2-10.8-4c-2.1-1.9-2.5-3.4-2.4-3.5
						c0.2-0.2,1.1,1.1,3.1,2.5c1,0.7,2.4,1.4,4.1,1.9c1.7,0.5,3.7,0.8,5.9,0.8c2.2-0.1,4.7-0.5,7.2-1.3c2.6-0.8,5.3-1.9,8.1-3.1
						c5.7-2.4,12.1-5,18.6-8c6.5-3,12.6-6.1,17.9-9.2c5.3-3.1,9.9-6.3,13.6-9.1C919.6,798.5,923.4,793.9,923.8,794.3z"/>
				</g>
			</g>
		</g>
		<g>
			<g>
				<g>
					<path class="st1" d="M684,590.5c0.9-0.2,2,1.4,2.6,3.5c0.5,2.2,0.3,4.1-0.6,4.3c-0.9,0.2-2-1.4-2.6-3.5
						C682.9,592.6,683.1,590.7,684,590.5z"/>
				</g>
			</g>
		</g>
		<g>
			<g>
				<g>
					<path class="st1" d="M725.9,667.9c0,0.2-1.4,0.5-4.1,0.5c-2.7,0-6.6-0.4-11.1-2c-2.3-0.8-4.7-2-7.1-3.6
						c-2.4-1.7-4.6-3.9-6.4-6.7c-1.8-2.8-2.9-6.2-3.5-9.6c-0.7-3.4-0.9-6.9-1.3-10.4c-1.7-14-4.7-26.6-6.9-35.6
						c-2.2-9.1-3.4-14.8-2.9-14.9c0.4-0.1,2.4,5.3,5.2,14.3c2.7,9,6.2,21.5,7.9,35.9c0.4,3.6,0.7,7,1.2,10.2c0.6,3.2,1.5,6.1,3,8.6
						c1.4,2.5,3.4,4.5,5.4,6.1c2.1,1.6,4.2,2.8,6.3,3.7c4.2,1.8,7.8,2.5,10.4,2.9C724.4,667.5,725.9,667.6,725.9,667.9z"/>
				</g>
			</g>
		</g>
		<g>
			<g>
				<g>
					<path class="st1" d="M763,647.4c-0.1-0.2,0.7-0.6,1.8-1.3c1.1-0.7,2.6-2,3.9-4c1.2-2,2.2-4.8,2.2-7.9c0.1-3.2-0.7-6.6-1.9-10.2
						c-1.2-3.6-2.6-7.1-3.8-10.3c-1.2-3.2-2.3-6-3.2-8.4c-1.8-4.8-2.8-7.9-2.4-8c0.4-0.2,2.1,2.5,4.5,7.1c1.2,2.3,2.5,5.1,3.9,8.2
						c1.4,3.1,2.8,6.6,4.1,10.4c1.3,3.8,2.1,7.8,1.8,11.4c-0.2,3.7-1.6,6.9-3.4,9.1c-1.7,2.2-3.8,3.4-5.2,3.9
						C763.9,647.7,763,647.6,763,647.4z"/>
				</g>
			</g>
		</g>
		<g>
			<g>
				<g>
					<path class="st1" d="M727.9,698.2c-0.8,0.3-3.9-6-6.5-14.2c-2.6-8.2-3.7-15.1-2.9-15.3c0.9-0.2,3.4,6.2,6,14.3
						C727.1,691.2,728.7,697.9,727.9,698.2z"/>
				</g>
			</g>
		</g>
		<g>
			<g>
				<g>
					<path class="st1" d="M774.7,692.4c-0.9,0.2-3.5-8.7-5.9-19.7c-2.4-11.1-3.6-20.2-2.7-20.4c0.9-0.2,3.5,8.7,5.9,19.7
						C774.4,683,775.6,692.2,774.7,692.4z"/>
				</g>
			</g>
		</g>
		<g>
			<g>
				<g>
					<path class="st1" d="M673.8,733.3c-0.3-0.2,1.2-3.5,5.1-7.9c1.9-2.2,4.4-4.6,7.2-7.1c2.9-2.5,6.2-5,9.7-7.6
						c3.5-2.6,6.9-5,10.3-6.9c3.3-1.9,6.6-3.3,9.4-4.1c2.9-0.8,5.3-1,6.9-0.9c1.6,0.1,2.5,0.4,2.5,0.6c0,0.5-3.6,0.5-8.7,2.5
						c-2.6,1-5.5,2.5-8.6,4.5c-3.1,2-6.4,4.4-9.9,7c-3.5,2.6-6.8,5-9.7,7.3c-2.9,2.3-5.5,4.5-7.5,6.4
						C676.4,730.9,674.2,733.6,673.8,733.3z"/>
				</g>
			</g>
		</g>
		<g>
			<g>
				<g>
					<path class="st1" d="M775.7,711.9c0.1,0.2-0.8,1.3-3,3c-2.2,1.7-5.7,3.7-10.2,5.5c-4.5,1.8-10,3.6-16.2,5.4
						c-6.1,1.8-12.9,3.6-20.1,5.3c-14.4,3.3-27.7,5.3-37.3,6.3c-2.4,0.2-4.5,0.5-6.6,0.5c-2,0-4-0.4-5.1-1.5c-1.2-1-1.6-2.2-1.6-3
						c0-0.8,0.2-1.2,0.3-1.1c0.1,0,0.1,0.4,0.3,1c0.2,0.6,0.7,1.4,1.8,2.1c1,0.6,2.5,0.9,4.3,0.7c1.8-0.2,4-0.6,6.4-1
						c9.5-1.6,22.6-3.9,36.9-7.2c7.1-1.6,13.9-3.4,20.1-5c6.1-1.7,11.7-3.2,16.2-4.7c4.5-1.5,8-3.2,10.3-4.5
						C774.3,712.6,775.6,711.7,775.7,711.9z"/>
				</g>
			</g>
		</g>
		<g>
			<g>
				<g>
					<path class="st1" d="M776.2,709.1c-0.9-0.2-0.7-4.1-1.1-8.8c-0.4-4.7-1.1-8.5-0.3-8.9c0.4-0.2,1.2,0.7,1.9,2.2
						c0.7,1.5,1.4,3.8,1.6,6.4c0.2,2.6-0.1,4.9-0.6,6.6C777.3,708.2,776.6,709.2,776.2,709.1z"/>
				</g>
			</g>
		</g>
		<g>
			<g>
				<g>
					<path class="st1" d="M767.1,649.3c0.3,0.3-1,2.1-3.8,4.2c-0.7,0.5-1.5,1.1-2.4,1.6c-0.9,0.6-1.9,1-2.9,1.5
						c-2.1,1-4.6,1.8-7.2,2.4c-2.6,0.5-5.2,0.7-7.5,0.7c-1.2-0.1-2.3-0.1-3.3-0.3c-1-0.1-2-0.3-2.8-0.5c-3.4-0.8-5.3-2-5.2-2.4
						c0.1-0.5,2.2-0.1,5.5,0.1c0.8,0,1.7,0.1,2.7,0.1c1,0,2,0,3.1,0c2.1-0.1,4.5-0.4,6.9-0.9c2.4-0.5,4.7-1.2,6.7-1.9
						c1-0.4,2-0.8,2.8-1.2c0.9-0.4,1.7-0.8,2.4-1.2C765,650.1,766.7,649,767.1,649.3z"/>
				</g>
			</g>
		</g>
		<g>
			<g>
				<g>
					<path class="st1" d="M889,457.9c0,0.2-0.7,0.4-2,0.3c-1.3-0.1-3.1-0.3-5.3-1.1c-2.2-0.8-4.7-2-7.2-3.7c-2.5-1.7-5-4-7.3-6.7
						c-2.9-3.4-5.2-7-6.9-10.2c-1.7-3.2-3-5.9-3.9-7.9l1.6-0.4c-0.3,2.3-0.7,3.7-1,3.7c-0.3,0-0.6-1.4-0.7-3.8l-0.2-2.9l1.8,2.6
						c1.3,1.8,2.9,4.3,4.8,7.3c1.9,2.9,4.2,6.3,7,9.5c4.2,5,9,8.5,12.9,10.4C886.3,456.9,889.1,457.4,889,457.9z"/>
				</g>
			</g>
		</g>
		<g>
			<g>
				<g>
					<path class="st1" d="M809.3,443.9c-0.4,0-0.7-6.6-0.5-17.3c0.2-10.7,0.7-25.5,1.9-41.8c1.2-16.3,2.7-31,4.1-41.6
						c1.4-10.6,2.5-17.1,3-17.1c0.5,0.1,0.1,6.7-0.7,17.3c-0.8,10.7-1.9,25.4-3.1,41.6c-1.1,16.3-2.1,31-2.8,41.6
						C810.3,437.3,809.7,443.9,809.3,443.9z"/>
				</g>
			</g>
		</g>
	</g>
	<g id="hand_and_flag">
		<path d="M1055.2,858.5c-3.8,0-6.9-3.1-6.9-6.9c1.3-8.3,2.9-20.8,3.1-36.2c0.2-11.8-0.6-20.5-0.7-22.1c-1.2-17.1-2.2-163.3-2.4-562
			c0-0.6,0.2-3,2-4.9c0.4-0.4,2.5-2.6,4.9-2c2.5,0.6,3.3,4.7,3.6,6.1c2,9.8-1.3,153.8-2.6,207.6c0.3,4.1,0.6,8.2,1,12.3
			c-0.4,31.9-0.6,64-0.6,96.3c-0.1,103.9,1.9,205.6,5.6,304.8C1061.3,855.6,1058.3,858.5,1055.2,858.5z"/>
		<g>
			<g>
				<g>
					<path class="st1" d="M1032.2,408c0,0.1-0.6,0.1-1.8,0c-0.6-0.1-1.3-0.2-2.1-0.3c-0.8-0.1-1.8-0.3-2.8-0.6
						c-4.2-0.9-10.3-2.7-17.4-5.8c-3.5-1.6-7.3-3.5-11.3-5.8c-3.9-2.3-8-5-12.1-8.1c-8.2-6.1-16.5-13.9-24.3-22.8
						c-7.8-8.9-14.3-18-20-26.5c-2.8-4.3-5.4-8.3-7.7-12.2c-2.3-3.9-4.5-7.4-6.7-10.5c-2.2-3.1-4.4-5.7-6.6-7.7
						c-2.2-2-4.3-3.5-6.1-4.5c-3.7-2-6.1-2.3-6-2.6c0-0.1,2.5-0.3,6.6,1.5c2,0.9,4.4,2.3,6.7,4.3c2.4,2,4.8,4.6,7.2,7.7
						c2.4,3.1,4.7,6.6,7.2,10.4c2.4,3.8,5.1,7.8,7.9,12c5.7,8.3,12.3,17.3,19.9,26.1c7.6,8.8,15.7,16.4,23.6,22.5
						c4,3.1,7.9,5.8,11.7,8.1c3.8,2.3,7.5,4.3,10.9,6c6.8,3.3,12.7,5.3,16.7,6.6c1,0.3,1.9,0.6,2.7,0.8c0.8,0.2,1.5,0.4,2,0.6
						C1031.7,407.6,1032.2,407.9,1032.2,408z"/>
				</g>
			</g>
		</g>
		<g>
			<g>
				<g>
					<path class="st1" d="M1010.6,441.7c0,0.2-2,0.3-5.6,0.2c-3.6-0.1-8.9-0.7-15.2-2c-6.4-1.3-13.8-3.4-21.8-6.6
						c-8-3.2-16.4-7.5-24.8-12.8c-16.7-10.8-29.6-23.5-38.1-33.2c-4.3-4.9-7.5-9-9.6-11.9c-2.1-2.9-3.2-4.6-3-4.8
						c0.4-0.3,5.5,5.8,14.3,15.1c8.9,9.2,21.8,21.4,38.1,32c8.2,5.2,16.4,9.5,24.2,12.8c7.8,3.3,15,5.6,21.2,7.1
						C1002.7,440.8,1010.6,441.1,1010.6,441.7z"/>
				</g>
			</g>
		</g>
		<g>
			<g>
				<g>
					<path class="st1" d="M1024.1,437c-0.4,0-0.9-1.6-1-4.2c0-1.3,0.1-2.9,0.5-4.6c0.4-1.7,1-3.6,1.8-5.4c3.2-7.2,6.4-12.6,7.2-12.2
						c0.8,0.4-1.1,6.4-4.2,13.5c-0.7,1.7-1.4,3.4-1.9,4.9c-0.5,1.5-0.8,2.9-1.1,4.1C1024.9,435.4,1024.6,436.9,1024.1,437z"/>
				</g>
			</g>
		</g>
		<g>
			<g>
				<g>
					<path class="st1" d="M1045.4,412.9c-0.1,0.9-2.6,1.5-5.7,1.3s-5.6-1.1-5.5-2c0.1-0.9,2.6-1.5,5.7-1.3
						C1043,411.1,1045.5,412,1045.4,412.9z"/>
				</g>
			</g>
		</g>
		<g>
			<g>
				<g>
					<path class="st1" d="M1054.3,430.3c0.1-0.5,1.9-0.3,4.5-0.8c2.6-0.4,6.1-1.6,8.4-4.5c1.1-1.4,1.6-3.1,1.8-4.7
						c0.1-1.6,0-3.1-0.5-4.2c-0.8-2.4-2.2-3.4-2-3.8c0.1-0.2,0.6-0.2,1.4,0.2c0.8,0.4,1.8,1.2,2.6,2.6c0.8,1.4,1.4,3.3,1.4,5.4
						c0,2.1-0.7,4.5-2.3,6.5c-1.6,1.9-3.6,3.2-5.5,3.9c-1.9,0.7-3.8,0.9-5.3,0.8C1055.8,431.6,1054.2,430.7,1054.3,430.3z"/>
				</g>
			</g>
		</g>
		<g>
			<g>
				<g>
					<path class="st1" d="M1049.8,426.3c-0.4,0-0.8-1.1-0.5-2.8c0.1-0.8,0.5-1.8,1-2.8c0.6-1,1.3-2,2.3-2.9c1-0.9,2.1-1.5,3.1-1.9
						c1.1-0.4,2.1-0.6,2.9-0.7c1.7-0.1,2.7,0.4,2.7,0.9c0,0.5-0.9,0.8-2.2,1.4c-0.6,0.3-1.3,0.7-2.1,1.1c-0.7,0.5-1.5,1-2.3,1.7
						c-0.7,0.7-1.4,1.4-2,2.1c-0.5,0.7-1,1.4-1.4,1.9C1050.8,425.5,1050.3,426.4,1049.8,426.3z"/>
				</g>
			</g>
		</g>
		<g>
			<g>
				<g>
					<path class="st1" d="M1037.8,439.9c-0.2,0.9-2.7,0.9-5.5,0.2c-2.8-0.8-4.8-2.1-4.6-3c0.2-0.9,2.7-0.9,5.5-0.2
						C1035.9,437.7,1038,439,1037.8,439.9z"/>
				</g>
			</g>
		</g>
		<g>
			<g>
				<g>
					<path class="st1" d="M1060.7,415.6c-0.2,0-0.5-2.6-0.9-7.4c-0.4-4.8-0.8-11.7-1.2-20.3c-0.9-17.2-1.8-40.9-2.7-67.1
						c-0.9-26.2-1.5-50-1.7-67.1c-0.1-8.6-0.2-15.6-0.1-20.4c0-4.8,0.2-7.5,0.4-7.5c0.2,0,0.5,2.6,0.9,7.4
						c0.4,4.8,0.8,11.7,1.2,20.3c0.9,17.2,1.8,40.9,2.7,67.1c0.9,26.2,1.5,50,1.7,67.1c0.1,8.6,0.2,15.6,0.1,20.4
						S1060.9,415.6,1060.7,415.6z"/>
				</g>
			</g>
		</g>
		<g>
			<g>
				<g>
					<path class="st1" d="M1050.6,416.8c-0.2,0-0.7-2.6-1.3-7.5c-0.6-4.8-1.3-11.9-2-20.5c-1.4-17.4-2.5-41.4-2.6-68
						c-0.2-26.6,0.5-50.7,1.4-68.1c0.4-8.7,0.9-15.7,1.3-20.6c0.4-4.9,0.8-7.5,1-7.5c0.2,0,0.3,2.7,0.3,7.6c0,4.9-0.1,11.9-0.3,20.6
						c-0.3,17.4-0.6,41.4-0.4,68c0.1,26.5,0.9,50.5,1.7,67.9c0.4,8.7,0.8,15.7,1,20.6C1050.7,414.1,1050.8,416.8,1050.6,416.8z"/>
				</g>
			</g>
		</g>
		<g>
			<g>
				<g>
					<path class="st1" d="M1058.3,446.2c-0.2-0.4,0.9-1.2,2.4-2.6c0.7-0.7,1.5-1.5,2.4-2.5c0.8-1,1.6-2.2,2.3-3.5
						c0.7-1.3,1.2-2.6,1.6-3.9c0.4-1.2,0.6-2.4,0.8-3.4c0.3-2,0.4-3.3,0.8-3.4c0.4-0.1,1.2,1.1,1.5,3.4c0.2,1.1,0.1,2.5-0.1,4
						c-0.3,1.5-0.8,3.1-1.6,4.7c-0.8,1.6-1.9,2.9-3,4c-1.1,1.1-2.2,1.9-3.3,2.4C1060,446.5,1058.5,446.6,1058.3,446.2z"/>
				</g>
			</g>
		</g>
		<g>
			<g>
				<g>
					<path class="st1" d="M1055.4,447.4c0.1,0.2-0.1,0.6-0.7,0.8c-0.6,0.3-1.8,0.2-2.8-0.4c-1-0.6-2.1-1.8-2.4-3.5
						c-0.3-1.7,0.3-3.5,1.3-4.9c0.9-1.4,2.1-2.4,3.1-3.1c1-0.7,1.9-1.3,2.7-1.8c1.5-0.9,2.3-1.7,2.7-1.5c0.4,0.2,0.2,1.6-1.1,3.2
						c-0.6,0.8-1.5,1.6-2.3,2.4c-0.9,0.8-1.7,1.7-2.4,2.6c-0.7,0.9-1,1.9-1,2.7c0,0.7,0.4,1.5,0.8,2c0.4,0.5,0.9,0.8,1.3,1
						C1055,447.2,1055.3,447.2,1055.4,447.4z"/>
				</g>
			</g>
		</g>
		<g>
			<g>
				<g>
					<path class="st1" d="M1063.2,455.4c-0.2-0.4,0.5-1.2,1.3-2.6c0.8-1.4,1.7-3.4,2.1-5.8c0.5-2.4,0.6-4.7,0.8-6.5
						c0.2-1.7,0.5-2.9,1-2.9c0.4,0,1,1,1.3,2.8c0.4,1.8,0.7,4.3,0.1,7.2c-0.6,2.9-2.1,5.4-3.6,6.6
						C1064.7,455.6,1063.4,455.7,1063.2,455.4z"/>
				</g>
			</g>
		</g>
		<g>
			<g>
				<g>
					<path class="st1" d="M1063,465.8c-0.4-0.3,0-1.4,0.8-3c0.8-1.6,2-3.7,2.9-6.1c0.9-2.3,1.1-4.6,1.1-6.2c0-1.6-0.3-2.7,0.2-3
						c0.4-0.2,1.4,0.6,2.1,2.5c0.7,1.9,0.8,4.9-0.3,7.8c-1.1,2.9-2.7,4.9-4,6.3C1064.4,465.5,1063.4,466.1,1063,465.8z"/>
				</g>
			</g>
		</g>
		<g>
			<g>
				<g>
					<path class="st1" d="M1063.7,473c-0.7-0.6,0.5-3.2,1.5-6.4c1.1-3.2,1.7-6,2.6-6c0.4,0,0.9,0.8,1,2.1c0.2,1.3,0,3.1-0.6,5
						c-0.6,1.9-1.6,3.4-2.6,4.3C1064.9,472.9,1064.1,473.2,1063.7,473z"/>
				</g>
			</g>
		</g>
		<g>
			<g>
				<g>
					<path class="st1" d="M1066.2,452.5c0.2,0.4-0.5,1.2-1.7,2.6c-0.6,0.7-1.4,1.6-2.7,2.3c-0.7,0.4-1.5,0.6-2.4,0.6
						c-0.9,0-1.8-0.1-2.8-0.6c-1-0.5-1.8-1.5-2-2.6c-0.2-1.1,0-1.8,0.1-2.5c0.3-1.3,0.7-2.4,1.2-3.3c1-1.7,2.1-2.4,2.4-2.2
						c0.4,0.3,0,1.4-0.3,3c-0.2,0.8-0.3,1.8-0.4,2.9c0,0.6,0,1.1,0.1,1.3c0.1,0.2,0.2,0.3,0.5,0.5c0.6,0.3,1.7,0.3,2.4,0.1
						c0.8-0.3,1.7-0.9,2.5-1.3c0.8-0.5,1.5-0.8,2.1-0.9C1065.7,452.2,1066.1,452.3,1066.2,452.5z"/>
				</g>
			</g>
		</g>
		<g>
			<g>
				<g>
					<path class="st1" d="M1063,465.2c0.2,0.1,0.3,0.4,0.2,0.7c-0.1,0.4-0.3,0.9-0.9,1.2c-0.5,0.4-1.3,0.7-2.2,0.6
						c-0.9,0-2-0.5-2.7-1.5c-0.7-1-0.8-2.2-0.5-3c0.2-0.9,0.7-1.5,1.3-1.9c0.5-0.4,1.1-0.5,1.5-0.4c0.4,0.1,0.6,0.2,0.6,0.5
						c0.1,0.5-0.3,0.9-0.3,1.5c-0.1,0.6,0,1.3,0.2,1.5c0.1,0.2,0.8,0.6,1.4,0.6C1062,465.2,1062.6,465,1063,465.2z"/>
				</g>
			</g>
		</g>
		<g>
			<g>
				<g>
					<path class="st1" d="M1062,470.6c-0.7,0.5-1.8,0.3-2.3-0.5c-0.5-0.8-0.4-1.8,0.4-2.3c0.7-0.5,1.8-0.3,2.3,0.5
						S1062.8,470.1,1062,470.6z"/>
				</g>
			</g>
		</g>
		<g>
			<g>
				<g>
					<ellipse class="st1" cx="1049.6" cy="642.2" rx="1.6" ry="216.2"/>
				</g>
			</g>
		</g>
		<g>
			<g>
				<g>
					<path class="st1" d="M1059.6,866.6c-0.9,0-1.6-88.9-1.6-198.5s0.7-198.5,1.6-198.5s1.6,88.9,1.6,198.5
						S1060.5,866.6,1059.6,866.6z"/>
				</g>
			</g>
		</g>
		<g>
			<g>
				<g>
					<path class="st1" d="M1327.5,192.6c-0.3,0.2-2.5-3.5-8.1-8.5c-2.8-2.5-6.4-5.4-11.1-8c-2.3-1.4-4.9-2.6-7.6-3.8
						c-2.8-1.2-5.8-2.2-9-3.1c-12.9-3.6-29.4-3.7-46.6,1.1c-8.6,2.4-17.3,5.9-25.9,10.4c-8.6,4.5-17.2,9.9-25.6,15.8
						c-4.2,3-8.4,6-12.4,9c-4.1,3-8.1,6-12.1,8.8c-4.1,2.8-8.2,5.4-12.5,7.5c-4.3,2.2-8.7,3.9-13.1,5.1c-8.8,2.6-17.6,3.5-25.7,3.1
						c-2,0-4-0.3-6-0.4c-1.9-0.3-3.9-0.5-5.7-0.9c-1.9-0.3-3.7-0.8-5.4-1.2c-1.7-0.5-3.4-1-5.1-1.6c-3.3-1.1-6.3-2.3-9.1-3.3
						c-2.9-1-5.6-1.7-8.2-2.2c-5.2-0.9-9.9-0.7-13.6-0.2c-3.7,0.5-6.5,1.4-8.4,2c-1.9,0.6-2.9,1-2.9,0.9c0-0.1,0.8-0.7,2.7-1.5
						c1.8-0.8,4.7-1.9,8.5-2.6c3.8-0.7,8.6-1.1,14.1-0.4c2.7,0.4,5.6,1.1,8.6,2c3,0.9,6,2,9.2,3.1c1.6,0.5,3.3,0.9,5,1.4
						c1.7,0.4,3.5,0.8,5.3,1.1c1.8,0.3,3.7,0.5,5.5,0.8c1.9,0.1,3.8,0.3,5.8,0.3c7.9,0.2,16.3-0.8,24.8-3.3c4.2-1.3,8.5-2.9,12.6-5
						c4.1-2.1,8.1-4.6,12.1-7.4c4-2.8,7.9-5.8,12-8.8c4.1-3,8.2-6.1,12.5-9.1c8.6-6,17.2-11.4,26-16c8.8-4.5,17.7-8.1,26.6-10.4
						c17.6-4.8,34.7-4.5,48-0.5c3.3,1,6.4,2.2,9.2,3.4c2.8,1.3,5.4,2.7,7.7,4.1c4.7,2.9,8.3,6,11,8.7c1.4,1.3,2.5,2.7,3.4,3.8
						c0.9,1.2,1.7,2.2,2.2,3C1327.1,191.6,1327.6,192.5,1327.5,192.6z"/>
				</g>
			</g>
		</g>
		<g>
			<g>
				<g>
					<path class="st1" d="M1293.1,407.1c0-0.1,0.4,0.1,1-0.2c0.3-0.1,0.6-0.4,0.9-0.8c0.3-0.4,0.5-0.9,0.4-1.5
						c-0.1-0.8-0.6-1.6-1.5-2.4c-0.8-0.8-1.9-1.6-3-2.6c-2.2-1.9-4.8-4.1-7.8-6.4c-3-2.3-6.5-4.8-10.7-7c-4.1-2.1-8.9-3.9-14.1-5.1
						c-10.5-2.3-23-2.2-35.9,1.1c-12.9,3.2-25.9,9.3-39,16.6c-7.8,4.3-15.3,8.9-22.8,12.8c-7.6,3.9-15.3,7.1-23.1,8.8
						c-7.8,1.6-15.4,1.8-22.4,0.9c-7-0.9-13.3-2.6-18.9-4.6c-5.6-2-10.4-4.3-14.6-6.4c-4.2-2.1-7.6-4.2-10.4-5.9
						c-2.8-1.8-4.9-3.2-6.3-4.2c-1.4-1-2.1-1.6-2-1.7c0.1-0.2,3.3,1.7,9,4.8c2.9,1.5,6.4,3.5,10.6,5.4c4.2,1.9,9,4.1,14.6,5.9
						c5.5,1.8,11.7,3.4,18.4,4.1c6.7,0.7,14,0.4,21.4-1.2c7.4-1.7,14.8-4.8,22.2-8.7c7.4-3.9,14.9-8.5,22.7-12.8
						c6.6-3.7,13.2-7.1,19.9-9.9c6.7-2.9,13.3-5.2,20-6.8c13.3-3.2,26.3-3.2,37.2-0.6c5.5,1.3,10.4,3.3,14.6,5.7
						c4.2,2.3,7.7,5,10.7,7.5c3,2.5,5.5,4.8,7.6,6.8c1.1,1,2,1.9,2.9,2.8c0.8,0.9,1.5,2,1.5,3.1c0,0.8-0.3,1.5-0.7,2
						c-0.4,0.4-0.8,0.7-1.2,0.8c-0.4,0.1-0.7,0-0.9-0.1C1293.2,407.2,1293.1,407.2,1293.1,407.1z"/>
				</g>
			</g>
		</g>
		<g>
			<g>
				<g>
					<path class="st1" d="M1293,406.6c-0.2-0.1,0.5-2.9,1.9-8.1c1.4-5.2,3.4-12.6,5.6-21.8c2.2-9.3,4.7-20.3,7.1-32.7
						c2.5-12.3,4.9-26,7.4-40.3c2.5-14.3,4.9-28,7-40.4c2.2-12.4,4.3-23.6,5.5-33c1.3-9.4,1.8-17.1,1.9-22.4
						c0.2-5.3,0.1-8.3,0.3-8.3c0.2,0,0.7,2.9,0.9,8.3c0.2,5.4,0.1,13.1-0.9,22.7c-1,9.5-2.8,20.8-4.9,33.2
						c-2,12.4-4.3,26.1-6.8,40.5c-2.5,14.3-5,28-7.6,40.4c-2.6,12.4-5.3,23.4-7.8,32.7c-2.5,9.2-4.9,16.6-6.6,21.6
						C1294.3,403.9,1293.2,406.7,1293,406.6z"/>
				</g>
			</g>
		</g>
		<g>
			<g>
				<g>
					<path class="st1" d="M1045,453.3c-0.2,0.4-1.3,0.2-2.8-0.7c-1.5-0.9-3.3-2.5-4.8-4.7c-1.4-2.2-2.2-4.6-2.4-6.3
						c-0.2-1.7,0.1-2.8,0.5-2.9c0.9-0.1,2,3.6,4.6,7.4C1042.6,449.9,1045.5,452.5,1045,453.3z"/>
				</g>
			</g>
		</g>
	</g>
	<g id="head">
		<path d="M774.1,156.4c7-1.1,15.7-3.3,25-7.8c3.8-1.8,7.2-3.8,10.2-5.8c0.3,2.7,3.2,28.6,22.4,37.1c2.7,1.2,6.3,2.3,10.9,2.6
			c3.7,0.3,5.7,1.7,6.7,2.5c5,4.2,4.7,14,1.4,20c-0.8,1.5-2.2,4-4.9,4.9c-2.7,0.9-4.3-0.7-5.7,0.1c-3,1.6-1.7,11.1,1.3,19.8
			c3.4,9.9,7.1,20.4,16,24.3c16.9,7.4,39.8-14.9,42.8-17.9c12.9-12.9,9.5-19.1,20.5-28.8c14.7-12.9,25.8-6.2,48.6-15.3
			c4.5-1.8,35.8-15,49.2-46.7c3.1-7.3,12.9-30.5,1.9-53.1c-12-24.5-39.9-30.4-47.3-32c-31.5-6.6-58.6,8.5-71,15.3
			c-27,15-23.6,25.2-44.8,32.6c-27.7,9.6-38.4-6.2-65.2,5.1c-3.2,1.3-30.1,13.1-35.2,37.1c-0.5,2.5-3.2,16.5,4.5,28.8
			c1.3,2.1,5.2,8.4,8.3,7.7C774.2,186,774.7,170.9,774.1,156.4z"/>
		<g>
			<g>
				<g>
					<path class="st1" d="M803.8,144.9c0.1,0.5-2.3,1.1-6.1,2.4c-3.7,1.2-8.8,3.2-14,6c-5.2,2.8-9.5,6.1-12.6,8.6
						c-0.8,0.6-1.4,1.1-1.8,1.7c-0.4,0.5-0.7,1.1-0.8,1.5c-0.1,0.4-0.1,0.8,0,1c0.1,0.2,0.1,0.4,0.1,0.5c-0.1,0.1-0.3,0.1-0.6-0.1
						c-0.3-0.2-0.7-0.7-0.7-1.4c-0.1-0.7,0.1-1.5,0.5-2.4c0.3-0.8,1.1-1.7,1.8-2.4c2.7-3,7.1-6.8,12.6-9.8c5.5-3,11-4.7,15-5.4
						C801.2,144.4,803.8,144.5,803.8,144.9z"/>
				</g>
			</g>
		</g>
		<g>
			<g>
				<g>
					<path class="st1" d="M853.6,250.6c0,0.2-0.7,0.4-1.9,0.3c-1.2-0.1-2.9-0.4-4.9-1.4c-2-1-4.1-2.8-5.6-5.3
						c-1.6-2.5-2.6-5.6-3-8.8c-0.4-3.3-0.2-6.4,0.2-9.1c0.5-2.7,1.2-5.2,1.9-7.1c1.5-3.9,3-6,3.4-5.8c0.4,0.2-0.3,2.6-1.2,6.5
						c-0.5,1.9-0.9,4.3-1.2,6.8c-0.3,2.6-0.3,5.4,0,8.3c0.3,2.9,1.1,5.6,2.3,7.7c1.2,2.1,2.7,3.8,4.2,4.8c1.5,1.1,3,1.7,4,2.2
						C853,250.1,853.6,250.4,853.6,250.6z"/>
				</g>
			</g>
		</g>
		<g>
			<g>
				<g>
					<path class="st1" d="M806.4,274.8c-0.2,0.1-1.1-1.5-2.8-4.3c-1.7-2.8-4.2-6.8-7.8-11.3c-1.8-2.3-3.9-4.6-6.4-6.9
						c-2.4-2.4-5.3-4.7-8.1-7.6c-2.8-3-5.1-6.7-6.8-10.7c-1.7-4-2.9-8.4-3.8-12.9c-3-17.9-2.4-34.4-0.9-46.1
						c0.7-5.9,1.7-10.6,2.5-13.8c0.8-3.2,1.4-4.9,1.6-4.9c0.2,0,0,1.9-0.3,5.1c-0.4,3.3-1,8-1.4,13.8c-0.4,5.8-0.7,12.8-0.5,20.5
						c0.1,3.8,0.3,7.9,0.7,12.1c0.4,4.2,0.9,8.5,1.7,12.8c0.8,4.3,1.9,8.5,3.5,12.2c1.6,3.8,3.6,7.1,6.1,9.9
						c2.5,2.8,5.3,5.2,7.8,7.7c2.5,2.5,4.6,5,6.3,7.5c3.5,4.8,5.7,9.1,7.1,12.1C806.1,272.9,806.6,274.7,806.4,274.8z"/>
				</g>
			</g>
		</g>
		<g>
			<g>
				<g>
					<path class="st1" d="M799,210.8c-0.1,0.4-1.1,0.7-2.6,0.2c-0.8-0.3-1.6-0.8-2.3-1.5c-0.7-0.8-1.4-1.7-1.9-2.9
						c-0.4-1.1-0.6-2.3-0.6-3.4c0.1-1.1,0.3-2,0.7-2.7c0.7-1.4,1.7-1.9,2-1.7c0.4,0.3,0.2,1.1,0.2,2.3c0,0.6,0,1.2,0.1,2
						c0.1,0.7,0.3,1.5,0.6,2.3c0.3,0.8,0.7,1.5,1.1,2.1c0.4,0.6,0.8,1.1,1.3,1.5C798.4,209.8,799.1,210.3,799,210.8z"/>
				</g>
			</g>
		</g>
		<g>
			<g>
				<g>
					<path class="st1" d="M817.8,207.3c0.4,0.2-0.1,2.3-2.2,5.2c-2,2.9-5.6,6.4-10.6,8.6c-2.5,1.1-5,1.8-7.3,2.1
						c-2.4,0.3-4.6,0.2-6.3-0.3c-1.8-0.5-3.1-1.4-3.8-2.2c-0.7-0.8-0.8-1.4-0.7-1.5c0.4-0.3,1.9,1.2,4.9,1.4
						c1.5,0.1,3.4,0.1,5.4-0.4c2.1-0.4,4.3-1.1,6.5-2.1c4.4-2,7.9-4.8,10.1-7.1C816.1,208.8,817.3,207.1,817.8,207.3z"/>
				</g>
			</g>
		</g>
		<g>
			<g>
				<g>
					<path class="st1" d="M783.3,186.3c-0.4,0.1-1-0.4-1.5-1.4c-0.5-1-0.7-2.6-0.6-4.3c0.2-1.7,0.8-3.2,1.4-4.1
						c0.7-0.9,1.3-1.3,1.7-1.1c0.8,0.5,0.3,2.8,0.1,5.5C784.2,183.6,784.2,186,783.3,186.3z"/>
				</g>
			</g>
		</g>
		<g>
			<g>
				<g>
					<path class="st1" d="M787.8,174.2c-0.4,0.2-1-0.1-1.7-0.6c-0.7-0.5-1.5-1.1-2.5-1.8c-1-0.6-1.9-1.2-2.6-1.6
						c-0.7-0.5-1.2-0.9-1.2-1.3c0-0.4,0.6-0.8,1.7-0.9c1.1-0.1,2.5,0.3,3.9,1.2c1.3,0.9,2.2,2.1,2.5,3.1
						C788.3,173.3,788.2,174,787.8,174.2z"/>
				</g>
			</g>
		</g>
		<g>
			<g>
				<g>
					<path class="st1" d="M813.8,169.8c-0.3,0.3-1,0.3-1.7,0.2c-0.8,0-1.8-0.1-2.8,0.1c-1.1,0.2-2,0.4-2.7,0.7
						c-0.7,0.3-1.4,0.5-1.7,0.2c-0.4-0.2-0.4-1,0.2-2c0.6-1,2-1.9,3.8-2.2c1.7-0.2,3.4,0.3,4.2,1.1
						C813.9,168.7,814,169.5,813.8,169.8z"/>
				</g>
			</g>
		</g>
		<g>
			<g>
				<g>
					<path class="st1" d="M809.9,185c-0.4,0.1-1-0.3-1.5-1.1c-0.5-0.9-0.8-2.2-0.8-3.6c0-1.5,0.4-2.8,0.8-3.6c0.5-0.9,1-1.3,1.5-1.1
						c0.9,0.3,0.9,2.4,1,4.8C810.9,182.6,810.8,184.7,809.9,185z"/>
				</g>
			</g>
		</g>
		<g>
			<g>
				<g>
					<path class="st1" d="M838.4,207.8c0.2-0.2,0.7,0.2,1.7,0.5c0.5,0.1,1.1,0.3,1.8,0.3c0.7,0,1.5-0.1,2.3-0.4
						c1.6-0.6,3.5-1.8,4.5-3.7c1.1-2,1.5-4.7,1.5-7.6c0-1.4-0.1-2.9-0.2-4.3c-0.1-1.4-0.3-2.7-0.6-3.8c-0.3-1.1-0.7-2.1-1.3-2.8
						c-0.1-0.2-0.3-0.4-0.5-0.5c-0.1-0.1-0.3-0.3-0.5-0.4c-0.3-0.2-0.7-0.4-1.1-0.5c-1.6-0.5-3-0.1-3.7,0.4c-0.8,0.5-1,1.2-1.2,1.1
						c-0.1,0-0.2-0.2-0.2-0.5c0-0.3,0.1-0.9,0.5-1.4c0.7-1.2,2.7-2.2,5.1-1.8c0.6,0.1,1.2,0.3,1.9,0.6c0.3,0.1,0.6,0.4,0.9,0.6
						c0.3,0.2,0.5,0.4,0.8,0.7c1,1,1.7,2.4,2.2,3.8c0.5,1.4,0.7,2.9,0.9,4.4c0.2,1.5,0.3,3,0.3,4.6c0,3.2-0.5,6.5-2.1,9.1
						c-0.8,1.3-1.9,2.4-3,3.1c-1.1,0.7-2.3,1.2-3.5,1.4c-1.1,0.2-2.2,0.2-3.1,0c-0.9-0.2-1.6-0.6-2.1-0.9
						C838.5,208.6,838.3,207.9,838.4,207.8z"/>
				</g>
			</g>
		</g>
		<g>
			<g>
				<path class="st2" d="M811,195.2"/>
			</g>
		</g>
		<g>
			<g>
				<g>
					<path class="st1" d="M812.3,195.1c-0.3,0.9-0.9,1.4-1.4,1.2s-0.7-1-0.4-1.8c0.3-0.9,0.9-1.4,1.4-1.2
						C812.4,193.4,812.6,194.2,812.3,195.1z"/>
				</g>
			</g>
		</g>
		<g>
			<g>
				<g>
					<path class="st1" d="M817.6,193.4c0,0.9-0.3,1.6-0.6,1.6s-0.6-0.7-0.6-1.6s0.3-1.6,0.6-1.6S817.6,192.5,817.6,193.4z"/>
				</g>
			</g>
		</g>
		<g>
			<g>
				<g>
					
						<ellipse transform="matrix(0.8936 -0.4489 0.4489 0.8936 -2.5116 386.9828)" class="st1" cx="815" cy="198.8" rx="1.6" ry="0.7"/>
				</g>
			</g>
		</g>
		<g>
			<g>
				<g>
					<path class="st1" d="M779.9,197c-0.9,0.2-1.7-0.1-1.9-0.8c-0.2-0.7,0.4-1.4,1.3-1.6s1.7,0.1,1.9,0.8
						C781.3,196.1,780.8,196.8,779.9,197z"/>
				</g>
			</g>
		</g>
		<g>
			<g>
				<g>
					<path class="st1" d="M783.9,196.4c-0.9-0.3-1.4-0.9-1.2-1.4s1-0.7,1.8-0.4s1.4,0.9,1.2,1.4
						C785.6,196.5,784.8,196.7,783.9,196.4z"/>
				</g>
			</g>
		</g>
		<g>
			<g>
				<g>
					<path class="st1" d="M782.3,201.1c-0.5,0.7-1.3,1.1-1.8,0.7c-0.5-0.3-0.5-1.2,0-2c0.5-0.7,1.3-1.1,1.8-0.7
						S782.9,200.4,782.3,201.1z"/>
				</g>
			</g>
		</g>
	</g>
</g>
<g id="clouds">
	<g>
		<g>
			<g>
				<path class="st1" d="M636.1,506.3c0,0.2-3.8,0.5-10.8,0.9c-7,0.3-17,0.7-29.4,1.2c-24.9,0.8-59.2,1.8-97.2,2.5
					c-9.5,0.1-18.8,0.1-27.8-0.4c-9-0.5-17.6-1.2-25.8-2c-16.4-1.6-31.1-3.1-43.5-3.5c-12.4-0.5-22.4-0.1-29.3,0.5
					c-1.7,0.2-3.3,0.2-4.6,0.4c-1.3,0.2-2.5,0.3-3.4,0.4c-1.8,0.2-2.8,0.2-2.8,0.1c0-0.1,0.9-0.4,2.7-0.8c0.9-0.2,2-0.4,3.3-0.7
					c1.3-0.3,2.9-0.5,4.6-0.7c6.9-1,17-1.8,29.5-1.6c12.5,0.1,27.3,1.4,43.7,2.8c8.2,0.7,16.8,1.4,25.7,1.8
					c8.9,0.5,18.1,0.4,27.6,0.3c37.9-0.8,72.3-1.4,97.2-1.6c12.4-0.1,22.5-0.2,29.5-0.1S636.1,506.1,636.1,506.3z"/>
			</g>
		</g>
	</g>
	<g>
		<g>
			<g>
				<path class="st1" d="M459,458.1c-0.1,0.2-2.3-0.2-6.3-1.2c-4-1-9.7-2.5-16.8-4.5c-7.1-1.9-15.4-4.4-24.9-6.1
					c-4.7-0.8-9.7-1.4-14.9-1.4c-5.1,0-10.5,0.6-15.7,2.1c-5.2,1.5-10,3.8-14.1,6.8c-2,1.5-3.8,3.2-5.4,5.1
					c-1.6,1.8-2.9,3.8-4.1,5.9c-1.1,2-2,4.1-2.7,6.2c-0.4,1-0.6,2.1-0.9,3.1c-0.2,1.1-0.5,2.1-0.6,3.1c-0.3,2.1-0.4,4.1-0.4,6
					c0.1,1.9,0.2,3.8,0.6,5.5c0.6,3.5,1.9,6.4,3.4,8.8c1.6,2.3,3.3,4,5,4.9c1.7,1,3.2,1.3,4.2,1.4c1,0.1,1.6,0.1,1.6,0.2
					c0,0.1-0.5,0.3-1.6,0.4c-1.1,0.1-2.8,0-4.8-0.9c-3.9-1.8-8.5-6.8-10.1-14.4c-0.4-1.8-0.7-3.8-0.8-5.9c-0.1-2.1-0.1-4.2,0.2-6.4
					c0.1-1.1,0.4-2.2,0.5-3.4c0.3-1.1,0.5-2.3,0.9-3.4c0.7-2.3,1.6-4.6,2.8-6.8c1.2-2.2,2.6-4.4,4.3-6.4c1.7-2,3.6-3.9,5.8-5.6
					c4.4-3.3,9.6-5.9,15.1-7.4c5.6-1.6,11.2-2.2,16.6-2.2c5.4,0,10.6,0.7,15.4,1.6c9.7,1.9,18,4.6,25,6.8c7,2.2,12.6,4.1,16.5,5.5
					C457,457,459.1,457.8,459,458.1z"/>
			</g>
		</g>
	</g>
	<g>
		<g>
			<g>
				<path class="st1" d="M548.3,465.7c0,0.2-2.3,0-6-1.8c-1.8-0.9-3.9-2.3-6-4.2c-2.1-1.9-4.4-4.4-6.5-7.2c-2.2-2.9-4.2-6.2-6.5-9.7
					c-2.3-3.5-4.7-7.1-7.8-10.4c-3.1-3.3-6.9-6.2-11.3-8.4c-4.4-2.3-9.3-3.9-14.4-5c-2.6-0.5-5.2-0.8-7.7-1c-0.6,0-1.3-0.1-1.9-0.1
					c-0.6,0-1.3,0-1.9,0c-0.6,0-1.3,0-1.9,0c-0.6,0-1.2,0.1-1.9,0.1c-5,0.3-9.7,1-14.1,2.3c-4.4,1.3-8.4,2.9-12,4.8
					c-3.6,2-6.8,4-9.4,6.3c-5.4,4.4-8.7,9-10.7,12.4c-1.1,1.6-1.7,3-2.2,3.9c-0.5,0.9-0.8,1.4-0.9,1.3c-0.1,0,0-0.6,0.3-1.6
					c0.3-1,0.7-2.5,1.7-4.3c1.7-3.6,4.9-8.7,10.3-13.5c2.6-2.5,5.9-4.8,9.6-6.9c3.7-2.1,7.9-3.9,12.5-5.3c4.6-1.4,9.6-2.3,14.8-2.6
					c0.7,0,1.3-0.1,2-0.1c0.7,0,1.3,0,2,0c0.7,0,1.3,0,2,0c0.7,0,1.3,0.1,2,0.1c2.7,0.2,5.4,0.5,8.1,1.1c5.4,1.1,10.6,2.9,15.3,5.3
					c4.7,2.4,8.7,5.6,12,9.2c3.3,3.6,5.7,7.4,7.9,11c2.2,3.6,4.1,6.9,6.1,9.8c2,2.9,4,5.3,5.9,7.3c1.9,1.9,3.8,3.4,5.4,4.5
					C546.3,464.9,548.4,465.4,548.3,465.7z"/>
			</g>
		</g>
	</g>
	<g>
		<g>
			<g>
				<path class="st1" d="M635.9,504.5c-0.1-0.1,0.2-0.5,0.6-1.2c0.5-0.7,1-1.9,1.4-3.5c0.3-1.6,0.4-3.6-0.3-5.8
					c-0.3-1.1-0.9-2.2-1.6-3.2c-0.8-1-1.8-1.8-3-2.5c-1.2-0.7-2.7-1.3-4.2-2c-1.5-0.7-3.3-1.4-4.9-2.5c-3.3-2.1-6-5.3-8.2-8.8
					c-2.3-3.5-4.1-7.4-6.3-11.1c-2.2-3.8-4.9-7.2-8.5-9.8c-3.6-2.6-7.7-4.4-11.8-5.5c-4.1-1.1-8.3-1.6-12.2-1.6
					c-8-0.1-15.2,1.2-21.2,2.3c-12.1,2.3-19.6,3.6-19.7,3.2c-0.1-0.4,7.2-2.5,19.2-5.4c6-1.4,13.3-3,21.7-3.1
					c4.2-0.1,8.6,0.4,13.1,1.5c4.4,1.1,8.9,3.1,12.9,6c2,1.5,3.8,3.2,5.3,5c1.6,1.8,2.8,3.8,4,5.8c2.3,3.9,4.1,7.8,6.1,11.2
					c2,3.4,4.4,6.3,7.2,8.2c2.7,2,6.1,2.9,8.8,4.7c1.4,0.9,2.6,2,3.5,3.3c0.9,1.3,1.4,2.6,1.7,3.9c0.6,2.6,0.3,4.9-0.3,6.6
					c-0.6,1.7-1.4,2.9-2.1,3.6C636.4,504.4,636,504.6,635.9,504.5z"/>
			</g>
		</g>
	</g>
	<g>
		<g>
			<g>
				<path class="st1" d="M1308.4,130.3c0,0.2-3.5,0.2-9.7,0.1c-1.6,0-3.3-0.1-5.2-0.2c-1.9,0-3.9,0-6.2,0c-4.4,0-9.4-0.1-15,0
					c-2.8,0-5.7,0.1-8.7,0.1c-3,0.1-6.2,0.2-9.4,0.3c-6.5,0.2-13.5,0.6-20.8,1c-14.7,0.9-30.8,2.2-47.6,3.8
					c-16.9,1.6-33,3.1-47.7,4.3c-7.3,0.6-14.3,1.2-20.8,1.6c-3.3,0.2-6.4,0.5-9.5,0.6c-3,0.2-5.9,0.3-8.7,0.4
					c-5.6,0.3-10.6,0.4-15,0.5c-2.2,0.1-4.3,0.1-6.2,0.1c-1.9,0-3.6,0-5.2,0c-6.2,0-9.7-0.2-9.7-0.4s3.4-0.5,9.6-0.9
					c1.6-0.1,3.3-0.2,5.2-0.3c1.9-0.1,3.9-0.3,6.1-0.4c4.4-0.3,9.4-0.6,15-1c2.8-0.2,5.7-0.4,8.7-0.7c3-0.3,6.2-0.5,9.4-0.8
					c6.5-0.5,13.5-1.2,20.8-1.9c14.6-1.4,30.7-3,47.6-4.6c16.9-1.5,33.1-2.8,47.8-3.5c7.4-0.3,14.4-0.7,20.9-0.7
					c3.3,0,6.4-0.1,9.5-0.1c3,0,6,0.1,8.7,0.1c5.6,0,10.6,0.3,15,0.5c2.2,0.1,4.3,0.2,6.2,0.3c1.9,0.2,3.6,0.3,5.2,0.4
					C1305,129.7,1308.4,130.1,1308.4,130.3z"/>
			</g>
		</g>
	</g>
	<g>
		<g>
			<g>
				<path class="st1" d="M1161,109.5c-0.2,0.2-1.9-1.1-5.3-3c-3.4-1.8-8.5-4.1-15.3-5c-1.7-0.2-3.5-0.3-5.3-0.3
					c-1.9,0-3.9,0-6.1-0.1c-4.4-0.3-8.7-2.1-12.9-3.8c-2.1-0.9-4.3-1.5-6.6-2.2c-1.1-0.2-2.3-0.5-3.5-0.8c-1.2-0.2-2.4-0.3-3.6-0.5
					c-4.9-0.5-10-0.3-15.1,0.6c-10.2,1.8-19.3,6.5-26.1,12.4c-0.8,0.8-1.6,1.5-2.4,2.3c-0.8,0.7-1.5,1.6-2.2,2.4
					c-1.5,1.6-2.7,3.2-3.7,4.9c-2,3.3-3.1,6.9-2.5,10.1c0.2,1.6,0.7,3.1,1.4,4.4c0.3,0.7,0.7,1.3,1.1,1.9c0.4,0.6,0.8,1.1,1.2,1.6
					c1.7,2,3.7,3.3,5.3,4.1c3.4,1.7,5.7,1.4,5.7,1.7c0,0.1-0.5,0.2-1.6,0.3c-0.5,0-1.2,0-2-0.1c-0.8-0.2-1.7-0.3-2.6-0.7
					c-1.9-0.7-4.1-2-6.2-4.1c-0.5-0.5-1-1.1-1.5-1.7c-0.4-0.7-0.9-1.3-1.3-2c-0.8-1.5-1.5-3.2-1.8-5c-0.2-0.9-0.2-1.9-0.3-2.9
					c0.1-1,0.1-2,0.4-3c0.5-2,1.3-4,2.4-5.9c1.1-1.9,2.3-3.7,3.8-5.4c0.7-0.8,1.4-1.8,2.3-2.6c0.8-0.8,1.7-1.6,2.5-2.5
					c7.1-6.4,16.7-11.5,27.5-13.4c5.4-1,10.8-1.2,16-0.6c1.3,0.2,2.6,0.4,3.8,0.6c1.2,0.3,2.5,0.6,3.7,0.8c2.4,0.7,4.8,1.4,6.9,2.4
					c4.3,1.8,8.2,3.5,12.1,3.9c1.9,0.2,3.9,0.2,5.8,0.3c1.9,0.1,3.8,0.3,5.6,0.6c7.1,1.2,12.4,4,15.7,6.2
					C1159.7,107.6,1161.2,109.3,1161,109.5z"/>
			</g>
		</g>
	</g>
	<g>
		<g>
			<g>
				<path class="st1" d="M1300.3,126c-0.1,0-0.2-0.7-0.5-2.1c-0.3-1.3-0.7-3.3-1.8-5.7c-1-2.4-2.8-5.1-5.4-7.6
					c-0.6-0.7-1.4-1.2-2.1-1.9c-0.8-0.5-1.6-1.2-2.5-1.7c-1.8-1.1-3.7-1.9-5.9-2.4c-0.5-0.2-1.1-0.2-1.7-0.3
					c-0.6-0.1-1.1-0.2-1.7-0.2c-1.2-0.1-2.5-0.1-3.8-0.2c-1.3-0.1-2.7-0.2-4.2-0.6c-1.4-0.4-2.8-1.1-4.1-1.9
					c-2.5-1.7-4.5-3.9-6.6-5.9c-2.1-1.9-4.5-3.7-7.1-5.2c-5.3-3-11.5-4.7-18.2-5.6c-6.6-0.9-13.6-0.9-20.8-0.5
					c-7.2,0.3-14.3,0.8-21.3,0.6c-3.5-0.1-6.9-0.4-10.2-0.9c-3.3-0.5-6.6-1.3-9.6-2.2c-6.1-1.8-11.6-3.9-17-5.1
					c-5.3-1.2-10.4-1.4-14.8-0.3c-2.2,0.5-4.3,1.2-6.2,2.1c-1,0.4-1.8,0.9-2.7,1.4c-0.8,0.5-1.6,1-2.4,1.5c-3,2.1-5.2,4.4-6.8,6.5
					c-3.2,4.1-4.1,7-4.4,6.9c-0.1,0,0.1-0.8,0.5-2.1c0.3-0.7,0.6-1.5,1.1-2.4c0.5-0.9,1.1-2,1.8-3.1c1.5-2.2,3.7-4.8,6.8-7.2
					c0.8-0.6,1.6-1.2,2.5-1.7c0.9-0.5,1.8-1.1,2.8-1.6c2-1,4.2-1.9,6.5-2.5c4.8-1.3,10.4-1.3,15.9-0.1c5.6,1.1,11.3,3.2,17.3,4.9
					c5.9,1.8,12.3,2.6,19.1,2.8c6.7,0.2,13.8-0.3,21-0.7c7.3-0.3,14.5-0.4,21.4,0.6c6.9,1,13.6,2.9,19.2,6.1
					c2.8,1.6,5.4,3.6,7.6,5.7c2.2,2.1,4,4.3,6.2,5.7c4.1,3.1,9.6,1.7,14.5,3.3c2.4,0.6,4.6,1.7,6.5,2.9c1,0.6,1.8,1.3,2.6,1.9
					c0.8,0.7,1.6,1.4,2.2,2.1c2.7,2.9,4.3,5.9,5.2,8.4c0.9,2.6,1.1,4.7,1.2,6.1C1300.5,125.3,1300.4,126,1300.3,126z"/>
			</g>
		</g>
	</g>
	<g>
		<g>
			<g>
				<path class="st1" d="M1290.4,650.5c0,0.2-2.8,0.4-8,0.5c-5.1,0.1-12.6,0.2-21.7,0.3c-18.3,0.2-43.7,0.2-71.6,1
					c-14,0.4-27.3,1-39.4,1.7c-6,0.4-11.8,0.7-17.2,1.1c-2.7,0.2-5.3,0.4-7.8,0.6c-2.5,0.2-4.9,0.4-7.2,0.6
					c-4.6,0.4-8.7,0.8-12.3,1.1c-1.8,0.2-3.5,0.3-5.1,0.5c-1.6,0.2-3,0.3-4.2,0.4c-5.1,0.5-7.9,0.7-8,0.5c0-0.2,2.7-0.8,7.8-1.7
					c1.3-0.2,2.7-0.5,4.2-0.7c1.5-0.2,3.2-0.5,5-0.7c3.6-0.5,7.7-1.1,12.3-1.6c2.3-0.3,4.7-0.5,7.2-0.8c2.5-0.3,5.1-0.5,7.8-0.8
					c5.4-0.6,11.1-1,17.2-1.5c12.1-0.8,25.5-1.5,39.5-1.9c28-0.8,53.4-0.5,71.7,0c9.2,0.2,16.6,0.5,21.7,0.7
					C1287.6,650,1290.5,650.3,1290.4,650.5z"/>
			</g>
		</g>
	</g>
	<g>
		<g>
			<g>
				<path class="st1" d="M1158.3,622.9c0,0.2-1.7,0.3-4.9,0.1c-3.1-0.2-7.6-0.7-13.1-1.7c-2.7-0.5-5.7-1.2-8.9-2.1
					c-3.2-0.8-6.6-2-10-3.1c-1.7-0.6-3.4-1-5.2-1.3c-1.7-0.2-3.5-0.2-5.4,0.1c-1.8,0.3-3.7,0.9-5.6,1.6c-1.9,0.7-3.8,1.4-5.7,2.3
					c-3.8,1.7-7.2,3.7-10.1,6.1c-2.9,2.4-5.2,5.3-6.7,8.4c-1.5,3.1-2.1,6.4-2,9.4c0.1,1.5,0.3,2.9,0.8,4.3c0.5,1.3,1.1,2.5,1.9,3.5
					c1.6,2,3.5,3.5,5.4,4.4c1.9,0.9,3.7,1.3,5.1,1.3c3,0.1,4.5-0.8,4.7-0.5c0.1,0.1-0.3,0.4-1,0.8c-0.4,0.2-0.9,0.4-1.5,0.6
					c-0.6,0.1-1.3,0.3-2.1,0.4c-1.6,0.1-3.7-0.1-5.9-0.9c-2.2-0.8-4.5-2.3-6.4-4.6c-1-1.1-1.8-2.5-2.4-4c-0.6-1.5-1-3.2-1.2-4.9
					c-0.3-3.5,0.4-7.3,2-10.8c1.6-3.6,4.1-6.9,7.3-9.6c3.2-2.7,6.9-4.9,10.9-6.7c2-0.9,4-1.7,6-2.3c2-0.7,4-1.3,6.1-1.6
					c2.1-0.4,4.3-0.4,6.3-0.1c2,0.3,3.9,0.9,5.7,1.5c3.5,1.3,6.7,2.4,9.8,3.4c3.1,1,6,1.8,8.7,2.4c5.3,1.3,9.7,2.1,12.8,2.7
					C1156.6,622.3,1158.3,622.6,1158.3,622.9z"/>
			</g>
		</g>
	</g>
	<g>
		<g>
			<g>
				<path class="st1" d="M1287.6,649c-0.3-0.2,1.6-2.4,2.6-7.2c0.4-2.4,0.6-5.4-0.1-8.8c-0.3-1.7-0.9-3.4-1.6-5.2
					c-0.8-1.8-1.7-3.6-3-5.3c-2.6-3.4-6.2-6.6-10.7-9c-4.5-2.5-9.7-4.3-15.4-5.5c-5.7-1.2-11.8-1.9-18.2-2.5
					c-6.4-0.7-13.1-1.5-19.9-3c-6.7-1.5-13.2-3.4-19.3-5.6c-6.1-2.2-11.8-4.6-17.4-5.9c-2.8-0.7-5.6-1.1-8.3-1.2c-0.7,0-1.3,0-2,0
					c-0.3,0-0.7,0-1,0l-1,0.1c-0.6,0.1-1.3,0.1-1.9,0.2c-0.6,0.1-1.3,0.2-1.9,0.4c-5,1-9.4,3-12.9,5.5c-3.6,2.4-6.5,5.2-8.6,7.9
					c-0.6,0.6-1,1.4-1.5,2c-0.5,0.7-0.9,1.3-1.3,1.9c-0.4,0.6-0.7,1.3-1.1,1.8c-0.3,0.6-0.6,1.2-0.8,1.8c-0.6,1.1-0.9,2.1-1.3,3
					c-0.2,0.4-0.3,0.9-0.5,1.2c-0.1,0.4-0.2,0.7-0.3,1c-0.4,1.3-0.6,1.9-0.7,1.9c-0.1,0-0.1-0.7,0.1-2c0-0.3,0.1-0.7,0.2-1.1
					c0.1-0.4,0.2-0.8,0.3-1.3c0.3-0.9,0.5-2.1,1-3.2c0.2-0.6,0.5-1.2,0.7-1.9c0.3-0.6,0.7-1.3,1-2c0.3-0.7,0.8-1.4,1.2-2.1
					c0.5-0.7,0.9-1.5,1.5-2.2c2.1-3,5-6,8.8-8.7c3.7-2.7,8.4-5,13.7-6.2c0.7-0.1,1.3-0.3,2-0.4c0.7-0.1,1.4-0.2,2.1-0.3l1.1-0.1
					c0.4,0,0.7,0,1.1,0c0.7,0,1.4,0,2.2,0c2.9,0.1,5.9,0.5,8.8,1.2c5.9,1.3,11.8,3.7,17.8,5.8c6,2.2,12.4,4,19,5.4
					c6.6,1.5,13.1,2.3,19.5,3c6.4,0.7,12.6,1.4,18.5,2.8c5.9,1.4,11.4,3.4,16,6.1c4.7,2.7,8.5,6.2,11.2,10c1.4,1.9,2.4,3.9,3.1,5.9
					c0.7,2,1.2,3.9,1.5,5.7c0.6,3.6,0.2,6.9-0.5,9.4c-0.7,2.5-1.7,4.3-2.4,5.4C1288.1,648.6,1287.6,649.1,1287.6,649z"/>
			</g>
		</g>
	</g>
</g>
<g id="sun">
	<g>
		<path d="M585.2,149c0,0-0.1,1.3-0.2,3.8c0,0.6,0,1.3-0.1,2.1c-0.1,0.8-0.2,1.6-0.3,2.5c-0.1,0.9-0.2,1.9-0.4,2.9
			c-0.2,1-0.5,2.1-0.7,3.2c-0.1,0.6-0.3,1.1-0.4,1.7c-0.2,0.6-0.4,1.2-0.6,1.8c-0.4,1.2-0.8,2.5-1.3,3.8c-0.6,1.3-1.1,2.6-1.7,4
			c-0.7,1.4-1.4,2.7-2.2,4.2c-3.3,5.7-8,11.6-14.7,16.5c-6.6,4.8-15.2,8.3-24.5,9.4c-0.6,0.1-1.2,0.1-1.8,0.1c-0.6,0-1.2,0-1.8,0.1
			c-0.6,0-1.2,0-1.8,0.1l-0.9,0c0.1,0-0.2,0-0.2,0l-0.1,0l-0.2,0l-0.4,0c-2.3-0.2-4.6-0.3-7.1-0.8c-5-0.8-9.7-2.5-14.2-4.7
			c-1.1-0.6-2.2-1.2-3.4-1.8c-1.1-0.6-2.1-1.4-3.2-2.1c-0.5-0.4-1.1-0.7-1.6-1.1l-1.5-1.2l-1.5-1.2c-0.5-0.4-1-0.8-1.5-1.3
			c-3.9-3.5-7.2-7.5-10.2-11.8c-0.7-1.1-1.4-2.3-2-3.4c-0.4-0.6-0.6-1.2-0.9-1.8l-0.9-1.8l-0.9-1.8l-0.7-1.9c-0.4-1.3-1-2.5-1.4-3.8
			c-1.7-5.1-2.5-10.4-2.7-15.8l0.1-4c0-0.7,0-1.3,0.1-2l0.2-2l0.2-2l0.1-1c0.1-0.3,0.1-0.7,0.2-1l0.9-4c1.5-5.2,3.6-10.3,6.5-14.9
			c0.7-1.2,1.5-2.2,2.3-3.3l1.2-1.6l1.3-1.5l1.3-1.5c0.4-0.5,0.9-1,1.4-1.5c1-0.9,1.9-1.8,2.9-2.7c0.5-0.5,1-0.9,1.5-1.3l1.6-1.2
			l1.6-1.2c0.5-0.4,1.1-0.7,1.7-1.1c1.1-0.7,2.2-1.4,3.3-2.1c1.2-0.6,2.3-1.2,3.5-1.8c4.7-2.1,9.6-3.7,14.6-4.4
			c2.5-0.5,4.9-0.5,7.4-0.6l0.5,0l0.2,0l0.1,0c0,0,0.3,0,0.2,0l0.9,0.1c0.6,0,1.2,0.1,1.7,0.1c0.6,0,1.1,0.1,1.7,0.1
			c0.6,0,1.1,0.1,1.7,0.2c1.2,0.2,2.4,0.4,3.6,0.6c0.6,0.1,1.2,0.2,1.8,0.3c0.6,0.2,1.1,0.3,1.7,0.5c1.1,0.3,2.2,0.6,3.3,0.9
			c1.1,0.4,2.1,0.8,3.1,1.2c2.1,0.7,4,1.9,5.9,2.8c1,0.4,1.8,1.1,2.7,1.7c0.9,0.6,1.7,1.2,2.6,1.7c6.6,4.9,11.3,10.9,14.6,16.6
			c0.8,1.5,1.6,2.8,2.2,4.2c0.6,1.4,1.2,2.8,1.7,4.1c0.5,1.3,0.9,2.6,1.3,3.8c0.2,0.6,0.4,1.2,0.6,1.8c0.1,0.6,0.3,1.2,0.4,1.7
			c0.3,1.1,0.5,2.2,0.7,3.2c0.2,1,0.3,2,0.4,2.9c0.1,0.9,0.2,1.7,0.3,2.5c0.1,0.8,0.1,1.5,0.1,2.1C585.2,147.7,585.2,149,585.2,149
			L585.2,149z M584.7,149c0,0-0.1-1.3-0.2-3.8c-0.1-0.6,0-1.3-0.2-2c-0.1-0.7-0.3-1.6-0.4-2.4c-0.1-0.9-0.3-1.8-0.5-2.8
			c-0.3-1-0.6-2-0.9-3.1c-1.3-4.4-3.4-9.6-7.2-14.7c-3.6-5.1-8.7-10.2-15.1-14.3c-0.8-0.5-1.7-0.9-2.5-1.4c-0.8-0.5-1.7-1-2.6-1.4
			c-1.8-0.8-3.6-1.8-5.5-2.3c-1-0.3-1.9-0.7-2.9-1c-1-0.2-2-0.5-3-0.8c-0.5-0.1-1-0.3-1.5-0.4c-0.5-0.1-1-0.2-1.5-0.3
			c-1-0.2-2.1-0.3-3.1-0.5c-0.5-0.1-1.1-0.1-1.6-0.1c-0.6,0-1.1,0-1.7-0.1c-0.6,0-1.1,0-1.7-0.1l-0.9,0c-0.2,0,0.1,0,0,0l-0.1,0
			l-0.2,0l-0.4,0c-2.2,0.1-4.4,0.1-6.7,0.6c-4.5,0.5-8.9,2-13.2,3.8c-1.1,0.5-2.1,1-3.2,1.5c-1,0.6-2,1.2-3.1,1.8
			c-0.5,0.3-1,0.6-1.5,0.9l-1.4,1.1l-1.5,1.1c-0.5,0.4-1,0.7-1.4,1.1c-3.7,3.1-7,6.9-9.8,10.9c-0.7,1.1-1.3,2.1-2,3.2
			c-0.4,0.5-0.6,1.1-0.9,1.7l-0.8,1.7l-0.9,1.7l-0.7,1.8c-0.4,1.2-1,2.3-1.3,3.6l-1.1,3.7c-0.1,0.3-0.2,0.6-0.3,0.9l-0.2,0.9
			l-0.3,1.9l-0.3,1.9c-0.1,0.6-0.1,1.3-0.2,1.9l-0.3,3.9c0,5.1,0.5,10.3,1.8,15.3c1.5,4.9,3.5,9.7,6.3,14c0.7,1.1,1.5,2.1,2.2,3.1
			l1.1,1.5l1.3,1.4l1.3,1.4c0.4,0.5,0.8,1,1.3,1.4c0.9,0.8,1.9,1.7,2.8,2.5c0.5,0.4,1,0.8,1.5,1.1l1.5,1.1l1.5,1.1
			c0.5,0.3,1.1,0.6,1.6,0.9c1.1,0.6,2.1,1.3,3.2,1.8c1.1,0.5,2.2,1,3.3,1.5c1.1,0.5,2.3,0.8,3.4,1.2c1.1,0.3,2.2,0.8,3.4,1
			c1.1,0.3,2.3,0.5,3.4,0.8c0.6,0.2,1.1,0.2,1.7,0.3l1.7,0.2c2.2,0.4,4.6,0.3,6.9,0.4l0.4,0l0.2,0l0.1,0c0.1,0-0.1,0,0,0l0.8-0.1
			c0.6,0,1.1-0.1,1.7-0.1c0.5,0,1.1-0.1,1.6-0.1c0.5,0,1.1-0.1,1.6-0.2c8.6-1.2,16.4-4.3,22.8-8.3c6.4-4.2,11.4-9.2,15.1-14.4
			c3.7-5.1,5.9-10.3,7.2-14.7c0.3-1.1,0.6-2.1,0.9-3.1c0.2-1,0.4-1.9,0.5-2.8c0.1-0.9,0.3-1.7,0.4-2.4c0.1-0.7,0.1-1.4,0.1-2.1
			C584.6,150.3,584.7,149,584.7,149L584.7,149z"/>
	</g>
</g>
</svg>
