<svg xmlns="http://www.w3.org/2000/svg" viewBox="0 0 515.63 549.03">
  <title>empty state</title>
  <g id="SIMPLE_BACKGROUND">
    <g id="ground">
      <path d="M515.38,482.42c0,.45-49.84.81-111.32.81s-111.32-.36-111.32-.81,49.84-.82,111.32-.82S515.38,482,515.38,482.42Z" stroke="#000" stroke-miterlimit="10" stroke-width="0.5"/>
      <ellipse cx="392.85" cy="463.39" rx="54.64" ry="0.82" stroke="#000" stroke-miterlimit="10" stroke-width="0.5"/>
      <ellipse cx="115.62" cy="490.57" rx="102.16" ry="0.82" stroke="#000" stroke-miterlimit="10" stroke-width="0.5"/>
      <ellipse cx="77.91" cy="470.87" rx="46.84" ry="0.82" stroke="#000" stroke-miterlimit="10" stroke-width="0.5"/>
    </g>
    <g id="plants">
      <path d="M379.92,466.06c-.46-3.2-1.56-12.13.77-18,.56-1.38,1.47-3.6,3.37-4a4.06,4.06,0,0,1,3,.71,36.12,36.12,0,0,1,1.29-8.62c.81-2.92,1.32-4.67,2.88-6.31a10.61,10.61,0,0,1,6.1-3,74.46,74.46,0,0,1,6.22-20.52,78.93,78.93,0,0,1,8.59-14.09c4-5.33,7.95-10.4,14.72-14.29,6.11-3.51,8.79-2.76,9.91-2.28a8.19,8.19,0,0,1,4,4.47c.77,2.12.37,4-.28,6.6-1.44,5.76-2.16,8.65-3,10.56-2.47,5.72-7,19.36-13.52,39.87.78-.9,1.94-2.2,3.43-3.69a17.49,17.49,0,0,1,2.84-2.56c2.16-1.32,5.77-2.07,7.22-.55.79.83.86,2.23-.21,6.14a49.94,49.94,0,0,1-4.39,11.2c-3.38,5.74-6.88,11.61-10.71,17.87Z" fill="#fff"/>
      <path d="M47,473.88c-5.11-4-9.24-7.64-12.27-10.4,0,0-4.73-4.3-11.37-11.58-2.92-3.22-6.43-7.26-7.14-12.4-.12-.87-.5-3.58.46-4,.59-.26,1.49.47,2.05,1a102.84,102.84,0,0,1-6.29-9.89c-2.3-4.13-4-8.32-7.36-16.54-2.64-6.48-4.57-11.62-4-17.15.16-1.54.54-3.4,1.93-4.2,1.87-1.08,4.53.38,5.57,1,2.73,1.5,4,3.53,5.91,6.16,4.22,5.94-6-9.33,6.44,8.41,7.4,10.58,9.64,13.92,9.64,13.92,2.68,4,6.65,9.88,11.66,17.23a16.63,16.63,0,0,1,.63-5.25c.55-1.93.86-3,1.75-3.52,2.2-1.23,6.2,2.14,7.64,3.35a31.61,31.61,0,0,1,7.21,8.78A144.33,144.33,0,0,0,71.1,456.16c-.67-2.87-.53-5.18.47-5.67,1.22-.59,3.4,1.6,4.58,2.79A26.36,26.36,0,0,1,81.34,461c1.29,2.7,3.23,6.58,5.88,11.41Z" fill="#fff"/>
      <path d="M414.11,461.24a10.77,10.77,0,0,1,.69-2L417,453.6c1.94-4.89,4.75-12,8-20.81s6.84-19.44,10.44-31.34c.9-3,1.8-6,2.69-9.16s2-6.32,2.08-9.52a7.17,7.17,0,0,0-1.13-4.39,5.46,5.46,0,0,0-1.64-1.5,5.32,5.32,0,0,0-2.16-.68,10.35,10.35,0,0,0-4.78.79,20.78,20.78,0,0,0-4.49,2.48,74,74,0,0,0-19.42,22.58A75.91,75.91,0,0,0,401,414.63c-.72,2.1-1.31,4.19-1.82,6.25-.23,1-.49,2.06-.68,3.09l-.27,1.52-.18,1c-.08.41-.14.86-.24,1.22a11.58,11.58,0,0,0-1.46-.44,2.2,2.2,0,0,0-.77,0,4,4,0,0,0-1.4.52,8.22,8.22,0,0,0-2.3,2.18,24,24,0,0,0-2.79,5.71,27.78,27.78,0,0,0-1.34,5.79c-.06.47-.1.94-.14,1.41l-.05.93v2.94s0,0,0,0v-.08c0-.23-.09-.37-.16-.23a2,2,0,0,0-.11.46l-.06.88v.63l0,1.16-.55-2.24-.28-1.11-.05-.24,0-.05,0-.11L386,445l-.07-.21s0,0-.05,0l-.11-.06a1.85,1.85,0,0,0-.2-.1,2,2,0,0,0-.51-.11,2,2,0,0,0-1,.14,4,4,0,0,0-1.6,1.33,15.77,15.77,0,0,0-1.95,3.68,19.26,19.26,0,0,0-1.25,6.55,28.48,28.48,0,0,0,.67,5.65,4.56,4.56,0,0,1-.54-1.39,17.58,17.58,0,0,1-.67-4.26,19.1,19.1,0,0,1,1.06-6.82,15.94,15.94,0,0,1,2-3.94,4.87,4.87,0,0,1,1.95-1.67,3.09,3.09,0,0,1,1.42-.24,4.05,4.05,0,0,1,.71.13,1.6,1.6,0,0,1,.32.15.82.82,0,0,1,.4.53c0,.1,0,0,0-.06v-.9l0-.49c0-.48.06-1,.12-1.46a28.77,28.77,0,0,1,1.3-6.05,24.71,24.71,0,0,1,2.88-6.08,9.47,9.47,0,0,1,2.66-2.57,5.39,5.39,0,0,1,1.88-.71,5.17,5.17,0,0,1,1,0,1.14,1.14,0,0,1,.33.08s0-.17.06-.25l.08-.5.26-1.56c.18-1,.44-2.08.67-3.14.5-2.11,1.08-4.26,1.8-6.4a76.72,76.72,0,0,1,5.63-12.87,74.57,74.57,0,0,1,19.82-23.14,22.58,22.58,0,0,1,4.86-2.68,12.12,12.12,0,0,1,5.55-.89,7.15,7.15,0,0,1,2.79.9,7.24,7.24,0,0,1,2.15,2,8.72,8.72,0,0,1,1.41,5.35A22.71,22.71,0,0,1,441,388l-1.35,4.76q-1.36,4.71-2.75,9.18c-3.69,11.91-7.44,22.5-10.8,31.3s-6.34,15.83-8.47,20.66c-1.06,2.41-1.92,4.27-2.52,5.52A10.53,10.53,0,0,1,414.11,461.24Z" stroke="#000" stroke-miterlimit="10" stroke-width="0.5"/>
      <path d="M421.62,464.63c-.2-.14,1.69-3,4.69-7.69s7.13-11.16,9.93-19.07c.66-2,1.38-3.92,1.13-5.63a2.76,2.76,0,0,0-1.1-1.95,2.85,2.85,0,0,0-2.14-.4,9.51,9.51,0,0,0-4.24,2.18c-1.21,1-2.32,2.08-3.3,3.05-3.89,3.9-5.89,6.72-6.1,6.57s1.51-3.18,5.27-7.37c.95-1,2-2.14,3.24-3.27a10.6,10.6,0,0,1,4.89-2.64A4.13,4.13,0,0,1,439,432c.32,2.33-.53,4.4-1.17,6.41-2.9,8.16-7.31,14.64-10.51,19.17S421.79,464.75,421.62,464.63Z" stroke="#000" stroke-miterlimit="10" stroke-width="0.5"/>
      <ellipse cx="413.89" cy="419.55" rx="40.83" ry="0.82" transform="translate(-149.03 594.04) rotate(-62.61)" stroke="#000" stroke-miterlimit="10" stroke-width="0.5"/>
      <path d="M401.5,441.65c-.44,0-.36-5.09.19-11.27s1.36-11.17,1.8-11.13.37,5.08-.18,11.27S402,441.69,401.5,441.65Z" stroke="#000" stroke-miterlimit="10" stroke-width="0.5"/>
      <path d="M431.94,407.72c.3.36-5.05,5.17-11.34,11.38s-11.19,11.48-11.55,11.17,4-6.07,10.4-12.33S431.67,407.38,431.94,407.72Z" stroke="#000" stroke-miterlimit="10" stroke-width="0.5"/>
      <path d="M417.71,404.94c-.45,0-1.09-3.28-1.43-7.4s-.25-7.5.2-7.54,1.09,3.28,1.43,7.4S418.16,404.91,417.71,404.94Z" stroke="#000" stroke-miterlimit="10" stroke-width="0.5"/>
      <path d="M56.32,459.63A8.4,8.4,0,0,1,55.24,458l-2.85-4.82c-2.46-4.18-6-10.22-10.71-17.54s-10.4-15.92-17.14-25.19c-3.38-4.64-7-9.44-10.87-14.34-1-1.22-1.92-2.49-2.95-3.62a9.05,9.05,0,0,0-3.53-2.55,4.6,4.6,0,0,0-4,.38,2.84,2.84,0,0,0-1.14,1.51A5.55,5.55,0,0,0,1.91,394a26.7,26.7,0,0,0,.5,3c.19,1,.42,2.05.66,3.06.45,2,1,4,1.57,6a99.87,99.87,0,0,0,4.08,11.26,102.44,102.44,0,0,0,10.89,19.2l-1.19.77a2.12,2.12,0,0,0-.7-.73,2.56,2.56,0,0,0-.47-.23l-.24-.07-.13,0a1,1,0,0,0-.24,0,.45.45,0,0,0-.11,0v.34l0,.6A15.62,15.62,0,0,0,17.69,442a34.4,34.4,0,0,0,4.83,8A97.26,97.26,0,0,0,32.89,461.3c3.13,2.93,5.78,5,7.59,6.46A26.55,26.55,0,0,1,43.26,470s-.3-.11-.81-.42-1.26-.79-2.23-1.44a81.12,81.12,0,0,1-7.89-6.2A90.74,90.74,0,0,1,21.6,450.64a35,35,0,0,1-5.12-8.18,17.22,17.22,0,0,1-1.29-5.17l0-.72.06-1,0-.52a3.51,3.51,0,0,1,.49-.12,3.61,3.61,0,0,1,1-.08,2.94,2.94,0,0,1,.53.08l.4.11a4.3,4.3,0,0,1,.75.36,3.57,3.57,0,0,1,1.19,1.22l-1.2.77A99.64,99.64,0,0,1,.28,394.09a7.18,7.18,0,0,1,.26-2.77A4.6,4.6,0,0,1,2.31,389a6.21,6.21,0,0,1,5.4-.56,10.53,10.53,0,0,1,4.2,3c1.12,1.23,2.05,2.5,3,3.72,3.86,4.93,7.47,9.77,10.83,14.45,6.7,9.35,12.36,18,16.9,25.46s8,13.56,10.28,17.84c1.16,2.14,2,3.82,2.59,5A9.55,9.55,0,0,1,56.32,459.63Z" stroke="#000" stroke-miterlimit="10" stroke-width="0.5"/>
      <path d="M75.05,466.8c-.21.11-2-3.19-4.82-8.51a168.34,168.34,0,0,0-12.16-20.05c-1.36-1.83-2.73-3.59-4.14-5.21-.7-.81-1.4-1.61-2.11-2.35a18.46,18.46,0,0,0-2.11-2.06c-1.44-1.14-3.23-1.93-4.49-1.39s-1.69,2.19-1.86,3.61a17.23,17.23,0,0,0,.56,6.88,15.65,15.65,0,0,1,.75,2.5c-.08,0-.68-.7-1.35-2.29a15.9,15.9,0,0,1-1.11-7.21,9.49,9.49,0,0,1,.48-2.48,3.85,3.85,0,0,1,2-2.24,4.34,4.34,0,0,1,3.19-.06,9.65,9.65,0,0,1,2.77,1.49,18.41,18.41,0,0,1,2.31,2.18c.75.75,1.47,1.55,2.19,2.38,1.46,1.64,2.87,3.42,4.26,5.29a128.21,128.21,0,0,1,11.87,20.49C73.84,463.24,75.25,466.71,75.05,466.8Z" stroke="#000" stroke-miterlimit="10" stroke-width="0.5"/>
      <path d="M86,471.54c-.45.16-2.84-6.75-7.83-14.11-1.23-1.83-2.52-3.56-3.69-5a4.29,4.29,0,0,0-1.85-1.37,1.29,1.29,0,0,0-1.44.48,2.71,2.71,0,0,0-.35,1.59,7.59,7.59,0,0,0,.18,1.4c.16.79.29,1.23.18,1.29s-.42-.31-.78-1.08a6,6,0,0,1-.49-1.52A3.44,3.44,0,0,1,70.2,451a2.51,2.51,0,0,1,2.72-1.21,5.25,5.25,0,0,1,2.66,1.68,46.85,46.85,0,0,1,3.94,5.1,49.43,49.43,0,0,1,5.33,10.34C85.88,469.66,86.2,471.48,86,471.54Z" stroke="#000" stroke-miterlimit="10" stroke-width="0.5"/>
      <path d="M52.44,465.1a16.32,16.32,0,0,1-2.4-2.67c-1.47-1.78-3.53-4.4-6-7.69-5-6.58-11.59-15.86-18.43-26.42S13,407.92,9,400.69c-2-3.61-3.54-6.56-4.56-8.63A14.93,14.93,0,0,1,3,388.77a15.09,15.09,0,0,1,2,3l5,8.37c4.21,7.07,10.11,16.78,16.93,27.31s13.27,19.89,18,26.63c2.36,3.37,4.26,6.1,5.59,8A15.28,15.28,0,0,1,52.44,465.1Z" stroke="#000" stroke-miterlimit="10" stroke-width="0.5"/>
      <path d="M47.41,455.76c-.23.39-5-1.89-10.58-5.08s-10-6.11-9.77-6.5,5,1.88,10.58,5.08S47.63,455.37,47.41,455.76Z" stroke="#000" stroke-miterlimit="10" stroke-width="0.5"/>
      <path d="M35.69,441c-.41.15-1.94-3.34-2.7-7.93s-.46-8.38,0-8.38.89,3.66,1.64,8.11S36.13,440.84,35.69,441Z" stroke="#000" stroke-miterlimit="10" stroke-width="0.5"/>
      <path d="M22.1,420.69c-.24.36-4-1.75-7.9-5.24s-6.48-6.91-6.15-7.2,3.38,2.58,7.23,6S22.37,420.31,22.1,420.69Z" stroke="#000" stroke-miterlimit="10" stroke-width="0.5"/>
      <path d="M70.35,469.53c-.17.13-2-2-4.65-5.62a168.37,168.37,0,0,1-17.44-30.53c-1.79-4.13-2.69-6.78-2.49-6.86s1.48,2.38,3.53,6.37,4.91,9.47,8.29,15.4,6.66,11.18,9.06,15S70.54,469.39,70.35,469.53Z" stroke="#000" stroke-miterlimit="10" stroke-width="0.5"/>
      <path d="M61.53,456c-.23.39-2.36-.39-4.77-1.75s-4.19-2.77-4-3.16,2.35.39,4.77,1.74S61.75,455.64,61.53,456Z" stroke="#000" stroke-miterlimit="10" stroke-width="0.5"/>
      <path d="M432.77,435.73c.39.22-2.84,6.66-7.22,14.38s-8.24,13.79-8.64,13.57,2.84-6.66,7.22-14.38S432.38,435.51,432.77,435.73Z" stroke="#000" stroke-miterlimit="10" stroke-width="0.5"/>
      <path d="M426,445.89c-.44-.08-.35-2.75.2-6s1.36-5.76,1.81-5.68.35,2.74-.2,6S426.44,446,426,445.89Z" stroke="#000" stroke-miterlimit="10" stroke-width="0.5"/>
    </g>
  </g>
  <g id="CHARACTER1">
    <g id="PRIMARY_footright">
      <path d="M254.73,358.77q3.93-2.17,8-4.82a141.44,141.44,0,0,0,18.38-14.06,15.75,15.75,0,0,1,5.07,1.42,17.6,17.6,0,0,1,6.53,5.72A90.43,90.43,0,0,0,305,359.54c5.83,5.16,9,6.26,10.11,10.52a12.07,12.07,0,0,1,.07,5.67,8.15,8.15,0,0,1-3.74,1c-3.53,0-5.9-2.51-8.51-4.73-.19-.17,1,.83-12.81-7.93-3.05-1.94-7.11-4.53-11.9-7.63l-10.67,8.7Z"/>
    </g>
    <g id="leg_right" data-name="leg right">
      <path d="M199.14,270.69c-2.86,9.71-6.87,23.54-11.51,40.22-6.94,25-11.92,43-17.6,67.09-2.23,9.49-4.89,21.61-10.2,45.87-2.64,12.06-4.8,22.05-6.28,28.91a29.76,29.76,0,0,0,2.81,6.88c5.33,9.43,14.4,13.11,17.1,14.16,11.11,4.33,21.08,1.68,25.53.49a47.32,47.32,0,0,0,11-4.48q11.91-12.84,23.85-25.89,22.23-24.33,43.66-48.46a37.57,37.57,0,0,0-1.82-17.29,29.18,29.18,0,0,0-8.19-13.06,27.69,27.69,0,0,0-15.27-6.57l-23.49,18q3.15-19.51,7.31-40.15c4.18-20.59,8.82-40.18,13.74-58.72Z" fill="#fff"/>
      <path d="M154.36,451.64a6.93,6.93,0,0,1,.18-1.82c.17-1.18.45-2.91.83-5.15.74-4.47,1.93-10.92,3.48-18.87,3.1-15.91,7.8-37.81,13.76-61.82s12-45.56,16.75-61.07c2.35-7.76,4.31-14,5.74-18.31.72-2.16,1.28-3.82,1.68-5a8.28,8.28,0,0,1,.69-1.69,7.62,7.62,0,0,1-.37,1.79c-.3,1.16-.77,2.85-1.39,5l-5.24,18.45c-4.42,15.58-10.32,37.16-16.28,61.14S163.37,410.19,160,426c-1.68,7.92-3,14.33-4,18.76-.47,2.22-.86,3.93-1.13,5.09A8.4,8.4,0,0,1,154.36,451.64Z" stroke="#000" stroke-miterlimit="10" stroke-width="0.5"/>
      <path d="M210,469.84a8,8,0,0,1-2.24,1.5,43.11,43.11,0,0,1-6.71,3,44.85,44.85,0,0,1-10.66,2.37,39.7,39.7,0,0,1-13.38-.9A34.93,34.93,0,0,1,164.84,470a31.36,31.36,0,0,1-7.58-7.92,24.91,24.91,0,0,1-3.19-6.64,7.35,7.35,0,0,1-.51-2.66,10.72,10.72,0,0,1,1.1,2.44,30.63,30.63,0,0,0,3.54,6.2,32.77,32.77,0,0,0,7.52,7.36,35.12,35.12,0,0,0,11.65,5.38,41,41,0,0,0,12.86,1,50,50,0,0,0,10.44-2C206.5,471.45,209.84,469.58,210,469.84Z" stroke="#000" stroke-miterlimit="10" stroke-width="0.5"/>
      <path d="M223.61,412a14.3,14.3,0,0,1,.09-3.51c.15-2.24.46-5.48.9-9.48.89-8,2.38-19,4.47-31.12s4.4-23,6.26-30.8c.92-3.92,1.72-7.07,2.33-9.24a14.46,14.46,0,0,1,1.09-3.33,14.23,14.23,0,0,1-.47,3.47c-.44,2.21-1.06,5.4-1.83,9.34-1.56,7.88-3.68,18.77-5.77,30.84s-3.76,23-4.93,31c-.6,4-1.09,7.18-1.42,9.41A14.86,14.86,0,0,1,223.61,412Z" stroke="#000" stroke-miterlimit="10" stroke-width="0.5"/>
      <path d="M262.83,410.84a12,12,0,0,1-1.83,2.62c-1.26,1.61-3.13,3.91-5.47,6.73-4.69,5.63-11.28,13.31-18.72,21.65s-14.31,15.78-19.36,21.08c-2.53,2.65-4.6,4.77-6.06,6.21a11.91,11.91,0,0,1-2.39,2.12,11.44,11.44,0,0,1,1.92-2.55c1.32-1.57,3.26-3.81,5.68-6.56l19-21.38,19.07-21.33c2.45-2.71,4.45-4.9,5.86-6.39S262.74,410.76,262.83,410.84Z" stroke="#000" stroke-miterlimit="10" stroke-width="0.5"/>
      <path d="M248.27,360.93c.27.36-3.75,3.76-9,7.59s-9.68,6.63-10,6.27,3.76-3.76,9-7.59S248,360.57,248.27,360.93Z" stroke="#000" stroke-miterlimit="10" stroke-width="0.5"/>
      <path d="M277.48,397.18c-.25,0-.27-2.94-.63-7.62a61.94,61.94,0,0,0-1.15-8.13,37.71,37.71,0,0,0-3.28-9.36,26.59,26.59,0,0,0-6.1-7.68,22.79,22.79,0,0,0-6.87-4.13,19.2,19.2,0,0,0-5.31-1.18c-1.3-.1-2-.1-2-.23a4.5,4.5,0,0,1,2-.41,16.18,16.18,0,0,1,5.68.73,22,22,0,0,1,7.47,4.07,26.65,26.65,0,0,1,6.58,8.08,35.59,35.59,0,0,1,3.3,9.81,49.56,49.56,0,0,1,.83,8.37C278.07,394.27,277.68,397.19,277.48,397.18Z" stroke="#000" stroke-miterlimit="10" stroke-width="0.5"/>
      <path d="M271.55,347.85c.27.35-3.38,3.63-8.46,6.88s-9.58,5.22-9.78,4.83,3.89-3,8.9-6.2S271.27,347.49,271.55,347.85Z" stroke="#000" stroke-miterlimit="10" stroke-width="0.5"/>
      <path d="M280.52,355.33c.3.33-2.17,3.09-5.81,5.83s-7,4.35-7.2,4,2.66-2.59,6.22-5.28S280.21,355,280.52,355.33Z" stroke="#000" stroke-miterlimit="10" stroke-width="0.5"/>
      <path d="M313.79,377.39c0,.21-2.46.11-5.84-1.63-1.69-.84-3.57-2-5.65-3.3l-6.76-4.16c-4.8-2.94-9.19-5.51-12.39-7.36s-5.18-3-5.08-3.2,2.26.59,5.62,2.18,7.87,4,12.7,7c2.41,1.48,4.68,2.93,6.72,4.29s3.83,2.61,5.39,3.55C311.6,376.67,313.83,377.15,313.79,377.39Z" stroke="#000" stroke-miterlimit="10" stroke-width="0.5"/>
      <path d="M315.16,375.71s.17-.19.41-.52a2.88,2.88,0,0,0,.53-1.67,4,4,0,0,0-.94-2.57,31.67,31.67,0,0,0-2.74-2.86c-4.28-4.21-10.11-10.11-16.47-16.68a114.57,114.57,0,0,0-9.25-8.83,8,8,0,0,0-4.61-2.11c-1.52,0-2.81.93-4,1.83-4.75,3.67-7.75,5.85-7.9,5.68s2.61-2.68,7.17-6.58a13.83,13.83,0,0,1,2-1.47,5.57,5.57,0,0,1,2.73-.81,9.12,9.12,0,0,1,5.54,2.28,97.44,97.44,0,0,1,9.5,8.87c6.37,6.58,12.06,12.6,16.13,17a27.79,27.79,0,0,1,2.66,3.14,4.57,4.57,0,0,1,.83,3.15,2.94,2.94,0,0,1-.93,1.83C315.44,375.72,315.18,375.76,315.16,375.71Z" stroke="#000" stroke-miterlimit="10" stroke-width="0.5"/>
    </g>
    <g id="PRIMARY_footleft">
      <path d="M318.48,372.16c1.55-2.42,3.09-4.85,4.64-7.28q6.63-10.44,13.16-20.83c4.58,2,8.34,3.87,11.08,5.28,9.25,4.79,13.2,7.81,15.5,9.73,4.06,3.4,6.9,5.78,6.33,7.06-1.13,2.54-16.64-2.22-24.89-5.27-2.9-1.07-5.27-2.07-6.88-2.77L327.1,375.72Z"/>
    </g>
    <g id="leg_left" data-name="leg left">
      <path d="M300.24,272.94q1.53,9,3.14,18,7.53,42.33,16.33,82.79a15.46,15.46,0,0,1,8,1.32c6.18,2.9,9.95,10.2,9.86,18.6-1.72,8.32-3.09,15.06-4,19.5q-8.28,41-8.28,41.09a20.44,20.44,0,0,1-2.13,10.08c-2.51,4.74-6.65,7.17-10.23,9.27a46.48,46.48,0,0,1-15,5.34c-6.49,1.36-10.41,2.18-15.49.91a23.35,23.35,0,0,1-11.36-6.48c-4.46-4.8-5.15-10.26-6.27-16.71-1.6-9.16-4.65-18-6.27-27.18-4.31-24.37-4.09-18.91-7.71-40.08-3-17.42-6.35-39.88-9.15-66.59l-14.55-5.65c-1.42-5.51-4.33-19.88,2.36-35.07,6.39-14.49,23-33.1,43.33-30.07C289.47,254.54,298.61,270.05,300.24,272.94Z" fill="#fff"/>
      <path d="M322.36,388.31a25.67,25.67,0,0,1-1.12-4.49c-.61-2.91-1.48-7.12-2.55-12.32-2.14-10.41-5.1-24.78-8.36-40.65s-6-30.32-7.71-40.81c-.87-5.24-1.53-9.49-1.92-12.44a25.9,25.9,0,0,1-.45-4.6,25.07,25.07,0,0,1,1.08,4.49c.57,2.92,1.4,7.14,2.43,12.35,2,10.42,4.94,24.8,8.17,40.68s6.06,30.3,7.89,40.77c.92,5.23,1.62,9.48,2,12.42A24.88,24.88,0,0,1,322.36,388.31Z" stroke="#000" stroke-miterlimit="10" stroke-width="0.5"/>
      <path d="M248.25,325.43c-.2.42-4.56-1.28-10-3.17s-9.91-3.28-9.8-3.73,4.81.25,10.34,2.19S248.45,325,248.25,325.43Z" stroke="#000" stroke-miterlimit="10" stroke-width="0.5"/>
      <path d="M325.28,454.39s.06.2.09.58a14.12,14.12,0,0,1,0,1.7,19,19,0,0,1-1.33,6.41,19.24,19.24,0,0,1-6.22,8.3,21,21,0,0,1-5.76,3.11,47.81,47.81,0,0,0-6.55,2.81l-.42.21-.27.13-.27.09-.92.28-1.89.56c-1.27.37-2.58.73-3.93,1.06a48,48,0,0,1-8.59,1.39,26.88,26.88,0,0,1-9.33-1.06,24.84,24.84,0,0,1-4.56-1.93c-.73-.42-1.44-.89-2.16-1.35a12.81,12.81,0,0,1-1.94-1.81c-2.33-2.72-3.38-6.16-4.77-9.27l-.26-.58-.32-.67-.34-1.35c-.21-.85-.43-1.71-.65-2.58q-.65-2.6-1.32-5.24c-1.71-7.07-3.45-14.39-5.08-21.93-6.63-30.12-10.9-57.74-13.49-77.77-1.3-10-2.15-18.15-2.71-23.77-.26-2.81-.45-5-.55-6.48a12.93,12.93,0,0,1-.09-2.27,10.87,10.87,0,0,1,.41,2.23c.22,1.47.51,3.65.86,6.45.76,5.59,1.78,13.7,3.23,23.68,2.87,20,7.31,47.52,13.93,77.59,1.63,7.52,3.36,14.83,5,21.89q.66,2.64,1.3,5.24c.22.86.43,1.72.64,2.58l.3,1.21.25.52.28.62c1.41,3.25,2.42,6.51,4.48,8.92a11.35,11.35,0,0,0,1.67,1.59c.67.43,1.33.87,2,1.27a23.43,23.43,0,0,0,4.26,1.84,25.67,25.67,0,0,0,8.85,1.08,46.77,46.77,0,0,0,8.36-1.26c1.33-.31,2.63-.65,3.89-1l1.88-.53.93-.27a1.33,1.33,0,0,0,.35-.13l.43-.21a47.23,47.23,0,0,1,6.72-2.76,20.32,20.32,0,0,0,5.55-2.86,18.89,18.89,0,0,0,6.18-7.81,20.32,20.32,0,0,0,1.59-6.19C325.23,455.18,325.2,454.39,325.28,454.39Z" stroke="#000" stroke-miterlimit="10" stroke-width="0.5"/>
      <path d="M336.16,395.46c.22,0,0,3.66-.75,9.48s-1.89,13.86-3.51,22.67-3.37,16.73-4.78,22.43-2.46,9.17-2.67,9.12.42-3.62,1.54-9.37,2.69-13.69,4.31-22.48,3-16.76,4-22.53S335.93,395.43,336.16,395.46Z" stroke="#000" stroke-miterlimit="10" stroke-width="0.5"/>
      <path d="M337.55,393.67c-.26,0-.47-1.5-1.22-3.8a27,27,0,0,0-1.62-3.9,28.12,28.12,0,0,0-2.81-4.3,27.25,27.25,0,0,0-3.61-3.66,25.3,25.3,0,0,0-3.46-2.41c-2.09-1.22-3.53-1.75-3.46-2s1.63,0,4,1a19.4,19.4,0,0,1,3.87,2.26,23.45,23.45,0,0,1,3.95,3.81,23.75,23.75,0,0,1,2.89,4.68,20.35,20.35,0,0,1,1.39,4.26C337.94,392.09,337.74,393.67,337.55,393.67Z" stroke="#000" stroke-miterlimit="10" stroke-width="0.5"/>
      <ellipse cx="327.76" cy="357.64" rx="15.13" ry="0.82" transform="translate(-150.27 440.26) rotate(-57.3)" stroke="#000" stroke-miterlimit="10" stroke-width="0.5"/>
      <path d="M368,363.81c-.18.17-1.73-1.25-4.38-3.33-1.32-1.05-2.95-2.23-4.79-3.49s-3.92-2.54-6.15-3.83c-4.47-2.57-8.65-4.68-11.66-6.26s-4.85-2.63-4.76-2.84,2.1.48,5.25,1.8a107.21,107.21,0,0,1,12,5.89,73.29,73.29,0,0,1,6.2,4,49.65,49.65,0,0,1,4.66,3.83C366.91,362,368.18,363.68,368,363.81Z" stroke="#000" stroke-miterlimit="10" stroke-width="0.5"/>
      <path d="M336.7,359.08c.37.27-1.73,3.79-4.19,8.18s-4.39,8-4.82,7.82.88-4.15,3.4-8.62S336.35,358.82,336.7,359.08Z" stroke="#000" stroke-miterlimit="10" stroke-width="0.5"/>
      <path d="M367.52,365.72c0,.2-1.76.53-4.65.46a39.54,39.54,0,0,1-5.05-.5,55.31,55.31,0,0,1-6.05-1.41,78.14,78.14,0,0,1-10.46-4c-2.6-1.2-4.14-2.07-4.06-2.28s1.79.29,4.49,1.21,6.37,2.27,10.49,3.49c2.07.6,4,1.1,5.86,1.49s3.47.66,4.87.83C365.75,365.39,367.51,365.47,367.52,365.72Z" stroke="#000" stroke-miterlimit="10" stroke-width="0.5"/>
    </g>
    <g id="arm_right" data-name="arm right">
      <path d="M182,134.44c-2.3.83-3.52,2.89-5.18,6.1-7.86,15.18-9.33,22.05-9.33,22.05-7.68,36-2.45,3.59-9,40-6.08,33.82-5.74,34.75-8.51,46.07-3.24,13.23-6.73,24.33-8.88,30.81-2.62,7.91-5.16,14.75-7.33,20.29-1.69,1.38-4.06,3.38-6.77,5.94A84.07,84.07,0,0,0,116.92,317c-3.06,4.16-5.8,7.95-4.55,9.85.6.93,2,1.12,3.07,1.14a73.92,73.92,0,0,0-1.66,9.06,75.52,75.52,0,0,0-.52,8.22q5.13-8,10.25-15.9a63.71,63.71,0,0,0-3.66,19.83,36.79,36.79,0,0,0,5.79-4.74,37.74,37.74,0,0,0,8.58-13.58c0,3.13.09,6.36.23,9.67q.17,4.37.47,8.5a53.4,53.4,0,0,0,4.7-7.61c2.73-5.4,2.21-6.67,5.31-13.09,1.7-3.51,2.59-4.64,4.37-8.81,1-2.44,1.78-4.5,2.26-5.91l1.89,4.74c1.31-3.15,3.3-7.85,5.82-13.51,4.69-10.56,8.3-17.93,9.5-20.43,8.64-18,14.21-37.65,18.54-52.94,2.27-8.05,4.35-17,8.49-35,8.15-35.35,9-44.13,3.85-51.87C195.63,138.63,187.44,132.47,182,134.44Z" fill="#fff"/>
      <path d="M154.43,229a17.58,17.58,0,0,1,.24-3.84c.26-2.45.69-6,1.28-10.37,1.2-8.74,3-20.82,5.93-34,1.48-6.58,3.13-12.8,4.86-18.39a119.2,119.2,0,0,1,5.34-14.62,38.5,38.5,0,0,1,5.57-8.93,11.67,11.67,0,0,1,2.82-2.64,36.44,36.44,0,0,1-2.32,3,43.93,43.93,0,0,0-5,9,136.32,136.32,0,0,0-4.95,14.58c-1.64,5.57-3.23,11.76-4.7,18.31-2.94,13.1-4.9,25.12-6.4,33.81-.73,4.34-1.33,7.86-1.79,10.29A17.61,17.61,0,0,1,154.43,229Z" stroke="#000" stroke-miterlimit="10" stroke-width="0.5"/>
      <path d="M156.3,310.64a23.65,23.65,0,0,1,1.76-4.15c.63-1.32,1.39-2.92,2.24-4.8s1.87-4,2.91-6.36c2.15-4.71,4.59-10.38,7.19-16.72s5.27-13.38,7.89-20.84,4.86-14.65,6.81-21.22S188.63,224,189.89,219c.66-2.5,1.18-4.79,1.68-6.79s.9-3.73,1.23-5.14a24.74,24.74,0,0,1,1.21-4.35,23.52,23.52,0,0,1-.59,4.48c-.23,1.43-.55,3.18-1,5.21s-.86,4.33-1.45,6.86c-1.12,5.08-2.63,11.08-4.47,17.71s-4.11,13.84-6.72,21.34-5.38,14.53-8,20.88-5.24,12-7.53,16.63c-1.11,2.35-2.21,4.44-3.14,6.28s-1.78,3.4-2.49,4.67A23.34,23.34,0,0,1,156.3,310.64Z" stroke="#000" stroke-miterlimit="10" stroke-width="0.5"/>
      <path d="M133.78,299.76c-.22-.09,1.13-4,3.27-10.35s5-15.13,7.85-24.93,5.11-18.76,6.69-25.26,2.54-10.54,2.77-10.49a10.26,10.26,0,0,1-.26,2.91c-.26,1.86-.73,4.54-1.38,7.83-1.3,6.58-3.41,15.62-6.25,25.47s-5.92,18.6-8.34,24.86c-1.21,3.13-2.24,5.64-3,7.35A10.71,10.71,0,0,1,133.78,299.76Z" stroke="#000" stroke-miterlimit="10" stroke-width="0.5"/>
      <path d="M152.66,315.38c-.26,0-.33-1.56-1.3-3.76a16.56,16.56,0,0,0-6-7,36.61,36.61,0,0,0-8.62-4,6.21,6.21,0,0,0-2.7-.38c-.62.09-1,.31-1,.21s.14-.48.86-.82a5.4,5.4,0,0,1,3.16-.12,26.66,26.66,0,0,1,9.25,3.76,16.55,16.55,0,0,1,4.08,3.84,13.47,13.47,0,0,1,2.11,4.07C153.21,313.75,152.84,315.4,152.66,315.38Z" stroke="#000" stroke-miterlimit="10" stroke-width="0.5"/>
      <path d="M128.16,315.65c.16.11-1.43,2.84-4.88,6.57-.86.92-1.84,1.91-3,2.91q-.83.76-1.74,1.53a23.43,23.43,0,0,1-2,1.54,4.13,4.13,0,0,1-2.95.78,2.64,2.64,0,0,1-1.56-1,3,3,0,0,1-.6-1.68,6.54,6.54,0,0,1,.65-3c.45-.9.88-1.73,1.38-2.57a66.16,66.16,0,0,1,12.74-15.09c3.73-3.38,6.18-5.29,6.33-5.13s-2,2.39-5.53,6-8.33,8.56-12.13,15.08c-.48.79-.92,1.65-1.31,2.42a5,5,0,0,0-.54,2.27,1.15,1.15,0,0,0,.88,1.21,2.72,2.72,0,0,0,1.85-.53,23.11,23.11,0,0,0,1.88-1.38c.61-.47,1.19-1,1.75-1.42,1.12-.94,2.13-1.85,3-2.71C126.05,318,128,315.5,128.16,315.65Z" stroke="#000" stroke-miterlimit="10" stroke-width="0.5"/>
      <path d="M136.86,311.13c.35.25-1.13,2.7-4.08,4.48s-5.8,2-5.86,1.54,2.35-1.3,5-2.94S136.5,310.83,136.86,311.13Z" stroke="#000" stroke-miterlimit="10" stroke-width="0.5"/>
      <path d="M134.93,349c-.19-.13.93-2,2.62-5.15.85-1.55,1.83-3.42,2.85-5.52a53.34,53.34,0,0,0,2.9-7c.41-1.25.67-2.5,1-3.78a14.64,14.64,0,0,1,1.36-3.62c1.18-2.16,2.52-3.81,3.48-5.27a16.53,16.53,0,0,0,1.89-3.62c.32-.92.4-1.47.54-1.46s.22.58.07,1.6a12,12,0,0,1-1.52,4.07c-.86,1.6-2.12,3.34-3.13,5.36a14.42,14.42,0,0,0-1.14,3.32c-.28,1.21-.56,2.57-1,3.9a44.66,44.66,0,0,1-3.11,7.14c-1.11,2.1-2.21,3.93-3.2,5.44C136.57,347.46,135.11,349.14,134.93,349Z" stroke="#000" stroke-miterlimit="10" stroke-width="0.5"/>
      <path d="M113.26,345.24c-.43.05-1.09-4-.18-9s3-8.54,3.34-8.35-.89,3.91-1.73,8.64S113.73,345.22,113.26,345.24Z" stroke="#000" stroke-miterlimit="10" stroke-width="0.5"/>
      <path d="M126.84,324.6c.37.27-2.4,4.69-5.89,10.08s-6.41,9.73-6.8,9.5,1.9-4.95,5.43-10.38S126.49,324.34,126.84,324.6Z" stroke="#000" stroke-miterlimit="10" stroke-width="0.5"/>
      <path d="M119.32,349.49c-.41,0-.68-5.86,1.43-12.72s5.56-11.6,5.9-11.36-2.35,5.21-4.34,11.84S119.81,349.52,119.32,349.49Z" stroke="#000" stroke-miterlimit="10" stroke-width="0.5"/>
      <ellipse cx="126" cy="337.95" rx="12.79" ry="0.82" transform="translate(-230.94 286.21) rotate(-61.3)" stroke="#000" stroke-miterlimit="10" stroke-width="0.5"/>
      <path d="M134.22,330.87c.19.1-.2,1.29-1,3.13a48.64,48.64,0,0,1-3.83,6.9,29,29,0,0,1-5.24,6c-1.58,1.31-2.73,1.87-2.85,1.7s.74-1.06,2-2.53A56.35,56.35,0,0,0,128,340c1.68-2.5,3.09-4.86,4.17-6.54S134,330.76,134.22,330.87Z" stroke="#000" stroke-miterlimit="10" stroke-width="0.5"/>
      <path d="M134.38,350.21c-.44,0-1-4.37-.74-9.81s1.34-9.74,1.77-9.67.13,4.42-.15,9.76S134.84,350.19,134.38,350.21Z" stroke="#000" stroke-miterlimit="10" stroke-width="0.5"/>
    </g>
    <g id="arm_left" data-name="arm left">
      <path d="M295.2,130.59a83.73,83.73,0,0,0-10.2,23.9c-5.09,20.28-2.08,37.52,1.19,46.32,3.84,10.33,9.09,23.49,16,38.5,5.81,12.64,10.64,21.9,12,24.5a487.65,487.65,0,0,0,26.1,43.9l1.81-7.91a24.59,24.59,0,0,0,4.15,7.93,24.85,24.85,0,0,0,10.09,7.58c1.27,3.62,2.37,6.73,3.12,8.86,2,5.76,3.61,10.12,7.18,14.27,2,2.3,2.55,2.18,2.72,2.1.74-.37,0-3.16-1-7.14-.66-2.8-1.52-6.63-2.41-11.26a83.19,83.19,0,0,1,4.57,8c1.17,2.35,2,4.28,4.08,5.24.32.15,2.41,1.07,3.3.23,1-1-.43-3.59-2-9-.75-2.55-1.22-4.68-1.5-6.1a32.45,32.45,0,0,0,5.39,8.49,31.68,31.68,0,0,0,3.33,3.27,47.22,47.22,0,0,0-2.12-8.89,48.17,48.17,0,0,0-2.89-6.68l-2.58-3.84c1,.9,2.28,1.91,2.8,1.57,1.12-.75-2.16-7.47-2.51-8.18-2-4.06-3.88-7.92-7.8-11.54-4.14-3.82-6.44-3.58-12.69-9-1.52-1.32-2.7-2.48-3.45-3.25l3.32-2.65c-1.08-3.21-2.88-8.38-5.34-14.65-8-20.43-13.26-27.32-22.36-49.61a180,180,0,0,1-7-19.07c-2.33-8-1.8-8.52-5.61-24.35-5-20.7-4.54-14.16-6.1-22.46-.78-4.12-1.28-7.8-4.05-11.67A22.41,22.41,0,0,0,295.2,130.59Z" fill="#fff"/>
      <path d="M355.18,279.7c-.13,0-.89-2.11-2.35-5.95s-3.73-9.34-6.8-16-7-14.53-11.2-23.3a259.29,259.29,0,0,1-12.37-29.24c-3.65-10.71-5.7-21.28-7.8-30.77a218.1,218.1,0,0,0-6.52-24.93l-.88-2.53-.92-2.38c-.58-1.55-1.2-3-1.84-4.26a24.48,24.48,0,0,0-4.08-6.12,14.27,14.27,0,0,0-3.67-2.83,11,11,0,0,0-1.1-.53c-.25-.12-.38-.19-.37-.22s.15,0,.43.06a6.55,6.55,0,0,1,1.18.39,13.07,13.07,0,0,1,4,2.68,24.07,24.07,0,0,1,4.44,6.16,45.09,45.09,0,0,1,2,4.28c.32.77.65,1.56,1,2.38s.62,1.67,1,2.54a201.44,201.44,0,0,1,6.9,25c2.18,9.49,4.27,20,7.87,30.57a276.86,276.86,0,0,0,12.19,29.11c4.15,8.8,8,16.71,10.89,23.48s5.07,12.35,6.35,16.27c.67,2,1.08,3.51,1.38,4.55A6.79,6.79,0,0,1,355.18,279.7Z" stroke="#000" stroke-miterlimit="10" stroke-width="0.5"/>
      <path d="M340,308.24a25.44,25.44,0,0,1-2.8-3.82c-.87-1.26-1.9-2.81-3.07-4.63s-2.51-3.89-3.93-6.22c-2.88-4.63-6.18-10.21-9.73-16.49s-7.26-13.27-11-20.7-7.07-14.63-10-21.21-5.4-12.59-7.38-17.67c-1-2.53-1.87-4.84-2.63-6.87s-1.38-3.78-1.87-5.22a25.85,25.85,0,0,1-1.38-4.54,27.27,27.27,0,0,1,2,4.31c1.18,2.81,2.87,6.87,5,11.89s4.72,10.94,7.69,17.48,6.37,13.68,10.08,21.1,7.42,14.39,10.86,20.7,6.65,11.94,9.4,16.63,5,8.47,6.54,11.1A27.07,27.07,0,0,1,340,308.24Z" stroke="#000" stroke-miterlimit="10" stroke-width="0.5"/>
      <path d="M354.41,281.81c0,.12-.42.22-1.08.55a7.77,7.77,0,0,0-2.37,1.95,31.16,31.16,0,0,0-2.67,3.93c-.93,1.55-1.89,3.29-2.8,5.17-3.66,7.53-4.73,14.36-5.21,14.28-.21,0-.21-1.78.29-4.55A42.13,42.13,0,0,1,344,292.71a45.37,45.37,0,0,1,3-5.28,24.06,24.06,0,0,1,3.11-3.92,6.67,6.67,0,0,1,3-1.75C354,281.59,354.4,281.71,354.41,281.81Z" stroke="#000" stroke-miterlimit="10" stroke-width="0.5"/>
      <path d="M378.33,314.42c-.25,0-.37-2.32-2-5.64a51.15,51.15,0,0,0-8-11.88,52.28,52.28,0,0,0-5.75-5.44,63.92,63.92,0,0,0-5.29-3.79,20.8,20.8,0,0,1-3.53-2.81c-.74-.78-1-1.31-.94-1.38s.53.3,1.36.91a37.75,37.75,0,0,0,3.72,2.3,45.59,45.59,0,0,1,5.6,3.59,43.5,43.5,0,0,1,6,5.52,41.83,41.83,0,0,1,7.89,12.54C378.82,312,378.53,314.45,378.33,314.42Z" stroke="#000" stroke-miterlimit="10" stroke-width="0.5"/>
      <path d="M364.39,303c0,.44-3.07.56-6.55-.72a18.55,18.55,0,0,1-2.36-1.06,5.61,5.61,0,0,1-1.79-1.4,2.32,2.32,0,0,1-.59-1.53c0-.4.2-.58.3-.56s.28.71,1.1,1.28a7.31,7.31,0,0,0,1.62.85c.7.29,1.47.59,2.28.89C361.64,301.93,364.43,302.52,364.39,303Z" stroke="#000" stroke-miterlimit="10" stroke-width="0.5"/>
      <path d="M377.59,314.72c-.2.38-3.72-1.11-7.16-4.26s-5.27-6.51-4.9-6.74,2.71,2.55,6,5.53S377.82,314.31,377.59,314.72Z" stroke="#000" stroke-miterlimit="10" stroke-width="0.5"/>
      <path d="M357,315.08c-.06.19-1.25.08-3.06-.6a20,20,0,0,1-10.68-10.17c-.77-1.76-.94-2.95-.75-3,.46-.18,2.18,4.15,6.24,7.95S357.15,314.61,357,315.08Z" stroke="#000" stroke-miterlimit="10" stroke-width="0.5"/>
      <path d="M370.14,340.81c0,.1-.47.13-1.23-.12a7.1,7.1,0,0,1-2.75-1.91,19.54,19.54,0,0,1-2.72-4c-.86-1.57-1.74-3.33-2.6-5.21-3.43-7.54-4.92-14.11-4.51-14.22s2.62,6.13,6,13.54c.84,1.86,1.67,3.61,2.44,5.2a23.27,23.27,0,0,0,2.27,4C368.56,340.13,370.22,340.57,370.14,340.81Z" stroke="#000" stroke-miterlimit="10" stroke-width="0.5"/>
      <path d="M376.58,336.38c0,.1-.4.17-1.05,0a5.82,5.82,0,0,1-2.3-1.54,42.77,42.77,0,0,1-5.15-7.06c-3.52-5.87-5-11.25-4.62-11.38s2.59,4.83,6,10.54c1.7,2.84,3.38,5.41,4.61,7.14S376.61,336.15,376.58,336.38Z" stroke="#000" stroke-miterlimit="10" stroke-width="0.5"/>
      <path d="M377.07,335.75c-.35.25-3.47-3.82-5.76-9.66s-2.79-10.94-2.37-11,1.65,4.74,3.89,10.4S377.47,335.5,377.07,335.75Z" stroke="#000" stroke-miterlimit="10" stroke-width="0.5"/>
      <path d="M383.12,332.28c-.14.16-1.15-.38-2.54-1.58a25.19,25.19,0,0,1-7.52-12c-.47-1.78-.51-2.92-.31-3,.47-.12,1.73,4.12,4.6,8.64S383.43,331.91,383.12,332.28Z" stroke="#000" stroke-miterlimit="10" stroke-width="0.5"/>
      <path d="M383.07,332c-.47.06-1.28-3.7-2.78-8.14s-3.09-7.94-2.68-8.17,2.69,3,4.22,7.65S383.5,331.94,383.07,332Z" stroke="#000" stroke-miterlimit="10" stroke-width="0.5"/>
      <path d="M369.88,340.24c-.44.09-1.65-4.09-2.91-9.29s-2.08-9.47-1.64-9.59,2,4,3.23,9.21S370.32,340.15,369.88,340.24Z" stroke="#000" stroke-miterlimit="10" stroke-width="0.5"/>
    </g>
    <g id="box">
      <path d="M26.18,355.82l.73-4.84q8.9-7.62,18.2-15.22c22.64-18.52,45.1-35.31,67.1-50.54l24.57,22,36.95,33.08C193.27,342,214.44,343,237,343a740.55,740.55,0,0,0,75.81-3.87c9.72-11.5,19.69-24.11,29.65-37.87,7.47-10.33,14.32-20.44,20.6-30.23,16.34,8.14,30,15.66,40.55,21.75C423.13,304,434,311.46,437.76,314.09c5.42,3.76,9.86,7,13,9.41-10.62,11.38-19,20.86-24.46,27.21-14.19,16.39-20.47,24.76-36.63,43.62-8.68,10.13-15.85,18.21-20.31,23.18q-7.06,39.15-12.84,80.86-2.49,18.18-4.6,36c-16.38,4-31,6.58-43.16,8.38-14.72,2.16-26.09,3.14-35.44,3.93-12,1-27.15,2.3-43.19,2.35a333.56,333.56,0,0,1-65.28-6.33q-3-11.42-6.28-23.06a992.49,992.49,0,0,0-32.74-96c-2.14-1-5.14-2.56-8.69-4.41a437,437,0,0,1-52-31.88A424.91,424.91,0,0,1,26.18,355.82Z" fill="#fff"/>
      <path d="M173.69,340.26c-.3.34-14.29-11.71-31.26-26.9S112,285.58,112.25,285.25s14.3,11.7,31.26,26.9S174,339.93,173.69,340.26Z" stroke="#000" stroke-miterlimit="10" stroke-width="0.5"/>
      <path d="M112.24,285.77a20.72,20.72,0,0,1-3.32,2.64l-9.36,6.77c-7.9,5.71-18.78,13.65-30.58,22.69S46.67,335.34,39.1,341.49c-3.79,3.06-6.85,5.55-9,7.26a22.06,22.06,0,0,1-3.41,2.53,20.76,20.76,0,0,1,3-3c2-1.85,5-4.48,8.65-7.67,7.39-6.38,17.8-15,29.62-24s22.84-16.87,30.92-22.34c4-2.74,7.34-4.9,9.66-6.35A22,22,0,0,1,112.24,285.77Z" stroke="#000" stroke-miterlimit="10" stroke-width="0.5"/>
      <path d="M125.23,421.94a16.34,16.34,0,0,1,1.48-3.46c1-2.17,2.62-5.28,4.62-9.1,4-7.64,9.76-18.08,16.46-29.42s13.07-21.41,17.83-28.6c2.38-3.6,4.34-6.48,5.74-8.44a17.18,17.18,0,0,1,2.31-3,16.14,16.14,0,0,1-1.77,3.31L166.59,352c-4.51,7.34-10.71,17.5-17.4,28.81s-12.59,21.65-16.84,29.14l-5.08,8.85A17,17,0,0,1,125.23,421.94Z" stroke="#000" stroke-miterlimit="10" stroke-width="0.5"/>
      <path d="M124.65,421.2a25.85,25.85,0,0,1-4.19-2.22c-2.65-1.52-6.44-3.8-11.07-6.68-9.27-5.77-21.88-14.06-35.42-23.77s-25.43-19-33.86-25.95c-4.22-3.46-7.59-6.32-9.87-8.34A25.29,25.29,0,0,1,26.79,351a27.48,27.48,0,0,1,3.85,2.78l10.19,7.93c8.6,6.7,20.58,15.83,34.09,25.53s26,18.11,35.09,24.12l10.78,7.11A26.44,26.44,0,0,1,124.65,421.2Z" stroke="#000" stroke-miterlimit="10" stroke-width="0.5"/>
      <path d="M26.18,355.81c-.44.05-.91-1.12-.69-2.57s1-2.43,1.42-2.26.38,1.26.19,2.5S26.63,355.78,26.18,355.81Z" stroke="#000" stroke-miterlimit="10" stroke-width="0.5"/>
      <path d="M123.34,422.33a26,26,0,0,1-4.28-1.78c-1.36-.62-3-1.4-4.9-2.35s-4.06-2-6.41-3.28-4.94-2.62-7.67-4.17-5.63-3.23-8.67-5c-6-3.65-12.6-7.82-19.31-12.44S59.18,384,53.63,379.64c-2.75-2.21-5.37-4.3-7.76-6.34s-4.62-3.92-6.62-5.69-3.77-3.4-5.33-4.84S31,360.07,30,359a25,25,0,0,1-3.18-3.37,26.31,26.31,0,0,1,3.61,2.9c1.12,1,2.5,2.18,4.11,3.54s3.42,3,5.48,4.65,4.28,3.57,6.73,5.52,5.06,4,7.83,6.19c5.58,4.28,11.8,8.88,18.47,13.5s13.18,8.79,19.16,12.49c3,1.82,5.85,3.58,8.56,5.14s5.23,3,7.55,4.33,4.43,2.45,6.28,3.48,3.45,1.89,4.77,2.59A25.31,25.31,0,0,1,123.34,422.33Z" stroke="#000" stroke-miterlimit="10" stroke-width="0.5"/>
      <path d="M33,360.66c-.22,0-.5-.55-.79-1.51-.14-.48-.28-1.06-.41-1.7l-.23-1.24s0-.07,0-.11-.13,0-.2.07l-.11.05-.06,0-.17.11a13.63,13.63,0,0,1-1.4.84,1.86,1.86,0,0,1-1.27.22c-.33-.09-.42-.29-.38-.37s.2-.13.37-.23a3.38,3.38,0,0,0,.67-.54c.27-.27.68-.68,1.12-1.07l.2-.17.3-.26.65-.53a1.74,1.74,0,0,1,.64-.28.75.75,0,0,1,.59.06,1.11,1.11,0,0,1,.35.39,1.81,1.81,0,0,1,.24.83l.11.95.1,1.05c0,.65.07,1.24.07,1.74C33.33,360,33.22,360.63,33,360.66Z" stroke="#000" stroke-miterlimit="10" stroke-width="0.5"/>
      <path d="M37.11,364.75c-.22,0-.48-.5-.72-1.35-.12-.42-.23-.93-.33-1.49l-.14-.88-.08-.59a2.29,2.29,0,0,0,0-.25c-.07-.06-.13,0-.2,0l-.12,0a.71.71,0,0,0-.19.08l-.67.28c-.82.32-1.38.42-1.5.23s.24-.65.91-1.22c.17-.14.35-.3.56-.45s.3-.22.48-.34.39-.27.6-.39a1.79,1.79,0,0,1,.59-.2.78.78,0,0,1,.56.1,1.05,1.05,0,0,1,.36.42,2,2,0,0,1,.18.76l.09.85,0,.49,0,.91c0,.58,0,1.11,0,1.55C37.49,364.19,37.34,364.74,37.11,364.75Z" stroke="#000" stroke-miterlimit="10" stroke-width="0.5"/>
      <path d="M41.1,367.37c-.19.11-.65-.31-.78-1.16a7.26,7.26,0,0,1-.06-1.32,3.21,3.21,0,0,0-.08-.36,1.12,1.12,0,0,0,0-.13l-.08.05a1.33,1.33,0,0,1-.33.11,4.09,4.09,0,0,1-1,.27c-.6.06-1-.06-1-.25s.24-.4.64-.69l.71-.54a4.81,4.81,0,0,0,.74-.65l.93-1,.33.27c.14.23.27.45.38.66a3,3,0,0,1,.35,1.11,6,6,0,0,1-.06,1.27c-.1.55-.21.9-.29,1.23C41.3,366.84,41.3,367.26,41.1,367.37Z" stroke="#000" stroke-miterlimit="10" stroke-width="0.5"/>
      <path d="M45.85,370.6c-.22,0-.48-.41-.7-1.13a11.86,11.86,0,0,1-.31-1.27l-.07-.37a.81.81,0,0,0,0-.11.64.64,0,0,0-.06-.18s0,0,0,0-.11,0-.17,0l-.09,0h-.06l-.16.07a11,11,0,0,1-1.18.43c-.69.2-1.16.22-1.27,0s.19-.57.74-1c.28-.23.62-.48,1-.74l.15-.09.27-.16a5.18,5.18,0,0,1,.57-.31,1.3,1.3,0,0,1,1.12,0,1.07,1.07,0,0,1,.22.15,1.68,1.68,0,0,1,.47,1.12l0,.67V368c0,.49,0,.93,0,1.31C46.23,370.1,46.07,370.57,45.85,370.6Z" stroke="#000" stroke-miterlimit="10" stroke-width="0.5"/>
      <path d="M50.92,375.42c-.22,0-.51-.43-.79-1.21a13.91,13.91,0,0,1-.41-1.38,2.13,2.13,0,0,0-.11-.41,1.06,1.06,0,0,1-.06-.19c0-.1-.12-.15-.17-.08a3.22,3.22,0,0,1-.29.21,2.64,2.64,0,0,1-1.17.67A1.31,1.31,0,0,1,47,373c-.21-.11-.26-.24-.23-.33s.42-.22.76-.53a3,3,0,0,0,.54-.66c.38-.55.87-1.41,1.37-1.57a.85.85,0,0,1,.59-.07,1.1,1.1,0,0,1,.55.34,2.27,2.27,0,0,1,.47,1.19c.08.5.16,1.07.17,1.25,0,.54.07,1,.06,1.44C51.26,374.85,51.14,375.38,50.92,375.42Z" stroke="#000" stroke-miterlimit="10" stroke-width="0.5"/>
      <path d="M56.16,378.78c-.22.05-.53-.39-.85-1.14-.16-.38-.33-.83-.49-1.34l-.28-.93c0-.08-.08-.15-.14-.11s-.11.06-.18.09a.57.57,0,0,0-.13.07l-.29.21c-.2.14-.38.27-.56.38-.69.43-1.2.62-1.35.45s.08-.65.57-1.31l.42-.51.25-.28.45-.46a2.13,2.13,0,0,1,1.05-.67,1,1,0,0,1,.61.06,1.08,1.08,0,0,1,.44.37,3.72,3.72,0,0,1,.45,1.4l.09.5.07.4c.07.53.12,1,.14,1.42C56.47,378.2,56.38,378.73,56.16,378.78Z" stroke="#000" stroke-miterlimit="10" stroke-width="0.5"/>
      <path d="M61.15,383c-.22,0-.51-.42-.79-1.2A14.17,14.17,0,0,1,60,380.4l-.05-.2a.45.45,0,0,0,0-.08l0-.1a1,1,0,0,1,0-.2l0-.16a2.91,2.91,0,0,1-.28.17l-.22.11c-.16.13-.31.25-.46.35-.57.41-1,.6-1.15.46s0-.58.37-1.19c.09-.15.19-.31.31-.48l.68-.85c.51-.62,1.13-1.34,1.8-2.07l.19,1.1.26,1.6.1.75,0,.33,0,.21a12.65,12.65,0,0,1,.06,1.44C61.49,382.42,61.37,383,61.15,383Z" stroke="#000" stroke-miterlimit="10" stroke-width="0.5"/>
      <path d="M66.29,387.8c-.23,0-.39-.57-.55-1.44l-.25-1.52-.14-.84a1.89,1.89,0,0,1,0-.23s0-.11,0-.18a.11.11,0,0,0-.17,0,.79.79,0,0,0-.15.12c-.07.06-.09,0-.24.18a3.39,3.39,0,0,1-.54.43c-.7.48-1.23.54-1.33.37s.19-.55.59-1.14l.31-.47c.15-.2.38-.66.61-1a2.17,2.17,0,0,1,.76-.73,1,1,0,0,1,.49-.11,1,1,0,0,1,.54.18,1.55,1.55,0,0,1,.48.67,8.71,8.71,0,0,1,.31,1.66c0,.44,0,.69.06,1a10,10,0,0,1-.09,1.63C66.76,387.26,66.51,387.81,66.29,387.8Z" stroke="#000" stroke-miterlimit="10" stroke-width="0.5"/>
      <path d="M72,390.72c-.22,0-.5-.43-.78-1.23-.14-.4-.28-.87-.41-1.41l-.19-.84c0-.13-.06-.34-.07-.36a.42.42,0,0,0,0-.1.19.19,0,0,0-.17-.13l-.1,0h-.07l-.2.08c-.52.18-1,.33-1.4.43-.82.2-1.37.22-1.46,0s.29-.6,1-1.07a14.38,14.38,0,0,1,1.26-.76l.18-.09.33-.16a1.91,1.91,0,0,1,.7-.18,1.45,1.45,0,0,1,1.25.74,2.54,2.54,0,0,1,.29.75,5.34,5.34,0,0,1,.09.54l.09.86a13,13,0,0,1,.06,1.46C72.32,390.15,72.2,390.69,72,390.72Z" stroke="#000" stroke-miterlimit="10" stroke-width="0.5"/>
      <path d="M76.64,393.93c-.22,0-.5-.44-.83-1.21-.16-.38-.34-.83-.54-1.34l-.3-.79-.12-.28c0-.07-.09-.15-.16-.13a.93.93,0,0,0-.19.11l0,0h0l-.08.07a2.89,2.89,0,0,1-.32.29,4.37,4.37,0,0,1-.64.42c-.83.45-1.43.44-1.51.25s.3-.58.81-1.16l.39-.48.58-.77a1.77,1.77,0,0,1,1.06-.75,1.19,1.19,0,0,1,1.18.49,3.27,3.27,0,0,1,.35.7l.14.38.09.3c.09.3.17.59.23.87a8.59,8.59,0,0,1,.22,1.51C77,393.34,76.86,393.89,76.64,393.93Z" stroke="#000" stroke-miterlimit="10" stroke-width="0.5"/>
      <path d="M81,397c-.22,0-.46-.43-.71-1.15-.12-.35-.26-.78-.4-1.25l-.22-.73-.09-.28c0-.05,0-.16-.12-.13l-.18.06a4.81,4.81,0,0,0-.5.22c-.2.1-.4.18-.58.25-.72.29-1.23.37-1.35.18s.17-.61.73-1.15l.48-.42c.19-.15.29-.25.71-.54a2.12,2.12,0,0,1,1.11-.52.9.9,0,0,1,.56.17,1.21,1.21,0,0,1,.38.47,3.11,3.11,0,0,1,.25.67c.06.23.14.54.15.63.06.28.11.55.14.81a7.79,7.79,0,0,1,.07,1.4C81.41,396.48,81.24,397,81,397Z" stroke="#000" stroke-miterlimit="10" stroke-width="0.5"/>
      <path d="M86.52,400.51c-.21.08-.58-.3-1-1a12.39,12.39,0,0,1-.65-1.23l-.33-.75-.24-.61a1,1,0,0,0-.06-.16c-.09-.13-.24,0-.35,0a3.52,3.52,0,0,0-.38.28l-.44.33c-.56.38-1,.54-1.11.4s0-.56.34-1.14l.3-.46.18-.25c0-.06.2-.25.31-.38a2.15,2.15,0,0,1,.9-.62,1.24,1.24,0,0,1,1.1.16,1.8,1.8,0,0,1,.58.86c.22.59.27.73.37,1l.24.78c.14.5.25,1,.32,1.36C86.75,399.91,86.73,400.43,86.52,400.51Z" stroke="#000" stroke-miterlimit="10" stroke-width="0.5"/>
      <path d="M91.06,404.59c-.44.11-1.27-1.59-2.25-3.67l-.12-.26,0-.1a.35.35,0,0,0-.12-.22c-.15,0-.24.07-.42.16-.54.45-1,.73-1.21.6s-.07-.6.35-1.37c.31-.51.72-1.27,1.49-1.24a1.19,1.19,0,0,1,.93.6,3.61,3.61,0,0,1,.36.62l.26.52C91.33,402.45,91.49,404.48,91.06,404.59Z" stroke="#000" stroke-miterlimit="10" stroke-width="0.5"/>
      <path d="M95.29,405.9c-.23,0-.5-.38-.86-1l-.61-1.11-.36-.63-.13-.17c-.1-.16-.22,0-.33.06-.35.29-.73.6-1,.81-.64.43-1.11.62-1.27.47s0-.64.44-1.28A10.93,10.93,0,0,1,92,402a3.33,3.33,0,0,1,1-.86,1.07,1.07,0,0,1,1.16.14,4.27,4.27,0,0,1,.79,1.15,8.23,8.23,0,0,1,.33.78,6.43,6.43,0,0,1,.34,1.38C95.63,405.34,95.5,405.85,95.29,405.9Z" stroke="#000" stroke-miterlimit="10" stroke-width="0.5"/>
      <path d="M99.62,408.83c-.21.09-.57-.28-.85-.95-.14-.33-.26-.73-.39-1.11a5.72,5.72,0,0,0-.22-.55l-.09-.15a1.33,1.33,0,0,0-.12-.16l-.07-.08s0,0-.06,0l-.32.22c-.45.5-.84.78-1,.67s-.17-.57,0-1.26a5.25,5.25,0,0,1,.87-1.63c.1-.1.18-.3.31-.32l.46.25a2.77,2.77,0,0,1,.87.7,3.39,3.39,0,0,1,.63,1.13,4.06,4.06,0,0,1,.2.8,8.31,8.31,0,0,1,.07,1.24C99.88,408.32,99.83,408.74,99.62,408.83Z" stroke="#000" stroke-miterlimit="10" stroke-width="0.5"/>
      <path d="M106,412.6c-.12.18-.68,0-1.14-.61a5,5,0,0,1-.62-1.1l-.26-.6-.09-.17c-.07-.1-.16-.3-.33-.35-.22.18-.65.72-1,.66-.16,0-.23-.29-.18-.77a5.64,5.64,0,0,1,.17-.89l.15-.55c0-.09.06-.21.09-.29a.71.71,0,0,1,.18-.16,1,1,0,0,1,1,0,2.49,2.49,0,0,1,.94.8,4.14,4.14,0,0,1,.56,1.11,6.1,6.1,0,0,1,.19.69l.23,1.07C106,412.06,106.11,412.41,106,412.6Z" stroke="#000" stroke-miterlimit="10" stroke-width="0.5"/>
      <path d="M111,415.54c-.21.08-.51-.19-.87-.61l-.61-.72c-.15-.16-.18-.14-.26-.24l-.11-.13-.06-.08,0,0a2.83,2.83,0,0,1-.38.27c-.24.22-.5.39-.65.3s-.21-.3-.18-.73c0-.26.1-.61.15-1.09l.22-1.73c.09,0,.16.05.23.09l.35.28c.23.2.47.4.71.63a6.52,6.52,0,0,1,1.27,1.59,4.5,4.5,0,0,1,.39,1C111.28,415.05,111.19,415.47,111,415.54Z" stroke="#000" stroke-miterlimit="10" stroke-width="0.5"/>
      <path d="M117.36,418.42c-.21.08-.51-.15-.86-.51l-.28-.3c-.08-.09-.23-.28-.25-.27a.92.92,0,0,1-.21-.17l-.09-.12a.68.68,0,0,0-.43.17c-.18.1-.38.35-.58.34s-.39-.27-.35-1a4.84,4.84,0,0,1,1-2.34c.21.19.42.4.64.62a7.42,7.42,0,0,1,1.16,1.48,3.08,3.08,0,0,1,.26.57c.06.16.1.31.14.45C117.65,418,117.57,418.34,117.36,418.42Z" stroke="#000" stroke-miterlimit="10" stroke-width="0.5"/>
      <path d="M354.45,418.36a12.45,12.45,0,0,1-2.24.65c-1.49.38-3.69.91-6.52,1.57l-4.73,1.1-5.64,1.15c-4.06.8-8.67,1.79-13.82,2.61l-8.06,1.36c-2.81.46-5.74.83-8.77,1.27-6.06.93-12.57,1.6-19.42,2.38-13.71,1.35-28.83,2.38-44.73,2.71s-31.06-.22-44.81-1.07c-6.87-.52-13.4-1-19.49-1.66-3-.33-6-.59-8.81-.95l-8.11-1.06c-5.17-.63-9.81-1.45-13.9-2.1l-5.69-.94-4.75-.93c-2.86-.56-5.08-1-6.58-1.33a12.35,12.35,0,0,1-2.27-.57,12.92,12.92,0,0,1,2.33.25c1.52.22,3.75.57,6.63,1l4.77.78,5.7.81c4.09.56,8.74,1.3,13.91,1.85l8.1,1c2.82.33,5.76.56,8.8.86,6.08.64,12.6,1,19.45,1.5,13.72.77,28.83,1.19,44.69.94s30.93-1.31,44.61-2.58c6.84-.73,13.34-1.35,19.39-2.22,3-.41,6-.75,8.76-1.17l8.06-1.26c5.15-.74,9.76-1.65,13.83-2.36l5.67-1,4.74-1c2.86-.56,5.07-1,6.58-1.27A12.08,12.08,0,0,1,354.45,418.36Z" stroke="#000" stroke-miterlimit="10" stroke-width="0.5"/>
      <path d="M312.16,338.92a35,35,0,0,1-5.37.88c-1.74.23-3.87.5-6.34.75s-5.29.59-8.42.85c-6.23.6-13.68,1.14-21.95,1.59s-17.39.74-26.95.83-18.68-.1-27-.39-15.73-.74-22-1.23c-3.13-.21-5.95-.49-8.43-.71s-4.61-.45-6.35-.65A33.8,33.8,0,0,1,174,340a35.09,35.09,0,0,1,5.45.16l6.36.38c2.48.14,5.31.33,8.43.47,6.25.34,13.69.65,22,.88s17.35.32,26.89.26,18.63-.36,26.89-.7,15.7-.79,21.94-1.23c3.12-.2,5.94-.44,8.42-.61l6.36-.48A34.62,34.62,0,0,1,312.16,338.92Z" stroke="#000" stroke-miterlimit="10" stroke-width="0.5"/>
      <path d="M363.07,271.08a12.7,12.7,0,0,1-1.68,2.91c-1.17,1.81-2.91,4.39-5.09,7.56-4.37,6.34-10.54,15-17.52,24.45s-13.43,17.9-18.2,23.95c-2.38,3-4.34,5.44-5.72,7.09a13.78,13.78,0,0,1-2.28,2.47,13,13,0,0,1,1.77-2.85c1.23-1.77,3-4.3,5.31-7.41L337.47,305l17.89-24.16c2.31-3.08,4.19-5.56,5.52-7.26A13.79,13.79,0,0,1,363.07,271.08Z" stroke="#000" stroke-miterlimit="10" stroke-width="0.5"/>
      <path d="M450.73,323.47a17.29,17.29,0,0,1-3.26-2l-8.62-5.88c-3.64-2.47-8-5.35-12.92-8.49s-10.36-6.45-16.15-9.84-11.41-6.45-16.54-9.19-9.81-5.11-13.76-7.05l-9.36-4.59a16.66,16.66,0,0,1-3.37-1.84,17.81,17.81,0,0,1,3.63,1.26c2.29.9,5.58,2.3,9.6,4.13s8.75,4.1,13.95,6.75,10.84,5.74,16.67,9.12,11.26,6.8,16.15,10,9.2,6.2,12.76,8.81,6.42,4.75,8.33,6.31A17,17,0,0,1,450.73,323.47Z" stroke="#000" stroke-miterlimit="10" stroke-width="0.5"/>
      <ellipse cx="339.44" cy="377.27" rx="0.82" ry="46.2" transform="translate(-159.17 282.72) rotate(-37.28)" stroke="#000" stroke-miterlimit="10" stroke-width="0.5"/>
      <path d="M447.28,323.45a27,27,0,0,1-3,3.69c-2,2.28-5,5.59-8.61,9.67-7.29,8.14-17.33,19.4-28.28,32s-20.7,24.1-27.75,32.44l-8.38,9.87a28,28,0,0,1-3.23,3.49,26.56,26.56,0,0,1,2.73-3.89c1.84-2.44,4.57-5.93,8-10.2,6.83-8.54,16.46-20.18,27.41-32.78S427.3,344,434.81,336c3.76-4,6.83-7.16,9-9.33A27.78,27.78,0,0,1,447.28,323.45Z" stroke="#000" stroke-miterlimit="10" stroke-width="0.5"/>
      <path d="M371.05,416.41c-.19.41-1.17.34-2.19-.14s-1.68-1.21-1.48-1.62,1.17-.34,2.19.15S371.25,416,371.05,416.41Z" stroke="#000" stroke-miterlimit="10" stroke-width="0.5"/>
      <path d="M450.52,324.87a26.92,26.92,0,0,1-3.07,3.66l-8.74,9.6c-7.39,8.09-17.54,19.32-28.52,31.93s-20.7,24.22-27.7,32.66l-8.3,10a26.48,26.48,0,0,1-3.2,3.54,27.12,27.12,0,0,1,2.7-3.93c1.82-2.48,4.52-6,7.91-10.32,6.77-8.63,16.36-20.37,27.36-33s21.3-23.75,28.91-31.65c3.81-3.95,6.93-7.11,9.12-9.25A26.77,26.77,0,0,1,450.52,324.87Z" stroke="#000" stroke-miterlimit="10" stroke-width="0.5"/>
      <path d="M372.79,414.31c-.4.22-1.12-.33-1.61-1.23s-.56-1.79-.17-2,1.12.34,1.61,1.23S373.18,414.1,372.79,414.31Z" stroke="#000" stroke-miterlimit="10" stroke-width="0.5"/>
      <path d="M376.26,410.37c-.09.21-.51.23-1.07.17a7.38,7.38,0,0,0-1.89-.1,2.38,2.38,0,0,0-1.29.74c-.27.28-.35.64-.57.72s-.24,0-.36-.21a1.28,1.28,0,0,1-.15-.91,2.54,2.54,0,0,1,2.13-1.95,3.69,3.69,0,0,1,2.55.63C376.12,409.83,376.35,410.17,376.26,410.37Z" stroke="#000" stroke-miterlimit="10" stroke-width="0.5"/>
      <path d="M375.79,405.77c.42-.12,1,.7,1,1.84s-.73,1.89-1.14,1.72-.53-.94-.49-1.81S375.34,405.89,375.79,405.77Z" stroke="#000" stroke-miterlimit="10" stroke-width="0.5"/>
      <path d="M379.89,404.66c.07.44-.85.93-2,.69s-1.8-1.05-1.57-1.43,1-.34,1.9-.17S379.83,404.21,379.89,404.66Z" stroke="#000" stroke-miterlimit="10" stroke-width="0.5"/>
      <path d="M382.05,401.06c-.2.4-.85.48-1.44.19s-.91-.87-.71-1.27.85-.49,1.44-.19S382.25,400.65,382.05,401.06Z" stroke="#000" stroke-miterlimit="10" stroke-width="0.5"/>
      <path d="M385.28,398.19c-.4.23-1-.08-1.57-.49s-1-.91-.93-1.36,1-.59,1.9.05S385.67,398,385.28,398.19Z" stroke="#000" stroke-miterlimit="10" stroke-width="0.5"/>
      <path d="M388.11,394.26a1.67,1.67,0,0,1-1.26-.16,1.64,1.64,0,0,1-.85-.94.56.56,0,0,1,.4-.59,1.54,1.54,0,0,1,2,1A.55.55,0,0,1,388.11,394.26Z" stroke="#000" stroke-miterlimit="10" stroke-width="0.5"/>
      <path d="M391,390.3a2.1,2.1,0,0,1-2.15-1.39c0-.22.16-.44.49-.54a1.66,1.66,0,0,1,1.95,1.26A.59.59,0,0,1,391,390.3Z" stroke="#000" stroke-miterlimit="10" stroke-width="0.5"/>
      <path d="M395,386.35c-.4.23-1,0-1.47-.44s-.82-1-.66-1.38,1-.47,1.73.14S395.34,386.14,395,386.35Z" stroke="#000" stroke-miterlimit="10" stroke-width="0.5"/>
      <path d="M399.28,381.31c-.41.18-1-.24-1.28-.93s-.21-1.4.21-1.58,1,.24,1.29.94S399.7,381.14,399.28,381.31Z" stroke="#000" stroke-miterlimit="10" stroke-width="0.5"/>
      <path d="M404.32,374.84c-.23.38-1,.37-1.66,0s-1.05-1.06-.82-1.45,1-.36,1.66,0S404.55,374.45,404.32,374.84Z" stroke="#000" stroke-miterlimit="10" stroke-width="0.5"/>
      <path d="M409,369.82c-.45,0-.82-.58-1.07-1.24s-.32-1.35,0-1.64,1.16.13,1.5,1.09S409.41,369.83,409,369.82Z" stroke="#000" stroke-miterlimit="10" stroke-width="0.5"/>
      <ellipse cx="411.67" cy="365.16" rx="1.61" ry="0.82" stroke="#000" stroke-miterlimit="10" stroke-width="0.5"/>
      <path d="M416.9,361.56c-.45,0-.84-.39-1.13-.8a1.55,1.55,0,0,1-.32-1.35.6.6,0,0,1,.67-.26,1.63,1.63,0,0,1,1,.7,1.6,1.6,0,0,1,.27,1.18A.59.59,0,0,1,416.9,361.56Z" stroke="#000" stroke-miterlimit="10" stroke-width="0.5"/>
      <path d="M420.83,356.54c0,.45-.64.81-1.43.81S418,357,418,356.54s.64-.82,1.44-.82S420.83,356.09,420.83,356.54Z" stroke="#000" stroke-miterlimit="10" stroke-width="0.5"/>
      <path d="M423.25,354.76c-.44.1-.94-.47-1.11-1.27s0-1.52.48-1.62.94.47,1.11,1.27S423.69,354.66,423.25,354.76Z" stroke="#000" stroke-miterlimit="10" stroke-width="0.5"/>
      <path d="M426.57,350.09c-.1.44-.71.68-1.37.76s-1.31,0-1.5-.44.36-1.07,1.32-1.18S426.68,349.65,426.57,350.09Z" stroke="#000" stroke-miterlimit="10" stroke-width="0.5"/>
      <path d="M429.09,347.2c-.45,0-.81-.64-.81-1.44s.36-1.43.81-1.43.82.64.82,1.43S429.54,347.2,429.09,347.2Z" stroke="#000" stroke-miterlimit="10" stroke-width="0.5"/>
      <path d="M434.11,341.39c0,.45-.81.88-1.9,1s-2-.19-2-.64.82-.89,1.91-1S434.07,340.94,434.11,341.39Z" stroke="#000" stroke-miterlimit="10" stroke-width="0.5"/>
      <path d="M435.14,341.07c-.42-.19-.49-.95-.73-1.73s-.53-1.47-.28-1.85c.14-.17.46-.2.86,0a2.49,2.49,0,0,1,.86,3.08C435.63,341,435.34,341.15,435.14,341.07Z" stroke="#000" stroke-miterlimit="10" stroke-width="0.5"/>
      <path d="M439.9,335.91c.09.44-1,1-2.4,1.3s-2.62.14-2.71-.31,1-1,2.4-1.29S439.82,335.47,439.9,335.91Z" stroke="#000" stroke-miterlimit="10" stroke-width="0.5"/>
      <path d="M440.53,335.7c-.45-.06-.73-.76-1-1.49s-.56-1.44-.28-1.8c.15-.17.45-.18.81,0a2.34,2.34,0,0,1,1,1.17,2.3,2.3,0,0,1,.1,1.53C441,335.52,440.75,335.72,440.53,335.7Z" stroke="#000" stroke-miterlimit="10" stroke-width="0.5"/>
      <path d="M446.13,329.77c.06.21-.31.54-1,.7a15.75,15.75,0,0,1-2.46.17,3.74,3.74,0,0,0-1.77.61c-.38.26-.54.62-.78.64s-.22-.1-.29-.33a1.4,1.4,0,0,1,.14-1,3.15,3.15,0,0,1,2.59-1.56,8.93,8.93,0,0,1,2.55.3C445.67,329.46,446.07,329.55,446.13,329.77Z" stroke="#000" stroke-miterlimit="10" stroke-width="0.5"/>
      <ellipse cx="445.1" cy="327.59" rx="0.82" ry="1.54" transform="translate(-80.57 498.19) rotate(-54.33)" stroke="#000" stroke-miterlimit="10" stroke-width="0.5"/>
      <path d="M165.28,544.2a29.71,29.71,0,0,1-1.66-4.81c-1-3.14-2.33-7.66-4-13.26-3.38-11.19-8.13-26.63-13.68-43.59s-10.85-32.22-14.74-43.25c-1.94-5.51-3.51-10-4.59-13.07a31.34,31.34,0,0,1-1.51-4.86,29.31,29.31,0,0,1,2.1,4.64c1.26,3,3,7.43,5.08,12.9,4.17,10.93,9.65,26.15,15.21,43.13s10.13,32.5,13.24,43.78c1.55,5.64,2.75,10.23,3.53,13.41A30.09,30.09,0,0,1,165.28,544.2Z" stroke="#000" stroke-miterlimit="10" stroke-width="0.5"/>
      <path d="M351.83,534.36a8.67,8.67,0,0,1-1.81.58c-1.2.33-3,.79-5.26,1.36l-3.82,1-4.57,1c-3.28.7-7,1.55-11.16,2.29l-6.52,1.22c-2.27.42-4.65.77-7.1,1.17-4.9.84-10.17,1.51-15.7,2.25-11.1,1.35-23.34,2.48-36.23,3.11s-25.18.58-36.35.28c-5.59-.23-10.9-.4-15.85-.78-2.48-.18-4.88-.3-7.18-.5l-6.6-.61c-4.21-.35-8-.86-11.33-1.25l-4.64-.57-3.89-.59c-2.34-.36-4.15-.65-5.37-.87a7.67,7.67,0,0,1-1.86-.41,9.08,9.08,0,0,1,1.9.09c1.24.11,3.07.3,5.41.56l3.9.44,4.65.45c3.33.3,7.12.73,11.33,1l6.6.5c2.29.17,4.68.27,7.16.41,4.94.32,10.24.44,15.81.63,11.14.22,23.39.16,36.24-.41s25-1.71,36.12-3c5.52-.7,10.78-1.32,15.68-2.1,2.45-.37,4.82-.69,7.09-1.07l6.52-1.11c4.16-.66,7.9-1.44,11.19-2.06l4.59-.87,3.84-.81c2.31-.47,4.1-.83,5.33-1.06A9,9,0,0,1,351.83,534.36Z" stroke="#000" stroke-miterlimit="10" stroke-width="0.5"/>
      <path d="M352.1,534.07a26,26,0,0,1,.22-4.7c.25-3,.68-7.37,1.27-12.75,1.18-10.75,3.05-25.58,5.47-41.91s5-31.06,7-41.69c1-5.32,1.86-9.61,2.5-12.57a25.63,25.63,0,0,1,1.15-4.56,26.88,26.88,0,0,1-.53,4.68c-.47,3-1.15,7.31-2,12.65-1.71,10.67-4.06,25.42-6.49,41.73s-4.46,31.1-5.93,41.81c-.76,5.35-1.37,9.68-1.79,12.68A26.26,26.26,0,0,1,352.1,534.07Z" stroke="#000" stroke-miterlimit="10" stroke-width="0.5"/>
      <path d="M192,415.71c-.44.1-4.51-16.45-9.08-37s-7.93-37.22-7.49-37.32,4.5,16.45,9.08,37S192.44,415.61,192,415.71Z" stroke="#000" stroke-miterlimit="10" stroke-width="0.5"/>
      <path d="M192.75,414c.38.22-1.58,4.28-4.65,8.89s-6.06,8-6.41,7.73,2-4,5.05-8.63S192.36,413.8,192.75,414Z" stroke="#000" stroke-miterlimit="10" stroke-width="0.5"/>
      <path d="M310.27,413.6c0,.45-26.48.82-59.16.82S192,414.05,192,413.6s26.48-.81,59.15-.81S310.27,413.15,310.27,413.6Z" stroke="#000" stroke-miterlimit="10" stroke-width="0.5"/>
      <path d="M309.82,406.88c-.45,0-.82-14.4-.82-32.16s.37-32.15.82-32.15.81,14.4.81,32.15S310.27,406.88,309.82,406.88Z" stroke="#000" stroke-miterlimit="10" stroke-width="0.5"/>
      <path d="M323.22,424.39c-.33.32-3-1.93-6.26-4.74s-5.85-5.16-5.58-5.53,3.35,1.42,6.65,4.29S323.54,424.09,323.22,424.39Z" stroke="#000" stroke-miterlimit="10" stroke-width="0.5"/>
    </g>
    <g id="torso">
      <path d="M180.51,136.21a45,45,0,0,0-3.22,10.2,46.72,46.72,0,0,0,1.41,22.41l6.63,11q1,11.71,2.49,23.88a715,715,0,0,0,12.51,72.14,135.67,135.67,0,0,0,20.46,7.25,112.92,112.92,0,0,0,31.67,4.4,85.05,85.05,0,0,0,21.41-2.45,80.23,80.23,0,0,0,26.37-12.14q0-15.44-.13-31-.32-36.79-1.29-72.68l-1.91-37.72a134.83,134.83,0,0,0-20.73-7.25,114.88,114.88,0,0,0-39.62-4c-8.62.7-14.74,2.27-22.73,4.32A204.18,204.18,0,0,0,180.51,136.21Z" fill="#fff"/>
      <path d="M296.85,131.49a31.34,31.34,0,0,1-4.46-1.61,121.76,121.76,0,0,0-30.92-7.41,133.88,133.88,0,0,0-23.26-.38,165.8,165.8,0,0,0-41.36,8.69c-5.14,1.76-9.25,3.35-12.08,4.48a27.75,27.75,0,0,1-4.45,1.64,24.32,24.32,0,0,1,4.2-2.22c2.76-1.31,6.82-3.08,11.94-5a152,152,0,0,1,41.63-9.24,127.23,127.23,0,0,1,23.55.52,111.43,111.43,0,0,1,18.85,3.83,94.78,94.78,0,0,1,12.15,4.48A23.06,23.06,0,0,1,296.85,131.49Z" stroke="#000" stroke-miterlimit="10" stroke-width="0.5"/>
      <path d="M185.33,179.85c-.39.23-2.44-2.48-4.59-6s-3.57-6.66-3.19-6.89,2.44,2.48,4.59,6.05S185.71,179.62,185.33,179.85Z" stroke="#000" stroke-miterlimit="10" stroke-width="0.5"/>
      <path d="M200.32,275.83a16.93,16.93,0,0,1-1.14-3.64c-.64-2.37-1.47-5.82-2.44-10.1-1.93-8.56-4.29-20.45-6.36-33.68s-3.43-25.28-4.19-34c-.38-4.37-.63-7.91-.75-10.36a17.31,17.31,0,0,1,0-3.82,17.17,17.17,0,0,1,.65,3.76c.3,2.44.74,6,1.27,10.3,1,8.69,2.6,20.68,4.65,33.88s4.24,25.09,5.88,33.7l1.93,10.19A17.1,17.1,0,0,1,200.32,275.83Z" stroke="#000" stroke-miterlimit="10" stroke-width="0.5"/>
      <path d="M302,271.75a17.28,17.28,0,0,1-3.17,2.73,60.24,60.24,0,0,1-9.78,5.91,75.14,75.14,0,0,1-16,5.64,91.74,91.74,0,0,1-20.64,2.32,127.78,127.78,0,0,1-37-6.12c-4.59-1.43-8.25-2.77-10.74-3.76a19.21,19.21,0,0,1-3.81-1.72,21.33,21.33,0,0,1,4,1.12c2.55.81,6.25,2,10.86,3.26,9.18,2.54,22.17,5.54,36.73,5.59a95.24,95.24,0,0,0,20.3-2.16,80,80,0,0,0,15.83-5.21C297.28,275.4,301.84,271.47,302,271.75Z" stroke="#000" stroke-miterlimit="10" stroke-width="0.5"/>
      <path d="M298.17,171.8c-.44-.11-.36-1.9.17-4s1.32-3.7,1.75-3.58.36,1.89-.17,4S298.6,171.91,298.17,171.8Z" stroke="#000" stroke-miterlimit="10" stroke-width="0.5"/>
      <path d="M300.94,271.67c-.45,0-1.44-22.4-2.22-50.06s-1.05-50.09-.6-50.1,1.45,22.4,2.23,50.06S301.39,271.66,300.94,271.67Z" stroke="#000" stroke-miterlimit="10" stroke-width="0.5"/>
    </g>
    <g id="PRIMARY_hair">
      <path d="M197.61,76.73a36.68,36.68,0,0,1-10.18-5.3A37.08,37.08,0,0,1,175,55c-1.23-3.25-3.85-10.47-1.79-19.27,2.12-9.06,7.93-14.4,10.9-17.13,1.45-1.33,14.66-13.08,33.09-11a42.72,42.72,0,0,1,18,6.59C239.5,16.87,243.28,21,250.66,29c8.08,8.85,10.14,12.18,17.3,19.13,3.52,3.41,6.55,6,8.51,7.66.21,2,.42,4,.64,6a9.38,9.38,0,0,1,5.25,2c2.13,1.78,2.86,4.28,3.32,7.1,1.15,7.11-.56,9.37-.53,17.1s1.75,8.68.76,14.71c-.49,3-1.09,6.64-3.87,10.08-.62.77-5.78,7-13.58,6.41-6.53-.47-12.34-5.51-14.32-12.59Z"/>
    </g>
    <g id="head">
      <path d="M266.71,77.21a7.07,7.07,0,0,1,10.62-3.58,7.76,7.76,0,0,1,3.31,5.71,9.56,9.56,0,0,1-1.74,6.33A12.92,12.92,0,0,1,265,91.3a18,18,0,0,1-2.16,7.14c-1.28,2.3-2.37,3-4.24,5.73a38.26,38.26,0,0,0-3.39,6.48c-2.38,6-1.64,12.39-.9,16.06a19.48,19.48,0,0,1-8.6,4.4,20.56,20.56,0,0,1-15.26-3,19.1,19.1,0,0,0-2.75-7.5,20.74,20.74,0,0,0-5.92-5.91c-4.56-3.27-5.73-2.12-9.17-4.84a22.34,22.34,0,0,1-6.36-8.77,28.1,28.1,0,0,1-2.42-8.94,7.09,7.09,0,0,1-5,.8c-3.24-.75-4.59-3.79-4.94-4.56a9.3,9.3,0,0,1-.05-7.08c1.79-4.59,6.5-5.93,7.06-6.08-.33-3.57-.63-7.22-.88-11q-.48-7.24-.68-14.08a41.11,41.11,0,0,1,39.5-10,48.11,48.11,0,0,1,14.38,6.2,49.43,49.43,0,0,1,3.35,9.83c1.07,4.73,1.72,10.7,1.72,10.7.58,5.27.41,7.06,1.92,8.58C262,77.25,264.73,77.37,266.71,77.21Z" fill="#fff"/>
      <path d="M230.42,128c-.14,0-.3-1.22-1.1-3.28a19.55,19.55,0,0,0-5.22-7.57,20.41,20.41,0,0,0-5.39-3.37,37.05,37.05,0,0,1-6.79-3.55,18.58,18.58,0,0,1-5.43-6.67A37.28,37.28,0,0,1,203.56,95a249.53,249.53,0,0,1-4.15-31.18,49.05,49.05,0,0,1,0-9.56c.3-2.27.8-3.44.89-3.41s-.16,1.24-.26,3.46a62.9,62.9,0,0,0,.57,9.41c.86,8,2.19,19,4.59,30.93a36.38,36.38,0,0,0,2.77,8.27,17.33,17.33,0,0,0,4.9,6.19,37.24,37.24,0,0,0,6.48,3.53,21,21,0,0,1,5.58,3.74,18.72,18.72,0,0,1,5,8.22A8,8,0,0,1,230.42,128Z" stroke="#000" stroke-miterlimit="10" stroke-width="0.5"/>
      <path d="M200.12,93.11c0,.1-.37.22-1.05.19a6.22,6.22,0,0,1-2.74-.93,7.94,7.94,0,0,1-2.9-3.22,10,10,0,0,1-.94-5.2,11.06,11.06,0,0,1,1.6-5,9.08,9.08,0,0,1,3-3.06,6,6,0,0,1,2.75-.89c.68,0,1.05.11,1.05.21,0,.27-1.46.3-3.15,1.63a10.24,10.24,0,0,0-3.63,7.24,9.56,9.56,0,0,0,.67,4.45,7.62,7.62,0,0,0,2.2,2.9C198.67,92.77,200.15,92.85,200.12,93.11Z" stroke="#000" stroke-miterlimit="10" stroke-width="0.5"/>
      <path d="M253.73,125.45c-.2,0-.5-2.3-.49-6.08a35.37,35.37,0,0,1,.63-6.66A21.37,21.37,0,0,1,257,105c1.69-2.45,3.63-4.36,4.88-6.37a18.84,18.84,0,0,0,2.31-5.86c.41-1.79.63-3.29.83-4.31s.34-1.61.46-1.6.17.6.17,1.65a30.24,30.24,0,0,1-.33,4.48,17.69,17.69,0,0,1-2.16,6.42c-1.31,2.25-3.26,4.24-4.8,6.5a21.44,21.44,0,0,0-3,7.11,46.1,46.1,0,0,0-1,6.39C254.09,123.13,254,125.46,253.73,125.45Z" stroke="#000" stroke-miterlimit="10" stroke-width="0.5"/>
      <path d="M219.93,58.52c-.24.1-.63-.68-1.71-1.3a5.32,5.32,0,0,0-4.53-.35,8.08,8.08,0,0,0-3.55,3.27c-.71,1.12-1,1.93-1.28,1.87s-.27-1,.24-2.37a8.14,8.14,0,0,1,1.31-2.29,6.91,6.91,0,0,1,2.67-2,5.7,5.7,0,0,1,5.84.94,3.44,3.44,0,0,1,1,1.52C220.06,58.24,220,58.49,219.93,58.52Z" stroke="#000" stroke-miterlimit="10" stroke-width="0.5"/>
      <path d="M255,59.17c-.23.07-.57-.66-1.37-1.54a6.27,6.27,0,0,0-8.09-1.35c-1,.58-1.59,1.16-1.79,1s.06-1,1.11-1.95A6.35,6.35,0,0,1,254.55,57C255.23,58.22,255.17,59.14,255,59.17Z" stroke="#000" stroke-miterlimit="10" stroke-width="0.5"/>
      <path d="M231.82,90.39c-.07.08-.53-.15-1.29-.66a15.79,15.79,0,0,1-3-2.59A10,10,0,0,1,226,84.78a10.83,10.83,0,0,1-.83-3.14,50.19,50.19,0,0,1-.1-7.09,62.63,62.63,0,0,1,.71-7,16.69,16.69,0,0,0,.33-5.43A5.84,5.84,0,0,0,224.57,59c-.6-.6-1.07-.8-1-.92s.59-.1,1.43.42a5.79,5.79,0,0,1,2.28,3.37,15.52,15.52,0,0,1,0,5.9c-.25,2.11-.46,4.43-.57,6.88a65.75,65.75,0,0,0,0,6.86,9,9,0,0,0,1.78,4.93,28.6,28.6,0,0,0,2.47,2.83C231.57,89.9,231.89,90.3,231.82,90.39Z" stroke="#000" stroke-miterlimit="10" stroke-width="0.5"/>
      <path d="M250,90.3c.17.13-.49,1.38-1.9,3.19a22.52,22.52,0,0,1-6.8,5.9,17.5,17.5,0,0,1-8.8,2.1c-2.34-.09-3.69-.63-3.65-.82s1.43-.13,3.62-.33A21.27,21.27,0,0,0,240.52,98a31.09,31.09,0,0,0,6.72-5.24C248.82,91.16,249.81,90.15,250,90.3Z" stroke="#000" stroke-miterlimit="10" stroke-width="0.5"/>
      <path d="M276,54.89a7.47,7.47,0,0,1-1.56-1c-1-.7-2.4-1.78-4.17-3.26a110.63,110.63,0,0,1-13.79-13.75c-2.69-3.11-5.53-6.59-8.72-10.19-1.59-1.79-3.29-3.6-5.1-5.38a65.83,65.83,0,0,0-5.93-5.11,46,46,0,0,0-7-4.25,38.26,38.26,0,0,0-8-2.77,40.82,40.82,0,0,0-17.77,0A44.79,44.79,0,0,0,176.44,28.8c-2.66,4.55-3.12,9.78-3,14.49a39.1,39.1,0,0,0,2.63,12.88,34.11,34.11,0,0,0,5.51,9.35,32.83,32.83,0,0,0,6,5.64,33.22,33.22,0,0,0,4.46,2.73,10.79,10.79,0,0,1,1.63.87,6.51,6.51,0,0,1-1.77-.57,27.06,27.06,0,0,1-4.68-2.51,31.53,31.53,0,0,1-6.34-5.57A34.31,34.31,0,0,1,175,56.6a39.71,39.71,0,0,1-2.91-13.25,37.13,37.13,0,0,1,.39-7.6,22.6,22.6,0,0,1,2.64-7.7,36.75,36.75,0,0,1,5.12-6.77,47,47,0,0,1,6.57-5.88,44.85,44.85,0,0,1,16.75-7.78,42.2,42.2,0,0,1,18.48,0,39.31,39.31,0,0,1,8.35,2.93A46.32,46.32,0,0,1,237.6,15a66.59,66.59,0,0,1,6,5.28c1.83,1.84,3.53,3.69,5.12,5.52,3.17,3.66,6,7.19,8.58,10.33a127.54,127.54,0,0,0,13.32,14c1.7,1.53,3.05,2.69,4,3.48A8.55,8.55,0,0,1,276,54.89Z" stroke="#000" stroke-miterlimit="10" stroke-width="0.5"/>
      <path d="M277.07,61.49c-.42-.18-.31-1.4-.48-2.81s-.5-2.58-.12-2.85c.19-.11.55.06.92.53a4.25,4.25,0,0,1,.82,2.15,4.17,4.17,0,0,1-.35,2.26C277.6,61.31,277.28,61.56,277.07,61.49Z" stroke="#000" stroke-miterlimit="10" stroke-width="0.5"/>
      <path d="M256.64,110.75c.15-.06.48,1.16,1.83,2.87a13.3,13.3,0,0,0,7.58,4.68,13.65,13.65,0,0,0,6.15-.1,17.24,17.24,0,0,0,6.38-3.13,18.07,18.07,0,0,0,5-6,12.29,12.29,0,0,0,1.28-8.07c-.24-1.43-.65-2.88-.93-4.38a16.63,16.63,0,0,1-.21-4.55c.29-3,1-5.61,1.28-8.18a53.94,53.94,0,0,0,.43-7.34,39.84,39.84,0,0,0-.5-6.36,12.57,12.57,0,0,0-1.82-4.78,8.6,8.6,0,0,0-2.8-2.62,10.15,10.15,0,0,0-3.19-1s.3-.15.91-.16a6.1,6.1,0,0,1,2.57.59,8.73,8.73,0,0,1,3.25,2.65A13.15,13.15,0,0,1,286.09,70a38.5,38.5,0,0,1,.72,6.56,51.54,51.54,0,0,1-.28,7.55c-.26,2.66-.95,5.39-1.18,8.13a14.38,14.38,0,0,0,.21,4.13c.26,1.4.67,2.84.94,4.4a13.25,13.25,0,0,1,0,4.74,15,15,0,0,1-1.5,4.33,19.27,19.27,0,0,1-5.54,6.47,18.05,18.05,0,0,1-7,3.25,14.31,14.31,0,0,1-6.72-.09A13.36,13.36,0,0,1,258,114a10.15,10.15,0,0,1-1.15-2.34C256.64,111.07,256.59,110.76,256.64,110.75Z" stroke="#000" stroke-miterlimit="10" stroke-width="0.5"/>
      <path d="M252.28,46.59c-.16.24-2.82-1.73-7.65-3.75a42.27,42.27,0,0,0-39,3.07c-4.46,2.74-6.77,5.1-7,4.89s.42-.74,1.46-1.81A34.53,34.53,0,0,1,205,44.94a40.09,40.09,0,0,1,40.07-3.15A33.2,33.2,0,0,1,250.55,45C251.75,45.93,252.34,46.51,252.28,46.59Z" stroke="#000" stroke-miterlimit="10" stroke-width="0.5"/>
      <path d="M266,78.18c0,.11-.54.18-1.5.14a7.86,7.86,0,0,1-4-1.19,5.32,5.32,0,0,1-1.88-2.42,12.61,12.61,0,0,1-.75-3.25c-.29-2.22-.58-4.66-.86-7.22-.6-5.13-.78-9.8-1.7-12.94s-2.29-4.75-2.08-4.93.54.23,1.17,1a12.32,12.32,0,0,1,2,3.59,28.73,28.73,0,0,1,1.36,5.9c.3,2.23.58,4.66.86,7.22s.53,5,.73,7.23a12.89,12.89,0,0,0,.52,2.94,4.18,4.18,0,0,0,1.32,2,8.63,8.63,0,0,0,3.42,1.48C265.54,77.92,266.06,78.06,266,78.18Z" stroke="#000" stroke-miterlimit="10" stroke-width="0.5"/>
      <path d="M268,74.75c-.07-.07.2-.58,1-1.26a7.41,7.41,0,0,1,4.09-1.6,7.5,7.5,0,0,1,3.1.4,7.65,7.65,0,0,1,3,2,8.21,8.21,0,0,1,2,3.49,8.5,8.5,0,0,1,0,4.28A13.43,13.43,0,0,1,277.26,89a12.82,12.82,0,0,1-5.82,2.83,7.36,7.36,0,0,1-4.37,0c-1-.44-1.25-1.11-1.17-1.14s.47.36,1.36.53a7.8,7.8,0,0,0,3.87-.55,11.4,11.4,0,0,0,8.46-9,7.34,7.34,0,0,0,.06-3.51,7,7,0,0,0-1.53-2.88,6.55,6.55,0,0,0-5-2.25,7.9,7.9,0,0,0-3.77,1C268.55,74.48,268.12,74.83,268,74.75Z" stroke="#000" stroke-miterlimit="10" stroke-width="0.5"/>
      <path d="M219,79.44c-.43.11-1.26-1.73-1.72-4.14s-.38-4.42.06-4.49,1.09,1.82,1.54,4.18S219.45,79.34,219,79.44Z" stroke="#000" stroke-miterlimit="10" stroke-width="0.5"/>
      <path d="M244.76,76.89c-.45,0-.72-1.83-.61-4s.58-3.92,1-3.91.72,1.8.6,4S245.2,76.92,244.76,76.89Z" stroke="#000" stroke-miterlimit="10" stroke-width="0.5"/>
    </g>
  </g>
</svg>
