<?xml version="1.0" encoding="utf-8"?>
<!-- Generator: Adobe Illustrator 23.0.3, SVG Export Plug-In . SVG Version: 6.00 Build 0)  -->
<svg version="1.1" xmlns="http://www.w3.org/2000/svg" xmlns:xlink="http://www.w3.org/1999/xlink" x="0px" y="0px"
	 viewBox="0 0 1600 1200" style="enable-background:new 0 0 1600 1200;" xml:space="preserve">
<style type="text/css">
	.st0{fill:#FFFFFF;}
	.st1{stroke:#000000;stroke-miterlimit:10;}
</style>
<g id="background">
	<rect x="255.8" y="126" class="st0" width="1099.4" height="738.9"/>
	<path class="st0" d="M1324.9,843.6c-14.5,8.8-12.8,33.5-12.6,36.1c10.2,2.9,20.4,5.8,30.6,8.7c-0.6,10.6-4.2,17.2-7,21
		c-13.8,18.5-47.9,22.3-84,7c-0.7,19.3-1.3,38.7-2,58c-23.3,1.5-46.6,3-69.9,4.6c0,25.5,0,51,0,76.4c7.1,6,17.4,13,31.1,17.2
		c7.5,2.3,30.3,8.9,54.4-1.7c9.2-4.1,15.7-9.4,19.8-13.3c0-8.3,0-16.5,0-24.8c7.1,2.7,16.2,5.3,27.1,6.2c28.3,2.2,50.2-9,59.7-14.7
		c-0.5-35.1-1-70.2-1.5-105.3c-8.2-1.2-16.4-2.4-24.6-3.7c3.5-7.7,7.1-15.5,10.6-23.2c8.4,2.3,16.9,4.5,25.3,6.8
		c4.6-1.5,7.3-6.1,6.3-10.4c-0.8-3.6-4.1-6.3-8.1-6.7c4.5-2.2,9.3-4.8,14.3-7.9c5-3.1,9.5-6.3,13.4-9.3c-2.5-4.1-6.8-9.9-13.9-13.7
		c-3.9-2-6.7-2.5-15.8-4.3c-22-4.4-19.6-4.5-24.4-5C1340.6,840.2,1332,839.3,1324.9,843.6z"/>
	<path id="XMLID_8_" d="M1156.4,585.6c-0.2,5.9-0.5,11.8-0.7,17.8c30.3,0,60.6,0,90.8,0c0-5.5,0-10.9,0-16.4
		C1216.5,586.5,1186.5,586.1,1156.4,585.6z"/>
	<path id="XMLID_9_" d="M530.3,628.5c-3.3,4.1-2.2,9.3-2,10.2c1,4.2,4.5,9.3,10.2,9.8c5.1,0.4,9.3-3.1,11.2-6.8
		c2.3-4.6,1.8-10.9-2.4-14.6C542.3,622.5,534.2,623.8,530.3,628.5z"/>
	<path id="XMLID_10_" d="M534.7,677.3c-3,3.3-2.2,9.5,1,13.2c0.5,0.6,3.4,3.8,7.3,3.4c5.7-0.5,10.6-8.3,8.3-13.7
		C548.9,674.5,538.8,672.7,534.7,677.3z"/>
	<path id="XMLID_11_" d="M549.9,729.5c3.9,2.6,5.3,8.3,2.4,12.2c-3,4-9.1,4.2-12.7,1c-3.2-2.9-3.9-8.2-1-11.7
		C541.5,727.6,546.5,727.3,549.9,729.5z"/>
	<path id="XMLID_15_" d="M1182.8,979.9c0-2,7.8-3.7,12.6-4.7c8.1-1.7,13.3-1.5,28.2-1.2c13.1,0.3,26.3,1.4,39.4,1.5
		c1.6,0,5.4,0,10.3,0.9c4.4,0.8,7.9,1.9,10,2.6c-0.5,1.4-1.5,3.8-3.8,5.6c-2.7,2.1-5.8,2.3-7.1,2.4c-32.2,1.6-37.4,0.9-37.4,0.9
		C1198.1,982.3,1182.9,982.7,1182.8,979.9z"/>
	<path id="XMLID_16_" d="M1253.1,913.7c-0.2,1.9,7.7,4.3,10.9,5.3c12.1,3.7,34,8.2,69.7,5c0.8-4.4,1.6-8.8,2.4-13.2
		c-2.5-0.2-6.2-0.4-10.6-0.6c-14.1-0.5-22,0.1-38.8,0.9C1261.5,912.2,1253.4,911.8,1253.1,913.7z"/>
	<path id="XMLID_17_" d="M1349.9,913.1c-1,3.5-2,7.1-2.9,10.6c7.8-1.6,15.7-3.1,23.5-4.7c-1.3-1.4-3.6-3.5-7.1-5
		C1357.4,911.4,1351.9,912.6,1349.9,913.1z"/>
	<path id="XMLID_18_" d="M417,260c-0.7,4.9-1.3,9.8-2,14.7c66.2-0.3,132.4-0.7,198.5-1c0-4.7,0-9.4,0-14.1
		C548,259.6,482.5,259.8,417,260z"/>
	<g id="XMLID_337_">
		<g id="XMLID_410_">
			<g id="XMLID_414_">
				<path id="XMLID_415_" class="st1" d="M331.9,444.5c0.9,0,1.6,18,1.6,40.2c0,22.2-0.7,40.2-1.6,40.2s-1.6-18-1.6-40.2
					C330.3,462.5,331,444.5,331.9,444.5z"/>
			</g>
		</g>
	</g>
	<g id="XMLID_345_">
		<g id="XMLID_418_">
			<g id="XMLID_422_">
				<path id="XMLID_423_" class="st1" d="M602.9,444.5c0,0.9-60.4,1.6-134.9,1.6s-134.9-0.7-134.9-1.6s60.4-1.6,134.9-1.6
					S602.9,443.6,602.9,444.5z"/>
			</g>
		</g>
	</g>
	<g id="XMLID_353_">
		<g id="XMLID_426_">
			<g id="XMLID_430_">
				<path id="XMLID_431_" class="st1" d="M603.1,535.8c-0.9,0-1.6-20.4-1.6-45.7c0-25.2,0.7-45.7,1.6-45.7s1.6,20.4,1.6,45.7
					C604.7,515.4,604,535.8,603.1,535.8z"/>
			</g>
		</g>
	</g>
	<g id="XMLID_361_">
		<g id="XMLID_434_">
			<g id="XMLID_438_">
				<ellipse id="XMLID_439_" class="st1" cx="429.6" cy="532.3" rx="32.7" ry="1.6"/>
			</g>
		</g>
	</g>
	<g id="XMLID_369_">
		<g id="XMLID_442_">
			<g id="XMLID_446_">
				<path id="XMLID_447_" class="st1" d="M602,534.3c0,0.9-25,1.6-55.8,1.6s-55.8-0.7-55.8-1.6s25-1.6,55.8-1.6S602,533.4,602,534.3
					z"/>
			</g>
		</g>
	</g>
	<g id="XMLID_377_">
		<g id="XMLID_450_">
			<g id="XMLID_454_">
				<path id="XMLID_455_" class="st1" d="M531.3,645.7c0.2-0.2,1,0.4,2.7,1.1c1.6,0.7,4.3,1.2,7.3,0.6c1.5-0.3,3.1-0.9,4.5-2
					c1.4-1.1,2.6-2.5,3.2-4.4c0.3-0.9,0.6-1.9,0.6-2.9c0.1-1,0.1-2.1-0.1-3.1c-0.4-2.1-1.4-4.1-2.9-5.6c-1.6-1.5-3.7-2.4-5.8-2.6
					c-1.1-0.1-2.1-0.1-3.1,0.1c-1,0.1-2,0.4-2.9,0.8c-1.8,0.8-3.2,2-4.2,3.5c-1,1.5-1.5,3.1-1.7,4.6c-0.4,3.1,0.3,5.6,1.1,7.2
					C530.8,644.7,531.5,645.5,531.3,645.7c-0.2,0.1-1.2-0.4-2.4-2c-1.2-1.6-2.5-4.4-2.3-8.1c0.1-1.8,0.6-3.9,1.7-5.8
					c1.1-1.9,2.9-3.7,5.2-4.8c1.1-0.6,2.4-1,3.6-1.2c1.3-0.2,2.6-0.3,4-0.2c2.7,0.2,5.5,1.4,7.7,3.4c2.2,2.1,3.4,4.8,3.9,7.5
					c0.2,1.3,0.3,2.7,0.1,4c-0.1,1.3-0.5,2.6-1,3.7c-0.9,2.3-2.6,4.2-4.5,5.5c-1.9,1.2-3.9,1.8-5.7,2c-3.7,0.4-6.6-0.7-8.2-1.8
					C531.8,646.9,531.2,645.9,531.3,645.7z"/>
			</g>
		</g>
	</g>
	<g id="XMLID_385_">
		<g id="XMLID_458_">
			<g id="XMLID_462_">
				<path id="XMLID_463_" class="st1" d="M694.2,636.6c0,0.9-29,1.6-64.8,1.6c-35.8,0-64.8-0.7-64.8-1.6s29-1.6,64.8-1.6
					C665.2,634.9,694.2,635.7,694.2,636.6z"/>
			</g>
		</g>
	</g>
	<g id="XMLID_393_">
		<g id="XMLID_466_">
			<g id="XMLID_470_">
				<path id="XMLID_471_" class="st1" d="M533.5,686.8c0.3-0.1,0.5,0.7,1.3,1.9c0.4,0.6,1,1.2,1.7,1.8c0.7,0.6,1.7,1.2,2.8,1.7
					c2.2,0.9,5.2,1.1,7.6-0.7c1.2-0.8,2.1-2.2,2.7-3.7c0.6-1.5,0.8-3.3,0.4-4.9c-0.4-1.6-1.3-3-2.5-3.9c-1.2-1-2.8-1.4-4.3-1.6
					c-3-0.3-5.8,1-7.1,2.8c-1.4,1.8-1.7,3.9-1.6,5.2c0.1,1.4,0.5,2.1,0.3,2.2c-0.1,0.1-1-0.4-1.5-2c-0.6-1.5-0.6-4.2,0.9-6.8
					c0.8-1.3,2-2.5,3.7-3.4c1.6-0.8,3.5-1.3,5.5-1.2c2,0.1,4.1,0.7,6,2c1.9,1.3,3.3,3.4,3.8,5.8c1,4.7-1.1,9.4-4.5,11.7
					c-1.7,1.2-3.8,1.7-5.6,1.6c-1.8-0.1-3.4-0.6-4.7-1.3c-1.3-0.7-2.3-1.6-3.1-2.5c-0.7-0.9-1.2-1.8-1.5-2.5
					C533.1,687.7,533.3,686.8,533.5,686.8z"/>
			</g>
		</g>
	</g>
	<g id="XMLID_401_">
		<g id="XMLID_474_">
			<g id="XMLID_478_">
				<path id="XMLID_479_" class="st1" d="M684,686.6c0,0.9-26.9,1.6-60.2,1.6c-33.2,0-60.2-0.7-60.2-1.6s26.9-1.6,60.2-1.6
					C657.1,685,684,685.7,684,686.6z"/>
			</g>
		</g>
	</g>
	<g id="XMLID_409_">
		<g id="XMLID_482_">
			<g id="XMLID_486_">
				<path id="XMLID_487_" class="st1" d="M537.4,735.6c0.2,0.1,0.1,0.8,0.2,2c0.1,1.2,0.7,2.9,2.2,4.3c1.4,1.3,4,2.1,6.6,1.4
					c1.3-0.3,2.5-1,3.4-2c0.9-1,1.4-2.3,1.5-3.7c0.1-3-1.8-5.8-4.1-6.8c-2.3-1-4.9-0.3-6.5,0.9c-1.7,1.2-2.7,2.8-3.1,3.9
					c-0.5,1.1-0.6,1.9-0.8,1.9c-0.2,0-0.5-0.7-0.4-2.2c0.1-1.4,0.9-3.6,2.9-5.4c1-0.9,2.3-1.7,3.9-2.1c1.6-0.4,3.5-0.5,5.3,0.2
					c3.6,1.4,6.2,5.3,6.2,9.6c0,2.2-0.9,4.4-2.4,5.9c-1.4,1.5-3.3,2.3-5.1,2.7c-3.6,0.7-7.1-0.6-8.9-2.8c-1.8-2.1-2.1-4.5-1.8-5.9
					C536.6,736.1,537.3,735.5,537.4,735.6z"/>
			</g>
		</g>
	</g>
	<g id="XMLID_417_">
		<g id="XMLID_490_">
			<g id="XMLID_494_">
				<ellipse id="XMLID_495_" class="st1" cx="625.7" cy="735.7" rx="57.4" ry="1.6"/>
			</g>
		</g>
	</g>
	<g id="XMLID_425_">
		<g id="XMLID_498_">
			<g id="XMLID_502_">
				<path id="XMLID_503_" class="st1" d="M311.1,365.6c-0.9,0-1.6-17.6-1.6-39.4s0.7-39.4,1.6-39.4s1.6,17.6,1.6,39.4
					S312,365.6,311.1,365.6z"/>
			</g>
		</g>
	</g>
	<g id="XMLID_433_">
		<g id="XMLID_506_">
			<g id="XMLID_510_">
				<path id="XMLID_511_" class="st1" d="M625.2,287.9c0,0.9-69.8,1.6-156,1.6s-156-0.7-156-1.6s69.8-1.6,156-1.6
					S625.2,287,625.2,287.9z"/>
			</g>
		</g>
	</g>
	<g id="XMLID_441_">
		<g id="XMLID_514_">
			<g id="XMLID_518_">
				<path id="XMLID_519_" class="st1" d="M609,365.7c0,0.9-65.8,1.6-146.9,1.6s-146.9-0.7-146.9-1.6s65.8-1.6,146.9-1.6
					S609,364.8,609,365.7z"/>
			</g>
		</g>
	</g>
	<g id="XMLID_449_">
		<g id="XMLID_522_">
			<g id="XMLID_526_">
				<path id="XMLID_527_" class="st1" d="M618.3,362.6c-0.9,0-1.6-15.8-1.6-35.3c0-19.5,0.7-35.3,1.6-35.3s1.6,15.8,1.6,35.3
					C619.9,346.8,619.2,362.6,618.3,362.6z"/>
			</g>
		</g>
	</g>
	<g id="XMLID_457_">
		<g id="XMLID_530_">
			<g id="XMLID_534_">
				<path id="XMLID_535_" class="st1" d="M416.2,259.6c0.9,0,1.6,3.6,1.6,8.1c0,4.5-0.7,8.1-1.6,8.1s-1.6-3.6-1.6-8.1
					C414.6,263.2,415.3,259.6,416.2,259.6z"/>
			</g>
		</g>
	</g>
	<g id="XMLID_465_">
		<g id="XMLID_538_">
			<g id="XMLID_542_">
				<ellipse id="XMLID_543_" class="st1" cx="515.7" cy="259.6" rx="98.4" ry="1.6"/>
			</g>
		</g>
	</g>
	<g id="XMLID_473_">
		<g id="XMLID_546_">
			<g id="XMLID_550_">
				<path id="XMLID_551_" class="st1" d="M615.2,274.7c0,0.9-44.1,1.6-98.4,1.6c-54.4,0-98.4-0.7-98.4-1.6s44.1-1.6,98.4-1.6
					C571.1,273.1,615.2,273.8,615.2,274.7z"/>
			</g>
		</g>
	</g>
	<g id="XMLID_481_">
		<g id="XMLID_554_">
			<g id="XMLID_558_">
				<ellipse id="XMLID_559_" class="st1" cx="613.2" cy="267.1" rx="1.6" ry="7.6"/>
			</g>
		</g>
	</g>
	<g id="XMLID_489_">
		<g id="XMLID_562_">
			<g id="XMLID_566_">
				<path id="XMLID_567_" class="st1" d="M585.3,308.1c0,0.9-34.6,1.6-77.3,1.6c-42.7,0-77.3-0.7-77.3-1.6s34.6-1.6,77.3-1.6
					C550.7,306.5,585.3,307.2,585.3,308.1z"/>
			</g>
		</g>
	</g>
	<g id="XMLID_497_">
		<g id="XMLID_570_">
			<g id="XMLID_574_">
				<path id="XMLID_575_" class="st1" d="M581.2,325.7c0,0.9-16.4,1.6-36.6,1.6c-20.2,0-36.6-0.7-36.6-1.6s16.4-1.6,36.6-1.6
					C564.9,324,581.2,324.8,581.2,325.7z"/>
			</g>
		</g>
	</g>
	<g id="XMLID_505_">
		<g id="XMLID_579_">
			<g id="XMLID_583_">
				<path id="XMLID_584_" class="st1" d="M575,342.2c0,0.9-30.5,1.6-68,1.6s-68-0.7-68-1.6s30.5-1.6,68-1.6S575,341.3,575,342.2z"/>
			</g>
		</g>
	</g>
	<g id="XMLID_513_">
		<g id="XMLID_587_">
			<g id="XMLID_591_">
				<path id="XMLID_592_" class="st1" d="M574,466c0,0.9-39.9,1.6-89.1,1.6s-89.1-0.7-89.1-1.6s39.9-1.6,89.1-1.6S574,465.1,574,466
					z"/>
			</g>
		</g>
	</g>
	<g id="XMLID_521_">
		<g id="XMLID_595_">
			<g id="XMLID_599_">
				<path id="XMLID_600_" class="st1" d="M576.1,480.4c0,0.9-21,1.6-46.9,1.6c-25.9,0-46.9-0.7-46.9-1.6s21-1.6,46.9-1.6
					C555.1,478.8,576.1,479.5,576.1,480.4z"/>
			</g>
		</g>
	</g>
	<g id="XMLID_529_">
		<g id="XMLID_603_">
			<g id="XMLID_607_">
				<path id="XMLID_608_" class="st1" d="M255.8,859c-0.9,0-1.6-164.3-1.6-367s0.7-367,1.6-367s1.6,164.3,1.6,367
					S256.7,859,255.8,859z"/>
			</g>
		</g>
	</g>
	<g id="XMLID_537_">
		<g id="XMLID_611_">
			<g id="XMLID_615_">
				<ellipse id="XMLID_616_" class="st1" cx="289.2" cy="860.8" rx="32" ry="1.6"/>
			</g>
		</g>
	</g>
	<g id="XMLID_545_">
		<g id="XMLID_619_">
			<g id="XMLID_623_">
				<ellipse id="XMLID_624_" class="st1" cx="805.5" cy="126" rx="549.1" ry="1.6"/>
			</g>
		</g>
	</g>
	<g id="XMLID_553_">
		<g id="XMLID_627_">
			<g id="XMLID_631_">
				<ellipse id="XMLID_632_" class="st1" cx="377.6" cy="862.3" rx="5.3" ry="1.6"/>
			</g>
		</g>
	</g>
	<g id="XMLID_561_">
		<g id="XMLID_636_">
			<g id="XMLID_640_">
				<path id="XMLID_642_" class="st1" d="M1313.4,864.9c0,0.9-196.7,1.6-439.4,1.6s-439.4-0.7-439.4-1.6s196.7-1.6,439.4-1.6
					S1313.4,864,1313.4,864.9z"/>
			</g>
		</g>
	</g>
	<g id="XMLID_569_">
		<g id="XMLID_645_">
			<g id="XMLID_650_">
				<path id="XMLID_651_" class="st1" d="M1354.6,835.6c-0.9,0-1.6-158.5-1.6-354s0.7-354,1.6-354s1.6,158.5,1.6,354
					S1355.5,835.6,1354.6,835.6z"/>
			</g>
		</g>
	</g>
	<g id="XMLID_578_">
		<g id="XMLID_654_">
			<g id="XMLID_658_">
				<path id="XMLID_659_" class="st1" d="M1312.1,879.8c-0.9-0.2-1.2-2.4-0.7-4.9c0.5-2.6,1.6-4.5,2.5-4.3c0.9,0.2,1.2,2.4,0.7,4.9
					C1314.1,878,1313,880,1312.1,879.8z"/>
			</g>
		</g>
	</g>
	<g id="XMLID_586_">
		<g id="XMLID_662_">
			<g id="XMLID_666_">
				<path id="XMLID_667_" class="st1" d="M1379.2,895.1c-0.2,0.9-15.5-1.5-34.2-5.3c-4.7-0.9-9.1-2-13.1-2.8c-2-0.4-3.9-0.7-5.7-1
					c-1.8-0.3-3.5-0.5-5.1-0.8c-1.6-0.3-3-0.8-4.2-1.3c-1.2-0.5-2.2-1.2-2.9-1.8c-1.4-1.2-1.8-2.2-1.7-2.3c0.2-0.2,0.9,0.5,2.4,1.3
					c1.5,0.8,3.7,1.5,6.8,1.8c1.5,0.2,3.2,0.3,5,0.4c1.9,0.1,3.9,0.4,5.9,0.7c4.1,0.7,8.6,1.6,13.3,2.6
					C1364.4,890.4,1379.4,894.2,1379.2,895.1z"/>
			</g>
		</g>
	</g>
	<g id="XMLID_594_">
		<g id="XMLID_670_">
			<g id="XMLID_674_">
				<path id="XMLID_675_" class="st1" d="M1382.3,882.4c-0.1,0.5-3.9-0.2-10-1.3c-6.1-1.1-14.5-2.3-23.9-3.6
					c-9.4-1.3-17.9-2.5-24-3.6c-6.1-1.1-9.9-2-9.8-2.4c0.1-0.4,3.9-0.4,10.1,0.1c6.2,0.5,14.7,1.3,24.2,2.6c9.4,1.3,17.9,3,23.9,4.6
					C1378.8,880.5,1382.4,881.9,1382.3,882.4z"/>
			</g>
		</g>
	</g>
	<g id="XMLID_602_">
		<g id="XMLID_678_">
			<g id="XMLID_683_">
				<path id="XMLID_684_" class="st1" d="M1389.6,888.5c-0.6,0.7-2.7-0.2-4.7-2c-2-1.8-3.1-3.7-2.5-4.4c0.6-0.7,2.7,0.2,4.7,2
					C1389.1,885.9,1390.2,887.9,1389.6,888.5z"/>
			</g>
		</g>
	</g>
	<g id="XMLID_610_">
		<g id="XMLID_687_">
			<g id="XMLID_691_">
				<path id="XMLID_692_" class="st1" d="M1377.4,894c-0.8-0.3-0.6-2.7,0.4-5.2c1.1-2.5,2.6-4.3,3.4-3.9c0.8,0.3,0.6,2.7-0.4,5.2
					C1379.8,892.5,1378.2,894.3,1377.4,894z"/>
			</g>
		</g>
	</g>
	<g id="XMLID_618_">
		<g id="XMLID_695_">
			<g id="XMLID_699_">
				<path id="XMLID_700_" class="st1" d="M1381.7,898.9c-0.6,0.6-2.1,0.2-3.3-1c-1.2-1.2-1.7-2.6-1-3.3c0.6-0.6,2.1-0.2,3.3,1
					C1381.9,896.8,1382.4,898.3,1381.7,898.9z"/>
			</g>
		</g>
	</g>
	<g id="XMLID_626_">
		<g id="XMLID_703_">
			<g id="XMLID_707_">
				<path id="XMLID_708_" class="st1" d="M1388,888.5c0.8,0.4,0.2,3.1-1.4,6c-1.6,2.9-3.5,4.8-4.3,4.4c-0.8-0.4-0.2-3.1,1.4-6
					C1385.3,890.1,1387.2,888.1,1388,888.5z"/>
			</g>
		</g>
	</g>
	<g id="XMLID_635_">
		<g id="XMLID_711_">
			<g id="XMLID_715_">
				<path id="XMLID_716_" class="st1" d="M1334.1,919.1c-0.9-0.2,0.4-7.3,2.8-15.8c2.4-8.5,5.1-15.2,5.9-14.9
					c0.9,0.2-0.4,7.3-2.8,15.8S1335,919.4,1334.1,919.1z"/>
			</g>
		</g>
	</g>
	<g id="XMLID_644_">
		<g id="XMLID_719_">
			<g id="XMLID_723_">
				<path id="XMLID_724_" class="st1" d="M1347.2,920.4c-0.9-0.3,0.5-6.8,3.1-14.6c2.5-7.8,5.3-13.9,6.2-13.6s-0.5,6.8-3.1,14.6
					S1348.1,920.7,1347.2,920.4z"/>
			</g>
		</g>
	</g>
	<g id="XMLID_653_">
		<g id="XMLID_727_">
			<g id="XMLID_731_">
				<path id="XMLID_732_" class="st1" d="M1325.8,837.4c0.4,0,0.7,2,0.5,5.1c-0.2,3.1-0.9,7.4-2.2,11.9c-1.4,4.5-3.1,8.5-4.7,11.2
					c-1.5,2.7-2.8,4.2-3.2,4c-0.8-0.4,2.2-7.3,4.8-16.1C1323.6,844.7,1324.8,837.3,1325.8,837.4z"/>
			</g>
		</g>
	</g>
	<g id="XMLID_661_">
		<g id="XMLID_735_">
			<g id="XMLID_739_">
				<path id="XMLID_740_" class="st1" d="M1330.6,839.8c0.8,0.2-0.3,7.6-4.2,15.9c-3.8,8.3-8.6,14.1-9.4,13.6
					c-0.8-0.5,2.7-6.9,6.4-14.9C1327.2,846.4,1329.7,839.6,1330.6,839.8z"/>
			</g>
		</g>
	</g>
	<g id="XMLID_669_">
		<g id="XMLID_743_">
			<g id="XMLID_747_">
				<path id="XMLID_748_" class="st1" d="M1381,847.4c-0.1,0.4-3.2,0.1-8.2-0.8c-2.5-0.4-5.4-1-8.7-1.7c-0.8-0.2-1.6-0.4-2.5-0.5
					c-0.9-0.2-1.7-0.4-2.1-0.3c-0.2,0-0.1,0-0.2,0.1c0,0-0.2,0.3-0.3,0.7c-0.2,0.4-0.3,0.8-0.5,1.2c-0.3,0.7-0.7,1.2-1.1,1.5
					c-0.4,0.3-0.8,0.5-1.5,0.7c-0.2,0.1-0.3,0.1-0.4,0.1l-0.3,0c-0.4-0.5-0.8-1-1.1-1.5c-0.3-0.5-0.6-1.2-0.9-2
					c-0.1-0.4-0.2-0.8-0.4-1.2l-0.1-0.3l-0.1-0.1c0-0.1-0.1-0.2-0.1-0.2c-0.1-0.3-0.3-0.5-0.4-0.7c-0.7-0.7-2.2-1-3.7-1.1
					c-3.2-0.1-6.2-0.2-8.6-0.4c-4.9-0.3-7.9-0.7-7.9-1.2c0-0.4,3-0.8,7.9-1.1c2.5-0.1,5.4-0.3,8.7-0.3c0.9,0,1.8,0,2.8,0.3
					c1,0.2,2.1,0.6,3.1,1.5c0.9,0.8,1.5,2.5,1.4,2.3c0.1,0.2,0.1,0.4,0.3,0.6c0,0,0.1,0.1,0.1,0.1c0.2-0.1,0.3-0.3,0.3-0.5
					c0-0.1,0-0.1,0.1-0.1c0-0.1,0-0.1,0.4-0.5c0.5-0.6,1.5-1,2.2-1.1c0.7-0.1,1.3,0,1.8,0.1c0.5,0.1,0.9,0.2,1.3,0.3
					c0.8,0.2,1.7,0.4,2.5,0.6c3.2,0.9,6.1,1.7,8.5,2.4C1378.2,845.8,1381.1,847,1381,847.4z"/>
			</g>
		</g>
	</g>
	<g id="XMLID_677_">
		<g id="XMLID_751_">
			<g id="XMLID_755_">
				<path id="XMLID_756_" class="st1" d="M1399,854c0,0.2-0.5,0.4-1.2,0.3c-0.7-0.1-1.7-0.4-2.8-1c-1.1-0.6-2.2-1.3-3.5-1.9
					c-1.2-0.5-2.5-0.8-4-0.6c-0.5,0-1,0.1-1.4,0.3c-0.2,0.1-0.4,0.1-0.7,0.2l-0.3,0.1c-0.1,0.1-0.2,0-0.4,0.2l-0.6,0.3
					c-0.2,0.1-0.4,0.2-0.6,0.4l-0.6,0.6l-0.3,0.3c-0.1,0.1-0.2,0.3-0.4,0.4c-1,1.3-2,2.5-3,3.7c0-0.4,0-0.7,0-1.1c0-0.1,0-0.3,0-0.4
					c0.1-0.7,0.2-1.5,0.3-2.2c0.2-1.4,0.4-2.5,0.6-3.4c0.4-1.8,0.7-2.4,1-2.4c0.3,0,0.5,0.6,0.7,1.1c0.1,0.2,0.2,0.4,0.3,0.7
					c0,0.1,0.1,0.2,0.1,0.2c0.1-0.2,0.3-0.4,0.4-0.6c0.3-0.4,0.5-0.6,0.8-0.8c0,0,0.2-0.1,0.3-0.2l0.4-0.2c0.3-0.1,0.6-0.2,0.9-0.3
					c0.6-0.2,1.3-0.3,2-0.4c2.1-0.2,4.2,0.3,5.7,1.2c1.5,0.9,2.5,1.9,3.4,2.7c0.8,0.8,1.5,1.3,2,1.7
					C1398.7,853.5,1399,853.7,1399,854z"/>
			</g>
		</g>
	</g>
	<g id="XMLID_686_">
		<g id="XMLID_759_">
			<g id="XMLID_763_">
				<path id="XMLID_764_" class="st1" d="M1395.1,859.4c0.7,0.6-2.4,5-6.3,10.1c-4,5.1-7.5,9.1-8.3,8.5c-0.7-0.5,1.6-5.4,5.7-10.6
					C1390.3,862.2,1394.5,858.8,1395.1,859.4z"/>
			</g>
		</g>
	</g>
	<g id="XMLID_694_">
		<g id="XMLID_767_">
			<g id="XMLID_771_">
				<path id="XMLID_772_" class="st1" d="M1407.7,864.7c0.4,0.9-4.7,3.9-10.2,8.5c-5.5,4.6-9.4,9-10.2,8.5c-0.4-0.3,0.2-1.7,1.5-3.8
					c1.4-2.1,3.6-4.7,6.5-7.2c2.9-2.4,5.9-4.2,8.2-5.2C1405.9,864.5,1407.5,864.3,1407.7,864.7z"/>
			</g>
		</g>
	</g>
	<g id="XMLID_702_">
		<g id="XMLID_775_">
			<g id="XMLID_779_">
				<ellipse id="XMLID_780_" class="st1" cx="1250.9" cy="943" rx="1.6" ry="29"/>
			</g>
		</g>
	</g>
	<g id="XMLID_710_">
		<g id="XMLID_783_">
			<g id="XMLID_787_">
				<path id="XMLID_788_" class="st1" d="M1335.8,909.4c0,0.9-19.1,1.9-42.7,2.3c-5.9,0.1-11.5,0.1-16.6,0.1c-5.1,0-9.7,0-13.4,0.4
					c-7.6,0.6-12,2.7-12.2,2.2c-0.1-0.2,0.9-0.9,2.9-1.9c2-0.9,5.1-2,9-2.6c3.9-0.7,8.6-0.9,13.7-1.1c5.1-0.2,10.7-0.3,16.6-0.4
					C1316.6,908.1,1335.8,908.5,1335.8,909.4z"/>
			</g>
		</g>
	</g>
	<g id="XMLID_718_">
		<g id="XMLID_791_">
			<g id="XMLID_795_">
				<path id="XMLID_796_" class="st1" d="M1373.2,917.5c-0.4,0.8-4.9-0.4-10.3-1.9c-5.5-1.5-10-2.7-9.9-3.6c0.1-0.9,5-1.1,10.7,0.4
					C1369.5,914,1373.6,916.7,1373.2,917.5z"/>
			</g>
		</g>
	</g>
	<g id="XMLID_726_">
		<g id="XMLID_799_">
			<g id="XMLID_803_">
				<path id="XMLID_804_" class="st1" d="M1371.9,919c0.1,0.2-1.1,1.4-3.9,2.9c-2.8,1.5-7.2,3-12.7,3.8c-11.1,1.5-26.3,2.3-43.3,1.5
					c-16.9-0.8-32.1-3.3-42.9-5.7c-10.8-2.4-17.3-4.7-17.2-5.1c0.1-0.5,6.8,1,17.6,2.8c10.8,1.8,25.9,3.9,42.6,4.7
					c16.7,0.8,31.9,0.3,42.8-0.5c5.4-0.5,9.7-1.6,12.5-2.7C1370.3,919.6,1371.8,918.8,1371.9,919z"/>
			</g>
		</g>
	</g>
	<g id="XMLID_734_">
		<g id="XMLID_807_">
			<g id="XMLID_811_">
				<ellipse id="XMLID_812_" class="st1" cx="1372" cy="970.8" rx="1.6" ry="53.4"/>
			</g>
		</g>
	</g>
	<g id="XMLID_742_">
		<g id="XMLID_815_">
			<g id="XMLID_819_">
				<path id="XMLID_820_" class="st1" d="M1370.4,1025.5c0.1,0.2-0.8,1-2.5,2.2c-0.4,0.3-0.9,0.6-1.4,1c-0.5,0.3-1.1,0.7-1.8,1.1
					c-1.3,0.7-2.7,1.6-4.5,2.4c-0.8,0.4-1.7,0.8-2.7,1.3c-0.9,0.4-1.9,0.8-3,1.2c-2,0.9-4.3,1.6-6.7,2.4c-4.8,1.4-10.1,2.6-15.9,3.3
					c-5.7,0.6-11.2,0.7-16.2,0.4c-2.5-0.2-4.8-0.4-7-0.8c-1.1-0.2-2.2-0.3-3.2-0.5c-1-0.2-2-0.4-2.9-0.6c-1.8-0.4-3.5-0.9-4.9-1.3
					c-0.7-0.2-1.4-0.4-2-0.6c-0.6-0.2-1.1-0.4-1.6-0.6c-1.9-0.8-3-1.3-2.9-1.5c0.2-0.5,4.6,0.8,11.8,1.9c0.9,0.1,1.9,0.3,2.8,0.4
					c1,0.1,2,0.2,3.1,0.3c2.1,0.3,4.4,0.3,6.8,0.5c4.8,0.1,10.1,0,15.7-0.6c5.5-0.7,10.7-1.8,15.4-3c2.3-0.7,4.5-1.3,6.6-2
					c1-0.4,2-0.7,2.9-1c0.9-0.4,1.8-0.7,2.7-1.1C1366.1,1027.3,1370.1,1025,1370.4,1025.5z"/>
			</g>
		</g>
	</g>
	<g id="XMLID_750_">
		<g id="XMLID_823_">
			<g id="XMLID_827_">
				<path id="XMLID_828_" class="st1" d="M1368.3,921.5c0.2,0,0,2.4-0.8,6.7c-0.9,4.3-2.4,10.5-5.7,17.6c-1.6,3.6-3.7,7.4-6.4,11.2
					c-2.7,3.8-6,7.6-10.1,10.9c-2,1.7-4.3,3.2-6.7,4.6c-2.4,1.4-5,2.5-7.7,3.5c-2.7,0.9-5.6,1.7-8.6,2.1c-3,0.4-6,0.5-9.1,0.2
					c-0.8-0.1-1.5-0.2-2.3-0.3c-0.8-0.1-1.5-0.3-2.3-0.5c-1.5-0.3-2.9-0.8-4.4-1.3c-2.8-1-5.5-2.4-7.9-3.9c-4.9-3-9.1-6.6-12.8-10.2
					c-7.4-7.3-12.9-14.9-17.5-21.1c-2.3-3.1-4.3-6-5.9-8.8c-1.6-2.7-2.6-5.3-3.2-7.4c-1.2-4.3-0.8-6.8-0.6-6.8
					c0.3,0,0.3,2.4,1.8,6.4c0.8,2,1.9,4.3,3.6,6.9c1.6,2.6,3.8,5.3,6.2,8.3c4.8,6,10.5,13.4,17.7,20.4c3.6,3.5,7.8,6.9,12.4,9.6
					c2.3,1.4,4.8,2.6,7.4,3.6c1.3,0.5,2.6,0.9,4,1.2c0.7,0.1,1.4,0.3,2,0.4c0.7,0.1,1.4,0.2,2.1,0.3c2.8,0.3,5.6,0.2,8.4-0.1
					c2.7-0.4,5.4-1.1,8-1.9c2.5-0.9,5-2,7.2-3.2c2.3-1.3,4.4-2.7,6.4-4.2c4-3,7.1-6.6,9.8-10.2c2.7-3.6,4.8-7.2,6.5-10.6
					c3.4-6.9,5.3-12.8,6.5-17C1367.4,923.8,1368,921.4,1368.3,921.5z"/>
			</g>
		</g>
	</g>
	<g id="XMLID_758_">
		<g id="XMLID_831_">
			<g id="XMLID_835_">
				<path id="XMLID_836_" class="st1" d="M1266.3,919c0,0.4-0.9,0.9-2.5,1c-1.6,0.1-3.7-0.2-6-1c-2.2-0.8-4-2.1-5.1-3.2
					c-1.1-1.1-1.5-2-1.3-2.4c0.6-0.7,3.6,1.1,7.5,2.5C1262.8,917.4,1266.3,918.1,1266.3,919z"/>
			</g>
		</g>
	</g>
	<g id="XMLID_766_">
		<g id="XMLID_839_">
			<g id="XMLID_843_">
				<path id="XMLID_844_" class="st1" d="M1360.6,922.3c-0.1-0.5,1.8-1,4.6-2.1c0.7-0.3,1.4-0.6,2.2-0.9c0.7-0.3,1.9-0.9,1.9-0.9
					c0.1-0.1,0.2-0.2,0.2-0.4c0-0.1-0.1-0.3-0.2-0.4c0,0-0.4-0.3-0.8-0.5c-0.5-0.3-0.9-0.5-1.4-0.7c-4-1.8-8.1-2.5-11.1-3.2
					c-3-0.6-4.9-1.1-4.9-1.6c0-0.4,2-0.7,5.1-0.7c3.1,0.1,7.6,0.4,12.2,2.5c0.6,0.3,1.1,0.6,1.7,0.9c0.5,0.3,1.2,0.7,1.9,1.5
					c0.6,0.7,1,1.6,1,2.5c0,0.9-0.5,1.7-1.1,2.2c-0.6,0.5-1.6,0.9-2,1c-0.5,0.2-0.9,0.3-1.4,0.5c-0.9,0.3-1.8,0.5-2.5,0.6
					C1362.6,923,1360.6,922.7,1360.6,922.3z"/>
			</g>
		</g>
	</g>
	<g id="XMLID_774_">
		<g id="XMLID_847_">
			<g id="XMLID_853_">
				<path id="XMLID_854_" class="st1" d="M1367.7,919.1c0.1,0.4-1.9,1.6-5.5,2.8c-3.6,1.3-8.7,2.6-14.4,3.4
					c-5.7,0.7-11,0.7-14.8,0.4c-3.8-0.3-6.1-0.9-6-1.4c0.1-0.9,9.3-0.8,20.4-2.3C1358.5,920.7,1367.4,918.2,1367.7,919.1z"/>
			</g>
		</g>
	</g>
	<g id="XMLID_782_">
		<g id="XMLID_857_">
			<g id="XMLID_861_">
				<path id="XMLID_862_" class="st1" d="M1333.2,924.3c-0.9-0.3-0.6-3.1,0.2-6.4c0.8-3.3,1.9-5.9,2.8-5.8c0.9,0.1,1.2,3.1,0.3,6.6
					C1335.8,922.2,1334.1,924.7,1333.2,924.3z"/>
			</g>
		</g>
	</g>
	<g id="XMLID_790_">
		<g id="XMLID_865_">
			<g id="XMLID_869_">
				<path id="XMLID_870_" class="st1" d="M1347,925.1c-0.9-0.1-1.3-2.7-0.6-5.8c0.7-3.1,2.3-5.2,3.1-4.9c0.8,0.3,0.7,2.8,0,5.7
					C1348.9,922.9,1347.9,925.2,1347,925.1z"/>
			</g>
		</g>
	</g>
	<g id="XMLID_798_">
		<g id="XMLID_873_">
			<g id="XMLID_878_">
				<path id="XMLID_879_" class="st1" d="M1179.9,1055.3c-0.9,0-1.6-17.1-1.6-38.2c0-21.1,0.7-38.2,1.6-38.2s1.6,17.1,1.6,38.2
					C1181.6,1038.2,1180.8,1055.3,1179.9,1055.3z"/>
			</g>
		</g>
	</g>
	<g id="XMLID_806_">
		<g id="XMLID_882_">
			<g id="XMLID_886_">
				<path id="XMLID_887_" class="st1" d="M1285.6,1057.1c0.1,0.1-0.1,0.4-0.6,1.1c-0.5,0.6-1.2,1.5-2.3,2.6c-2.1,2.1-5.4,5-10,7.8
					c-4.6,2.8-10.5,5.4-17.4,7.1c-6.9,1.7-14.8,2.5-22.9,2.1c-8.2-0.4-15.8-2-22.6-4c-3.4-1-6.5-2.1-9.5-3.2c-2.9-1.1-5.6-2.2-8-3.4
					c-2.4-1.2-4.5-2.5-6.2-3.9c-1.7-1.3-3-2.7-3.9-4c-1.8-2.5-2.1-4.2-1.9-4.3c0.3-0.1,0.9,1.4,2.9,3.5c1.9,2.1,5.3,4.5,10.1,6.6
					c9.6,3.9,23.5,8.6,39.3,9.5c7.9,0.4,15.4-0.2,22.1-1.7c6.6-1.5,12.4-3.8,17-6.2c4.6-2.4,8-4.9,10.3-6.7c1.2-0.9,2-1.6,2.6-2.1
					C1285.2,1057.3,1285.5,1057.1,1285.6,1057.1z"/>
			</g>
		</g>
	</g>
	<g id="XMLID_814_">
		<g id="XMLID_890_">
			<g id="XMLID_895_">
				<path id="XMLID_896_" class="st1" d="M1285.2,980.3c0.9,0,1.6,17.3,1.6,38.6c0,21.3-0.7,38.6-1.6,38.6s-1.6-17.3-1.6-38.6
					C1283.6,997.6,1284.3,980.3,1285.2,980.3z"/>
			</g>
		</g>
	</g>
	<g id="XMLID_822_">
		<g id="XMLID_899_">
			<g id="XMLID_903_">
				<path id="XMLID_904_" class="st1" d="M1304.3,1038.5c-0.2,0.9-4.6,0.6-9.8-1.1c-5.1-1.7-8.9-4.1-8.5-4.9
					c0.4-0.8,4.6,0.1,9.5,1.8C1300.6,1035.9,1304.5,1037.6,1304.3,1038.5z"/>
			</g>
		</g>
	</g>
	<g id="XMLID_830_">
		<g id="XMLID_907_">
			<g id="XMLID_911_">
				<path id="XMLID_912_" class="st1" d="M1285.1,978.3c-0.1,0.5-6-0.2-15.7-1c-9.6-0.9-22.9-1.8-37.7-1.9
					c-14.7-0.1-28.1,0.5-37.7,1.2c-2.4,0.2-4.6,0.3-6.5,0.5c-1.9,0.2-3.4,0.5-4.6,1.1c-2.4,1-2.9,2.6-3.1,2.4
					c-0.1,0-0.1-0.5,0.2-1.1c0.3-0.7,1.1-1.6,2.3-2.4c1.2-0.8,2.9-1.4,4.9-1.7c2-0.4,4.1-0.6,6.5-1c9.6-1.2,23.1-2.3,38-2.1
					c14.9,0.1,28.3,1.4,37.9,2.9C1279.3,976.4,1285.2,977.9,1285.1,978.3z"/>
			</g>
		</g>
	</g>
	<g id="XMLID_838_">
		<g id="XMLID_915_">
			<g id="XMLID_919_">
				<path id="XMLID_920_" class="st1" d="M1281.4,981.9c0.2,0.1-0.2,1.6-2.4,3.4c-1.1,0.8-2.6,1.6-4.4,2.2c-1.8,0.6-4,0.9-6.3,1.2
					c-9.2,0.8-22,1.2-36,0.5c-14.1-0.6-26.7-2.3-35.8-3.9c-2.3-0.4-4.3-0.8-6.1-1.2c-0.9-0.2-1.7-0.4-2.5-0.5
					c-0.4-0.1-0.8-0.2-1.1-0.3c-0.4-0.1-0.7-0.2-1.1-0.4c-1.3-0.6-2.2-1.5-2.3-2.3c-0.1-0.8,0.3-1.1,0.4-1.1c0.1,0,0,0.4,0.2,0.9
					c0.2,0.5,1,1,2.1,1.3c0.3,0.1,0.6,0.1,0.9,0.2c0.3,0,0.7,0.1,1.1,0.1c0.8,0.1,1.6,0.2,2.5,0.3c1.8,0.2,3.9,0.4,6.1,0.7
					c9.1,1,21.7,2.3,35.6,2.9c13.9,0.7,26.6,0.6,35.7,0.4c2.3-0.1,4.3-0.3,6-0.6c1.7-0.4,3.1-0.9,4.2-1.5
					C1280.4,983,1281.2,981.8,1281.4,981.9z"/>
			</g>
		</g>
	</g>
	<g id="XMLID_846_">
		<g id="XMLID_923_">
			<g id="XMLID_927_">
				<path id="XMLID_928_" class="st1" d="M1276.1,993.2c0.1,0,0.1,0.6,0.1,1.6c0,0.5-0.1,1.2-0.1,2c-0.1,0.8-0.2,1.7-0.3,2.7
					c-0.3,2-0.7,4.4-1.3,7.3c-0.3,1.4-0.7,2.9-1.1,4.5c-0.2,0.8-0.5,1.6-0.8,2.4c-0.2,0.8-0.5,1.7-0.9,2.5c-1.2,3.4-2.8,7.1-5,10.8
					c-2.1,3.7-4.8,7.5-8.2,11c-0.9,0.9-1.7,1.8-2.7,2.6c-0.5,0.4-0.9,0.8-1.4,1.2c-0.5,0.4-1,0.8-1.5,1.2c-2,1.6-4.3,3-6.7,4.2
					c-2.4,1.2-5,2.1-7.8,2.7c-2.8,0.5-5.7,0.6-8.6,0.1c-2.9-0.5-5.6-1.6-8.1-2.9c-2.5-1.4-4.7-3-6.7-4.8c-4-3.6-7.1-7.7-9.8-11.6
					c-5.4-8-9.3-15.7-12.1-22.3c-2.8-6.7-4.5-12.3-5.5-16.2c-1-3.9-1.3-6.1-1.1-6.2c0.5-0.2,2.6,8.5,8.7,21.4
					c3,6.4,7.1,13.9,12.5,21.6c2.7,3.8,5.7,7.7,9.5,11c3.7,3.3,8.2,6.1,13.2,6.9c5,0.9,10.1-0.3,14.5-2.4c2.2-1.1,4.3-2.3,6.2-3.8
					c0.5-0.4,1-0.7,1.4-1.1c0.5-0.4,0.9-0.8,1.4-1.1c0.9-0.7,1.7-1.6,2.6-2.4c3.3-3.2,5.9-6.8,8.1-10.3c2.2-3.5,3.8-7,5.2-10.3
					c0.4-0.8,0.7-1.6,0.9-2.4c0.3-0.8,0.6-1.6,0.8-2.3c0.5-1.5,1-2.9,1.4-4.3c0.8-2.7,1.4-5.1,1.8-7c0.2-1,0.4-1.8,0.6-2.6
					c0.2-0.8,0.3-1.4,0.4-1.9C1275.8,993.7,1275.9,993.2,1276.1,993.2z"/>
			</g>
		</g>
	</g>
	<g id="XMLID_856_">
		<g id="XMLID_931_">
			<g id="XMLID_935_">
				<path id="XMLID_936_" class="st1" d="M1189,987.6c0.1,0.4-0.1,0.9-0.5,1.3c-0.5,0.4-1.2,0.6-2.1,0.5c-0.8-0.1-1.5-0.5-1.9-1
					c-0.4-0.5-0.4-1-0.2-1.4c0.2-0.4,0.6-0.6,1.1-0.8c0.4-0.1,0.9-0.2,1.4-0.1c0.5,0.1,1,0.2,1.4,0.5
					C1188.5,986.9,1188.9,987.2,1189,987.6z"/>
			</g>
		</g>
	</g>
	<g id="XMLID_864_">
		<g id="XMLID_939_">
			<g id="XMLID_943_">
				<path id="XMLID_944_" class="st1" d="M1276.4,993.2c-0.2,0.9-1.2,1.4-2.3,1.2c-1.1-0.2-1.8-1.1-1.6-2c0.2-0.9,1.2-1.4,2.3-1.2
					S1276.6,992.3,1276.4,993.2z"/>
			</g>
		</g>
	</g>
	<g id="XMLID_1466_">
		<g id="XMLID_1539_">
			<g id="XMLID_1543_">
				<ellipse id="XMLID_1544_" class="st1" cx="1109.1" cy="395.4" rx="1.6" ry="96"/>
			</g>
		</g>
	</g>
	<g id="XMLID_1474_">
		<g id="XMLID_1547_">
			<g id="XMLID_1551_">
				<path id="XMLID_1552_" class="st1" d="M1299,492.6c0,0.9-42.5,1.6-94.9,1.6s-94.9-0.7-94.9-1.6s42.5-1.6,94.9-1.6
					S1299,491.7,1299,492.6z"/>
			</g>
		</g>
	</g>
	<g id="XMLID_1482_">
		<g id="XMLID_1555_">
			<g id="XMLID_1559_">
				<path id="XMLID_1560_" class="st1" d="M1296.7,301.5c0,0.9-41.5,1.6-92.6,1.6c-51.2,0-92.6-0.7-92.6-1.6s41.5-1.6,92.6-1.6
					C1255.3,299.9,1296.7,300.6,1296.7,301.5z"/>
			</g>
		</g>
	</g>
	<g id="XMLID_1490_">
		<g id="XMLID_1563_">
			<g id="XMLID_1567_">
				<path id="XMLID_1568_" class="st1" d="M1298,492.5c-0.9,0-1.6-42.7-1.6-95.4s0.7-95.4,1.6-95.4s1.6,42.7,1.6,95.4
					S1298.9,492.5,1298,492.5z"/>
			</g>
		</g>
	</g>
	<g id="XMLID_1498_">
		<g id="XMLID_1571_">
			<g id="XMLID_1575_">
				<path id="XMLID_1576_" class="st1" d="M1284.6,472.9c0,0.1-0.7,0.1-1.9,0.1c-0.6,0-1.4-0.1-2.3-0.1c-0.4,0-0.9-0.1-1.4-0.1
					c-0.5-0.1-1-0.1-1.6-0.2c-4.6-0.5-11.2-1.9-19.1-4.4c-7.9-2.5-17.1-6.2-26.9-10.9c-9.9-4.6-20.5-10.2-31.8-15.5
					c-5.7-2.6-11.3-5-16.8-7.1c-5.5-2.1-10.9-3.7-16.1-5.1c-10.4-2.6-20.1-3.8-28.2-3.6c-4.1,0.1-7.7,0.5-10.9,1
					c-1.6,0.3-3.1,0.6-4.4,0.8c-1.3,0.3-2.6,0.7-3.7,1c-0.6,0.1-1.1,0.3-1.6,0.4c-0.5,0.2-0.9,0.3-1.3,0.5c-0.8,0.3-1.5,0.5-2.1,0.7
					c-1.2,0.3-1.8,0.5-1.8,0.4c0-0.1,0.5-0.4,1.6-1c0.5-0.3,1.2-0.6,2-1c0.4-0.2,0.8-0.4,1.3-0.6c0.5-0.2,1-0.4,1.5-0.5
					c1.1-0.4,2.3-0.8,3.7-1.3c1.4-0.4,2.9-0.7,4.5-1.1c3.2-0.7,7-1.2,11.2-1.5c8.3-0.6,18.3,0.5,29,3c5.3,1.3,10.9,2.9,16.5,5
					c5.6,2.1,11.3,4.4,17,7.1c11.4,5.4,22,11,31.7,15.8c9.7,4.8,18.7,8.7,26.4,11.4C1274.5,471.5,1284.7,472.3,1284.6,472.9z"/>
			</g>
		</g>
	</g>
	<g id="XMLID_1506_">
		<g id="XMLID_1579_">
			<g id="XMLID_1583_">
				<path id="XMLID_1584_" class="st1" d="M1296.9,422c-0.1,0.2-1.5-0.5-4-1.2c-1.3-0.4-2.8-0.8-4.7-1c-1.9-0.3-4-0.4-6.3-0.4
					c-4.7,0.1-10.3,1-16.6,2.3c-6.2,1.3-13.1,2.8-20.2,4.7c-7.1,1.8-13.9,3.7-20,5.6c-6.1,1.9-11.6,3.7-16.5,4.6
					c-2.4,0.5-4.6,0.7-6.6,0.9c-2,0.1-3.7,0-5-0.1c-2.8-0.3-4.2-0.9-4.1-1.1c0-0.3,1.5-0.1,4.2-0.2c1.3,0,3-0.2,4.8-0.4
					c1.9-0.3,4-0.7,6.3-1.3c4.6-1.2,10-3.2,16.1-5.2c6.1-2,12.9-4,20.1-5.9c7.2-1.8,14.1-3.3,20.4-4.5c6.3-1.2,12.2-1.9,17.2-1.7
					c2.5,0.1,4.7,0.4,6.7,0.9c1.9,0.4,3.5,1.1,4.8,1.6C1295.9,420.8,1297,421.8,1296.9,422z"/>
			</g>
		</g>
	</g>
	<g id="XMLID_1514_">
		<g id="XMLID_1587_">
			<g id="XMLID_1591_">
				<path id="XMLID_1592_" class="st1" d="M1251,406.3c0,0.5-1.7,1-4.5,1.7c-2.7,0.8-6.5,1.8-9.3,4.6c-0.6,0.7-1.1,1.4-1.5,2.2
					c-0.3,0.8-0.6,1.6-0.7,2.4c-0.2,1.6-0.1,3.2,0.3,4.3c0.8,2.3,2.6,3,2.4,3.5c-0.1,0.2-0.6,0.3-1.5,0c-0.9-0.2-2.1-1.1-3-2.5
					c-0.9-1.5-1.4-3.5-1.3-5.7c0.1-1.1,0.3-2.2,0.8-3.4c0.5-1.1,1.2-2.2,2.1-3.2c1.8-1.8,3.9-2.9,5.9-3.5c2-0.7,3.8-0.9,5.3-1
					C1249.2,405.6,1251,405.9,1251,406.3z"/>
			</g>
		</g>
	</g>
	<g id="XMLID_1522_">
		<g id="XMLID_1595_">
			<g id="XMLID_1599_">
				<path id="XMLID_1600_" class="st1" d="M1267.9,390.4c-0.1,0.5-1.7,0.4-4.1,0.8c-0.3,0.1-0.6,0.1-0.9,0.2c-0.3,0.1-0.6,0.2-1,0.3
					c-0.7,0.1-1.4,0.4-2.1,0.7c-1.4,0.6-3,1.4-4.4,2.4c-1.4,1.1-2.7,2.3-3.7,3.5c-0.5,0.6-1,1.2-1.3,1.8c-0.2,0.3-0.4,0.6-0.5,0.9
					c-0.2,0.3-0.3,0.6-0.4,0.8c-1.1,2.1-1.5,3.7-2,3.6c-0.4,0-0.8-1.7-0.1-4.5c0.1-0.3,0.2-0.7,0.3-1c0.1-0.4,0.3-0.7,0.5-1.1
					c0.3-0.8,0.8-1.5,1.3-2.3c1.1-1.5,2.4-3,4.2-4.3c1.7-1.2,3.6-2.1,5.4-2.7c0.9-0.2,1.7-0.5,2.6-0.5c0.4,0,0.8-0.1,1.2-0.1
					c0.4,0,0.7,0,1.1,0C1266.5,389.1,1268,390,1267.9,390.4z"/>
			</g>
		</g>
	</g>
	<g id="XMLID_1530_">
		<g id="XMLID_1603_">
			<g id="XMLID_1607_">
				<path id="XMLID_1608_" class="st1" d="M1296.1,378.1c-0.3,0.4-2.1-0.9-5.2-1.8c-3.1-1-7.8-1.4-12.3,0.4
					c-4.5,1.8-7.5,5.4-9.1,8.2c-1.6,2.9-2,5-2.5,4.9c-0.2,0-0.4-0.6-0.4-1.6c0-1,0.2-2.5,0.8-4.3c0.6-1.8,1.7-3.7,3.4-5.6
					c1.6-1.9,3.9-3.6,6.6-4.7c2.7-1.1,5.5-1.4,8-1.2c2.5,0.2,4.7,0.9,6.3,1.7c1.7,0.8,2.9,1.8,3.6,2.5
					C1296,377.4,1296.3,377.9,1296.1,378.1z"/>
			</g>
		</g>
	</g>
	<g id="XMLID_1538_">
		<g id="XMLID_1611_">
			<g id="XMLID_1615_">
				<path id="XMLID_1616_" class="st1" d="M1150.8,386.3c0.2-0.2,1.3,1.6,4.1,3.7c1.4,1.1,3.3,2.1,5.6,2.9c2.3,0.8,5.1,1.3,8.2,1
					c6.1-0.5,13.2-4,18.1-10.5c2.4-3.2,4.3-7.2,4.9-11.5c0.3-2.1,0.3-4.3-0.1-6.5c-0.4-2.2-1.2-4.3-2.4-6.3c-1.1-2-2.6-3.7-4.4-5
					c-1.7-1.3-3.7-2.2-5.8-2.8c-4.2-1.1-8.5-0.9-12.4,0.3c-3.8,1.2-7.2,3.2-9.8,5.7c-2.6,2.5-4.4,5.4-5.4,8.3
					c-1.1,2.9-1.5,5.7-1.6,8.2c-0.1,2.5,0.2,4.6,0.6,6.3c0.7,3.5,1.7,5.2,1.5,5.4c-0.1,0.1-1.5-1.5-2.7-5c-0.6-1.8-1.1-4-1.2-6.7
					c-0.1-2.7,0.2-5.7,1.2-8.9c1-3.2,2.9-6.6,5.7-9.4c2.8-2.9,6.5-5.3,10.8-6.7c4.3-1.4,9.2-1.8,14.1-0.5c2.4,0.6,4.8,1.7,6.9,3.3
					c2.1,1.6,3.9,3.6,5.2,5.9c1.4,2.3,2.3,4.8,2.7,7.3c0.5,2.5,0.5,5.1,0.1,7.6c-0.7,4.9-2.9,9.3-5.7,12.8
					c-5.6,7.1-13.6,10.8-20.4,11c-3.4,0.1-6.5-0.6-8.9-1.6c-2.5-1-4.4-2.4-5.8-3.6C1151.4,388.4,1150.7,386.3,1150.8,386.3z"/>
			</g>
		</g>
	</g>
	<g id="XMLID_1546_">
		<g id="XMLID_1619_">
			<g id="XMLID_1623_">
				<path id="XMLID_1624_" class="st1" d="M1112.5,573c-0.9,0-1.6-10.7-1.6-24c0-13.3,0.7-24,1.6-24s1.6,10.7,1.6,24
					C1114.1,562.2,1113.4,573,1112.5,573z"/>
			</g>
		</g>
	</g>
	<g id="XMLID_1554_">
		<g id="XMLID_1627_">
			<g id="XMLID_1631_">
				<ellipse id="XMLID_1632_" class="st1" cx="1205.2" cy="526.1" rx="91.5" ry="1.6"/>
			</g>
		</g>
	</g>
	<g id="XMLID_1562_">
		<g id="XMLID_1635_">
			<g id="XMLID_1639_">
				<ellipse id="XMLID_1640_" class="st1" cx="1202.4" cy="573" rx="89.8" ry="1.6"/>
			</g>
		</g>
	</g>
	<g id="XMLID_1570_">
		<g id="XMLID_1643_">
			<g id="XMLID_1647_">
				<path id="XMLID_1648_" class="st1" d="M1293.5,569.6c-0.9,0-1.6-9-1.6-20.1s0.7-20.1,1.6-20.1s1.6,9,1.6,20.1
					S1294.4,569.6,1293.5,569.6z"/>
			</g>
		</g>
	</g>
	<g id="XMLID_1578_">
		<g id="XMLID_1651_">
			<g id="XMLID_1655_">
				<ellipse id="XMLID_1656_" class="st1" cx="1189" cy="538.4" rx="66.4" ry="1.6"/>
			</g>
		</g>
	</g>
	<g id="XMLID_1586_">
		<g id="XMLID_1659_">
			<g id="XMLID_1663_">
				<path id="XMLID_1664_" class="st1" d="M1262.2,551.8c0,0.9-22.5,1.6-50.2,1.6c-27.7,0-50.2-0.7-50.2-1.6s22.5-1.6,50.2-1.6
					C1239.7,550.1,1262.2,550.9,1262.2,551.8z"/>
			</g>
		</g>
	</g>
	<g id="XMLID_1594_">
		<g id="XMLID_1667_">
			<g id="XMLID_1671_">
				<ellipse id="XMLID_1672_" class="st1" cx="1161.7" cy="751.7" rx="104.9" ry="1.6"/>
			</g>
		</g>
	</g>
	<g id="XMLID_1602_">
		<g id="XMLID_1675_">
			<g id="XMLID_1679_">
				<path id="XMLID_1680_" class="st1" d="M1262.1,765.2c0,0.9-25.7,1.6-57.5,1.6c-31.7,0-57.5-0.7-57.5-1.6s25.7-1.6,57.5-1.6
					C1236.4,763.5,1262.1,764.3,1262.1,765.2z"/>
			</g>
		</g>
	</g>
	<g id="XMLID_1610_">
		<g id="XMLID_1683_">
			<g id="XMLID_1687_">
				<ellipse id="XMLID_1688_" class="st1" cx="1181.8" cy="803.1" rx="96" ry="1.6"/>
			</g>
		</g>
	</g>
	<g id="XMLID_1618_">
		<g id="XMLID_1691_">
			<g id="XMLID_1695_">
				<path id="XMLID_1696_" class="st1" d="M1206.3,834.4c0,0.9-29.2,1.6-65.3,1.6s-65.3-0.7-65.3-1.6s29.2-1.6,65.3-1.6
					S1206.3,833.5,1206.3,834.4z"/>
			</g>
		</g>
	</g>
	<g id="XMLID_1626_">
		<g id="XMLID_1699_">
			<g id="XMLID_1703_">
				<ellipse id="XMLID_1704_" class="st1" cx="1156.1" cy="595.9" rx="1.6" ry="8.4"/>
			</g>
		</g>
	</g>
	<g id="XMLID_1634_">
		<g id="XMLID_1707_">
			<g id="XMLID_1711_">
				<path id="XMLID_1712_" class="st1" d="M1247.6,586.4c0,0.9-20.7,1.6-46.3,1.6s-46.3-0.7-46.3-1.6s20.7-1.6,46.3-1.6
					S1247.6,585.5,1247.6,586.4z"/>
			</g>
		</g>
	</g>
	<g id="XMLID_1642_">
		<g id="XMLID_1715_">
			<g id="XMLID_1719_">
				<ellipse id="XMLID_1720_" class="st1" cx="1203.6" cy="602" rx="49.7" ry="1.6"/>
			</g>
		</g>
	</g>
	<g id="XMLID_1650_">
		<g id="XMLID_1723_">
			<g id="XMLID_1727_">
				<path id="XMLID_1728_" class="st1" d="M1246.6,600.9c-0.9,0-1.6-3.2-1.6-7.3c0-4,0.7-7.3,1.6-7.3s1.6,3.2,1.6,7.3
					C1248.2,597.7,1247.5,600.9,1246.6,600.9z"/>
			</g>
		</g>
	</g>
	<g id="XMLID_1658_">
		<g id="XMLID_1731_">
			<g id="XMLID_1735_">
				<ellipse id="XMLID_1736_" class="st1" cx="800.8" cy="185.3" rx="515.6" ry="1.6"/>
			</g>
		</g>
	</g>
	<g id="XMLID_1666_">
		<g id="XMLID_1739_">
			<g id="XMLID_1743_">
				<ellipse id="XMLID_1744_" class="st1" cx="1060.8" cy="269.3" rx="1.6" ry="13"/>
			</g>
		</g>
	</g>
	<g id="XMLID_1674_">
		<g id="XMLID_1747_">
			<g id="XMLID_1751_">
				<ellipse id="XMLID_1752_" class="st1" cx="1133.7" cy="255.1" rx="72.8" ry="1.6"/>
			</g>
		</g>
	</g>
	<g id="XMLID_1682_">
		<g id="XMLID_1755_">
			<g id="XMLID_1759_">
				<path id="XMLID_1760_" class="st1" d="M1196.6,282.2c0,0.9-30.4,1.6-67.9,1.6c-37.5,0-67.9-0.7-67.9-1.6s30.4-1.6,67.9-1.6
					C1166.2,280.6,1196.6,281.3,1196.6,282.2z"/>
			</g>
		</g>
	</g>
	<g id="XMLID_1690_">
		<g id="XMLID_1763_">
			<g id="XMLID_1767_">
				<path id="XMLID_1768_" class="st1" d="M1205.3,281c-0.9,0-1.6-5.8-1.6-13c0-7.2,0.7-13,1.6-13s1.6,5.8,1.6,13
					C1207,275.2,1206.2,281,1205.3,281z"/>
			</g>
		</g>
	</g>
</g>
<g id="girl">
	<path id="XMLID_20_" d="M794,560.7c20.9,11.9,41.7,23.7,62.6,35.6c29.7,0.3,59.3,0.7,89,1c-4.2-4.7-8.5-9.5-12.7-14.2
		c-14.4,3.8-26.5,4.3-34.6,4.1c-14.5-0.4-27.6-0.8-38.1-10.2c-6.7-5.9-9.7-13.2-11.2-17.8C830.6,559.7,812.3,560.2,794,560.7z"/>
	<path id="XMLID_3_" d="M926.5,327.9c-2.8-1.1-6.6-2.3-11.1-2.9c-5.3-0.7-9.8-0.5-13.1,0c0.3,3,0.4,7.4-0.5,12.6
		c-0.6,3.5-1.4,8.3-4.4,13.6c-3,5.4-7,8.9-10.2,11.1c-0.8-0.6-2.6-1.7-4.8-1.5c-4,0.5-7.8,5.6-6.3,10.2c1.1,3.5,5,5.9,9.2,5.3
		c0.2,2.7,0.6,6.7,1.5,11.6c1.8,10.6,3.5,13.4,3.4,18.9c-0.2,7.4-3.6,12.9-5.8,16.5c-2.4,3.8-9.5,15.3-23.3,17.9
		c-2.7,0.5-11.3,2.1-19.9-2.9c-9.8-5.7-12.4-15.9-13.1-18.4c-3.1-12,1.7-22.8,5.8-32c2.7-6.1,6.4-12,9.7-17.4
		c5.5-9,6.8-9.7,8.7-14.5c2.8-6.9,1.4-8.3,4.4-19.4c2.3-8.7,3.5-13,6.3-16c7.1-7.5,18.8-6.9,22.3-6.8c5,0.2,9.1,1.4,11.6,2.4
		c1.2-1,5.2-4.2,11.1-4.4c6.7-0.2,11.2,3.6,12.6,4.8C925.4,321.1,926.3,326.4,926.5,327.9z"/>
	<g id="XMLID_872_">
		<g>
			<g>
				<path class="st1" d="M582.5,1140.4c0,0,0.1-0.5,0.6-1.5s1.1-2.3,2-4.2c1.8-3.6,4.4-9,7.9-15.8c6.9-13.7,17-33.5,29.6-57.9
					c25.1-48.8,59.8-116.3,98.1-190.8c38.3-74.5,73-141.9,98.1-190.8c12.6-24.4,22.8-44.1,29.9-57.7c3.6-6.8,6.3-12.1,8.3-15.6
					c1-1.8,1.7-3.1,2.2-4c0.5-0.9,0.8-1.3,0.9-1.3c0.1,0-0.1,0.5-0.6,1.5c-0.4,0.9-1.1,2.3-1.9,4.2c-1.7,3.7-4.3,9-7.7,15.9
					c-6.8,13.8-16.7,33.7-29,58.2c-24.6,49.1-59,116.7-97.3,191.2c-38.3,74.5-73.4,141.8-99,190.3c-12.8,24.3-23.2,43.9-30.5,57.4
					c-3.6,6.8-6.5,12-8.4,15.5c-1,1.8-1.7,3.1-2.3,4S582.6,1140.4,582.5,1140.4z"/>
			</g>
		</g>
	</g>
	<g id="XMLID_881_">
		<g>
			<g>
				<path class="st1" d="M520.7,1053.4c-0.1-0.1,0.8-1.8,2.6-4.9s4.5-7.9,8.1-13.9c7.1-12,17.4-29.3,30.1-50.8
					c12.7-21.4,27.8-47,44.5-75.4c16.7-28.4,34.9-59.7,54-92.6c19-32.9,37-64.4,53.2-93c16.2-28.7,30.8-54.5,43-76.2
					c12.2-21.7,22.1-39.3,28.9-51.5c3.4-6.1,6.1-10.8,8-13.9c1.9-3.2,2.9-4.8,3-4.8c0.1,0.1-0.7,1.8-2.4,5.1
					c-1.7,3.3-4.2,8.1-7.4,14.2c-3.2,6.2-7.3,13.7-12,22.4c-4.7,8.7-10,18.6-16,29.6c-11.9,21.9-26.3,47.8-42.4,76.6
					c-16.1,28.7-34,60.2-53,93.2c-19,32.9-37.4,64.2-54.2,92.5c-16.8,28.3-32.2,53.7-45.1,75c-6.5,10.7-12.4,20.2-17.6,28.7
					c-5.2,8.4-9.7,15.7-13.4,21.6c-3.7,5.9-6.6,10.5-8.6,13.5S520.8,1053.4,520.7,1053.4z"/>
			</g>
		</g>
	</g>
	<g id="XMLID_889_">
		<g>
			<g>
				<path class="st1" d="M608.1,1083.2c-0.3,0.3-4-3.5-9.5-9.9c-5.5-6.4-13-15.4-21-25.5c-8-10.1-14.9-19.5-19.8-26.4
					c-4.9-6.9-7.7-11.3-7.3-11.6c0.4-0.3,3.8,3.7,9.2,10.2c5.3,6.5,12.6,15.6,20.6,25.8c8,10.1,15.1,19.3,20.2,26.1
					C605.4,1078.6,608.4,1082.9,608.1,1083.2z"/>
			</g>
		</g>
	</g>
	<g id="XMLID_898_">
		<g>
			<g>
				<path class="st1" d="M652.4,1007.3c-0.3,0.3-4.1-3.2-9.8-9.2c-5.7-6-13.3-14.5-21.4-24.3c-8-9.8-14.9-18.9-19.7-25.7
					c-4.8-6.8-7.5-11.1-7.1-11.4c0.8-0.5,13.3,15.6,29.3,35C639.7,991.2,653.1,1006.7,652.4,1007.3z"/>
			</g>
		</g>
	</g>
	<g id="XMLID_906_">
		<g>
			<g>
				<path class="st1" d="M700.3,909c-0.7,0.6-13.5-12.6-28.5-29.6c-15.1-16.9-26.8-31.1-26.1-31.7c0.7-0.6,13.5,12.6,28.5,29.6
					C689.2,894.2,700.9,908.4,700.3,909z"/>
			</g>
		</g>
	</g>
	<g id="XMLID_914_">
		<g>
			<g>
				
					<ellipse transform="matrix(0.7418 -0.6706 0.6706 0.7418 -341.7517 687.9144)" class="st1" cx="722.5" cy="787.8" rx="1.6" ry="41.5"/>
			</g>
		</g>
	</g>
	<g id="XMLID_922_">
		<g>
			<g>
				<path class="st1" d="M788.8,733.5c-0.6,0.6-13.2-10.1-26.6-25.3c-13.5-15.3-22.5-29.1-21.8-29.6c0.8-0.6,10.9,12.3,24.2,27.4
					C777.9,721.1,789.5,732.8,788.8,733.5z"/>
			</g>
		</g>
	</g>
	<g id="XMLID_930_">
		<g>
			<g>
				<path class="st1" d="M831.1,659.7c-0.5,0.7-13.9-8.9-28.8-22.7c-14.9-13.8-25.5-26.4-24.9-26.9c0.7-0.6,12.3,10.9,27.1,24.6
					C819.3,648.3,831.7,658.9,831.1,659.7z"/>
			</g>
		</g>
	</g>
	<g id="XMLID_938_">
		<g>
			<g>
				<path class="st1" d="M857.2,601.9c-0.5,0.8-15.8-7.1-34.3-17.7s-33.1-19.7-32.7-20.5c0.4-0.8,15.8,7.1,34.3,17.7
					C843,591.9,857.6,601.1,857.2,601.9z"/>
			</g>
		</g>
	</g>
	<g id="XMLID_946_">
		<g>
			<g>
				<ellipse class="st1" cx="901.7" cy="601.8" rx="45.3" ry="1.6"/>
			</g>
		</g>
	</g>
	<g id="XMLID_954_">
		<g>
			<g>
				<path class="st1" d="M857.5,597.5c0.4-0.1,0.9,0.1,1.2,0.5c0.3,0.4,0.5,1,0.4,1.6c-0.1,0.6-0.5,1.2-0.9,1.4
					c-0.4,0.3-0.9,0.3-1.3,0.1c-0.8-0.4-1.1-1.3-1-2.1C856,598.4,856.6,597.7,857.5,597.5z"/>
			</g>
		</g>
	</g>
	<g id="XMLID_962_">
		<g>
			<g>
				<path class="st1" d="M947,596.9c0,0.9-19.9,1.6-44.4,1.6s-44.4-0.7-44.4-1.6s19.9-1.6,44.4-1.6S947,596,947,596.9z"/>
			</g>
		</g>
	</g>
	<g id="XMLID_970_">
		<g>
			<g>
				<path class="st1" d="M946.5,601.2c-0.4,0.3-0.9,0.3-1.4-0.1c-0.5-0.4-0.9-1.1-0.9-2c0-0.9,0.4-1.7,0.9-2c0.5-0.4,1-0.4,1.4-0.1
					c0.4,0.3,0.6,0.7,0.8,1c0.2,0.4,0.3,0.7,0.3,1.1c0,0.4-0.1,0.7-0.2,1.1C947.1,600.5,946.9,600.9,946.5,601.2z"/>
			</g>
		</g>
	</g>
	<g id="XMLID_978_">
		<g>
			<g>
				<path class="st1" d="M792.7,558c0.4,0,0.8,0.4,1.1,1c0.2,0.6,0.2,1.5-0.1,2.4c-0.3,0.9-0.9,1.6-1.4,2c-0.6,0.4-1.1,0.4-1.5,0.2
					c-0.7-0.6-0.6-1.9-0.2-3.2C791,559.1,791.8,558,792.7,558z"/>
			</g>
		</g>
	</g>
	<g id="XMLID_986_">
		<g>
			<g>
				<path class="st1" d="M856.9,597.4c-0.5,0.8-15-7.5-32.8-17.9c-17.8-10.4-32.1-19.1-31.6-19.9c0.4-0.8,15.5,6.6,33.3,17.1
					C843.5,587.2,857.4,596.7,856.9,597.4z"/>
			</g>
		</g>
	</g>
	<g id="XMLID_994_">
		<g>
			<g>
				<path class="st1" d="M850.7,559.2c0,0.9-13,1.6-29,1.6s-29-0.7-29-1.6s13-1.6,29-1.6S850.7,558.3,850.7,559.2z"/>
			</g>
		</g>
	</g>
	<g id="XMLID_1002_">
		<g>
			<g>
				<path class="st1" d="M927.3,364.4c-0.2-0.1-0.2-0.5,0.2-1.1c0.3-0.6,1-1.2,1.8-1.8c0.8-0.6,1.8-1.2,1.9-1.7
					c0.1-0.3,0.1-0.4,0-0.8c-0.1-0.4-0.4-1-0.8-1.7c-2.5-5.1-5.5-8.7-4.9-9.4c0.3-0.3,1.5,0.2,3,1.6c1.5,1.3,3.4,3.6,4.8,6.4
					c0.3,0.7,0.7,1.4,0.9,2.3c0.1,0.5,0.2,1,0.1,1.6c-0.1,0.6-0.3,1.1-0.5,1.5c-0.6,0.9-1.3,1.4-1.9,1.7c-0.6,0.3-1.1,0.5-1.6,0.7
					c-0.9,0.3-1.6,0.5-2.1,0.7C927.8,364.4,927.5,364.6,927.3,364.4z"/>
			</g>
		</g>
	</g>
	<g id="XMLID_1010_">
		<g>
			<g>
				<path class="st1" d="M900,411.1c-0.2,0-0.3-0.9-0.2-2.6c0-0.8,0.1-1.8,0.2-3c0.1-1.2,0.2-2.5,0.5-4c0.3-1.5,0.8-3.3,2.2-4.8
					c1.3-1.6,3.4-2.6,5.5-3c2.1-0.5,4.1-0.6,6.1-0.8c2-0.2,3.8-0.7,5.5-1.7c1.7-1,3.2-2.3,4.2-3.8c1.1-1.5,1.7-3.2,2.2-4.9
					c0.8-3.5,0.6-6.9,0.7-9.8c0-2.9,0.1-5.3,0.4-7c0.3-1.6,0.7-2.5,0.8-2.5c0.2,0,0.3,0.9,0.4,2.5c0.1,1.6,0.3,3.9,0.7,6.8
					c0.2,1.4,0.3,3.1,0.4,4.8c0,1.8,0,3.7-0.4,5.7c-0.4,2-1.1,4.2-2.5,6.1c-1.3,1.9-3.1,3.6-5.3,4.8c-2.1,1.2-4.6,1.8-6.8,2
					c-2.2,0.2-4.1,0.3-5.9,0.6c-1.7,0.3-3.1,0.9-4.1,1.9c-1,0.9-1.5,2.3-1.9,3.6c-0.4,1.3-0.7,2.6-1,3.7c-0.3,1.1-0.5,2.1-0.8,2.8
					C900.6,410.3,900.2,411.1,900,411.1z"/>
			</g>
		</g>
	</g>
	<g id="XMLID_1018_">
		<g>
			<g>
				<path class="st1" d="M925,377c0,0.2-0.4,0.4-1.1,0.5c-0.7,0.1-1.7,0.1-2.9-0.1c-1.2-0.2-2.8-0.8-4.2-2c-0.7-0.6-1.3-1.4-1.7-2.4
					c-0.4-1-0.6-2.2-0.4-3.4c0.3-1.3,1-2.3,1.9-3c0.9-0.7,2.1-1.2,3.3-1.1c1.2,0.1,2.1,0.7,2.7,1.2c0.6,0.5,1,1,1.4,1.4
					c0.6,0.7,1.3,1.1,1.7,1.2c0.5,0.2,0.9,0.1,1,0.3c0.1,0.2,0,0.7-0.9,1c-0.8,0.3-2.1,0.1-3.2-0.7c-0.5-0.3-1.1-0.7-1.5-1
					c-0.5-0.3-0.9-0.4-1.2-0.4c-0.3,0-0.7,0.2-1.1,0.5c-0.4,0.3-0.7,0.8-0.8,1.3c-0.2,0.9,0.3,2.2,1,3.1c0.8,0.9,1.8,1.5,2.7,2
					C923.7,376,925.1,376.5,925,377z"/>
			</g>
		</g>
	</g>
	<g id="XMLID_1026_">
		<g>
			<g>
				<path class="st1" d="M914.2,333c0,0.5-0.6,0.8-1.3,1.3c-0.7,0.4-1.5,1-2.4,1.8c-0.8,0.8-1.5,1.6-2,2.2c-0.5,0.6-0.9,1.2-1.4,1.2
					c-0.4,0-0.9-0.7-0.8-1.8c0-1.2,0.7-2.7,2-3.9c1.3-1.2,2.9-1.7,4.1-1.6C913.7,332.1,914.3,332.6,914.2,333z"/>
			</g>
		</g>
	</g>
	<g id="XMLID_1034_">
		<g>
			<g>
				<path class="st1" d="M918.8,350.6c-0.9,0-1.6-2-2.4-4.3c-0.8-2.3-1.4-4.4-0.6-4.9c0.4-0.3,1,0,1.8,0.7c0.7,0.7,1.5,1.8,2,3.3
					c0.5,1.4,0.5,2.8,0.4,3.8C919.6,350,919.2,350.6,918.8,350.6z"/>
			</g>
		</g>
	</g>
	<g id="XMLID_1042_">
		<g>
			<g>
				<path class="st1" d="M927.2,329.7c-0.5,0-0.7-2.2-1.9-5.3c-0.6-1.5-1.5-3.3-2.8-5c-1.3-1.7-3-3.2-5.2-4.4
					c-2.1-1.1-4.4-1.7-6.5-1.8c-2.1-0.1-4,0.3-5.6,0.8c-1.6,0.5-2.9,1-3.8,1.3c-0.9,0.3-1.5,0.4-1.6,0.2c-0.1-0.2,0.2-0.7,1-1.3
					c0.8-0.7,1.9-1.5,3.6-2.4c1.6-0.8,3.8-1.6,6.4-1.7c2.6-0.1,5.4,0.5,8,1.9c2.6,1.4,4.7,3.4,6.1,5.5c1.4,2.1,2.2,4.2,2.6,6.1
					C928.2,327.5,927.6,329.7,927.2,329.7z"/>
			</g>
		</g>
	</g>
	<g id="XMLID_1050_">
		<g>
			<g>
				<path class="st1" d="M926.7,329.2c-0.3,0.4-1.6-0.4-3.7-1.1c-2.1-0.8-5-1.5-8.4-1.9c-6.9-0.9-12.6-0.8-12.7-1.8
					c0-0.4,1.4-1,3.7-1.4c2.4-0.4,5.7-0.5,9.4-0.1c3.7,0.4,7,1.6,9.1,3.1C926.2,327.4,927,328.9,926.7,329.2z"/>
			</g>
		</g>
	</g>
	<g id="XMLID_1058_">
		<g>
			<g>
				<path class="st1" d="M850.8,363.5c-0.5-0.2,1.3-4.4,2.7-11.5c0.3-1.8,0.6-3.7,0.8-5.8c0.2-2.1,0.3-4.4,0.4-6.8
					c0.2-2.4,0.4-5.1,1.1-7.8c0.7-2.7,2-5.4,3.6-7.9c3.3-4.9,8.1-8.5,12.9-10.3c4.9-1.8,9.6-1.9,13.4-1.2c3.8,0.6,6.6,2,8.4,3
					c1.8,1.1,2.6,2,2.5,2.2c-0.1,0.2-1.2-0.3-3-1c-1.9-0.7-4.6-1.6-8.2-1.9c-3.5-0.3-7.8,0-12,1.7c-4.2,1.7-8.3,4.9-11.3,9.3
					c-1.4,2.2-2.6,4.5-3.3,6.9c-0.7,2.4-1,4.8-1.2,7.2c-0.2,2.4-0.4,4.7-0.7,6.9c-0.3,2.2-0.8,4.2-1.3,6c-1,3.6-2.2,6.4-3.1,8.3
					C851.7,362.7,851,363.6,850.8,363.5z"/>
			</g>
		</g>
	</g>
	<g id="XMLID_1066_">
		<g>
			<g>
				<path class="st1" d="M889.8,374.6c0.1,0.2-0.2,0.6-0.8,1.2c-0.7,0.6-1.7,1.2-3.3,1.8c-1.5,0.5-3.6,0.9-5.9,0
					c-1.1-0.4-2.2-1.2-3.1-2.2c-0.8-1-1.4-2.2-1.7-3.5c-0.7-2.6-0.1-5.3,1.2-7.2c1.2-1.9,2.9-3.1,4.3-3.8c1.5-0.7,2.7-0.9,3.6-1
					c0.9,0,1.4,0.1,1.4,0.3c0.1,0.5-1.7,1-3.8,2.6c-1.1,0.8-2.2,1.9-3,3.3c-0.4,0.7-0.6,1.5-0.8,2.3c-0.1,0.8-0.1,1.7,0.1,2.6
					c0.4,1.8,1.5,3.1,2.8,3.7c1.3,0.7,2.9,0.7,4.2,0.5C887.8,374.9,889.5,374.2,889.8,374.6z"/>
			</g>
		</g>
	</g>
	<g id="XMLID_1074_">
		<g>
			<g>
				<path class="st1" d="M886.9,362.2c-0.2-0.5,1.7-1.6,4.2-4c2.4-2.4,5.3-6.3,7.1-11.2c1.8-4.9,2.4-9.8,2.7-13.3
					c0.3-3.5,0.5-5.8,1-5.8c0.4,0,1.1,2.2,1.4,5.9c0.3,3.7,0,8.9-1.9,14.4c-2,5.5-5.5,9.7-8.6,11.9
					C889.4,362.2,887,362.6,886.9,362.2z"/>
			</g>
		</g>
	</g>
	<g id="XMLID_1082_">
		<g>
			<g>
				<path class="st1" d="M885.5,377.9c0.3,0,0.2,2.8,1.4,7.8c0.6,2.5,1.5,5.4,2.5,9c0.9,3.5,1.9,7.7,1.6,12.5
					c-0.3,4.7-1.7,9.9-4.4,14.7c-2.7,4.9-6.8,9.4-12,12.9c-5.2,3.6-11.3,6.1-18,7.4c-3.3,0.6-6.9,1-10.6,0.3c-1.8-0.3-3.6-1-5.3-1.9
					c-1.7-0.9-3.1-2.2-4.4-3.5c-2.6-2.8-4.3-6-5.8-9.2c-1.4-3.2-2.6-6.4-3.4-9.8c-0.8-3.3-1.1-6.7-0.9-10.1c0.2-3.3,0.8-6.5,1.7-9.5
					c1.8-6,4.5-11.2,7.3-15.9c2.8-4.7,5.6-8.8,8-12.7c2.4-3.8,4.5-7.4,6.1-10.6c1.6-3.2,2.7-6.1,3.5-8.5c1.5-4.8,1.7-7.7,2-7.6
					c0.1,0,0.2,0.7,0.1,2.1c0,0.7-0.1,1.5-0.2,2.5c-0.2,1-0.3,2.1-0.6,3.4c-0.6,2.5-1.6,5.6-3,8.9c-1.5,3.4-3.4,7.1-5.8,11
					c-2.3,4-5,8.2-7.6,12.8c-2.6,4.6-5.1,9.7-6.7,15.4c-1.6,5.6-2.1,11.8-0.5,18c0.7,3.1,1.9,6.1,3.2,9.2c1.4,3,3,5.9,5.2,8.3
					c2.2,2.4,4.9,3.9,8,4.5c3,0.6,6.3,0.3,9.4-0.2c6.3-1.2,12.1-3.5,16.9-6.8c4.9-3.2,8.7-7.3,11.4-11.8c2.7-4.4,4.1-9.2,4.5-13.6
					c0.4-4.4-0.3-8.4-1.1-11.9c-0.8-3.5-1.6-6.6-2-9.1C884.7,380.7,885.3,377.8,885.5,377.9z"/>
			</g>
		</g>
	</g>
	<g id="XMLID_1090_">
		<g>
			<g>
				<path class="st1" d="M935.8,427.1c-0.4,0.3-2.2-1.9-5.7-4.7c-3.4-2.8-8.5-6.2-14.9-8.1c-6.4-1.9-12.6-2.3-17.1-2.9
					c-2.3-0.3-4-0.5-5.2-0.5c-1.2,0-1.9,0.2-2,0c-0.1-0.2,0.4-0.8,1.7-1.3c1.3-0.5,3.3-0.6,5.6-0.6c2.3,0,5,0,8.1,0.3
					c3,0.3,6.4,0.7,9.9,1.8c7,2.1,12.4,6.1,15.6,9.5C934.9,424.2,936.1,426.9,935.8,427.1z"/>
			</g>
		</g>
	</g>
	<g id="XMLID_1098_">
		<g>
			<g>
				<path class="st1" d="M911.2,471.3c0.1,0.4-0.5,1-1.7,1.6c-1.2,0.5-2.9,0.9-4.8,1c-1.9,0-3.7-0.3-4.8-0.8c-1.2-0.5-1.8-1-1.7-1.5
					c0.2-0.9,3.1-0.9,6.5-1C908.1,470.5,911,470.4,911.2,471.3z"/>
			</g>
		</g>
	</g>
	<g id="XMLID_1106_">
		<g>
			<g>
				<path class="st1" d="M947.2,472.1c0.2,0.3-1.8,2.3-5.9,4.1c-2,0.9-4.6,1.7-7.5,2.1c-2.9,0.5-6.2,0.5-9.6,0c-6.8-1-12.3-3.8-16-6
					c-1.9-1.1-3.3-2.2-4.2-3.1c-0.9-0.9-1.2-1.5-1.1-1.7c0.3-0.3,2.4,1.2,6.3,2.8c3.9,1.7,9.2,3.9,15.4,4.9c6.2,1,11.9,0.1,15.9-1.1
					C944.6,472.9,947,471.7,947.2,472.1z"/>
			</g>
		</g>
	</g>
	<g id="XMLID_1114_">
		<g>
			<g>
				<path class="st1" d="M959.4,420.9c-0.3,0.9-5.7-0.2-12.4,0.4c-6.6,0.5-11.9,2.4-12.3,1.5c-0.2-0.4,0.9-1.4,3.1-2.5
					c2.1-1.1,5.3-2,9-2.3c3.6-0.3,7,0.2,9.2,0.9C958.3,419.7,959.5,420.5,959.4,420.9z"/>
			</g>
		</g>
	</g>
	<g id="XMLID_1122_">
		<g>
			<g>
				<path class="st1" d="M993.6,431.9c0.4,0.1,0.3,4.2-2,10.5c-1.1,3.1-2.8,6.7-5.2,10.4c-2.4,3.7-5.6,7.4-9.5,10.7
					c-3.9,3.3-8.1,5.8-12.1,7.6c-4,1.8-7.9,2.9-11.1,3.5c-6.6,1.2-10.7,0.6-10.7,0.2c0-0.5,4-0.8,10.1-2.5
					c6.1-1.7,14.3-5.1,21.7-11.3c7.3-6.2,12.1-13.8,14.7-19.5C992.2,435.7,993.1,431.8,993.6,431.9z"/>
			</g>
		</g>
	</g>
	<g id="XMLID_1130_">
		<g>
			<g>
				<path class="st1" d="M984.4,390.3c0.4,0.9-7.5,5-14.9,13c-7.5,7.8-11.2,16-12.1,15.6c-0.4-0.2,0-2.4,1.5-5.8
					c0.7-1.7,1.8-3.7,3.2-5.7c1.4-2,3-4.2,5-6.3c2-2.1,4-3.9,6-5.3c2-1.5,3.9-2.6,5.5-3.5C982,390.5,984.2,389.9,984.4,390.3z"/>
			</g>
		</g>
	</g>
	<g id="XMLID_1138_">
		<g>
			<g>
				<path class="st1" d="M992.5,435.3c-0.9-0.3,2.3-11.1,2.4-24.7c0-3.4-0.3-6.5-1.1-9.2c-0.8-2.7-2-4.9-3.4-6.5
					c-2.7-3.3-5.5-4.1-5.4-4.6c0-0.2,0.8-0.3,2.1,0.1c1.3,0.4,3.1,1.2,4.9,2.9c1.8,1.7,3.5,4.1,4.6,7.2c1.1,3,1.5,6.5,1.5,10.1
					c-0.1,7.1-1.3,13.4-2.6,17.8C994.3,432.9,992.9,435.4,992.5,435.3z"/>
			</g>
		</g>
	</g>
	<g id="XMLID_1146_">
		<g>
			<g>
				<path class="st1" d="M991.1,356.4c0.4,0.3-0.9,1.9-2.5,4.4c-0.8,1.2-1.6,2.7-1.9,4.5c-0.3,1.7-0.1,3.7,0.4,6
					c0.4,2.3,0.6,4.8,0.5,6.9c-0.1,2.2-0.4,4.1-0.8,5.6c-0.8,3.1-2,4.8-2.4,4.7c-0.9-0.3,1.3-7.7-0.5-16.7c-0.4-2.3-0.7-4.9-0.1-7.3
					c0.6-2.3,1.9-4,3-5.2c1.1-1.2,2.2-2,2.9-2.5C990.4,356.4,990.9,356.2,991.1,356.4z"/>
			</g>
		</g>
	</g>
	<g id="XMLID_1154_">
		<g>
			<g>
				<path class="st1" d="M1012.6,344.5c0.1,0.2,0,0.5-0.2,1.1c-0.2,0.5-0.6,1.3-1.1,2.3c-1.1,1.9-3.1,4.3-5.8,6.5
					c-2.7,2.1-5.5,3.5-7.6,4.2c-2.1,0.7-3.5,0.8-3.7,0.3c-0.3-0.9,4.4-3.2,9.3-7.1c2.4-2,4.5-3.9,6-5.4c0.8-0.7,1.4-1.3,2-1.7
					C1012,344.4,1012.4,344.4,1012.6,344.5z"/>
			</g>
		</g>
	</g>
	<g id="XMLID_1162_">
		<g>
			<g>
				<path class="st1" d="M1006.6,365.4c-0.4-0.3,0-1.5,0.8-3.3c0.8-1.8,2.1-4.2,3.1-6.9c1-2.7,1.6-5.2,1.8-7
					c0.2-1.9,0.2-3.1,0.7-3.3c0.4-0.1,1.3,1,1.6,3.2c0.4,2.1,0.2,5.3-1,8.3c-1.2,3.1-2.9,5.4-4.3,7
					C1008,364.9,1006.9,365.7,1006.6,365.4z"/>
			</g>
		</g>
	</g>
	<g id="XMLID_1170_">
		<g>
			<g>
				<path class="st1" d="M1008,370.7c-0.7-0.6,1.8-4.3,3.5-9.2c1.7-4.9,2-9.3,2.9-9.4c0.4,0,1,1.1,1.1,3c0.2,1.9,0,4.6-1,7.5
					c-1,2.8-2.5,5.1-3.8,6.5C1009.5,370.4,1008.4,371,1008,370.7z"/>
			</g>
		</g>
	</g>
	<g id="XMLID_1178_">
		<g>
			<g>
				<path class="st1" d="M1006.2,381c-0.7-0.6,1.7-4.2,3.7-8.9c2.1-4.7,3-8.9,3.9-8.8c0.4,0,0.8,1.2,0.7,3.1c0,1.9-0.5,4.4-1.7,7
					c-1.1,2.6-2.7,4.7-4,6C1007.6,380.8,1006.5,381.3,1006.2,381z"/>
			</g>
		</g>
	</g>
	<g id="XMLID_1186_">
		<g>
			<g>
				<path class="st1" d="M994.4,401.1c-0.2-0.1-0.3-0.6-0.1-1.6c0.2-1,0.7-2.4,1.6-4c0.9-1.6,2.3-3.2,3.8-4.9c1.6-1.7,3.3-3.4,5-5.3
					c3.3-3.8,5.4-7.8,6.8-10.8c1.4-3,2-5.1,2.5-5c0.4,0.1,0.6,2.3-0.3,5.7c-0.9,3.4-2.9,8.1-6.5,12.2c-1.8,2.1-3.7,3.7-5.3,5.3
					c-1.6,1.5-3,2.9-4.1,4.2C995.7,399.3,994.9,401.2,994.4,401.1z"/>
			</g>
		</g>
	</g>
	<g id="XMLID_1194_">
		<g>
			<g>
				<path class="st1" d="M992.9,355c-0.9,0.1-2.2-8.6-3.6-19.3c-1.4-10.7-2.4-19.4-1.5-19.6c0.9-0.2,3.3,8.4,4.7,19.2
					C994,346.1,993.8,355,992.9,355z"/>
			</g>
		</g>
	</g>
	<g id="XMLID_1202_">
		<g>
			<g>
				<path class="st1" d="M997.1,313.4c-0.2,0.4-0.8,0.5-1.6,0.7c-0.8,0.1-1.8,0.2-2.8,0.4c-1.1,0.2-2,0.5-2.8,0.7
					c-0.8,0.2-1.4,0.4-1.7,0.1c-0.3-0.3-0.3-1,0.4-1.9c0.6-0.9,1.9-1.8,3.5-2.1c1.6-0.3,3.1,0,4,0.5
					C997,312.4,997.3,313,997.1,313.4z"/>
			</g>
		</g>
	</g>
	<g id="XMLID_1210_">
		<g>
			<g>
				<path class="st1" d="M1001.6,352.9c-0.9,0-2-9.1-3.4-20.3c-1.3-11.2-2.4-20.3-1.5-20.5c0.9-0.2,3.4,8.8,4.7,20.1
					C1002.8,343.6,1002.5,352.8,1001.6,352.9z"/>
			</g>
		</g>
	</g>
	<g id="XMLID_1218_">
		<g>
			<g>
				<path class="st1" d="M989.7,263.1c0.2-0.1,0.8,0.5,1.3,1.9c0.6,1.4,0.9,3.7,0.5,6.4c-0.4,2.7-1.5,5.7-3.2,8.8
					c-1.6,3-3.6,6.1-4.8,9.5c-1.2,3.4-1.6,6.9-1.4,10.1c0.2,3.2,1,6,1.9,8.2c0.4,1.1,0.9,2.1,1.4,3c0.4,0.8,0.9,1.4,1.4,1.8
					c0.5,0.4,0.8,0.5,1.2,0.5c0.3,0,0.5-0.1,0.6,0c0,0.1,0,0.4-0.4,0.6c-0.4,0.3-1.2,0.3-2,0c-0.8-0.3-1.6-1-2.3-1.9
					c-0.6-0.8-1.3-1.8-2-3c-1.3-2.3-2.4-5.4-2.8-8.9c-0.4-3.5-0.1-7.6,1.3-11.5c1.4-3.9,3.6-7,5.3-9.9c1.7-2.8,2.9-5.4,3.5-7.7
					C990.6,266.3,989.3,263.3,989.7,263.1z"/>
			</g>
		</g>
	</g>
	<g id="XMLID_1226_">
		<g>
			<g>
				<path class="st1" d="M996.1,312.1c-0.2,0-0.5-0.8-0.4-2.2c0.1-1.5,0.6-3.5,1.5-5.8c0.8-2.3,1.6-4.9,1.9-8c0.3-3,0.3-6.4-0.5-9.9
					c-0.7-3.4-2-6.7-3.2-9.6c-1.2-2.9-2.4-5.6-3.3-7.9c-1.8-4.5-2.7-7.4-2.3-7.6s2.1,2.4,4.4,6.6c1.2,2.1,2.5,4.7,4,7.6
					c1.4,2.9,2.9,6.3,3.7,10.2c0.8,3.8,0.8,7.6,0.3,11c-0.5,3.3-1.6,6.2-2.7,8.5c-1.1,2.2-1.9,3.9-2.3,5.1
					C996.5,311.3,996.4,312.1,996.1,312.1z"/>
			</g>
		</g>
	</g>
	<g id="XMLID_1234_">
		<g>
			<g>
				<path class="st1" d="M830,519.5c-0.4,0.1-1.6-4.4-2.5-11.9c-0.2-1.9-0.4-3.9-0.5-6.1c-0.2-2.2-0.2-4.6-0.2-7.1
					c0-5,0.3-10.5,0.9-16.2c0.7-5.7,1.7-11.1,2.9-16c0.6-2.4,1.2-4.7,1.9-6.8c0.6-2.1,1.3-4.1,1.9-5.8c2.6-7.1,4.9-11.2,5.2-11
					c0.5,0.2-1,4.6-3,11.7c-0.5,1.8-1,3.7-1.5,5.9c-0.6,2.1-1,4.4-1.6,6.8c-1,4.8-1.9,10.1-2.6,15.7c-0.6,5.6-1,11-1.1,15.8
					c0,2.4-0.1,4.8-0.1,6.9c0,2.2,0.1,4.2,0.1,6.1C830.1,514.8,830.5,519.4,830,519.5z"/>
			</g>
		</g>
	</g>
	<g id="XMLID_1242_">
		<g>
			<g>
				<path class="st1" d="M922.8,533.9c0.2,0.3-4.8,4.6-14.6,8.7c-4.9,2.1-10.9,4-17.8,5.4c-6.9,1.3-14.5,2.2-22.6,2.2
					c-4,0-7.9-0.1-11.8-0.5c-3.8-0.4-7.5-1.1-10.9-2.3c-3.4-1.2-6.5-2.9-8.9-5c-2.5-2.1-4.3-4.6-5.5-7c-2.5-4.9-2.9-9.4-2.6-12.4
					c0.3-3,1-4.5,1.1-4.5c0.3,0.1,0,1.7,0.1,4.5c0.2,2.8,0.8,7,3.4,11.3c1.2,2.1,3,4.3,5.2,6.1c2.3,1.8,5,3.3,8.2,4.3
					c6.3,2.1,13.8,2.4,21.7,2.4c7.9,0,15.3-0.7,22.1-1.9c6.7-1.2,12.6-2.8,17.5-4.5C917.1,537,922.5,533.5,922.8,533.9z"/>
			</g>
		</g>
	</g>
	<g id="XMLID_1250_">
		<g>
			<g>
				<path class="st1" d="M925.9,511.5c-0.9-0.2-0.2-7.6-0.4-16.6c-0.2-9.1-1.2-16.4-0.3-16.6c0.4-0.1,1.3,1.7,2,4.6
					c0.8,3,1.4,7.2,1.6,11.9c0.1,4.7-0.4,9-1,12C927.1,509.8,926.4,511.6,925.9,511.5z"/>
			</g>
		</g>
	</g>
	<g id="XMLID_1258_">
		<g>
			<g>
				<path class="st1" d="M921,536c-0.3-0.4,1.2-1.9,3-4.6c1.9-2.7,4-6.7,4.9-11.4c0.9-4.8,0.3-9.3-0.5-12.4
					c-0.8-3.2-1.6-5.1-1.2-5.3c0.3-0.2,1.9,1.3,3.4,4.6c1.4,3.2,2.5,8.3,1.5,13.7c-1,5.5-3.8,9.8-6.3,12.3
					C923.3,535.5,921.2,536.4,921,536z"/>
			</g>
		</g>
	</g>
	<g id="XMLID_1266_">
		<g>
			<g>
				<path class="st1" d="M945.1,582.2c0,0.4-6.6,1.4-17.4,2.5c-5.4,0.5-11.8,1.2-19,1.6c-7.2,0.4-15.1,0.6-23.4-0.2
					c-8.3-0.7-16.4-2.6-22.9-6.3c-3.3-1.8-6.1-4.1-8.2-6.7c-2.1-2.6-3.6-5.4-4.5-8.1c-0.9-2.7-1.3-5.2-1.5-7.3
					c-0.2-2.2-0.2-4.1-0.2-5.6c0.1-3.1,0.3-4.7,0.6-4.7c0.2,0,0.4,1.7,0.7,4.7c0.3,3,0.8,7.3,2.6,12.2c1.8,4.8,5.8,9.8,11.9,13
					c6,3.3,13.7,5,21.7,5.6c8.1,0.7,15.9,0.6,23,0.4c7.1-0.2,13.5-0.6,18.9-0.9C938.3,581.8,945,581.7,945.1,582.2z"/>
			</g>
		</g>
	</g>
	<g id="XMLID_1274_">
		<g>
			<g>
				<path class="st1" d="M983.1,618.7c-0.4-0.2,3.9-7.6,11-19.2c1.8-2.9,3.8-6.1,5.9-9.5c2.1-3.4,4.4-7.1,6.6-10.9
					c2.2-3.9,4.4-8,6.1-12.5c0.9-2.2,1.6-4.6,2.2-6.9c0.3-1.2,0.5-2.3,0.3-3.1c-0.2-0.9-0.6-1.6-1.4-2.2c-1.6-1.3-4.1-2-6.5-2.8
					c-2.4-0.8-4.8-1.5-7.1-2.3c-4.7-1.4-9.2-2.8-13.6-4c-8.7-2.4-16.6-4.4-23.2-5.9c-13.3-3.1-21.6-4.7-21.5-5.2
					c0-0.2,2.2-0.1,6,0.4c3.8,0.5,9.3,1.3,16,2.6c6.7,1.3,14.7,3,23.5,5.3c4.4,1.1,9,2.4,13.7,3.8c2.4,0.7,4.8,1.4,7.2,2.2
					c2.4,0.8,5.1,1.4,7.6,3.4c1.2,1,2.3,2.5,2.6,4.2c0.3,1.7-0.1,3.2-0.4,4.5c-0.6,2.5-1.4,5-2.4,7.3c-1.9,4.7-4.2,8.9-6.5,12.9
					c-2.4,3.9-4.7,7.5-6.9,10.9c-2.2,3.3-4.3,6.5-6.2,9.3C988.4,612,983.4,618.9,983.1,618.7z"/>
			</g>
		</g>
	</g>
	<g id="XMLID_1282_">
		<g>
			<g>
				<path class="st1" d="M1137.8,1112.5c-0.1,0-0.9-1.7-2.3-5s-3.5-8.3-6.1-14.7c-5.2-12.8-12.7-31.3-21.8-54.2
					c-18.2-45.9-42.8-109.4-69.3-179.9c-26.4-70.5-49.6-134.6-66.1-181.1c-8.2-23.3-14.8-42.1-19.2-55.2c-2.2-6.5-3.9-11.6-5-15.1
					c-1.1-3.5-1.7-5.3-1.5-5.3c0.1,0,0.8,1.7,2.2,5.1c1.3,3.4,3.2,8.4,5.6,14.9c4.8,12.9,11.7,31.7,20.2,54.8
					c17,46.3,40.6,110.3,67,180.7c26.4,70.5,50.7,134.1,68.4,180.2c8.8,23,15.9,41.7,20.8,54.6c2.4,6.5,4.3,11.5,5.5,14.9
					C1137.3,1110.6,1137.9,1112.4,1137.8,1112.5z"/>
			</g>
		</g>
	</g>
	<g id="XMLID_1290_">
		<g>
			<g>
				<path class="st1" d="M1060.8,1056c-0.1,0-0.8-1.5-2-4.4s-2.9-7.3-5-13c-2.2-5.6-4.8-12.5-7.7-20.6c-3-8-6.4-17.2-10-27.3
					c-3.7-10.1-7.7-21.3-11.9-33.2c-4.2-12-8.7-24.8-13.3-38.3c-9.2-27-19.2-56.7-29.4-88.1c-10.1-31.3-19.5-61.3-27.8-88.6
					c-4.1-13.7-8.1-26.6-11.6-38.8c-3.6-12.2-6.9-23.5-9.9-33.9c-3-10.4-5.6-19.8-7.9-28c-2.3-8.3-4.3-15.4-5.8-21.2
					c-1.6-5.8-2.7-10.4-3.5-13.4s-1.1-4.7-1-4.7s0.7,1.5,1.6,4.6c1,3,2.4,7.5,4.1,13.3c3.5,11.6,8.5,28.3,14.7,48.9
					c3.1,10.3,6.6,21.6,10.3,33.8c3.7,12.1,7.7,25.1,11.9,38.7c8.5,27.2,17.9,57.1,28,88.4c10.2,31.3,20,61.1,29.1,88.1
					c4.6,13.5,8.9,26.3,13,38.3c4.1,12,8,23.2,11.5,33.4c7.1,20.4,12.8,36.9,16.7,48.3c2,5.7,3.5,10.1,4.5,13.2
					C1060.4,1054.4,1060.9,1056,1060.8,1056z"/>
			</g>
		</g>
	</g>
	<g id="XMLID_1298_">
		<g>
			<g>
				<path class="st1" d="M975,632.4c0,0.4-1.6,1-4.5,1.2c-1.4,0.1-3.1,0-5-0.2c-1.9-0.3-3.9-0.7-5.9-1.5c-2-0.7-3.9-1.7-5.5-2.6
					c-1.6-1-2.9-2-4-3c-2.1-1.9-3-3.5-2.7-3.8c0.7-0.7,5.7,3.7,13.3,6.3C968.3,631.6,974.9,631.4,975,632.4z"/>
			</g>
		</g>
	</g>
	<g id="XMLID_1306_">
		<g>
			<g>
				<path class="st1" d="M985.8,614.6c0.8,0.5-1.2,4.9-4.4,9.8c-3.2,4.9-6.4,8.5-7.2,8s1.2-4.9,4.4-9.8
					C981.8,617.7,985,614.1,985.8,614.6z"/>
			</g>
		</g>
	</g>
	<g id="XMLID_1314_">
		<g>
			<g>
				<path class="st1" d="M968.4,665.8c-0.3,0.4-2.5-0.6-6.3-2c-1.9-0.7-4.1-1.4-6.6-2.2c-2.5-0.8-5.3-1.6-8.3-2.4
					c-5.9-1.7-11.3-3.5-15-5.2c-3.7-1.7-5.8-3.3-5.6-3.7c0.2-0.4,2.6,0.4,6.4,1.5c3.8,1.2,9.2,2.6,15.1,4.3c3,0.9,5.8,1.8,8.4,2.7
					c2.5,1,4.8,2,6.6,3C966.7,663.7,968.7,665.4,968.4,665.8z"/>
			</g>
		</g>
	</g>
	<g id="XMLID_1322_">
		<g>
			<g>
				<path class="st1" d="M944.8,649.8c-0.9-0.1-0.8-5.2,0.9-11.2c1.7-6,4.2-10.4,5.1-10c0.8,0.3-0.3,5.1-1.9,10.9
					C947.2,645.2,945.7,649.9,944.8,649.8z"/>
			</g>
		</g>
	</g>
	<g id="XMLID_1330_">
		<g>
			<g>
				<path class="st1" d="M957.9,650.1c-0.8-0.3-0.1-4.3,1.4-8.9c1.5-4.6,3.2-8.2,4.1-8c0.9,0.2,0.6,4.3-1,9
					C960.8,647,958.7,650.4,957.9,650.1z"/>
			</g>
		</g>
	</g>
	<g id="XMLID_1338_">
		<g>
			<g>
				<path class="st1" d="M989.3,659.4c-0.4,0.3-1.6-1.1-4-2.6c-1.2-0.8-2.6-1.6-4.3-2.3c-1.7-0.8-3.6-1.5-5.7-2.3
					c-4.2-1.5-8-2.9-10.7-3.7c-2.7-0.9-4.5-1.4-4.5-1.9c0-0.4,1.9-0.8,5-0.4c3,0.3,7.1,1.4,11.3,2.9c2.2,0.8,4.2,1.7,6,2.7
					c1.8,1,3.3,2.1,4.4,3.2C989,657.3,989.7,659.2,989.3,659.4z"/>
			</g>
		</g>
	</g>
	<g id="XMLID_1346_">
		<g>
			<g>
				<path class="st1" d="M989,660c0.1,0.4-2.9,1.3-7.8,1.9c-4.9,0.5-11.8,0.6-19.2-0.6c-3.7-0.6-7.2-1.5-10.3-2.4
					c-1.5-0.5-3.1-1-4.5-1.7c-1.4-0.7-2.7-1.6-3.6-2.7c-1-1.1-1.4-2.4-1.5-3.5c-0.1-1.1,0-2.1,0.4-2.8c0.3-0.7,0.8-1.2,1.1-1.4
					c0.3-0.2,0.6-0.3,0.6-0.2c0.2,0.2-0.4,0.8-0.5,1.9c-0.2,1.1,0.2,3,1.6,4.3c1.5,1.4,4.1,2.2,7.1,3c3.1,0.8,6.4,1.5,10,2.1
					C976.9,660.4,988.9,659.1,989,660z"/>
			</g>
		</g>
	</g>
	<g id="XMLID_1354_">
		<g>
			<g>
				<path class="st1" d="M967.7,581.4c0.8,0.5-4.6,9.5-10.4,21.1c-5.8,11.5-9.8,21.2-10.7,20.9c-0.8-0.3,1.9-10.6,7.8-22.3
					C960.3,589.2,967,580.9,967.7,581.4z"/>
			</g>
		</g>
	</g>
	<g id="XMLID_1362_">
		<g>
			<g>
				<path class="st1" d="M946.1,595.5c-0.5,0.7-4.7-1.5-9.3-5s-7.9-6.9-7.3-7.6c0.5-0.7,4.7,1.5,9.3,5
					C943.4,591.4,946.6,594.8,946.1,595.5z"/>
			</g>
		</g>
	</g>
	<g id="XMLID_1370_">
		<g>
			<g>
				<path class="st1" d="M963.6,583.3c0,0.9-5.4,1.6-12.2,1.6c-3.3,0-6.4-0.2-8.7-0.7c-2.3-0.5-3.5-1.2-3.4-1.7
					c0.1-0.4,1.5-0.5,3.6-0.6c2.1-0.1,5.1-0.3,8.5-0.3C958.1,581.6,963.6,582.4,963.6,583.3z"/>
			</g>
		</g>
	</g>
	<g id="XMLID_1378_">
		<g>
			<g>
				<path class="st1" d="M1005.9,550.5c-0.2,0-0.3-1.3-0.5-3.4c-0.1-1.1-0.3-2.3-0.8-3.6c-0.5-1.3-1.4-2.7-2.6-4
					c-1.3-1.3-2.9-2.4-4.8-3.3c-2-0.9-4.2-1.5-6.7-2c-2.4-0.5-5.1-0.8-7.9-1.3c-2.8-0.4-5.6-0.8-8.6-1.2
					c-23.5-3.3-42.6-4.7-42.6-5.6c0-0.9,19.4-0.9,43,2.4c3,0.4,5.8,0.8,8.6,1.3c2.8,0.5,5.4,0.9,8,1.5c2.6,0.6,5,1.4,7.2,2.5
					c2.2,1.1,4,2.6,5.4,4.2c1.4,1.6,2.2,3.4,2.7,5c0.4,1.6,0.4,3.1,0.3,4.2C1006.5,549.4,1006.1,550.5,1005.9,550.5z"/>
			</g>
		</g>
	</g>
	<g id="XMLID_1386_">
		<g>
			<g>
				<path class="st1" d="M950.2,634.4c-0.1,0.4-3.2,0.2-8-0.7c-2.4-0.4-5.3-0.9-8.6-1.8c-1.6-0.5-3.3-1.1-5-1.9
					c-0.8-0.4-1.7-0.9-2.5-1.5c-0.8-0.5-1.7-1.2-2.4-2.1c-0.8-0.9-1.4-2.1-1.5-3.3c-0.2-1.2,0-2.4,0.3-3.4c0.6-2,1.5-3.5,2.3-4.9
					c1.6-2.9,3.2-5.4,4.6-7.5c2.8-4.1,5-6.3,5.3-6.1c0.4,0.3-1.1,3-3.4,7.3c-1.1,2.2-2.5,4.7-3.9,7.6c-0.7,1.5-1.5,3-1.9,4.4
					c-0.2,0.7-0.3,1.4-0.2,2c0.1,0.6,0.4,1.1,0.8,1.7c0.9,1.1,2.5,2,3.9,2.8c1.5,0.8,3,1.4,4.5,1.9c3,1,5.8,1.7,8.2,2.4
					C947.5,632.9,950.3,634,950.2,634.4z"/>
			</g>
		</g>
	</g>
	<g id="XMLID_1394_">
		<g>
			<g>
				<path class="st1" d="M926,648.8c-0.9-0.3-0.1-4.9,1.7-10.4c1.8-5.4,4-9.6,4.8-9.3c0.9,0.3,0.1,4.9-1.7,10.4
					S926.8,649.1,926,648.8z"/>
			</g>
		</g>
	</g>
	<g id="XMLID_1402_">
		<g>
			<g>
				<path class="st1" d="M994.9,739.5c-0.4,0.8-11.7-4.1-24.9-11.4c-13.2-7.3-23.4-14.2-22.9-15c0.5-0.8,11.3,4.9,24.5,12.1
					C984.7,732.5,995.3,738.7,994.9,739.5z"/>
			</g>
		</g>
	</g>
	<g id="XMLID_1410_">
		<g>
			<g>
				<path class="st1" d="M1021.3,815.5c-0.5,0.8-13.6-6.2-28.8-16.4c-15.3-10.1-26.8-19.5-26.3-20.2c0.5-0.7,12.9,7.4,28.1,17.5
					C1009.5,806.4,1021.8,814.7,1021.3,815.5z"/>
			</g>
		</g>
	</g>
	<g id="XMLID_1418_">
		<g>
			<g>
				<path class="st1" d="M1050.2,885.5c-0.4,0.8-15.8-7.4-33.7-19.3c-17.9-11.8-31.5-22.8-30.9-23.5c0.6-0.7,14.9,9,32.7,20.8
					C1036,875.3,1050.6,884.7,1050.2,885.5z"/>
			</g>
		</g>
	</g>
	<g id="XMLID_1426_">
		<g>
			<g>
				<path class="st1" d="M1075.5,956.6c-0.3,0.4-4-2.6-10.1-7.1c-3.1-2.3-6.8-4.8-10.9-7.7c-4.2-2.8-8.8-5.9-13.6-9.1
					c-4.8-3.2-9.4-6.4-13.5-9.4c-4.1-3-7.7-5.8-10.6-8.3c-5.8-5-9-8.6-8.7-8.9c0.3-0.4,4,2.6,10.1,7.1c3.1,2.3,6.8,4.8,10.9,7.7
					c4.2,2.8,8.8,5.9,13.6,9.1c4.8,3.2,9.4,6.4,13.5,9.4c4.1,3,7.7,5.8,10.6,8.3C1072.6,952.7,1075.7,956.3,1075.5,956.6z"/>
			</g>
		</g>
	</g>
	<g id="XMLID_1434_">
		<g>
			<g>
				<path class="st1" d="M1112.6,1046.4c-0.3,0.4-5-2.8-12.4-8.3c-7.4-5.5-17.4-13.3-28.3-22.2c-10.9-8.9-20.5-17.1-27.4-23.3
					c-6.9-6.1-10.9-10.1-10.6-10.5c0.3-0.3,4.9,3,12.1,8.7c7.2,5.7,17.1,13.6,28,22.5c10.9,8.9,20.7,16.9,27.7,22.9
					C1108.6,1042.2,1112.9,1046,1112.6,1046.4z"/>
			</g>
		</g>
	</g>
	<g id="XMLID_1442_">
		<g>
			<g>
				<path class="st1" d="M987.4,273.5c0.1,0.1-0.5,1-1.8,2.6c-1.3,1.6-3.5,3.8-6.8,6c-0.4,0.3-0.8,0.6-1.3,0.9
					c-0.4,0.3-0.9,0.5-1.4,0.8c-0.5,0.3-1,0.6-1.5,0.8c-0.5,0.2-1.1,0.5-1.6,0.8c-0.5,0.3-1.1,0.5-1.7,0.7c-0.6,0.2-1.2,0.5-1.8,0.7
					c-1.3,0.4-2.5,0.9-3.9,1.1c-1.4,0.4-2.8,0.6-4.3,0.8c-1.5,0.1-3.1,0.3-4.7,0.3c-3.2,0-6.7-0.3-10.1-1.3
					c-7-1.9-13.8-5.9-20.6-10.5c-6.8-4.7-13.9-9.7-21.9-14.2c-7.9-4.5-16.7-8.5-26.4-10l-1.8-0.3c-0.6-0.1-1.2-0.1-1.8-0.2l-1.8-0.2
					c-0.6,0-1.2,0-1.8,0l-1.9,0c-0.6,0-1.2,0.1-1.9,0.1c-1.2,0.1-2.5,0.1-3.7,0.3c-5,0.7-10,2-14.9,3.8c-4.9,1.9-9.6,4.1-14.2,6.4
					c-4.6,2.4-9.1,4.7-13.6,7.1c-8.9,4.6-18,8.7-27.1,10.9c-1.2,0.2-2.3,0.4-3.5,0.7c-0.6,0.1-1.1,0.2-1.7,0.3
					c-0.6,0.1-1.1,0.1-1.7,0.2c-2.3,0.3-4.6,0.4-6.8,0.4c-4.5,0-8.8-0.5-12.9-1.4c-8.2-1.7-15.5-4.9-21.5-8.6c-6-3.7-10.9-8-14.7-12
					c-3.9-4.1-6.7-8-8.8-11.3c-2.1-3.3-3.5-6-4.4-7.9c-0.9-1.9-1.2-2.9-1.1-2.9c0.3-0.1,2.1,3.8,6.6,10.1c2.3,3.1,5.2,6.9,9.1,10.7
					c3.9,3.9,8.7,7.9,14.6,11.3c5.9,3.5,12.9,6.4,20.8,7.9c3.9,0.8,8.1,1.2,12.4,1.2c2.1-0.1,4.3-0.2,6.5-0.4
					c0.5-0.1,1.1-0.1,1.6-0.2c0.5-0.1,1.1-0.2,1.6-0.3c1.1-0.2,2.2-0.4,3.3-0.7c8.8-2.2,17.5-6.2,26.4-10.8
					c4.4-2.3,8.9-4.7,13.6-7.1c4.7-2.4,9.5-4.6,14.5-6.5c5.1-1.8,10.3-3.3,15.6-4c1.3-0.1,2.7-0.2,4-0.3c0.7,0,1.3-0.1,2-0.1l2,0
					c0.7,0,1.3,0,2,0.1l2,0.2c0.6,0.1,1.3,0.1,1.9,0.2l1.9,0.3c10.2,1.7,19.3,6,27.4,10.6c8.1,4.6,15.2,9.9,21.9,14.6
					c6.6,4.7,13.1,8.6,19.7,10.5c3.2,0.9,6.5,1.4,9.5,1.4c1.5,0.1,3-0.1,4.5-0.2c1.4-0.2,2.8-0.3,4.1-0.7c1.3-0.2,2.6-0.6,3.8-1
					c0.6-0.2,1.2-0.4,1.8-0.6c0.6-0.2,1.1-0.4,1.7-0.6c0.5-0.2,1.1-0.5,1.6-0.7c0.5-0.2,1-0.5,1.5-0.7c0.5-0.2,0.9-0.5,1.4-0.7
					c0.4-0.3,0.9-0.5,1.3-0.8c3.3-2,5.5-4,7-5.4C986.6,274.2,987.3,273.4,987.4,273.5z"/>
			</g>
		</g>
	</g>
	<g id="XMLID_1450_">
		<g>
			<g>
				<path class="st1" d="M989.4,268.2c0,0-0.1,0.3-0.4,0.7c-0.2,0.2-0.4,0.5-0.6,0.8c-0.2,0.3-0.6,0.6-1,1c-1.5,1.5-4.1,3.3-7.8,4.6
					c-1.9,0.6-4,1.2-6.4,1.4c-1.2,0.2-2.5,0.2-3.8,0.2c-1.3,0-2.7-0.1-4.1-0.2c-2.8-0.3-5.8-0.9-8.8-1.9c-3-1-6.1-2.4-9.2-4.2
					c-6.2-3.4-12.2-8.1-18.8-12.9c-3.3-2.4-6.7-4.8-10.4-7c-3.7-2.2-7.6-4.1-11.8-5.8c-4.2-1.7-8.6-3.1-13.2-4.4
					c-4.6-1.3-9.3-2.4-14.1-3.1c-4.8-0.8-9.8-1.2-14.8-0.9c-5,0.3-10,1.3-14.8,3.1c-9.7,3.6-18.1,9.6-26.6,14.9
					c-4.2,2.7-8.5,5.2-13,7.2c-4.4,2.1-8.9,3.7-13.4,5c-4.5,1.3-8.9,2.3-13.2,3.1c-4.3,0.8-8.5,1.4-12.7,1.6
					c-8.3,0.5-16.2-1.2-22.6-4.2c-3.2-1.5-6.1-3.2-8.7-5c-2.6-1.8-4.9-3.7-7-5.6c-4.1-3.7-7.3-7.4-9.7-10.4c-2.4-3-4.2-5.5-5.3-7.2
					c-1.1-1.7-1.6-2.7-1.6-2.7c0.2-0.2,2.7,3.3,7.8,9.1c2.6,2.9,5.8,6.3,9.9,9.9c2.1,1.7,4.4,3.6,6.9,5.2c2.5,1.7,5.4,3.3,8.5,4.6
					c6.2,2.7,13.6,4.2,21.5,3.6c4-0.3,8.1-0.9,12.3-1.8c4.2-0.8,8.5-1.9,12.8-3.2c4.3-1.3,8.7-2.9,12.9-5c4.2-2,8.4-4.5,12.6-7.1
					c8.4-5.3,16.9-11.4,27.1-15.3c5.1-1.9,10.5-3,15.7-3.3c5.3-0.3,10.5,0.2,15.5,1c5,0.8,9.8,2,14.5,3.3c4.7,1.3,9.2,2.8,13.5,4.6
					c4.3,1.8,8.4,3.8,12.2,6.1c3.8,2.3,7.2,4.8,10.5,7.3c6.5,4.9,12.4,9.7,18.3,13.1c2.9,1.7,5.8,3.2,8.7,4.2c2.9,1,5.7,1.7,8.3,2
					c1.3,0.2,2.6,0.3,3.9,0.4c1.2,0,2.5,0.1,3.6-0.1c2.3-0.1,4.4-0.6,6.2-1c3.6-1.1,6.2-2.6,7.8-3.9c0.4-0.3,0.8-0.6,1-0.8
					c0.3-0.3,0.5-0.5,0.7-0.6C989.1,268.3,989.3,268.2,989.4,268.2z"/>
			</g>
		</g>
	</g>
	<g id="XMLID_1458_">
		<g>
			<g>
				<path class="st1" d="M1001.2,284.5c0.2,0,0.5,0.3,0.5,1c0,0.7-0.5,1.7-1.4,2.5c-0.9,0.8-2.3,1.3-3.9,1.4
					c-1.4,0.1-2.9-0.1-4.1-0.1c-0.6,0-1.1,0.1-1.6,0.3c-0.5,0.2-1.2,0.5-2,0.7c-0.8,0.2-1.9,0.3-2.7-0.1c-0.9-0.4-1.4-1-1.7-1.5
					c-0.6-1.1-0.6-2-0.6-2.6c0-0.6,0.2-0.9,0.4-1c0.2-0.1,0.5,0.2,0.8,0.6c0.3,0.4,0.7,1.1,1.3,1.6c0.3,0.2,0.5,0.4,0.8,0.4
					c0.2,0,0.4,0,0.8-0.2c0.4-0.2,0.9-0.5,1.7-0.8c0.8-0.4,1.8-0.5,2.6-0.6c1.7-0.1,3.1,0.3,4.2,0.3c1,0.1,1.9-0.1,2.6-0.3
					c0.7-0.3,1.1-0.6,1.5-0.9C1000.8,284.8,1001,284.5,1001.2,284.5z"/>
			</g>
		</g>
	</g>
	<path id="XMLID_2_" d="M931.6,631.6c-2.1,6.1-4.1,12.2-6.2,18.3c7.2,2.8,17.4,6.2,30,8.6c9.9,1.9,31.5,5.1,32.8,1
		c0.5-1.6-2.4-3.8-5.2-5.9c-8.1-6.1-16.7-6.8-20.7-6.9c1.4-5.1,2.8-10.1,4.1-15.2c-4.4-1.3-8.7-2.5-13.1-3.8
		c-2.2,2.3-4.4,4.6-6.6,6.9C941.7,633.6,936.7,632.6,931.6,631.6z"/>
</g>
<g id="boy">
	<path class="st0" d="M345.7,534.4c-10.2,11.5-12.1,25.7-14.7,45.8c-1.6,12.2-1.6,22.4-1.4,29.3c-0.6,0.6-4.7,5.2-3.9,12
		s5.9,10.2,6.6,10.7c-2,10.1-3.7,20.8-5,32c-4.4,38.4-2.8,73,1,102.1c1.6,1.2,3.3,2.3,4.9,3.5c-0.7,6.6-1.7,17.2-2.7,30.1
		c-5.7,71.4-0.5,68.5-5.7,92.4c-4.6,21.1-6.8,36.4-11.3,67c-0.5,3.6-1.6,11.6,3.1,17.6c6.2,7.9,18.8,7.4,22.5,7.2
		c10.8-0.5,18.3-5.8,20.9-7.9c2.1-1.7,6.7-5.4,9.6-11.7c3.9-8.4,2.3-16.2,1.4-23.2c-1.6-12.2,0.2-24.7,0.1-37
		c-0.1-17.1,0.5-30,1.7-55.8c0.6-12.1,1.4-26.5,2.6-42.8c2.2,5.1,5.2,12.8,7.6,22.3c3.7,14.5,4.3,25.6,4.8,40.5
		c0.8,23.5,2.8,47,2.7,70.5c-0.1,18.8-0.7,27.8,6.1,35.3c6,6.6,16.4,10.6,26.1,9.8c2.8-0.2,8.2-0.7,13.2-4.5c1.4-1,6.5-5.1,9.5-15.8
		c3-11,1.3-20-0.1-28.3c-2.1-12.7-2.5-25.6-4.7-38.2c-4.2-24.1-2.2-23.5-8.8-86.9c-1.2-11.8-3.2-30-6-52.6c0.7-5.4,1.4-10.8,2-16.2
		c3.3-3.6,6.6-7.3,9.9-10.9c-4.7-31.9-9.4-63.8-14.1-95.7c6.6-3.8,14.2-9.1,21.8-16.4c17.2-16.4,25.6-34.7,29.6-46
		c0.3-3.7,0.5-7.4,0.8-11.1c2.9-3.1,6.6-7.6,10-13.7c1.8-3.2,4.2-7.5,5.7-13.5c0.8-3.2,4.2-16.3-2.4-28c-2.3-4-5.7-7.7-7-7.1
		c-2.1,0.9,2.9,11-1.7,17.5c-2.1,2.9-5.4,4.1-7.6,4.7c-1.5-1.6-2.7-2.2-3.8-2c-3.2,0.7-4.6,9.2-4.4,25.5c-5.9,8.6-10.6,15.5-13.5,20
		c-10.1,15.2-12.9,20.3-20,23.5c-4.9,2.2-4.8,0.4-14.7,2.9c-4.8,1.2-8.6,2.7-25.8,10.6c-4.6,2.1-10.6,4.9-17.6,8.2
		c1-6.5,3.3-12.7,8.4-16.9c4.6-3.9,8.6-3.6,12.1-7.5c3-3.3,5-8.8,3.7-18.2c0.2-0.2,3.3-2.8,2.8-6.9c-0.5-4.3-4.4-6-4.6-6.1
		c3.5-14.9,0-29.1-8.9-34.8C374,511.6,354.6,524.4,345.7,534.4z"/>
	<path id="XMLID_12_" d="M360.8,557.3c4,2.2,8.9,1.6,12.2-1.5c3.2-3,4.2-7.7,2.4-11.7c0.6-0.8,4.3-5.4,10.7-5.9
		c4.7-0.3,8.1,1.7,9.3,2.4c1.2-2,2.8-5.4,2.9-9.8c0-1.7,0.3-10.1-5.9-14.2c-3-1.9-6.1-2-7.8-2c-0.4-1.5-2-8.1-7.3-10.2
		c-5-2-10.3,1.1-15.6,4.4c-3.6,2.2-9.4,6.4-14.6,14.2c-3.6,1.1-10.6,3.9-16.1,10.7c-2,2.6-5.6,7-5.9,13.2c-0.2,5.2,2.2,5.6,2.4,10.7
		c0.3,7.2-4.4,8.4-6.8,18.1c-0.6,2.4-2.1,8.9,0,16.6c1,3.4,2.6,9.5,8.3,13.2c5.5,3.6,11.5,2.9,15.1,2.4c4-0.5,14.9-1.8,20-11.2
		c4.9-9.1,0.6-18.7,0-20c-0.9-0.4-4.8-2.4-6.3-6.8C356.3,565.7,357.5,560.8,360.8,557.3z"/>
	<path id="XMLID_13_" d="M332.3,985c-1.6,8.8-2.7,18.6-2.9,29.2c-0.1,2.7-0.1,5.4,0,8c2.8,0.6,5.6,1.2,8.4,1.8
		c12-5.2,24.1-10.5,36.1-15.7c-0.5-1.3-1.5-3.1-3.3-4c-3.2-1.7-6.8,0.6-11.3,1.8c-3.3,0.9-8.3,1.7-15,0.4c0.5-7.7,1-15.3,1.5-23
		C341.3,984,336.8,984.5,332.3,985z"/>
	<path id="XMLID_14_" d="M410.4,984.3c0.5,3,1,6,1.5,9.1c1.3,9,1.9,17.6,2.2,25.5c2,0.3,4.9,0.6,8.4,0c5.5-0.9,9.1-3.3,12.4-5.5
		c4.3-2.8,10.4-6.7,19-11.7c-2.3-1.1-5.6-2.5-9.8-2.9c-8.8-1-15.6,2.5-18.2,4c4.3-6.5,2.8-14.6-2.2-18.2
		C419.9,982.1,414.8,982,410.4,984.3z"/>
	<g id="XMLID_1_">
		<g>
			<g>
				<path class="st1" d="M380,600.3c-0.2,0.1-0.8-0.8-0.7-2.7c0-0.9,0.2-2,0.7-3.3c0.5-1.2,1.3-2.5,2.6-3.6c0.6-0.6,1.4-1,2.3-1.4
					c0.9-0.4,1.7-0.6,2.6-0.9c1.7-0.5,3.4-0.9,4.2-2c0.9-1.1,1.3-3,1.6-5.1c0.4-2.1,0.6-4.2,0.8-6.5c0.7-9-0.2-17.2-0.9-23.1
					c-0.7-5.9-1.2-9.7-0.7-9.8c0.4-0.1,1.7,3.4,3,9.4c1.3,5.9,2.6,14.3,1.9,23.7c-0.2,2.3-0.5,4.6-0.9,6.8c-0.2,1.1-0.4,2.1-0.8,3.3
					c-0.3,1.1-0.9,2.3-1.7,3.2c-0.9,1-2,1.6-3,1.9c-1,0.4-2,0.5-2.8,0.7c-0.9,0.2-1.6,0.3-2.3,0.6c-0.7,0.2-1.3,0.5-1.8,0.9
					c-2.2,1.5-3.1,3.7-3.5,5.2C380.1,599.4,380.2,600.3,380,600.3z"/>
			</g>
		</g>
	</g>
	<g id="XMLID_4_">
		<g>
			<g>
				<path class="st1" d="M397.6,567.5c-0.3-0.3,0.1-1.2,0.7-2.4c0.3-0.6,0.6-1.3,0.7-1.9c0.1-0.7,0.1-1.2-0.1-2
					c-0.5-1.5-1.7-3.1-2.3-4.3c-0.7-1.2-1.1-2.1-0.7-2.4c0.3-0.3,1.2,0,2.5,0.9c0.6,0.5,1.3,1,1.9,1.8c0.7,0.8,1.4,1.7,1.8,3
					c0.5,1.3,0.4,2.9-0.1,4c-0.5,1.1-1.2,1.8-1.8,2.4C398.8,567.5,397.9,567.8,397.6,567.5z"/>
			</g>
		</g>
	</g>
	<g id="XMLID_5_">
		<g>
			<g>
				<path class="st1" d="M390.1,558.1c-0.9,0.1-1.8-2-1.9-4.6c-0.2-2.6,0.4-4.7,1.3-4.8c0.9-0.1,1.8,2,1.9,4.6S391,558,390.1,558.1z
					"/>
			</g>
		</g>
	</g>
	<g id="XMLID_6_">
		<g>
			<g>
				<path class="st1" d="M390.1,543.4c-0.3,0.4-0.8,0.5-1.3,0.7c-0.4,0.2-1,0.6-1.4,1c-1,0.9-1.9,2.7-2.8,2.5
					c-0.4-0.1-0.8-0.6-0.9-1.5c-0.1-0.9,0.2-2.3,1.4-3.4c1.3-1.2,2.9-1.3,3.9-0.9c0.5,0.2,0.9,0.5,1,0.8
					C390.2,542.9,390.2,543.2,390.1,543.4z"/>
			</g>
		</g>
	</g>
	<g id="XMLID_7_">
		<g>
			<g>
				<path class="st1" d="M393.7,571.6c0.2,0.4,0,1-0.8,1.5c-0.7,0.5-1.9,0.7-3.2,0.5c-1.3-0.3-2.2-1.1-2.7-1.8
					c-0.4-0.7-0.4-1.4-0.1-1.6c0.4-0.3,0.9-0.2,1.5-0.2c0.6,0.1,1.2,0.2,2,0.4c0.7,0.2,1.4,0.3,1.9,0.5
					C393,570.9,393.5,571.1,393.7,571.6z"/>
			</g>
		</g>
	</g>
	<g id="XMLID_28_">
		<g>
			<g>
				<path class="st1" d="M370,575.1c0.1,0.2-0.2,0.6-0.8,1.1c-0.6,0.5-1.6,1.2-3,1.7c-0.7,0.3-1.6,0.5-2.6,0.4c-1,0-2.2-0.3-3.1-0.9
					c-1-0.6-1.8-1.4-2.5-2.3c-0.7-0.9-1.2-1.9-1.7-3c-0.9-2.2-1.1-4.5-0.7-6.6c0.3-2.1,1.2-3.8,2.3-5c1-1.2,2.3-1.8,3.2-2
					c0.9-0.1,1.4,0.1,1.4,0.3c0,0.2-0.4,0.4-0.9,0.9c-0.5,0.4-1.2,1.1-1.8,2.2c-0.6,1.1-1.1,2.4-1.2,4c-0.1,1.6,0.1,3.3,0.8,5
					c0.3,0.8,0.7,1.6,1.2,2.3c0.5,0.7,1,1.3,1.5,1.7c1,0.8,2.3,0.9,3.5,0.8c1.2-0.2,2.3-0.5,3-0.6
					C369.4,574.9,369.9,574.9,370,575.1z"/>
			</g>
		</g>
	</g>
	<g id="XMLID_35_">
		<g>
			<g>
				<path class="st1" d="M376.1,547.7c0.4,0,0.8,1.3,0.4,3.5c-0.4,2.1-1.9,5-4.9,6.8c-3,1.8-6.2,1.9-8.3,1.3c-2.1-0.6-3-1.7-2.8-2
					c0.2-0.4,1.4-0.2,3.2-0.2c1.7,0,4.1-0.4,6.3-1.8c2.1-1.3,3.6-3.3,4.4-4.8C375.2,548.8,375.6,547.6,376.1,547.7z"/>
			</g>
		</g>
	</g>
	<g id="XMLID_49_">
		<g>
			<g>
				<path class="st1" d="M350.7,606.4c0.1,0.1-1.2,1.3-4.1,2.3c-2.9,1-7.6,1.7-13,0.1c-2.7-0.8-5.5-2.3-8-4.6
					c-2.5-2.3-4.5-5.3-5.8-8.9c-1.3-3.5-1.7-7.7-0.9-11.8c0.8-4,2.6-7.8,4.1-11.5c1.5-3.7,2.7-7.3,2.7-10.9c0-3.6-0.6-7.3-0.8-11
					c-0.1-1.8-0.1-3.7,0.2-5.4c0.3-1.8,0.8-3.5,1.5-5c1.4-3.1,3.3-5.6,5.2-7.5c4-3.9,8-5.9,10.7-7.2c2.8-1.2,4.4-1.7,4.5-1.5
					c0.1,0.2-1.3,1.1-3.9,2.6c-2.5,1.6-6.2,3.9-9.7,7.7c-1.7,1.9-3.3,4.2-4.4,7c-1.1,2.7-1.4,5.8-1.2,9.2c0.2,3.4,1,7.1,1,11.2
					c0,2-0.3,4.2-0.8,6.2c-0.5,2-1.3,4-2,5.9c-1.6,3.8-3.2,7.4-4,10.9c-0.8,3.5-0.4,7,0.6,10.1c1,3.1,2.8,5.9,4.9,7.9
					c2.1,2.1,4.5,3.5,6.9,4.4c4.8,1.7,9.2,1.5,12,0.9C349,607,350.5,606.2,350.7,606.4z"/>
			</g>
		</g>
	</g>
	<g id="XMLID_63_">
		<g>
			<g>
				<path class="st1" d="M364.4,596.6c-0.8-0.4,0.3-4.4-0.1-9.3c-0.3-4.9-2-8.6-1.3-9.2c0.4-0.2,1.3,0.5,2.3,2c1,1.6,2,4,2.2,6.9
					c0.2,2.9-0.4,5.4-1.1,7.1C365.7,596,364.8,596.8,364.4,596.6z"/>
			</g>
		</g>
	</g>
	<g id="XMLID_65_">
		<g>
			<g>
				<path class="st1" d="M384.6,515.9c-0.1,0-0.2-0.2-0.4-0.5c-0.1-0.2-0.1-0.4-0.2-0.6c-0.1-0.2-0.2-0.5-0.3-0.8
					c-0.5-1.2-1.3-2.9-2.8-4.5c-1.5-1.6-3.8-3.2-6.6-3.7c-2.7-0.5-6,0.3-8.9,2c-3,1.8-5.3,4.2-7.4,6.6c-2.1,2.4-4,4.6-5.9,6.3
					c-0.9,0.9-1.8,1.6-2.6,2.2c-0.8,0.6-1.6,1.1-2.3,1.3c-0.7,0.3-1.4,0.3-1.8,0.2c-0.4-0.1-0.6-0.3-0.6-0.4c0-0.2,0.8-0.2,1.8-1
					c1-0.7,2.3-2.1,3.8-4c1.5-1.8,3.2-4.2,5.3-6.7c2-2.5,4.6-5.4,8-7.5c3.4-2.1,7.6-3.1,11.2-2.2c3.6,0.9,6.2,3.1,7.7,5.2
					c1.6,2.1,2.2,4.3,2.3,5.7c0,0.4,0,0.7,0,1c0,0.3-0.1,0.5-0.1,0.7C384.8,515.7,384.7,515.9,384.6,515.9z"/>
			</g>
		</g>
	</g>
	<g id="XMLID_73_">
		<g>
			<g>
				<path class="st1" d="M375.4,554c-0.2,0.1-0.9-0.7-1.3-2.4c-0.4-1.7-0.6-4.5,1-7.5c0.8-1.5,2-3,3.7-4c1.7-1.1,3.7-1.8,6-1.9
					c1.1-0.1,2.3,0,3.5,0.4c1.1,0.3,2.1,0.7,3.1,0.9c0.9,0.3,1.9,0.4,2.4,0.3c0.5-0.2,0.9-0.4,1.2-1.3c0.2-0.4,0.3-0.9,0.4-1.5
					c0.1-0.5,0.2-1,0.3-1.5c0.2-1,0.3-2.1,0.4-3.1c0.1-2,0-4-0.2-5.9c-0.4-3.7-1.7-6.9-3.6-8.8c-1.9-1.9-4.1-2.6-5.7-2.7
					c-1.5-0.1-2.5,0.2-2.6,0c-0.1-0.2,0.7-0.9,2.5-1.2c1.8-0.3,4.7,0.1,7.3,2.3c1.3,1.1,2.4,2.6,3.2,4.3c0.8,1.7,1.4,3.7,1.7,5.8
					c0.7,4.1,0.7,8.8-0.9,13.6c-0.2,0.7-0.6,1.4-1.2,2c-0.6,0.6-1.4,1.1-2.2,1.3c-1.7,0.4-3,0-4.1-0.4c-1.1-0.3-2.1-0.8-3-1
					c-0.8-0.2-1.7-0.4-2.6-0.4c-1.7,0-3.3,0.5-4.7,1.2c-1.3,0.8-2.4,1.8-3.1,2.9c-1.5,2.3-1.8,4.6-1.7,6.2
					C375.4,553,375.7,553.9,375.4,554z"/>
			</g>
		</g>
	</g>
	<g id="XMLID_81_">
		<g>
			<g>
				<path class="st1" d="M368.9,627.2c0.1,0.1-0.3,1-1.5,2.2c-1.2,1.2-3.1,2.9-5.8,4.3c-2.7,1.4-6.2,2.7-10.2,3.3
					c-4,0.6-8.6,0.5-13.2-0.6c-2.3-0.6-4.6-1.4-6.5-2.7c-2-1.3-3.5-3-4.7-4.8c-2.3-3.6-2.9-7.7-2.3-10.8c0.5-3.2,1.8-5.4,2.9-6.7
					c1.1-1.3,1.9-1.8,2.1-1.7c0.2,0.2-0.3,0.9-1,2.4c-0.7,1.4-1.5,3.6-1.7,6.3c-0.2,2.7,0.5,6,2.5,8.9c1,1.4,2.3,2.8,3.9,3.8
					c1.6,1,3.5,1.7,5.6,2.2c4.2,1,8.3,1.2,12,0.8c3.7-0.4,7-1.3,9.6-2.4c2.6-1.1,4.6-2.3,6-3.2C367.9,627.5,368.7,627,368.9,627.2z"
					/>
			</g>
		</g>
	</g>
	<g id="XMLID_89_">
		<g>
			<g>
				<path class="st1" d="M395.4,601c0,0.5-3.2,0.5-7.6,2.4c-2.2,1-4.8,2.4-7.5,4.2c-2.7,1.8-5.6,4.1-8.8,6.4
					c-3.2,2.2-6.6,4.2-9.9,5.3c-3.4,1.1-6.6,1.5-9.2,1.4c-2.6-0.1-4.7-0.6-6.1-1c-1.4-0.5-2.1-0.9-2-1.1c0.1-0.5,3.2,0.2,8.1-0.2
					c2.4-0.2,5.3-0.8,8.2-1.9c3-1.2,6-3,9.1-5.2c3.1-2.2,6.1-4.4,9-6.2c2.9-1.8,5.8-3.1,8.3-3.9c2.5-0.8,4.7-0.9,6.2-0.9
					C394.6,600.5,395.4,600.8,395.4,601z"/>
			</g>
		</g>
	</g>
	<g id="XMLID_97_">
		<g>
			<g>
				<path class="st1" d="M437,588.1c0.1,1-10.2,2.2-22.1,6c-12,3.8-21.1,8.7-21.6,7.8c-0.2-0.4,1.8-2.1,5.4-4.3
					c3.6-2.2,9-4.7,15.2-6.7c6.2-2,12-3,16.2-3.3C434.3,587.4,437,587.7,437,588.1z"/>
			</g>
		</g>
	</g>
	<g id="XMLID_105_">
		<g>
			<g>
				<path class="st1" d="M462.9,545c0.2,0.1,0.2,0.9-0.2,2.2c-0.4,1.4-1.1,3.3-2.3,5.5c-2.3,4.4-5.8,10.3-10.3,16.3
					c-9,12.2-18.5,20.2-19,19.5c-0.7-0.7,7.6-9.5,16.4-21.5c4.4-6,8.2-11.5,11-15.6C461.2,547.5,462.4,544.8,462.9,545z"/>
			</g>
		</g>
	</g>
	<g id="XMLID_113_">
		<g>
			<g>
				<path class="st1" d="M475.1,575.8c-0.9-0.1,0-8.3-3.2-17.5c-1.6-4.6-3.7-8.5-5.6-10.9c-1.9-2.5-3.6-3.6-3.4-4.1
					c0.2-0.4,2.4,0.1,5,2.5c2.6,2.4,5.3,6.5,7,11.5c1.7,5,2,9.8,1.7,13.2C476.3,573.9,475.5,575.8,475.1,575.8z"/>
			</g>
		</g>
	</g>
	<g id="XMLID_121_">
		<g>
			<g>
				<path class="st1" d="M410,639.5c-0.1-0.5,5.1-1.4,12.5-5c3.7-1.8,7.9-4.4,12.2-7.7c4.3-3.4,8.6-7.5,12.7-12.3
					c8.1-9.7,13.9-19.8,18.1-27c4.2-7.3,6.8-11.8,7.2-11.6c0.4,0.2-1.5,5-5.2,12.7c-1.8,3.8-4.2,8.3-7.1,13.1
					c-2.9,4.8-6.4,10-10.6,15c-4.2,5-8.8,9.3-13.4,12.6c-4.6,3.4-9.1,5.8-13.1,7.4c-4,1.6-7.4,2.5-9.7,2.8
					C411.3,639.7,410,639.7,410,639.5z"/>
			</g>
		</g>
	</g>
	<g id="XMLID_129_">
		<g>
			<g>
				<path class="st1" d="M328.4,766.3c-0.4,0-1.7-7.3-2.9-19.3c-0.6-6-1.1-13.2-1.4-21.1c-0.3-8-0.4-16.7-0.3-25.9
					c0.2-9.2,0.7-18,1.3-25.9c0.7-7.9,1.4-15.1,2.3-21.1c1.6-11.9,3.2-19.2,3.6-19.2c0.5,0.1-0.3,7.5-1.4,19.4
					c-0.5,6-1.1,13.1-1.6,21c-0.5,7.9-0.8,16.6-1,25.8c-0.2,9.1-0.1,17.9,0,25.8c0.2,7.9,0.4,15.1,0.7,21.1
					C328.4,758.8,328.9,766.2,328.4,766.3z"/>
			</g>
		</g>
	</g>
	<g id="XMLID_137_">
		<g>
			<g>
				<path class="st1" d="M427.8,746.4c-0.4,0.1-1.9-5.8-3.6-15.4c-1.7-9.6-3.6-22.9-5-37.7c-1.4-14.8-2-28.2-2.2-38
					c-0.1-9.7,0.2-15.8,0.6-15.8c0.5,0,1,6,1.7,15.7c0.7,9.7,1.7,23,3.1,37.8c1.4,14.7,3,28,4.1,37.7
					C427.7,740.3,428.3,746.3,427.8,746.4z"/>
			</g>
		</g>
	</g>
	<g id="XMLID_145_">
		<g>
			<g>
				<path class="st1" d="M428.7,754.1c0.2,0.1-0.6,1.5-2.3,3.6c-1.8,2.1-4.6,4.9-8.8,7.7c-4.1,2.7-9.5,5.4-15.7,7.2
					c-6.2,1.9-13.3,3.1-20.7,3.7c-7.4,0.6-14.5,0.9-21,0.6c-3.2-0.2-6.3-0.5-9.2-0.8c-2.9-0.4-5.5-0.9-7.9-1.6
					c-4.8-1.2-8.4-2.8-10.9-4.1c-1.2-0.6-2.1-1.2-2.7-1.6c-0.6-0.4-0.9-0.7-0.8-0.8s0.4,0,1.1,0.2c0.7,0.2,1.6,0.6,2.9,1
					c2.5,0.9,6.2,2.1,10.9,3c2.3,0.5,4.9,0.8,7.7,1.1c2.8,0.3,5.8,0.5,8.9,0.5c6.3,0.1,13.3-0.2,20.6-0.8c7.3-0.6,14.1-1.7,20.2-3.4
					c6-1.6,11.2-3.9,15.3-6.3c4.1-2.4,7.1-4.8,9.1-6.6C427.4,755,428.5,753.9,428.7,754.1z"/>
			</g>
		</g>
	</g>
	<g id="XMLID_153_">
		<g>
			<g>
				<path class="st1" d="M436.9,729.3c-0.4,0.1-1.9-4.7-3.7-12.7c-1.8-7.9-3.8-19-5.3-31.4c-1.5-12.3-2.3-23.6-2.6-31.7
					c-0.2-8.1,0-13.2,0.4-13.2c0.9,0,2.3,20,5.4,44.5C434.2,709.4,437.9,729.1,436.9,729.3z"/>
			</g>
		</g>
	</g>
	<g id="XMLID_161_">
		<g>
			<g>
				<path class="st1" d="M438.1,730.7c0.4,0.2,0.4,1.2-0.2,2.5c-0.5,1.3-1.5,3-3,4.6c-1.5,1.6-3,2.8-4.3,3.4
					c-1.3,0.6-2.2,0.8-2.5,0.4c-0.5-0.8,1.8-3.1,4.4-6C435.1,732.8,437.2,730.3,438.1,730.7z"/>
			</g>
		</g>
	</g>
	<g id="XMLID_169_">
		<g>
			<g>
				<path class="st1" d="M328,981.5c0,0.1-0.8,0.1-2.3,0c-1.5-0.2-3.7-0.3-6.4-1.6c-1.3-0.7-2.7-1.7-3.8-3.2c-1.1-1.4-2-3.3-2.5-5.3
					c-1.1-4-0.9-8.8-0.3-13.8c1.1-10,3.2-21.8,5.7-34.8c2.5-13,5.1-27.3,6-42.5c0.5-7.6,0.8-15,1.2-22.2c0.3-7.2,0.7-14.2,1.1-20.8
					c0.8-13.2,1.8-25.1,2.7-35.1c0.9-10,1.8-18.1,2.5-23.6c0.7-5.6,1.2-8.6,1.5-8.6c0.2,0,0.1,3.1-0.2,8.7
					c-0.4,5.6-0.9,13.7-1.5,23.7c-0.6,10-1.3,21.9-2,35.1c-0.3,6.6-0.6,13.6-0.9,20.7c-0.3,7.2-0.6,14.7-1.1,22.3
					c-1,15.4-3.7,29.8-6.3,42.8c-2.6,13-5,24.6-6.4,34.5c-0.8,4.9-1,9.4-0.2,13.1c0.4,1.9,1.1,3.5,2,4.8c0.9,1.3,2,2.3,3.1,3
					c2.3,1.3,4.5,1.7,5.9,2.1C327.3,981.2,328,981.4,328,981.5z"/>
			</g>
		</g>
	</g>
	<g id="XMLID_177_">
		<g>
			<g>
				<path class="st1" d="M381.9,816.8c-0.4,0.2-1.6-1.5-3.2-4.4c-1.6-2.9-3.6-6.9-6.1-11.2c-1.2-2.1-2.5-4.1-3.6-5.9
					c-1.2-1.8-2.3-3.3-3.3-4.6c-2-2.6-3.3-4.1-3-4.5c0.3-0.3,2.2,0.6,4.7,2.9c1.3,1.1,2.6,2.6,4,4.4c1.4,1.8,2.7,3.8,4,6
					c2.5,4.5,4.3,8.7,5.4,11.9C381.9,814.6,382.3,816.6,381.9,816.8z"/>
			</g>
		</g>
	</g>
	<g id="XMLID_185_">
		<g>
			<g>
				<path class="st1" d="M416.8,983.7c0,0.1-0.7,0.1-2-0.1c-1.3-0.2-3.1-0.5-5.5-1.1c-2.4-0.6-5.3-1.5-8.4-3.3
					c-1.5-0.9-3.1-2.1-4.5-3.6c-1.4-1.5-2.6-3.4-3.5-5.5c-1.8-4.2-2.6-9.1-3.1-14.2c-0.5-5.2-0.6-10.7-0.6-16.4
					c0-11.5-0.1-24-0.7-37.3c-1-26.4-3.4-50.3-5.4-67.4c-1-8.6-2.4-15.4-3.9-20c-1.4-4.6-2.6-7-2.4-7.1c0.2-0.1,1.7,2.1,3.6,6.7
					c1.9,4.5,3.7,11.5,5,20.1c2.6,17.2,5.3,41.1,6.4,67.6c0.5,13.3,0.6,25.9,0.4,37.4c-0.1,5.7-0.1,11.1,0.3,16.2
					c0.4,5,1,9.7,2.6,13.5c1.5,3.9,4.1,6.7,6.9,8.5c2.8,1.8,5.5,2.9,7.8,3.6c2.3,0.8,4.1,1.3,5.3,1.6
					C416.2,983.4,416.9,983.6,416.8,983.7z"/>
			</g>
		</g>
	</g>
	<g id="XMLID_193_">
		<g>
			<g>
				<path class="st1" d="M440.4,976.3c-0.2-0.1,1.6-2.7,3.3-7.9c0.9-2.6,1.6-5.9,1.9-9.8c0.2-3.9-0.2-8.3-0.8-13.2
					c-2.4-19.8-5.5-47.2-8.7-77.5c-3.2-30.3-5.9-57.7-7.7-77.6c-0.9-9.9-1.6-18-2-23.6c-0.4-5.6-0.5-8.7-0.3-8.7
					c0.2,0,0.8,3,1.5,8.6s1.8,13.5,3,23.5c2.4,19.8,5.5,47.2,8.7,77.5c3.2,30.3,5.9,57.7,7.7,77.6c0.5,5,0.8,9.6,0.3,13.6
					c-0.4,4-1.4,7.4-2.5,10c-1.1,2.6-2.2,4.5-3,5.8C441,975.8,440.5,976.4,440.4,976.3z"/>
			</g>
		</g>
	</g>
	<g id="XMLID_201_">
		<g>
			<g>
				<path class="st1" d="M441.8,973.1c0.1,0,0.2,0.2,0.2,0.5c0.1,0.3,0,0.7-0.1,1.2c-0.2,1.1-0.9,2.6-2.3,3.9
					c-1.3,1.4-3.2,2.7-5.4,3.7c-1.1,0.5-2.2,1-3.4,1.5c-1.2,0.5-2.5,1-3.9,1.3c-1.4,0.4-2.9,0.5-4.3,0.5c-1.4-0.1-2.8-0.4-4-0.7
					c-2.4-0.8-4.3-2-5.8-3c-2.9-2.2-4.4-3.8-4.1-4.2c0.3-0.4,2.3,0.7,5.3,2.2c3.1,1.5,7.4,3.4,12.1,2.1c1.2-0.3,2.4-0.7,3.5-1.1
					c1.2-0.4,2.3-0.9,3.3-1.3c2.1-0.9,3.8-1.8,5.1-2.7C440.8,975.2,441.3,973,441.8,973.1z"/>
			</g>
		</g>
	</g>
	<g id="XMLID_209_">
		<g>
			<g>
				<path class="st1" d="M359.4,977.6c-0.1-0.1,0.5-0.4,1.4-1.1c0.9-0.7,2.3-1.7,3.6-3.4c1.4-1.7,2.8-3.9,3.8-6.8
					c1-2.9,1.6-6.4,1.7-10.3c0.2-3.9-0.1-8.3-0.1-13c-0.1-4.7-0.2-9.7-0.2-15c-0.1-10.5,0-22.1,0.2-34.3c0.5-24.3,1.7-46.4,2.9-62.3
					c0.6-8,1.2-14.4,1.7-18.8c0.5-4.4,0.9-6.9,1.1-6.9c0.2,0,0.3,2.5,0.1,6.9c-0.1,4.5-0.4,10.9-0.7,18.9c-0.6,15.9-1.5,37.9-2,62.2
					c-0.3,12.1-0.4,23.7-0.5,34.2c0,5.3-0.1,10.3-0.1,14.9c0,4.7,0,9-0.3,13.1c-0.3,4.1-1.1,7.7-2.3,10.8c-1.2,3-2.9,5.4-4.5,7
					c-1.6,1.7-3.2,2.6-4.3,3.1C360.1,977.6,359.4,977.7,359.4,977.6z"/>
			</g>
		</g>
	</g>
	<g id="XMLID_217_">
		<g>
			<g>
				<path class="st1" d="M360.1,976.4c0.3,0.3-1.3,2.3-4.7,4.3c-3.4,2.1-8.7,4.2-14.9,4.4c-3.1,0.1-6-0.2-8.6-0.8
					c-2.6-0.7-5-1.9-6.5-3.4c-1.5-1.5-2.2-3.2-2.4-4.4c-0.2-1.2,0.1-1.8,0.3-1.8c0.2,0,0.4,0.6,0.9,1.4c0.5,0.9,1.3,2,2.7,3.1
					c1.4,1,3.3,1.8,5.6,2.2c2.3,0.4,5,0.6,7.8,0.5c5.6-0.2,10.5-1.8,14-3.2C357.8,977.3,359.8,976,360.1,976.4z"/>
			</g>
		</g>
	</g>
	<g id="XMLID_225_">
		<g>
			<g>
				<path class="st1" d="M330,1016.5c-0.9-0.1-0.7-7.7-0.1-17.1c0.7-9.4,1.6-16.9,2.5-16.9c0.9,0,1.4,7.7,0.8,17.1
					C332.5,1009,330.9,1016.6,330,1016.5z"/>
			</g>
		</g>
	</g>
	<g id="XMLID_233_">
		<g>
			<g>
				<path class="st1" d="M343.2,1013.7c-0.9-0.1-1-6.7-0.6-14.8c0.4-8.1,1.1-14.6,2-14.6c0.9,0,1.6,6.6,1.2,14.8
					C345.4,1007.3,344.1,1013.8,343.2,1013.7z"/>
			</g>
		</g>
	</g>
	<g id="XMLID_241_">
		<g>
			<g>
				<path class="st1" d="M374.7,1006.2c-0.1,0.5-1.9,0.3-4.6,0.1c-1.4-0.1-3-0.1-4.8-0.1c-1.8,0-3.8,0.1-5.8,0.3
					c-4.1,0.3-7.9,0.9-10.7,1.1c-2.8,0.2-4.6,0.2-4.7-0.2c-0.1-0.4,1.5-1.2,4.2-2c2.7-0.8,6.5-1.7,10.9-2.1c2.2-0.2,4.3-0.2,6.2,0
					c1.9,0.2,3.6,0.5,5,0.9C373.3,1004.8,374.9,1005.8,374.7,1006.2z"/>
			</g>
		</g>
	</g>
	<g id="XMLID_249_">
		<g>
			<g>
				<path class="st1" d="M375,1007.7c0.2,0.4-2.3,2.3-6.7,4.9c-4.4,2.6-10.8,5.7-18.1,8.3c-3.7,1.3-7.2,2.4-10.5,3.2
					c-0.8,0.2-1.6,0.4-2.4,0.6c-0.8,0.2-1.6,0.4-2.5,0.4c-0.9,0-1.9-0.1-2.8-0.6c-0.8-0.5-1.4-1.1-1.8-1.8c-0.8-1.3-1-2.6-1.1-3.7
					c-0.1-1.1-0.1-1.9-0.1-2.6c0-1.4-0.2-2.1,0.1-2.2c0.2-0.1,0.8,0.6,1.2,2c0.5,1.4,0.6,3.6,1.9,5.2c0.7,0.8,1.4,1.1,2.5,1
					c1.1-0.1,2.7-0.7,4.3-1.2c3.2-1,6.6-2.1,10.2-3.4C363.5,1012.7,374.5,1006.9,375,1007.7z"/>
			</g>
		</g>
	</g>
	<g id="XMLID_257_">
		<g>
			<g>
				<path class="st1" d="M412.7,1012.9c-0.9,0-1.5-7.1-2-15.8c-0.5-8.7-0.7-15.8,0.2-15.9c0.9-0.1,2.6,6.9,3.1,15.7
					C414.4,1005.8,413.6,1012.9,412.7,1012.9z"/>
			</g>
		</g>
	</g>
	<g id="XMLID_265_">
		<g>
			<g>
				<path class="st1" d="M424.6,1007.2c-0.9,0.1-1.9-5-2.3-11.2c-0.4-6.2,0.1-11.3,1-11.4c0.9-0.1,1.9,5,2.3,11.2
					C425.9,1002,425.5,1007.1,424.6,1007.2z"/>
			</g>
		</g>
	</g>
	<g id="XMLID_273_">
		<g>
			<g>
				<path class="st1" d="M452.9,1000.9c-0.3,0.9-6.5-0.7-14.1-0.3c-7.6,0.3-13.6,2.5-14,1.6c-0.2-0.4,1.1-1.5,3.6-2.6
					c2.5-1.1,6.1-2.1,10.3-2.3c4.1-0.2,7.9,0.5,10.4,1.3C451.7,999.5,453.1,1000.5,452.9,1000.9z"/>
			</g>
		</g>
	</g>
	<g id="XMLID_281_">
		<g>
			<g>
				<path class="st1" d="M453.4,1002.3c0.1,0.5-2.5,1.5-6,4.4c-1.8,1.4-3.8,3.2-6.5,5c-2.6,1.8-5.6,3.5-8.9,4.9
					c-3.3,1.4-6.6,2.5-9.7,3.1c-0.8,0.2-1.5,0.3-2.2,0.4c-0.8,0.1-1.6,0.2-2.3,0.2c-1.5,0-3.1-0.3-4.4-1.4c-0.6-0.5-1-1.2-1.2-1.9
					c-0.2-0.7-0.2-1.3-0.1-1.8c0.1-1,0.3-1.7,0.4-2.3c0.2-1.2-0.1-1.8,0.1-1.9c0.1-0.1,0.3,0,0.5,0.3c0.3,0.3,0.5,0.9,0.6,1.6
					c0.2,1.4-0.2,3.5,1.1,4.3c0.6,0.4,1.6,0.6,2.8,0.4c0.6-0.1,1.2-0.2,1.9-0.3c0.7-0.2,1.4-0.3,2.1-0.5c2.9-0.8,6-1.8,9.1-3.2
					c3.1-1.4,6-2.9,8.6-4.5c2.5-1.5,4.7-3.2,6.8-4.4c2-1.2,3.8-2,5.1-2.4C452.5,1002.1,453.3,1002.1,453.4,1002.3z"/>
			</g>
		</g>
	</g>
	<g id="XMLID_289_">
		<g>
			<g>
				<path class="st1" d="M473.5,522.2c-0.3,0-0.5-0.7-0.8-1.6c0-0.1-0.1-0.2-0.2-0.3c0-0.1-0.1-0.2-0.2-0.2
					c-0.1-0.2-0.3-0.3-0.5-0.4c-0.3-0.2-0.9-0.2-1.1,0.1c-0.1,0.2-0.9,2.1-1.3,3.7c-0.5,1.7-1,3.5-1.3,5.4c-0.4,2.2-0.5,4.4-0.6,6.3
					c0,1.9,0.1,3.9-0.2,5.6c-0.2,1.7-0.9,3.1-1.6,3.8c-0.7,0.7-1.3,0.8-1.4,0.7c-0.2-0.2,0.1-0.6,0.3-1.4c0.2-0.7,0.4-1.8,0.4-3.2
					c0-1.4-0.4-3.2-0.5-5.3c-0.1-2.1-0.1-4.5,0.4-7c0.4-2.1,0.9-4.1,1.6-5.9c0.3-0.9,0.7-1.7,1.1-2.5c0.2-0.4,0.5-0.9,0.7-1.3
					c0.3-0.6,0.7-1,1.2-1.3c0.6-0.4,1.3-0.5,2-0.4c0.6,0.1,1.2,0.5,1.6,0.8c0.4,0.4,0.7,0.9,0.8,1.3c0.1,0.2,0.1,0.4,0.2,0.7
					c0,0.2,0,0.4,0,0.5C474,521.6,473.7,522.1,473.5,522.2z"/>
			</g>
		</g>
	</g>
	<g id="XMLID_297_">
		<g>
			<g>
				<path class="st1" d="M482.6,499.3c0.4-0.1,1.1,1.6,1.4,4.3c0.3,2.7,0,6.7-1.3,10.7c-0.6,2-1.5,3.9-2.4,5.5
					c-0.5,0.8-0.9,1.5-1.5,2.3c-0.6,0.7-1.2,1.4-2.1,1.8c-0.4,0.2-0.8,0.3-1.4,0.3c-0.5,0-0.9-0.2-1.2-0.3c-0.7-0.4-1.1-0.9-1.2-1.4
					c-0.2-0.5-0.1-0.9,0.1-1.1c0.1-0.2,0.3-0.3,0.4-0.3c0.2,0,0.1,0.4,0.6,0.8c0.2,0.2,0.5,0.3,0.8,0.4c0.4,0,0.5,0,0.8-0.3
					c0.3-0.2,0.6-0.7,1-1.3c0.3-0.6,0.7-1.3,1-2.1c0.7-1.5,1.4-3.3,2-5.1C482,505.9,481.6,499.4,482.6,499.3z"/>
			</g>
		</g>
	</g>
	<g id="XMLID_305_">
		<g>
			<g>
				<path class="st1" d="M483.9,527c-0.8-0.4,1.2-6,2-13.1c0.9-7.1,0.3-13,1.2-13.2c0.4-0.1,1.1,1.3,1.7,3.8c0.5,2.5,0.8,6,0.3,9.8
					c-0.5,3.8-1.6,7.2-2.7,9.4C485.4,526,484.3,527.2,483.9,527z"/>
			</g>
		</g>
	</g>
	<g id="XMLID_313_">
		<g>
			<g>
				<path class="st1" d="M487.5,532.8c-0.9-0.4,1.2-6,1.7-13.2c0.6-7.1-0.5-13,0.4-13.3c0.4-0.1,1.3,1.2,2,3.7
					c0.7,2.4,1.2,6,0.9,9.8c-0.3,3.9-1.3,7.3-2.4,9.6C489,531.8,487.9,533,487.5,532.8z"/>
			</g>
		</g>
	</g>
	<g id="XMLID_321_">
		<g>
			<g>
				<path class="st1" d="M488.5,542c-0.8-0.5,1.2-5,2.7-10.9c1.6-5.8,2.2-10.7,3.1-10.8c0.4,0,0.9,1.3,1,3.4
					c0.1,2.1-0.1,5.1-0.9,8.2c-0.8,3.1-2.1,5.8-3.3,7.6C489.9,541.3,488.9,542.2,488.5,542z"/>
			</g>
		</g>
	</g>
	<g id="XMLID_329_">
		<g>
			<g>
				<path class="st1" d="M476.2,561.5c-0.4-0.1-0.4-2.1,1.1-4.7c0.7-1.3,1.7-2.8,2.9-4.3c1.2-1.5,2.6-3,3.9-4.6
					c2.6-3.2,4.4-6.5,5.5-9c1.1-2.5,1.7-4.2,2.1-4.1c0.4,0.1,0.7,1.9,0,4.8c-0.6,2.9-2.2,6.9-5.1,10.4c-1.4,1.7-2.9,3.2-4.2,4.5
					c-1.3,1.3-2.4,2.5-3.3,3.6C477.4,560.1,476.6,561.6,476.2,561.5z"/>
			</g>
		</g>
	</g>
</g>
</svg>
